<svg width="1920" height="950" viewBox="0 0 1920 950" fill="none" xmlns="http://www.w3.org/2000/svg">
<path d="M0 261H45V218H0V261Z" fill="#FEF4BC"/>
<path d="M45 311V268H0V311H45Z" fill="#FEF4BC"/>
<path d="M43 412V369H0V412H43Z" fill="#FEF4BC"/>
<path d="M45 463V420H0V463H45Z" fill="#FEF4BC"/>
<path d="M52 261H97V218H52V261Z" fill="#FEF4BC"/>
<path d="M97 311V268H52V311H97Z" fill="#FEF4BC"/>
<path d="M52 412H96V369H52V412Z" fill="#FEF4BC"/>
<path d="M97 463V420H52V463H97Z" fill="#FEF4BC"/>
<path d="M104 261H149V218H104V261Z" fill="#FEF4BC"/>
<path d="M149 311V268H104V311H149Z" fill="#FEF4BC"/>
<path d="M148 412V369H104V412H148Z" fill="#FEF4BC"/>
<path d="M104 463H149V420H104V463Z" fill="#FEF4BC"/>
<path d="M157 261H201V218H157V261Z" fill="#FEF4BC"/>
<path d="M201 311V268H157V311H201Z" fill="#FEF4BC"/>
<path d="M157 412H200V369H157V412Z" fill="#FEF4BC"/>
<path d="M157 463H201V420H157V463Z" fill="#FEF4BC"/>
<path d="M209 261H253V218H209V261Z" fill="#FEF4BC"/>
<path d="M209 268V311H253V268H209Z" fill="#FEF4BC"/>
<path d="M209 369V412H252V369H209Z" fill="#FEF4BC"/>
<path d="M209 420V463H253V420H209Z" fill="#FEF4BC"/>
<path d="M261 261H306V218H261V261Z" fill="#FEF4BC"/>
<path d="M261 268V311H306V268H261Z" fill="#FEF4BC"/>
<path d="M261 369V412H305V369H261Z" fill="#FEF4BC"/>
<path d="M261 420V463H306V420H261Z" fill="#FEF4BC"/>
<path d="M313 261H358V218H313V261Z" fill="#FEF4BC"/>
<path d="M313 268V311H358V268H313Z" fill="#FEF4BC"/>
<path d="M313 369V412H357V369H313Z" fill="#FEF4BC"/>
<path d="M313 420V463H358V420H313Z" fill="#FEF4BC"/>
<path d="M366 261H410V218H366V261Z" fill="#FEF4BC"/>
<path d="M366 268V311H410V268H366Z" fill="#FEF4BC"/>
<path d="M366 369V412H409V369H366Z" fill="#FEF4BC"/>
<path d="M366 420V463H410V420H366Z" fill="#FEF4BC"/>
<path d="M418 218V261H462V218H418Z" fill="#FEF4BC"/>
<path d="M418 268V311H462V268H418Z" fill="#FEF4BC"/>
<path d="M418 369V412H461V369H418Z" fill="#FEF4BC"/>
<path d="M418 420V463H462V420H418Z" fill="#FEF4BC"/>
<path d="M470 218V261H515V218H470Z" fill="#FEF4BC"/>
<path d="M470 268V311H515V268H470Z" fill="#FEF4BC"/>
<path d="M470 369V412H513V369H470Z" fill="#FEF4BC"/>
<path d="M470 420V463H515V420H470Z" fill="#FEF4BC"/>
<path d="M522 218V261H567V218H522Z" fill="#FEF4BC"/>
<path d="M522 268V311H567V268H522Z" fill="#FEF4BC"/>
<path d="M522 369V412H566V369H522Z" fill="#FEF4BC"/>
<path d="M522 420V463H567V420H522Z" fill="#FEF4BC"/>
<path d="M575 218V261H619V218H575Z" fill="#FEF4BC"/>
<path d="M575 268V311H619V268H575Z" fill="#FEF4BC"/>
<path d="M575 369V412H618V369H575Z" fill="#FEF4BC"/>
<path d="M575 420V463H619V420H575Z" fill="#FEF4BC"/>
<path d="M627 218V261H671V218H627Z" fill="#FEF4BC"/>
<path d="M627 268V311H671V268H627Z" fill="#FEF4BC"/>
<path d="M627 369V412H670V369H627Z" fill="#FEF4BC"/>
<path d="M627 420V463H671V420H627Z" fill="#FEF4BC"/>
<path d="M724 218H679V261H724V218Z" fill="#FEF4BC"/>
<path d="M724 268H679V311H724V268Z" fill="#FEF4BC"/>
<path d="M679 412H722V369H679V412Z" fill="#FEF4BC"/>
<path d="M724 420H679V463H724V420Z" fill="#FEF4BC"/>
<path d="M731 218V261H775V218H731Z" fill="#FEF4BC"/>
<path d="M731 268V311H775V268H731Z" fill="#FEF4BC"/>
<path d="M731 412H774V369H731V412Z" fill="#FEF4BC"/>
<path d="M731 463H775V420H731V463Z" fill="#FEF4BC"/>
<path d="M782 218V261H827V218H782Z" fill="#FEF4BC"/>
<path d="M782 268V311H827V268H782Z" fill="#FEF4BC"/>
<path d="M782 369V412H826V369H782Z" fill="#FEF4BC"/>
<path d="M782 420V463H827V420H782Z" fill="#FEF4BC"/>
<path d="M835 261H879V218H835V261Z" fill="#FEF4BC"/>
<path d="M835 268V311H879V268H835Z" fill="#FEF4BC"/>
<path d="M835 369V412H878V369H835Z" fill="#FEF4BC"/>
<path d="M835 463H879V420H835V463Z" fill="#FEF4BC"/>
<path d="M887 261H931V218H887V261Z" fill="#FEF4BC"/>
<path d="M887 268V311H931V268H887Z" fill="#FEF4BC"/>
<path d="M887 369V412H930V369H887Z" fill="#FEF4BC"/>
<path d="M887 463H931V420H887V463Z" fill="#FEF4BC"/>
<path d="M939 261H984V218H939V261Z" fill="#FEF4BC"/>
<path d="M984 268H939V311H984V268Z" fill="#FEF4BC"/>
<path d="M982 369H939V412H982V369Z" fill="#FEF4BC"/>
<path d="M939 463H984V420H939V463Z" fill="#FEF4BC"/>
<path d="M991 261H1036V218H991V261Z" fill="#FEF4BC"/>
<path d="M1036 268H991V311H1036V268Z" fill="#FEF4BC"/>
<path d="M1035 369H991V412H1035V369Z" fill="#FEF4BC"/>
<path d="M991 463H1036V420H991V463Z" fill="#FEF4BC"/>
<path d="M1044 261H1088V218H1044V261Z" fill="#FEF4BC"/>
<path d="M1044 268V311H1088V268H1044Z" fill="#FEF4BC"/>
<path d="M1044 369V412H1087V369H1044Z" fill="#FEF4BC"/>
<path d="M1044 463H1088V420H1044V463Z" fill="#FEF4BC"/>
<path d="M1096 261H1140V218H1096V261Z" fill="#FEF4BC"/>
<path d="M1096 268V311H1140V268H1096Z" fill="#FEF4BC"/>
<path d="M1096 369V412H1139V369H1096Z" fill="#FEF4BC"/>
<path d="M1096 463H1140V420H1096V463Z" fill="#FEF4BC"/>
<path d="M1148 261H1193V218H1148V261Z" fill="#FEF4BC"/>
<path d="M1193 268H1148V311H1193V268Z" fill="#FEF4BC"/>
<path d="M1191 369H1148V412H1191V369Z" fill="#FEF4BC"/>
<path d="M1148 463H1193V420H1148V463Z" fill="#FEF4BC"/>
<path d="M1200 261H1245V218H1200V261Z" fill="#FEF4BC"/>
<path d="M1200 268V311H1245V268H1200Z" fill="#FEF4BC"/>
<path d="M1200 369V412H1244V369H1200Z" fill="#FEF4BC"/>
<path d="M1200 463H1245V420H1200V463Z" fill="#FEF4BC"/>
<path d="M1297 218H1253V261H1297V218Z" fill="#FEF4BC"/>
<path d="M45 210V167H0V210H45Z" fill="#FEF4BC"/>
<path d="M97 210V167H52V210H97Z" fill="#FEF4BC"/>
<path d="M149 210V167H104V210H149Z" fill="#FEF4BC"/>
<path d="M201 210V167H157V210H201Z" fill="#FEF4BC"/>
<path d="M209 167V210H253V167H209Z" fill="#FEF4BC"/>
<path d="M261 167V210H306V167H261Z" fill="#FEF4BC"/>
<path d="M313 167V210H358V167H313Z" fill="#FEF4BC"/>
<path d="M366 167V210H410V167H366Z" fill="#FEF4BC"/>
<path d="M418 167V210H462V167H418Z" fill="#FEF4BC"/>
<path d="M470 167V210H515V167H470Z" fill="#FEF4BC"/>
<path d="M522 167V210H567V167H522Z" fill="#FEF4BC"/>
<path d="M575 167V210H619V167H575Z" fill="#FEF4BC"/>
<path d="M627 167V210H671V167H627Z" fill="#FEF4BC"/>
<path d="M724 167H679V210H724V167Z" fill="#FEF4BC"/>
<path d="M731 167V210H775V167H731Z" fill="#FEF4BC"/>
<path d="M782 167V210H827V167H782Z" fill="#FEF4BC"/>
<path d="M835 167V210H879V167H835Z" fill="#FEF4BC"/>
<path d="M887 167V210H931V167H887Z" fill="#FEF4BC"/>
<path d="M984 167H939V210H984V167Z" fill="#FEF4BC"/>
<path d="M1036 167H991V210H1036V167Z" fill="#FEF4BC"/>
<path d="M1044 167V210H1088V167H1044Z" fill="#FEF4BC"/>
<path d="M1096 167V210H1140V167H1096Z" fill="#FEF4BC"/>
<path d="M1193 167H1148V210H1193V167Z" fill="#FEF4BC"/>
<path d="M1200 167V210H1245V167H1200Z" fill="#FEF4BC"/>
<path d="M1297 167H1253V210H1297V167Z" fill="#FEF4BC"/>
<path d="M1297 268H1253V311H1297V268Z" fill="#FEF4BC"/>
<path d="M1296 369H1253V412H1296V369Z" fill="#FEF4BC"/>
<path d="M1297 420H1253V463H1297V420Z" fill="#FEF4BC"/>
<path d="M1305 218V261H1349V218H1305Z" fill="#FEF4BC"/>
<path d="M1305 268V311H1349V268H1305Z" fill="#FEF4BC"/>
<path d="M1305 369V412H1348V369H1305Z" fill="#FEF4BC"/>
<path d="M1305 420V463H1349V420H1305Z" fill="#FEF4BC"/>
<path d="M1357 218V261H1400V218H1357Z" fill="#FEF4BC"/>
<path d="M1357 268V311H1400V268H1357Z" fill="#FEF4BC"/>
<path d="M1357 369V412H1399V369H1357Z" fill="#FEF4BC"/>
<path d="M1357 420V463H1400V420H1357Z" fill="#FEF4BC"/>
<path d="M1408 218V261H1453V218H1408Z" fill="#FEF4BC"/>
<path d="M1305 167V210H1349V167H1305Z" fill="#FEF4BC"/>
<path d="M1357 167V210H1400V167H1357Z" fill="#FEF4BC"/>
<path d="M1408 167V210H1453V167H1408Z" fill="#FEF4BC"/>
<path d="M1408 268V311H1453V268H1408Z" fill="#FEF4BC"/>
<path d="M1408 369V412H1451V369H1408Z" fill="#FEF4BC"/>
<path d="M1408 420V463H1453V420H1408Z" fill="#FEF4BC"/>
<path d="M1460 218V261H1505V218H1460Z" fill="#FEF4BC"/>
<path d="M1460 167V210H1505V167H1460Z" fill="#FEF4BC"/>
<path d="M1460 268V311H1505V268H1460Z" fill="#FEF4BC"/>
<path d="M45 361V318H0V361H45Z" fill="#FEF4BC"/>
<path d="M97 361V318H52V361H97Z" fill="#FEF4BC"/>
<path d="M149 361V318H104V361H149Z" fill="#FEF4BC"/>
<path d="M201 361V318H157V361H201Z" fill="#FEF4BC"/>
<path d="M209 318V361H253V318H209Z" fill="#FEF4BC"/>
<path d="M261 318V361H306V318H261Z" fill="#FEF4BC"/>
<path d="M313 318V361H358V318H313Z" fill="#FEF4BC"/>
<path d="M366 318V361H410V318H366Z" fill="#FEF4BC"/>
<path d="M418 318V361H462V318H418Z" fill="#FEF4BC"/>
<path d="M470 318V361H515V318H470Z" fill="#FEF4BC"/>
<path d="M522 318V361H567V318H522Z" fill="#FEF4BC"/>
<path d="M575 318V361H619V318H575Z" fill="#FEF4BC"/>
<path d="M627 318V361H671V318H627Z" fill="#FEF4BC"/>
<path d="M724 318H679V361H724V318Z" fill="#FEF4BC"/>
<path d="M731 318V361H775V318H731Z" fill="#FEF4BC"/>
<path d="M782 318V361H827V318H782Z" fill="#FEF4BC"/>
<path d="M835 318V361H879V318H835Z" fill="#FEF4BC"/>
<path d="M887 318V361H931V318H887Z" fill="#FEF4BC"/>
<path d="M984 318H939V361H984V318Z" fill="#FEF4BC"/>
<path d="M1036 318H991V361H1036V318Z" fill="#FEF4BC"/>
<path d="M1044 318V361H1088V318H1044Z" fill="#FEF4BC"/>
<path d="M1096 318V361H1140V318H1096Z" fill="#FEF4BC"/>
<path d="M1193 318H1148V361H1193V318Z" fill="#FEF4BC"/>
<path d="M1200 318V361H1245V318H1200Z" fill="#FEF4BC"/>
<path d="M1297 318H1253V361H1297V318Z" fill="#FEF4BC"/>
<path d="M1556 217H1512V260H1556V217Z" fill="#FEF4BC"/>
<path d="M1556 267H1512V310H1556V267Z" fill="#FEF4BC"/>
<path d="M1555 368H1512V411H1555V368Z" fill="#FEF4BC"/>
<path d="M1556 419H1512V462H1556V419Z" fill="#FEF4BC"/>
<path d="M1556 317H1512V360H1556V317Z" fill="#FEF4BC"/>
<path d="M1305 318V361H1349V318H1305Z" fill="#FEF4BC"/>
<path d="M1357 318V361H1400V318H1357Z" fill="#FEF4BC"/>
<path d="M1408 318V361H1453V318H1408Z" fill="#FEF4BC"/>
<path d="M1460 318V361H1505V318H1460Z" fill="#FEF4BC"/>
<path d="M1460 369V412H1504V369H1460Z" fill="#FEF4BC"/>
<path d="M1460 420V463H1505V420H1460Z" fill="#FEF4BC"/>
<path d="M401.03 794.485C401.03 797.31 398.731 799.609 395.906 799.609H377.12C374.295 799.609 371.996 797.31 371.996 794.485C371.996 791.648 374.295 789.362 377.12 789.362H395.906C398.731 789.362 401.03 791.648 401.03 794.485Z" fill="#34495E"/>
<path d="M663.593 794.485C663.593 797.31 661.307 799.609 658.469 799.609H639.696C636.858 799.609 634.572 797.31 634.572 794.485C634.572 791.648 636.858 789.362 639.696 789.362H658.469C661.307 789.362 663.593 791.648 663.593 794.485Z" fill="#34495E"/>
<path d="M361 795.024H672.948V526.154H361V795.024Z" fill="#CECECE"/>
<path d="M512.447 464.685C512.447 474.078 504.827 481.698 495.434 481.698H394.473C385.067 481.698 377.46 474.078 377.46 464.685C377.46 455.291 385.067 447.672 394.473 447.672H495.434C504.827 447.672 512.447 455.291 512.447 464.685Z" fill="#CECECE"/>
<path d="M660.61 464.685C660.61 474.078 652.991 481.698 643.597 481.698H542.623C533.23 481.698 525.61 474.078 525.61 464.685C525.61 455.291 533.23 447.672 542.623 447.672H643.597C652.991 447.672 660.61 455.291 660.61 464.685Z" fill="#CECECE"/>
<path d="M673 524H361V478H673V524Z" fill="#CECECE"/>
<path d="M361 776.921H672.948V508.038H361V776.921Z" fill="#34495E"/>
<path d="M673 500H361V454H673V500Z" fill="#34495E"/>
<path d="M656.997 733.436C656.997 743.039 649.207 750.83 639.59 750.83H394.354C384.738 750.83 376.947 743.039 376.947 733.436V549.092C376.947 539.475 384.738 531.685 394.354 531.685H639.59C649.207 531.685 656.997 539.475 656.997 549.092V733.436Z" fill="#98A3A3"/>
<path d="M389.626 721.941H644.36V606.739H389.626V721.941Z" fill="#34495E"/>
<path d="M438.248 712.43H595.739V606.739H438.248V712.43Z" fill="#566472"/>
<path d="M407.979 585.693V590.777C407.979 593.536 410.213 595.77 412.972 595.77C415.717 595.77 417.951 593.536 417.951 590.777V585.693H407.979Z" fill="#BCBCBC"/>
<path d="M617.743 585.693V590.777C617.743 593.536 619.977 595.77 622.735 595.77C625.481 595.77 627.714 593.536 627.714 590.777V585.693H617.743Z" fill="#BCBCBC"/>
<path d="M656.997 577.639V549.092C656.997 539.475 649.207 531.685 639.603 531.685H394.354C384.738 531.685 376.947 539.475 376.947 549.092V577.639H656.997Z" fill="#CECECE"/>
<path d="M636.963 585.601C636.963 587.348 635.544 588.767 633.797 588.767H402.316C400.556 588.767 399.137 587.348 399.137 585.601C399.137 583.841 400.556 582.422 402.316 582.422H633.797C635.544 582.422 636.963 583.841 636.963 585.601Z" fill="white"/>
<path d="M399.321 586.455C399.702 587.782 400.872 588.767 402.317 588.767H633.798C635.243 588.767 636.412 587.782 636.793 586.455H399.321Z" fill="#CECECE"/>
<path d="M550.442 565.133H477.739V547.516H550.442V565.133Z" fill="#34495E"/>
<path d="M478.921 563.964V548.685H549.272V563.964H478.921Z" fill="#47C9AF"/>
<path d="M448.257 556.016C448.257 548.015 441.78 541.538 433.793 541.538C425.792 541.538 419.315 548.015 419.315 556.016C419.315 564.003 425.792 570.48 433.793 570.48C441.78 570.48 448.257 564.003 448.257 556.016Z" fill="#566472"/>
<path d="M419.354 556.699C419.722 564.371 426.028 570.48 433.793 570.48C441.544 570.48 447.863 564.371 448.231 556.699H419.354Z" fill="#34495E"/>
<path d="M443.121 556.016C443.121 550.853 438.943 546.675 433.793 546.675C428.644 546.675 424.466 550.853 424.466 556.016C424.466 561.166 428.644 565.343 433.793 565.343C438.943 565.343 443.121 561.166 443.121 556.016Z" fill="#EFF3F3"/>
<path d="M606.394 556.016C606.394 548.015 599.917 541.538 591.93 541.538C583.929 541.538 577.452 548.015 577.452 556.016C577.452 564.003 583.929 570.48 591.93 570.48C599.917 570.48 606.394 564.003 606.394 556.016Z" fill="#566472"/>
<path d="M577.491 556.699C577.859 564.371 584.165 570.48 591.929 570.48C599.68 570.48 605.999 564.371 606.354 556.699H577.491Z" fill="#34495E"/>
<path d="M601.112 556.016C601.112 550.853 596.934 546.675 591.785 546.675C586.635 546.675 582.457 550.853 582.457 556.016C582.457 561.166 586.635 565.343 591.785 565.343C596.934 565.343 601.112 561.166 601.112 556.016Z" fill="#EFF3F3"/>
<path d="M440.717 476.626C440.717 467.207 433.084 459.574 423.677 459.574C414.258 459.574 406.625 467.207 406.625 476.626C406.625 486.033 414.258 493.666 423.677 493.666C433.084 493.666 440.717 486.033 440.717 476.626Z" fill="#566472"/>
<path d="M406.664 477.441C407.098 486.466 414.533 493.665 423.677 493.665C432.808 493.665 440.243 486.466 440.677 477.441H406.664Z" fill="#34495E"/>
<path d="M434.661 476.626C434.661 470.556 429.747 465.63 423.678 465.63C417.608 465.63 412.682 470.556 412.682 476.626C412.682 482.682 417.608 487.609 423.678 487.609C429.747 487.609 434.661 482.682 434.661 476.626Z" fill="#EFF3F3"/>
<path d="M499.507 476.626C499.507 467.207 491.874 459.574 482.467 459.574C473.048 459.574 465.415 467.207 465.415 476.626C465.415 486.033 473.048 493.666 482.467 493.666C491.874 493.666 499.507 486.033 499.507 476.626Z" fill="#566472"/>
<path d="M465.467 477.441C465.887 486.466 473.323 493.665 482.467 493.665C491.597 493.665 499.033 486.466 499.466 477.441H465.467Z" fill="#34495E"/>
<path d="M493.452 476.626C493.452 470.556 488.538 465.63 482.469 465.63C476.399 465.63 471.473 470.556 471.473 476.626C471.473 482.682 476.399 487.609 482.469 487.609C488.538 487.609 493.452 482.682 493.452 476.626Z" fill="#EFF3F3"/>
<path d="M558.31 476.626C558.31 467.207 550.677 459.574 541.258 459.574C531.852 459.574 524.219 467.207 524.219 476.626C524.219 486.033 531.852 493.666 541.258 493.666C550.677 493.666 558.31 486.033 558.31 476.626Z" fill="#566472"/>
<path d="M524.258 477.441C524.691 486.466 532.127 493.665 541.258 493.665C550.401 493.665 557.837 486.466 558.271 477.441H524.258Z" fill="#34495E"/>
<path d="M552.254 476.626C552.254 470.556 547.328 465.63 541.258 465.63C535.189 465.63 530.275 470.556 530.275 476.626C530.275 482.682 535.189 487.609 541.258 487.609C547.328 487.609 552.254 482.682 552.254 476.626Z" fill="#EFF3F3"/>
<path d="M617.1 476.626C617.1 467.207 609.468 459.574 600.048 459.574C590.642 459.574 583.009 467.207 583.009 476.626C583.009 486.033 590.642 493.666 600.048 493.666C609.468 493.666 617.1 486.033 617.1 476.626Z" fill="#566472"/>
<path d="M583.049 477.441C583.482 486.466 590.918 493.665 600.049 493.665C609.192 493.665 616.628 486.466 617.062 477.441H583.049Z" fill="#34495E"/>
<path d="M611.042 476.626C611.042 470.556 606.116 465.63 600.046 465.63C593.99 465.63 589.063 470.556 589.063 476.626C589.063 482.682 593.99 487.609 600.046 487.609C606.116 487.609 611.042 482.682 611.042 476.626Z" fill="#EFF3F3"/>
<path d="M481.168 95.3791H551.414V1H481.168V95.3791Z" fill="#98A3A3"/>
<path d="M365.927 169.29H668.021V135.698H365.927V169.29Z" fill="#CECECE"/>
<path d="M361 165.992H672.948V132.413H361V165.992Z" fill="#34495E"/>
<path d="M672.948 134.16H361L482.534 45.9951H551.414L672.948 134.16Z" fill="#CECECE"/>
<path d="M550.442 155.916H477.739V138.285H550.442V155.916Z" fill="#CECECE"/>
<path d="M478.921 154.733V139.468H549.272V154.733H478.921Z" fill="#47C9AF"/>
<path d="M471.287 147.245C471.287 145.642 470 144.354 468.41 144.354C466.821 144.354 465.533 145.642 465.533 147.245C465.533 148.834 466.821 150.122 468.41 150.122C470 150.122 471.287 148.834 471.287 147.245Z" fill="#CECECE"/>
<path d="M461.001 147.245C461.001 145.642 459.714 144.354 458.124 144.354C456.535 144.354 455.247 145.642 455.247 147.245C455.247 148.834 456.535 150.122 458.124 150.122C459.714 150.122 461.001 148.834 461.001 147.245Z" fill="#CECECE"/>
<path d="M572.945 147.245C572.945 145.642 571.658 144.354 570.068 144.354C568.478 144.354 567.178 145.642 567.178 147.245C567.178 148.834 568.478 150.122 570.068 150.122C571.658 150.122 572.945 148.834 572.945 147.245Z" fill="#CECECE"/>
<path d="M562.658 147.245C562.658 145.642 561.37 144.354 559.781 144.354C558.178 144.354 556.891 145.642 556.891 147.245C556.891 148.834 558.178 150.122 559.781 150.122C561.37 150.122 562.658 148.834 562.658 147.245Z" fill="#CECECE"/>
<path d="M672.947 134.16H609.651L636.268 107.557L672.947 134.16Z" fill="#DBDBDB"/>
<path d="M540.745 134.16H480.116L561.187 53.0894L596.33 78.5891L540.745 134.16Z" fill="#DBDBDB"/>
<path d="M418.923 134.16H361L363.417 132.413L481.168 46.9936L482.534 45.9951H507.088L418.923 134.16Z" fill="#DBDBDB"/>
<path d="M487.986 721.941H430.654L440.166 712.43H497.497L487.986 721.941ZM389.626 706.715V606.739H438.248V658.093L389.626 706.715ZM595.739 614.188V606.739H603.201L595.739 614.188Z" fill="#6F7E8D"/>
<path d="M497.498 712.43H440.166L545.87 606.739H595.739V614.188L497.498 712.43ZM438.248 658.093V606.739H489.615L438.248 658.093Z" fill="#87919B"/>
<path d="M1025 213H1572V0H1025V213Z" fill="#CECECE"/>
<path d="M1032.35 205.842H1564.3V7.3479H1032.35V205.842Z" fill="#EAEAEA"/>
<path d="M1054.41 183.784H1542.24V29.4065H1054.41V183.784Z" fill="#98A3A3"/>
<path d="M673 213H1027V0H673V213Z" fill="#CECECE"/>
<path d="M1570 213H1920V0H1570V213Z" fill="#CECECE"/>
<path d="M0 213H361V0H0V213Z" fill="#CECECE"/>
<path d="M1074.79 98.1619L1096.62 116.157C1098.68 117.844 1102.12 119.047 1104.57 119.047H1144.09C1146.54 119.047 1149.99 117.844 1152.04 116.157L1173.86 98.1619H1074.79Z" fill="#E5E5E5"/>
<path d="M1142.41 98.5579C1142.41 98.5579 1134.44 111.684 1131.88 115.497C1130.92 116.905 1125.22 119.047 1125.22 119.047H1144.09C1146.54 119.047 1149.99 117.844 1152.04 116.157L1173.87 98.1619L1142.41 98.5579Z" fill="#D1D1D1"/>
<path d="M1176.3 97.4876C1176.3 98.0743 1175.82 98.5583 1175.23 98.5583H1073.87C1073.28 98.5583 1072.8 98.0743 1072.8 97.4876C1072.8 96.901 1073.28 96.417 1073.87 96.417H1175.23C1175.82 96.417 1176.3 96.901 1176.3 97.4876Z" fill="white"/>
<path d="M1074.79 110.98L1096.62 128.961C1098.68 130.663 1102.12 131.865 1104.57 131.865H1144.09C1146.54 131.865 1149.99 130.663 1152.04 128.961L1173.86 110.98H1074.79Z" fill="#E5E5E5"/>
<path d="M1142.41 111.362C1142.41 111.362 1134.44 124.503 1131.88 128.301C1130.92 129.724 1125.22 131.865 1125.22 131.865H1144.09C1146.54 131.865 1149.99 130.663 1152.04 128.961L1173.87 110.98L1142.41 111.362Z" fill="#D1D1D1"/>
<path d="M1176.3 110.29C1176.3 110.892 1175.82 111.361 1175.23 111.361H1073.87C1073.28 111.361 1072.8 110.892 1072.8 110.29C1072.8 109.704 1073.28 109.234 1073.87 109.234H1175.23C1175.82 109.234 1176.3 109.704 1176.3 110.29Z" fill="white"/>
<path d="M1074.79 123.784L1096.62 141.78C1098.68 143.481 1102.12 144.669 1104.57 144.669H1144.09C1146.54 144.669 1149.99 143.481 1152.04 141.78L1173.86 123.784H1074.79Z" fill="#E5E5E5"/>
<path d="M1142.41 124.18C1142.41 124.18 1134.44 137.321 1131.88 141.12C1130.92 142.542 1125.22 144.669 1125.22 144.669H1144.09C1146.54 144.669 1149.99 143.481 1152.04 141.78L1173.87 123.784L1142.41 124.18Z" fill="#D1D1D1"/>
<path d="M1176.3 123.109C1176.3 123.695 1175.82 124.179 1175.23 124.179H1073.87C1073.28 124.179 1072.8 123.695 1072.8 123.109C1072.8 122.522 1073.28 122.038 1073.87 122.038H1175.23C1175.82 122.038 1176.3 122.522 1176.3 123.109Z" fill="white"/>
<path d="M1074.79 136.602L1096.62 154.582C1098.68 156.284 1102.12 157.486 1104.57 157.486H1144.09C1146.54 157.486 1149.99 156.284 1152.04 154.582L1173.86 136.602H1074.79Z" fill="#E5E5E5"/>
<path d="M1142.41 136.983C1142.41 136.983 1134.44 150.124 1131.88 153.922C1130.92 155.345 1125.22 157.486 1125.22 157.486H1144.09C1146.54 157.486 1149.99 156.284 1152.04 154.582L1173.87 136.602L1142.41 136.983Z" fill="#D1D1D1"/>
<path d="M1176.3 135.928C1176.3 136.514 1175.82 136.984 1175.23 136.984H1073.87C1073.28 136.984 1072.8 136.514 1072.8 135.928C1072.8 135.326 1073.28 134.857 1073.87 134.857H1175.23C1175.82 134.857 1176.3 135.326 1176.3 135.928Z" fill="white"/>
<path d="M1074.79 149.405L1096.62 167.401C1098.68 169.102 1102.12 170.29 1104.57 170.29H1144.09C1146.54 170.29 1149.99 169.102 1152.04 167.401L1173.86 149.405H1074.79Z" fill="#E5E5E5"/>
<path d="M1142.41 149.801C1142.41 149.801 1134.44 162.942 1131.88 166.741C1130.92 168.164 1125.22 170.29 1125.22 170.29H1144.09C1146.54 170.29 1149.99 169.102 1152.04 167.401L1173.87 149.405L1142.41 149.801Z" fill="#D1D1D1"/>
<path d="M1176.3 148.731C1176.3 149.318 1175.82 149.802 1175.23 149.802H1073.87C1073.28 149.802 1072.8 149.318 1072.8 148.731C1072.8 148.145 1073.28 147.661 1073.87 147.661H1175.23C1175.82 147.661 1176.3 148.145 1176.3 148.731Z" fill="white"/>
<path d="M1074.79 162.224L1096.62 180.22C1098.68 181.907 1102.12 183.109 1104.57 183.109H1144.09C1146.54 183.109 1149.99 181.907 1152.04 180.22L1173.86 162.224H1074.79Z" fill="#E5E5E5"/>
<path d="M1200.53 87.6309L1213.46 90.8428C1215.43 93.1454 1220 94.9347 1223.79 94.9347H1333.64C1337.44 94.9347 1342.01 93.1454 1343.98 90.8428L1356.9 87.6309H1200.53Z" fill="#D3D3D3"/>
<path d="M1357.94 86.7664C1357.94 87.3531 1357.47 87.8224 1356.89 87.8224H1200.01C1199.44 87.8224 1198.97 87.3531 1198.97 86.7664C1198.97 86.1944 1199.44 85.7251 1200.01 85.7251H1356.89C1357.47 85.7251 1357.94 86.1944 1357.94 86.7664Z" fill="white"/>
<path d="M1200.53 93.9668L1213.46 97.1787C1215.43 99.4813 1220 101.256 1223.79 101.256H1333.64C1337.44 101.256 1342.01 99.4813 1343.98 97.1787L1356.9 93.9668H1200.53Z" fill="#D3D3D3"/>
<path d="M1357.94 93.1019C1357.94 93.6885 1357.47 94.1578 1356.89 94.1578H1200.01C1199.44 94.1578 1198.97 93.6885 1198.97 93.1019C1198.97 92.5152 1199.44 92.0459 1200.01 92.0459H1356.89C1357.47 92.0459 1357.94 92.5152 1357.94 93.1019Z" fill="white"/>
<path d="M1200.53 100.302L1213.46 103.5C1215.43 105.817 1220 107.592 1223.79 107.592H1333.64C1337.44 107.592 1342.01 105.817 1343.98 103.5L1356.9 100.302H1200.53Z" fill="#D3D3D3"/>
<path d="M1357.94 99.4378C1357.94 100.01 1357.47 100.479 1356.89 100.479H1200.01C1199.44 100.479 1198.97 100.01 1198.97 99.4378C1198.97 98.8512 1199.44 98.3818 1200.01 98.3818H1356.89C1357.47 98.3818 1357.94 98.8512 1357.94 99.4378Z" fill="white"/>
<path d="M1200.53 106.625L1213.46 109.837C1215.43 112.154 1220 113.929 1223.79 113.929H1333.64C1337.44 113.929 1342.01 112.154 1343.98 109.837L1356.9 106.625H1200.53Z" fill="#D3D3D3"/>
<path d="M1357.94 105.774C1357.94 106.345 1357.47 106.815 1356.89 106.815H1200.01C1199.44 106.815 1198.97 106.345 1198.97 105.774C1198.97 105.187 1199.44 104.718 1200.01 104.718H1356.89C1357.47 104.718 1357.94 105.187 1357.94 105.774Z" fill="white"/>
<path d="M1200.53 113.093L1213.46 116.304C1215.43 118.622 1220 120.396 1223.79 120.396H1333.64C1337.44 120.396 1342.01 118.622 1343.98 116.304L1356.9 113.093H1200.53Z" fill="#D3D3D3"/>
<path d="M1357.94 112.242C1357.94 112.814 1357.47 113.283 1356.89 113.283H1200.01C1199.44 113.283 1198.97 112.814 1198.97 112.242C1198.97 111.655 1199.44 111.186 1200.01 111.186H1356.89C1357.47 111.186 1357.94 111.655 1357.94 112.242Z" fill="white"/>
<path d="M1200.53 119.428L1213.46 122.64C1215.43 124.958 1220 126.732 1223.79 126.732H1333.64C1337.44 126.732 1342.01 124.958 1343.98 122.64L1356.9 119.428H1200.53Z" fill="#D3D3D3"/>
<path d="M1357.94 118.577C1357.94 119.149 1357.47 119.619 1356.89 119.619H1200.01C1199.44 119.619 1198.97 119.149 1198.97 118.577C1198.97 117.991 1199.44 117.521 1200.01 117.521H1356.89C1357.47 117.521 1357.94 117.991 1357.94 118.577Z" fill="white"/>
<path d="M1200.53 125.764L1213.46 128.976C1215.43 131.293 1220 133.068 1223.79 133.068H1333.64C1337.44 133.068 1342.01 131.293 1343.98 128.976L1356.9 125.764H1200.53Z" fill="#D3D3D3"/>
<path d="M1357.94 124.898C1357.94 125.485 1357.47 125.954 1356.89 125.954H1200.01C1199.44 125.954 1198.97 125.485 1198.97 124.898C1198.97 124.326 1199.44 123.857 1200.01 123.857H1356.89C1357.47 123.857 1357.94 124.326 1357.94 124.898Z" fill="white"/>
<path d="M1200.53 132.1L1213.46 135.312C1215.43 137.629 1220 139.404 1223.79 139.404H1333.64C1337.44 139.404 1342.01 137.629 1343.98 135.312L1356.9 132.1H1200.53Z" fill="#D3D3D3"/>
<path d="M1357.94 131.234C1357.94 131.821 1357.47 132.29 1356.89 132.29H1200.01C1199.44 132.29 1198.97 131.821 1198.97 131.234C1198.97 130.662 1199.44 130.193 1200.01 130.193H1356.89C1357.47 130.193 1357.94 130.662 1357.94 131.234Z" fill="white"/>
<path d="M1200.53 138.436L1213.46 141.648C1215.43 143.965 1220 145.74 1223.79 145.74H1333.64C1337.44 145.74 1342.01 143.965 1343.98 141.648L1356.9 138.436H1200.53Z" fill="#D3D3D3"/>
<path d="M1357.94 137.57C1357.94 138.157 1357.47 138.626 1356.89 138.626H1200.01C1199.44 138.626 1198.97 138.157 1198.97 137.57C1198.97 136.998 1199.44 136.529 1200.01 136.529H1356.89C1357.47 136.529 1357.94 136.998 1357.94 137.57Z" fill="white"/>
<path d="M1200.53 144.772L1213.46 147.984C1215.43 150.286 1220 152.076 1223.79 152.076H1333.64C1337.44 152.076 1342.01 150.286 1343.98 147.984L1356.9 144.772H1200.53Z" fill="#D3D3D3"/>
<path d="M1357.94 143.906C1357.94 144.493 1357.47 144.962 1356.89 144.962H1200.01C1199.44 144.962 1198.97 144.493 1198.97 143.906C1198.97 143.334 1199.44 142.865 1200.01 142.865H1356.89C1357.47 142.865 1357.94 143.334 1357.94 143.906Z" fill="white"/>
<path d="M1200.53 151.108L1213.46 154.305C1215.43 156.622 1220 158.397 1223.79 158.397H1333.64C1337.44 158.397 1342.01 156.622 1343.98 154.305L1356.9 151.108H1200.53Z" fill="#D3D3D3"/>
<path d="M1357.94 150.242C1357.94 150.828 1357.47 151.297 1356.89 151.297H1200.01C1199.44 151.297 1198.97 150.828 1198.97 150.242C1198.97 149.655 1199.44 149.186 1200.01 149.186H1356.89C1357.47 149.186 1357.94 149.655 1357.94 150.242Z" fill="white"/>
<path d="M1200.53 157.428L1213.46 160.64C1215.43 162.957 1220 164.732 1223.79 164.732H1333.64C1337.44 164.732 1342.01 162.957 1343.98 160.64L1356.9 157.428H1200.53Z" fill="#D3D3D3"/>
<path d="M1357.94 156.577C1357.94 157.149 1357.47 157.619 1356.89 157.619H1200.01C1199.44 157.619 1198.97 157.149 1198.97 156.577C1198.97 155.991 1199.44 155.521 1200.01 155.521H1356.89C1357.47 155.521 1357.94 155.991 1357.94 156.577Z" fill="white"/>
<path d="M1200.53 163.764L1213.46 166.976C1215.43 169.293 1220 171.068 1223.79 171.068H1333.64C1337.44 171.068 1342.01 169.293 1343.98 166.976L1356.9 163.764H1200.53Z" fill="#D3D3D3"/>
<path d="M1357.94 162.913C1357.94 163.485 1357.47 163.954 1356.89 163.954H1200.01C1199.44 163.954 1198.97 163.485 1198.97 162.913C1198.97 162.327 1199.44 161.857 1200.01 161.857H1356.89C1357.47 161.857 1357.94 162.327 1357.94 162.913Z" fill="white"/>
<path d="M1200.53 170.1L1213.46 173.312C1215.43 175.629 1220 177.404 1223.79 177.404H1333.64C1337.44 177.404 1342.01 175.629 1343.98 173.312L1356.9 170.1H1200.53Z" fill="#D3D3D3"/>
<path d="M1357.94 169.249C1357.94 169.821 1357.47 170.29 1356.89 170.29H1200.01C1199.44 170.29 1198.97 169.821 1198.97 169.249C1198.97 168.662 1199.44 168.193 1200.01 168.193H1356.89C1357.47 168.193 1357.94 168.662 1357.94 169.249Z" fill="white"/>
<path d="M1200.53 176.436L1213.46 179.648C1215.43 181.965 1220 183.74 1223.79 183.74H1333.64C1337.44 183.74 1342.01 181.965 1343.98 179.648L1356.9 176.436H1200.53Z" fill="#D3D3D3"/>
<path d="M1357.94 175.57C1357.94 176.157 1357.47 176.626 1356.89 176.626H1200.01C1199.44 176.626 1198.97 176.157 1198.97 175.57C1198.97 174.998 1199.44 174.529 1200.01 174.529H1356.89C1357.47 174.529 1357.94 174.998 1357.94 175.57Z" fill="white"/>
<path d="M1375.66 112.917L1388.59 116.114C1390.54 118.431 1395.14 120.206 1398.92 120.206H1508.77C1512.57 120.206 1517.14 118.431 1519.11 116.114L1532.03 112.917H1375.66Z" fill="#D3D3D3"/>
<path d="M1533.07 112.05C1533.07 112.637 1532.6 113.106 1532.02 113.106H1375.15C1374.57 113.106 1374.11 112.637 1374.11 112.05C1374.11 111.464 1374.57 110.994 1375.15 110.994H1532.02C1532.6 110.994 1533.07 111.464 1533.07 112.05Z" fill="white"/>
<path d="M1375.66 119.237L1388.59 122.449C1390.54 124.767 1395.14 126.541 1398.92 126.541H1508.77C1512.57 126.541 1517.14 124.767 1519.11 122.449L1532.03 119.237H1375.66Z" fill="#D3D3D3"/>
<path d="M1533.07 118.386C1533.07 118.958 1532.6 119.427 1532.02 119.427H1375.15C1374.57 119.427 1374.11 118.958 1374.11 118.386C1374.11 117.799 1374.57 117.33 1375.15 117.33H1532.02C1532.6 117.33 1533.07 117.799 1533.07 118.386Z" fill="white"/>
<path d="M1375.66 125.573L1388.59 128.785C1390.54 131.102 1395.14 132.877 1398.92 132.877H1508.77C1512.57 132.877 1517.14 131.102 1519.11 128.785L1532.03 125.573H1375.66Z" fill="#D3D3D3"/>
<path d="M1533.07 124.722C1533.07 125.294 1532.6 125.763 1532.02 125.763H1375.15C1374.57 125.763 1374.11 125.294 1374.11 124.722C1374.11 124.135 1374.57 123.666 1375.15 123.666H1532.02C1532.6 123.666 1533.07 124.135 1533.07 124.722Z" fill="white"/>
<path d="M1375.66 131.909L1388.59 135.121C1390.54 137.438 1395.14 139.213 1398.92 139.213H1508.77C1512.57 139.213 1517.14 137.438 1519.11 135.121L1532.03 131.909H1375.66Z" fill="#D3D3D3"/>
<path d="M1533.07 131.043C1533.07 131.63 1532.6 132.099 1532.02 132.099H1375.15C1374.57 132.099 1374.11 131.63 1374.11 131.043C1374.11 130.471 1374.57 130.002 1375.15 130.002H1532.02C1532.6 130.002 1533.07 130.471 1533.07 131.043Z" fill="white"/>
<path d="M1375.66 138.245L1388.59 141.457C1390.54 143.774 1395.14 145.549 1398.92 145.549H1508.77C1512.57 145.549 1517.14 143.774 1519.11 141.457L1532.03 138.245H1375.66Z" fill="#D3D3D3"/>
<path d="M1533.07 137.379C1533.07 137.966 1532.6 138.435 1532.02 138.435H1375.15C1374.57 138.435 1374.11 137.966 1374.11 137.379C1374.11 136.807 1374.57 136.338 1375.15 136.338H1532.02C1532.6 136.338 1533.07 136.807 1533.07 137.379Z" fill="white"/>
<path d="M1375.66 144.581L1388.59 147.793C1390.54 150.11 1395.14 151.885 1398.92 151.885H1508.77C1512.57 151.885 1517.14 150.11 1519.11 147.793L1532.03 144.581H1375.66Z" fill="#D3D3D3"/>
<path d="M1533.07 143.715C1533.07 144.302 1532.6 144.771 1532.02 144.771H1375.15C1374.57 144.771 1374.11 144.302 1374.11 143.715C1374.11 143.143 1374.57 142.674 1375.15 142.674H1532.02C1532.6 142.674 1533.07 143.143 1533.07 143.715Z" fill="white"/>
<path d="M1375.66 150.917L1388.59 154.128C1390.54 156.446 1395.14 158.22 1398.92 158.22H1508.77C1512.57 158.22 1517.14 156.446 1519.11 154.128L1532.03 150.917H1375.66Z" fill="#D3D3D3"/>
<path d="M1533.07 150.051C1533.07 150.637 1532.6 151.107 1532.02 151.107H1375.15C1374.57 151.107 1374.11 150.637 1374.11 150.051C1374.11 149.479 1374.57 149.009 1375.15 149.009H1532.02C1532.6 149.009 1533.07 149.479 1533.07 150.051Z" fill="white"/>
<path d="M1375.66 157.252L1388.59 160.45C1390.54 162.767 1395.14 164.556 1398.92 164.556H1508.77C1512.57 164.556 1517.14 162.767 1519.11 160.45L1532.03 157.252H1375.66Z" fill="#D3D3D3"/>
<path d="M1533.07 156.387C1533.07 156.973 1532.6 157.442 1532.02 157.442H1375.15C1374.57 157.442 1374.11 156.973 1374.11 156.387C1374.11 155.815 1374.57 155.345 1375.15 155.345H1532.02C1532.6 155.345 1533.07 155.815 1533.07 156.387Z" fill="white"/>
<path d="M1375.66 163.573L1388.59 166.785C1390.54 169.102 1395.14 170.877 1398.92 170.877H1508.77C1512.57 170.877 1517.14 169.102 1519.11 166.785L1532.03 163.573H1375.66Z" fill="#D3D3D3"/>
<path d="M1533.07 162.723C1533.07 163.295 1532.6 163.779 1532.02 163.779H1375.15C1374.57 163.779 1374.11 163.295 1374.11 162.723C1374.11 162.137 1374.57 161.667 1375.15 161.667H1532.02C1532.6 161.667 1533.07 162.137 1533.07 162.723Z" fill="white"/>
<path d="M1375.66 169.909L1388.59 173.121C1390.54 175.438 1395.14 177.213 1398.92 177.213H1508.77C1512.57 177.213 1517.14 175.438 1519.11 173.121L1532.03 169.909H1375.66Z" fill="#D3D3D3"/>
<path d="M1533.07 169.059C1533.07 169.631 1532.6 170.1 1532.02 170.1H1375.15C1374.57 170.1 1374.11 169.631 1374.11 169.059C1374.11 168.472 1374.57 168.003 1375.15 168.003H1532.02C1532.6 168.003 1533.07 168.472 1533.07 169.059Z" fill="white"/>
<path d="M1375.66 176.245L1388.59 179.457C1390.54 181.774 1395.14 183.549 1398.92 183.549H1508.77C1512.57 183.549 1517.14 181.774 1519.11 179.457L1532.03 176.245H1375.66Z" fill="#D3D3D3"/>
<path d="M1533.07 175.395C1533.07 175.967 1532.6 176.436 1532.02 176.436H1375.15C1374.57 176.436 1374.11 175.967 1374.11 175.395C1374.11 174.808 1374.57 174.339 1375.15 174.339H1532.02C1532.6 174.339 1533.07 174.808 1533.07 175.395Z" fill="white"/>
<path d="M1142.41 162.606C1142.41 162.606 1134.44 175.747 1131.88 179.545C1130.92 180.968 1125.22 183.109 1125.22 183.109H1144.09C1146.54 183.109 1149.99 181.907 1152.04 180.22L1173.87 162.224L1142.41 162.606Z" fill="#D1D1D1"/>
<path d="M1176.3 161.535C1176.3 162.137 1175.82 162.606 1175.23 162.606H1073.87C1073.28 162.606 1072.8 162.137 1072.8 161.535C1072.8 160.949 1073.28 160.479 1073.87 160.479H1175.23C1175.82 160.479 1176.3 160.949 1176.3 161.535Z" fill="white"/>
<path d="M1057.09 205.842H1032.35V7.3479H1255.57L1233.51 29.4061H1054.41V183.784H1079.13L1057.09 205.842Z" fill="#EFEFEF"/>
<path d="M1079.14 183.784H1054.41V29.4065H1233.51L1166.5 96.4169H1073.87C1073.28 96.4169 1072.8 96.9009 1072.8 97.4876C1072.8 98.0742 1073.28 98.5582 1073.87 98.5582H1075.26L1088.21 109.235H1073.87C1073.28 109.235 1072.8 109.705 1072.8 110.291C1072.8 110.893 1073.28 111.362 1073.87 111.362H1075.26L1088.21 122.039H1073.87C1073.28 122.039 1072.8 122.523 1072.8 123.11C1072.8 123.696 1073.28 124.18 1073.87 124.18H1075.26L1088.21 134.857H1073.87C1073.28 134.857 1072.8 135.327 1072.8 135.928C1072.8 136.515 1073.28 136.984 1073.87 136.984H1075.26L1088.21 147.661H1073.87C1073.28 147.661 1072.8 148.145 1072.8 148.732C1072.8 149.318 1073.28 149.802 1073.87 149.802H1075.26L1088.21 160.479H1073.87C1073.28 160.479 1072.8 160.949 1072.8 161.535C1072.8 162.137 1073.28 162.606 1073.87 162.606H1075.26L1088.99 173.928L1079.14 183.784Z" fill="#B5BDBD"/>
<path d="M1135.86 109.235H1088.21L1075.26 98.5579H1142.41C1142.41 98.5579 1138.96 104.248 1135.86 109.235Z" fill="#EBEBEB"/>
<path d="M1153.68 109.235H1135.86C1138.96 104.248 1142.4 98.5579 1142.4 98.5579H1164.37L1153.68 109.235Z" fill="#DDDDDD"/>
<path d="M1164.38 98.5583H1073.87C1073.28 98.5583 1072.8 98.0743 1072.8 97.4876C1072.8 96.901 1073.28 96.417 1073.87 96.417H1166.5L1164.38 98.5583Z" fill="#FDFDFD"/>
<path d="M1135.86 122.038H1088.21L1075.26 111.361H1142.41C1142.41 111.361 1138.96 117.067 1135.86 122.038Z" fill="#EBEBEB"/>
<path d="M1140.88 122.038H1135.86C1138.96 117.067 1142.4 111.361 1142.4 111.361H1151.56L1140.88 122.038Z" fill="#DDDDDD"/>
<path d="M1151.56 111.361H1073.87C1073.28 111.361 1072.8 110.892 1072.8 110.29C1072.8 109.704 1073.28 109.234 1073.87 109.234H1153.68L1151.56 111.361Z" fill="#FDFDFD"/>
<path d="M1128.06 134.857H1088.21L1075.26 124.18H1138.74L1128.06 134.857Z" fill="#EBEBEB"/>
<path d="M1138.74 124.179H1073.87C1073.28 124.179 1072.8 123.695 1072.8 123.109C1072.8 122.522 1073.28 122.038 1073.87 122.038H1140.88L1138.74 124.179Z" fill="#FDFDFD"/>
<path d="M1115.26 147.661H1088.21L1075.26 136.984H1125.94L1115.26 147.661Z" fill="#EBEBEB"/>
<path d="M1125.93 136.984H1073.87C1073.28 136.984 1072.8 136.514 1072.8 135.928C1072.8 135.326 1073.28 134.857 1073.87 134.857H1128.06L1125.93 136.984Z" fill="#FDFDFD"/>
<path d="M1102.44 160.478H1088.21L1075.26 149.801H1113.12L1102.44 160.478Z" fill="#EBEBEB"/>
<path d="M1113.12 149.802H1073.87C1073.28 149.802 1072.8 149.318 1072.8 148.731C1072.8 148.145 1073.28 147.661 1073.87 147.661H1115.26L1113.12 149.802Z" fill="#FDFDFD"/>
<path d="M1088.99 173.927L1075.26 162.605H1100.31L1088.99 173.927Z" fill="#EBEBEB"/>
<path d="M1100.31 162.606H1073.87C1073.28 162.606 1072.8 162.137 1072.8 161.535C1072.8 160.949 1073.28 160.479 1073.87 160.479H1102.44L1100.31 162.606Z" fill="#FDFDFD"/>
<path d="M1189.41 205.842H1141.32C1148.68 198.479 1156.03 191.132 1163.38 183.784H1211.47C1204.11 191.132 1196.76 198.479 1189.41 205.842ZM1365.83 29.4061H1317.76C1325.1 22.0582 1332.47 14.6957 1339.81 7.3479H1387.89C1380.54 14.6957 1373.18 22.0582 1365.83 29.4061Z" fill="#EFEFEF"/>
<path d="M1211.47 183.784H1163.38C1176.27 170.893 1189.15 158.016 1202.02 145.138L1213.46 147.984C1213.81 148.409 1214.27 148.805 1214.78 149.186H1200.01C1199.44 149.186 1198.97 149.656 1198.97 150.242C1198.97 150.829 1199.44 151.298 1200.01 151.298H1201.29L1213.46 154.305C1213.81 154.745 1214.27 155.141 1214.78 155.522H1200.01C1199.44 155.522 1198.97 155.992 1198.97 156.578C1198.97 157.15 1199.44 157.62 1200.01 157.62H1201.3L1213.46 160.641C1213.81 161.066 1214.27 161.477 1214.78 161.858H1200.01C1199.44 161.858 1198.97 162.327 1198.97 162.914C1198.97 163.486 1199.44 163.955 1200.01 163.955H1201.29L1213.46 166.977C1213.81 167.402 1214.27 167.813 1214.78 168.194H1200.01C1199.44 168.194 1198.97 168.663 1198.97 169.25C1198.97 169.822 1199.44 170.291 1200.01 170.291H1201.29L1213.46 173.312C1213.81 173.738 1214.27 174.148 1214.78 174.53H1200.01C1199.44 174.53 1198.97 174.999 1198.97 175.571C1198.97 176.158 1199.44 176.627 1200.01 176.627H1201.29L1213.46 179.648C1213.76 180.015 1214.14 180.352 1214.55 180.69C1213.52 181.716 1212.49 182.743 1211.47 183.784ZM1214.78 142.865H1204.31C1205.23 141.927 1206.16 141.003 1207.1 140.064L1213.46 141.648C1213.81 142.073 1214.27 142.484 1214.78 142.865ZM1214.78 136.529H1210.63C1211.15 136.016 1211.66 135.503 1212.17 134.989L1213.46 135.312C1213.81 135.737 1214.27 136.148 1214.78 136.529ZM1309.51 85.7252H1261.44C1280.21 66.9523 1298.98 48.1794 1317.75 29.4065H1365.83C1347.06 48.1794 1328.3 66.9523 1309.51 85.7252Z" fill="#B5BDBD"/>
<path d="M1303.19 92.0459H1255.12C1256.52 90.638 1257.93 89.23 1259.34 87.822H1307.43C1306.01 89.23 1304.6 90.638 1303.19 92.0459Z" fill="#DEDEDE"/>
<path d="M1307.43 87.8224H1259.34C1260.04 87.1184 1260.75 86.4144 1261.44 85.7251H1309.51C1308.82 86.4144 1308.12 87.1184 1307.43 87.8224Z" fill="#FDFDFD"/>
<path d="M1296.86 98.3819H1248.78C1250.19 96.9739 1251.6 95.5659 1253 94.158H1301.09C1299.67 95.5659 1298.26 96.9739 1296.86 98.3819Z" fill="#DEDEDE"/>
<path d="M1301.09 94.1578H1253C1253.71 93.4539 1254.41 92.7499 1255.11 92.0459H1303.19C1302.49 92.7499 1301.78 93.4539 1301.09 94.1578Z" fill="#FDFDFD"/>
<path d="M1290.52 104.717H1242.44C1243.85 103.309 1245.26 101.901 1246.68 100.479H1294.76C1293.34 101.901 1291.93 103.309 1290.52 104.717Z" fill="#DEDEDE"/>
<path d="M1294.76 100.479H1246.68C1247.37 99.7898 1248.08 99.0858 1248.78 98.3818H1296.86C1296.15 99.0858 1295.45 99.7898 1294.76 100.479Z" fill="#FDFDFD"/>
<path d="M1284.05 111.185H1235.97C1237.43 109.733 1238.89 108.266 1240.35 106.814H1288.42C1286.97 108.266 1285.5 109.733 1284.05 111.185Z" fill="#DEDEDE"/>
<path d="M1288.42 106.815H1240.35C1241.04 106.125 1241.74 105.422 1242.44 104.718H1290.52C1289.82 105.422 1289.13 106.125 1288.42 106.815Z" fill="#FDFDFD"/>
<path d="M1277.71 117.521H1229.64C1231.05 116.113 1232.47 114.69 1233.88 113.282H1281.95C1280.55 114.69 1279.12 116.113 1277.71 117.521Z" fill="#DEDEDE"/>
<path d="M1281.96 113.283H1233.88C1234.58 112.579 1235.27 111.89 1235.98 111.186H1284.05C1283.35 111.89 1282.66 112.579 1281.96 113.283Z" fill="#FDFDFD"/>
<path d="M1271.38 123.857H1223.3C1224.71 122.434 1226.12 121.026 1227.54 119.618H1275.62C1274.21 121.026 1272.8 122.434 1271.38 123.857Z" fill="#DEDEDE"/>
<path d="M1275.62 119.619H1227.54C1228.23 118.929 1228.94 118.225 1229.64 117.521H1277.72C1277.03 118.225 1276.33 118.929 1275.62 119.619Z" fill="#FDFDFD"/>
<path d="M1265.04 130.193H1216.97C1218.39 128.77 1219.8 127.362 1221.21 125.954H1269.28C1267.88 127.362 1266.47 128.77 1265.04 130.193Z" fill="#DEDEDE"/>
<path d="M1269.29 125.954H1221.21C1221.91 125.25 1222.6 124.561 1223.31 123.857H1271.38C1270.69 124.561 1269.99 125.25 1269.29 125.954Z" fill="#FDFDFD"/>
<path d="M1258.72 136.528H1214.78C1214.27 136.147 1213.81 135.736 1213.46 135.311L1212.17 134.988C1213.07 134.094 1213.98 133.184 1214.87 132.29H1262.95C1261.54 133.698 1260.13 135.106 1258.72 136.528Z" fill="#DEDEDE"/>
<path d="M1262.95 132.29H1214.87C1215.58 131.586 1216.26 130.882 1216.97 130.193H1265.04C1264.36 130.882 1263.65 131.586 1262.95 132.29Z" fill="#FDFDFD"/>
<path d="M1252.39 142.864H1214.78C1214.27 142.483 1213.81 142.072 1213.46 141.647L1207.1 140.063C1207.58 139.579 1208.05 139.11 1208.53 138.626H1256.61C1255.2 140.034 1253.8 141.442 1252.39 142.864Z" fill="#DEDEDE"/>
<path d="M1256.61 138.626H1208.54C1209.24 137.922 1209.94 137.218 1210.63 136.529H1258.72C1258.02 137.218 1257.32 137.922 1256.61 138.626Z" fill="#FDFDFD"/>
<path d="M1246.05 149.185H1214.78C1214.27 148.804 1213.82 148.408 1213.46 147.983L1202.02 145.137C1202.08 145.079 1202.14 145.02 1202.2 144.961H1250.29C1248.87 146.369 1247.46 147.777 1246.05 149.185Z" fill="#DEDEDE"/>
<path d="M1250.29 144.962H1202.2C1202.9 144.258 1203.61 143.554 1204.31 142.865H1252.39C1251.68 143.554 1250.98 144.258 1250.29 144.962Z" fill="#FDFDFD"/>
<path d="M1239.72 155.521H1214.78C1214.27 155.14 1213.82 154.744 1213.46 154.304L1201.29 151.297H1243.96C1242.53 152.705 1241.12 154.113 1239.72 155.521Z" fill="#DEDEDE"/>
<path d="M1243.95 151.297H1200.01C1199.44 151.297 1198.97 150.828 1198.97 150.242C1198.97 149.655 1199.44 149.186 1200.01 149.186H1246.05C1245.35 149.89 1244.66 150.594 1243.95 151.297Z" fill="#FDFDFD"/>
<path d="M1233.38 161.858H1214.78C1214.27 161.477 1213.82 161.066 1213.46 160.641L1201.3 157.619H1237.62C1236.21 159.027 1234.79 160.45 1233.38 161.858Z" fill="#DEDEDE"/>
<path d="M1237.62 157.619H1200.01C1199.44 157.619 1198.97 157.149 1198.97 156.577C1198.97 155.991 1199.44 155.521 1200.01 155.521H1239.72C1239.01 156.225 1238.32 156.929 1237.62 157.619Z" fill="#FDFDFD"/>
<path d="M1227.05 168.194H1214.78C1214.27 167.813 1213.82 167.402 1213.46 166.977L1201.29 163.955H1231.28C1229.86 165.378 1228.45 166.786 1227.05 168.194Z" fill="#DEDEDE"/>
<path d="M1231.28 163.954H1200.01C1199.44 163.954 1198.97 163.485 1198.97 162.913C1198.97 162.327 1199.44 161.857 1200.01 161.857H1233.38C1232.68 162.561 1231.99 163.265 1231.28 163.954Z" fill="#FDFDFD"/>
<path d="M1220.71 174.53H1214.78C1214.27 174.149 1213.82 173.738 1213.46 173.313L1201.29 170.291H1224.95C1223.54 171.699 1222.13 173.107 1220.71 174.53Z" fill="#DEDEDE"/>
<path d="M1224.95 170.29H1200.01C1199.44 170.29 1198.97 169.821 1198.97 169.249C1198.97 168.662 1199.44 168.193 1200.01 168.193H1227.04C1226.35 168.897 1225.65 169.601 1224.95 170.29Z" fill="#FDFDFD"/>
<path d="M1214.55 180.69C1214.14 180.352 1213.76 180.015 1213.46 179.648L1201.29 176.627H1218.61C1217.26 177.976 1215.91 179.34 1214.55 180.69Z" fill="#DEDEDE"/>
<path d="M1218.61 176.626H1200.01C1199.44 176.626 1198.97 176.157 1198.97 175.57C1198.97 174.998 1199.44 174.529 1200.01 174.529H1220.71C1220.02 175.233 1219.31 175.922 1218.61 176.626Z" fill="#FDFDFD"/>
<path d="M1385.44 205.842H1325.1L1347.16 183.784H1407.5C1400.15 191.132 1392.79 198.479 1385.44 205.842Z" fill="#EFEFEF"/>
<path d="M1407.5 183.784H1347.16L1353.72 177.228L1356.15 176.627H1356.88C1357.47 176.627 1357.94 176.157 1357.94 175.571C1357.94 174.999 1357.47 174.529 1356.88 174.529H1356.41L1374.18 156.768C1374.32 157.164 1374.7 157.443 1375.14 157.443H1376.42L1388.59 160.45C1388.94 160.89 1389.4 161.286 1389.91 161.667H1375.14C1374.57 161.667 1374.1 162.136 1374.1 162.723C1374.1 163.295 1374.57 163.779 1375.14 163.779H1376.42L1388.59 166.785C1388.94 167.225 1389.4 167.621 1389.91 168.003H1375.14C1374.57 168.003 1374.1 168.472 1374.1 169.059C1374.1 169.631 1374.57 170.1 1375.14 170.1H1376.42L1388.59 173.121C1388.94 173.547 1389.4 173.957 1389.91 174.339H1375.14C1374.57 174.339 1374.1 174.808 1374.1 175.395C1374.1 175.967 1374.57 176.436 1375.14 176.436H1376.42L1388.59 179.457C1390.54 181.774 1395.13 183.549 1398.92 183.549H1407.72C1407.64 183.622 1407.57 183.71 1407.5 183.784Z" fill="#B5BDBD"/>
<path d="M1353.72 177.229L1354.32 176.627H1356.15L1353.72 177.229Z" fill="#DEDEDE"/>
<path d="M1356.88 176.626H1354.32L1356.42 174.529H1356.88C1357.47 174.529 1357.94 174.998 1357.94 175.57C1357.94 176.157 1357.47 176.626 1356.88 176.626Z" fill="#FDFDFD"/>
<path d="M1389.92 155.345H1375.6L1379.17 151.781L1388.6 154.128C1388.95 154.553 1389.4 154.949 1389.92 155.345ZM1389.92 149.009H1381.94L1384.24 146.707L1388.6 147.792C1388.95 148.217 1389.4 148.628 1389.92 149.009ZM1389.92 142.674H1388.27L1389.02 141.926C1389.29 142.175 1389.59 142.424 1389.92 142.674Z" fill="#B5BDBD"/>
<path d="M1542.24 49.0296V29.4061H1501.54L1523.6 7.3479H1564.3V26.9714C1556.95 34.3339 1549.59 41.6818 1542.24 49.0296Z" fill="#EFEFEF"/>
<path d="M1480.27 110.995H1419.94L1501.54 29.4065H1542.24V49.03C1521.59 69.6949 1500.94 90.3451 1480.27 110.995Z" fill="#B5BDBD"/>
<path d="M1473.94 117.33H1413.62L1417.84 113.106H1478.18C1476.77 114.514 1475.35 115.922 1473.94 117.33Z" fill="#DEDEDE"/>
<path d="M1478.18 113.106H1417.84L1419.94 110.994H1480.27C1479.57 111.698 1478.88 112.402 1478.18 113.106Z" fill="#FDFDFD"/>
<path d="M1467.6 123.667H1407.28L1411.5 119.428H1471.84C1470.43 120.851 1469.02 122.259 1467.6 123.667Z" fill="#DEDEDE"/>
<path d="M1471.84 119.427H1411.5L1413.62 117.33H1473.94C1473.25 118.034 1472.55 118.738 1471.84 119.427Z" fill="#FDFDFD"/>
<path d="M1461.27 130.003H1400.94L1405.18 125.764H1465.5C1464.1 127.187 1462.69 128.595 1461.27 130.003Z" fill="#DEDEDE"/>
<path d="M1465.5 125.763H1405.18L1407.28 123.666H1467.6C1466.9 124.37 1466.21 125.059 1465.5 125.763Z" fill="#FDFDFD"/>
<path d="M1454.94 136.339H1394.61L1398.85 132.1H1459.17C1457.76 133.508 1456.35 134.931 1454.94 136.339Z" fill="#DEDEDE"/>
<path d="M1459.17 132.099H1398.85L1400.94 130.002H1461.27C1460.58 130.706 1459.87 131.41 1459.17 132.099Z" fill="#FDFDFD"/>
<path d="M1448.61 142.674H1389.92C1389.59 142.425 1389.29 142.176 1389.02 141.926L1392.51 138.436H1452.83C1451.43 139.844 1450.02 141.266 1448.61 142.674Z" fill="#DEDEDE"/>
<path d="M1452.83 138.435H1392.51L1394.61 136.338H1454.94C1454.24 137.042 1453.54 137.731 1452.83 138.435Z" fill="#FDFDFD"/>
<path d="M1442.27 149.01H1389.91C1389.4 148.629 1388.95 148.218 1388.59 147.793L1384.24 146.708L1386.17 144.772H1446.51C1445.09 146.18 1443.68 147.588 1442.27 149.01Z" fill="#DEDEDE"/>
<path d="M1446.51 144.771H1386.17L1388.27 142.674H1448.61C1447.9 143.363 1447.2 144.067 1446.51 144.771Z" fill="#FDFDFD"/>
<path d="M1435.94 155.346H1389.91C1389.4 154.95 1388.95 154.554 1388.59 154.129L1379.16 151.782L1379.84 151.108H1440.18C1438.75 152.516 1437.35 153.924 1435.94 155.346Z" fill="#DEDEDE"/>
<path d="M1440.18 151.107H1379.84L1381.94 149.009H1442.27C1441.57 149.699 1440.86 150.403 1440.18 151.107Z" fill="#FDFDFD"/>
<path d="M1429.6 161.668H1389.91C1389.4 161.286 1388.94 160.89 1388.59 160.45L1376.42 157.444H1433.84C1432.43 158.852 1431.01 160.26 1429.6 161.668Z" fill="#DEDEDE"/>
<path d="M1433.84 157.442H1375.14C1374.7 157.442 1374.32 157.164 1374.18 156.768L1375.6 155.345H1435.94C1435.23 156.035 1434.54 156.739 1433.84 157.442Z" fill="#FDFDFD"/>
<path d="M1423.26 168.003H1389.91C1389.4 167.622 1388.94 167.226 1388.59 166.786L1376.42 163.779H1427.5C1426.09 165.187 1424.67 166.595 1423.26 168.003Z" fill="#DEDEDE"/>
<path d="M1427.51 163.779H1375.15C1374.57 163.779 1374.11 163.295 1374.11 162.723C1374.11 162.137 1374.57 161.667 1375.15 161.667H1429.6C1428.9 162.371 1428.21 163.075 1427.51 163.779Z" fill="#FDFDFD"/>
<path d="M1416.93 174.339H1389.91C1389.4 173.957 1388.94 173.547 1388.59 173.121L1376.42 170.1H1421.17C1419.76 171.523 1418.35 172.931 1416.93 174.339Z" fill="#DEDEDE"/>
<path d="M1421.17 170.1H1375.15C1374.57 170.1 1374.11 169.631 1374.11 169.059C1374.11 168.472 1374.57 168.003 1375.15 168.003H1423.27C1422.58 168.707 1421.87 169.411 1421.17 170.1Z" fill="#FDFDFD"/>
<path d="M1407.72 183.549H1398.92C1395.13 183.549 1390.54 181.775 1388.59 179.457L1376.42 176.436H1414.83C1412.46 178.812 1410.09 181.173 1407.72 183.549Z" fill="#DEDEDE"/>
<path d="M1414.83 176.436H1375.15C1374.57 176.436 1374.11 175.967 1374.11 175.395C1374.11 174.808 1374.57 174.339 1375.15 174.339H1416.93C1416.24 175.043 1415.54 175.747 1414.83 176.436Z" fill="#FDFDFD"/>
<path d="M1327.77 193.962C1327.77 197.658 1324.77 200.664 1321.06 200.664H1268.59C1264.88 200.664 1261.88 197.658 1261.88 193.962C1261.88 190.251 1264.88 187.245 1268.59 187.245H1321.06C1324.77 187.245 1327.77 190.251 1327.77 193.962Z" fill="#FD8800"/>
<path d="M1261.91 193.655L1261.88 193.963C1261.88 197.659 1264.88 200.665 1268.59 200.665H1321.06C1324.77 200.665 1327.77 197.659 1327.77 193.963L1327.74 193.655H1261.91Z" fill="#F76303"/>
<path d="M1561 800H673V464H1561V800Z" fill="#CECECE"/>
<path d="M679 757V800H1545V757H679Z" fill="#B2B2B2"/>
<path d="M1353 552H1030V495H1353V552Z" fill="#B2B2B2"/>
<path d="M1353 546H1030V487H1353V546Z" fill="#EAEAEA"/>
<path d="M1223 508.993C1223 512.311 1220.34 515 1217.09 515H1170.9C1167.65 515 1165 512.311 1165 508.993C1165 505.689 1167.65 503 1170.9 503H1217.09C1220.34 503 1223 505.689 1223 508.993Z" fill="#FD8800"/>
<path d="M1165.03 508L1165 508.293C1165 511.998 1167.65 515 1170.9 515H1217.09C1220.34 515 1223 511.998 1223 508.293L1222.96 508H1165.03Z" fill="#F76303"/>
<rect x="1373" y="495" width="166" height="242" fill="#98A3A3"/>
<path fill-rule="evenodd" clip-rule="evenodd" d="M1373 736.058H1383.2V495H1373V736.058Z" fill="#B5BDBD"/>
<path fill-rule="evenodd" clip-rule="evenodd" d="M1527.87 737H1539V495H1527.87V737Z" fill="#B5BDBD"/>
<path fill-rule="evenodd" clip-rule="evenodd" d="M1373 737H1539L1528.15 727.584H1382.92L1373 737Z" fill="#7C8383"/>
<path fill-rule="evenodd" clip-rule="evenodd" d="M1373 620.237H1539L1528.15 610.821H1382.92L1373 620.237Z" fill="#7C8383"/>
<rect x="1373" y="620.237" width="166" height="11.2996" fill="#CECECE"/>
<rect x="1197" y="569" width="152" height="167" fill="#98A3A3"/>
<path fill-rule="evenodd" clip-rule="evenodd" d="M1197 736H1217V569H1197V736Z" fill="#B5BDBD"/>
<path fill-rule="evenodd" clip-rule="evenodd" d="M1197 736H1349V716H1217L1197 736Z" fill="#7C8383"/>
<rect x="1034" y="568" width="152" height="167" fill="#98A3A3"/>
<path fill-rule="evenodd" clip-rule="evenodd" d="M1034 735H1054V568H1034V735Z" fill="#B5BDBD"/>
<path fill-rule="evenodd" clip-rule="evenodd" d="M1034 735H1186V716H1054L1034 735Z" fill="#7C8383"/>
<path d="M1005 618H687V494H1005V618Z" fill="#B2B2B2"/>
<path d="M1005 611H687V487H1005V611Z" fill="#EAEAEA"/>
<path d="M878 508C878 511.314 875.354 514 872.088 514H825.912C822.646 514 820 511.314 820 508C820 504.686 822.646 502 825.912 502H872.088C875.354 502 878 504.686 878 508Z" fill="#FD8800"/>
<path d="M820.026 508L820 508.251C820 511.427 822.646 514 825.912 514H872.088C875.354 514 878 511.427 878 508.251L877.974 508H820.026Z" fill="#F76303"/>
<path d="M1005 747H687V624H1005V747Z" fill="#B2B2B2"/>
<path d="M1005 742H687V618H1005V742Z" fill="#EAEAEA"/>
<path d="M878 638.007C878 641.311 875.354 644 872.088 644H825.912C822.646 644 820 641.311 820 638.007C820 634.689 822.646 632 825.912 632H872.088C875.354 632 878 634.689 878 638.007Z" fill="#FD8800"/>
<path d="M820.026 638L820 638.264C820 641.427 822.646 644 825.912 644H872.088C875.354 644 878 641.427 878 638.264L877.974 638H820.026Z" fill="#F76303"/>
<rect x="671" y="454" width="901" height="22" fill="#34495E"/>
<path d="M361.257 799.822H0V463.434H361.257V799.822Z" fill="#CECECE"/>
<path d="M343.276 552.417H17.1299V494.438H343.276V552.417Z" fill="#B2B2B2"/>
<path d="M343.276 545.725H17.1299V487.746H343.276V545.725Z" fill="#EAEAEA"/>
<path d="M8.47852 756.298V799.822H352.776V756.298H8.47852Z" fill="#B2B2B2"/>
<path d="M212.425 508.76C212.425 512.112 209.709 514.828 206.357 514.828H158.964C155.612 514.828 152.896 512.112 152.896 508.76C152.896 505.408 155.612 502.691 158.964 502.691H206.357C209.709 502.691 212.425 505.408 212.425 508.76Z" fill="#FD8800"/>
<path d="M152.922 508.495L152.896 508.76C152.896 512.112 155.612 514.828 158.964 514.828H206.357C209.709 514.828 212.425 512.112 212.425 508.76L212.398 508.495H152.922Z" fill="#F76303"/>
<rect x="186" y="570" width="152" height="167" fill="#98A3A3"/>
<path fill-rule="evenodd" clip-rule="evenodd" d="M186 737H206V570H186V737Z" fill="#B5BDBD"/>
<path fill-rule="evenodd" clip-rule="evenodd" d="M186 737H338V718H206L186 737Z" fill="#7C8383"/>
<rect x="22" y="570" width="152" height="167" fill="#98A3A3"/>
<path fill-rule="evenodd" clip-rule="evenodd" d="M22 737H42V570H22V737Z" fill="#B5BDBD"/>
<path fill-rule="evenodd" clip-rule="evenodd" d="M22 737H174V718H42L22 737Z" fill="#7C8383"/>
<rect y="454" width="362" height="22" fill="#34495E"/>
<path d="M18 197H172V15H18V197Z" fill="#98A3A3"/>
<path d="M176.953 198.881H16V14H176.953V198.881Z" fill="#EAEAEA"/>
<path d="M164.301 187.529C160.949 187.529 158.246 184.813 158.246 181.474V134.068C158.246 130.716 160.949 128 164.301 128C167.653 128 170.369 130.716 170.369 134.068V181.474C170.369 184.813 167.653 187.529 164.301 187.529Z" fill="#FD8800"/>
<path d="M164.566 128.026L164.301 128C160.949 128 158.246 130.716 158.246 134.068V181.474C158.246 184.813 160.949 187.529 164.301 187.529L164.566 187.503V128.026Z" fill="#F76303"/>
<path d="M16 194.933V198.881H177.125V194.933H16Z" fill="#B2B2B2"/>
<path d="M182 197H336V15H182V197Z" fill="#98A3A3"/>
<path d="M180.293 198.881H341.856V14H180.293V198.881Z" fill="#EAEAEA"/>
<path d="M193.566 187.529C196.905 187.529 199.621 184.813 199.621 181.474V134.068C199.621 130.716 196.905 128 193.566 128C190.214 128 187.498 130.716 187.498 134.068V181.474C187.498 184.813 190.214 187.529 193.566 187.529Z" fill="#FD8800"/>
<path d="M193.289 128.026L193.567 128C196.906 128 199.622 130.716 199.622 134.068V181.474C199.622 184.813 196.906 187.529 193.567 187.529L193.289 187.503V128.026Z" fill="#F76303"/>
<path d="M341.855 194.933V198.881H179.975V194.933H341.855Z" fill="#B2B2B2"/>
<path d="M1582 194H1904V15H1582V194Z" fill="#98A3A3"/>
<path fill-rule="evenodd" clip-rule="evenodd" d="M1582 193H1601V15H1582V193Z" fill="#B5BDBD"/>
<path fill-rule="evenodd" clip-rule="evenodd" d="M1883 193H1904V15H1883V193Z" fill="#B5BDBD"/>
<path fill-rule="evenodd" clip-rule="evenodd" d="M1582 194H1904L1882.96 184H1601.24L1582 194Z" fill="#7C8383"/>
<path d="M729.821 342.742H721.197C720.306 342.742 719.584 342.02 719.584 341.131V329.225C719.584 328.336 720.306 327.614 721.197 327.614H729.821C730.712 327.614 731.432 328.336 731.432 329.225V341.131C731.432 342.02 730.712 342.742 729.821 342.742Z" fill="#7A7E82"/>
<path d="M729.183 342.742H720.557C719.668 342.742 718.946 342.02 718.946 341.131V329.225C718.946 328.336 719.668 327.614 720.557 327.614H729.183C730.072 327.614 730.794 328.336 730.794 329.225V341.131C730.794 342.02 730.072 342.742 729.183 342.742Z" fill="#8F9295"/>
<path d="M725.089 334.905C724.982 334.905 724.878 334.893 724.776 334.876C725.607 334.728 726.239 334.002 726.239 333.13V333.127C726.239 332.253 725.607 331.526 724.776 331.378C724.878 331.359 724.982 331.349 725.089 331.349C726.07 331.349 726.867 332.146 726.867 333.127C726.867 334.108 726.07 334.905 725.089 334.905Z" fill="#71767B"/>
<path d="M726.238 333.127C726.238 334.108 725.441 334.905 724.46 334.905C723.479 334.905 722.685 334.108 722.685 333.127C722.685 332.146 723.479 331.349 724.46 331.349C725.441 331.349 726.238 332.146 726.238 333.127Z" fill="#D3D4D3"/>
<path d="M724.462 334.905C724.568 334.903 724.673 334.893 724.774 334.876C724.673 334.893 724.568 334.905 724.462 334.905Z" fill="#71767B"/>
<path d="M724.776 334.876C725.607 334.728 726.239 334.002 726.239 333.127V333.13C726.239 334.002 725.607 334.728 724.776 334.876Z" fill="#5A6065"/>
<path d="M723.886 334.808C723.186 334.571 722.685 333.91 722.685 333.13V333.127C722.685 333.907 723.186 334.569 723.886 334.808Z" fill="#71767B"/>
<path d="M724.463 334.905C724.259 334.903 724.065 334.871 723.886 334.808C723.186 334.568 722.685 333.907 722.685 333.127C722.685 333.016 722.694 332.904 722.716 332.798C722.869 333.621 723.591 334.244 724.463 334.244C725.33 334.244 726.052 333.621 726.204 332.798C726.229 332.904 726.238 333.016 726.238 333.127C726.238 334.002 725.606 334.728 724.775 334.876C724.673 334.893 724.569 334.903 724.463 334.905Z" fill="#A9ADAC"/>
<path d="M724.498 333.742C723.851 333.742 723.282 333.406 723.282 332.781C723.282 332.153 723.805 331.647 724.452 331.647C725.099 331.647 725.622 332.153 725.622 332.781C725.622 333.406 725.145 333.742 724.498 333.742ZM724.421 331.824C724.384 331.824 724.348 331.824 724.309 331.829C723.905 331.858 723.42 332.219 723.471 332.679C723.699 332.483 724.033 332.369 724.343 332.337C724.382 332.335 724.418 332.333 724.455 332.333C724.61 332.333 724.757 332.364 724.91 332.398C724.949 332.408 725.012 332.42 725.07 332.42C725.145 332.42 725.213 332.398 725.213 332.316C725.213 332.18 724.985 331.824 724.421 331.824Z" fill="#DDDEDD"/>
<path d="M723.471 332.679C723.421 332.219 723.905 331.858 724.31 331.829C724.348 331.824 724.385 331.824 724.421 331.824C724.985 331.824 725.213 332.18 725.213 332.316C725.213 332.398 725.145 332.42 725.07 332.42C725.012 332.42 724.949 332.408 724.91 332.398C724.758 332.364 724.61 332.333 724.455 332.333C724.419 332.333 724.382 332.335 724.344 332.338C724.033 332.369 723.699 332.483 723.471 332.679Z" fill="#E5E8E6"/>
<path d="M725.089 341.484C724.982 341.484 724.878 341.475 724.776 341.458C725.607 341.31 726.239 340.586 726.239 339.711C726.239 339.709 726.239 339.709 726.239 339.709C726.239 338.834 725.607 338.107 724.776 337.957C724.878 337.94 724.982 337.931 725.089 337.931C726.07 337.931 726.867 338.728 726.867 339.709C726.867 340.69 726.07 341.484 725.089 341.484Z" fill="#71767B"/>
<path d="M726.238 339.709C726.238 340.69 725.441 341.484 724.46 341.484C723.479 341.484 722.685 340.69 722.685 339.709C722.685 338.728 723.479 337.931 724.46 337.931C725.441 337.931 726.238 338.728 726.238 339.709Z" fill="#D3D4D3"/>
<path d="M723.881 341.387C723.184 341.148 722.685 340.489 722.685 339.711C722.685 339.709 722.685 339.709 722.685 339.709C722.685 340.486 723.184 341.148 723.881 341.387Z" fill="#71767B"/>
<path d="M724.776 341.458C725.607 341.31 726.239 340.583 726.239 339.709C726.239 339.709 726.239 339.709 726.239 339.711C726.239 340.586 725.607 341.31 724.776 341.458Z" fill="#5A6065"/>
<path d="M724.463 341.484C724.259 341.484 724.063 341.451 723.884 341.39C723.881 341.388 723.881 341.388 723.881 341.388C723.184 341.148 722.685 340.486 722.685 339.709C722.685 339.597 722.694 339.484 722.716 339.377C722.869 340.201 723.591 340.826 724.463 340.826C725.33 340.826 726.052 340.201 726.204 339.377C726.229 339.484 726.238 339.597 726.238 339.709C726.238 340.583 725.606 341.31 724.775 341.458C724.673 341.475 724.569 341.484 724.463 341.484Z" fill="#A9ADAC"/>
<path d="M724.498 340.322C723.851 340.322 723.282 339.987 723.282 339.36C723.282 338.735 723.805 338.226 724.452 338.226C725.099 338.226 725.622 338.735 725.622 339.36C725.622 339.987 725.145 340.322 724.498 340.322ZM724.418 338.406C724.384 338.406 724.348 338.406 724.309 338.408C723.905 338.442 723.42 338.8 723.471 339.261C723.699 339.064 724.033 338.951 724.343 338.919C724.38 338.914 724.418 338.914 724.452 338.914C724.607 338.914 724.757 338.943 724.91 338.98C724.949 338.989 725.012 339.001 725.07 339.001C725.145 339.001 725.213 338.98 725.213 338.895C725.213 338.762 724.985 338.406 724.418 338.406Z" fill="#DDDEDD"/>
<path d="M723.471 339.261C723.421 338.8 723.905 338.442 724.31 338.408C724.348 338.406 724.385 338.406 724.419 338.406C724.985 338.406 725.213 338.762 725.213 338.895C725.213 338.98 725.145 339.001 725.07 339.001C725.012 339.001 724.949 338.989 724.91 338.98C724.758 338.943 724.608 338.914 724.453 338.914C724.419 338.914 724.38 338.914 724.344 338.919C724.033 338.951 723.699 339.064 723.471 339.261Z" fill="#E5E8E6"/>
<path d="M912.439 342.742H903.813C902.924 342.742 902.202 342.02 902.202 341.131V329.225C902.202 328.336 902.924 327.614 903.813 327.614H912.439C913.328 327.614 914.05 328.336 914.05 329.225V341.131C914.05 342.02 913.328 342.742 912.439 342.742Z" fill="#7A7E82"/>
<path d="M911.8 342.742H903.176C902.285 342.742 901.565 342.02 901.565 341.131V329.225C901.565 328.336 902.285 327.614 903.176 327.614H911.8C912.691 327.614 913.411 328.336 913.411 329.225V341.131C913.411 342.02 912.691 342.742 911.8 342.742Z" fill="#8F9295"/>
<path d="M907.703 334.905C907.597 334.905 907.492 334.893 907.391 334.876C908.224 334.728 908.856 334.002 908.856 333.13V333.127C908.856 332.253 908.224 331.526 907.391 331.378C907.492 331.359 907.597 331.349 907.703 331.349C908.684 331.349 909.481 332.146 909.481 333.127C909.481 334.108 908.684 334.905 907.703 334.905Z" fill="#71767B"/>
<path d="M908.857 333.127C908.857 334.108 908.06 334.905 907.076 334.905C906.095 334.905 905.301 334.108 905.301 333.127C905.301 332.146 906.095 331.349 907.076 331.349C908.06 331.349 908.857 332.146 908.857 333.127Z" fill="#D3D4D3"/>
<path d="M907.079 334.905C907.079 334.905 907.079 334.905 907.079 334.903C907.185 334.903 907.29 334.893 907.391 334.876C907.29 334.893 907.185 334.905 907.079 334.905ZM906.381 334.762C905.746 334.493 905.301 333.864 905.301 333.13V333.127C905.301 333.861 905.746 334.491 906.381 334.762Z" fill="#71767B"/>
<path d="M907.391 334.876C908.222 334.728 908.854 334.002 908.856 333.127V333.13C908.856 334.002 908.224 334.728 907.391 334.876Z" fill="#5A6065"/>
<path d="M907.079 334.903C906.832 334.903 906.597 334.854 906.381 334.762C905.746 334.491 905.301 333.861 905.301 333.127C905.301 333.016 905.313 332.904 905.335 332.798C905.487 333.621 906.209 334.244 907.079 334.244C907.948 334.244 908.67 333.621 908.823 332.798C908.845 332.904 908.854 333.016 908.857 333.127C908.854 334.002 908.222 334.728 907.391 334.876C907.29 334.893 907.185 334.903 907.079 334.903Z" fill="#A9ADAC"/>
<path d="M907.118 333.742C906.471 333.742 905.899 333.406 905.899 332.781C905.899 332.153 906.425 331.647 907.072 331.647C907.716 331.647 908.239 332.153 908.239 332.781C908.239 333.406 907.762 333.742 907.118 333.742ZM907.04 331.824C907.004 331.824 906.965 331.824 906.927 331.829C906.524 331.858 906.04 332.219 906.091 332.679C906.318 332.483 906.65 332.369 906.963 332.337C906.999 332.335 907.036 332.333 907.074 332.333C907.227 332.333 907.377 332.364 907.527 332.398C907.568 332.408 907.629 332.42 907.687 332.42C907.762 332.42 907.83 332.398 907.83 332.316C907.83 332.18 907.602 331.824 907.04 331.824Z" fill="#DDDEDD"/>
<path d="M906.091 332.679C906.04 332.219 906.524 331.858 906.926 331.829C906.965 331.824 907.004 331.824 907.04 331.824C907.602 331.824 907.83 332.18 907.83 332.316C907.83 332.398 907.762 332.42 907.687 332.42C907.629 332.42 907.568 332.408 907.527 332.398C907.377 332.364 907.227 332.333 907.074 332.333C907.035 332.333 906.999 332.335 906.963 332.338C906.65 332.369 906.318 332.483 906.091 332.679Z" fill="#E5E8E6"/>
<path d="M907.703 341.484C907.597 341.484 907.492 341.475 907.391 341.458C908.224 341.31 908.856 340.586 908.856 339.711C908.856 339.709 908.856 339.709 908.856 339.709C908.856 338.834 908.224 338.107 907.391 337.957C907.492 337.94 907.597 337.931 907.703 337.931C908.684 337.931 909.481 338.728 909.481 339.709C909.481 340.69 908.684 341.484 907.703 341.484Z" fill="#71767B"/>
<path d="M908.857 339.709C908.857 340.69 908.06 341.484 907.076 341.484C906.095 341.484 905.301 340.69 905.301 339.709C905.301 338.728 906.095 337.931 907.076 337.931C908.06 337.931 908.857 338.728 908.857 339.709Z" fill="#D3D4D3"/>
<path d="M906.381 341.344C905.744 341.073 905.301 340.443 905.301 339.711C905.301 339.709 905.301 339.709 905.301 339.709C905.301 340.443 905.746 341.073 906.381 341.344Z" fill="#71767B"/>
<path d="M907.391 341.458C908.222 341.31 908.854 340.583 908.856 339.709C908.856 339.709 908.856 339.709 908.856 339.711C908.856 340.586 908.224 341.31 907.391 341.458Z" fill="#5A6065"/>
<path d="M907.079 341.484C906.832 341.484 906.594 341.434 906.381 341.344C905.746 341.073 905.301 340.443 905.301 339.709C905.301 339.597 905.313 339.484 905.335 339.377C905.487 340.201 906.209 340.826 907.079 340.826C907.948 340.826 908.67 340.201 908.823 339.377C908.845 339.484 908.854 339.597 908.857 339.709C908.854 340.583 908.222 341.31 907.391 341.458C907.29 341.475 907.185 341.484 907.079 341.484Z" fill="#A9ADAC"/>
<path d="M907.118 340.322C906.471 340.322 905.899 339.987 905.899 339.36C905.899 338.735 906.425 338.226 907.072 338.226C907.716 338.226 908.239 338.735 908.239 339.36C908.239 339.987 907.762 340.322 907.118 340.322ZM907.038 338.406C907.002 338.406 906.965 338.406 906.927 338.408C906.524 338.442 906.04 338.8 906.091 339.261C906.318 339.064 906.65 338.951 906.963 338.919C906.999 338.914 907.036 338.914 907.072 338.914C907.227 338.914 907.377 338.943 907.527 338.98C907.568 338.989 907.631 339.001 907.69 339.001C907.765 339.001 907.83 338.98 907.83 338.895C907.83 338.762 907.602 338.406 907.038 338.406Z" fill="#DDDEDD"/>
<path d="M906.091 339.261C906.04 338.8 906.524 338.442 906.926 338.408C906.965 338.406 907.001 338.406 907.038 338.406C907.602 338.406 907.83 338.762 907.83 338.895C907.83 338.98 907.764 339.001 907.689 339.001C907.631 339.001 907.568 338.989 907.527 338.98C907.377 338.943 907.227 338.914 907.072 338.914C907.035 338.914 906.999 338.914 906.963 338.919C906.65 338.951 906.318 339.064 906.091 339.261Z" fill="#E5E8E6"/>
<path d="M944.318 329.891H688.68C686.647 329.891 685 328.241 685 326.209C685 324.176 686.647 322.527 688.68 322.527H944.318C946.35 322.527 948 324.176 948 326.209C948 328.241 946.35 329.891 944.318 329.891Z" fill="#F76303"/>
<path d="M943.976 329.891H689.018C686.795 329.891 685.002 328.239 685.002 326.209C685.002 325.717 685.101 325.252 685.295 324.828C685.886 326.177 687.332 327.129 689.018 327.129H837.963C839.031 327.204 840.153 327.26 841.313 327.294C841.311 327.294 841.308 327.294 841.308 327.294C842.113 327.318 842.936 327.33 843.777 327.333H843.779C843.786 327.333 843.791 327.333 843.799 327.333C843.806 327.333 843.813 327.333 843.818 327.333C843.825 327.333 843.832 327.333 843.84 327.333C843.849 327.333 843.857 327.333 843.869 327.333C843.871 327.333 843.874 327.333 843.876 327.333C843.891 327.333 843.9 327.333 843.915 327.333C846.01 327.333 848.016 327.26 849.864 327.129H943.976C945.088 327.129 946.093 326.718 946.825 326.049C947.2 325.705 947.501 325.288 947.702 324.828C947.895 325.252 947.997 325.717 947.997 326.209C947.997 327.226 947.547 328.147 946.825 328.811C946.093 329.479 945.088 329.891 943.976 329.891Z" fill="#FD8800"/>
<path d="M1452.53 362.236V355.72C1452.53 346.745 1445.27 339.447 1436.35 339.447H1427.95C1419.03 339.447 1411.77 346.745 1411.77 355.72V425.347H1422.12V355.72C1422.12 352.489 1424.74 349.858 1427.95 349.858H1436.35C1439.56 349.858 1442.18 352.489 1442.18 355.72V362.236H1452.53Z" fill="#5184BA"/>
<path d="M1424.31 396.505H1411.14V425.347H1424.31V396.505Z" fill="#235255"/>
<path d="M1426.77 406.537C1427.84 406.537 1428.7 405.694 1428.7 404.656C1428.7 403.614 1427.84 402.775 1426.77 402.775H1407.44C1406.37 402.775 1405.5 403.614 1405.5 404.656C1405.5 405.694 1406.37 406.537 1407.44 406.537H1426.77Z" fill="#235255"/>
<path d="M1401.74 411.553C1405.2 411.553 1408.01 408.605 1408.01 404.97C1408.01 401.334 1405.2 398.386 1401.74 398.386H1400.48C1397.02 398.386 1394.21 401.334 1394.21 404.97C1394.21 408.605 1397.02 411.553 1400.48 411.553H1401.74Z" fill="#235255"/>
<path d="M1433.72 411.553C1437.18 411.553 1439.99 408.605 1439.99 404.97C1439.99 401.334 1437.18 398.386 1433.72 398.386H1432.46C1429 398.386 1426.19 401.334 1426.19 404.97C1426.19 408.605 1429 411.553 1432.46 411.553H1433.72Z" fill="#235255"/>
<path d="M1451.78 365.155C1453.23 365.155 1454.41 364.032 1454.41 362.648C1454.41 361.265 1453.23 360.138 1451.78 360.138H1442.61C1441.16 360.138 1439.99 361.265 1439.99 362.648C1439.99 364.032 1441.16 365.155 1442.61 365.155H1451.78Z" fill="#235255"/>
<path d="M1374.81 414.688C1367.22 414.688 1366 415.308 1366 420.544V441.283C1366 447.37 1370.89 452.309 1376.92 452.309H1550.07C1556.11 452.309 1561 447.37 1561 441.283V420.544C1561 415.308 1559.53 414.688 1552.19 414.688C1549.07 414.688 1549.72 417.846 1549.72 418.135C1549.72 421.434 1546.65 421.19 1541.77 421.19H1385.23C1380.34 421.19 1377.28 421.434 1377.28 418.135C1377.28 416.56 1377.54 414.688 1374.81 414.688Z" fill="#B09FA9"/>
<path d="M1455.61 451.682V445.519H1366.97C1366.4 444.258 1366.06 442.873 1366 441.411C1366 441.411 1366 441.411 1366 441.407C1366 441.4 1366 441.392 1366 441.385C1366 441.381 1366 441.377 1366 441.373C1366 441.37 1366 441.362 1366 441.355C1366 441.351 1366 441.347 1366 441.339C1366 441.336 1366 441.328 1366 441.324C1366 441.317 1366 441.313 1366 441.309C1366 441.302 1366 441.298 1366 441.29C1366 441.287 1366 441.279 1366 441.275C1366 441.268 1366 441.264 1366 441.256C1366 441.249 1366 441.238 1366 441.23C1366 441.222 1366 441.219 1366 441.215C1366 441.207 1366 441.2 1366 441.192C1366 441.188 1366 441.185 1366 441.181C1366 441.173 1366 441.166 1366 441.162C1366 441.154 1366 441.151 1366 441.147C1366 441.139 1366 441.132 1366 441.128C1366 441.124 1366 441.117 1366 441.113C1366 441.105 1366 441.098 1366 441.094C1366 441.087 1366 441.083 1366 441.079C1366 441.071 1366 441.064 1366 441.056C1366 441.053 1366 441.049 1366 441.045C1366 441.034 1366 441.022 1366 441.015V428.482H1561V441.015C1561 441.022 1561 441.034 1561 441.045C1561 441.049 1561 441.053 1561 441.056C1561 441.064 1561 441.071 1561 441.079C1561 441.083 1561 441.09 1561 441.094C1561 441.098 1561 441.105 1561 441.113C1561 441.117 1561 441.12 1561 441.128C1561 441.132 1561 441.139 1561 441.147C1561 441.151 1561 441.154 1561 441.162C1561 441.166 1561 441.173 1561 441.177C1561 441.185 1561 441.188 1561 441.192C1561 441.2 1561 441.207 1561 441.211C1561 441.219 1561 441.226 1561 441.234C1561 441.241 1561 441.249 1561 441.256C1561 441.264 1561 441.268 1561 441.275C1561 441.279 1561 441.287 1561 441.29C1561 441.298 1561 441.302 1561 441.309C1561 441.313 1561 441.317 1561 441.324C1561 441.328 1561 441.336 1561 441.343C1561 441.347 1560.99 441.351 1560.99 441.355C1560.99 441.362 1560.99 441.37 1560.99 441.373C1560.99 441.377 1560.99 441.381 1560.99 441.385C1560.99 441.392 1560.99 441.4 1560.99 441.407C1560.99 441.411 1560.99 441.411 1560.99 441.411C1560.94 442.873 1560.6 444.258 1560.03 445.519H1459.47V446.807H1455.61V451.682Z" fill="#867684"/>
<path d="M1374.81 412.807C1367.22 412.807 1366 413.426 1366 418.648V421.563C1366 416.341 1367.22 415.722 1374.81 415.722C1377.54 415.722 1377.28 417.589 1377.28 419.161C1377.28 422.451 1380.34 422.208 1385.23 422.208H1541.77C1546.65 422.208 1549.72 422.451 1549.72 419.161C1549.72 418.872 1549.07 415.722 1552.19 415.722C1559.53 415.722 1561 416.341 1561 421.563V418.648C1561 413.426 1559.53 412.807 1552.19 412.807C1549.07 412.807 1549.72 415.953 1549.72 416.246C1549.72 419.536 1546.65 419.29 1541.77 419.29H1385.23C1380.34 419.29 1377.28 419.536 1377.28 416.246C1377.28 414.674 1377.54 412.807 1374.81 412.807Z" fill="#FFFBFD"/>
<path d="M1052 265.355C1052 267.762 1054 269.709 1056.46 269.709H1264.54C1267 269.709 1269 267.762 1269 265.355C1269 262.951 1267 261 1264.54 261H1056.46C1054 261 1052 262.951 1052 265.355Z" fill="#AEC5E9"/>
<rect y="800" width="1920" height="150" fill="#693D18"/>
<path d="M694 201H1016V22H694V201Z" fill="#98A3A3"/>
<path fill-rule="evenodd" clip-rule="evenodd" d="M694 200H713V22H694V200Z" fill="#B5BDBD"/>
<path fill-rule="evenodd" clip-rule="evenodd" d="M995 200H1016V22H995V200Z" fill="#B5BDBD"/>
<path fill-rule="evenodd" clip-rule="evenodd" d="M694 201H1016L994.962 191H713.238L694 201Z" fill="#7C8383"/>
<path d="M1018 7H687V205H1018V7Z" fill="#EAEAEA"/>
<path d="M885.896 192.934C885.896 196.749 882.889 199.853 879.179 199.853H826.717C823.007 199.853 820 196.749 820 192.934C820 189.104 823.007 186 826.717 186H879.179C882.889 186 885.896 189.104 885.896 192.934Z" fill="#FD8800"/>
<path d="M820.029 192.617L820 192.935C820 196.75 823.007 199.853 826.717 199.853H879.179C882.889 199.853 885.896 196.75 885.896 192.935L885.866 192.617H820.029Z" fill="#F76303"/>
<path d="M1910 7H1579V205H1910V7Z" fill="#EAEAEA"/>
<path d="M1777.9 192.934C1777.9 196.749 1774.89 199.853 1771.18 199.853H1718.72C1715.01 199.853 1712 196.749 1712 192.934C1712 189.104 1715.01 186 1718.72 186H1771.18C1774.89 186 1777.9 189.104 1777.9 192.934Z" fill="#FD8800"/>
<path d="M1712.03 192.617L1712 192.935C1712 196.75 1715.01 199.853 1718.72 199.853H1771.18C1774.89 199.853 1777.9 196.75 1777.9 192.935L1777.87 192.617H1712.03Z" fill="#F76303"/>
<path d="M1189 747H1030V563H1189V747Z" fill="#EAEAEA"/>
<path d="M1177.01 632C1173.69 632 1171 629.321 1171 625.998V579.002C1171 575.693 1173.69 573 1177.01 573C1180.32 573 1183 575.693 1183 579.002V625.998C1183 629.321 1180.32 632 1177.01 632Z" fill="#FD8800"/>
<path d="M1178 573.026L1177.71 573C1174 573 1171 575.693 1171 579.002V625.998C1171 629.321 1174 632 1177.71 632L1178 631.974V573.026Z" fill="#F76303"/>
<path d="M1030 744V747H1189V744H1030Z" fill="#B2B2B2"/>
<path d="M176 745H17V561H176V745Z" fill="#EAEAEA"/>
<path d="M164.007 630C160.689 630 158 627.321 158 623.998V577.002C158 573.693 160.689 571 164.007 571C167.325 571 170 573.693 170 577.002V623.998C170 627.321 167.325 630 164.007 630Z" fill="#FD8800"/>
<path d="M165 571.026L164.707 571C161.002 571 158 573.693 158 577.002V623.998C158 627.321 161.002 630 164.707 630L165 629.974V571.026Z" fill="#F76303"/>
<path d="M17 742V745H176V742H17Z" fill="#B2B2B2"/>
<path d="M1193 747H1353V563H1193V747Z" fill="#EAEAEA"/>
<path d="M1206.49 632C1209.54 632 1212 629.321 1212 625.998V579.002C1212 575.693 1209.54 573 1206.49 573C1203.46 573 1201 575.693 1201 579.002V625.998C1201 629.321 1203.46 632 1206.49 632Z" fill="#FD8800"/>
<path d="M1206 573.026L1206.25 573C1209.43 573 1212 575.693 1212 579.002V625.998C1212 629.321 1209.43 632 1206.25 632L1206 631.974V573.026Z" fill="#F76303"/>
<path d="M1353 744V747H1193V744H1353Z" fill="#B2B2B2"/>
<path d="M183 745H343V561H183V745Z" fill="#EAEAEA"/>
<path d="M196.494 630C199.536 630 202 627.321 202 623.998V577.002C202 573.693 199.536 571 196.494 571C193.464 571 191 573.693 191 577.002V623.998C191 627.321 193.464 630 196.494 630Z" fill="#FD8800"/>
<path d="M196 571.026L196.251 571C199.427 571 202 573.693 202 577.002V623.998C202 627.321 199.427 630 196.251 630L196 629.974V571.026Z" fill="#F76303"/>
<path d="M343 742V745H183V742H343Z" fill="#B2B2B2"/>
<path d="M1545 748H1366V487H1545V748Z" fill="#EAEAEA"/>
<path d="M1366 744V748H1545V744H1366Z" fill="#B2B2B2"/>
<path d="M1383.5 508C1387.09 508 1390 510.738 1390 514.104V561.896C1390 565.275 1387.09 568 1383.5 568C1379.91 568 1377 565.275 1377 561.896V514.104C1377 510.738 1379.91 508 1383.5 508Z" fill="#FD8800"/>
<path d="M1384 567.973L1384.25 568C1387.43 568 1390 565.275 1390 561.896V514.104C1390 510.738 1387.43 508 1384.25 508L1384 508.027V567.973Z" fill="#F76303"/>
<path d="M1623.66 796.354C1623.66 798.557 1621.89 800.337 1619.69 800.337H1605.17C1602.97 800.337 1601.2 798.557 1601.2 796.354C1601.2 794.161 1602.97 792.381 1605.17 792.381H1619.69C1621.89 792.381 1623.66 794.161 1623.66 796.354Z" fill="#34495E"/>
<path d="M1893.87 796.354C1893.87 798.557 1892.09 800.337 1889.9 800.337H1875.36C1873.18 800.337 1871.4 798.557 1871.4 796.354C1871.4 794.161 1873.18 792.381 1875.36 792.381H1889.9C1892.09 792.381 1893.87 794.161 1893.87 796.354Z" fill="#34495E"/>
<path d="M1920 775.349C1920 786.874 1910.69 796.216 1899.22 796.216H1598.78C1587.3 796.216 1578 786.874 1578 775.349V253.859C1578 242.342 1587.3 233 1598.78 233H1899.22C1910.69 233 1920 242.342 1920 253.859V775.349Z" fill="#CECECE"/>
<path d="M1598.78 792.418C1589.4 792.418 1581.78 784.764 1581.78 775.349V253.859C1581.78 244.453 1589.4 236.791 1598.78 236.791H1899.22C1908.6 236.791 1916.22 244.453 1916.22 253.859V775.349C1916.22 784.764 1908.6 792.418 1899.22 792.418H1598.78Z" fill="#98A3A3"/>
<path d="M1746.84 792.418H1751.16V236.791H1746.84V792.418Z" fill="#566472"/>
<path d="M1739.55 628.385C1739.55 632.579 1736.17 635.974 1732 635.974C1727.82 635.974 1724.44 632.579 1724.44 628.385V426.426C1724.44 422.241 1727.82 418.836 1732 418.836C1736.17 418.836 1739.55 422.241 1739.55 426.426V628.385Z" fill="#CECECE"/>
<path d="M1735.77 549.007V422.158C1735.77 419.8 1733.87 417.891 1731.52 417.891C1729.17 417.891 1727.27 419.8 1727.27 422.158V549.007H1735.77Z" fill="white"/>
<path d="M1776.15 628.385C1776.15 632.579 1772.76 635.974 1768.59 635.974C1764.41 635.974 1761.03 632.579 1761.03 628.385V426.426C1761.03 422.241 1764.41 418.836 1768.59 418.836C1772.76 418.836 1776.15 422.241 1776.15 426.426V628.385Z" fill="#CECECE"/>
<path d="M1772.37 549.007V422.158C1772.37 419.8 1770.46 417.891 1768.12 417.891C1765.77 417.891 1763.86 419.8 1763.86 422.158V549.007H1772.37Z" fill="white"/>
<path d="M1742.98 784.938C1742.98 786.443 1741.77 787.655 1740.27 787.655H1592.74C1591.25 787.655 1590.03 786.443 1590.03 784.938C1590.03 783.443 1591.25 782.222 1592.74 782.222H1740.27C1741.77 782.222 1742.98 783.443 1742.98 784.938Z" fill="#7B8484"/>
<path d="M1908.67 784.938C1908.67 786.443 1907.45 787.655 1905.96 787.655H1758.43C1756.93 787.655 1755.72 786.443 1755.72 784.938C1755.72 783.443 1756.93 782.222 1758.43 782.222H1905.96C1907.45 782.222 1908.67 783.443 1908.67 784.938Z" fill="#7B8484"/>
</svg>
