<svg width="34" height="100" viewBox="0 0 34 100" fill="none" xmlns="http://www.w3.org/2000/svg">
<path d="M21.674 0H12.2584C11.4443 0 10.7842 0.65883 10.7842 1.47297V6.47682H23.1463V1.47297C23.1463 0.65883 22.488 0 21.674 0Z" fill="#FF7208"/>
<path d="M33.9158 59.5684C33.9158 42.2515 30.4154 27.1636 25.2368 19.2614C23.8683 17.1734 23.1462 14.7322 23.1462 12.2372V6.47681H10.784V12.2146C10.784 14.7141 10.06 17.159 8.68904 19.2482C3.5054 27.1473 0 42.2421 0 59.5684C0 59.6047 0.00187722 59.6416 0.00187722 59.6805V93.5119C0.00187722 97.0947 2.90469 100 6.48456 100H27.4325C31.013 100 33.9158 97.0947 33.9158 93.5119V59.6805C33.9158 59.6416 33.9158 59.6047 33.9158 59.5684Z" fill="#D7E2F4"/>
<path d="M31.8905 59.6772V59.5683C31.8905 51.3517 31.0783 43.313 29.5402 36.3195C28.0922 29.7381 26.063 24.2952 23.6614 20.5564H10.2555C7.85577 24.2921 5.82587 29.7318 4.3779 36.3082C2.83983 43.3048 2.02637 51.3467 2.02637 59.5683V93.5118C2.02637 95.9711 4.02686 97.9733 6.48415 97.9733H27.4321C29.8913 97.9733 31.8905 95.9711 31.8905 93.5118V61.707H31.8874L31.8905 59.6772Z" fill="#FF9C0D"/>
<path d="M2.5957 35.0083H20.4857C20.0163 32.4043 19.5489 29.8009 19.0796 27.1956C14.839 25.9738 10.5989 24.7507 6.35703 23.5276C4.88029 26.7497 3.6069 30.6332 2.5957 35.0083Z" fill="#FFC44D"/>
<path d="M2.99609 33.1644C8.31302 33.3391 13.6293 33.5138 18.9462 33.6886C18.599 31.8993 18.251 30.1101 17.9038 28.3227C13.9178 27.1986 9.93244 26.0751 5.94709 24.9509C5.38768 26.102 4.82388 27.399 4.30202 28.8356C3.73947 30.3844 3.31647 31.8398 2.99609 33.1644Z" fill="#FF8022"/>
<path d="M27.4326 100H23.0712C24.9322 100 26.6098 99.216 27.7918 97.9591C30.0839 97.7749 31.891 95.8511 31.891 93.512V61.7071H31.8879L31.891 59.6774V59.5684C31.891 51.3519 31.0788 43.3131 29.5408 36.3196C28.0928 29.7382 26.0635 24.2954 23.6619 20.5566H21.6727C21.4111 20.1063 21.1452 19.6735 20.8749 19.2615C19.5082 17.1735 18.7861 14.7323 18.7861 12.2373V10.1387H23.0468C23.0806 10.1387 23.1144 10.1374 23.1463 10.1343V12.2373C23.1463 14.7323 23.8684 17.1735 25.2369 19.2615C30.4155 27.1637 33.9159 42.2516 33.9159 59.5684C33.9159 59.6048 33.9159 59.6417 33.9159 59.6805V93.512C33.9159 97.0948 31.0131 100 27.4326 100Z" fill="#BFC3C7"/>
<path d="M27.792 97.9589C28.8858 96.7984 29.5553 95.2321 29.5553 93.5118V59.6804C29.5553 59.6415 29.5553 59.6046 29.5553 59.5683C29.5553 43.157 26.411 28.7461 21.6729 20.5564H23.6621C26.0637 24.2952 28.093 29.7381 29.5409 36.3195C31.079 43.313 31.8912 51.3517 31.8912 59.5683V59.6772L31.8881 61.707H31.8912V93.5118C31.8912 95.8509 30.0841 97.7748 27.792 97.9589Z" fill="#E2870B"/>
<path d="M13.043 100H9.95806C7.9876 100 6.22051 99.1201 5.03223 97.7317C5.48714 97.8889 5.97584 97.9734 6.48332 97.9734H8.33552C9.51754 99.2228 11.1901 100 13.043 100Z" fill="#ECF1FA"/>
<path d="M8.33662 97.9733H6.48443C5.97695 97.9733 5.48825 97.8887 5.03333 97.7315C4.06281 96.5961 3.47461 95.1232 3.47461 93.5118V59.6804C3.47461 59.6415 3.47461 59.6046 3.47461 59.5683C3.47461 50.5419 4.42636 42.1218 6.06956 35.0081H8.94672C7.50313 42.6028 6.52635 51.6673 6.56014 59.5683C6.56014 59.619 6.56014 59.6591 6.56014 59.6804V93.5118C6.56014 95.2403 7.23594 96.8109 8.33662 97.9733Z" fill="#FFD08D"/>
<path d="M8.9465 35.0081H6.06934C6.20575 34.4231 6.34529 33.8457 6.48921 33.2783C7.41656 33.3084 8.34265 33.3391 9.27 33.3698C9.15925 33.9083 9.05225 34.4532 8.9465 35.0081Z" fill="#FFE3AB"/>
<path d="M13.2121 20.5564H11.3574C11.6215 20.1011 11.8893 19.6653 12.1628 19.2482C13.5344 17.159 14.2584 14.714 14.2584 12.2146C14.3497 12.6862 14.4874 13.5298 14.5005 14.5813C14.5306 17.246 13.7327 19.396 13.2121 20.5564Z" fill="#ECF1FA"/>
<path d="M11.417 24.986C10.7568 24.7956 10.0967 24.6046 9.43652 24.4154C10.0422 23.0107 10.683 21.7219 11.3575 20.5564H13.2122C13.0652 20.8833 12.94 21.1319 12.8631 21.2923C12.3731 22.293 11.8876 23.5399 11.417 24.986Z" fill="#FFD08D"/>
<path d="M10.985 26.3714C10.2817 26.1728 9.57833 25.9756 8.875 25.7764C9.05772 25.3117 9.24544 24.8583 9.43566 24.4155C10.0958 24.6047 10.756 24.7957 11.4161 24.9861C11.2703 25.4288 11.1277 25.8923 10.985 26.3714Z" fill="#FFE3AB"/>
<path d="M9.27005 33.3698C8.3427 33.3391 7.41661 33.3084 6.48926 33.2784C7.18633 30.5498 7.98541 28.034 8.87584 25.7764C9.57917 25.9755 10.2825 26.1728 10.9858 26.3713C10.377 28.4267 9.79693 30.7965 9.27005 33.3698Z" fill="#FFC397"/>
<path d="M23.0135 10.1385H10.9048C10.2403 10.1385 9.70215 9.5999 9.70215 8.93481V7.5445C9.70215 6.88066 10.2403 6.34082 10.9048 6.34082H23.0135C23.6787 6.34082 24.2168 6.88066 24.2168 7.5445V8.93481C24.2168 9.5999 23.6787 10.1385 23.0135 10.1385Z" fill="#D7E2F4"/>
<path d="M23.1465 10.1341V10.1304C23.7484 10.0633 24.2165 9.55357 24.2165 8.93482V7.54451C24.2165 6.92576 23.7484 6.4141 23.1465 6.34835V6.34521C23.7453 6.39657 24.2165 6.89821 24.2165 7.51069V8.96801C24.2165 9.5805 23.7453 10.0828 23.1465 10.1341Z" fill="#D1DFE5"/>
<path d="M23.0461 10.1385H19.0332H23.0123C23.0573 10.1385 23.1024 10.1354 23.1456 10.1304V10.1341C23.1137 10.1373 23.0799 10.1385 23.0461 10.1385Z" fill="#9DABB3"/>
<path d="M23.0123 10.1385H19.0332C19.679 10.1385 20.2027 9.6143 20.2027 8.968V7.51068C20.2027 6.865 19.679 6.34082 19.0332 6.34082H19.9161V6.47672H23.1456V6.34834C23.7475 6.41409 24.2156 6.92575 24.2156 7.5445V8.93481C24.2156 9.55356 23.7475 10.0633 23.1456 10.1303C23.1024 10.1354 23.0573 10.1385 23.0123 10.1385Z" fill="#B0C6DB"/>
<path d="M11.4626 9.27109C11.1691 9.27109 10.8731 9.11077 10.7079 8.86214C10.4914 8.53836 10.482 8.10248 10.6297 7.74175C10.6935 7.58331 10.7912 7.4305 10.9357 7.33907C11.0652 7.25577 11.2204 7.22884 11.3725 7.2063C11.7154 7.15807 12.0614 7.10547 12.4093 7.10547C12.4763 7.10547 12.5439 7.1086 12.6127 7.11298C13.2403 7.15494 15.0168 7.16121 17.4985 7.16121C17.5254 7.16121 17.5542 7.16121 17.5817 7.16121C16.5023 7.35535 15.5105 7.56703 14.6101 7.7787C13.0983 8.13442 12.771 8.30915 12.435 8.62854C12.2103 8.84335 12.0182 9.1139 11.7266 9.22475C11.6415 9.25669 11.5521 9.27109 11.4626 9.27109Z" fill="#ECF1FA"/>
<path d="M23.1452 6.34531V1.47297C23.1452 0.65883 22.4869 0 21.6729 0H21.7129C22.5045 0 23.1452 0.641294 23.1452 1.43289V6.34531Z" fill="#D1DFE5"/>
<path d="M23.1461 6.34531C23.1142 6.34218 23.0804 6.34092 23.0467 6.34092H19.9167V1.43289C19.9167 0.641294 19.2759 0 18.4844 0H21.6738C22.4879 0 23.1461 0.65883 23.1461 1.47297V6.34531Z" fill="#D16407"/>
<path d="M23.146 6.34834C23.1028 6.34395 23.0577 6.34082 23.0127 6.34082H23.0465C23.0803 6.34082 23.1141 6.34207 23.146 6.3452V6.34834Z" fill="#AB5706"/>
<path d="M23.1464 6.47672H19.917V6.34082H23.0132C23.0582 6.34082 23.1033 6.34395 23.1464 6.34834V6.47672Z" fill="#90ADC5"/>
<path d="M11.0748 50.4137C11.0748 51.1289 10.4966 51.7075 9.78204 51.7075C9.06807 51.7075 8.48926 51.1289 8.48926 50.4137C8.48926 49.6985 9.06807 49.1179 9.78204 49.1179C10.4966 49.1179 11.0748 49.6985 11.0748 50.4137Z" fill="#FFB510"/>
<path d="M26.2884 54.4988C26.2884 55.4043 25.5544 56.1389 24.6496 56.1389C23.7441 56.1389 23.0107 55.4043 23.0107 54.4988C23.0107 53.5925 23.7441 52.8567 24.6496 52.8567C25.5544 52.8567 26.2884 53.5925 26.2884 54.4988Z" fill="#FFB510"/>
<path d="M13.1031 71.1497C13.1031 72.0553 12.3697 72.7899 11.463 72.7899C10.5576 72.7899 9.82422 72.0553 9.82422 71.1497C9.82422 70.2423 10.5576 69.5083 11.463 69.5083C12.3697 69.5083 13.1031 70.2423 13.1031 71.1497Z" fill="#FFB510"/>
<path d="M25.0045 72.7881C25.0045 73.6943 24.2711 74.4283 23.3644 74.4283C22.4596 74.4283 21.7256 73.6943 21.7256 72.7881C21.7256 71.8826 22.4596 71.1479 23.3644 71.1479C24.2711 71.1479 25.0045 71.8826 25.0045 72.7881Z" fill="#FFB510"/>
<path d="M13.1031 89.3993C13.1031 90.3068 12.3697 91.0414 11.463 91.0414C10.5576 91.0414 9.82422 90.3068 9.82422 89.3993C9.82422 88.4937 10.5576 87.7598 11.463 87.7598C12.3697 87.7598 13.1031 88.4937 13.1031 89.3993Z" fill="#FFB510"/>
<path d="M19.6005 59.7218C19.6005 60.437 19.0204 61.0176 18.3065 61.0176C17.5919 61.0176 17.0137 60.437 17.0137 59.7218C17.0137 59.0073 17.5919 58.428 18.3065 58.428C19.0204 58.428 19.6005 59.0073 19.6005 59.7218Z" fill="#FFB510"/>
<path d="M23.9325 38.7368C23.9325 39.452 23.3531 40.0326 22.6385 40.0326C21.9258 40.0326 21.3457 39.452 21.3457 38.7368C21.3457 38.0223 21.9258 37.4436 22.6385 37.4436C23.3531 37.4436 23.9325 38.0223 23.9325 38.7368Z" fill="#FFB510"/>
<path d="M21.3374 84.0878C21.3374 84.803 20.7574 85.3817 20.0428 85.3817C19.3282 85.3817 18.75 84.803 18.75 84.0878C18.75 83.3726 19.3282 82.7939 20.0428 82.7939C20.7574 82.7939 21.3374 83.3726 21.3374 84.0878Z" fill="#FFB510"/>
</svg>
