<svg width="40" height="70" viewBox="0 0 40 70" fill="none" xmlns="http://www.w3.org/2000/svg">
<path d="M1.74121 22.1287V66.8129H1.74485C1.81181 68.5758 9.80663 70 19.6611 70C29.5156 70 37.5112 68.5758 37.5782 66.8129H37.5803V22.1287H1.74121Z" fill="#C9C9C9"/>
<path d="M0 13.6509V65.1514H0.0036393C0.077881 67.1824 8.87481 68.8258 19.7199 68.8258C30.5643 68.8258 39.3612 67.1824 39.4355 65.1514H39.4391V13.6509H0Z" fill="#F2F2F2"/>
<path d="M0 12.1218V63.6224H0.0036393C0.077881 65.6533 8.87481 67.296 19.7199 67.296C30.5643 67.296 39.3612 65.6533 39.4355 63.6224H39.4391V12.1218H0Z" fill="#FF83DC"/>
<path d="M5.94407 28.6821V37.1375H6.27015C6.71342 37.1375 7.05624 37.0107 7.29934 36.7587C7.54245 36.5073 7.73606 36.0688 7.8809 35.4423C8.02575 34.8173 8.09854 33.9133 8.09854 32.731C8.09854 31.6361 8.01847 30.7932 7.85907 30.2017C7.69894 29.6109 7.49878 29.2103 7.25786 28.999C7.01693 28.7885 6.68721 28.6821 6.27015 28.6821H5.94407ZM4.03125 26.4763H6.09037C6.98272 26.4763 7.7084 26.6548 8.2674 27.0096C8.8264 27.3636 9.2733 28.0199 9.60957 28.975C9.94512 29.93 10.1133 31.2201 10.1133 32.8482C10.1133 34.0043 10.0106 35.03 9.80682 35.9253C9.60302 36.8206 9.33517 37.5272 9.00399 38.0422C8.67209 38.5565 8.29797 38.9018 7.88163 39.0788C7.4653 39.2544 6.94488 39.3418 6.31964 39.3418H4.03125V26.4763Z" fill="#661468"/>
<path d="M13.2829 28.559V32.1693H14.1243C14.8719 32.1693 15.246 31.5501 15.246 30.3139C15.246 29.8848 15.1907 29.5366 15.0808 29.262C14.9701 28.9881 14.8413 28.803 14.695 28.7062C14.548 28.6093 14.3325 28.559 14.0479 28.559H13.2829ZM11.3701 26.4763H14.1054C14.636 26.4763 15.0429 26.5135 15.326 26.5863C15.6084 26.657 15.8945 26.8529 16.1835 27.1698C16.4724 27.4867 16.6988 27.9216 16.8626 28.4716C17.0256 29.0194 17.1078 29.6371 17.1078 30.3234C17.1078 31.9311 16.6995 33.0624 15.8836 33.7151L17.4841 39.3418H15.4025L14.2386 34.2527H13.2829V39.3418H11.3701V26.4763Z" fill="#661468"/>
<path d="M18.4824 26.4763H20.3945V39.3418H18.4824V26.4763Z" fill="#661468"/>
<path d="M21.9707 26.4763H24.0931L26.3313 34.4691V26.4763H27.8103V39.3418H26.102L23.4504 30.0305V39.3418H21.9707V26.4763Z" fill="#661468"/>
<path d="M29.3789 26.4763H31.2903V31.8451L33.4054 26.4763H35.3394L33.1536 31.2092L35.5242 39.3418H33.5452L32.0138 33.4186L31.2903 34.9688V39.3418H29.3789V26.4763Z" fill="#661468"/>
<path d="M19.7199 67.296C22.4742 67.296 25.0974 67.1897 27.4789 66.9981C27.4673 66.0634 27.2533 65.1405 26.7947 64.3253C26.2416 63.339 25.3623 62.5406 24.954 61.485C24.6388 60.6706 24.6352 59.7753 24.5049 58.9121C23.9401 55.191 20.6996 52.0455 16.9693 51.5924C17.9367 50.126 17.8697 48.0506 16.8085 46.6519C15.7473 45.2518 13.7689 44.6268 12.0978 45.1637C12.9967 43.215 13.0141 40.7681 11.7499 39.0343C10.4863 37.3013 7.81649 36.6136 6.07036 37.8593C6.66284 35.4124 4.93635 32.6508 2.47837 32.1132C1.65006 31.9325 0.791912 32.0163 0 32.2996V63.6223H0.0036393C0.077881 65.6533 8.8748 67.296 19.7199 67.296Z" fill="#BA38BA"/>
<path d="M39.2048 11.5514C38.0154 8.6536 36.8254 5.75356 35.6346 2.85571H3.97849C2.73676 5.74773 1.49575 8.6383 0.254023 11.531C0.088799 11.7248 0 11.9208 0 12.1218C0 14.1659 8.82895 15.8217 19.7199 15.8217C30.6109 15.8217 39.4391 14.1659 39.4391 12.1218C39.4391 11.9281 39.3591 11.7379 39.2048 11.5514Z" fill="#FFA1E9"/>
<path d="M39.4351 63.6224H39.4387V34.402C37.7304 33.4448 35.3263 33.5964 34.0839 35.1101C33.4077 35.9362 33.1522 37.0202 32.9528 38.0699C32.6289 39.7781 32.5503 41.8798 33.9623 42.8924C30.8507 42.4633 27.5549 43.9632 25.8314 46.5922C25.1639 47.6106 24.7148 48.8694 25.0264 50.0459C25.3393 51.2246 26.632 52.1738 27.782 51.7753C25.1173 52.4353 22.77 54.2871 21.5042 56.726C20.9955 57.7072 20.6526 58.8225 20.8302 59.9116C21.0071 61.0021 21.8085 62.0394 22.8966 62.2296C21.5865 63.1248 20.5937 64.5344 20.3731 66.1065C20.3186 66.4984 20.3164 66.899 20.3637 67.2946C30.9104 67.2312 39.3623 65.614 39.4351 63.6224Z" fill="#CE41CB"/>
<path d="M33.9616 42.8923C33.6078 42.8442 33.2504 42.8195 32.8945 42.8195C32.5422 42.8195 32.1899 42.8442 31.8398 42.8887V33.7916L32.0131 33.4186L33.0677 37.4995C33.0263 37.6896 32.9891 37.8797 32.952 38.0699C32.6281 39.7781 32.5495 41.8797 33.9616 42.8923ZM34.2396 34.9353L33.1529 31.2091L35.3387 26.4763H33.4047L31.8398 30.4501V15.0408C35.1989 14.5498 37.6882 13.8585 38.7975 13.0615C38.7975 20.0759 38.7975 27.0911 38.7975 34.1055C38.2567 33.9037 37.6773 33.801 37.1015 33.801C36.0243 33.801 34.9682 34.1645 34.2396 34.9353Z" fill="#E26BC3"/>
<path d="M33.0677 37.4995L32.0131 33.4186L31.8398 33.7916V30.4501L33.4047 26.4763H35.3387L33.1529 31.2092L34.2396 34.9353C34.1857 34.9914 34.1333 35.0489 34.0831 35.1101C33.5299 35.7876 33.2577 36.6377 33.0677 37.4995Z" fill="#5A105C"/>
<path d="M31.8414 15.0408C30.7118 11.7642 29.5843 8.48896 28.4554 5.21231C28.2414 4.42775 28.0253 3.64027 27.8105 2.85571H34.8148C36.1438 6.25693 37.4722 9.66034 38.7991 13.0616C37.6898 13.8585 35.2005 14.5498 31.8414 15.0408Z" fill="#E283CF"/>
<path d="M31.8398 66.5129V42.8887C32.1899 42.8442 32.5422 42.8195 32.8945 42.8195C33.2504 42.8195 33.6078 42.8442 33.9616 42.8923C32.5495 41.8797 32.6281 39.7781 32.952 38.0699C32.9891 37.8797 33.0263 37.6896 33.0677 37.4995C33.2577 36.6377 33.5299 35.7876 34.0831 35.1101C34.1333 35.0489 34.1857 34.9913 34.2396 34.9353C34.9682 34.1645 36.0243 33.801 37.1015 33.801C37.6773 33.801 38.2567 33.9037 38.7975 34.1055C38.7975 44.2465 38.7975 54.3876 38.7975 64.5307C37.6926 65.327 35.2026 66.0205 31.8398 66.5129Z" fill="#B735B4"/>
<path d="M6.27142 37.1373H6.17971C6.21683 36.5465 6.13167 35.9513 5.94534 35.3882V28.6819H6.27142C6.68849 28.6819 7.01821 28.7883 7.25913 28.9988C7.42581 29.1445 7.57284 29.3813 7.70094 29.7098C7.68493 31.869 7.66819 34.0289 7.65145 36.1859C7.54882 36.4321 7.43163 36.623 7.30062 36.7585C7.05751 37.0105 6.71469 37.1373 6.27142 37.1373ZM4.03253 32.8C3.82508 32.6557 3.60673 32.529 3.37891 32.4212C3.39128 26.3472 3.40438 20.2769 3.41748 14.2051C4.62355 14.5365 6.10984 14.8294 7.8123 15.072C7.78319 18.9605 7.75335 22.8505 7.72351 26.7391C7.26204 26.5636 6.7176 26.4761 6.09164 26.4761H4.03253V32.8Z" fill="#FFC5EF"/>
<path d="M6.06999 37.8594C6.12749 37.6204 6.16388 37.38 6.17844 37.1375H6.27015C6.71342 37.1375 7.05624 37.0107 7.29934 36.7587C7.43036 36.6232 7.54754 36.4323 7.65017 36.1861C7.64799 36.5423 7.64508 36.9007 7.64217 37.2547C7.08099 37.3276 6.54237 37.5235 6.06999 37.8594ZM5.94407 35.3884C5.60197 34.3533 4.9207 33.4208 4.03125 32.8002V26.4763H6.09037C6.71633 26.4763 7.26077 26.5637 7.72223 26.7393C7.71495 27.7293 7.70767 28.7193 7.69967 29.71C7.57156 29.3815 7.42454 29.1447 7.25786 28.999C7.01693 28.7885 6.68721 28.6821 6.27015 28.6821H5.94407V35.3884Z" fill="#B790B8"/>
<path d="M7.41978 66.4865C5.82868 66.2483 4.43992 65.9649 3.30664 65.6459C3.33066 54.5702 3.35395 43.4946 3.37797 32.4211C3.60579 32.529 3.82415 32.6557 4.03159 32.7999C4.92104 33.4206 5.60231 34.353 5.94441 35.3882C6.13074 35.9513 6.2159 36.5465 6.17878 37.1372C6.16422 37.3798 6.12783 37.6202 6.07033 37.8592C6.54271 37.5233 7.08133 37.3274 7.64251 37.2545C7.56826 47.0007 7.49402 56.7425 7.41978 66.4865Z" fill="#DFA1DF"/>
<path d="M7.81084 15.072C6.10837 14.8294 4.62208 14.5366 3.41602 14.2051C4.49543 10.9226 5.57558 7.64235 6.655 4.3606C7.48548 4.50046 8.31597 4.63814 9.14719 4.77582C8.70174 8.20764 8.25629 11.6387 7.81157 15.0705" fill="#FFD3F5"/>
<path d="M19.6814 4.58073C13.9495 4.58073 8.91922 4.15312 6.06819 3.51207H33.2945C30.4435 4.15312 25.4147 4.58073 19.6814 4.58073ZM3.58691 2.22705V3.51207C3.58691 4.77596 10.7927 5.80165 19.6814 5.80165C28.5707 5.80165 35.7765 4.77596 35.7765 3.51207V2.22705H3.58691Z" fill="#C4C4C4"/>
<path d="M35.1972 2.90003C35.5735 2.70626 35.7765 2.50083 35.7765 2.29031C35.7765 1.02568 28.5707 0 19.6814 0C10.7927 0 3.58691 1.02568 3.58691 2.29031C3.58691 2.50083 3.78926 2.70626 4.16702 2.90003C6.0449 1.9319 12.279 1.22164 19.6814 1.22164C27.0844 1.22164 33.3186 1.9319 35.1972 2.90003Z" fill="#AAAAAA"/>
<path d="M35.1981 2.90007C33.3195 1.93194 27.0854 1.22168 19.6823 1.22168C12.28 1.22168 6.04585 1.93194 4.16797 2.90007C6.04585 3.86966 12.28 4.58065 19.6823 4.58065C27.0854 4.58065 33.3195 3.86966 35.1981 2.90007Z" fill="#F2F2F2"/>
<path d="M25.6056 3.51929C24.1747 3.72472 23.0246 3.84929 20.3476 3.39982C17.5868 2.93725 14.8828 2.39308 14.6943 1.55388C14.5982 1.12846 14.778 0.908461 14.778 0.908461C14.9388 0.711046 15.2278 0.699391 15.3603 0.695749C16.206 0.678994 17.0496 0.77588 17.8896 0.872766C19.6408 1.07601 21.3928 1.27925 23.144 1.48104C24.2693 1.61143 25.3953 1.74183 26.522 1.87223C26.7127 1.89335 26.9114 1.91885 27.0679 2.02957C28.0614 2.7289 26.0394 3.45737 25.6056 3.51929Z" fill="#F2F2F2"/>
<path d="M21.3629 2.94667C20.3148 2.83886 15.3399 2.59409 14.7845 0.902588L14.778 0.908416C14.778 0.908416 14.5982 1.12841 14.6943 1.55384C14.8828 2.39303 17.5868 2.9372 20.3476 3.39978C23.0246 3.84924 24.1747 3.72468 25.6056 3.51925C25.848 3.48574 26.5802 3.24316 27.0126 2.91535C25.4251 3.51561 22.3543 3.0472 21.3629 2.94667Z" fill="#C4C4C4"/>
</svg>
