<svg width="28" height="80" viewBox="0 0 28 80" fill="none" xmlns="http://www.w3.org/2000/svg">
<path d="M1.23047 46.1855V77.7488H1.2315C1.28034 78.9935 6.92706 80 13.8879 80C20.8493 80 26.496 78.9935 26.5443 77.7488H26.5458V46.1855H1.23047Z" fill="#C9C9C9"/>
<path d="M0 42.9658V76.575H0.0015424C0.0539839 78.0096 6.26933 79.1699 13.9294 79.1699C21.5895 79.1699 27.8033 78.0096 27.8557 76.575H27.8583V42.9658H0Z" fill="#F2F2F2"/>
<path d="M1.23047 43.7908H26.5458V15.6313H1.23047V43.7908Z" fill="#C9C9C9"/>
<path d="M0 43.7907H27.8583V9.64331H0V43.7907Z" fill="#F2F2F2"/>
<path d="M0 8.56396V75.4951H0.0015424C0.0539839 76.9292 6.26933 78.0901 13.9294 78.0901C21.5895 78.0901 27.8033 76.9292 27.8557 75.4951H27.8583V8.56396H0Z" fill="#FF6700"/>
<path d="M27.8586 39.3039C27.7743 39.0904 27.6771 38.8825 27.5625 38.6808C26.9218 37.5575 25.6632 36.7074 24.3764 36.8695C22.9692 37.0476 21.9476 38.3329 21.4489 39.6584C20.6911 41.6699 20.7512 42.6172 20.2921 43.742C19.0273 46.8284 12.5395 48.7477 9.13594 46.7913C3.45272 43.5244 3.18948 27.6239 10.8459 23.4626C14.0413 21.7249 18.2073 22.256 21.2211 23.8038C26.3398 26.4301 27.5625 31.6874 27.7943 32.9954C27.5085 31.2659 26.8967 29.0317 25.5609 26.7187C24.7918 25.3896 23.6165 23.406 21.2726 21.7501C20.0695 20.9001 18.7389 20.2085 17.3096 19.8463C13.2254 18.8125 8.77039 20.6804 5.96683 23.8207C3.16326 26.9596 1.82446 31.1723 1.3602 35.3521C0.930896 39.2103 1.20853 43.2254 2.78537 46.7759C4.36119 50.3243 7.35653 53.3556 11.1025 54.4012C12.7909 54.874 14.5708 54.9373 16.3209 54.8401C18.0942 54.7413 19.8829 54.4737 21.5055 53.7533C24.7908 52.2935 26.9769 49.0914 27.8586 45.5703V39.3039Z" fill="#FFC200"/>
<path d="M9.78655 14.6012C8.86625 14.7 7.9331 14.9095 7.17116 15.4307C6.40767 15.9525 5.84469 16.8365 5.9105 17.756C5.9249 17.9629 5.98145 18.1852 6.14597 18.3102C6.2668 18.4028 6.42515 18.4275 6.5763 18.4435C7.75161 18.5726 12.0374 17.5409 12.0374 17.5409C13.4112 17.2487 14.4826 17.3408 15.5212 17.4303C16.8636 17.5466 19.4235 18.0287 22.3627 20.389C21.3638 19.1181 19.479 17.1041 16.4975 15.7745C16.3397 15.7034 13.3521 14.2241 9.78655 14.6012Z" fill="#FFC200"/>
<path d="M9.90553 44.1263C11.106 44.7958 12.5893 45.0263 13.8818 44.5586C15.1754 44.0898 16.2098 42.8621 16.2653 41.4892C16.2756 41.2221 16.2494 40.9438 16.127 40.7055C15.7533 39.9784 14.6885 39.9337 13.9528 40.2908C13.2155 40.6463 12.6392 41.2762 11.9019 41.6328C10.7652 42.1849 9.05412 41.9266 7.92457 40.8887C6.67832 39.7438 6.69682 38.1291 6.70454 37.8574C6.66752 38.6401 6.66906 40.8794 8.19706 42.7169C8.9225 43.5891 9.70039 44.0131 9.90553 44.1263Z" fill="#FFC200"/>
<path d="M9.51354 57.0937C10.64 57.5589 11.95 57.9618 12.5037 59.0459C13.1171 60.2474 12.2616 61.9296 10.9284 62.1441C10.4004 62.2285 9.59272 62.2774 7.7223 60.6555C4.9609 58.2607 3.53675 55.5114 2.86426 54.0742C1.95579 52.1354 0.816474 49.173 0.242188 45.3118C1.11776 48.8051 2.65913 51.0147 3.67351 52.2223C4.91103 53.694 6.55471 55.8726 9.51354 57.0937Z" fill="#FFC200"/>
<path d="M27.8583 54.649C27.4963 54.6372 27.14 54.8173 26.8305 55.0174C26.0526 55.5232 25.3868 56.186 24.6125 56.6985C23.4938 57.4389 22.1118 57.8799 20.7643 57.8655C19.8023 57.8563 17.8224 57.8089 17.0234 57.3731C18.7108 58.2952 20.4748 59.1998 22.391 59.3804C23.4414 59.4807 24.502 59.3567 25.5354 59.1447C26.3513 58.9785 27.1848 58.7403 27.8583 58.2674V54.649Z" fill="#FFC200"/>
<path d="M27.6927 8.16096C26.8516 6.11249 26.0105 4.06556 25.1709 2.01709H2.81025C1.93211 4.0599 1.05551 6.10323 0.178918 8.14655C0.06221 8.28188 0 8.42185 0 8.56386C0 10.0062 6.23643 11.1763 13.9294 11.1763C21.6224 11.1763 27.8583 10.0062 27.8583 8.56386C27.8583 8.42699 27.8017 8.29115 27.6927 8.16096Z" fill="#FF811A"/>
<path d="M22.4912 77.5368V59.3897C22.7097 59.4082 22.9282 59.4159 23.1478 59.4159C23.9483 59.4159 24.7498 59.3053 25.5354 59.1448C26.1775 59.0141 26.8289 58.8391 27.4058 58.5401V76.1361C26.6238 76.6985 24.8665 77.1889 22.4912 77.5368ZM22.4912 57.6458V53.2448C24.7971 51.8827 26.4644 49.6104 27.4058 47.0428V54.7242C27.2043 54.7926 27.0094 54.9017 26.8305 55.0175C26.0526 55.5233 25.3868 56.186 24.6125 56.6985C23.9729 57.1215 23.2465 57.4467 22.4912 57.6458ZM27.4058 38.4305C26.7899 37.5229 25.7698 36.8498 24.6943 36.8498C24.5889 36.8498 24.4824 36.8565 24.376 36.8694C23.6336 36.963 22.9976 37.3659 22.4912 37.9196V24.5585C25.4629 26.5884 26.8135 29.5312 27.4058 31.4294V38.4305ZM27.4058 31.1922C27.0423 29.826 26.4685 28.2916 25.5606 26.7186C24.939 25.6421 24.0495 24.1381 22.4912 22.7261V10.6241C24.8639 10.2778 26.6212 9.78898 27.4058 9.22656V31.1922Z" fill="#E55400"/>
<path d="M22.4912 53.2448V37.9196C22.9976 37.3659 23.6336 36.963 24.376 36.8693C24.4824 36.8565 24.5889 36.8498 24.6943 36.8498C25.7698 36.8498 26.7899 37.5228 27.4058 38.4305V47.0427C26.4644 49.6104 24.7971 51.8827 22.4912 53.2448ZM27.4058 31.4294C26.8135 29.5312 25.4629 26.5884 22.4912 24.5584V22.7261C24.0495 24.138 24.939 25.6421 25.5606 26.7186C26.4685 28.2916 27.0423 29.826 27.4058 31.1922V31.4294Z" fill="#E59E00"/>
<path d="M23.1478 59.4159C22.9282 59.4159 22.7097 59.4082 22.4912 59.3897V57.6458C23.2465 57.4467 23.9729 57.1215 24.6125 56.6985C25.3868 56.186 26.0526 55.5232 26.8305 55.0174C27.0094 54.9016 27.2043 54.7926 27.4058 54.7241V58.5401C26.8289 58.8391 26.1775 59.014 25.5354 59.1447C24.7498 59.3053 23.9483 59.4159 23.1478 59.4159Z" fill="#E59E00"/>
<path d="M22.4918 10.6242C21.6939 8.31121 20.8975 5.99671 20.1001 3.68324C19.9489 3.12752 19.7962 2.57282 19.6445 2.01709H24.592C25.5308 4.42112 26.4676 6.82362 27.4064 9.22662C26.6218 9.78904 24.8645 10.2779 22.4918 10.6252" fill="#E56914"/>
<path d="M5.24182 77.5183C4.11792 77.3495 3.13593 77.1493 2.33594 76.9239C2.34519 68.9323 2.35445 60.9391 2.3637 52.9458C2.53594 53.3539 2.70457 53.7306 2.86498 54.0743C3.30559 55.0164 4.06908 56.5221 5.32202 58.1223C5.29477 64.5878 5.26804 71.0528 5.24182 77.5183ZM5.33796 54.1443C4.68758 53.462 4.15083 52.7889 3.67422 52.2224C3.2912 51.7665 2.83465 51.1701 2.3673 50.4152C2.36884 48.8623 2.36987 47.3078 2.37244 45.7559C2.49892 46.0996 2.63568 46.4397 2.7858 46.7757C3.42281 48.2114 4.29427 49.5626 5.35235 50.7327C5.34721 51.8694 5.3431 53.0061 5.33796 54.1443ZM5.39451 40.425C4.83257 37.773 4.82228 34.7051 5.42999 31.8637C5.41816 34.7185 5.40634 37.5702 5.39451 40.425ZM2.38992 30.3452C2.39763 23.5741 2.40535 16.8045 2.41357 10.0339C3.26498 10.2686 4.31535 10.4754 5.51842 10.6463C5.49991 15.2372 5.48037 19.8281 5.46186 24.4175C4.05982 26.1629 3.06652 28.1954 2.38992 30.3452Z" fill="#FFB787"/>
<path d="M5.35198 50.7327C4.2939 49.5626 3.42244 48.2114 2.78543 46.7757C2.63531 46.4397 2.49855 46.0996 2.37207 45.7559C2.37773 40.6185 2.3839 35.4826 2.38955 30.3452C3.06615 28.1954 4.05945 26.1629 5.46149 24.4175C5.4507 26.8992 5.44041 29.382 5.42962 31.8637C4.82191 34.7051 4.8322 37.7729 5.39414 40.425C5.37975 43.8602 5.36638 47.297 5.35198 50.7327Z" fill="#FFE287"/>
<path d="M5.3216 58.1224C4.06866 56.5221 3.30517 55.0165 2.86456 54.0743C2.70415 53.7306 2.53552 53.3539 2.36328 52.9459C2.36431 52.1025 2.36585 51.2597 2.36688 50.4153C2.83423 51.1701 3.29078 51.7665 3.67381 52.2224C4.15041 52.789 4.68716 53.462 5.33754 54.1443C5.3324 55.4709 5.32726 56.7959 5.3216 58.1224Z" fill="#FFE287"/>
<path d="M5.51793 10.6464C4.31486 10.4756 3.26449 10.2687 2.41309 10.0341C3.17657 7.71699 3.93852 5.39837 4.70046 3.0813L6.46137 3.37511C6.14723 5.79922 5.83258 8.2228 5.51793 10.6464Z" fill="#FFC493"/>
<path d="M13.9037 3.23555C9.85491 3.23555 6.30123 2.93504 4.28737 2.48069H23.5195C21.5057 2.93504 17.952 3.23555 13.9037 3.23555ZM2.53418 1.573V2.48069C2.53418 3.37397 7.62512 4.09847 13.9037 4.09847C20.1818 4.09847 25.2712 3.37397 25.2712 2.48069V1.573H2.53418Z" fill="#C4C4C4"/>
<path d="M24.8619 2.05002C25.1293 1.9116 25.2712 1.76804 25.2712 1.61778C25.2712 0.724504 20.1818 0 13.9037 0C7.62512 0 2.53418 0.724504 2.53418 1.61778C2.53418 1.76804 2.67762 1.9116 2.94497 2.05002C4.27195 1.36513 8.67447 0.862921 13.9037 0.862921C19.1324 0.862921 23.5355 1.36513 24.8619 2.05002Z" fill="#AAAAAA"/>
<path d="M24.8613 2.04989C23.5348 1.36501 19.1318 0.862793 13.9031 0.862793C8.67383 0.862793 4.27131 1.36501 2.94434 2.04989C4.27131 2.73323 8.67383 3.23544 13.9031 3.23544C19.1318 3.23544 23.5348 2.73323 24.8613 2.04989Z" fill="#F2F2F2"/>
<path d="M18.0867 2.48748C17.076 2.63208 16.2626 2.72058 14.3727 2.4031C12.422 2.07481 10.512 1.69043 10.3789 1.09765C10.312 0.798692 10.4385 0.643294 10.4385 0.643294C10.5516 0.503333 10.7557 0.494071 10.8488 0.493042C11.4467 0.481207 12.0426 0.549644 12.6364 0.618081C13.8734 0.760614 15.1094 0.904177 16.3469 1.04774C17.1428 1.1383 17.9382 1.23092 18.733 1.32303C18.8682 1.33847 19.0081 1.35596 19.1186 1.43366C19.8214 1.92764 18.3921 2.44272 18.0867 2.48748Z" fill="#F2F2F2"/>
<path d="M15.0899 2.08129C14.3485 2.00616 10.8344 1.83224 10.4421 0.637939L10.4385 0.643085C10.4385 0.643085 10.312 0.798483 10.3789 1.09744C10.512 1.69022 12.422 2.0746 14.3727 2.40289C16.2626 2.72037 17.076 2.63187 18.0867 2.48728C18.2564 2.46206 18.7752 2.29226 19.0806 2.06019C17.9592 2.4847 15.7901 2.15281 15.0899 2.08129Z" fill="#C4C4C4"/>
</svg>
