<svg width="31" height="100" viewBox="0 0 31 100" fill="none" xmlns="http://www.w3.org/2000/svg">
<path d="M19.9442 0H10.7203C9.92341 0 9.27734 0.645379 9.27734 1.4429V4.69863H21.3871V1.4429C21.3871 0.645379 20.741 0 19.9442 0Z" fill="#67E03F"/>
<path d="M21.3873 4.5698V1.4429C21.3873 0.645379 20.7412 0 19.9443 0H19.9842C20.759 0 21.3873 0.628202 21.3873 1.40364V4.5698Z" fill="#D8E8D1"/>
<path d="M21.3861 4.5698C21.3536 4.56857 21.3205 4.56673 21.2874 4.56673H19.0378V1.40364C19.0378 0.628202 18.4096 0 17.6348 0H19.9432C20.7401 0 21.3861 0.645379 21.3861 1.4429V4.5698Z" fill="#57CC34"/>
<path d="M27.7629 85.6711C27.6041 78.5941 27.4454 71.5176 27.286 64.4424C28.0277 63.4497 28.9269 61.9314 29.1249 60.0026C29.3738 57.5763 28.3121 56.4236 27.0335 52.3593C25.897 48.7453 25.3466 46.9343 25.6629 45.1663C26.1287 42.559 27.4527 42.2387 28.0265 38.9891C28.3759 37.0107 28.1871 35.4181 28.0265 34.0641C27.7237 31.509 27.061 29.6447 26.4904 28.068C23.1479 18.8382 22.3081 17.0935 21.545 13.7482C21.0362 11.5164 20.8002 9.62073 20.6813 8.2858H21.2881C21.9207 8.2858 22.4338 7.77232 22.4338 7.13921V5.71164C22.4338 5.07915 21.9207 4.56689 21.2881 4.56689H9.36165C8.72907 4.56689 8.21601 5.07915 8.21601 5.71164V7.13921C8.21601 7.77232 8.72907 8.2858 9.36165 8.2858H9.98258C9.86367 9.62073 9.62767 11.5164 9.11891 13.7482C8.35577 17.0935 7.51601 18.8382 4.1735 28.068C3.60283 29.6447 2.94021 31.509 2.6368 34.0641C2.47681 35.4181 2.28741 37.0107 2.6368 38.9891C3.21115 42.2387 4.53515 42.559 5.00101 45.1663C5.3173 46.9343 4.76685 48.7453 3.63041 52.3593C2.35177 56.4236 1.29011 57.5763 1.53897 60.0026C1.73635 61.9314 2.63618 63.4497 3.37726 64.4424C3.2185 71.5176 3.05974 78.5941 2.90098 85.6711C0.222936 89.9759 -0.657897 94.0341 0.496932 96.3536C0.781348 96.9254 1.26927 97.9051 2.33828 98.5425C5.6624 99.2965 9.89983 99.9548 14.8299 99.9971C20.2118 100.044 24.8047 99.3419 28.3256 98.5425C29.2941 97.7861 29.8494 96.9929 30.1663 96.3536C31.3218 94.0341 30.4409 89.9759 27.7629 85.6711Z" fill="#9CFF7B"/>
<path d="M27.7566 85.366C27.6028 78.5061 27.4483 71.6443 27.2944 64.7832H3.37038C3.21652 71.6443 3.06206 78.5061 2.9082 85.366H27.7566Z" fill="#67E03F"/>
<path d="M2.93652 84.1472H27.7298C27.5931 78.0584 27.4564 71.9696 27.3197 65.8809H3.3466C3.20991 71.9696 3.07321 78.0584 2.93652 84.1472Z" fill="#56C42D"/>
<path d="M18.0043 79.1282C17.9093 78.8798 17.7499 78.5706 17.4765 78.2847C16.5835 77.3534 15.2527 77.4774 15.0394 77.5013C15.0835 77.1271 15.2472 76.1596 16.0183 75.2694C16.9218 74.2265 18.065 73.9719 18.4107 73.9094C18.3568 73.6738 18.3022 73.4364 18.2477 73.2008C17.9044 73.2499 17.3644 73.3677 16.7796 73.691C16.2304 73.9959 15.8589 74.3615 15.6376 74.6161C15.36 73.8873 14.5527 72.061 12.5924 70.6444C10.7345 69.2997 8.86254 69.0641 8.07917 69.0107C8.42365 69.9941 9.35168 72.199 11.6135 73.9094C12.8965 74.878 14.1647 75.3523 15.0394 75.5958C15.0339 75.6118 14.7433 76.4252 14.7372 76.4412L14.4994 77.1068C14.3627 77.0191 14.1616 76.8964 13.9103 76.7676C13.2318 76.4203 11.8348 75.6964 10.1669 76.0026C8.88338 76.2369 7.69974 76.997 6.97215 78.0804C6.33957 79.0245 6.06251 80.1601 5.88659 81.2828C5.73886 82.2269 5.66531 83.2287 5.87065 84.1471H19.2811L18.0043 79.1282Z" fill="#75DD4A"/>
<path d="M27.5455 75.9712C27.3169 75.8344 26.4551 75.3541 25.3156 75.5412C24.2913 75.7093 23.6636 76.3154 23.4669 76.5209C23.3651 76.1522 23.2799 75.6682 23.3038 75.1062C23.3676 73.6142 24.1589 72.5683 24.5003 72.1677C24.2282 72.0045 23.9566 71.8407 23.6845 71.6775C23.3872 72.1769 22.9661 73.0265 22.7803 74.159C22.5928 75.3007 22.7239 76.2461 22.8478 76.816C22.5431 76.6375 21.8799 76.2884 20.9801 76.2853C20.3205 76.2823 19.6554 76.4503 19.0774 76.7675C17.9207 77.4037 17.1129 78.5846 16.7849 79.8631C16.457 81.1428 16.5802 82.5109 16.9792 83.7691C17.0191 83.8961 17.0638 84.0231 17.1104 84.147H27.7288C27.6675 81.4226 27.6062 78.6975 27.5455 75.9712Z" fill="#81F257"/>
<path d="M15.3302 100C15.1641 100 14.9967 99.9988 14.8294 99.9969C14.3611 99.9939 13.9007 99.9828 13.4453 99.9669C17.8072 99.827 21.5714 99.2209 24.5608 98.5424C25.5287 97.7859 26.0841 96.9927 26.4016 96.3535C27.5564 94.0339 26.6756 89.9758 23.9975 85.671C23.9957 85.5685 23.9932 85.4679 23.9908 85.3661H27.7556C27.744 84.8618 27.7329 84.3581 27.7213 83.8539C27.7103 83.3447 27.6986 82.8343 27.687 82.3257C27.7121 83.4404 27.7372 84.5557 27.7624 85.671C29.6662 88.7304 30.6617 91.6671 30.6629 93.9425C30.6635 94.8676 30.4999 95.6829 30.1658 96.3535C29.8489 96.9927 29.2935 97.7859 28.3251 98.5424C24.9139 99.3166 20.4969 100 15.3302 100Z" fill="#84E865"/>
<path d="M27.7573 85.3662H23.9924C23.9832 84.9613 23.9747 84.5546 23.9648 84.1472H27.7297C27.7272 84.0503 27.7254 83.9528 27.7229 83.854C27.7346 84.3583 27.7456 84.8619 27.7573 85.3662Z" fill="#57CC34"/>
<path d="M27.2945 64.7834H23.5303C23.5272 64.67 23.5248 64.5552 23.5223 64.4424C24.2634 63.4497 25.1632 61.9314 25.3606 60.0026C25.6095 57.5763 24.5478 56.4236 23.2698 52.3593C22.1327 48.7453 21.5829 46.9343 21.8986 45.1663C22.3644 42.559 23.689 42.2387 24.2628 38.9891C24.6122 37.0107 24.4234 35.4181 24.2628 34.0641C23.9594 31.509 23.2967 29.6447 22.7267 28.068C19.3842 18.8382 18.5444 17.0935 17.7807 13.7482C17.2725 11.5164 17.0365 9.62073 16.917 8.2858H17.5244C18.157 8.2858 18.6695 7.77232 18.6695 7.13921V5.71164C18.6695 5.07915 18.157 4.56689 17.5244 4.56689H21.2887C21.9212 4.56689 22.4343 5.07915 22.4343 5.71164V7.13921C22.4343 7.77232 21.9212 8.2858 21.2887 8.2858H20.6818C20.8007 9.62073 21.0367 11.5164 21.5455 13.7482C22.3086 17.0935 23.1484 18.8382 26.4909 28.068C27.0616 29.6447 27.7242 31.509 28.027 34.0641C28.1214 34.8574 28.225 35.7322 28.2244 36.7199C28.2244 37.4174 28.1717 38.1695 28.027 38.9891C27.4533 42.2387 26.1293 42.559 25.6634 45.1663C25.6039 45.4975 25.5751 45.8307 25.5751 46.1773C25.5739 47.6772 26.1103 49.4238 27.034 52.3593C28.1851 56.0181 29.1604 57.3168 29.1616 59.3118C29.1616 59.5333 29.15 59.7621 29.1254 60.0026C28.9274 61.9314 28.0282 63.4497 27.2865 64.4424C27.2896 64.5552 27.2921 64.67 27.2945 64.7834Z" fill="#84E865"/>
<path d="M27.319 65.8807H23.5548C23.5462 65.5151 23.5382 65.1488 23.5303 64.7832H27.2945C27.3025 65.1488 27.311 65.5151 27.319 65.8807Z" fill="#57CC34"/>
<path d="M23.787 76.229C23.7655 75.2806 23.7441 74.3334 23.7226 73.3849C23.9874 72.8052 24.3123 72.3892 24.5005 72.1678C24.2283 72.0046 23.9568 71.8408 23.6846 71.6776C23.6411 69.7458 23.5976 67.8127 23.5547 65.8809H27.3189C27.387 68.8961 27.4544 71.9101 27.5218 74.9254C27.5298 75.2738 27.5377 75.6229 27.5457 75.9713C27.3532 75.8566 26.7139 75.499 25.838 75.499C25.6719 75.499 25.4978 75.5112 25.3157 75.5413C24.6188 75.656 24.1057 75.9732 23.787 76.229Z" fill="#49B225"/>
<path d="M27.7289 84.147H23.9641C23.9052 81.5091 23.8458 78.8675 23.7869 76.2289C24.1057 75.9731 24.6187 75.6559 25.3157 75.5412C25.4977 75.5111 25.6718 75.4988 25.8379 75.4988C26.7138 75.4988 27.3532 75.8565 27.5456 75.9712C27.5928 78.0902 27.6407 80.2085 27.6879 82.3256C27.6995 82.8342 27.7111 83.3446 27.7222 83.8538C27.7246 83.9526 27.7265 84.0501 27.7289 84.147ZM23.7226 73.3848C23.7103 72.8161 23.6974 72.2462 23.6846 71.6775C23.9567 71.8407 24.2283 72.0045 24.5004 72.1677C24.3122 72.3891 23.9874 72.8051 23.7226 73.3848Z" fill="#6DDC47"/>
<path d="M5.54202 39.1429C5.54202 39.1429 5.29377 39.1448 5.03694 38.9454C3.54743 37.797 4.9358 32.0665 4.9358 32.0665C6.43511 25.8753 8.17103 23.3048 9.72 18.1706C10.2337 16.4663 10.9275 13.8548 11.4222 10.5193C11.3615 12.9125 11.28 14.9057 11.2132 16.3406C11.2132 16.3406 10.6082 29.3383 7.89091 35.9314C7.72234 36.34 7.49984 36.7228 7.08302 37.4405C6.28494 38.8147 5.91654 39.1429 5.54202 39.1429Z" fill="#D0FFC1"/>
<path d="M4.92453 62.5343C4.40473 62.5343 3.9211 62.1852 3.62872 61.7472C2.83493 60.557 3.22845 58.9706 3.64894 57.6025C3.8077 57.086 4.22391 55.2185 5.34625 52.0843C5.7551 50.9407 6.02235 50.2733 6.16824 49.1893C6.32883 47.9973 6.25037 46.9893 6.15291 46.3047C6.98838 48.6144 7.3672 50.6046 7.55476 52.0291C7.6559 52.7984 8.1898 57.1786 6.5826 60.8067C6.13759 61.8103 5.65825 62.4711 5.03118 62.5293C4.99563 62.5324 4.96008 62.5343 4.92453 62.5343Z" fill="#D0FFC1"/>
<path d="M2.63891 95.6733C2.62543 95.6733 2.61194 95.6733 2.59846 95.6702C2.38453 95.642 2.28891 95.3911 2.24416 95.1788C1.91009 93.5813 2.10011 91.8857 2.74189 90.3888C2.98524 89.8219 4.01502 87.8257 4.98351 87.8257C5.14962 87.8257 5.31389 87.884 5.47204 88.0189C5.78956 88.2889 5.75155 88.7821 5.67309 89.1919C5.34025 90.9366 4.77265 92.6347 3.99111 94.2286C3.72631 94.7703 3.40573 95.331 2.86939 95.6046C2.79767 95.642 2.7186 95.6733 2.63891 95.6733Z" fill="#D0FFC1"/>
</svg>
