<svg width="32" height="100" viewBox="0 0 32 100" fill="none" xmlns="http://www.w3.org/2000/svg">
<path fill-rule="evenodd" clip-rule="evenodd" d="M28.1175 28.8652L26.9462 30.7743C25.0723 33.8078 24.8322 37.3684 26.9404 40.2789C29.4702 43.7692 31.1158 44.5188 31.11 48.5361L31.0338 89.951C31.028 92.3111 29.968 97.1834 27.5377 98.542C25.0137 99.9475 21.9919 100.65 19.4093 99.1979C18.1502 98.4952 16.815 97.6285 15.4857 97.6285C11.767 97.6285 5.88154 104.082 1.41328 95.4383C0.0429318 92.7796 0.142486 90.3317 0.142486 87.4563L0.154199 47.7924C0.148343 44.5129 2.3327 43.0313 4.31209 40.3023C6.46131 37.3215 6.1685 33.7727 4.27109 30.6865L2.37955 27.6237C0.365021 24.3559 -1.69636 16.6433 2.20972 13.9905L11.2634 7.84149C11.2634 7.82978 11.2634 7.81221 11.2634 7.8005C11.2634 7.02748 13.2018 6.38916 15.5911 6.38916C17.9804 6.38916 19.9188 7.02748 19.9188 7.8005L28.4044 13.5513C34.448 17.6447 30.9226 24.3208 28.1175 28.8652Z" fill="#C0DBDC"/>
<path fill-rule="evenodd" clip-rule="evenodd" d="M1.47168 17.5335C1.78206 16.7547 2.26812 16.0812 2.97672 15.5952L10.947 10.184C10.947 10.1723 10.947 10.1606 10.947 10.1548C10.947 9.97322 11.0582 9.80339 11.2691 9.65698C13.3304 9.7214 15.8837 9.80924 18.5015 9.91465C18.5424 9.99078 18.5717 10.0728 18.5717 10.1548L26.0384 15.2145C27.1159 15.9465 27.8479 16.7664 28.3106 17.6448C22.5422 20.3269 6.30303 20.9653 1.47168 17.5335Z" fill="#DEE9E8"/>
<path fill-rule="evenodd" clip-rule="evenodd" d="M1.83594 16.9186C2.1346 16.3271 2.55625 15.8176 3.13015 15.4253C6.28078 13.2877 8.69938 11.0155 10.5499 9.99072C13.7474 8.22801 15.7209 8.06989 19.2054 10.1605C20.9388 11.2029 23.0295 13.1238 25.8697 15.0446C26.6661 15.5892 27.2693 16.1748 27.7085 16.8015C22.0749 19.3138 7.03623 19.9521 1.83594 16.9186Z" fill="#C5DDDE"/>
<path fill-rule="evenodd" clip-rule="evenodd" d="M11.7566 9.66846C11.5341 9.66261 5.05131 14.8688 4.67066 15.7706C4.30172 16.6666 5.72477 17.4865 6.96628 16.9126C8.21365 16.3445 12.1959 10.1662 12.2076 9.92613C12.2134 9.68603 12.2134 9.68603 11.7566 9.66846Z" fill="#DEE9E8"/>
<path fill-rule="evenodd" clip-rule="evenodd" d="M11.3232 4.32764H19.9201V7.80035C19.9201 8.08731 17.9993 8.3157 15.6217 8.3157C13.2499 8.3157 11.3232 8.08731 11.3232 7.80035V4.32764Z" fill="#CADFDE"/>
<path fill-rule="evenodd" clip-rule="evenodd" d="M11.3232 4.32764H16.1956L19.2115 4.84884C19.2115 4.84884 19.3404 7.55439 19.2818 7.98189C19.2818 8.01703 19.2584 8.05217 19.2174 8.08731C18.6903 8.17515 17.8997 8.25128 16.9627 8.28642L16.869 5.8561C16.869 5.8561 13.2265 5.95565 11.6043 5.63357C11.5106 5.61014 11.4111 5.58672 11.3232 5.55743V4.32764Z" fill="#AED3D5"/>
<path fill-rule="evenodd" clip-rule="evenodd" d="M10.2451 0.7146H20.9385V4.32786C20.9385 4.72023 18.5433 5.03646 15.5918 5.03646C12.6403 5.03646 10.2451 4.72023 10.2451 4.32786V0.7146Z" fill="#F3A04D"/>
<path fill-rule="evenodd" clip-rule="evenodd" d="M15.5918 1.42891C18.5375 1.42891 20.9385 1.10682 20.9385 0.714454C20.9385 0.32209 18.5375 0 15.5918 0C12.6462 0 10.251 0.32209 10.251 0.714454C10.251 1.10682 12.6462 1.42891 15.5918 1.42891Z" fill="#FCB76C"/>
<path fill-rule="evenodd" clip-rule="evenodd" d="M26.2843 28.1623L25.2887 29.7844C23.7017 32.367 23.4967 37.8894 25.2887 40.3724C27.4379 43.3415 29.9795 44.1789 29.9737 47.5931L29.9678 88.7562C29.962 91.5964 29.2475 94.5714 27.4262 96.4219C26.2608 97.6049 24.4806 98.1144 22.6769 98.5067C20.7443 98.9225 18.15 96.3575 15.5148 96.2931C13.8399 96.4278 12.2177 97.1598 10.6951 97.9094C8.05984 99.2153 5.41284 98.5009 3.83753 96.5508C1.94012 94.1966 1.38379 90.2027 1.38379 87.8602L1.3955 47.0602C1.38965 44.2668 4.34702 42.709 6.02774 40.3841C7.86073 37.8484 7.60891 32.3377 5.9926 29.7142L4.38215 27.1023C3.89023 26.3 3.39832 25.3982 3.01766 24.4553H28.5682C27.9591 25.6441 27.0866 26.8622 26.2843 28.1623Z" fill="#F3A04D"/>
<path fill-rule="evenodd" clip-rule="evenodd" d="M29.9678 87.4739V88.7564C29.962 91.5966 29.2475 94.5716 27.4262 96.4221C26.2609 97.6051 24.4806 98.1146 22.6769 98.5069C20.7443 98.9227 18.15 96.3577 15.5148 96.2933C13.8399 96.428 12.2177 97.16 10.6951 97.9096C8.05984 99.2155 5.41285 98.5011 3.83753 96.551C2.04554 94.3315 1.45407 90.6362 1.38965 88.2586C1.40136 88.282 2.89469 90.8646 6.76562 92.153C10.66 93.453 13.3538 91.7547 14.0507 91.3038C14.7476 90.8587 16.1472 91.8016 17.1428 92.1061C18.1383 92.4048 19.6082 93.3008 23.0634 92.5512C26.1964 91.8719 29.3939 88.1649 29.9678 87.4739Z" fill="#DD853A"/>
<path fill-rule="evenodd" clip-rule="evenodd" d="M5.02743 42.4631C4.17828 42.7852 3.00705 44.0502 2.45657 44.9696C1.90608 45.8949 1.60742 46.4688 2.43314 46.7674C3.253 47.0719 5.72431 47.4702 9.61282 47.7688C13.5013 48.0675 18.6431 47.6166 20.4877 47.4233C22.3266 47.2184 23.574 47.1247 23.574 47.0192C23.574 46.9255 19.7674 42.6798 19.7674 42.6798C19.7674 42.6798 14.9302 43.5172 5.02743 42.4631Z" fill="#FCB76C"/>
<path fill-rule="evenodd" clip-rule="evenodd" d="M7.14033 33.1459C6.93536 31.8283 6.543 30.5985 5.99252 29.7142L4.38207 27.1023C3.89015 26.3 3.39823 25.3982 3.01758 24.4553H28.5681C24.6855 31.2895 22.788 33.6671 18.7473 34.2644C14.5835 34.8793 8.31742 33.5968 7.14033 33.1459Z" fill="#E99340"/>
<path fill-rule="evenodd" clip-rule="evenodd" d="M15.7899 25.4567C22.8232 25.4567 28.5622 25.0057 28.5622 24.4553C28.5622 23.9048 22.8232 23.4597 15.7899 23.4597C8.75664 23.4597 3.01758 23.9048 3.01758 24.4553C3.01758 25.0057 8.75664 25.4567 15.7899 25.4567Z" fill="#FCB76C"/>
<path fill-rule="evenodd" clip-rule="evenodd" d="M27.0042 28.8358L25.8037 30.7391C23.8887 33.7726 23.6369 37.3331 25.8037 40.2495C28.3921 43.7456 30.0845 44.4894 30.0728 48.5067L30.0553 89.9216C30.0494 91.8073 28.966 94.835 27.3087 96.5918C26.0965 97.8626 24.4743 98.132 23.022 98.4248L23.3148 51.8213C23.3324 48.7058 23.7833 46.1818 20.9196 43.7866C14.0796 38.0768 18.4542 29.3101 22.0264 24.1567C27.5781 16.1572 24.0351 14.7048 16.7734 8.29231L19.2799 7.98193C19.3209 8.05221 19.3384 8.12248 19.3384 8.20447L27.3029 13.5219C33.5045 17.6154 29.8854 24.2855 27.0042 28.8358Z" fill="#AED3D5"/>
<path fill-rule="evenodd" clip-rule="evenodd" d="M25.1318 28.133L24.107 29.7552C22.479 32.3377 22.2682 37.8542 24.107 40.3373C26.3148 43.3064 28.9208 44.1438 28.9091 47.5638V88.721C28.9032 91.5613 28.1653 94.5421 26.2972 96.3868C25.4539 97.2242 24.2885 98.0675 23.0236 98.4247L23.3164 51.8212C23.334 48.7058 23.7849 46.1817 20.9212 43.7866C14.1983 38.1705 18.3094 29.6029 21.8465 24.426H27.4743C26.8477 25.609 25.9517 26.8329 25.1318 28.133Z" fill="#DD853A"/>
<path fill-rule="evenodd" clip-rule="evenodd" d="M21.2842 25.2752C24.997 25.0937 27.4683 24.7775 27.4683 24.4261C27.4683 24.104 25.4713 23.8229 22.3851 23.6355C22.268 23.8053 22.1509 23.981 22.0279 24.1567C21.782 24.5139 21.536 24.8887 21.2842 25.2752Z" fill="#F3A04D"/>
<path fill-rule="evenodd" clip-rule="evenodd" d="M8.59829 34.4871C8.68613 36.3142 8.05952 38.8851 7.63787 39.8455C7.22208 40.8001 6.50763 41.7019 7.0991 41.9069C7.70229 42.1177 8.3289 40.7415 8.86767 39.2482C9.40058 37.7549 9.7461 35.2601 9.25418 34.3993C8.76226 33.5443 8.59829 34.4871 8.59829 34.4871Z" fill="#FCB76C"/>
<path fill-rule="evenodd" clip-rule="evenodd" d="M3.47489 87.6786C3.44561 81.0494 3.33434 50.6734 3.82626 49.5198C4.37674 48.2197 5.17319 48.2197 5.47185 48.8229C5.74124 49.3616 5.31959 80.9265 5.22589 87.6201C5.19661 90.0211 3.48075 90.068 3.47489 87.6786Z" fill="#FCB76C"/>
<path fill-rule="evenodd" clip-rule="evenodd" d="M6.07398 27.0673C6.74158 27.8931 7.3799 28.912 7.52045 29.7612C7.71956 30.9558 7.74299 32.4784 8.29347 32.4784C10.0972 32.4784 8.07679 27.0849 7.16908 26.388C6.4312 25.82 5.06086 25.8024 6.07398 27.0673Z" fill="#FCB76C"/>
<path fill-rule="evenodd" clip-rule="evenodd" d="M31.1394 54.802V76.4582C31.1511 76.4992 31.157 76.5401 31.157 76.5753C31.157 77.9515 24.2291 79.07 15.6849 79.07C7.14075 79.07 0.212891 77.9515 0.212891 76.5753C0.212891 76.5401 0.218746 76.4992 0.230459 76.4582V54.802C0.611111 55.4403 7.38671 55.944 15.6849 55.944C23.9831 55.944 30.7587 55.4403 31.1394 54.802Z" fill="#EDE3BB"/>
<path fill-rule="evenodd" clip-rule="evenodd" d="M28.9075 55.3704L28.8724 77.8757C26.1492 78.596 21.2593 79.0703 15.6843 79.0703C10.1502 79.0703 5.29538 78.6018 2.56055 77.8991L2.5664 55.3821C5.30124 55.7159 10.156 55.9443 15.6843 55.9443C21.2828 55.9443 26.1902 55.71 28.9075 55.3704Z" fill="#F8F1DC"/>
<path d="M11.5151 69.3196C11.4507 69.6886 11.3335 70.0575 11.2223 70.4089C11.1696 70.5494 11.0934 70.7134 11.0173 70.8012C11.0056 70.8247 10.9822 70.8364 10.9705 70.8539C10.9705 70.8539 10.9587 70.8539 10.9412 70.8657C10.9295 70.8657 10.9295 70.8657 10.9295 70.8657V70.8774C10.9178 70.8657 10.906 70.8657 10.8943 70.8657C10.7186 70.5494 10.6542 70.1571 10.5898 69.7764C10.4903 69.2201 10.4493 68.652 10.4141 68.0781C10.3497 67.065 10.297 66.0577 10.5781 65.068C10.6425 64.8689 10.7186 64.6932 10.8299 64.5117C10.8416 64.5 10.8709 64.4766 10.8943 64.4473C10.8943 64.4473 10.8943 64.4473 10.906 64.4473C11.2867 64.6522 11.4507 65.2847 11.5385 65.6654C11.8196 66.8307 11.7435 68.1425 11.5151 69.3196ZM12.4755 66.1339C12.3994 65.5424 12.2705 64.9568 11.966 64.4239C11.7259 63.9846 11.275 63.5103 10.7186 63.6157C10.2501 63.7035 10.01 64.2072 9.84021 64.6171C9.6411 65.1442 9.56497 65.7415 9.52398 66.3095C9.46542 67.1411 9.55326 68.0196 9.62939 68.8453C9.66453 69.343 9.72895 69.8408 9.8285 70.321C9.90463 70.6607 9.99247 71.0413 10.1974 71.3459C10.2209 71.4337 10.2853 71.5098 10.3966 71.5625C10.9412 71.8261 11.439 71.6914 11.7786 71.1936C12.0421 70.8012 12.1358 70.28 12.2705 69.8233C12.4228 69.2728 12.4755 68.6637 12.5106 68.0957C12.5633 67.4398 12.5516 66.778 12.4755 66.1339Z" fill="#F3A04D"/>
<path d="M14.4502 64.1956C14.4502 66.5673 14.4502 68.9391 14.4502 71.3108C14.4502 71.8438 15.2876 71.8438 15.2876 71.3108C15.2876 68.9391 15.2876 66.5673 15.2876 64.1956C15.2876 63.651 14.4502 63.651 14.4502 64.1956Z" fill="#F3A04D"/>
<path d="M19.4852 70.854C18.8644 70.854 18.8527 70.854 18.232 70.854C18.232 68.6287 18.232 66.3858 18.232 64.1604C18.232 63.6041 17.3711 63.6041 17.3711 64.1604C17.3711 66.538 17.3711 68.9039 17.3711 71.2874C17.3711 71.5216 17.5643 71.709 17.8045 71.709C18.5775 71.709 18.7122 71.709 19.4852 71.709C20.0415 71.709 20.0415 70.854 19.4852 70.854Z" fill="#F3A04D"/>
<path fill-rule="evenodd" clip-rule="evenodd" d="M4.77441 67.0534C4.77441 67.0534 6.10962 68.4296 6.95877 67.8791C7.80792 67.3228 7.2223 66.5205 6.68353 66.4795C6.14476 66.4385 4.77441 67.0534 4.77441 67.0534Z" fill="#F3A04D"/>
<path fill-rule="evenodd" clip-rule="evenodd" d="M4.9502 69.6418C4.9502 69.6418 6.59578 70.6256 7.2751 69.876C7.95442 69.1264 7.1814 68.5057 6.64849 68.5935C6.11558 68.6931 4.9502 69.6418 4.9502 69.6418Z" fill="#F3A04D"/>
<path fill-rule="evenodd" clip-rule="evenodd" d="M5.78906 72.1073C5.78906 72.1073 7.63962 72.6285 8.0964 71.7267C8.55904 70.819 7.65133 70.4266 7.15941 70.655C6.66749 70.8834 5.78906 72.1073 5.78906 72.1073Z" fill="#F3A04D"/>
<path fill-rule="evenodd" clip-rule="evenodd" d="M7.24023 74.262C7.24023 74.262 9.16106 74.2913 9.37188 73.2958C9.58271 72.3061 8.59887 72.1538 8.18894 72.5052C7.77315 72.8566 7.24023 74.262 7.24023 74.262Z" fill="#F3A04D"/>
<path fill-rule="evenodd" clip-rule="evenodd" d="M9.20117 75.9722C9.20117 75.9722 11.0576 75.4978 11.0107 74.4906C10.9522 73.4716 9.96833 73.5829 9.65795 74.0279C9.34758 74.473 9.20117 75.9722 9.20117 75.9722Z" fill="#F3A04D"/>
<path fill-rule="evenodd" clip-rule="evenodd" d="M11.5327 77.1142C11.5327 77.1142 13.2076 76.1772 12.8972 75.2168C12.5868 74.2506 11.6557 74.6136 11.4741 75.1231C11.2926 75.6268 11.5327 77.1142 11.5327 77.1142Z" fill="#F3A04D"/>
<path fill-rule="evenodd" clip-rule="evenodd" d="M14.0804 77.6178C14.0804 77.6178 15.4566 76.2709 14.9061 75.4276C14.3556 74.5726 13.5592 75.1582 13.5123 75.7029C13.4655 76.2416 14.0804 77.6178 14.0804 77.6178Z" fill="#F3A04D"/>
<path fill-rule="evenodd" clip-rule="evenodd" d="M16.676 77.4362C16.676 77.4362 17.6598 75.7906 16.9102 75.1113C16.1548 74.432 15.534 75.205 15.6336 75.7437C15.7273 76.2708 16.676 77.4362 16.676 77.4362Z" fill="#F3A04D"/>
<path fill-rule="evenodd" clip-rule="evenodd" d="M19.1334 76.599C19.1334 76.599 19.6546 74.7484 18.7586 74.2917C17.8509 73.8232 17.4527 74.7367 17.687 75.2286C17.9154 75.7147 19.1334 76.599 19.1334 76.599Z" fill="#F3A04D"/>
<path fill-rule="evenodd" clip-rule="evenodd" d="M21.2957 75.1409C21.2957 75.1409 21.3192 73.2259 20.3295 73.0151C19.3398 72.8043 19.1875 73.7881 19.5389 74.198C19.8903 74.6138 21.2957 75.1409 21.2957 75.1409Z" fill="#F3A04D"/>
<path fill-rule="evenodd" clip-rule="evenodd" d="M23 73.1847C23 73.1847 22.5315 71.3224 21.5184 71.3751C20.5053 71.4278 20.6166 72.4175 21.0616 72.722C21.5067 73.0383 23 73.1847 23 73.1847Z" fill="#F3A04D"/>
<path fill-rule="evenodd" clip-rule="evenodd" d="M24.1453 70.854C24.1453 70.854 23.2025 69.1792 22.242 69.4895C21.2816 69.8058 21.6389 70.7252 22.1483 70.9126C22.6578 71.0941 24.1453 70.854 24.1453 70.854Z" fill="#F3A04D"/>
<path fill-rule="evenodd" clip-rule="evenodd" d="M24.6447 68.3007C24.6447 68.3007 23.3037 66.9245 22.4545 67.4749C21.6054 68.0254 22.191 68.8277 22.7356 68.8746C23.2744 68.9214 24.6447 68.3007 24.6447 68.3007Z" fill="#F3A04D"/>
<path fill-rule="evenodd" clip-rule="evenodd" d="M24.4689 65.7065C24.4689 65.7065 22.8174 64.7285 22.1381 65.4781C21.4588 66.2335 22.2377 66.8543 22.7706 66.7547C23.3035 66.661 24.4689 65.7065 24.4689 65.7065Z" fill="#F3A04D"/>
<path fill-rule="evenodd" clip-rule="evenodd" d="M23.6273 63.2528C23.6273 63.2528 21.7767 62.7316 21.32 63.6335C20.8573 64.5354 21.765 64.9336 22.2569 64.6993C22.7489 64.4709 23.6273 63.2528 23.6273 63.2528Z" fill="#F3A04D"/>
<path fill-rule="evenodd" clip-rule="evenodd" d="M22.1742 61.0916C22.1742 61.0916 20.2592 61.0682 20.0484 62.0579C19.8317 63.0476 20.8155 63.194 21.2255 62.8485C21.6412 62.4971 22.1742 61.0916 22.1742 61.0916Z" fill="#F3A04D"/>
<path fill-rule="evenodd" clip-rule="evenodd" d="M20.212 59.3816C20.212 59.3816 18.3556 59.8559 18.4083 60.8691C18.461 61.8763 19.4449 61.7709 19.7552 61.3258C20.0656 60.8808 20.212 59.3816 20.212 59.3816Z" fill="#F3A04D"/>
<path fill-rule="evenodd" clip-rule="evenodd" d="M17.8823 58.2456C17.8823 58.2456 16.2075 59.1826 16.5179 60.143C16.8341 61.1034 17.7594 60.7462 17.9409 60.2367C18.1224 59.7214 17.8823 58.2456 17.8823 58.2456Z" fill="#F3A04D"/>
<path fill-rule="evenodd" clip-rule="evenodd" d="M15.3282 57.7419C15.3282 57.7419 13.9579 59.083 14.5083 59.9322C15.0588 60.7754 15.8553 60.1957 15.9021 59.6511C15.949 59.1123 15.3282 57.7419 15.3282 57.7419Z" fill="#F3A04D"/>
<path fill-rule="evenodd" clip-rule="evenodd" d="M12.7395 57.9177C12.7395 57.9177 11.7557 59.5692 12.5053 60.2485C13.2607 60.9219 13.8815 60.1489 13.7819 59.616C13.6882 59.0831 12.7395 57.9177 12.7395 57.9177Z" fill="#F3A04D"/>
<path fill-rule="evenodd" clip-rule="evenodd" d="M10.2807 58.761C10.2807 58.761 9.75948 60.6115 10.6613 61.0683C11.5632 61.5251 11.9614 60.6233 11.7272 60.1313C11.4988 59.6394 10.2807 58.761 10.2807 58.761Z" fill="#F3A04D"/>
<path fill-rule="evenodd" clip-rule="evenodd" d="M8.11919 60.2075C8.11919 60.2075 8.09576 62.1283 9.08546 62.3392C10.0752 62.5558 10.2274 61.572 9.87604 61.1621C9.52467 60.7463 8.11919 60.2075 8.11919 60.2075Z" fill="#F3A04D"/>
<path fill-rule="evenodd" clip-rule="evenodd" d="M6.4082 62.175C6.4082 62.175 6.88255 64.0315 7.89567 63.9788C8.90879 63.926 8.79753 62.9422 8.35246 62.6318C7.90739 62.3215 6.4082 62.175 6.4082 62.175Z" fill="#F3A04D"/>
<path fill-rule="evenodd" clip-rule="evenodd" d="M5.2666 64.5059C5.2666 64.5059 6.20945 66.1808 7.16986 65.8704C8.13613 65.56 7.77305 64.6289 7.26356 64.4474C6.75407 64.26 5.2666 64.5059 5.2666 64.5059Z" fill="#F3A04D"/>
<path fill-rule="evenodd" clip-rule="evenodd" d="M2.63741 19.3429C2.40901 20.0925 3.49826 22.8566 4.13073 23.4364C4.76906 24.0162 5.43081 24.1099 5.45423 23.4364C5.47766 22.7629 3.98433 20.643 4.03118 20.0398C4.08388 19.4425 3.0122 19.0208 2.63741 19.3429Z" fill="#DEE9E8"/>
</svg>
