<svg width="40" height="70" viewBox="0 0 40 70" fill="none" xmlns="http://www.w3.org/2000/svg">
<path d="M1.74121 22.1287V66.8129H1.74412C1.81181 68.5758 9.80591 70 19.6611 70C29.5164 70 37.5105 68.5758 37.5782 66.8129H37.5811V22.1287H1.74121Z" fill="#C9C9C9"/>
<path d="M0 13.6509V65.1514H0.00291144C0.0771531 67.1824 8.87481 68.8258 19.7192 68.8258C30.5643 68.8258 39.362 67.1824 39.4362 65.1514H39.4391V13.6509H0Z" fill="#F2F2F2"/>
<path d="M0 12.1218V63.6224H0.00291144C0.0771531 65.6533 8.87481 67.296 19.7192 67.296C30.5643 67.296 39.362 65.6533 39.4362 63.6224H39.4391V12.1218H0Z" fill="#3F3F3F"/>
<path d="M39.4381 41.3464V36.2158C35.9495 36.1284 32.4616 36.041 28.9729 35.9528C31.1179 30.0114 33.2637 24.0701 35.4087 18.1287C28.6425 26.9664 21.8756 35.8042 15.1094 44.642C19.775 44.61 24.4405 44.5764 29.1061 44.5444C25.7798 50.3707 22.4535 56.1962 19.1264 62.0225C25.897 55.132 32.6676 48.2392 39.4381 41.3464Z" fill="#FFD62C"/>
<path d="M39.2048 11.5514C38.0147 8.6536 36.8239 5.75356 35.6339 2.85571H3.97849C2.73676 5.74773 1.49503 8.6383 0.253296 11.531C0.0887989 11.7248 0 11.9208 0 12.1218C0 14.1659 8.82895 15.8217 19.7192 15.8217C30.6102 15.8217 39.4391 14.1659 39.4391 12.1218C39.4391 11.9281 39.3583 11.7379 39.2048 11.5514Z" fill="#4C4C4C"/>
<path d="M31.8398 66.5129V49.0821C34.1595 46.7211 36.4785 44.3602 38.7982 41.997C38.7982 49.509 38.7982 57.0188 38.7982 64.5307C37.6918 65.327 35.204 66.0205 31.8398 66.5129ZM38.7982 36.2013C36.4792 36.1416 34.1588 36.084 31.8398 36.0243V28.0148C33.0299 24.7192 34.2199 21.4243 35.4093 18.1288C34.2199 19.684 33.0299 21.2379 31.8398 22.791V15.0408C35.1996 14.5498 37.6882 13.8585 38.7982 13.0615C38.7982 20.7753 38.7982 28.4883 38.7982 36.2013Z" fill="#343739"/>
<path d="M31.8398 49.082V36.0242C34.1588 36.084 36.4792 36.1415 38.7982 36.2012C38.7982 38.1331 38.7982 40.065 38.7982 41.9969C36.4785 44.3601 34.1595 46.7211 31.8398 49.082ZM31.8398 28.0147V22.7909C33.0299 21.2378 34.2199 19.6839 35.4093 18.1287C34.2199 21.4243 33.0299 24.7191 31.8398 28.0147Z" fill="#D1BB28"/>
<path d="M31.8407 15.0408C30.7125 11.7642 29.5843 8.48896 28.4562 5.21231C28.2407 4.42775 28.026 3.64027 27.8105 2.85571H34.8148C36.1431 6.25693 37.4714 9.66034 38.7991 13.0616C37.6891 13.8585 35.2005 14.5498 31.8407 15.0408Z" fill="#3E4244"/>
<path d="M7.41978 66.4865C5.82868 66.2483 4.43919 65.965 3.30664 65.6459C3.34303 48.4985 3.37943 31.3503 3.41582 14.2051C4.62261 14.5365 6.1089 14.8294 7.81137 15.072C7.68108 32.2106 7.55007 49.3486 7.41978 66.4865Z" fill="#A5A5A5"/>
<path d="M7.81157 15.072C6.1091 14.8294 4.62281 14.5366 3.41602 14.2051C4.49616 10.9226 5.57558 7.64235 6.65572 4.3606C7.48621 4.50046 8.3167 4.63814 9.14719 4.77582C8.70174 8.20764 8.25702 11.6387 7.81157 15.0705" fill="#ABABAB"/>
<path d="M10.2148 49.203V33.4819H14.6512V35.2798H12.0112V40.4665H14.2348V42.2192H12.0112V47.4052H14.6512V49.203H10.2148Z" fill="#FF7F00"/>
<path d="M19.8854 41.8149H19.9291V33.4819H21.6927V49.203H19.9291L18.1328 40.8708H18.0884V49.203H16.292V33.4819H18.0884L19.8854 41.8149Z" fill="#FF7F00"/>
<path d="M23.4902 49.203V33.4819H27.9258V35.2798H25.2866V40.4665H27.5095V42.2192H25.2866V47.4052H27.9258V49.203H23.4902Z" fill="#FF7F00"/>
<path d="M32.8212 36.4752C32.8212 36.0877 32.7593 35.789 32.6348 35.5763C32.5111 35.3643 32.3102 35.2594 32.0322 35.2594H31.3647V41.2773H32.0322C32.3102 41.2773 32.5111 41.1695 32.6348 40.9531C32.7593 40.7382 32.8212 40.433 32.8212 40.0389V36.4752ZM33.3358 49.203L31.4521 43.0526H31.3647V49.203H29.5684V33.4819H32.0322C32.9456 33.4819 33.608 33.7376 34.0207 34.2505C34.4334 34.7619 34.6394 35.5042 34.6394 36.4752V40.0389C34.6394 40.7404 34.5302 41.3261 34.3111 41.7981C34.092 42.2695 33.7521 42.6111 33.2921 42.8238L35.1984 49.203H33.3358Z" fill="#FF7F00"/>
<path d="M39.4396 47.4C39.3115 47.5697 39.1186 47.6571 38.858 47.6571C38.5807 47.6571 38.3798 47.5661 38.2553 47.3832C38.1316 47.2004 38.069 46.9447 38.069 46.6169V36.0482C38.069 35.7182 38.1316 35.4684 38.2553 35.2965C38.3798 35.1253 38.5807 35.0393 38.858 35.0393C39.1149 35.0393 39.3085 35.1216 39.4396 35.2819V33.3238C39.2583 33.2997 39.0654 33.2844 38.858 33.2844C37.9453 33.2844 37.2844 33.5197 36.8753 33.9874C36.4662 34.4536 36.2617 35.142 36.2617 36.0482V46.6169C36.2617 47.5231 36.4662 48.2129 36.8753 48.6886C37.2844 49.1621 37.9453 49.4011 38.858 49.4011C39.0654 49.4011 39.2583 49.3858 39.4396 49.3617V47.4Z" fill="#FF7F00"/>
<path d="M38.8574 42.219H39.439V40.4663H38.8574V42.219Z" fill="#FF7F00"/>
<path d="M19.6814 4.58073C13.9487 4.58073 8.91922 4.15312 6.06819 3.51207H33.2945C30.4435 4.15312 25.4133 4.58073 19.6814 4.58073ZM3.58691 2.22705V3.51207C3.58691 4.77596 10.7927 5.80165 19.6814 5.80165C28.57 5.80165 35.7758 4.77596 35.7758 3.51207V2.22705H3.58691Z" fill="#C4C4C4"/>
<path d="M35.1957 2.90003C35.5735 2.70626 35.7758 2.50083 35.7758 2.29031C35.7758 1.02568 28.57 0 19.6814 0C10.7927 0 3.58691 1.02568 3.58691 2.29031C3.58691 2.50083 3.78926 2.70626 4.16629 2.90003C6.0449 1.9319 12.279 1.22164 19.6814 1.22164C27.0837 1.22164 33.3178 1.9319 35.1957 2.90003Z" fill="#AAAAAA"/>
<path d="M35.1974 2.90007C33.3195 1.93194 27.0854 1.22168 19.683 1.22168C12.2807 1.22168 6.04658 1.93194 4.16797 2.90007C6.04658 3.86966 12.2807 4.58065 19.683 4.58065C27.0854 4.58065 33.3195 3.86966 35.1974 2.90007Z" fill="#F2F2F2"/>
<path d="M25.6061 3.51929C24.1751 3.72472 23.0243 3.84929 20.348 3.39982C17.5865 2.93725 14.8825 2.39308 14.694 1.55388C14.5986 1.12846 14.7777 0.908461 14.7777 0.908461C14.9393 0.711046 15.2275 0.699391 15.36 0.695749C16.2057 0.678994 17.0493 0.77588 17.89 0.872766C19.6413 1.07601 21.3925 1.27925 23.1437 1.48104C24.2697 1.61143 25.3957 1.74183 26.5217 1.87223C26.7124 1.89335 26.9111 1.91885 27.0676 2.02957C28.0611 2.7289 26.0391 3.45737 25.6061 3.51929Z" fill="#F2F2F2"/>
<path d="M21.3634 2.94667C20.3152 2.83886 15.3396 2.59409 14.7842 0.902588L14.7777 0.908416C14.7777 0.908416 14.5986 1.12841 14.694 1.55384C14.8825 2.39303 17.5865 2.9372 20.348 3.39978C23.0243 3.84924 24.1751 3.72468 25.6061 3.51925C25.847 3.48574 26.5807 3.24316 27.0123 2.91535C25.4241 3.51561 22.3547 3.0472 21.3634 2.94667Z" fill="#C4C4C4"/>
</svg>
