<svg width="59" height="120" viewBox="0 0 59 120" fill="none" xmlns="http://www.w3.org/2000/svg">
<path fill-rule="evenodd" clip-rule="evenodd" d="M28.217 5.37996C27.011 5.37996 26.0188 6.36358 26.0188 7.57814C26.0188 8.78414 27.011 9.76776 28.217 9.76776C29.423 9.76776 30.4066 8.78414 30.4066 7.57814C30.4066 6.36358 29.423 5.37996 28.217 5.37996ZM59 55.707V112.671C59 116.7 55.6985 119.993 51.6699 119.993H7.32154C3.29298 119.993 0 116.7 0 112.671V55.707C0 45.4432 23.8805 42.5351 24.3082 30.8429C24.5819 23.5555 20.2027 16.2853 20.2027 8.69005H20.2112C20.2112 8.57886 20.2027 8.45056 20.2027 8.33937C20.2027 3.7292 23.9404 0 28.5506 0C33.1522 0 36.8814 3.7292 36.8814 8.33937C36.8814 8.65584 36.8729 8.96376 36.8386 9.27167C36.5992 16.6616 32.6818 23.7437 32.9384 30.8429C33.3832 42.8515 59 45.4517 59 55.707Z" fill="#9D5743"/>
<path fill-rule="evenodd" clip-rule="evenodd" d="M55.709 57.6746V108.07C55.709 111.628 52.7923 114.545 49.2342 114.545H9.98356C6.42543 114.545 3.50879 111.628 3.50879 108.07V57.6746C3.50879 51.7729 12.6094 48.6253 19.0671 44.3059C24.4727 40.6965 25.9609 35.3251 28.6467 29.6458C32.4015 35.9751 34.7793 41.6716 41.3396 45.5462C47.8315 49.3694 55.7346 52.3117 55.709 57.6746Z" fill="#AD6951"/>
<path fill-rule="evenodd" clip-rule="evenodd" d="M36.5309 64.2349C36.5309 64.2349 37.2836 64.8935 37.0355 65.5606C36.7875 66.2363 23.53 73.2328 23.1964 72.8223C22.8543 72.3946 36.5309 64.2349 36.5309 64.2349ZM27.1993 90.3307C27.1993 90.3307 19.3646 95.4113 20.4423 96.0015C21.5286 96.5745 30.6976 90.3307 30.364 89.826C30.0304 89.33 28.4481 89.4069 27.1993 90.3307ZM36.0348 70.5642C36.0348 70.5642 31.5102 73.823 27.2934 76.9877C25.8993 75.3284 24.7446 74.0283 24.3682 73.7375C23.1964 72.8223 23.3675 74.9862 23.3675 74.9862C23.3675 74.9862 24.3853 76.3376 25.7881 78.1253C22.6576 80.5031 20.0403 82.5986 20.1087 82.9065C20.1772 83.223 23.1109 81.384 26.5236 79.0661C29.3462 82.6328 33.1011 87.2173 33.6142 86.9094C34.4439 86.4133 35.0341 87.243 34.5294 86.1567C34.2301 85.4981 30.9114 81.3156 28.1231 77.9713C32.4681 74.9691 36.9842 71.6334 37.1211 71.1544C37.3691 70.2392 37.0355 69.8201 36.0348 70.5642Z" fill="#9D5743"/>
</svg>
