<svg width="94" height="84" viewBox="0 0 94 84" fill="none" xmlns="http://www.w3.org/2000/svg">
<path d="M3.41315e-05 35.7245C3.41315e-05 35.7245 7.03422 32.4005 9.19188 33.1211C11.3512 33.8417 15.3809 39.4546 17.253 43.1946C19.1234 46.9379 21.7136 47.6577 21.7136 47.6577C21.7136 47.6577 21.2827 53.2706 23.2976 57.732C25.3116 62.1926 28.3344 70.1093 28.3344 70.1093C28.3344 70.1093 17.253 70.6854 12.3582 62.4815C7.46592 54.2784 9.48078 44.4913 7.17701 40.8933C4.8749 37.2952 1.70856 38.3023 0.845996 37.7269C-0.0190601 37.1508 3.41315e-05 35.7245 3.41315e-05 35.7245Z" fill="#E6A500"/>
<path d="M16.9242 53.6341C16.5432 53.6341 16.0907 53.488 15.5918 53.1817C13.0007 51.5985 9.68913 39.5093 7.38785 37.35C6.60996 36.6211 5.67019 36.3811 4.76694 36.3811C3.60717 36.3811 2.50634 36.7788 1.8837 37.0528C1.82143 37.0802 1.75585 37.0934 1.69192 37.0934C1.47774 37.0934 1.27766 36.9465 1.22619 36.719L1.09668 36.2624C1.09668 36.2624 4.4249 34.6643 7.4003 34.6643C7.72822 34.6643 8.04868 34.6834 8.36083 34.7257C11.528 35.1574 13.1726 41.1655 16.3398 46.634C18.8943 51.0497 18.524 53.6341 16.9242 53.6341Z" fill="#F6CF6A"/>
<path d="M23.3673 41.193C23.0801 40.7596 14.9492 33.4083 16.5324 30.3856C18.1155 27.3637 23.1523 32.5449 24.4491 33.5528C25.7433 34.5598 27.3265 33.6972 28.3343 34.2734C29.8386 35.1318 29.4858 35.4248 29.4858 35.4248L23.3673 41.193Z" fill="#EDBD0E"/>
<path d="M25.888 38.5894C25.888 38.5894 20.1307 32.6893 20.2751 31.6823C20.4196 30.6753 24.4493 35.4248 25.888 35.2803C27.3268 35.1359 28.0474 36.5746 28.0474 36.5746L25.888 38.5894Z" fill="#D99100"/>
<path d="M20.6426 32.5282L24.3851 26.4836L25.1762 27.2748L21.5334 33.7395L20.6426 32.5282Z" fill="#A7A49F"/>
<path d="M85.6459 40.2557C85.9348 39.824 94.03 32.5449 92.4468 29.5231C90.8628 26.5012 85.8261 31.6824 84.5302 32.6894C83.2359 33.6972 81.6519 32.8338 80.6449 33.4083C79.1406 34.2684 79.4295 34.6196 79.4295 34.6196L85.6459 40.2557Z" fill="#EDBD0E"/>
<path d="M83.091 37.7269C83.091 37.7269 88.8483 31.8268 88.7039 30.8173C88.5586 29.8103 84.5297 34.5598 83.091 34.4153C81.6514 34.2734 80.9316 35.7121 80.9316 35.7121L83.091 37.7269Z" fill="#D99100"/>
<path d="M88.1931 31.9413L84.5976 25.6128L83.4727 26.2861L87.2749 33.1019L88.1931 31.9413Z" fill="#A7A49F"/>
<path d="M90.4004 35.0322C90.4004 35.0322 93.2928 33.1169 93.8839 31.1062C94.6045 28.6605 91.7245 25.3489 91.7245 25.3489L90.5722 26.5012C90.5722 26.5012 92.3007 28.6605 92.5871 30.2437C92.876 31.8268 90.4004 35.0322 90.4004 35.0322Z" fill="#A7A49F"/>
<path d="M32.8438 33.1702C32.8438 33.1702 33.6108 29.9075 34.9541 28.947C36.2973 27.989 44.7412 26.0696 55.1036 26.0696C65.4668 26.0696 74.2934 27.7955 75.6366 29.9075C76.9799 32.0179 76.9774 33.1702 76.9774 33.1702C76.9774 33.1702 74.0958 37.967 54.9085 38.1579C35.7212 38.3497 32.8438 33.1702 32.8438 33.1702Z" fill="#EDC387"/>
<path d="M32.8438 33.1702C32.8438 33.1702 33.6108 29.9075 34.9541 28.947C36.2973 27.989 44.7412 26.0696 55.1036 26.0696C65.4668 26.0696 74.2934 27.7955 75.6366 29.9075C76.9799 32.0179 76.9774 33.1702 76.9774 33.1702C76.9774 33.1702 74.0958 37.967 54.9085 38.1579C35.7212 38.3497 32.8438 33.1702 32.8438 33.1702Z" fill="#FEB900"/>
<path d="M88.6356 48.3294C88.4439 38.1579 76.9781 33.1702 76.9781 33.1702C71.391 38.1961 57.6381 38.065 55.013 38.0218L54.9134 38.1579C54.9134 38.1579 38.2175 37.7752 32.8445 33.1702C32.8445 33.1702 20.9471 38.1579 20.7561 48.3294C20.5627 58.4992 29.1975 74.2346 32.8445 76.9211C36.4425 79.5735 43.5946 83.3434 54.4775 83.4414V83.4455C54.5498 83.4455 54.622 83.4439 54.6942 83.4439C54.7689 83.4439 54.8387 83.4455 54.9134 83.4455V83.4414C65.7972 83.3434 72.9484 79.5735 76.5464 76.9211C80.1918 74.2346 88.8291 58.4992 88.6356 48.3294Z" fill="#FEC326"/>
<path d="M43.013 27.7956C41.2148 28.0778 35.8186 28.6606 35.3853 30.0993C34.9536 31.538 42.7258 34.8488 55.3903 34.8488C67.1923 34.8488 74.2455 33.2657 74.2455 30.9619C74.2455 27.9359 58.8422 27.5872 54.9586 27.3639C51.2502 27.1513 45.839 27.3556 43.013 27.7956Z" fill="#D99100"/>
<path d="M38.5352 32.3798C38.5352 32.3798 39.7041 26.165 45.6034 24.9537C51.2993 23.7848 62.731 23.8936 66.329 26.165C69.9271 28.4347 70.6477 33.4291 70.6477 33.4291C70.6477 33.4291 70.1678 33.591 69.3916 33.7396C67.0604 34.1904 61.5986 35.0065 54.8127 34.7765C43.0281 34.3772 38.5352 32.3798 38.5352 32.3798Z" fill="#FEB900"/>
<path d="M51.0753 25.9252C51.0753 25.9252 49.2024 22.9033 49.3468 21.4638C49.4921 20.025 50.0674 19.4497 51.3617 19.0155C52.6584 18.5847 56.9156 18.3506 58.7072 19.2472C60.4348 20.1106 60.4307 21.1749 60.1417 22.1827C59.8545 23.1897 58.703 26.0696 58.703 26.0696C58.703 26.0696 57.9824 27.3639 54.9597 27.3639C51.9378 27.3639 51.0753 25.9252 51.0753 25.9252Z" fill="#C47A29"/>
<path d="M53.3762 61.4746C31.6302 61.7294 23.193 53.8236 20.8594 50.7568C21.8564 60.8345 29.4776 74.4413 32.844 76.921C36.442 79.5735 43.5941 83.3434 54.477 83.4413V83.4455C54.5492 83.4455 54.6215 83.4438 54.6937 83.4438C54.7684 83.4438 54.8381 83.4455 54.9129 83.4455V83.4413C65.7966 83.3434 72.9479 79.5735 76.5459 76.921C79.8509 74.4853 87.2578 61.3235 88.4691 51.3073C85.5211 53.3794 77.8443 61.1857 53.3762 61.4746Z" fill="#FEB900"/>
<path d="M50.0667 49.0972L58.2706 49.528C58.2706 49.528 60.5719 56.4377 60.5719 58.4526C60.5719 60.4674 49.0597 59.4596 48.1946 59.0279C47.3321 58.5945 50.0667 49.0972 50.0667 49.0972Z" fill="#FFE7A6"/>
<path d="M63.0396 58.3655C62.5374 58.3655 62.1912 58.2634 62.1555 58.0209C62.0127 57.0114 59.5645 49.6726 59.5645 49.6726C59.5645 49.6726 61.8641 49.2458 63.2538 49.2458C63.6706 49.2458 64.0043 49.284 64.1695 49.3837C64.8901 49.8154 67.1922 55.8616 67.4811 56.7242C67.7003 57.3792 64.6095 58.3655 63.0396 58.3655Z" fill="#FFDA78"/>
<path d="M51.316 35.5734C50.47 35.5734 49.9769 36.9299 51.3982 37.159C52.9456 37.4081 61.0026 37.7219 61.9017 36.9723C62.6713 36.3305 62.3624 35.4738 60.2031 35.5734C58.0446 35.6755 53.364 35.5734 51.316 35.5734Z" fill="#FFE7A6"/>
<path d="M18.6124 35.8731C18.6124 35.8731 15.6844 33.9794 15.0933 31.9695C14.3727 29.5229 17.2526 26.2122 17.2526 26.2122L18.4024 27.3636C18.4024 27.3636 16.6764 29.5229 16.3875 31.1061C16.1003 32.6893 18.6124 35.8731 18.6124 35.8731Z" fill="#A7A49F"/>
<path d="M23.2343 26.9727C24.0653 27.3173 24.952 27.7232 24.952 27.7232C24.952 27.7232 28.4778 22.1826 30.061 18.1528C31.6441 14.1231 36.392 7.50317 39.5591 5.92C42.7255 4.33601 51.5047 2.17669 59.4214 3.04174C67.3364 3.90514 72.8049 6.92702 74.2452 8.65464C75.6848 10.3806 79.5692 18.5845 79.8581 19.5915C80.1454 20.5994 81.78 25.5789 82.4981 26.5884C82.9464 27.2127 84.3113 26.7436 85.2818 26.297C85.8621 26.0313 86.1194 25.3447 85.8413 24.7669C84.9464 22.8982 83.027 18.9158 82.1603 17.2903C81.0104 15.1309 79.2828 8.65464 74.9642 5.77555C70.6472 2.89729 64.459 -0.269048 54.5274 0.0181969C44.5959 0.307102 37.9751 2.89729 35.2422 5.34385C32.5075 7.78959 26.3185 19.736 25.0242 21.1747C24.2314 22.0572 23.2219 23.8529 22.5586 25.1156C22.1933 25.8121 22.5054 26.673 23.2343 26.9727Z" fill="#DBA455"/>
<path d="M59.4221 28.7477C55.1035 30.1581 50.354 28.2778 46.1798 28.5924C42.82 28.8431 41.3257 31.738 40.7969 33.102C44.2588 34.0692 49.2465 34.8487 55.3908 34.8487C61.4262 34.8487 66.2147 34.4344 69.4583 33.7205C69.4583 33.7205 69.2416 32.4287 68.3932 31.4806C66.7311 29.6227 63.7391 27.3363 59.4221 28.7477Z" fill="#FEC326"/>
<path d="M50.6701 20.894C50.0434 21.6661 52.8162 22.8408 55.0137 22.8408C57.2095 22.8408 59.4577 21.8446 59.158 21.0941C58.8774 20.3926 56.5122 21.2942 55.0627 21.2942C53.6157 21.2942 51.3185 20.0954 50.6701 20.894Z" fill="#D99100"/>
<path d="M41.8606 43.8455C38.9317 43.8455 34.2628 41.3035 35.1403 39.7693C35.5462 39.0595 36.4113 38.7656 37.4482 38.7656C40.4892 38.7656 45.0203 41.2778 43.8282 43.0652C43.4604 43.6181 42.7382 43.8455 41.8606 43.8455Z" fill="#FFDA78"/>
<path d="M28.9497 62.988C26.6327 62.988 26.6352 59.3916 28.9497 59.3916C31.266 59.3916 31.2618 62.988 28.9497 62.988Z" fill="#FFD66A"/>
<path d="M39.5826 66.8815C37.2655 66.8815 37.2705 63.2876 39.5826 63.2876C41.8988 63.2876 41.8972 66.8815 39.5826 66.8815Z" fill="#FFD66A"/>
<path d="M53.5152 68.8283C51.1981 68.8283 51.2006 65.2344 53.5152 65.2344C55.8314 65.2344 55.8273 68.8283 53.5152 68.8283Z" fill="#FFD66A"/>
<path d="M68.4934 67.1813C66.1772 67.1813 66.1814 63.5874 68.4934 63.5874C70.8105 63.5874 70.808 67.1813 68.4934 67.1813Z" fill="#FFD66A"/>
<path d="M80.3261 63.4362C78.009 63.4362 78.0132 59.8423 80.3261 59.8423C82.6423 59.8423 82.6398 63.4362 80.3261 63.4362Z" fill="#FFD66A"/>
</svg>
