<svg width="87" height="60" viewBox="0 0 87 60" fill="none" xmlns="http://www.w3.org/2000/svg">
<path d="M64.0504 29.5571C64.8656 25.8572 65.5662 22.6648 65.5662 20.4449C65.5662 15.9276 68.5911 12.2489 72.31 12.2489C74.7892 12.2489 77.4301 13.4258 78.8651 15.1806C79.9363 16.4702 80.327 17.9854 80.0575 19.7966C79.3636 24.5464 77.1269 26.118 72.1348 29.247C68.9684 31.2202 64.495 33.7502 62.7299 35.801C61.5779 37.14 60.6953 36.6044 60.0149 37.14C60.2844 34.5395 63.5182 32.0095 64.0504 29.5571ZM59.7185 43.4684C63.3767 38.8102 67.5738 37.1822 74.2368 33.0243C79.3636 29.8178 83.1162 27.3583 84.1065 20.5506C85.2518 12.6506 78.2924 8.0769 72.31 8.0769C66.3275 8.0769 61.4768 13.6584 61.4768 20.5506C61.4768 25.6951 57.0102 46.9216 59.7185 43.4684Z" fill="#EF3028"/>
<path d="M27.5433 50.7692H56.6867C56.6867 50.7692 57.7518 45.6431 58.8994 42.8476C60.6861 38.4845 67.6266 28.6275 69.4477 24.2713C74.0724 13.2074 72.3957 0 72.3957 0H11.8343C11.8343 0 10.1576 13.2074 14.7823 24.2713C16.5965 28.6275 23.5439 38.4845 25.3375 42.8476C26.4782 45.6431 27.5433 50.7692 27.5433 50.7692Z" fill="#EF3028"/>
<path d="M63.8107 60C77.3436 58.0106 86.5385 54.1069 86.5385 49.6154H0C0 54.1069 9.19488 58.0106 22.7347 60H63.8107Z" fill="#96321E"/>
<path d="M54.2302 23.0734C54.2302 16.7023 49.0664 11.5385 42.6883 11.5385C36.3172 11.5385 31.1533 16.7023 31.1533 23.0734C31.1533 29.4445 36.3172 34.6154 42.6883 34.6154C49.0664 34.6154 54.2302 29.4445 54.2302 23.0734Z" fill="#FFFBFD"/>
</svg>
