<svg width="130" height="100" viewBox="0 0 130 100" fill="none" xmlns="http://www.w3.org/2000/svg">
<path d="M11.8987 51.1998C12.2294 53.8389 11.1135 57.0583 11.1135 57.0583C11.1135 57.0583 9.22262 55.2764 5.05865 54.4491C3.92897 54.2283 2.97495 53.9101 2.20346 53.5132C0.161082 47.7071 8.22382 49.927 11.8987 51.1998Z" fill="#161717"/>
<path d="M0.517501 48.5531C2.02948 45.5359 6.32088 46.4942 9.982 48.1413C11.2047 48.6916 11.7351 49.8708 11.9004 51.1998C8.22549 49.927 0.162754 47.7071 2.20513 53.5133C0.124869 52.4389 -0.58807 50.7543 0.517501 48.5531Z" fill="#1C1C1D"/>
<path d="M5.82346 54.6176C7.39399 54.9956 8.596 55.5048 9.45703 55.9577C8.596 55.5048 7.39399 54.9994 5.82346 54.6176Z" fill="#BBBDBB"/>
<path d="M6.67416 49.8409C6.86359 49.8709 7.05302 49.9008 7.24589 49.9345C7.24934 49.9345 7.25278 49.9383 7.25967 49.9383C7.25967 49.9383 7.25967 49.9383 7.26311 49.9383C7.57653 49.9944 7.89339 50.0581 8.20681 50.1292C8.54089 51.694 8.97141 53.6967 9.45703 55.9578C8.596 55.5049 7.39399 54.9957 5.82346 54.6176C5.17252 52.5213 4.79711 50.1517 6.31942 49.927C6.45718 49.9046 6.57084 49.8746 6.67416 49.8409Z" fill="#121213"/>
<path d="M7.24514 49.9344C7.24858 49.9344 7.25547 49.9382 7.25892 49.9382C7.25203 49.9382 7.24858 49.9344 7.24514 49.9344Z" fill="#121213"/>
<path d="M5.27853 46.6776C6.02247 46.7787 6.80085 46.9659 7.57922 47.2167C7.7101 47.8156 7.92363 48.8189 8.20605 50.1291C7.89264 50.058 7.57578 49.9944 7.26236 49.9382H7.25892C7.25547 49.9382 7.24858 49.9345 7.24514 49.9345C7.05227 49.9008 6.86284 49.8708 6.67341 49.8409C8.10617 49.3654 6.35655 47.6097 5.27853 46.6776Z" fill="#161717"/>
<path d="M125.951 50.0617L124.305 48.3397L118.071 48.0552L115.698 48.3135L116.738 52.1206L121.343 52.8731L125.951 50.0617Z" fill="#7D8386"/>
<path d="M114.594 40.6432L114.112 40.6694L114.091 40.6432H114.594Z" fill="#EF2D4B"/>
<path d="M16.1828 87.2272L16.1793 87.2159L7.44496 46.5803L114.11 40.6693L118.519 45.9476L109.781 87.2159V87.2272H109.777C108.506 94.1152 88.0413 99.5882 62.9783 99.5882C37.9222 99.5882 17.4536 94.1152 16.1828 87.2272Z" fill="#B82030"/>
<path d="M7.4453 46.584L7.58008 47.2129C7.49714 46.8198 7.44876 46.599 7.4453 46.584Z" fill="#F29199"/>
<path d="M7.57797 47.213L7.58203 47.2171C7.57797 47.2171 7.57797 47.2171 7.57797 47.2171V47.213Z" fill="#1B1314"/>
<path d="M9.45816 55.9578C9.45816 55.9615 9.46161 55.9615 9.46161 55.9615L16.1811 87.216L16.1846 87.2234C16.1846 87.2272 16.1846 87.2272 16.1846 87.2272C15.2547 82.9708 11.7347 66.5818 9.45816 55.9578Z" fill="#F29199"/>
<path d="M8.20825 50.1292L9.46191 55.9615C9.46191 55.9615 9.45847 55.9615 9.45847 55.9578C8.97285 53.6967 8.54233 51.6939 8.20825 50.1292Z" fill="#110E0E"/>
<path d="M7.57922 47.2167C7.57922 47.2167 7.57922 47.2167 7.58266 47.2167L8.20605 50.1291C7.92363 48.8189 7.7101 47.8156 7.57922 47.2167Z" fill="#151010"/>
<path d="M7.44475 46.5841C7.49641 46.8124 16.0241 85.4079 16.1825 87.2235L16.1791 87.216L9.45957 55.9615L8.2059 50.1292L7.58251 47.2167L7.57907 47.213L7.44475 46.5803V46.5841ZM13.8819 50.4024C18.5177 52.5063 25.7917 54.8272 36.1723 55.5123C35.6626 55.4861 34.8395 55.4524 33.82 55.4524C28.5918 55.4524 18.1801 56.3022 18.559 63.0929C19.0653 72.1447 20.9561 93.9543 39.1309 97.5218C36.4995 97.2523 28.1716 95.7062 22.2856 92.8761C19.9125 91.0306 14.5776 74.9635 11.9979 62.4078C10.0003 52.6822 12.5214 50.7618 13.8819 50.4024ZM36.1723 55.5123C36.5305 55.531 36.7303 55.5497 36.7303 55.5497C36.5443 55.5385 36.3549 55.5273 36.1723 55.5123ZM16.3823 87.8748C17.2123 89.5519 20.4223 91.7269 22.258 92.8649C19.42 91.4985 17.1572 89.8327 16.3823 87.8748Z" fill="#AD1C26"/>
<path d="M107.712 90.4503C102.225 95.957 84.0851 100 62.5454 100C59.8934 100 57.3 99.9363 54.7686 99.8165C56.3425 99.7716 57.8786 99.6818 59.3734 99.5508C60.565 99.5732 61.7671 99.5882 62.9794 99.5882C72.1098 99.5882 80.6306 98.862 87.8358 97.6041C87.3674 97.7277 86.8886 97.8362 86.3961 97.9336C89.489 97.6191 100.462 95.5302 106.073 91.6782C106.689 91.2814 107.237 90.8658 107.712 90.4503Z" fill="#F18A94"/>
<path d="M117.942 46.9846L118.083 46.9921C118.083 46.9921 109.645 54.5877 89.3554 55.9241C88.9972 55.9428 88.794 55.9615 88.794 55.9615C88.9835 55.9503 89.1694 55.9353 89.3554 55.9241C89.8652 55.8979 90.6849 55.8642 91.7043 55.8642C96.9325 55.8642 107.348 56.714 106.965 63.5047C106.476 72.3131 104.672 93.1981 87.8366 97.6042C80.6314 98.862 72.1106 99.5882 62.9802 99.5882C61.7678 99.5882 60.5658 99.5732 59.3742 99.5508C83.831 97.3945 97.7247 84.0527 95.1037 71.3248C92.3174 57.7809 65.7286 57.6049 64.3682 57.6049C64.3303 57.6049 64.3131 57.6049 64.3131 57.6049V57.1894C88.5185 57.0434 109.159 52.8731 117.942 46.9846ZM109.345 87.639C109.166 88.6085 108.608 89.5482 107.713 90.4503C107.237 90.8659 106.69 91.2814 106.073 91.6782C107.795 90.499 109.015 89.1514 109.345 87.639Z" fill="#AC1C25"/>
<path d="M118.083 46.9921C118.083 46.9921 116.94 52.3228 115.472 59.1697C115.469 59.1697 115.469 59.1659 115.465 59.1659L118.083 46.9921ZM114.432 63.9763C114.436 63.98 114.436 63.98 114.439 63.98C112.38 73.5821 110.072 84.311 109.345 87.6389V87.6277L114.432 63.9763Z" fill="#A11B24"/>
<path d="M106.071 91.6782C100.461 95.5303 89.4877 97.6192 86.3949 97.9336C86.8874 97.8363 87.3662 97.7277 87.8346 97.6042C95.887 96.2004 102.293 94.134 106.071 91.6782Z" fill="#D45B61"/>
<path d="M118.083 46.9921L115.465 59.1659C114.656 58.7429 113.416 58.1028 111.629 57.1931C111.043 57.0171 110.54 56.946 110.106 56.946C107.823 56.946 107.465 58.9787 107.465 58.9787C107.465 58.9787 107.024 62.8196 106.962 65.0844C106.9 67.3455 107.151 68.7193 108.791 68.8541C108.835 68.8578 108.877 68.8578 108.922 68.8578C110.437 68.8578 110.682 66.5481 110.685 66.5219C110.685 66.5219 110.626 65.3951 110.626 64.3619C110.626 63.8415 110.64 63.3437 110.685 63.0255C110.719 62.7634 110.781 62.5688 110.854 62.4228C110.93 62.2693 111.016 62.1757 111.095 62.112H111.091C111.215 62.011 111.315 61.996 111.315 61.996C111.315 61.996 112.803 62.9768 114.432 63.9763L109.345 87.6277V87.6389C109.015 89.1513 107.795 90.499 106.073 91.6782C102.295 94.1339 95.889 96.2003 87.8365 97.6041C104.672 93.198 106.476 72.3131 106.965 63.5046C107.348 56.7139 96.9325 55.8642 91.7043 55.8642C90.6849 55.8642 89.8651 55.8978 89.3554 55.924C109.645 54.5876 118.083 46.9921 118.083 46.9921ZM89.3554 55.924C89.1694 55.9353 88.9834 55.9503 88.794 55.9615C88.794 55.9615 88.9972 55.9428 89.3554 55.924Z" fill="#961A1F"/>
<path d="M3.50273 40.643C3.50273 49.7846 30.1328 57.193 62.9796 57.193C95.8333 57.193 122.46 49.7846 122.46 40.643C122.46 31.5051 95.8333 24.093 62.9796 24.093C30.1328 24.093 3.50273 31.5051 3.50273 40.643Z" fill="#BDC1C0"/>
<path d="M4.48742 40.3697C4.48742 49.3579 30.6767 56.6465 62.9793 56.6465C95.2854 56.6465 121.475 49.3579 121.475 40.3697C121.475 31.3779 95.2854 24.093 62.9793 24.093C30.6767 24.093 4.48742 31.3779 4.48742 40.3697Z" fill="#A4A9AA"/>
<path d="M120.989 64.5116C120.989 64.5116 119.432 66.1101 118.423 66.0652C117.414 66.0202 111.314 61.996 111.314 61.996C111.314 61.996 110.808 62.0634 110.684 63.0254C110.556 63.9838 110.684 66.5219 110.684 66.5219C110.684 66.5219 110.432 68.9926 108.789 68.8541C107.15 68.7193 106.899 67.3454 106.961 65.0844C107.023 62.8195 107.463 58.9787 107.463 58.9787C107.463 58.9787 107.97 56.0962 111.627 57.1931C115.416 59.1135 116.739 59.8472 116.739 59.8472C116.739 59.8472 120.19 60.0756 120.989 61.0339C121.788 61.996 120.989 64.5116 120.989 64.5116Z" fill="#A4A9AA"/>
<path d="M109.125 60.7606L111.092 62.112C110.937 62.2356 110.751 62.4901 110.682 63.0254C110.555 63.9838 110.682 66.5219 110.682 66.5219C110.682 66.5219 110.489 68.3749 109.37 68.7792C108.25 66.155 109.125 60.7606 109.125 60.7606Z" fill="#7C7F80"/>
<path d="M16.1824 87.2272C16.21 87.3807 16.248 87.5304 16.293 87.6801C16.2342 87.5267 16.1962 87.3732 16.1824 87.2272Z" fill="#E09A98"/>
<path d="M7.45396 46.5878C7.6055 46.7188 10.5916 49.2681 14.6488 50.335C14.6488 50.335 14.5833 50.3275 14.4662 50.3275C14.3285 50.3275 14.1253 50.3388 13.8842 50.4024C9.58932 48.452 7.56761 46.6888 7.45396 46.5878ZM16.1849 87.2272C16.2331 87.448 16.2985 87.6614 16.3846 87.8748C16.3502 87.8074 16.3226 87.7438 16.2951 87.6801C16.2503 87.5304 16.2124 87.3806 16.1849 87.2272ZM22.2603 92.8649C22.2707 92.8686 22.281 92.8723 22.2879 92.8761C22.2982 92.8836 22.3085 92.8911 22.3154 92.8986C22.2982 92.8873 22.2775 92.8761 22.2603 92.8649Z" fill="#A11B24"/>
<path d="M7.4463 46.584C7.4463 46.584 7.44975 46.584 7.45319 46.5877C7.56685 46.6888 9.58856 48.452 13.8834 50.4024C12.523 50.7617 10.0019 52.6821 11.9995 62.4077C14.5791 74.9634 19.9141 91.0305 22.2871 92.8761C22.2802 92.8723 22.2699 92.8686 22.2596 92.8648C20.4238 91.7268 17.2139 89.5518 16.3838 87.8747C16.2977 87.6614 16.2323 87.448 16.1841 87.2271V87.2234C16.0257 85.4078 7.49796 46.8123 7.4463 46.584Z" fill="#971A1F"/>
<path d="M7.44513 46.5803C7.44513 46.5803 7.44864 46.5838 7.45215 46.5873C7.44864 46.5838 7.44513 46.5838 7.44513 46.5838V46.5803Z" fill="#A67777"/>
<path d="M22.3137 92.8986C22.369 92.9323 22.4208 92.9622 22.4727 92.9959C22.4208 92.9697 22.369 92.9397 22.3137 92.8986Z" fill="#A11B24"/>
<path d="M116.738 59.8473C116.738 59.8473 119.094 60.3939 119.094 62.4977C119.094 64.6015 119.263 65.8818 118.422 66.0653C118.254 66.2487 120.189 66.0653 121.536 65.515C122.883 64.9684 127.76 61.6779 129.024 52.3491C129.23 50.8105 127.66 49.2607 126.513 48.7216C123.73 47.4002 121.054 49.2008 120 52.0159C119.404 53.6106 118.97 55.269 118.323 56.845C117.985 57.6649 117.475 59.312 116.738 59.8473Z" fill="#3C3E42"/>
<path d="M124.636 48.2798C125.246 48.2798 125.876 48.4183 126.513 48.7215C126.575 48.7477 126.637 48.7777 126.699 48.8151H126.702C126.992 48.9723 127.302 49.1932 127.594 49.4478C128.79 50.6794 128.741 50.8478 127.656 54.5202C126.461 58.5557 121.516 59.8734 119.425 60.9777C119.311 60.7643 119.015 60.3563 118.536 59.9969C118.957 59.6301 122.769 58.5632 123.468 57.1032C124.226 55.5272 122.749 52.2105 123.892 51.4356C127.257 49.1483 125.07 48.3472 125.07 48.3472C124.942 48.3397 124.822 48.3322 124.701 48.3322C121.254 48.3322 119.942 52.0457 119.453 53.8351C119.249 54.5763 118.839 55.6245 118.419 56.6053C119.015 55.1004 119.432 53.5319 120 52.0158C120 52.0083 120.004 52.0008 120.007 51.9933C120.01 51.9821 120.014 51.9746 120.017 51.9634C120.021 51.9559 120.028 51.9447 120.031 51.9334C120.858 49.8071 122.611 48.2798 124.632 48.2798C124.632 48.2798 124.632 48.2798 124.636 48.2798Z" fill="#2F3134"/>
<path d="M116.739 59.8473C116.749 59.8473 118.203 60.1917 118.819 61.3597C118.819 61.3597 118.819 61.3597 118.816 61.3634C118.199 60.1954 116.749 59.8473 116.739 59.8473Z" fill="#808488"/>
<path d="M119.431 60.989C119.641 61.4008 119.769 63.4148 119.683 64.5116C119.635 65.1593 119.438 65.7245 119.283 66.0839C118.715 66.3385 118.343 66.1513 118.422 66.0652C119.263 65.8818 119.094 64.6015 119.094 62.4976C119.094 60.3938 116.738 59.8473 116.738 59.8473C116.803 59.5964 116.907 59.4804 117.155 59.3943C118.467 59.6226 119.245 60.6259 119.431 60.989Z" fill="#0D0E0E"/>
<path d="M118.419 56.6053C118.388 56.684 118.357 56.7663 118.323 56.8449C118.057 57.4963 117.678 58.6718 117.165 59.3943C117.162 59.3943 117.158 59.3943 117.155 59.3943C117.155 59.3943 117.796 58.0691 118.419 56.6053Z" fill="#D7D9D6"/>
<path d="M124.702 48.3323C124.823 48.3323 124.943 48.3398 125.071 48.3472C125.071 48.3472 127.258 49.1484 123.893 51.4356C122.75 52.2105 124.227 55.5273 123.469 57.1033C122.77 58.5632 118.958 59.6301 118.537 59.997C118.179 59.7312 117.721 59.4954 117.167 59.3943C117.68 58.6718 118.059 57.4964 118.324 56.845C118.358 56.7664 118.389 56.684 118.42 56.6054C118.84 55.6246 119.25 54.5764 119.453 53.8352C119.943 52.0458 121.255 48.3323 124.702 48.3323Z" fill="#28292D"/>
<path d="M117.155 59.3943C117.158 59.3943 117.162 59.3943 117.165 59.3943C117.72 59.4954 118.178 59.7312 118.536 59.997C118.502 60.0307 118.491 60.0531 118.505 60.0756C118.192 60.0045 117.155 59.3943 117.155 59.3943Z" fill="#0C0D0D"/>
<path d="M117.495 60.8543C117.495 60.8543 118.504 61.0339 118.253 61.7677C118.001 62.4977 113.121 58.567 111.437 58.0167C109.756 57.4701 110.514 56.9198 113.541 58.6568C116.569 60.3938 117.495 60.8543 117.495 60.8543Z" fill="white"/>
<path d="M109.128 60.7606L111.315 61.996L110.968 62.0259L109.128 60.7606Z" fill="#4F5356"/>
<path d="M109.127 60.7606L110.966 62.0259L110.766 62.0409C110.766 62.0409 110.587 61.9773 110.342 61.9773C109.877 61.9773 109.165 62.2131 108.999 63.5944C108.996 63.6244 108.989 63.6394 108.985 63.6394C108.941 63.6394 109.127 60.7606 109.127 60.7606Z" fill="#414345"/>
<path d="M7.44496 39.5462C7.44496 48.0814 32.3082 54.9994 62.9783 54.9994C93.6518 54.9994 118.519 48.0814 118.519 39.5462C118.519 31.0111 94.2408 15.8649 63.5673 15.8649C32.8972 15.8649 7.44496 31.0111 7.44496 39.5462Z" fill="#BCE9F7"/>
<path d="M38.1192 23.5876C37.4889 23.5876 17.8022 29.3526 12.8805 38.4044C11.8714 40.4596 19.0662 41.2832 19.0662 41.2832C19.0662 41.2832 21.2119 37.3076 38.7529 25.1C38.4981 24.5497 38.1192 23.5876 38.1192 23.5876Z" fill="white"/>
<path d="M112.499 30.7115C113.223 31.2244 113.922 31.7897 114.576 32.4036C114.466 32.3512 114.356 32.2988 114.246 32.2464C113.712 31.7335 113.126 31.2244 112.499 30.7115Z" fill="#E4F6FB"/>
<path d="M114.245 32.2465C114.355 32.2989 114.465 32.3513 114.575 32.4037C114.796 32.6096 115.009 32.8192 115.216 33.0363C115.095 32.969 114.971 32.9016 114.847 32.8379C114.654 32.6395 114.451 32.4449 114.245 32.2465Z" fill="#AABCC0"/>
<path d="M114.847 32.8379C114.971 32.9015 115.095 32.9689 115.216 33.0363C116.342 34.2043 117.276 35.5182 117.864 36.9333C117.258 35.6343 116.235 34.2492 114.847 32.8379ZM118.515 39.6473C118.54 40.0067 118.536 40.3698 118.505 40.7367C118.116 41.7848 117.434 42.7844 116.476 43.7315C116.473 43.7277 116.47 43.724 116.47 43.7202C117.771 42.425 118.484 41.0586 118.515 39.6473ZM8.94693 43.1325C12.1465 46.8797 20.2437 50.0954 31.2478 52.2292C17.113 49.6574 11.2373 46.0974 8.94693 43.1325ZM51.2617 54.655C52.257 54.7149 53.2627 54.7673 54.2753 54.8122C54.2891 54.8309 54.2994 54.8496 54.3132 54.8684C53.273 54.801 52.257 54.7299 51.2617 54.655Z" fill="#93A4A9"/>
<path d="M110.809 29.626C111.377 29.9517 111.945 30.3148 112.5 30.7116C113.127 31.2244 113.712 31.7336 114.246 32.2464C114.453 32.4448 114.656 32.6395 114.849 32.8379C116.237 34.2492 117.259 35.6343 117.866 36.9333C118.231 37.8018 118.458 38.7114 118.517 39.6473C118.486 41.0586 117.773 42.425 116.471 43.7202C116.467 43.7165 116.467 43.7202 116.467 43.7165C117.576 42.6159 118.258 41.4592 118.455 40.2725C118.134 41.3656 117.404 42.425 116.309 43.4432C115.63 42.2865 114.89 41.1747 114.094 40.1003C116.488 34.6797 110.809 29.626 110.809 29.626ZM8.08707 37.7157C6.37189 44.3566 23.8544 50.4997 53.5842 52.203C53.6806 53.0191 53.8218 53.7116 54.0182 54.2432C28.349 53.0677 8.61403 46.9958 7.61178 39.5874C7.61867 38.6515 7.91831 37.9777 8.08707 37.7157ZM104.32 47.3514C104.709 47.9991 105.064 48.5568 105.388 49.0173C98.3408 51.3195 88.9073 53.0378 78.1581 53.8763C78.103 53.3148 78.0445 52.7495 77.9859 52.188C90.3297 51.1885 98.7197 49.444 104.32 47.3514ZM72.6475 52.5549C72.682 53.2998 72.7095 53.8689 72.7233 54.2207C71.3319 54.2881 69.9198 54.3405 68.4939 54.378C68.5697 53.8127 68.6351 53.2399 68.6936 52.6634C69.3067 52.6672 69.9301 52.6672 70.5535 52.6672C71.263 52.6335 71.9587 52.5961 72.6475 52.5549Z" fill="#ACE4F7"/>
<path d="M81.7972 17.7853C82.5205 17.8976 82.92 17.965 82.92 17.965C82.92 17.965 85.0451 18.8335 86.3125 20.0838C85.0003 19.5297 83.7948 19.0543 82.7271 18.6538C82.4895 18.3543 82.1795 18.066 81.7972 17.7853ZM44.9656 18.1596C44.3181 18.7436 43.9668 19.3725 43.9668 20.0201C43.9668 20.1025 43.9737 20.1849 43.984 20.2635C43.9737 20.3496 43.9668 20.4357 43.9668 20.5218C43.9668 20.5592 43.9702 20.5966 43.9702 20.6341C43.9702 20.6753 43.9668 20.7127 43.9668 20.7501C43.9668 23.423 49.226 25.7065 56.624 26.605C56.4966 27.1253 56.3691 27.6569 56.2451 28.1959C37.1164 28.0687 36.7788 21.394 44.9656 18.1596ZM83.1267 21.4689C84.1324 22.1839 85.0933 22.9214 86.0129 23.6738C84.3218 24.868 80.6331 26.0509 73.5692 26.9943C73.5037 26.7173 73.4417 26.4477 73.3763 26.1819C78.6631 25.2161 82.4034 23.4904 83.1267 21.4689ZM70.6589 26.5975C70.6864 26.8408 70.7174 27.0879 70.745 27.3349C69.6945 27.4547 68.5717 27.567 67.3904 27.6718C67.3491 27.4098 67.3043 27.1552 67.2629 26.9044C68.434 26.8333 69.5705 26.7285 70.6589 26.5975Z" fill="#ACE4F7"/>
<path d="M116.476 43.7314C116.479 43.7389 116.483 43.7464 116.486 43.7539C115.856 44.3005 112.701 47.4562 105.761 49.5151C105.737 49.4852 105.713 49.4553 105.689 49.4253C106.264 49.2344 106.819 49.0397 107.359 48.8376C111.448 47.3701 114.53 45.6556 116.476 43.7314Z" fill="#93A4A9"/>
<path d="M86.3113 20.0837C94.4499 23.5278 106.608 29.9853 114.092 40.1002C112.99 42.5934 110.179 45.1652 104.317 47.3514C101.283 42.2976 96.1581 31.9918 86.0117 23.6738C87.8095 22.401 87.3549 21.1132 86.3113 20.0837ZM107.358 48.8375C106.818 49.0397 106.263 49.2343 105.688 49.4253C106.229 49.2456 106.752 49.0621 107.262 48.875C107.293 48.86 107.328 48.8488 107.358 48.8375Z" fill="#ACE4F7"/>
<path d="M116.469 43.7203C116.469 43.7241 116.472 43.7278 116.476 43.7316C114.53 45.6557 111.447 47.3702 107.359 48.8377C111.461 47.3253 114.585 45.5958 116.469 43.7203Z" fill="#869FA8"/>
<path d="M114.092 40.1003C114.888 41.1747 115.628 42.2865 116.307 43.4433C114.072 45.5172 110.311 47.4114 105.386 49.0173C105.062 48.5569 104.707 47.9991 104.318 47.3515C110.18 45.1653 112.99 42.5935 114.092 40.1003ZM116.465 43.7166C116.465 43.7203 116.465 43.7166 116.469 43.7203C114.585 45.5958 111.461 47.3253 107.359 48.8377C107.328 48.8489 107.294 48.8601 107.263 48.8751C111.409 47.3515 114.568 45.607 116.465 43.7166Z" fill="#9DDDF5"/>
<path d="M82.7286 18.6538C83.7963 19.0544 85.0018 19.5298 86.314 20.0838C87.3575 21.1133 87.8122 22.401 86.0143 23.6738C85.0947 22.9214 84.1338 22.1839 83.1281 21.4689C83.2142 21.2331 83.2556 20.9935 83.2556 20.7502C83.2556 20.7127 83.2556 20.6753 83.2556 20.6341C83.2556 20.5967 83.2556 20.5592 83.2556 20.5218C83.2556 20.4357 83.2521 20.3496 83.2418 20.2635C83.2521 20.1849 83.2556 20.1025 83.2556 20.0202C83.2556 19.5485 83.073 19.0918 82.7286 18.6538Z" fill="#9DDDF5"/>
<path d="M54.3123 54.8684C55.0045 54.9133 55.7037 54.9583 56.4166 54.9994C57.505 54.9957 58.5761 54.9882 59.6403 54.9732C60.7459 54.9919 61.8584 54.9994 62.9777 54.9994C63.0053 54.9994 63.0294 54.9994 63.0569 54.9994C63.0604 54.9994 63.0638 54.9994 63.0673 54.9994C63.0742 54.9994 63.081 54.9994 63.0845 54.9994C63.0948 54.9994 63.1051 54.9994 63.112 54.9994C63.1189 54.9994 63.1224 54.9994 63.1224 54.9994C63.1361 54.9994 63.1465 54.9994 63.1603 54.9994C63.1603 54.9994 63.1637 54.9994 63.1671 54.9994C63.1809 54.9994 63.1913 54.9994 63.2016 54.9994C63.2085 54.9994 63.2119 54.9994 63.2188 54.9994C63.2291 54.9994 63.2395 54.9994 63.2464 54.9994C63.2532 54.9994 63.2567 54.9994 63.2601 54.9994C63.2705 54.9994 63.2774 54.9994 63.2911 54.9994C63.298 54.9994 63.3049 54.9994 63.3084 54.9994C63.3187 54.9994 63.329 54.9994 63.3359 54.9994C63.3428 54.9994 63.3428 54.9994 63.3462 54.9994C63.36 54.9994 63.3703 54.9994 63.3807 54.9994C63.3876 54.9994 63.3876 54.9994 63.391 54.9994C63.4013 54.9994 63.4151 54.9994 63.422 54.9994C63.4289 54.9994 63.4323 54.9994 63.4392 54.9994C63.4496 54.9994 63.4565 54.9994 63.4668 54.9994C63.4737 54.9994 63.4806 54.9994 63.4874 54.9994C63.4943 54.9994 63.5047 54.9994 63.5116 54.9994C63.5184 54.9994 63.5253 54.9994 63.5322 54.9994C63.5391 54.9994 63.546 54.9994 63.5529 54.9994C63.5632 54.9994 63.5701 54.9994 63.5839 54.9994C63.5873 54.9994 63.5908 54.9994 63.5942 54.9994C63.6045 54.9994 63.6149 54.9994 63.6252 54.9994C63.6287 54.9994 63.6355 54.9994 63.639 54.9994C63.6493 54.9994 63.6597 54.9994 63.67 54.9994C63.6769 54.9994 63.6803 54.9994 63.6838 54.9994C63.6941 54.9994 63.701 54.9994 63.7079 54.9994C63.7148 54.9994 63.7251 54.9994 63.732 54.9994C63.7389 54.9994 63.7458 54.9994 63.7526 54.9994C63.763 54.9994 63.7664 54.9994 63.7733 54.9994C63.7836 54.9994 63.7905 54.9994 63.7974 54.9994C63.8043 54.9994 63.8146 54.9994 63.8181 54.9994C63.8284 54.9994 63.8353 54.9994 63.8456 54.9994C63.8491 54.9994 63.856 54.9994 63.8594 54.9994C63.8697 54.9994 63.8766 54.9994 63.887 54.9994C63.8939 54.9994 63.8973 54.9994 63.9042 54.9994C63.9111 54.9994 63.9249 54.9994 63.9352 54.9994C63.9386 54.9994 63.9421 54.9994 63.9455 54.9994C63.9593 54.9994 63.9662 54.9994 63.9765 54.9957C63.98 54.9957 63.9834 54.9957 63.9903 54.9957C64.0006 54.9957 64.0144 54.9957 64.0247 54.9957H64.0282C64.042 54.9957 64.0523 54.9957 64.0661 54.9957C64.0695 54.9957 64.073 54.9957 64.0764 54.9957C64.0867 54.9957 64.1005 54.9957 64.1108 54.9957H64.1143C64.1281 54.9957 64.1418 54.9957 64.1556 54.9957C64.1866 54.9957 64.2142 54.9957 64.2417 54.9957C64.2417 54.9957 64.2452 54.9957 64.2486 54.9957C64.3037 54.9957 64.3588 54.9957 64.4139 54.9957C64.4174 54.9957 64.4243 54.9957 64.4243 54.9957C64.4759 54.9957 64.5241 54.9957 64.5724 54.9919C64.5827 54.9919 64.5861 54.9919 64.5965 54.9919C64.6206 54.9919 64.6481 54.9919 64.6722 54.9919H64.6757C64.7032 54.9919 64.7273 54.9919 64.7514 54.9919C64.7583 54.9919 64.7618 54.9919 64.7652 54.9919C64.7756 54.9919 64.7859 54.9919 64.7962 54.9919C64.7997 54.9919 64.8031 54.9919 64.8066 54.9919C64.8169 54.9919 64.8307 54.9919 64.841 54.9919C64.8479 54.9919 64.8479 54.9919 64.8513 54.9919C64.8651 54.9919 64.8789 54.9919 64.8892 54.9919C64.8927 54.9919 64.8927 54.9919 64.8927 54.9919C64.9064 54.9919 64.9133 54.9919 64.9237 54.9919C64.9305 54.9919 64.9374 54.9919 64.9409 54.9919C64.9512 54.9919 64.9615 54.9919 64.9719 54.9919C64.9753 54.9919 64.9788 54.9919 64.9822 54.9919C64.9925 54.9882 65.0063 54.9882 65.0166 54.9882C65.0201 54.9882 65.0235 54.9882 65.027 54.9882C65.0511 54.9882 65.0786 54.9882 65.1028 54.9882C65.1062 54.9882 65.1096 54.9882 65.1131 54.9882C65.1234 54.9882 65.1372 54.9882 65.1441 54.9882C65.1475 54.9882 65.1544 54.9882 65.1579 54.9882C65.1682 54.9882 65.1785 54.9882 65.1889 54.9882C65.1923 54.9882 65.1957 54.9882 65.2026 54.9882C65.213 54.9882 65.2199 54.9882 65.2336 54.9882C65.2371 54.9882 65.2371 54.9882 65.2405 54.9882C65.2543 54.9882 65.2646 54.9882 65.2784 54.9882C65.2818 54.9882 65.2853 54.9882 65.2887 54.9882C65.2991 54.9882 65.3128 54.9882 65.3232 54.9882C65.3266 54.9882 65.3232 54.9882 65.3266 54.9882C65.3404 54.9882 65.3542 54.9882 65.3645 54.9882C65.3679 54.9882 65.368 54.9882 65.3714 54.9882C65.3989 54.9845 65.4265 54.9845 65.4541 54.9845C65.4541 54.9845 65.4575 54.9845 65.4609 54.9845C65.4713 54.9845 65.4851 54.9845 65.4954 54.9845C65.4988 54.9845 65.4988 54.9845 65.5023 54.9845C66.4804 54.9732 67.4517 54.9545 68.416 54.9283C68.4126 54.9508 68.4091 54.977 68.4057 54.9994C67.5653 54.9994 63.6941 55.1829 59.8229 55.1829C57.8907 55.1829 55.9551 55.1379 54.3984 54.9994C54.3674 54.9583 54.3398 54.9171 54.3123 54.8684Z" fill="#93A4A9"/>
<path d="M67.3907 27.6719C68.5307 34.6685 69.5433 44.1058 68.6926 52.6635C63.3611 52.6335 58.3188 52.4725 53.5832 52.203C52.977 47.0258 54.2754 36.7274 56.2455 28.196C56.4315 28.196 56.6209 28.1997 56.8138 28.1997C59.7688 28.1997 63.1613 28.0462 67.0188 27.7056C67.1427 27.6943 67.2667 27.6831 67.3907 27.6719ZM65.2347 54.9882C65.2209 54.9882 65.214 54.9882 65.2037 54.9882C65.214 54.9882 65.2244 54.9882 65.2347 54.9882ZM65.1451 54.9882C65.1382 54.9882 65.1245 54.9882 65.1141 54.9882C65.1245 54.9882 65.1348 54.9882 65.1451 54.9882ZM65.1038 54.9882C65.0797 54.9882 65.0521 54.9882 65.028 54.9882C65.0521 54.9882 65.0763 54.9882 65.1038 54.9882ZM65.0177 54.9882C65.0074 54.9882 64.9936 54.9882 64.9833 54.9919C64.997 54.9882 65.0074 54.9882 65.0177 54.9882ZM64.8903 54.9919C64.8799 54.9919 64.8662 54.9919 64.8524 54.9919C64.8627 54.9919 64.8799 54.9919 64.8903 54.9919ZM64.2428 54.9957C64.2152 54.9957 64.1877 54.9957 64.1567 54.9957C64.1877 54.9957 64.2118 54.9957 64.2428 54.9957ZM64.0671 54.9957C64.0533 54.9957 64.043 54.9957 64.0292 54.9957C64.0396 54.9957 64.0533 54.9957 64.0671 54.9957ZM64.0258 54.9957C64.0155 54.9957 64.0017 54.9957 63.9914 54.9957C64.0017 54.9957 64.012 54.9957 64.0258 54.9957ZM63.9776 54.9957C63.9672 54.9994 63.9604 54.9994 63.9466 54.9994C63.9569 54.9994 63.9672 54.9994 63.9776 54.9957ZM63.7985 54.9994C63.7916 54.9994 63.7847 54.9994 63.7744 54.9994C63.7813 54.9994 63.7916 54.9994 63.7985 54.9994ZM63.3921 54.9994C63.3886 54.9994 63.3886 54.9994 63.3817 54.9994C63.3852 54.9994 63.3886 54.9994 63.3921 54.9994ZM63.3473 54.9994C63.3439 54.9994 63.3439 54.9994 63.337 54.9994C63.3404 54.9994 63.3439 54.9994 63.3473 54.9994ZM63.1234 54.9994C63.1234 54.9994 63.12 54.9994 63.1131 54.9994C63.12 54.9994 63.12 54.9994 63.1234 54.9994Z" fill="#ACE4F7"/>
<path d="M54.2756 54.8123C56.039 54.8871 57.8265 54.9433 59.6416 54.9732C58.5774 54.9882 57.5062 54.9957 56.4179 54.9994C55.7049 54.9583 55.0058 54.9133 54.3135 54.8684C54.2997 54.8497 54.2894 54.831 54.2756 54.8123Z" fill="#869FA8"/>
<path d="M53.5829 52.203C58.3186 52.4725 63.3609 52.6335 68.6924 52.6635C68.6338 53.24 68.5684 53.8127 68.4926 54.378C66.7189 54.4266 64.9245 54.4491 63.106 54.4491C60.0097 54.4491 56.9754 54.3817 54.0169 54.2432C53.8206 53.7116 53.6794 53.0191 53.5829 52.203Z" fill="#9DDDF5"/>
<path d="M56.6242 26.605C58.794 26.867 61.1498 27.0093 63.6124 27.0093C64.8592 27.0093 66.0784 26.9718 67.2632 26.9045C67.3045 27.1553 67.3493 27.4098 67.3906 27.6719C67.2666 27.6831 67.1426 27.6943 67.0187 27.7056C63.1612 28.0462 59.7687 28.1997 56.8137 28.1997C56.6208 28.1997 56.4314 28.196 56.2454 28.196C56.3694 27.6569 56.4968 27.1253 56.6242 26.605Z" fill="#9DDDF5"/>
<path d="M78.2046 54.4117C78.208 54.4267 78.208 54.4379 78.208 54.4492C77.1748 54.5765 75.9521 54.6251 74.9223 54.6401C76.0313 54.5727 77.1231 54.4978 78.2046 54.4117Z" fill="#CFD2D0"/>
<path d="M73.5702 26.9944C75.0788 33.392 76.9662 42.5935 77.9856 52.1881C76.2842 52.3229 74.5036 52.4464 72.6472 52.555C72.4268 47.9729 71.8172 36.6713 70.746 27.335C71.7448 27.2265 72.6817 27.1104 73.5702 26.9944Z" fill="#DCF3F9"/>
<path d="M77.985 52.1881C78.0436 52.7496 78.1021 53.3149 78.1572 53.8764C76.38 54.0149 74.565 54.131 72.7224 54.2208C72.7086 53.8689 72.681 53.2999 72.6466 52.555C74.503 52.4464 76.2836 52.3229 77.985 52.1881Z" fill="#D2F0F8"/>
<path d="M73.3765 26.182C73.4419 26.4478 73.5039 26.7173 73.5693 26.9943C72.6807 27.1104 71.7439 27.2264 70.7451 27.335C70.7176 27.0879 70.6866 26.8409 70.659 26.5975C71.6027 26.4815 72.512 26.343 73.3765 26.182Z" fill="#D2F0F8"/>
<path d="M43.9705 20.634C44.1186 23.2657 49.3571 25.5006 56.6794 26.3803C56.6622 26.4552 56.6449 26.53 56.6243 26.6049C49.2263 25.7065 43.9671 23.4229 43.9671 20.7501C43.9671 20.7126 43.9705 20.6752 43.9705 20.634ZM83.0546 21.4164C83.0787 21.4351 83.1063 21.4539 83.127 21.4688C82.4037 23.4903 78.6633 25.2161 73.3766 26.1819C73.3594 26.1108 73.3421 26.0359 73.3249 25.9648C78.4842 25.0252 82.1798 23.3668 83.0546 21.4164ZM70.6316 26.3691C70.6419 26.4439 70.6488 26.5188 70.6592 26.5974C69.5708 26.7284 68.4342 26.8333 67.2632 26.9044C67.2495 26.8258 67.2391 26.7509 67.2253 26.676C68.3998 26.6049 69.5398 26.5038 70.6316 26.3691Z" fill="#80CAF1"/>
<path d="M83.2549 20.634C83.2549 20.6752 83.2549 20.7126 83.2549 20.7501C83.2549 20.9934 83.2134 21.233 83.127 21.4688C83.1063 21.4539 83.0786 21.4351 83.0544 21.4164C83.1719 21.1619 83.2376 20.8998 83.2549 20.634Z" fill="#77C4EE"/>
<path d="M56.6779 26.3804C58.8339 26.6387 61.169 26.7809 63.6109 26.7809C64.8439 26.7809 66.0528 26.7435 67.2238 26.6761C67.2376 26.751 67.2479 26.8258 67.2617 26.9045C66.0769 26.9718 64.8577 27.0093 63.6109 27.0093C61.1484 27.0093 58.7926 26.867 56.6228 26.605C56.6434 26.5301 56.6606 26.4552 56.6779 26.3804Z" fill="#77C4EE"/>
<path d="M73.3253 25.9648C73.3425 26.036 73.3597 26.1108 73.377 26.182C72.5125 26.3429 71.6032 26.4814 70.6595 26.5975C70.6492 26.5189 70.6423 26.444 70.632 26.3691C71.5653 26.2568 72.4643 26.1183 73.3253 25.9648Z" fill="#95DAF6"/>
<path d="M43.9676 20.5218C43.9676 23.9771 52.7639 26.7809 63.6129 26.7809C74.462 26.7809 83.2549 23.9771 83.2549 20.5218C83.2549 17.0666 74.462 14.2627 63.6129 14.2627C52.7639 14.2627 43.9676 17.0666 43.9676 20.5218Z" fill="#DD1A42"/>
<path d="M43.9676 20.0201C43.9676 23.2807 52.7639 25.9236 63.6129 25.9236C74.462 25.9236 83.2549 23.2807 83.2549 20.0201C83.2549 16.7595 74.462 14.1204 63.6129 14.1204C52.7639 14.1204 43.9676 16.7595 43.9676 20.0201Z" fill="#EF2D4B"/>
<path d="M47.3197 19.0169C47.3197 21.7159 54.6144 23.9096 63.614 23.9096C72.6101 23.9096 79.9082 21.7159 79.9082 19.0169C79.9082 16.3103 72.6101 14.1204 63.614 14.1204C54.6144 14.1204 47.3197 16.3103 47.3197 19.0169Z" fill="#ED2A49"/>
<path d="M50.6655 18.0099C50.6655 20.1549 56.462 21.8993 63.6121 21.8993C70.7621 21.8993 76.5586 20.1549 76.5586 18.0099C76.5586 15.8611 70.7621 14.1204 63.6121 14.1204C56.462 14.1204 50.6655 15.8611 50.6655 18.0099Z" fill="#DE2946"/>
<path d="M54.3965 16.4901H54.3861L54.4275 16.4489C54.4791 16.3965 54.5342 16.3478 54.5962 16.2954C55.3643 15.558 58.0163 12.7054 57.5134 8.82341C60.0276 8.50896 68.2798 6.53613 68.2798 6.53613H68.9549L70.0363 8.90577C70.0363 8.90577 70.2085 14.2515 72.399 16.112C72.4472 16.1457 72.4851 16.1794 72.5299 16.2168L72.6504 16.3029L72.6435 16.3067C72.9742 16.5912 73.1602 16.8944 73.1602 17.2126C73.1602 18.7624 68.886 20.0202 63.613 20.0202C58.34 20.0202 54.0624 18.7624 54.0624 17.2126C54.0624 16.9618 54.1864 16.7184 54.3965 16.4901Z" fill="#D41F40"/>
<path d="M70.0364 8.90942C70.0364 8.92065 70.0399 9.01424 70.0537 9.17521C70.0537 9.22388 70.0571 9.27629 70.0605 9.33618C67.9148 9.53085 61.829 10.3357 61.5501 13.1209C61.3296 15.3333 61.5432 18.2906 63.5098 20.0201C60.8922 20.0126 58.5296 19.6944 56.8213 19.1853C56.9211 19.1928 57.0176 19.1965 57.1106 19.1965C60.7924 19.1965 59.1839 14.2888 58.9429 12.1139C58.6914 9.83032 60.627 9.36987 60.627 9.36987C60.627 9.36987 60.0863 9.28003 59.3045 9.14152C60.6718 9.26131 62.1184 9.32495 63.6131 9.32495C65.9035 9.32495 68.0802 9.17521 70.0364 8.90942ZM57.3448 11.6721C56.6766 14.4311 54.7617 16.3627 54.3174 16.7783C53.7698 17.2874 54.8168 18.1895 56.1807 18.9757C54.8788 18.5003 54.0935 17.9013 54.0659 17.2499C54.0625 17.2424 54.0625 17.2424 54.0625 17.2387C54.0625 17.235 54.0625 17.2312 54.0625 17.2312C54.0625 17.2275 54.0625 17.2275 54.0625 17.2275C54.0625 17.2275 54.0625 17.2237 54.0625 17.22C54.0625 17.2162 54.0625 17.2162 54.0625 17.2125C54.0625 16.9617 54.1865 16.7184 54.3966 16.49H54.3863L54.4276 16.4488C54.4792 16.3964 54.5344 16.3477 54.5963 16.2953C55.1612 15.7525 56.742 14.068 57.3448 11.6721Z" fill="#C71C35"/>
<path d="M48.0893 4.66065C48.0893 7.23618 55.0395 9.32505 63.612 9.32505C72.1845 9.32505 79.1348 7.23618 79.1348 4.66065C79.1348 2.08887 72.1845 0 63.612 0C55.0395 0 48.0893 2.08887 48.0893 4.66065Z" fill="#F03D52"/>
<path d="M48.9272 4.40984C48.9272 6.84685 55.502 8.82342 63.613 8.82342C71.724 8.82342 78.2988 6.84685 78.2988 4.40984C78.2988 1.97282 71.724 0 63.613 0C55.502 0 48.9272 1.97282 48.9272 4.40984Z" fill="#F03D52"/>
<path d="M48.0893 4.66065C48.0893 7.23618 55.0395 9.32505 63.612 9.32505C72.1845 9.32505 79.1348 7.23618 79.1348 4.66065C79.1348 2.08887 72.1845 0 63.612 0C55.0395 0 48.0893 2.08887 48.0893 4.66065Z" fill="#DD1A42"/>
<path d="M48.9272 4.31999C48.9272 6.7046 55.502 8.63999 63.613 8.63999C71.724 8.63999 78.2988 6.7046 78.2988 4.31999C78.2988 1.93164 71.724 0 63.613 0C55.502 0 48.9272 1.93164 48.9272 4.31999Z" fill="#EF2D4B"/>
<path d="M63.6135 0.685059C58.9777 0.685059 55.2201 1.78939 55.2201 3.15202C55.2201 4.5184 58.9777 5.62273 63.6135 5.62273C68.2459 5.62273 72.0035 4.5184 72.0035 3.15202C72.0035 1.78939 68.2459 0.685059 63.6135 0.685059C69.6649 0.685059 74.5693 2.1263 74.5693 3.90821C74.5693 5.68637 69.6649 7.13136 63.6135 7.13136C57.5622 7.13136 52.6577 5.68637 52.6577 3.90821C52.6577 2.1263 57.5622 0.685059 63.6135 0.685059Z" fill="#EF354E"/>
<path d="M63.614 0.685059C68.2463 0.685059 72.0039 1.78939 72.0039 3.15202C72.0039 4.5184 68.2463 5.62273 63.614 5.62273C58.9782 5.62273 55.2206 4.5184 55.2206 3.15202C55.2206 1.78939 58.9782 0.685059 63.614 0.685059Z" fill="#F03E50"/>
<path d="M60.3614 3.54126C60.2477 3.44019 60.1892 3.33163 60.1892 3.21932C60.1892 2.65405 61.7218 2.1936 63.6127 2.1936C65.5035 2.1936 67.0361 2.65405 67.0361 3.21932C67.0361 3.33163 66.9741 3.44019 66.8639 3.54126C66.4162 3.12948 65.1315 2.83374 63.6127 2.83374C62.0938 2.83374 60.8057 3.12948 60.3614 3.54126Z" fill="#CF263C"/>
<path d="M60.3617 3.54126C60.806 3.12948 62.0941 2.83374 63.613 2.83374C65.1319 2.83374 66.4165 3.12948 66.8643 3.54126C66.4165 3.95304 65.1319 4.24878 63.613 4.24878C62.0941 4.24878 60.806 3.95304 60.3617 3.54126Z" fill="#EF2B45"/>
<path d="M57.528 8.95435C57.5624 9.24259 57.5762 9.52336 57.5762 9.80038C57.5762 10.463 57.4901 11.0881 57.3454 11.6721C57.5452 10.8373 57.6313 9.92391 57.528 8.95435Z" fill="#F1BBC7"/>
<path d="M56.1832 18.9757C56.383 19.0506 56.5931 19.118 56.8135 19.1853C56.7136 19.1779 56.6103 19.1704 56.5035 19.1554C56.3933 19.0955 56.2865 19.0356 56.1832 18.9757Z" fill="#D1243C"/>
<path d="M56.1797 18.9757C56.3795 19.0468 56.593 19.118 56.8203 19.1853C56.8169 19.1853 56.8169 19.1853 56.8134 19.1853C56.593 19.118 56.3829 19.0506 56.1831 18.9757C56.1797 18.9757 56.1797 18.9757 56.1797 18.9757Z" fill="#C81D38"/>
<path d="M57.5272 8.95435C58.1024 9.02922 58.6948 9.08911 59.3044 9.14152C60.0862 9.28003 60.627 9.36987 60.627 9.36987C60.627 9.36987 58.6913 9.83032 58.9428 12.1139C59.1839 14.2888 60.7923 19.1965 57.1105 19.1965C57.0175 19.1965 56.9211 19.1928 56.8212 19.1853C56.5939 19.1179 56.3803 19.0468 56.1806 18.9757C54.8167 18.1895 53.7697 17.2874 54.3173 16.7783C54.7616 16.3627 56.6765 14.4311 57.3447 11.6721C57.4893 11.0881 57.5754 10.463 57.5754 9.80038C57.5754 9.52336 57.5617 9.24259 57.5272 8.95435Z" fill="#BC1B2F"/>
<path d="M57.5137 8.82336C58.1578 8.94316 58.7846 9.05172 59.3047 9.14156C58.6951 9.08915 58.1027 9.02551 57.5275 8.95439C57.5241 8.90946 57.5172 8.86454 57.5137 8.82336Z" fill="#D11939"/>
<path d="M7.64063 38.1949C7.59586 38.4682 7.57175 38.7378 7.57175 38.9998C7.57175 39.1945 7.58208 39.3929 7.60963 39.5875C7.60275 40.5459 7.89894 41.7775 8.94596 43.1326C7.96438 41.9834 7.44431 40.7817 7.44431 39.5463C7.44431 39.5426 7.44431 39.5389 7.44431 39.5351C7.44431 39.5351 7.44431 39.5314 7.44431 39.5276C7.44431 39.5276 7.44431 39.5276 7.44431 39.5239C7.44776 39.0971 7.5132 38.6554 7.64063 38.1949ZM105.678 49.4105C105.682 49.4142 105.685 49.4217 105.688 49.4254C98.6349 51.7838 89.1015 53.5508 78.2042 54.4118C78.1939 54.3257 78.187 54.2358 78.1801 54.1497C89.4907 53.2401 98.8174 51.6266 105.678 49.4105ZM31.2468 52.2293C36.6334 53.2101 43.2186 54.0486 51.2607 54.6551C43.9522 54.2171 37.1776 53.3823 31.2468 52.2293ZM72.7349 54.5203C72.7384 54.5952 72.7384 54.6364 72.7384 54.6364C72.7384 54.6364 73.2481 54.6476 74.0058 54.6476C74.2813 54.6476 74.5913 54.6476 74.922 54.6401C72.7969 54.7711 70.6237 54.8685 68.416 54.9284C68.4263 54.861 68.4332 54.7973 68.4435 54.7337C69.9004 54.6738 71.3297 54.6027 72.7349 54.5203Z" fill="#75C9F1"/>
<path d="M7.60932 39.5875C8.61157 46.9959 28.3465 53.0679 54.0157 54.2433C54.0949 54.4604 54.181 54.6476 54.274 54.8123C53.2614 54.7674 52.2557 54.715 51.2604 54.6551C43.2183 54.0486 36.6331 53.2101 31.2465 52.2293C20.2424 50.0955 12.1453 46.8799 8.94565 43.1326C7.89863 41.7775 7.60243 40.5459 7.60932 39.5875ZM118.452 40.2726C118.256 41.4593 117.574 42.616 116.465 43.7166C116.413 43.6268 116.358 43.5369 116.306 43.4433C117.402 42.4251 118.132 41.3657 118.452 40.2726ZM105.385 49.0174C105.485 49.1596 105.585 49.2907 105.678 49.4105C98.8171 51.6266 89.4904 53.2401 78.1798 54.1497C78.1729 54.0561 78.1626 53.9663 78.1557 53.8764C88.9049 53.0379 98.3384 51.3196 105.385 49.0174ZM72.7208 54.2209C72.7277 54.3519 72.7312 54.4529 72.7346 54.5203C71.3294 54.6027 69.9001 54.6738 68.4432 54.7337C68.4604 54.6139 68.4776 54.4979 68.4914 54.3781C69.9173 54.3406 71.3294 54.2882 72.7208 54.2209Z" fill="#6FC1ED"/>
<path d="M107.263 48.8751C106.753 49.0623 106.229 49.2457 105.689 49.4254C105.685 49.4217 105.682 49.4142 105.678 49.4104C106.223 49.2382 106.75 49.0548 107.263 48.8751Z" fill="#6FC1ED"/>
<path d="M116.308 43.4432C116.36 43.5368 116.415 43.6267 116.467 43.7165C114.569 45.607 111.411 47.3514 107.264 48.8751C106.751 49.0547 106.224 49.2382 105.68 49.4104C105.587 49.2906 105.487 49.1596 105.387 49.0173C110.312 47.4113 114.073 45.5171 116.308 43.4432Z" fill="#69BCEB"/>
<path d="M65.374 54.9882C65.3706 54.9882 65.3706 54.9882 65.3671 54.9882C65.3706 54.9882 65.374 54.9882 65.374 54.9882ZM65.3292 54.9882C65.3258 54.9882 65.3292 54.9882 65.3258 54.9882H65.3292ZM65.2431 54.9882C65.2397 54.9882 65.2397 54.9882 65.2362 54.9882C65.2397 54.9882 65.2431 54.9882 65.2431 54.9882ZM65.0296 54.9882C65.0261 54.9882 65.0227 54.9882 65.0193 54.9882C65.0261 54.9882 65.0227 54.9882 65.0296 54.9882ZM64.8539 54.992C64.8505 54.992 64.8505 54.992 64.8436 54.992C64.8471 54.992 64.8505 54.992 64.8539 54.992ZM64.7678 54.992C64.7644 54.992 64.7609 54.992 64.7541 54.992C64.7575 54.992 64.7644 54.992 64.7678 54.992ZM64.0308 54.9957H64.0273C64.0273 54.9957 64.0273 54.9957 64.0308 54.9957ZM63.8207 54.9995C63.8173 54.9995 63.8069 54.9995 63.8 54.9995C63.8069 54.9995 63.8138 54.9995 63.8207 54.9995ZM63.6864 54.9995C63.6829 54.9995 63.6795 54.9995 63.6726 54.9995C63.676 54.9995 63.6829 54.9995 63.6864 54.9995ZM63.5142 54.9995C63.5073 54.9995 63.4969 54.9995 63.4901 54.9995C63.4969 54.9995 63.5038 54.9995 63.5142 54.9995ZM63.4694 54.9995C63.4591 54.9995 63.4522 54.9995 63.4418 54.9995C63.4522 54.9995 63.4625 54.9995 63.4694 54.9995ZM63.3833 54.9995C63.373 54.9995 63.3626 54.9995 63.3488 54.9995C63.3592 54.9995 63.3764 54.9995 63.3833 54.9995ZM63.2937 54.9995C63.28 54.9995 63.2731 54.9995 63.2627 54.9995C63.2696 54.9995 63.2834 54.9995 63.2937 54.9995Z" fill="#5C8FA9"/>
<path d="M68.4453 54.7336C68.435 54.7973 68.4281 54.8609 68.4178 54.9283C67.4534 54.9545 66.4822 54.9732 65.504 54.9845C65.5006 54.9845 65.5006 54.9845 65.4971 54.9845C65.4868 54.9845 65.473 54.9845 65.4627 54.9845C65.4592 54.9845 65.4558 54.9845 65.4558 54.9845C65.4282 54.9845 65.4007 54.9845 65.3731 54.9882C65.3731 54.9882 65.3697 54.9882 65.3662 54.9882C65.3559 54.9882 65.3421 54.9882 65.3284 54.9882H65.3249C65.3146 54.9882 65.3008 54.9882 65.2905 54.9882C65.287 54.9882 65.2836 54.9882 65.2801 54.9882C65.2664 54.9882 65.256 54.9882 65.2423 54.9882C65.2423 54.9882 65.2388 54.9882 65.2354 54.9882C65.225 54.9882 65.2147 54.9882 65.2044 54.9882C65.1975 54.9882 65.194 54.9882 65.1906 54.9882C65.1803 54.9882 65.1699 54.9882 65.1596 54.9882C65.1562 54.9882 65.1493 54.9882 65.1458 54.9882C65.1355 54.9882 65.1252 54.9882 65.1148 54.9882C65.1114 54.9882 65.1079 54.9882 65.1045 54.9882C65.0769 54.9882 65.0528 54.9882 65.0287 54.9882C65.0218 54.9882 65.0253 54.9882 65.0184 54.9882C65.0081 54.9882 64.9977 54.9882 64.9839 54.9919C64.9805 54.9919 64.9771 54.9919 64.9736 54.9919C64.9633 54.9919 64.953 54.9919 64.9426 54.9919C64.9392 54.9919 64.9323 54.9919 64.9254 54.9919C64.9151 54.9919 64.9082 54.9919 64.8944 54.9919C64.8944 54.9919 64.8944 54.9919 64.891 54.9919C64.8806 54.9919 64.8634 54.9919 64.8531 54.9919C64.8496 54.9919 64.8462 54.9919 64.8427 54.9919C64.8324 54.9919 64.8186 54.9919 64.8083 54.9919C64.8049 54.9919 64.8014 54.9919 64.798 54.9919C64.7876 54.9919 64.7773 54.9919 64.767 54.9919C64.7635 54.9919 64.7566 54.9919 64.7532 54.9919C64.7291 54.9919 64.705 54.9919 64.6774 54.9919H64.674C64.6499 54.9919 64.6223 54.9919 64.5982 54.9919C64.5879 54.9919 64.5844 54.9919 64.5741 54.9919C64.5259 54.9957 64.4777 54.9957 64.426 54.9957C64.426 54.9957 64.4191 54.9957 64.4157 54.9957C64.3606 54.9957 64.3055 54.9957 64.2503 54.9957C64.2469 54.9957 64.2435 54.9957 64.2435 54.9957C64.2125 54.9957 64.1884 54.9957 64.1574 54.9957C64.1436 54.9957 64.1298 54.9957 64.116 54.9957H64.1126C64.1022 54.9957 64.0885 54.9957 64.0781 54.9957C64.0747 54.9957 64.0713 54.9957 64.0678 54.9957C64.054 54.9957 64.0403 54.9957 64.0299 54.9957C64.0265 54.9957 64.0265 54.9957 64.0265 54.9957C64.0127 54.9957 64.0024 54.9957 63.992 54.9957C63.9851 54.9957 63.9817 54.9957 63.9783 54.9957C63.9679 54.9994 63.9576 54.9994 63.9473 54.9994C63.9438 54.9994 63.9404 54.9994 63.9369 54.9994C63.9266 54.9994 63.9128 54.9994 63.9059 54.9994C63.899 54.9994 63.8956 54.9994 63.8887 54.9994C63.8784 54.9994 63.8715 54.9994 63.8612 54.9994C63.8577 54.9994 63.8508 54.9994 63.8474 54.9994C63.8371 54.9994 63.8302 54.9994 63.8198 54.9994C63.8129 54.9994 63.8061 54.9994 63.7992 54.9994C63.7923 54.9994 63.7819 54.9994 63.7751 54.9994C63.7682 54.9994 63.7647 54.9994 63.7544 54.9994C63.7475 54.9994 63.7406 54.9994 63.7337 54.9994C63.7268 54.9994 63.7165 54.9994 63.7096 54.9994C63.7027 54.9994 63.6958 54.9994 63.6855 54.9994C63.6821 54.9994 63.6752 54.9994 63.6717 54.9994C63.6614 54.9994 63.6511 54.9994 63.6407 54.9994C63.6373 54.9994 63.6304 54.9994 63.627 54.9994C63.6166 54.9994 63.6063 54.9994 63.596 54.9994C63.5925 54.9994 63.5891 54.9994 63.5856 54.9994C63.5719 54.9994 63.565 54.9994 63.5546 54.9994C63.5477 54.9994 63.5409 54.9994 63.534 54.9994C63.5271 54.9994 63.5202 54.9994 63.5133 54.9994C63.503 54.9994 63.4961 54.9994 63.4892 54.9994C63.4823 54.9994 63.4754 54.9994 63.4685 54.9994C63.4616 54.9994 63.4513 54.9994 63.441 54.9994C63.4341 54.9994 63.4306 54.9994 63.4238 54.9994C63.4169 54.9994 63.4031 54.9994 63.3928 54.9994C63.3893 54.9994 63.3859 54.9994 63.3824 54.9994C63.3755 54.9994 63.3583 54.9994 63.348 54.9994C63.3445 54.9994 63.3411 54.9994 63.3376 54.9994C63.3308 54.9994 63.3204 54.9994 63.3101 54.9994C63.3067 54.9994 63.2998 54.9994 63.2929 54.9994C63.2825 54.9994 63.2688 54.9994 63.2619 54.9994C63.2584 54.9994 63.255 54.9994 63.2481 54.9994C63.2412 54.9994 63.2309 54.9994 63.2205 54.9994C63.2137 54.9994 63.2102 54.9994 63.2033 54.9994C63.193 54.9994 63.1827 54.9994 63.1689 54.9994C63.1654 54.9994 63.162 54.9994 63.162 54.9994C63.1482 54.9994 63.1379 54.9994 63.1241 54.9994C63.1207 54.9994 63.1207 54.9994 63.1138 54.9994C63.1069 54.9994 63.0966 54.9994 63.0862 54.9994C63.0828 54.9994 63.0759 54.9994 63.069 54.9994C63.0656 54.9994 63.0621 54.9994 63.0587 54.9994C63.0311 54.9994 63.007 54.9994 62.9795 54.9994C61.8601 54.9994 60.7477 54.9919 59.6421 54.9732C62.6695 54.932 65.6073 54.8534 68.4453 54.7336Z" fill="#6FC1ED"/>
<path d="M54.0174 54.2433C56.976 54.3818 60.0102 54.4492 63.1065 54.4492C64.925 54.4492 66.7194 54.4267 68.4932 54.3781C68.4794 54.4978 68.4622 54.6139 68.4449 54.7337C65.607 54.8535 62.6691 54.9321 59.6417 54.9733C57.8267 54.9433 56.0391 54.8872 54.2757 54.8123C54.1828 54.6476 54.0966 54.4604 54.0174 54.2433Z" fill="#69BCEB"/>
<path d="M78.1819 54.1497C78.1888 54.2358 78.1957 54.3256 78.2061 54.4117C77.1246 54.4978 76.0328 54.5727 74.9238 54.6401C74.5931 54.6475 74.2832 54.6475 74.0076 54.6475C73.2499 54.6475 72.7402 54.6363 72.7402 54.6363C72.7402 54.6363 72.7402 54.5951 72.7368 54.5203C74.5966 54.4154 76.4151 54.2882 78.1819 54.1497Z" fill="#82D6F6"/>
<path d="M78.1575 53.8763C78.1644 53.9662 78.1748 54.056 78.1816 54.1496C76.4148 54.2881 74.5963 54.4154 72.7365 54.5202C72.733 54.4528 72.7296 54.3518 72.7227 54.2207C74.5653 54.1309 76.3804 54.0149 78.1575 53.8763Z" fill="#7ED1F4"/>
<path d="M23.0199 56.4631C23.0199 56.4631 17.4645 54.0859 16.1213 54.9994C14.7746 55.9165 22.3449 85.3591 23.3574 86.4559C24.3666 87.5528 26.8877 87.3694 26.8877 87.3694C26.8877 87.3694 22.0108 70.1792 23.0199 56.4631Z" fill="white"/>
</svg>
