<svg width="95" height="74" viewBox="0 0 95 74" fill="none" xmlns="http://www.w3.org/2000/svg">
<path d="M83.5923 17.8649L83.5262 19.794L82.626 20.1306L82.8249 17.8523L83.5923 17.8649Z" fill="#F0544A"/>
<path d="M10.4775 17.9106L10.5527 19.7736L11.7576 20.2616L11.4205 17.7664L10.4775 17.9106Z" fill="#F0544A"/>
<path d="M83.5915 17.8648C83.5915 18.3552 83.2718 18.86 82.6672 19.3168C78.9406 22.1323 64.4012 24.2045 47.0342 24.2045C32.1703 24.2045 19.4994 22.8337 13.7847 20.6245C11.7372 19.8336 10.4775 18.7891 10.4775 17.8648C10.4775 14.3629 26.8445 11.5245 47.0342 11.5245C67.224 11.5245 83.5915 14.3629 83.5915 17.8648Z" fill="#FF645B"/>
<path d="M82.1504 19.4844C82.1504 22.9863 66.4283 25.8247 47.0349 25.8247C27.6414 25.8247 11.9199 22.9863 11.9199 19.4844C11.9199 15.9832 27.6414 13.1442 47.0349 13.1442C66.4283 13.1442 82.1504 15.9832 82.1504 19.4844Z" fill="#FEFEFE"/>
<path d="M47.125 25.4294C28.9203 25.4294 14.1622 22.868 14.1622 19.7093C14.1622 16.5494 28.9203 13.9892 47.125 13.9892C65.3297 13.9892 80.0873 16.5494 80.0873 19.7093C80.0873 22.868 65.3297 25.4294 47.125 25.4294ZM47.1484 12.9862C27.6925 12.9862 11.9199 15.8955 11.9199 19.4845C11.9199 23.0742 27.6925 25.9835 47.1484 25.9835C66.6044 25.9835 82.377 23.0742 82.377 19.4845C82.377 15.8955 66.6044 12.9862 47.1484 12.9862Z" fill="#191A12"/>
<path d="M77.2936 21.5753C77.2936 23.9215 63.735 25.8248 47.0099 25.8248C30.2842 25.8248 16.7256 23.9215 16.7256 21.5753C16.7256 19.2279 30.2842 17.3264 47.0099 17.3264C63.735 17.3264 77.2936 19.2279 77.2936 21.5753Z" fill="#E8E3E3"/>
<path d="M8.76632 32.2985C4.79088 30.2323 2.56066 28.5219 4.55289 26.8494C6.0349 25.606 16.478 30.8249 16.478 30.8249L16.6373 32.4157V27.1679C16.6373 27.1679 2.80105 19.1936 0.260132 26.2142C-2.43043 33.6483 16.6373 39.8882 16.6373 39.8882V35.465C15.71 35.0804 12.7346 34.3634 8.76632 32.2985Z" fill="#B02D25"/>
<path d="M0.260036 26.2142C-0.0278306 27.0093 -0.0650911 27.7912 0.0953692 28.5526C0.136836 28.3585 0.189121 28.1632 0.260036 27.9678C2.80096 20.9479 16.6372 28.9216 16.6372 28.9216V27.1679C16.6372 27.1679 2.80096 19.1936 0.260036 26.2142Z" fill="#F0544A"/>
<path d="M8.76574 34.0527C12.734 36.1171 15.7094 36.8341 16.6367 37.2187V35.465C15.7094 35.0804 12.734 34.3635 8.76574 32.2985C6.49405 31.1188 4.7945 30.0539 4.12441 29.0466C2.96813 30.5803 5.14006 32.1681 8.76574 34.0527Z" fill="#B02D25"/>
<path d="M86.2354 32.2985C90.2097 30.2323 92.4405 28.5219 90.4477 26.8494C88.9663 25.606 78.5231 30.8249 78.5231 30.8249L78.3633 32.4157V27.1679C78.3633 27.1679 92.2001 19.1936 94.7404 26.2142C97.431 33.6483 78.3633 39.8882 78.3633 39.8882V35.465C79.2906 35.0804 82.266 34.3634 86.2354 32.2985Z" fill="#B02D25"/>
<path d="M94.7404 26.2142C95.0283 27.0093 95.0668 27.7912 94.9051 28.5526C94.8648 28.3585 94.8114 28.1632 94.7404 27.9678C92.2001 20.9479 78.3633 28.9216 78.3633 28.9216V27.1679C78.3633 27.1679 92.2001 19.1936 94.7404 26.2142Z" fill="#F0544A"/>
<path d="M86.2354 34.0527C82.266 36.1171 79.2906 36.8341 78.3633 37.2187V35.465C79.2906 35.0804 82.266 34.3635 86.2354 32.2985C88.5065 31.1188 90.2067 30.0539 90.8756 29.0466C92.0324 30.5803 89.8605 32.1681 86.2354 34.0527Z" fill="#B02D25"/>
<path d="M77.2921 21.5326C77.1322 19.2062 63.6349 17.3263 47.0096 17.3263C30.3872 17.3263 16.8923 19.2044 16.7265 21.5326C16.1129 21.3583 15.5395 21.1816 15.0077 21.0013C14.4548 20.586 14.1621 20.1539 14.1621 19.7092C14.1621 16.5493 28.9202 13.9891 47.125 13.9891C65.3297 13.9891 80.0872 16.5493 80.0872 19.7092C80.0872 20.1095 79.8504 20.5001 79.3997 20.8769C78.7615 21.1017 78.0583 21.3198 77.2921 21.5326Z" fill="#E0E3E3"/>
<path d="M13.4648 15.3504C17.9307 11.2277 30.7332 8.10925 46.7702 8.10925C62.5885 8.10925 75.6813 11.2319 80.4981 15.3089C74.8303 13.0799 61.9803 11.5246 47.0347 11.5246C31.9947 11.5246 19.0767 13.0997 13.4648 15.3504Z" fill="#E1E3E3"/>
<path d="M11.9309 19.6509C11.9303 19.6491 11.9297 19.6491 11.9291 19.6491C11.8173 19.3048 11.759 18.9538 11.7578 18.5956C11.7536 17.4736 12.3486 16.3816 13.4646 15.3503C19.0765 13.0997 31.9944 11.5245 47.0344 11.5245C61.9801 11.5245 74.8301 13.0799 80.4979 15.3089C81.784 16.3984 82.4811 17.5553 82.4811 18.7386C82.4811 18.9952 82.4487 19.2495 82.3844 19.4983C82.3808 19.5001 82.3777 19.5013 82.3765 19.5031C82.3765 19.4971 82.3765 19.4905 82.3765 19.4844C82.3765 15.8954 66.604 12.9861 47.148 12.9861C27.6921 12.9861 11.9195 15.8954 11.9195 19.4844C11.9195 19.5397 11.9237 19.5956 11.9309 19.6509Z" fill="#E1A09C"/>
<path d="M15.0077 21.0014C13.7277 20.5675 12.6904 20.1138 11.9313 19.651C11.9241 19.5957 11.9199 19.5398 11.9199 19.4845C11.9199 15.8955 27.6925 12.9862 47.1484 12.9862C66.6044 12.9862 82.377 15.8955 82.377 19.4845C82.377 19.4906 82.377 19.4972 82.377 19.5032C81.6642 19.9737 80.66 20.4353 79.3997 20.877C79.8505 20.5002 80.0873 20.1096 80.0873 19.7093C80.0873 16.5494 65.3297 13.9892 47.125 13.9892C28.9203 13.9892 14.1622 16.5494 14.1622 19.7093C14.1622 20.154 14.4548 20.5861 15.0077 21.0014Z" fill="#7E807D"/>
<path d="M46.9141 24.7388C34.3273 24.7388 23.2736 23.374 16.7266 21.5326C16.8924 19.2045 30.3873 17.3264 47.0097 17.3264C63.635 17.3264 77.1323 19.2063 77.2922 21.5326C70.67 23.374 59.4973 24.7388 46.9141 24.7388Z" fill="#D7D7D7"/>
<path d="M43.0037 7.48899C42.9929 8.01484 43.2435 8.51966 43.708 8.76726C44.303 9.08458 45.294 9.40129 46.8764 9.40129C48.4587 9.40129 49.4179 9.14888 49.9942 8.87063C50.4966 8.62603 50.8116 8.11821 50.8134 7.55991C50.8158 6.89042 50.9005 5.79364 51.3729 5.08569H42.3799C42.3799 5.08569 43.0295 6.25519 43.0037 7.48899Z" fill="#191A12"/>
<path d="M42.3795 5.08576C42.3795 5.08576 45.0773 5.80452 47.0557 5.80452C49.2144 5.80452 51.3725 5.08576 51.3725 5.08576C51.3725 5.08576 54.0757 2.86455 52.6316 1.24132C51.0131 -0.580232 42.0202 -0.310995 40.7611 1.48712C39.6499 3.07489 42.3795 5.08576 42.3795 5.08576Z" fill="#312F28"/>
<path d="M46.9132 24.7388C28.6424 24.7388 13.6018 21.8631 10.8884 18.8264C10.3565 19.5368 9.73331 21.4076 15.2406 23.2616V47.0392C15.2406 60.5719 25.6922 71.8258 39.1919 72.7765C41.5537 72.943 44.1463 73.0349 46.9919 73.0379C47.0063 73.0379 47.0202 73.0379 47.034 73.0379C47.0478 73.0379 47.0622 73.0379 47.0761 73.0379C49.8634 73.0349 52.4079 72.946 54.7301 72.7873C68.3133 71.8504 78.8279 60.507 78.8279 46.8931V23.2616C84.3347 21.4076 83.7235 19.5368 83.1916 18.8264C80.4788 21.8631 65.184 24.7388 46.9132 24.7388Z" fill="#F0544A"/>
<path d="M46.9924 73.0379C47.0068 73.0379 47.0207 73.0379 47.0345 73.0379C47.0489 73.0379 47.0621 73.0379 47.0765 73.0379C49.8639 73.0349 52.4084 72.9472 54.7306 72.7873C68.3138 71.8516 78.8284 60.507 78.8284 46.8931V23.2616C64.7356 27.588 48.3152 27.5676 48.3152 27.5676C48.3152 27.5676 49.7539 45.7344 42.7393 57.4252C36.2392 68.2578 21.5574 62.1056 19.4365 61.1422C23.707 67.6826 30.8683 72.1905 39.1924 72.7765C41.5536 72.943 44.1468 73.0349 46.9924 73.0379Z" fill="#DC3731"/>
<path d="M78.8285 23.2616C78.8285 23.2616 67.1191 27.4137 45.7966 27.3879C24.1771 27.3614 15.2412 23.2616 15.2412 23.2616V25.2292C15.2412 25.2292 26.7318 30.4462 46.1565 30.4462C65.5818 30.4462 78.8303 25.4173 78.8303 25.4173L78.8285 23.2616Z" fill="#B02D25"/>
<path d="M37.0848 36.7986C37.1359 36.7896 37.187 36.7866 37.2387 36.7896C37.1738 36.7806 37.1082 36.7728 37.0433 36.765C37.2921 36.8094 36.7873 36.6406 37.0079 36.7638C36.8606 36.6436 36.8216 36.6189 36.8901 36.688C36.9568 36.7602 36.928 36.7235 36.8048 36.5787C36.943 36.771 36.7194 36.3094 36.7849 36.551C36.7735 36.4867 36.7621 36.4218 36.7513 36.3575C36.7903 36.1436 36.7927 36.1003 36.7573 36.2283C36.7819 36.1652 36.8066 36.1021 36.8318 36.039C36.9676 35.8773 37.0019 35.8341 36.934 35.9068C36.8486 35.9867 37.229 35.7463 36.9856 35.8665C36.8709 35.9248 37.3144 35.7667 37.0433 35.8329C36.8901 35.8695 37.3733 35.819 37.1545 35.8082C37.3883 35.8497 37.4382 35.8545 37.3036 35.8232C37.3655 35.8509 37.428 35.8773 37.4905 35.905C37.4051 35.8527 37.4123 35.8617 37.5109 35.9314C37.5968 35.9849 37.6617 36.0588 37.7062 36.1526C37.5884 35.9404 37.7849 36.4591 37.7254 36.2217C37.6623 35.9711 37.7669 36.5588 37.7399 36.3004C37.7164 36.0775 37.6665 36.6063 37.7387 36.3803C37.7116 36.4422 37.6852 36.5035 37.6581 36.5666C37.7098 36.4807 37.6996 36.4867 37.6275 36.5853C37.5494 36.679 37.5433 36.688 37.6107 36.6141C37.4292 36.7421 37.3961 36.7698 37.5103 36.7007C38.0993 36.3575 38.3577 35.5095 37.9773 34.9206C37.595 34.3268 36.827 34.0864 36.1972 34.4524C35.3414 34.9512 34.9333 36.0342 35.2362 36.9789C35.574 38.0294 36.6689 38.6142 37.7351 38.3419C38.8192 38.0649 39.5001 37.0372 39.3048 35.9344C39.1305 34.956 38.1089 34.0714 37.0848 34.197C36.7272 34.2403 36.4297 34.3124 36.1647 34.5774C35.9393 34.8034 35.7693 35.1742 35.7837 35.4975C35.8125 36.1327 36.3612 36.8882 37.0848 36.7986Z" fill="#FFCBCA"/>
<path d="M22.881 47.4249C22.9315 47.4177 22.9826 47.4129 23.0343 47.4159C22.9694 47.4081 22.9039 47.4003 22.839 47.3913C22.9441 47.4111 22.9141 47.3913 22.8618 47.3727C22.7903 47.345 22.6761 47.3192 22.8041 47.3913C22.6563 47.2699 22.6172 47.2453 22.6857 47.3144C22.7524 47.3865 22.7242 47.351 22.6004 47.205C22.6671 47.2975 22.6496 47.2392 22.6214 47.1791C22.5902 47.116 22.5463 47.0529 22.5805 47.1773C22.5691 47.113 22.5583 47.0481 22.5469 46.9838C22.5859 46.7699 22.5883 46.7284 22.5529 46.8558C22.5781 46.7927 22.6028 46.7284 22.6274 46.6653C22.7638 46.5049 22.7975 46.4604 22.7296 46.5343C22.6899 46.5716 22.7524 46.5373 22.8047 46.5049C22.8642 46.4664 22.9105 46.4297 22.7813 46.4946C22.7248 46.5223 22.8029 46.4976 22.8648 46.4742C22.9297 46.4496 22.9772 46.4249 22.839 46.4592C22.6857 46.4958 23.1695 46.4454 22.9501 46.4345C23.1839 46.476 23.2338 46.4808 23.0992 46.4496C23.1617 46.4772 23.2242 46.5049 23.2861 46.5313C23.2013 46.479 23.208 46.488 23.3065 46.5577C23.3925 46.6112 23.4574 46.6851 23.5018 46.7789C23.4441 46.6761 23.4622 46.7483 23.488 46.8204C23.5157 46.8943 23.5517 46.97 23.5211 46.8498C23.4898 46.7236 23.5 46.8065 23.5151 46.8895C23.5295 46.973 23.5493 47.0578 23.5361 46.9279C23.5241 46.8162 23.506 46.8913 23.4994 46.9682C23.4928 47.0433 23.4982 47.1203 23.5343 47.0067C23.5078 47.068 23.4808 47.1299 23.4538 47.193C23.5054 47.1064 23.4952 47.113 23.4231 47.2116C23.345 47.3054 23.339 47.3144 23.4063 47.2404C23.2248 47.3685 23.1917 47.3961 23.3065 47.327C23.8949 46.985 24.1533 46.1359 23.7729 45.5469C23.3906 44.9525 22.6226 44.7146 21.9928 45.0805C21.137 45.5776 20.7289 46.6605 21.0324 47.6052C21.3696 48.6557 22.4645 49.2405 23.5307 48.9683C24.6148 48.6912 25.2957 47.6635 25.1004 46.5619C24.9261 45.5818 23.9045 44.6971 22.881 44.8233C22.5234 44.8666 22.226 44.9387 21.9609 45.2049C21.735 45.4297 21.5649 45.8005 21.5793 46.125C21.6082 46.7591 22.1568 47.5145 22.881 47.4249Z" fill="#FFCBCA"/>
<path d="M26.4147 57.1025C26.1112 57.7455 26.074 58.4391 26.4351 59.0731C26.7128 59.5623 27.1852 59.9607 27.7296 60.1164C29.0265 60.4854 30.154 59.4824 30.2495 58.2161C30.3367 57.0532 29.4033 55.9961 28.2194 56.0286C27.6395 56.0436 27.0644 56.3194 26.6755 56.7467C26.1833 57.2888 26.0211 57.9733 26.1665 58.6837C26.3035 59.3532 27.1299 59.7991 27.7675 59.5929C28.4748 59.364 28.8228 58.7083 28.6762 57.9931C28.6948 58.2191 28.7032 58.2624 28.7026 58.1224C28.7098 58.2624 28.6756 58.3898 28.601 58.5052C28.6125 58.4853 28.6239 58.4637 28.6353 58.4427C28.7098 58.3303 28.6864 58.3609 28.565 58.5334C28.7206 58.3471 28.3324 58.6578 28.5343 58.5581C28.3324 58.6332 28.2958 58.65 28.425 58.6085C28.1954 58.6272 28.1509 58.635 28.2903 58.6284C28.2218 58.6194 28.1533 58.6103 28.0848 58.6007C27.8943 58.507 27.8546 58.4883 27.9646 58.5502C27.7873 58.3994 27.7447 58.37 27.8378 58.4607C27.7939 58.4042 27.7495 58.3483 27.7056 58.2918C27.7687 58.4072 27.7507 58.3579 27.6509 58.1422C27.6641 58.1794 27.6743 58.2191 27.6822 58.2576C27.6719 58.1837 27.6617 58.1085 27.6515 58.0334C27.6545 58.0749 27.6545 58.1145 27.6521 58.156C27.6912 57.9222 27.6996 57.8579 27.6774 57.9607C27.6713 57.9901 27.6635 58.0196 27.6539 58.0484C27.7537 57.8345 27.7729 57.7852 27.7122 57.9024C27.6599 57.9823 27.6713 57.9703 27.7453 57.8657C27.8258 57.7684 27.833 57.7534 27.7669 57.8207C27.8679 57.7119 27.9905 57.641 28.1347 57.6055C28.0319 57.6314 28.0439 57.6314 28.1714 57.6085C28.2765 57.5821 28.3817 57.5869 28.4875 57.6241C28.3583 57.5869 28.3979 57.6067 28.6059 57.6854C28.5199 57.6314 28.5247 57.641 28.6215 57.7101C28.7134 57.787 28.7212 57.7918 28.6455 57.7221C28.5554 57.6223 28.5794 57.6548 28.717 57.8207C28.5878 57.6205 28.7922 58.1055 28.7393 57.8778C28.7597 58.1115 28.7687 58.1608 28.7657 58.0226C28.7699 58.1638 28.7351 58.2948 28.6617 58.4162C28.9514 57.8008 28.8535 56.9841 28.1948 56.6349C27.6173 56.3302 26.7242 56.4456 26.4147 57.1025Z" fill="#FFCBCA"/>
<path d="M70.509 47.3252C69.003 48.1101 69.7872 50.4653 71.372 50.4978C72.9886 50.5314 73.8714 48.413 72.7735 47.2639C71.7945 46.2393 70.0703 46.4484 69.3738 47.6822C68.9519 48.4298 68.9591 49.6203 69.7794 50.0993C70.4369 50.4851 71.387 50.3607 72.0036 49.9593C72.5727 49.5885 72.8642 48.7898 72.4706 48.1792C72.104 47.6101 71.2999 47.3144 70.6899 47.7116C70.5661 47.785 70.5847 47.785 70.7476 47.7128C70.6298 47.7423 70.625 47.7483 70.7344 47.7315C70.8449 47.7219 70.8389 47.7189 70.7175 47.7255C70.9038 47.7573 70.9255 47.7573 70.7818 47.7219C71.0847 48.0254 71.3876 48.327 71.6905 48.6299C71.6436 48.4544 71.6995 48.6774 71.7001 48.7345C71.6629 48.9298 71.6563 48.9773 71.6803 48.8775C71.6995 48.8096 71.6917 48.8234 71.6557 48.9178C71.5415 49.1588 71.768 48.782 71.6106 48.9911C71.5391 49.0777 71.5415 49.0807 71.6178 49.0019C71.5745 49.0374 71.5313 49.0747 71.488 49.1113C71.4441 49.139 71.2314 49.2081 71.3984 49.1636C71.3341 49.1744 71.2692 49.1852 71.2049 49.1961C71 49.1576 70.9483 49.1498 71.0493 49.1714C71.0913 49.1804 71.2734 49.2357 71.0751 49.1714C70.9802 49.1281 70.9627 49.1239 71.0216 49.1588C71.1046 49.2129 71.0661 49.1852 70.908 49.0759C70.7734 48.9436 70.6827 48.6732 70.6743 48.4947C70.6713 48.4346 70.7458 48.2117 70.6857 48.3775C70.7704 48.2008 70.789 48.1558 70.741 48.2423C70.7055 48.3006 70.7175 48.2868 70.777 48.2008C70.8696 48.1005 70.9441 48.0296 71.0697 47.9713C71.4465 47.7946 71.9694 47.9514 72.1845 48.3096C72.2849 48.4773 72.3137 48.6792 72.2765 48.8685C72.2308 49.1035 72.0481 49.4545 71.8227 49.5717C72.4273 49.2561 72.6575 48.3619 72.2897 47.7916C71.8924 47.1762 71.1556 46.9869 70.509 47.3252Z" fill="#FFCBCA"/>
<path d="M65.8684 35.0083C65.5295 36.0696 66.3156 37.2355 67.3787 37.4524C68.6017 37.7018 69.6834 36.7559 69.6552 35.5203C69.6293 34.3694 68.6515 33.4175 67.4833 33.5744C66.9171 33.6495 66.4418 33.9403 66.0938 34.3893C65.6978 34.9037 65.5896 35.5083 65.7212 36.1375C65.8618 36.8034 66.6822 37.2529 67.3222 37.045C68.0271 36.8172 68.3811 36.1585 68.2309 35.4452C68.2513 35.6832 68.2597 35.7343 68.2573 35.5972C68.217 35.825 68.211 35.8863 68.2387 35.7847C68.2687 35.688 68.2453 35.7421 68.169 35.9452C68.2381 35.8328 68.208 35.8665 68.0776 36.048C68.0986 36.0221 68.1221 35.9987 68.1467 35.977C68.2212 35.9109 68.1768 35.9452 68.0133 36.0816C68.2086 35.9494 67.7272 36.1694 67.9394 36.1171C67.7934 36.1603 67.6473 36.1603 67.5013 36.1141C67.6377 36.1543 67.5884 36.1297 67.3534 36.0432C67.5325 36.1375 67.1034 35.8202 67.2519 35.9728C67.1149 35.7817 67.0728 35.7294 67.1251 35.8172C67.1756 35.9079 67.1509 35.8448 67.0505 35.6279C67.0986 35.9206 67.0518 35.3989 67.053 35.5203C67.0554 35.7895 67.1401 35.2018 67.0788 35.4139C67.0217 35.6099 67.2423 35.1128 67.1287 35.2943C67.2819 35.114 67.3222 35.0588 67.2495 35.1327C67.1762 35.2018 67.2284 35.1621 67.4069 35.0095C67.5403 34.9314 67.6852 34.8959 67.8402 34.9001C67.7435 34.8989 67.7627 34.9049 67.8973 34.9175C68.0313 34.9404 68.0506 34.9404 67.9562 34.9175C68.172 35.0191 68.2212 35.0371 68.1041 34.9758C67.9178 34.8695 68.339 35.191 68.1822 35.0263C68.318 35.2156 68.3517 35.2559 68.2837 35.1447C68.3126 35.2126 68.3414 35.2805 68.3697 35.3496C68.3378 35.2174 68.3444 35.2757 68.3907 35.5263C68.3438 35.7739 68.339 35.831 68.3781 35.6988C68.5848 35.0509 68.1353 34.251 67.4688 34.099C66.7585 33.9373 66.0896 34.3123 65.8684 35.0083Z" fill="#FFCBCA"/>
<path d="M45.8953 62.8797C45.9386 63.0209 45.9392 63.1627 45.8965 63.304C45.9254 63.2084 45.9182 63.218 45.8743 63.3334C45.822 63.4458 45.8196 63.4578 45.8683 63.3689C45.7277 63.5377 45.7024 63.5732 45.7932 63.4746C45.6237 63.5948 45.5804 63.6273 45.6634 63.572C45.691 63.5534 45.7205 63.5365 45.7511 63.5209C45.5408 63.6008 45.5005 63.6225 45.6297 63.587C45.5588 63.5978 45.4873 63.6086 45.4158 63.6195C45.182 63.575 45.1327 63.5702 45.2691 63.6026C45.0516 63.5011 44.9993 63.4824 45.1123 63.5473C45.054 63.5023 44.9957 63.4596 44.9374 63.4145C45.0257 63.5089 44.9945 63.4656 44.8424 63.2823C44.8587 63.307 44.8725 63.3316 44.8851 63.358C44.9314 63.4488 44.9061 63.3899 44.8094 63.1796C44.8208 63.2162 44.8304 63.2547 44.837 63.2931C44.8124 63.0515 44.801 62.9842 44.804 63.09C44.8196 63.3622 44.8911 62.7979 44.8136 62.9993C44.843 62.9301 44.8725 62.861 44.9013 62.7931C44.8352 62.9043 44.8707 62.8622 45.0077 62.6687C44.8515 62.8304 45.2757 62.4884 45.087 62.6026C45.3136 62.5161 45.3641 62.4914 45.2373 62.5257C45.4807 62.5023 45.5486 62.4914 45.4416 62.495C45.1646 62.5071 45.7511 62.5642 45.5312 62.5071C45.3244 62.453 45.8274 62.6561 45.6297 62.5455C45.435 62.4361 45.8605 62.7565 45.7169 62.6038C45.8551 62.7979 45.8905 62.8412 45.8226 62.73C45.9074 62.9566 45.9314 63.0053 45.8953 62.8797C45.7229 62.221 44.9572 61.7546 44.2944 61.9704C43.6165 62.1885 43.2012 62.8658 43.3857 63.5702C43.6291 64.4993 44.5708 65.1592 45.5275 65.0919C46.6988 65.0089 47.5354 64.0011 47.3779 62.8316C47.2325 61.7468 46.304 60.8916 45.1766 61.0437C44.6688 61.1116 44.2006 61.3424 43.8629 61.736C43.3971 62.2793 43.2775 62.8731 43.3857 63.5702C43.432 63.8719 43.733 64.2012 43.9836 64.3484C44.2625 64.5119 44.6736 64.581 44.9861 64.4795C45.301 64.3779 45.6051 64.1826 45.7637 63.8809C45.938 63.5516 45.9518 63.2439 45.8953 62.8797Z" fill="#FFCBCA"/>
<path d="M62.8545 58.7515C62.8034 58.7606 62.7523 58.7642 62.7006 58.7624C62.7661 58.7702 62.831 58.778 62.8966 58.7852C62.6478 58.7407 63.1526 58.9102 62.9314 58.787C63.0786 58.9072 63.1183 58.9318 63.0492 58.8621C62.9831 58.79 63.0113 58.8273 63.1351 58.9715C62.9963 58.781 63.2199 59.2407 63.155 58.9991C63.1658 59.064 63.1772 59.1284 63.1886 59.1933C63.149 59.4072 63.1472 59.4499 63.182 59.3225C63.1574 59.3856 63.1327 59.4487 63.1081 59.5118C62.9717 59.6734 62.9374 59.7161 63.0053 59.644C63.0907 59.5641 62.7109 59.8038 62.9542 59.6837C63.069 59.6272 62.6249 59.784 62.896 59.7179C63.0492 59.6806 62.566 59.7317 62.7848 59.7425C62.551 59.7011 62.5017 59.6963 62.6363 59.7269C62.5738 59.7011 62.5113 59.6734 62.4488 59.6452C62.5342 59.6975 62.5276 59.6885 62.429 59.6193C62.3431 59.5653 62.2775 59.4931 62.2337 59.3976C62.3509 59.6103 62.1544 59.0917 62.2138 59.3285C62.2769 59.5791 62.1724 58.9913 62.1994 59.2503C62.2229 59.4733 62.2733 58.9439 62.2006 59.1716C62.2277 59.1085 62.2547 59.0472 62.2812 58.9853C62.2301 59.0701 62.2397 59.064 62.3118 58.9655C62.3905 58.8729 62.3959 58.8621 62.3286 58.936C62.5101 58.8098 62.5438 58.781 62.429 58.8501C61.8406 59.1933 61.5816 60.0406 61.962 60.6302C62.3449 61.2239 63.1129 61.4637 63.7427 61.0977C64.5985 60.5995 65.0066 59.516 64.7031 58.5731C64.3653 57.5207 63.271 56.936 62.2042 57.2082C61.1201 57.4853 60.4392 58.513 60.6351 59.6163C60.8088 60.5947 61.831 61.4794 62.8545 61.355C63.2121 61.3099 63.5095 61.2378 63.7746 60.9733C63.9999 60.7468 64.17 60.376 64.1556 60.0533C64.1273 59.4192 63.5781 58.6626 62.8545 58.7515Z" fill="#FFCBCA"/>
<path d="M58.9347 48.202C59.2382 47.5578 59.2754 46.8654 58.9142 46.2296C58.6366 45.7422 58.1642 45.342 57.6197 45.1869C56.3228 44.8191 55.1954 45.8221 55.1004 47.0866C55.0127 48.2501 55.946 49.3066 57.1299 49.276C57.7099 49.2603 58.285 48.9839 58.6738 48.5578C59.166 48.0145 59.3283 47.33 59.1829 46.619C59.0458 45.9514 58.2195 45.5036 57.5819 45.7098C56.8745 45.9387 56.5266 46.5944 56.6732 47.3114C56.6546 47.0854 56.6462 47.0421 56.6468 47.1804C56.6395 47.0421 56.6738 46.9141 56.7483 46.7975C56.7369 46.8192 56.7255 46.839 56.7141 46.8606C56.6395 46.973 56.663 46.9436 56.7844 46.7711C56.6287 46.9562 57.017 46.6449 56.815 46.7452C57.017 46.6695 57.0536 46.6527 56.9244 46.696C57.154 46.6761 57.199 46.6695 57.059 46.6743C57.1275 46.6833 57.196 46.693 57.2646 46.7038C57.4551 46.7975 57.4947 46.8144 57.3847 46.7543C57.562 46.9039 57.6047 46.9328 57.5116 46.842C57.5554 46.8991 57.5999 46.9562 57.6438 47.0115C57.5807 46.8961 57.5987 46.9466 57.6985 47.1623C57.6852 47.1239 57.675 47.0854 57.6672 47.0451C57.6774 47.1203 57.6876 47.196 57.6979 47.2699C57.6949 47.2296 57.6949 47.1882 57.6973 47.1485C57.6582 47.3823 57.6498 47.4466 57.672 47.342C57.678 47.3126 57.6858 47.2837 57.6955 47.2543C57.5957 47.47 57.5765 47.5193 57.6372 47.4003C57.6894 47.3222 57.6786 47.3342 57.6041 47.4376C57.5236 47.5343 57.5164 47.55 57.5825 47.4838C57.4815 47.5914 57.3589 47.6635 57.2147 47.6972C57.3174 47.6732 57.3054 47.6713 57.178 47.6942C57.0728 47.7218 56.9677 47.7158 56.8619 47.6792C56.9911 47.7176 56.952 47.696 56.7435 47.6173C56.8294 47.6713 56.8246 47.6635 56.7285 47.5926C56.6359 47.5157 56.6281 47.5127 56.7044 47.5806C56.794 47.6804 56.77 47.6485 56.6323 47.4838C56.7615 47.6834 56.5572 47.1972 56.6101 47.4249C56.5897 47.1912 56.5806 47.1437 56.5836 47.2819C56.5794 47.1407 56.6143 47.0085 56.6876 46.8883C56.3979 47.5019 56.4959 48.3204 57.1546 48.6684C57.7321 48.9731 58.6252 48.8589 58.9347 48.202Z" fill="#FFCBCA"/>
<path d="M27.1251 48.9792C26.2585 48.9792 25.4207 48.7256 24.6533 48.267C25.0337 47.8097 25.2134 47.1973 25.1004 46.5621C24.9375 45.645 24.0319 44.8114 23.0769 44.8114C23.012 44.8114 22.9465 44.8162 22.881 44.8234C22.7043 44.8451 22.542 44.8745 22.3912 44.9298C22.2554 44.9563 22.1214 45.0049 21.9927 45.0807C21.9567 45.1005 21.9218 45.1221 21.8876 45.145C21.2842 43.9562 20.8846 42.553 20.768 41.0343C20.4128 36.3972 22.8353 32.4313 26.1785 32.1741C26.2927 32.1663 26.4063 32.1621 26.5193 32.1621C29.7237 32.1621 32.5332 35.6279 32.8764 40.1064C33.2322 44.7423 30.8096 48.7099 27.4658 48.9654C27.3522 48.9744 27.2387 48.9792 27.1251 48.9792Z" fill="#F4847C"/>
<path d="M24.6524 48.267C23.5436 47.6053 22.5808 46.5158 21.8867 45.1449C21.921 45.1221 21.9558 45.1005 21.9919 45.0806C22.1205 45.0049 22.2545 44.9562 22.3903 44.9298C22.5412 44.8745 22.7034 44.8451 22.8801 44.8234C22.9456 44.8162 23.0111 44.8114 23.076 44.8114C24.031 44.8114 24.9367 45.645 25.0995 46.562C25.2125 47.1973 25.0328 47.8097 24.6524 48.267Z" fill="#FFD9D9"/>
<path d="M51.3107 35.7668C51.2669 35.6249 51.2663 35.4837 51.3089 35.3407C51.2801 35.4374 51.2879 35.4266 51.3318 35.3112C51.384 35.1988 51.3858 35.1868 51.3378 35.2758C51.4784 35.1063 51.503 35.0726 51.4123 35.1694C51.5824 35.0498 51.6256 35.0173 51.5427 35.0726C51.5151 35.0925 51.4856 35.1099 51.455 35.1237C51.6647 35.0432 51.705 35.0221 51.5764 35.0588C51.6473 35.048 51.7188 35.0372 51.7903 35.0264C52.0241 35.0696 52.0728 35.0756 51.9369 35.042C52.1545 35.1447 52.2062 35.1634 52.0932 35.0973C52.1515 35.1417 52.2104 35.1868 52.2687 35.2295C52.1797 35.1357 52.2116 35.1802 52.3636 35.3617C52.3474 35.3389 52.333 35.3142 52.321 35.2884C52.2741 35.1958 52.2999 35.2559 52.3967 35.4651C52.3847 35.4278 52.3756 35.3911 52.369 35.3527C52.3937 35.5943 52.4045 35.6604 52.4021 35.554C52.3865 35.2818 52.315 35.8479 52.3925 35.6466C52.363 35.7145 52.3336 35.7836 52.3041 35.8527C52.3708 35.7421 52.3354 35.7818 52.1984 35.9759C52.3546 35.8142 51.9303 36.1556 52.1184 36.042C51.8919 36.1279 51.842 36.1544 51.9682 36.1189C51.7254 36.1436 51.6569 36.1526 51.7639 36.1496C52.0415 36.1376 51.455 36.0805 51.6749 36.1376C51.8816 36.191 51.3786 35.9897 51.5758 36.0991C51.7711 36.2079 51.3456 35.8894 51.4892 36.0402C51.351 35.8467 51.3155 35.8052 51.3834 35.9158C51.2987 35.688 51.2747 35.6387 51.3107 35.7668C51.4832 36.4248 52.2482 36.8894 52.9111 36.676C53.589 36.4561 54.0049 35.7806 53.8204 35.0744C53.577 34.1465 52.6347 33.4849 51.6785 33.5528C50.5066 33.6375 49.6707 34.6447 49.8275 35.8142C49.9736 36.8972 50.9021 37.753 52.0295 37.6021C52.5367 37.533 53.0055 37.3022 53.3426 36.908C53.809 36.3653 53.928 35.771 53.8204 35.0744C53.7735 34.7739 53.473 34.4434 53.2224 34.2974C52.9436 34.1345 52.5325 34.0648 52.2194 34.1652C51.9045 34.2679 51.601 34.4632 51.4417 34.7637C51.2681 35.0925 51.2542 35.402 51.3107 35.7668Z" fill="#FFCBCA"/>
<path d="M41.8561 49.9743C42.1596 49.3313 42.1962 48.6378 41.8357 48.0037C41.558 47.5145 41.0856 47.1143 40.5412 46.9604C39.2443 46.5914 38.1162 47.5945 38.0213 48.8589C37.9341 50.0224 38.8668 51.0789 40.0514 51.0483C40.6307 51.0332 41.2064 50.7562 41.5947 50.3301C42.0875 49.7886 42.2491 49.1023 42.1037 48.3914C41.9673 47.7237 41.1409 47.2759 40.5033 47.4839C39.7953 47.7117 39.448 48.3685 39.5946 49.0837C39.576 48.8577 39.567 48.8144 39.5676 48.9527C39.561 48.8144 39.5946 48.687 39.6697 48.5698C39.6583 48.5915 39.6469 48.6131 39.6355 48.6348C39.561 48.7465 39.5844 48.7159 39.7058 48.5434C39.5495 48.7285 39.9378 48.4178 39.7359 48.5194C39.9384 48.4424 39.975 48.4268 39.8458 48.4683C40.0748 48.4484 40.1199 48.4424 39.9804 48.4484C40.049 48.4575 40.1169 48.4665 40.1854 48.4761C40.3759 48.5698 40.4162 48.5867 40.3062 48.5266C40.4835 48.6774 40.5255 48.7069 40.4324 48.6161C40.4769 48.6714 40.5207 48.7285 40.5652 48.785C40.5015 48.6696 40.5201 48.7189 40.6199 48.9346C40.6067 48.8962 40.5958 48.8577 40.588 48.8192C40.5982 48.8932 40.6085 48.9683 40.6187 49.0434C40.6163 49.0019 40.6163 48.9623 40.6181 48.9208C40.5796 49.1546 40.5712 49.2189 40.5934 49.1161C40.5989 49.0855 40.6067 49.056 40.6163 49.0266C40.5171 49.2423 40.4979 49.2916 40.5586 49.1744C40.6103 49.0945 40.5995 49.1065 40.5255 49.2099C40.4444 49.3084 40.4372 49.3235 40.5033 49.2562C40.4023 49.3637 40.2797 49.4358 40.1361 49.4713C40.2389 49.4455 40.2262 49.4437 40.0994 49.4683C39.9943 49.4947 39.8885 49.4899 39.7833 49.4527C39.9125 49.4899 39.8729 49.4701 39.6649 49.3914C39.7509 49.4455 39.7455 49.4358 39.6493 49.3655C39.5574 49.2898 39.5489 49.285 39.6253 49.3547C39.7154 49.4545 39.6914 49.4208 39.5532 49.2562C39.683 49.4563 39.478 48.9713 39.5315 49.1991C39.5105 48.9635 39.5021 48.916 39.5051 49.0542C39.5009 48.913 39.5357 48.782 39.609 48.6606C39.3194 49.276 39.4173 50.0927 40.076 50.4407C40.6535 50.7466 41.546 50.6312 41.8561 49.9743Z" fill="#FFCBCA"/>
<path d="M20.9894 35.322C20.9456 35.1801 20.945 35.0389 20.9876 34.8959C20.9588 34.9926 20.9666 34.9836 21.0105 34.8664C21.0628 34.754 21.0646 34.742 21.0165 34.831C21.1571 34.6633 21.1817 34.6278 21.091 34.7252C21.2611 34.605 21.3043 34.5725 21.2214 34.6278C21.1938 34.6483 21.1643 34.6651 21.1337 34.6789C21.3434 34.599 21.3837 34.5774 21.2551 34.614C21.326 34.6032 21.3975 34.5924 21.4684 34.5816C21.7028 34.6248 21.7515 34.6308 21.6156 34.5972C21.8332 34.7006 21.8855 34.7186 21.7719 34.6525C21.8302 34.6969 21.8891 34.742 21.9474 34.7865C21.8584 34.6909 21.8903 34.7354 22.0423 34.9175C22.0261 34.8941 22.0117 34.8694 21.9991 34.8436C21.9528 34.751 21.978 34.8111 22.0754 35.0203C22.0634 34.9836 22.0544 34.9463 22.0477 34.9079C22.0724 35.1495 22.0832 35.2156 22.0808 35.1098C22.0652 34.837 21.9937 35.4037 22.0706 35.2018C22.0417 35.2709 22.0123 35.3388 21.9828 35.4079C22.0496 35.2973 22.0141 35.337 21.8771 35.5311C22.0333 35.3694 21.609 35.7114 21.7971 35.5972C21.5706 35.6831 21.5207 35.7096 21.6469 35.6741C21.4041 35.6988 21.3356 35.7078 21.4426 35.7048C21.7202 35.6928 21.1337 35.6357 21.3536 35.6928C21.5604 35.7462 21.0573 35.5449 21.2545 35.6543C21.4498 35.7637 21.0243 35.4452 21.1679 35.596C21.0297 35.4019 20.9942 35.3604 21.0622 35.471C20.9774 35.2432 20.9534 35.194 20.9894 35.322C21.1619 35.9806 21.927 36.4452 22.5898 36.2312C23.2677 36.0113 23.6836 35.3358 23.4991 34.6296C23.2557 33.7017 22.3134 33.0401 21.3572 33.1098C20.1853 33.1927 19.3494 34.2005 19.5062 35.3694C19.6523 36.4524 20.5808 37.3082 21.7082 37.1573C22.2154 37.0882 22.6842 36.8574 23.0213 36.4632C23.4877 35.9205 23.6067 35.328 23.4991 34.6296C23.4522 34.3297 23.1517 33.9986 22.9011 33.8526C22.6217 33.6897 22.2112 33.62 21.8981 33.7204C21.5832 33.8231 21.2797 34.019 21.1204 34.3189C20.9468 34.6483 20.9329 34.9572 20.9894 35.322Z" fill="#FFCBCA"/>
</svg>
