<svg width="120" height="100" viewBox="0 0 120 100" fill="none" xmlns="http://www.w3.org/2000/svg">
<path d="M15.9632 34.4739C15.9632 35.2151 15.4344 35.8163 14.7803 35.8163H6.23264C5.5786 35.8163 5.0498 35.2151 5.0498 34.4739C5.0498 33.7328 5.5786 33.1316 6.23264 33.1316H14.7803C15.4344 33.1316 15.9632 33.7328 15.9632 34.4739Z" fill="#656A6E"/>
<path d="M6.48818 33.2414C6.48818 33.2414 6.3351 34.9203 7.10394 35.4232C7.87626 35.9261 6.7978 38.278 4.17122 38.6146C1.54464 38.9473 0 37.605 0 34.9203C0 32.2355 1.54464 31.7326 2.47003 31.5625C3.3989 31.3961 5.71586 31.3961 6.48818 33.2414Z" fill="#36373B"/>
<path d="M3.39984 32.3451C3.39984 32.3451 0.209677 31.6758 0.515822 35.2567C0.825445 35.7029 0.414934 33.0182 3.39984 32.3451Z" fill="white"/>
<path d="M5.45769 32.3451C5.45769 32.3451 5.87168 35.1432 4.84192 36.0394C4.24355 36.5575 2.98766 36.928 1.91963 36.928C1.14384 36.928 0.465448 36.7352 0.208008 36.2625C0.208008 36.7579 1.17515 38.4821 3.68344 38.4821C4.00698 38.4821 4.35835 38.4519 4.73755 38.3876C6.59182 37.7183 7.41284 36.4856 7.00233 36.0394C6.59182 35.5932 6.38308 33.2413 6.23001 33.1316C6.07694 33.0182 6.17782 32.572 5.45769 32.3451Z" fill="#303134"/>
<path d="M8.56137 33.1428C8.56137 33.1428 5.77824 34.9465 8.3422 35.7028C9.88684 35.8162 12.256 35.7028 12.256 35.7028C12.256 35.7028 12.7709 33.2411 12.256 33.2411C11.7376 33.2411 8.56137 33.1428 8.56137 33.1428Z" fill="#53575C"/>
<path d="M103.647 34.4739C103.647 35.2151 104.176 35.8163 104.83 35.8163H113.378C114.032 35.8163 114.561 35.2151 114.561 34.4739C114.561 33.7328 114.032 33.1316 113.378 33.1316H104.83C104.176 33.1316 103.647 33.7328 103.647 34.4739Z" fill="#656A6E"/>
<path d="M113.12 33.2414C113.12 33.2414 113.273 34.9203 112.501 35.4232C111.729 35.9261 112.811 38.278 115.437 38.6146C118.064 38.9473 119.608 37.605 119.608 34.9203C119.608 32.2355 118.064 31.7326 117.135 31.5625C116.209 31.3961 113.893 31.3961 113.12 33.2414Z" fill="#36373B"/>
<path d="M116.209 32.3451C116.209 32.3451 119.399 31.6758 119.093 35.2567C118.783 35.7029 119.194 33.0182 116.209 32.3451Z" fill="white"/>
<path d="M114.149 32.3451C113.426 32.572 113.53 33.0182 113.377 33.1316C113.224 33.2413 113.015 35.5932 112.605 36.0394C112.191 36.4856 113.015 37.7183 114.87 38.3876C115.245 38.4519 115.597 38.4821 115.924 38.4821C118.432 38.4821 119.399 36.7579 119.399 36.2625C119.142 36.7352 118.463 36.928 117.687 36.928C116.619 36.928 115.364 36.5575 114.765 36.0394C113.735 35.1432 114.149 32.3451 114.149 32.3451Z" fill="#303134"/>
<path d="M111.047 33.1428C111.047 33.1428 113.827 34.9465 111.267 35.7028C109.722 35.8162 107.353 35.7028 107.353 35.7028C107.353 35.7028 106.838 33.2411 107.353 33.2411C107.868 33.2411 111.047 33.1428 111.047 33.1428Z" fill="#53575C"/>
<path d="M18.4856 21.5155L10.6094 24.2002L17.5602 88.5048C17.5602 94.6683 36.4055 99.6672 59.6516 99.6672C82.8977 99.6672 101.743 94.6683 101.743 88.5048L108.694 25.4632L18.4856 21.5155Z" fill="#54585C"/>
<path d="M101.785 88.0852L101.74 88.5049C101.74 88.5163 101.74 88.5276 101.74 88.539C101.765 88.3877 101.778 88.2365 101.785 88.0852ZM97.242 93.534C96.2679 94.0407 95.1511 94.5323 93.9022 94.9936C93.6761 95.0995 93.443 95.2016 93.2099 95.3037C94.7093 94.7667 96.0696 94.1769 97.242 93.534ZM81.4477 98.0565C75.0917 99.0812 67.6294 99.6673 59.6488 99.6673C58.5982 99.6673 57.5545 99.6597 56.5247 99.6408C56.0655 99.6597 55.6028 99.6673 55.1332 99.6673C55.1053 99.6673 55.081 99.6673 55.0566 99.6673C55.9681 99.8828 57.8502 100 60.362 100C65.7926 100 74.1594 99.4442 81.9556 98.0981C81.7782 98.0905 81.6077 98.0792 81.4477 98.0565Z" fill="#DBDCD9"/>
<path d="M108.351 26.6582C108.347 26.6582 108.347 26.6582 108.347 26.6582C108.344 26.7074 108.337 26.7603 108.33 26.8132C108.333 26.8132 108.333 26.8132 108.333 26.8132C108.337 26.7603 108.344 26.7074 108.351 26.6582ZM108.205 28.0195H108.201C107.54 34.2246 106.086 47.8334 104.726 60.5688C106.1 47.6973 107.544 34.1868 108.205 28.0195ZM95.2492 30.4281C89.1472 31.3432 83.1147 31.9482 77.2423 32.3188C81.8484 35.0602 86.3988 40.6301 86.0892 51.9323C85.4839 73.9508 78.787 98.654 56.5254 99.6409C57.5551 99.6598 58.5988 99.6674 59.6495 99.6674C67.6301 99.6674 75.0924 99.0813 81.4483 98.0565C81.3057 98.0414 81.17 98.0187 81.0448 97.9922C96.3624 96.1243 97.7262 80.8668 99.1143 52.1554C99.7161 39.7263 97.7157 33.4986 95.2492 30.4281ZM101.79 88.0626C101.522 90.5431 98.0358 93.0879 93.9029 94.9937C95.1518 94.5324 96.2685 94.0408 97.2426 93.5341C99.7718 92.1388 101.435 90.4864 101.741 88.539C101.741 88.5277 101.741 88.5163 101.741 88.505L101.786 88.0853C101.786 88.0777 101.786 88.0701 101.79 88.0626Z" fill="#4A4D51"/>
<path d="M108.347 26.6582C108.194 26.7111 108.034 26.7679 107.867 26.8208C108.055 26.817 108.208 26.8132 108.33 26.8132C108.337 26.7603 108.344 26.7074 108.347 26.6582Z" fill="#404347"/>
<path d="M93.2094 95.3035C89.9496 96.4757 86.0324 97.3945 81.9551 98.0978C82.0873 98.1054 82.2264 98.1092 82.3691 98.1092C85.0722 98.1092 89.3547 96.9899 93.2094 95.3035Z" fill="#DBDCD9"/>
<path d="M104.726 60.5686C103.477 72.2377 102.288 83.3849 101.79 88.0624C102.034 85.7709 103.331 73.6292 104.726 60.5686Z" fill="#4A4D51"/>
<path d="M93.9037 94.9935C90.5848 96.2262 86.3441 97.2699 81.4492 98.0564C81.6092 98.0791 81.7797 98.0904 81.9571 98.098C86.0344 97.3947 89.9517 96.4758 93.2114 95.3036C93.4445 95.2015 93.6776 95.0994 93.9037 94.9935Z" fill="#BDBFBE"/>
<path d="M108.2 28.0194C103.873 28.9912 99.5448 29.7853 95.2484 30.4281C97.7149 33.4985 99.7153 39.7263 99.1134 52.1554C97.7253 80.8667 96.3616 96.1242 81.0439 97.9922C81.1692 98.0187 81.3049 98.0413 81.4475 98.0565C86.3423 97.27 90.5831 96.2263 93.902 94.9936C98.035 93.0878 101.521 90.543 101.789 88.0625C102.286 83.3851 103.476 72.2378 104.725 60.5688C106.085 47.8334 107.539 34.2245 108.2 28.0194Z" fill="#404347"/>
<path d="M19.3604 35.5894C19.3604 35.5894 28.3186 35.4797 28.7325 35.5894C29.1431 35.7028 33.777 74.877 32.6463 81.706C32.0271 82.6022 26.9792 82.8253 26.9792 82.8253L19.3604 35.5894Z" fill="white"/>
<path d="M28.1129 85.9562C28.2173 86.4062 27.4937 93.0083 30.482 92.6755C33.4669 92.339 32.2319 84.8407 32.2319 84.8407L28.1129 85.9562Z" fill="white"/>
<path d="M10.916 26.8055C10.916 26.8055 17.5573 85.5668 17.5573 88.5049C17.5573 91.4391 22.1912 93.6247 22.8069 93.7949C17.8669 89.764 14.0053 45.1032 13.8487 36.376C13.7548 30.9423 15.4525 29.3466 16.7467 28.9155C13.8696 28.4088 11.9945 28.0118 11.3335 27.8719C11.3787 27.9815 11.3787 27.9815 11.3787 27.9815L11.0691 27.8114C11.0691 27.8114 11.1595 27.8303 11.3335 27.8719C11.2813 27.7395 11.1665 27.4484 10.916 26.8055Z" fill="#3C3E42"/>
<path d="M108.694 26.8055C108.694 26.8055 108.645 26.8055 108.543 26.8093L108.498 27.2215C108.592 26.987 108.694 26.8055 108.694 26.8055Z" fill="#C6C9C8"/>
<path d="M108.543 26.8093C108.487 26.8093 108.417 26.8093 108.334 26.8131C108.296 27.1761 108.25 27.5807 108.205 28.0193C108.264 28.008 108.323 27.9929 108.383 27.9815C108.302 27.8038 108.393 27.4824 108.497 27.2215L108.543 26.8093Z" fill="#43464A"/>
<path d="M108.334 26.8131C108.334 26.8131 108.334 26.8131 108.33 26.8131C108.295 27.1761 108.25 27.5807 108.201 28.0193H108.205C108.25 27.5807 108.295 27.1761 108.334 26.8131Z" fill="#3B3D41"/>
<path d="M10.916 26.8055C10.916 26.8055 15.3899 28.4277 17.3485 28.7832C17.4599 28.7718 17.5642 28.768 17.6582 28.768C17.9747 28.768 18.173 28.821 18.173 28.821C18.1243 28.8437 18.0478 28.8512 17.9469 28.8512C17.7938 28.8512 17.5921 28.8285 17.3485 28.7832C17.1676 28.8021 16.9624 28.8437 16.7467 28.9155C25.0822 30.3789 41.8575 32.7875 62.0665 32.7875C66.9474 32.7875 72.0301 32.6476 77.2415 32.3187C75.7839 31.4527 74.3227 30.8666 73.0077 30.4734C68.7704 30.602 64.3 30.6662 59.6487 30.6662C37.2688 30.6662 18.9349 29.1083 11.7301 26.9152C11.4205 26.8812 11.1491 26.8434 10.916 26.8055Z" fill="#43464A"/>
<path d="M94.0363 29.184C88.1604 29.7852 81.0078 30.2352 73.0098 30.4734C74.3248 30.8666 75.7859 31.4527 77.2436 32.3186C83.116 31.9481 89.1484 31.3431 95.2505 30.428C94.8539 29.9364 94.4468 29.5243 94.0363 29.184Z" fill="#3B3D41"/>
<path d="M108.329 26.8131C108.207 26.8131 108.054 26.8169 107.866 26.8207C105.017 27.7357 100.237 28.5449 94.0342 29.184C94.4447 29.5243 94.8517 29.9365 95.2483 30.428C99.5448 29.7852 103.873 28.9911 108.2 28.0193C108.249 27.5807 108.294 27.1761 108.329 26.8131Z" fill="#333539"/>
<path d="M10.916 26.8055C11.1665 27.4484 11.2813 27.7395 11.3335 27.8719C11.9945 28.0118 13.8696 28.4088 16.7467 28.9155C16.9624 28.8437 17.1676 28.8021 17.3485 28.7832C15.3899 28.4277 10.916 26.8055 10.916 26.8055ZM11.0691 27.8114L11.3787 27.9815C11.3787 27.9815 11.3787 27.9815 11.3335 27.8719C11.1595 27.8303 11.0691 27.8114 11.0691 27.8114ZM17.6582 28.768C17.5642 28.768 17.4599 28.7718 17.3485 28.7832C17.5921 28.8285 17.7938 28.8512 17.9469 28.8512C18.0478 28.8512 18.1243 28.8437 18.173 28.821C18.173 28.821 17.9747 28.768 17.6582 28.768Z" fill="#2F3235"/>
<path d="M110.855 24.8241C110.855 28.0495 88.6453 30.6662 59.6485 30.6662C30.6518 30.6662 8.44238 28.0495 8.44238 24.8241C8.44238 21.5986 30.6518 15.3898 59.6485 15.3898C88.6453 15.3898 110.855 21.5986 110.855 24.8241Z" fill="#A1A6A9"/>
<path d="M108.694 24.2002C108.694 27.2176 86.735 29.6604 59.6516 29.6604C32.5683 29.6604 10.6094 27.2176 10.6094 24.2002C10.6094 21.1903 32.5683 15.3898 59.6516 15.3898C86.735 15.3898 108.694 21.1903 108.694 24.2002Z" fill="#F8F78E"/>
<path d="M17.2004 24.7333C17.2004 24.7333 22.036 20.0332 43.8697 16.6754C42.6347 16.7889 27.3936 23.391 24.8192 26.0757C22.6553 26.3026 15.1408 25.4064 17.2004 24.7333Z" fill="white"/>
<path d="M63.8358 15.318C63.38 15.318 62.9382 15.3218 62.5068 15.3331C62.5068 15.3331 62.5799 15.3596 62.7086 15.4125C64.4446 15.439 66.1562 15.4844 67.8365 15.5524C67.3251 15.4768 67.0399 15.4466 67.0399 15.4466C67.9026 15.5033 68.755 15.5676 69.5899 15.6318C70.0213 15.6545 70.4492 15.6772 70.8771 15.6999C70.8771 15.6659 70.8771 15.6356 70.8736 15.6016C68.334 15.4201 65.9475 15.318 63.8358 15.318Z" fill="#FDEEBB"/>
<path d="M62.7061 15.4124H62.7095C64.4768 15.4426 66.2198 15.4918 67.9279 15.5674C67.8966 15.5636 67.8653 15.556 67.834 15.5523C66.1537 15.4842 64.442 15.4388 62.7061 15.4124ZM69.5873 15.6317C69.7752 15.6468 69.9665 15.6619 70.1544 15.677C70.3945 15.6884 70.6345 15.7035 70.878 15.7186C70.8745 15.7111 70.8745 15.7073 70.8745 15.6997C70.4466 15.677 70.0187 15.6544 69.5873 15.6317ZM105.17 26.2382C103.089 26.8129 100.15 27.3385 96.535 27.7999C99.9061 27.3915 102.957 26.881 105.17 26.2382Z" fill="#9F9A81"/>
<path d="M62.71 15.4124C64.2476 16.04 73.9121 20.3545 72.3918 29.3237C75.3384 29.2557 87.1598 28.9305 96.5354 27.7999C100.15 27.3385 103.09 26.8129 105.17 26.2382C105.883 26.0302 106.509 25.8109 107.031 25.5727C103.34 27.1192 94.5525 28.0267 91.5467 28.2045C88.774 22.3019 81.4022 19.0084 75.4602 17.2501C73.2372 17.1253 71.2089 17.0118 71.0524 16.785C70.9724 16.6715 70.9272 16.4182 70.8993 16.1043C69.6365 15.8434 68.6067 15.6695 67.9283 15.5674C66.2202 15.4918 64.4773 15.4426 62.71 15.4124ZM70.1548 15.677C70.3984 15.696 70.6349 15.7149 70.8785 15.7338C70.8785 15.73 70.8785 15.7224 70.8785 15.7186C70.6349 15.7035 70.3949 15.6884 70.1548 15.677Z" fill="#FAE96C"/>
<path d="M105.009 21.6215C107.18 22.4836 108.46 23.3117 108.665 24.0112C108.689 24.0793 108.7 24.1436 108.693 24.2003C108.933 23.4214 107.521 22.529 105.009 21.6215Z" fill="#9F9A81"/>
<path d="M80.8877 16.6302C80.919 16.6794 80.9468 16.7248 80.9747 16.7739C98.6858 18.9784 108.072 22.3551 108.663 24.0113C108.458 23.3118 107.178 22.4837 105.007 21.6216C99.9208 19.7801 90.3295 17.8592 80.8877 16.6302Z" fill="#FAE96C"/>
<path d="M67.04 15.4464C67.04 15.4464 67.3253 15.4767 67.8367 15.5523C68.4246 15.5788 69.0091 15.6014 69.5901 15.6317C68.7551 15.5674 67.9028 15.5031 67.04 15.4464Z" fill="#FDDF8D"/>
<path d="M67.8359 15.5524C67.8672 15.5561 67.8986 15.5637 67.9299 15.5675C68.6778 15.6015 69.4188 15.6356 70.1564 15.6772C69.9685 15.662 69.7772 15.6469 69.5893 15.6318C69.0083 15.6015 68.4239 15.5788 67.8359 15.5524Z" fill="#9E9165"/>
<path d="M67.9277 15.5675C68.6061 15.6696 69.6359 15.8435 70.8987 16.1044C70.8883 15.991 70.8813 15.8662 70.8779 15.7339C70.6343 15.715 70.3978 15.6961 70.1542 15.6772C69.4167 15.6356 68.6757 15.6015 67.9277 15.5675Z" fill="#FBD854"/>
<path d="M108.693 24.2002C108.526 24.7069 107.941 25.1606 107.033 25.5728C108.018 25.1606 108.637 24.7031 108.693 24.2002Z" fill="#FAE96C"/>
<path d="M108.663 24.011C108.681 24.0753 108.691 24.1396 108.691 24.2001C108.698 24.1433 108.688 24.079 108.663 24.011Z" fill="#9E9165"/>
<path d="M80.976 16.7737C81.2891 17.2879 81.4213 17.7946 81.1047 17.7946C81.0734 17.7946 81.0351 17.7871 80.9934 17.7757C79.9984 17.511 77.6362 17.3749 75.4619 17.2501C81.4039 19.0084 88.7757 22.3019 91.5484 28.2045C94.5542 28.0268 103.342 27.1193 107.033 25.5727C107.941 25.1606 108.526 24.7068 108.693 24.2001C108.693 24.1396 108.682 24.0754 108.665 24.0111C108.073 22.3549 98.6871 18.9782 80.976 16.7737Z" fill="#FBD854"/>
<path d="M80.9918 17.7758C81.8197 18.0027 80.7169 15.9646 79.8924 15.7226C77.3598 14.9966 74.7645 13.9076 74.0026 13.2761C74.0548 11.8317 74.5175 10.8334 74.8376 8.59865C74.9419 8.07305 75.1124 6.53785 74.0026 4.89299C71.877 1.73939 66.3525 0.0983133 57.5856 0.00378129L57.5334 0H57.2551L57.2029 0.00378129C48.4361 0.0983133 42.9116 1.73939 40.7859 4.89299C39.6762 6.53785 39.8466 8.07305 39.951 8.59865C40.2711 10.8334 40.7338 11.8317 40.7825 13.2761C40.0241 13.9076 37.4253 14.9966 34.8961 15.7226C34.0716 15.9646 33.5811 16.8797 33.8003 17.7758C33.8003 17.7758 42.7341 16.6755 43.8683 16.6755C44.3831 16.2293 43.8717 13.7904 43.8717 13.7904C43.5065 11.5254 43.1551 9.1356 42.9985 8.0239C42.9846 7.94449 42.9672 7.8613 42.9464 7.78568C42.9429 7.7819 42.9464 7.36973 43.2803 6.87439C43.9726 5.84587 46.7384 3.44854 57.3943 3.35779C68.0467 3.44854 70.8159 5.84587 71.5082 6.87439C71.8422 7.36973 71.8457 7.7819 71.8422 7.78568C71.8213 7.8613 71.8039 7.94449 71.7935 8.0239C71.6335 9.1356 71.2091 11.8052 70.9168 13.7904C70.9168 13.7904 70.7429 16.339 71.0525 16.7851C71.3621 17.2351 78.9809 17.2351 80.9918 17.7758Z" fill="#36373B"/>
<path d="M45.5146 2.45793C45.5146 2.45793 56.3271 -2.07206 70.7716 2.88143C68.0684 2.20836 56.7133 -0.476353 45.5146 2.45793Z" fill="white"/>
<path d="M39.9502 8.59863C39.9502 8.59863 41.1887 13.2042 41.0356 13.4576C40.8791 13.7109 40.726 13.8773 40.726 13.8773C40.726 13.8773 42.8099 13.7109 42.1141 12.7845C41.4218 11.8619 39.9502 8.59863 39.9502 8.59863Z" fill="#303134"/>
<path d="M74.0039 13.276C74.1709 13.4121 74.4214 13.5709 74.7414 13.7449C74.3935 13.5369 74.1048 13.3554 74.0039 13.276Z" fill="#87898B"/>
<path d="M74.4795 9.92969C74.4795 9.92969 72.7783 12.9547 72.3922 13.5408C72.006 14.1269 76.4068 14.7168 76.4068 14.7168C76.4068 14.7168 75.4536 14.1723 74.7404 13.745C74.4204 13.5711 74.1699 13.4123 74.0029 13.2761C73.7072 13.0379 74.4795 9.92969 74.4795 9.92969Z" fill="#303134"/>
</svg>
