<svg width="96" height="73" viewBox="0 0 96 73" fill="none" xmlns="http://www.w3.org/2000/svg">
<path fill-rule="evenodd" clip-rule="evenodd" d="M13.6553 66.4528H81.9834V14.9268H13.6553V66.4528Z" fill="#A5C3D2"/>
<path fill-rule="evenodd" clip-rule="evenodd" d="M59.3584 14.9268H74.7126V66.458H59.3584V14.9268Z" fill="#8FADC4"/>
<path fill-rule="evenodd" clip-rule="evenodd" d="M24.8223 14.9268H33.6504V66.458H24.8223V14.9268Z" fill="#D1DDDF"/>
<path fill-rule="evenodd" clip-rule="evenodd" d="M13.7393 24.0728H2.66113C-0.885743 24.0728 -0.885743 29.4425 2.66113 29.4425H13.7393V24.0728Z" fill="#A5C3D2"/>
<path fill-rule="evenodd" clip-rule="evenodd" d="M81.6035 24.2446H92.6816C96.2233 24.2446 96.2233 29.6144 92.6816 29.6144H81.6035V24.2446Z" fill="#A5C3D2"/>
<path fill-rule="evenodd" clip-rule="evenodd" d="M13.7386 24.7236H2.66048C1.55111 24.7236 0.79069 25.2445 0.374023 25.9684H13.7386V24.7236Z" fill="#D1DDDF"/>
<path fill-rule="evenodd" clip-rule="evenodd" d="M81.6035 24.9009H92.6816C93.791 24.9009 94.5514 25.4217 94.9681 26.1405H81.6035V24.9009Z" fill="#D1DDDF"/>
<path fill-rule="evenodd" clip-rule="evenodd" d="M0.00475073 26.5781C-0.0733733 27.9792 0.812042 29.4427 2.661 29.4427H13.7391V26.5781H0.00475073Z" fill="#8FADC4"/>
<path fill-rule="evenodd" clip-rule="evenodd" d="M95.3327 26.7549C95.4108 28.1559 94.5306 29.6143 92.6816 29.6143H81.6035V26.7549H95.3327Z" fill="#8FADC4"/>
<path fill-rule="evenodd" clip-rule="evenodd" d="M81.6872 13.6353C81.6872 9.74463 66.3018 6.58838 47.3278 6.58838C28.359 6.58838 12.9736 9.74463 12.9736 13.6353H81.6872Z" fill="#D1DDDF"/>
<path fill-rule="evenodd" clip-rule="evenodd" d="M10.6344 12.0469H84.0251C85.8844 12.0469 87.4105 12.8073 87.4105 13.7448C87.4105 14.6875 85.8844 15.4531 84.0251 15.4531H10.6344C8.77506 15.4531 7.24902 14.6875 7.24902 13.7448C7.24902 12.8073 8.77506 12.0469 10.6344 12.0469Z" fill="#8FADC4"/>
<path fill-rule="evenodd" clip-rule="evenodd" d="M43.015 6.76042H43.0306C43.0202 6.77604 43.015 6.79167 43.015 6.79688C43.015 7.00521 44.7285 7.17188 46.8483 7.17188C48.9681 7.17188 50.6868 7.00521 50.6868 6.79688C50.6868 6.79167 50.6816 6.77604 50.6712 6.76042H50.6868V4.28646C51.916 3.84375 52.6921 3.18229 52.6921 2.44792C52.6921 1.09375 50.0775 0 46.8483 0C43.6243 0 41.0098 1.09375 41.0098 2.44792C41.0098 3.18229 41.7858 3.84375 43.015 4.28646V6.76042Z" fill="#456776"/>
<path fill-rule="evenodd" clip-rule="evenodd" d="M13.5771 66.0986H82.0928C82.0928 73.7184 80.5251 72.2288 73.4209 72.2288H21.6917C14.8376 72.2288 13.5771 73.3018 13.5771 66.0986Z" fill="#96B3C4"/>
</svg>
