<svg width="120" height="100" viewBox="0 0 120 100" fill="none" xmlns="http://www.w3.org/2000/svg">
<path d="M15.9623 34.4728C15.9623 35.2139 15.4335 35.8189 14.7795 35.8189H6.23216C5.57815 35.8189 5.0459 35.2139 5.0459 34.4728C5.0459 33.7317 5.57815 33.1305 6.23216 33.1305H14.7795C15.4335 33.1305 15.9623 33.7317 15.9623 34.4728Z" fill="#656A6E"/>
<path d="M6.48793 33.2438C6.48793 33.2438 6.33138 34.9226 7.10367 35.4255C7.87596 35.9284 6.79754 38.2803 4.17106 38.6168C1.54458 38.9496 0 37.6073 0 34.9226C0 32.2343 1.54458 31.7314 2.46994 31.5612C3.39877 31.3948 5.71564 31.3948 6.48793 33.2438Z" fill="#36373B"/>
<path d="M3.39822 32.3478C3.39822 32.3478 0.204693 31.6748 0.514305 35.2556C0.823916 35.7055 0.41342 33.0171 3.39822 32.3478Z" fill="white"/>
<path d="M5.45609 32.3478C5.45609 32.3478 5.87006 35.1458 4.83686 36.0382C4.24199 36.56 2.98615 36.9305 1.91469 36.9305C1.1424 36.9305 0.464034 36.7339 0.203125 36.265C0.203125 36.7604 1.17371 38.4846 3.68191 38.4846C4.00891 38.4846 4.35679 38.4543 4.73598 38.3901C6.59017 37.7208 7.41116 36.4881 7.00067 36.0382C6.59017 35.592 6.38144 33.2439 6.22838 33.1305C6.07531 33.017 6.1762 32.5709 5.45609 32.3478Z" fill="#303134"/>
<path d="M8.55685 33.1418C8.55685 33.1418 5.7773 34.9492 8.33769 35.7055C9.88575 35.8151 12.2548 35.7055 12.2548 35.7055C12.2548 35.7055 12.7697 33.2402 12.2548 33.2402C11.7399 33.2402 8.55685 33.1418 8.55685 33.1418Z" fill="#53575C"/>
<path d="M103.64 34.4728C103.64 35.2139 104.172 35.8189 104.826 35.8189H113.373C114.027 35.8189 114.556 35.2139 114.556 34.4728C114.556 33.7317 114.027 33.1305 113.373 33.1305H104.826C104.172 33.1305 103.64 33.7317 103.64 34.4728Z" fill="#656A6E"/>
<path d="M113.116 33.2438C113.116 33.2438 113.269 34.9226 112.497 35.4255C111.725 35.9284 112.807 38.2803 115.433 38.6168C118.06 38.9496 119.604 37.6073 119.604 34.9226C119.604 32.2343 118.06 31.7314 117.131 31.5612C116.205 31.3948 113.889 31.3948 113.116 33.2438Z" fill="#36373B"/>
<path d="M116.204 32.3478C116.204 32.3478 119.394 31.6748 119.085 35.2556C118.778 35.7055 119.189 33.0171 116.204 32.3478Z" fill="white"/>
<path d="M114.144 32.3478C113.421 32.5709 113.525 33.017 113.372 33.1305C113.219 33.2439 113.01 35.592 112.6 36.0382C112.186 36.4881 113.01 37.7208 114.865 38.3901C115.24 38.4543 115.592 38.4846 115.915 38.4846C118.427 38.4846 119.394 36.7604 119.394 36.265C119.133 36.7339 118.458 36.9305 117.682 36.9305C116.611 36.9305 115.359 36.56 114.76 36.0382C113.731 35.1458 114.144 32.3478 114.144 32.3478Z" fill="#303134"/>
<path d="M111.044 33.1418C111.044 33.1418 113.824 34.9492 111.264 35.7055C109.719 35.8151 107.35 35.7055 107.35 35.7055C107.35 35.7055 106.835 33.2402 107.35 33.2402C107.865 33.2402 111.044 33.1418 111.044 33.1418Z" fill="#53575C"/>
<path d="M18.4834 21.5186L10.6074 24.2032L17.558 88.5016C17.558 94.6686 36.4026 99.6673 59.6478 99.6673C82.8931 99.6673 101.738 94.6686 101.738 88.5016L108.688 25.4623L18.4834 21.5186Z" fill="#F9AD1E"/>
<path d="M101.781 88.0819L101.736 88.5016C101.736 88.5167 101.736 88.5243 101.736 88.5394C101.76 88.3882 101.774 88.2369 101.781 88.0819ZM97.238 93.5305C96.2674 94.041 95.1472 94.5325 93.8984 94.9938C93.6722 95.0997 93.4392 95.2018 93.2061 95.3039C94.7054 94.767 96.0656 94.1771 97.238 93.5305ZM81.4443 98.0566C75.0851 99.0775 67.6266 99.6673 59.6463 99.6673C58.5957 99.6673 57.552 99.656 56.5223 99.6371C56.0631 99.656 55.6004 99.6673 55.1308 99.6673C55.103 99.6673 55.0786 99.6673 55.0508 99.6673C55.9657 99.8791 57.8477 100 60.3559 100C65.7898 100 74.1563 99.4443 81.9522 98.0982C81.7748 98.0906 81.6043 98.0755 81.4443 98.0566Z" fill="#FDEDC3"/>
<path d="M108.197 28.0222C107.571 33.9019 106.232 46.4402 104.934 58.5815C106.242 46.3268 107.575 33.8717 108.197 28.0222ZM95.2423 30.4308C89.144 31.3421 83.1118 31.9508 77.2396 32.3214C81.8455 35.0627 86.3957 40.6286 86.0861 51.9342C85.4808 73.9518 78.7842 98.6503 56.5234 99.6371C57.5532 99.6561 58.5968 99.6674 59.6474 99.6674C67.6277 99.6674 75.0862 99.0775 81.4454 98.0566C81.3028 98.0377 81.1671 98.0188 81.0384 97.9886C96.359 96.1245 97.7227 80.8638 99.1107 52.1573C99.7125 39.7287 97.7087 33.4973 95.2423 30.4308ZM101.782 88.0631C101.518 90.5397 98.0323 93.0882 93.8995 94.9939C95.1484 94.5326 96.2685 94.0411 97.2391 93.5306C99.7682 92.1354 101.431 90.483 101.737 88.5395C101.737 88.5244 101.737 88.5168 101.737 88.5017L101.782 88.082C101.782 88.0782 101.782 88.0668 101.782 88.0631Z" fill="#F8A11D"/>
<path d="M108.343 26.661C108.19 26.7139 108.03 26.7707 107.863 26.8236C108.048 26.8198 108.204 26.816 108.329 26.8123C108.333 26.7631 108.34 26.7102 108.343 26.661Z" fill="#F7971E"/>
<path d="M93.205 95.3038C89.9419 96.476 86.0283 97.3948 81.9512 98.0981C82.0834 98.1057 82.2225 98.1057 82.3651 98.1057C85.0682 98.1057 89.3505 96.9902 93.205 95.3038Z" fill="#FDEDC3"/>
<path d="M104.934 58.5814C103.612 70.9533 102.311 83.1173 101.782 88.063C102.043 85.6544 103.459 72.375 104.934 58.5814Z" fill="#F8A11D"/>
<path d="M93.8994 94.9939C90.5806 96.2266 86.34 97.2701 81.4453 98.0566C81.6053 98.0755 81.7758 98.0907 81.9532 98.0982C86.0303 97.3949 89.944 96.4761 93.2071 95.304C93.4402 95.2019 93.6732 95.0998 93.8994 94.9939Z" fill="#FCDF97"/>
<path d="M108.196 28.0222C103.868 28.994 99.5408 29.788 95.241 30.4308C97.7074 33.4973 99.7112 39.7286 99.1094 52.1573C97.7214 80.8638 96.3577 96.1245 81.0371 97.9886C81.1658 98.0188 81.3015 98.0377 81.4441 98.0566C86.3388 97.2701 90.5794 96.2266 93.8982 94.9939C98.031 93.0882 101.517 90.5397 101.781 88.0631C102.31 83.1173 103.611 70.9534 104.933 58.5814C106.23 46.4402 107.57 33.9019 108.196 28.0222Z" fill="#F7971E"/>
<path d="M19.3584 35.5919C19.3584 35.5919 28.3163 35.4785 28.7302 35.5919C29.1407 35.7054 33.7745 74.878 32.6404 81.703C32.0246 82.5991 26.9769 82.8222 26.9769 82.8222L19.3584 35.5919Z" fill="white"/>
<path d="M28.1129 85.957C28.2173 86.4069 27.4937 93.0088 30.4819 92.6723C33.4667 92.3358 32.2318 84.8416 32.2318 84.8416L28.1129 85.957Z" fill="white"/>
<path d="M10.916 26.8085C10.916 26.8085 17.557 85.5637 17.557 88.5017C17.557 91.4396 22.1908 93.6251 22.8065 93.7915C17.8666 89.7608 14.0052 45.1054 13.8486 36.3748C13.7547 30.945 15.4523 29.3456 16.7465 28.9146C13.8695 28.4079 11.9944 28.0147 11.3369 27.871C11.3787 27.9806 11.3787 27.9806 11.3787 27.9806L11.0691 27.8143C11.0691 27.8143 11.1595 27.8332 11.3369 27.871C11.2813 27.7386 11.1665 27.4475 10.916 26.8085Z" fill="#F7941D"/>
<path d="M108.689 26.8085C108.689 26.8085 108.636 26.8085 108.539 26.8085L108.493 27.2206C108.587 26.9937 108.689 26.8085 108.689 26.8085Z" fill="#FBDC82"/>
<path d="M108.539 26.8085C108.484 26.8123 108.414 26.8123 108.33 26.8123C108.292 27.1752 108.247 27.5798 108.198 28.0222C108.261 28.0109 108.32 27.9958 108.379 27.9806C108.299 27.8029 108.39 27.4815 108.494 27.2206L108.539 26.8085Z" fill="#F7941D"/>
<path d="M108.331 26.8121C108.289 27.1751 108.247 27.5797 108.198 28.0221C108.247 27.5797 108.292 27.1751 108.331 26.8121Z" fill="#F68B1E"/>
<path d="M10.916 26.8085C10.916 26.8085 15.3897 28.4268 17.3483 28.786C17.4596 28.7709 17.564 28.7671 17.6579 28.7671C17.9745 28.7671 18.1728 28.82 18.1728 28.82C18.1241 28.8427 18.0475 28.8541 17.9466 28.8541C17.7936 28.8541 17.5918 28.8276 17.3483 28.786C17.1674 28.8049 16.9621 28.8427 16.7465 28.9146C25.0816 30.3817 41.8563 32.7902 62.0646 32.7902C66.9453 32.7902 72.0278 32.6466 77.239 32.3214C75.7814 31.4517 74.3203 30.8694 73.0053 30.4724C68.7682 30.601 64.2945 30.6652 59.6468 30.6652C37.2678 30.6652 18.9346 29.1112 11.7301 26.9143C11.4204 26.8803 11.1456 26.8425 10.916 26.8085Z" fill="#F7941D"/>
<path d="M94.0316 29.183C88.156 29.788 81.0036 30.2379 73.0059 30.4724C74.3208 30.8694 75.7819 31.4517 77.2395 32.3213C83.1117 31.9508 89.1439 31.342 95.2422 30.4308C94.8491 29.9392 94.4421 29.5271 94.0316 29.183Z" fill="#F68B1E"/>
<path d="M108.329 26.8121C108.204 26.8159 108.047 26.8197 107.863 26.8235C105.014 27.7385 100.234 28.5477 94.0312 29.1829C94.4417 29.527 94.8488 29.9391 95.2419 30.4307C99.5416 29.7879 103.869 28.9939 108.197 28.0221C108.246 27.5797 108.287 27.1751 108.329 26.8121Z" fill="#F6841F"/>
<path d="M10.916 26.8085C11.1665 27.4475 11.2813 27.7386 11.3369 27.871C11.9944 28.0147 13.8695 28.4079 16.7465 28.9146C16.9621 28.8427 17.1674 28.8049 17.3483 28.786C15.3897 28.4268 10.916 26.8085 10.916 26.8085ZM11.0691 27.8143L11.3787 27.9806C11.3787 27.9806 11.3787 27.9806 11.3369 27.871C11.1595 27.8332 11.0691 27.8143 11.0691 27.8143ZM17.6579 28.7671C17.564 28.7671 17.4596 28.7709 17.3483 28.786C17.5918 28.8276 17.7936 28.8541 17.9466 28.8541C18.0475 28.8541 18.1241 28.8427 18.1728 28.82C18.1728 28.82 17.9745 28.7671 17.6579 28.7671Z" fill="#F5801E"/>
<path d="M110.851 24.827C110.851 28.0523 88.6422 30.6651 59.6466 30.6651C30.6509 30.6651 8.44238 28.0523 8.44238 24.827C8.44238 21.5979 30.6509 15.3893 59.6466 15.3893C88.6422 15.3893 110.851 21.5979 110.851 24.827Z" fill="#A1A6A9"/>
<path d="M108.688 24.2031C108.688 27.2167 86.7302 29.6593 59.6478 29.6593C32.562 29.6593 10.6074 27.2167 10.6074 24.2031C10.6074 21.1896 32.562 15.3893 59.6478 15.3893C86.7302 15.3893 108.688 21.1896 108.688 24.2031Z" fill="#F8F78E"/>
<path d="M17.1984 24.7363C17.1984 24.7363 22.0339 20.0326 43.8667 16.6749C42.6318 16.7884 27.3912 23.394 24.8169 26.0786C22.6531 26.3017 15.1355 25.4094 17.1984 24.7363Z" fill="white"/>
<path d="M63.8318 15.3213C63.3761 15.3213 62.9343 15.3251 62.5029 15.3364C62.5029 15.3364 62.576 15.3591 62.7047 15.412C64.4406 15.4385 66.1522 15.4877 67.8324 15.5557C67.321 15.4801 67.0358 15.4461 67.0358 15.4461C67.8985 15.5066 68.7473 15.5671 69.5857 15.6351C70.0171 15.654 70.4485 15.6767 70.8729 15.7032C70.8729 15.6692 70.8694 15.6351 70.8694 15.6049C68.3299 15.4196 65.9434 15.3213 63.8318 15.3213Z" fill="#FDEEBB"/>
<path d="M62.7051 15.412C62.7051 15.4158 62.7086 15.4158 62.7086 15.4158C64.4758 15.4422 66.2186 15.4952 67.9267 15.5708C67.8954 15.5632 67.8641 15.5595 67.8328 15.5557C66.1526 15.4876 64.441 15.4385 62.7051 15.412ZM69.5861 15.6351C69.774 15.6502 69.9618 15.6615 70.1532 15.6804C70.3932 15.6918 70.6332 15.7031 70.8733 15.7183C70.8733 15.7145 70.8733 15.7069 70.8733 15.7031C70.4488 15.6767 70.0175 15.654 69.5861 15.6351ZM105.167 26.2374C103.087 26.8121 100.151 27.3415 96.5293 27.799C99.9002 27.3944 102.955 26.8802 105.167 26.2374Z" fill="#9F9A81"/>
<path d="M62.708 15.4158C64.2456 16.0397 73.9062 20.3577 72.3895 29.3266C75.3325 29.2586 87.1569 28.9334 96.5287 27.799C100.15 27.3415 103.086 26.8121 105.167 26.2374C105.88 26.0295 106.506 25.8101 107.028 25.5757C103.333 27.1184 94.5528 28.0297 91.5436 28.2074C88.771 22.305 81.3995 19.0079 75.4577 17.2534C73.2313 17.1286 71.2067 17.0152 71.0501 16.7883C70.9701 16.6711 70.9249 16.4216 70.8971 16.1077C69.6343 15.8468 68.6045 15.6729 67.9262 15.5708C66.2181 15.4952 64.4752 15.4422 62.708 15.4158ZM70.1526 15.6805C70.3961 15.6994 70.6327 15.7183 70.8727 15.7372C70.8727 15.7296 70.8727 15.7258 70.8727 15.7183C70.6327 15.7031 70.3926 15.6918 70.1526 15.6805Z" fill="#FAE96C"/>
<path d="M105.003 21.6206C107.174 22.4827 108.454 23.3146 108.659 24.0103C108.683 24.0784 108.69 24.1426 108.687 24.2031C108.927 23.4242 107.515 22.5319 105.003 21.6206Z" fill="#9F9A81"/>
<path d="M80.8818 16.6334C80.9131 16.6788 80.9445 16.728 80.9723 16.7733C98.6828 18.9777 108.065 22.3543 108.66 24.0104C108.455 23.3147 107.174 22.4829 105.004 21.6208C99.9177 19.7793 90.3267 17.8623 80.8818 16.6334Z" fill="#FAE96C"/>
<path d="M67.0361 15.446C67.0361 15.446 67.3214 15.4801 67.8328 15.5557C68.4207 15.5784 69.0051 15.6049 69.5861 15.6351C68.7477 15.567 67.8989 15.5065 67.0361 15.446Z" fill="#FDDF8D"/>
<path d="M67.832 15.5557C67.8633 15.5594 67.8946 15.5632 67.926 15.5708C68.6739 15.601 69.4149 15.6388 70.1524 15.6804C69.961 15.6615 69.7732 15.6502 69.5853 15.6351C69.0044 15.6048 68.4199 15.5784 67.832 15.5557Z" fill="#9E9165"/>
<path d="M67.9268 15.5708C68.6051 15.6729 69.6348 15.8468 70.8976 16.1077C70.8872 15.9905 70.8802 15.8657 70.8733 15.7372C70.6333 15.7183 70.3967 15.6994 70.1532 15.6805C69.4157 15.6389 68.6747 15.601 67.9268 15.5708Z" fill="#FBD854"/>
<path d="M108.688 24.2031C108.521 24.706 107.933 25.1635 107.028 25.5757C108.009 25.1598 108.632 24.706 108.688 24.2031Z" fill="#FAE96C"/>
<path d="M108.659 24.0103C108.677 24.0783 108.687 24.1426 108.687 24.2031C108.691 24.1426 108.684 24.0783 108.659 24.0103Z" fill="#9E9165"/>
<path d="M80.9729 16.7733C81.2859 17.2913 81.4181 17.798 81.1016 17.798C81.0703 17.798 81.032 17.7904 80.9868 17.7791C79.9953 17.5106 77.6332 17.3745 75.459 17.2535C81.4007 19.008 88.7723 22.3051 91.5449 28.2075C94.554 28.0298 103.334 27.1185 107.029 25.5758C107.933 25.1637 108.521 24.7062 108.688 24.2033C108.688 24.1428 108.678 24.0785 108.66 24.0104C108.066 22.3543 98.6833 18.9777 80.9729 16.7733Z" fill="#FBD854"/>
<path d="M80.9848 17.779C81.8127 18.002 80.7134 15.964 79.8889 15.7258C77.3564 14.996 74.7612 13.9071 74.0028 13.2794C74.0515 11.8312 74.5142 10.8368 74.8308 8.60211C74.9386 8.07275 75.1091 6.54517 73.9994 4.8928C71.8738 1.74311 66.3495 0.102091 57.583 0.00756229L57.5308 0H57.5238L57.3916 0.00378115L57.2595 0H57.2525L57.2003 0.00756229C48.4338 0.102091 42.9095 1.74311 40.7839 4.8928C39.6742 6.54517 39.8447 8.07275 39.949 8.60211C40.2691 10.8368 40.7318 11.8312 40.7839 13.2794C40.0221 13.9071 37.4234 14.996 34.8944 15.7258C34.0699 15.964 33.5759 16.8828 33.7985 17.779C33.7985 17.779 42.7321 16.6749 43.8661 16.6749C44.381 16.2287 43.8696 13.7898 43.8696 13.7898C43.5043 11.5287 43.153 9.13525 42.993 8.02738C42.9825 7.94419 42.9651 7.86479 42.9443 7.78538C42.9443 7.7816 42.9443 7.37324 43.2782 6.87791C43.9705 5.84565 46.7361 3.44841 57.3916 3.36144C68.0437 3.44841 70.8128 5.84565 71.5085 6.87791C71.839 7.37324 71.8425 7.7816 71.839 7.78538C71.8182 7.86479 71.8008 7.94419 71.7903 8.02738C71.6303 9.13525 71.2059 11.8085 70.9137 13.7898C70.9137 13.7898 70.7397 16.3421 71.0494 16.7883C71.359 17.2345 78.9775 17.2345 80.9848 17.779Z" fill="#36373B"/>
<path d="M45.5127 2.46169C45.5127 2.46169 56.3248 -2.06813 70.7687 2.88139C68.0656 2.21213 56.7144 -0.476265 45.5127 2.46169Z" fill="white"/>
<path d="M39.9492 8.60217C39.9492 8.60217 41.1877 13.2076 41.0346 13.4609C40.8781 13.7105 40.725 13.8807 40.725 13.8807C40.725 13.8807 42.8088 13.7105 42.113 12.7879C41.4207 11.8653 39.9492 8.60217 39.9492 8.60217Z" fill="#303134"/>
<path d="M74.0039 13.2794C74.1674 13.4155 74.4179 13.5743 74.7379 13.7445C74.3901 13.5365 74.1013 13.355 74.0039 13.2794Z" fill="#87898B"/>
<path d="M74.4765 9.93311C74.4765 9.93311 72.7754 12.958 72.3892 13.5441C72.0031 14.1302 76.4038 14.72 76.4038 14.72C76.4038 14.72 75.4506 14.1756 74.7374 13.7445C74.4174 13.5744 74.1669 13.4155 74.0034 13.2794C73.7042 13.0412 74.4765 9.93311 74.4765 9.93311Z" fill="#303134"/>
</svg>
