<svg width="88" height="60" viewBox="0 0 88 60" fill="none" xmlns="http://www.w3.org/2000/svg">
<path d="M10.5166 1.15503V53.4508C10.5166 57.073 13.4437 60 17.0658 60H70.2818C73.9039 60 76.831 57.073 76.831 53.4508V1.15503H10.5166Z" fill="#F39C12"/>
<path d="M18.8558 16.3092C18.3076 17.856 16.5944 18.6587 15.0477 18.1007L1.96883 13.392C0.422079 12.8339 -0.380662 11.1306 0.177342 9.58381C0.735346 8.03706 2.43873 7.22453 3.99527 7.79233L17.0643 12.5011C18.6111 13.0493 19.4138 14.7625 18.8558 16.3092Z" fill="#F39C12"/>
<path d="M68.477 16.3092C69.035 17.856 70.7482 18.6587 72.2949 18.1007L85.3738 13.392C86.9205 12.8339 87.7233 11.1306 87.1652 9.58381C86.6072 8.03706 84.8941 7.22453 83.3571 7.79233L70.2783 12.5011C68.7315 13.0493 67.9288 14.7625 68.477 16.3092Z" fill="#F39C12"/>
<path d="M26.3926 1.15503V53.4508C26.3926 57.073 27.9295 60 29.8091 60H57.5331C59.4127 60 60.9497 57.073 60.9497 53.4508V1.15503H26.3926Z" fill="#FFAF3B"/>
<path d="M78.415 0.998534C78.415 1.54675 77.9744 1.98728 77.4262 1.98728H10.3091C9.76084 1.98728 9.32031 1.54675 9.32031 0.998534C9.32031 0.450319 9.76084 0 10.3091 0H77.4262C77.9744 0 78.415 0.450319 78.415 0.998534Z" fill="#CECECE"/>
</svg>
