<svg width="113" height="61" viewBox="0 0 113 61" fill="none" xmlns="http://www.w3.org/2000/svg">
<path fill-rule="evenodd" clip-rule="evenodd" d="M14.3877 36.6565C14.3877 36.6565 12.8669 33.0211 5.99706 28.4638C4.60643 27.5367 3.50748 26.9221 2.65852 26.5054C-2.28419 24.1148 0.439768 19.5679 4.54394 21.9065C9.03352 24.4533 11.1116 25.4638 14.3877 29.3856C18.0856 33.8179 17.0283 37.12 14.3877 36.6565Z" fill="#354346"/>
<path fill-rule="evenodd" clip-rule="evenodd" d="M97.7212 36.6565C97.7212 36.6565 99.2421 33.0211 106.112 28.4638C107.508 27.5367 108.601 26.9221 109.456 26.5054C114.393 24.1148 111.669 19.5679 107.565 21.9065C103.075 24.4533 100.997 25.4638 97.7212 29.3856C94.0233 33.8179 95.0754 37.12 97.7212 36.6565Z" fill="#354346"/>
<path fill-rule="evenodd" clip-rule="evenodd" d="M104.44 17.5366C104.518 18.4897 104.565 19.4481 104.565 20.422C104.565 42.4845 82.9193 60.37 56.2318 60.37C29.5443 60.37 7.89844 42.4845 7.89844 20.422C7.89844 19.4481 7.94531 18.4897 8.02865 17.5366H104.44Z" fill="#354346"/>
<path fill-rule="evenodd" clip-rule="evenodd" d="M101.862 18.2554C101.94 18.8908 101.981 19.5366 101.981 20.1877C101.981 34.9689 81.6273 46.9637 56.5335 46.9637C31.4398 46.9637 11.0908 34.9689 11.0908 20.1877C11.0908 19.5366 11.1273 18.8908 11.2054 18.2554H101.862Z" fill="#4B5A5E"/>
<path fill-rule="evenodd" clip-rule="evenodd" d="M56.2314 20.4222C82.7887 20.4222 104.45 19.141 104.45 17.568C104.45 15.9951 82.7887 14.7139 56.2314 14.7139C29.6742 14.7139 8.0127 15.9951 8.0127 17.568C8.0127 19.141 29.6742 20.4222 56.2314 20.4222Z" fill="#7A8D94"/>
<path fill-rule="evenodd" clip-rule="evenodd" d="M56.2314 19.349C79.7106 19.349 98.8617 18.4375 98.8617 17.3281C98.8617 16.2188 79.7106 15.3125 56.2314 15.3125C32.7523 15.3125 13.6064 16.2188 13.6064 17.3281C13.6064 18.4375 32.7523 19.349 56.2314 19.349Z" fill="#617C86"/>
<path fill-rule="evenodd" clip-rule="evenodd" d="M100.966 18.151C100.966 12.9688 80.4873 8.76562 55.2425 8.76562C29.9925 8.76562 9.51855 12.9688 9.51855 18.151H100.966Z" fill="#D1DDDF"/>
<path fill-rule="evenodd" clip-rule="evenodd" d="M6.40885 16.042H104.07C106.555 16.042 108.586 17.0576 108.586 18.3024V18.2972C108.586 19.542 106.555 20.5524 104.07 20.5524H6.40885C3.92969 20.5524 1.89844 19.542 1.89844 18.2972V18.3024C1.89844 17.0576 3.92969 16.042 6.40885 16.042Z" fill="#8FADC4"/>
<path fill-rule="evenodd" clip-rule="evenodd" d="M49.4977 9H49.5186C49.5029 9.02083 49.4977 9.03646 49.4977 9.04688C49.4977 9.32292 51.7842 9.54167 54.6071 9.54167C57.4248 9.54167 59.7165 9.32292 59.7165 9.04688C59.7165 9.03646 59.7061 9.02083 59.6904 9H59.7165V5.70833C61.3467 5.10938 62.3831 4.22917 62.3831 3.25521C62.3831 1.45833 58.8988 0 54.6071 0C50.3102 0 46.8311 1.45833 46.8311 3.25521C46.8311 4.22917 47.8623 5.10938 49.4977 5.70833V9Z" fill="#456776"/>
</svg>
