<svg width="16" height="150" viewBox="0 0 16 150" fill="none" xmlns="http://www.w3.org/2000/svg">
<path fill-rule="evenodd" clip-rule="evenodd" d="M5.84863 118.414H9.96286V46.2317H5.84863V118.414Z" fill="#C9DADF"/>
<path fill-rule="evenodd" clip-rule="evenodd" d="M7.83551 2.64584C6.66235 2.64584 5.70915 3.59904 5.70915 4.7722C5.70915 5.94537 6.66235 6.89857 7.83551 6.89857C9.00868 6.89857 9.96188 5.94537 9.96188 4.7722C9.96188 3.59904 9.00868 2.64584 7.83551 2.64584ZM7.87625 0.128418C10.6136 0.128418 12.8622 2.36884 12.8622 5.11438V46.2322C12.8622 48.9615 10.6136 51.2101 7.87625 51.2101C5.13886 51.2101 2.89844 48.9615 2.89844 46.2322V5.11438C2.89844 2.36884 5.13886 0.128418 7.87625 0.128418Z" fill="#354346"/>
<path fill-rule="evenodd" clip-rule="evenodd" d="M7.90884 109.949C12.129 109.949 15.5752 113.404 15.5752 117.624V149.633H13.5547L11.1839 119.514L4.11234 119.709L1.99413 149.633H0.234375V117.624C0.234375 113.404 3.68055 109.949 7.90884 109.949Z" fill="#C9DADF"/>
</svg>
