<svg width="22" height="128" viewBox="0 0 22 128" fill="none" xmlns="http://www.w3.org/2000/svg">
<path fill-rule="evenodd" clip-rule="evenodd" d="M8.61952 29.1091H12.7256V89.8531C17.6464 91.5558 21.3614 99.2629 21.3614 108.51C21.3614 119.011 16.5791 127.525 10.6807 127.525C4.78229 127.525 0 119.011 0 108.51C0 99.2629 3.70688 91.5558 8.61952 89.8531V29.1091Z" fill="#C9DADF"/>
<path fill-rule="evenodd" clip-rule="evenodd" d="M10.7304 2.51742C9.55721 2.51742 8.60402 3.47062 8.60402 4.64379C8.60402 5.81695 9.55721 6.77015 10.7304 6.77015C11.9035 6.77015 12.8567 5.81695 12.8567 4.64379C12.8567 3.47062 11.9035 2.51742 10.7304 2.51742ZM10.7711 0C13.5085 0 15.7489 2.24042 15.7489 4.98596V46.1038C15.7489 48.8331 13.5085 51.0816 10.7711 51.0816C8.02558 51.0816 5.78516 48.8331 5.78516 46.1038V4.98596C5.78516 2.24042 8.02558 0 10.7711 0Z" fill="#354346"/>
<path fill-rule="evenodd" clip-rule="evenodd" d="M10.3065 120.111C14.2822 120.111 17.5247 114.734 17.5247 108.135C17.5247 101.535 14.2822 96.1584 10.3065 96.1584C6.33073 96.1584 3.08008 101.535 3.08008 108.135C3.08008 114.734 6.33073 120.111 10.3065 120.111Z" fill="#ACC9D2"/>
</svg>
