<svg width="29" height="120" viewBox="0 0 29 120" fill="none" xmlns="http://www.w3.org/2000/svg">
<path d="M13.7674 0.0137877C6.56198 -0.314773 0.338592 5.25333 0.0118659 14.0969C-0.315777 22.9405 6.23433 30.1459 8.19927 34.4035C10.1651 38.6628 12.4871 42.2531 12.4871 47.166C12.4871 52.0788 12.3228 116.602 13.7967 118.895C14.9311 120.657 18.3535 120.216 19.0078 118.252C19.6631 116.285 17.2687 48.6197 19.0372 42.2531C20.6745 36.3583 27.2218 26.1656 28.1791 19.3383C29.1905 12.121 27.8404 0.652554 13.7674 0.0137877Z" fill="#EBAC66"/>
<path d="M16.1108 37.9111C15.0728 36.3555 14.9847 34.3631 13.6833 32.9607C12.5966 31.7905 11.0851 31.1398 9.85343 30.1487C6.6027 27.5312 5.3527 23.0038 3.62362 19.364C2.23871 16.451 0.822597 13.3049 0.598661 10.1331C0.55002 10.3139 0.505049 10.4992 0.461914 10.6856C0.588566 12.0053 0.899689 13.3186 1.32645 14.576C2.11573 16.9016 3.26937 19.0749 4.28809 21.3023C5.19209 23.2782 5.95567 25.3295 7.05699 27.2063C7.96558 28.7573 9.09995 30.078 10.5821 31.0976C11.365 31.6354 12.2048 32.098 12.9399 32.7046C14.2137 33.7527 14.5845 34.9624 15.1572 36.4611C15.9786 38.6086 17.6829 39.9807 19.2853 41.4473C19.3147 41.3555 19.3432 41.2665 19.3744 41.1747C18.206 40.1643 16.9726 39.2006 16.1108 37.9111Z" fill="#F3C581"/>
<path d="M2.09277 6.50067C2.13591 6.42542 2.17721 6.34832 2.22218 6.2749L2.09277 6.50067Z" fill="#DA864C"/>
<path d="M15.1114 28.964C14.2652 27.7498 13.1612 27.0165 11.946 26.2107C8.9275 24.2136 7.75918 20.7903 6.28249 17.6396C4.72871 14.3201 2.00845 10.1571 2.22229 6.2749C2.17732 6.34832 2.13602 6.42542 2.09288 6.50067C2.01763 8.61796 2.80415 10.6903 3.69898 12.6681C5.29865 16.2042 6.80287 19.9662 8.77699 23.3114C9.59013 24.6908 10.5841 25.7105 11.9102 26.5842C13.9156 27.9049 15.1738 29.2742 16.2504 31.4456C17.5444 34.0576 18.7862 36.7063 20.0747 39.3256C20.1298 39.1916 20.1876 39.0557 20.2445 38.9172C19.2928 37.0045 18.3199 35.0992 17.3673 33.1912C16.6597 31.7723 16.02 30.2709 15.1114 28.964Z" fill="#F3C581"/>
<path d="M22.2312 23.8261C22.1973 20.9213 22.524 18.615 20.0011 16.6179C17.223 14.418 13.4142 14.0445 10.4609 12.0621C7.54328 10.1027 5.24243 7.31083 3.84742 4.09497C3.82081 4.12526 3.79419 4.15554 3.76758 4.18675C4.83311 6.76384 6.38138 9.08488 8.46655 10.9553C11.2153 13.4222 14.3889 14.284 17.6855 15.7369C19.6505 16.6014 21.787 18.0863 22.0642 20.412C22.2863 22.2796 21.8926 24.1097 22.2239 25.9874C22.557 27.8743 23.0591 29.7677 23.6235 31.6473C23.7015 31.4848 23.7786 31.3206 23.8557 31.1581C23.8208 31.0388 23.7859 30.9167 23.7511 30.7965C23.093 28.5296 22.2597 26.2104 22.2312 23.8261Z" fill="#F3C581"/>
<path d="M20.6398 8.47927C17.8691 5.97927 15.1507 7.69182 11.9284 7.90566C8.69967 8.12225 6.44471 5.73055 4.70462 3.24707C4.66608 3.28195 4.62845 3.31957 4.59082 3.35445C5.89497 5.36803 7.51116 7.34858 9.82485 8.06352C13.5684 9.22358 17.2221 5.77736 20.5545 8.8996C21.7613 10.0321 22.6433 11.4602 23.863 12.5808C24.4789 13.147 25.2149 13.5986 25.7885 14.2071C26.7916 15.2735 27.0624 16.5657 27.2946 17.9635C27.4405 18.8427 27.6571 19.7311 27.948 20.5975C27.9985 20.3699 28.0435 20.1469 28.0838 19.9229C27.6433 18.4288 27.5947 16.8383 27.0293 15.3864C26.441 13.8785 25.147 13.1314 23.9878 12.0971L20.6398 8.47927Z" fill="#E0964D"/>
<path d="M16.545 3.90222C17.1654 4.1491 17.7922 4.35285 18.364 4.53915C20.3564 5.17976 22.7959 5.37799 24.513 4.23078C24.4084 4.12249 24.3074 4.01236 24.1973 3.90681C22.8858 4.60707 21.3293 4.72179 19.7636 4.39782C19.1376 4.26841 18.3878 4.08302 17.6178 3.8288C15.5584 3.15057 13.3612 1.97124 13.0235 0.00446229L13.0226 0.00170898C12.9675 0.00170898 12.9124 0.00629782 12.8564 0.00629782C12.962 2.06669 14.7204 3.17352 16.545 3.90222Z" fill="#F3C581"/>
<path d="M0.537961 19.1383C3.12607 23.1848 5.47096 27.2606 6.79622 31.887C6.94215 32.1247 7.08348 32.3569 7.21839 32.5845C6.16296 27.4955 3.34541 22.87 0.414062 18.584C0.453527 18.7703 0.493908 18.9557 0.537961 19.1383Z" fill="#F3C581"/>
<path d="M13.9959 38.9263C13.4599 37.4056 12.5835 35.649 10.9168 35.1387C10.1073 34.8918 9.29878 34.9716 8.64258 35.3433C8.68663 35.4324 8.72977 35.5241 8.77382 35.6132C9.53557 35.2892 10.4634 35.3287 11.2454 35.6866C12.6257 36.3162 13.3617 37.8287 13.8371 39.1842C14.5007 41.0757 14.8036 43.0636 14.2832 45.0304C13.9005 46.4722 13.1984 47.7929 12.4853 49.097C12.4853 49.2705 12.4844 49.4522 12.4844 49.644C14.5099 46.2189 15.3873 42.8782 13.9959 38.9263Z" fill="#E0964D"/>
<path d="M9.85156 37.8223C9.92315 37.97 9.99565 38.1178 10.0663 38.2655C11.8606 39.2365 12.2589 41.1721 11.9845 43.2683C12.0377 43.4794 12.0891 43.6932 12.135 43.9071C12.2084 43.4133 12.2524 42.9177 12.2635 42.4221C12.3029 40.5939 11.6183 38.461 9.85156 37.8223Z" fill="#F3C581"/>
<path d="M15.6005 49.4357C14.703 51.2418 14.3918 53.037 14.8682 55.0129C15.2793 56.7163 15.964 57.8231 14.9269 59.8432C14.6066 60.4682 14.1018 61.0069 13.7044 61.5823C13.2456 62.2468 12.8372 62.9406 12.4902 63.6684C12.4902 63.9015 12.4912 64.1337 12.4912 64.3687C12.7068 63.8749 12.9546 63.3885 13.2355 62.914C14.1092 61.4456 15.5079 60.191 15.7024 58.4151C15.9787 55.9032 14.3643 53.93 15.1609 51.2941C15.6382 49.7128 16.9047 46.9614 18.6246 45.8784C18.6356 45.6994 18.6457 45.5278 18.6567 45.3635C17.2177 46.1152 16.2375 48.1499 15.6005 49.4357Z" fill="#F3C581"/>
<path d="M17.2054 62.7376C16.1729 64.8687 15.1294 67.0419 15.7535 69.4502C16.2097 71.2123 17.2192 72.8597 18.0149 74.4832C18.1801 74.8191 18.3426 75.1578 18.5059 75.4937C18.5032 75.2605 18.4995 75.0283 18.4967 74.798C17.8662 73.5406 17.2403 72.2842 16.6575 71.0058C15.6498 68.7976 15.6361 66.9502 16.5758 64.7613C17.0613 63.6287 17.6726 62.5522 18.1351 61.4105C18.2223 61.1967 18.3022 60.9828 18.3738 60.769C18.3728 60.4074 18.3719 60.0476 18.3719 59.6934C18.1461 60.7057 17.7075 61.6996 17.2054 62.7376Z" fill="#F3C581"/>
<path d="M17.0212 52.6C17.0817 53.8546 17.6076 54.9119 18.0738 56.0536C18.2042 56.3729 18.3033 56.6859 18.3767 56.9933C18.3776 56.6877 18.3794 56.3876 18.3804 56.0912C17.7489 54.3575 16.9239 52.924 17.3919 50.9691C17.5984 50.1119 17.9848 49.3392 18.5033 48.6618C18.5089 48.4856 18.5144 48.3122 18.5208 48.1433C17.491 49.3621 16.9422 50.9508 17.0212 52.6Z" fill="#E0964D"/>
<path d="M13.657 74.5815C13.2523 80.3616 15.119 86.0968 18.7561 90.5232C18.7524 90.3607 18.7497 90.1992 18.7469 90.0367C15.6568 86.2051 13.8332 81.4207 13.768 76.4336C13.7625 76.1748 13.7634 75.9187 13.7699 75.6599C13.8965 75.1083 14.0314 75.1597 14.1737 75.8178C14.6151 76.3436 14.8684 77.3091 15.1603 77.9341C15.7477 79.1942 16.3139 80.4745 17.0417 81.6612C17.496 82.3982 18.0265 83.1177 18.6359 83.7473C18.6322 83.5353 18.6285 83.3269 18.6249 83.1149C16.3947 80.7967 15.1539 77.3871 13.7873 74.4998C13.7304 74.3778 13.6625 74.5118 13.657 74.5815Z" fill="#E0964D"/>
<path d="M14.5936 114.598C14.7991 112.709 16.274 110.637 15.1672 108.783C14.9955 108.497 14.7376 108.278 14.5605 108.001C14.1374 107.338 13.8391 105.317 13.952 104.533C14.0567 103.795 14.3292 103.052 14.5201 102.334C14.8276 101.173 15.3865 99.8834 15.3626 98.671C15.348 97.9377 15.0056 97.4467 14.5991 96.8529C13.9759 95.9434 13.339 95.0431 12.7002 94.1455C12.702 94.2896 12.7048 94.43 12.7066 94.5732C12.8406 94.7733 12.9737 94.9733 13.1095 95.1725C13.5969 95.8847 14.3797 96.6767 14.6918 97.4678C15.5049 99.531 14.4017 101.796 13.8997 103.816C13.6657 104.763 13.4427 105.787 13.6409 106.768C14.0337 108.701 15.7573 109.042 15.1598 111.532C14.6284 113.748 14.042 115.55 14.6642 117.852C14.8597 118.576 15.1479 119.28 15.5132 119.943C15.6545 119.969 15.7977 119.983 15.9418 119.99C14.9194 118.428 14.377 116.593 14.5936 114.598Z" fill="#E0964D"/>
<path d="M17.9403 111.95C18.067 110.825 17.9504 109.768 17.4585 108.741C17.0877 107.97 16.4599 107.277 16.1635 106.483C15.488 104.676 15.924 102.825 16.4544 101.067C17.0592 99.0658 17.6861 96.5007 16.1406 94.7386C15.5697 94.0869 14.7327 93.7299 14.1857 93.0535C13.3616 92.0339 13.2615 90.5682 13.0238 89.3274C12.8907 88.6345 12.754 87.9434 12.6182 87.2505C12.6218 87.5772 12.6255 87.9039 12.6283 88.2279C12.7411 88.8437 12.8522 89.4568 12.9678 90.0699C13.1853 91.2281 13.3368 92.4965 14.0949 93.4509C14.7318 94.2494 15.7193 94.6367 16.2947 95.5067C17.3548 97.1092 16.8004 99.075 16.2892 100.755C15.8836 102.087 15.3999 103.462 15.4963 104.876C15.6055 106.45 16.5315 107.494 17.2043 108.849C18.5249 111.514 16.9978 114.011 16.6903 116.654C16.5618 117.758 16.6004 118.86 16.7876 119.934C16.8555 119.922 16.9252 119.913 16.9922 119.896C16.8794 119.288 16.8151 118.668 16.8096 118.033C16.7903 115.911 17.7072 114.023 17.9403 111.95Z" fill="#F3C581"/>
<path d="M13.2259 4.60246C6.51609 5.14027 0.011869 10.7506 4.57134 22.1502C10.3413 36.5738 20.0449 36.8583 25.245 20.7084C29.8127 6.5261 19.2354 4.12247 13.2259 4.60246Z" fill="#F3C581"/>
<path d="M13.3853 6.14181C7.40787 6.62088 1.61217 11.62 5.67513 21.7769C10.8155 34.6293 19.4609 34.8799 24.0947 20.492C28.1641 7.8562 18.7405 5.71413 13.3853 6.14181Z" fill="#E0964D"/>
<path d="M17.5976 9.77156C17.9721 8.60875 18.2318 7.5368 18.3915 6.54561C16.6596 6.10416 14.8672 6.02431 13.386 6.14179C7.89313 6.58048 2.55998 10.8426 4.88377 19.4109C9.39643 22.5946 14.4331 19.599 17.5976 9.77156Z" fill="#DA864C"/>
<path d="M15.6831 117.373C15.2013 117.373 14.8066 117.053 14.8066 116.666V113.56C15.2472 111.969 16.0741 110.301 15.1673 108.783C15.0655 108.614 14.9342 108.468 14.8066 108.32V101.37C15.0866 100.483 15.3802 99.5566 15.3628 98.671C15.3509 98.0671 15.1168 97.6275 14.8066 97.1576V94.1344C15.3344 94.5548 15.908 94.921 16.2953 95.5065C16.3981 95.6616 16.4862 95.8213 16.5596 95.9828V99.8274C16.4751 100.142 16.3815 100.454 16.2898 100.755C15.8841 102.087 15.4004 103.462 15.4968 104.876C15.573 105.978 16.0502 106.819 16.5596 107.691V116.666C16.5596 117.053 16.1659 117.373 15.6831 117.373ZM14.8066 112.977V108.995C15.193 109.62 15.4509 110.322 15.16 111.532C15.0407 112.03 14.9177 112.509 14.8066 112.977ZM16.5596 107.268C16.4045 107.014 16.265 106.753 16.164 106.483C15.4885 104.676 15.9245 102.825 16.455 101.067C16.4898 100.953 16.5247 100.832 16.5596 100.713V107.268ZM14.8066 100.576V97.8018C15.0737 98.7058 15.0049 99.6438 14.8066 100.576ZM16.5596 95.3184C16.443 95.1165 16.3044 94.9237 16.1411 94.7383C15.7602 94.3033 15.26 94.0005 14.8066 93.6434V83.4085C15.2664 84.764 15.8538 86.0755 16.5596 87.3228V95.3184ZM16.5596 86.7923C15.8456 85.5047 15.2563 84.151 14.8066 82.7505V77.0484C14.9287 77.3659 15.0416 77.678 15.1609 77.934C15.6124 78.9023 16.0502 79.8824 16.5596 80.8222V86.7923ZM16.5596 80.2789C15.907 79.1445 15.3454 77.9322 14.8066 76.7382V60.6543C15.2518 59.9724 15.6106 59.251 15.7024 58.4149C15.9786 55.903 14.3643 53.9298 15.1609 51.294C15.417 50.445 15.9006 49.2593 16.5596 48.1754V64.1097C15.8043 65.8066 15.2637 67.5568 15.7547 69.4502C15.9456 70.1862 16.2329 70.9021 16.5596 71.6051V80.2789ZM14.8066 60.0623V54.7383C14.8259 54.8292 14.8461 54.921 14.8681 55.0128C15.2793 56.7161 15.9639 57.823 14.9269 59.843C14.8892 59.9182 14.8489 59.9889 14.8066 60.0623ZM14.8066 51.6629V44.999C14.8066 44.6089 15.2013 44.2896 15.6831 44.2896C16.1659 44.2896 16.5596 44.6089 16.5596 44.999V47.6238C16.1778 48.2607 15.8602 48.9114 15.6005 49.4355C15.2325 50.1752 14.9636 50.9131 14.8066 51.6629Z" fill="#F1C07C"/>
<path d="M14.8066 60.6545V60.0625C14.8489 59.9891 14.8892 59.9184 14.9269 59.8432C15.9639 57.8232 15.2793 56.7164 14.8681 55.013C14.8461 54.9212 14.8259 54.8294 14.8066 54.7386V51.6631C14.9636 50.9133 15.2325 50.1754 15.6005 49.4357C15.8602 48.9117 16.1778 48.261 16.5596 47.624V48.1756C15.9006 49.2595 15.417 50.4452 15.1609 51.2942C14.3643 53.93 15.9786 55.9032 15.7024 58.4151C15.6106 59.2512 15.2518 59.9726 14.8066 60.6545Z" fill="#F3C581"/>
<path d="M16.5592 70.7846C15.6561 68.6866 15.669 66.8988 16.5592 64.8008V70.7846Z" fill="#F1C07C"/>
<path d="M16.5585 71.6053C16.2318 70.9023 15.9446 70.1864 15.7537 69.4504C15.2627 67.557 15.8032 65.8068 16.5585 64.1099V64.8009C15.6683 66.899 15.6555 68.6868 16.5585 70.7848V71.6053Z" fill="#F3C581"/>
<path d="M16.5596 87.3229C15.8538 86.0757 15.2664 84.7642 14.8066 83.4086V82.7506C15.2563 84.1511 15.8456 85.5048 16.5596 86.7924V87.3229ZM16.5596 80.8223C16.0502 79.8826 15.6124 78.9024 15.1609 77.9341C15.0416 77.6781 14.9287 77.366 14.8066 77.0485V76.7383C15.3454 77.9323 15.907 79.1447 16.5596 80.279V80.8223Z" fill="#EFBC77"/>
<path d="M14.8066 113.56V112.977C14.9177 112.509 15.0407 112.03 15.16 111.532C15.4509 110.322 15.193 109.62 14.8066 108.995V108.321C14.9342 108.468 15.0655 108.614 15.1673 108.783C16.0741 110.301 15.2472 111.97 14.8066 113.56ZM14.8066 101.37V100.576C15.0049 99.6439 15.0737 98.706 14.8066 97.802V97.1577C15.1168 97.6276 15.3509 98.0672 15.3628 98.6711C15.3802 99.5568 15.0866 100.483 14.8066 101.37Z" fill="#EFBC77"/>
<path d="M16.5596 107.691C16.0502 106.819 15.573 105.978 15.4968 104.876C15.4004 103.462 15.8841 102.087 16.2898 100.755C16.3815 100.454 16.4751 100.142 16.5596 99.8275V100.713C16.5247 100.832 16.4898 100.953 16.455 101.067C15.9245 102.825 15.4885 104.676 16.164 106.483C16.265 106.753 16.4045 107.015 16.5596 107.268V107.691ZM16.5596 95.9829C16.4862 95.8214 16.3981 95.6617 16.2953 95.5066C15.908 94.9211 15.3344 94.5549 14.8066 94.1346V93.6436C15.26 94.0006 15.7602 94.3034 16.1411 94.7385C16.3044 94.9238 16.443 95.1166 16.5596 95.3185V95.9829Z" fill="#F3C581"/>
</svg>
