<svg width="71" height="120" viewBox="0 0 71 120" fill="none" xmlns="http://www.w3.org/2000/svg">
<path d="M38.9916 26.4636C38.9916 25.1539 37.3834 24.0753 35.3996 24.0753C33.4158 24.0753 31.8076 25.1539 31.8076 26.4636V92.0922C31.8076 93.4115 33.4158 94.4804 35.3996 94.4804C37.3834 94.4804 38.9916 93.4115 38.9916 92.0922V26.4636Z" fill="#474747"/>
<path d="M70.7999 84.6C70.7999 104.159 54.9489 120 35.4 120C15.851 120 0 104.159 0 84.6C0 65.0511 15.851 49.2097 35.4 49.2097C54.9489 49.2097 70.7999 65.0511 70.7999 84.6Z" fill="#474747"/>
<path d="M69.9337 84.5998C69.9337 103.677 54.4775 119.143 35.4004 119.143C16.3234 119.143 0.867188 103.677 0.867188 84.5998C0.867188 65.5323 16.3234 50.0665 35.4004 50.0665C54.4775 50.0665 69.9337 65.5323 69.9337 84.5998Z" fill="#232323"/>
<path d="M60.4384 84.5997C60.4384 98.4284 49.2291 109.638 35.4004 109.638C21.5716 109.638 10.3623 98.4284 10.3623 84.5997C10.3623 70.7806 21.5716 59.5713 35.4004 59.5713C49.2291 59.5713 60.4384 70.7806 60.4384 84.5997Z" fill="#474747"/>
<path d="M39.2233 34.6199V3.83275C39.2233 1.71414 37.5187 0 35.4001 0C33.2912 0 31.5674 1.71414 31.5674 3.83275V34.6199H39.2233Z" fill="#34495E"/>
</svg>
