<svg width="69" height="120" viewBox="0 0 69 120" fill="none" xmlns="http://www.w3.org/2000/svg">
<path d="M34.2099 6.52564C33.1463 6.52564 32.2877 5.6671 32.2877 4.60344C32.2877 3.54271 33.1463 2.68417 34.2099 2.68417C35.2706 2.68417 36.1292 3.54271 36.1292 4.60344C36.1292 5.6671 35.2706 6.52564 34.2099 6.52564ZM39.9267 6.69852C40.2344 3.71266 40.545 -0.424759 34.207 0.0352811C27.8719 -0.424759 28.1825 3.71266 28.4902 6.69852C28.7979 9.68731 30.3421 22.5567 30.5003 33.1288C30.6556 43.7009 28.7305 54.5045 28.7305 54.5045H39.6835C39.6835 54.5045 37.7613 43.7009 37.9166 33.1288C38.0719 22.5567 39.6161 9.68731 39.9267 6.69852Z" fill="#242527"/>
<path d="M29.7891 46.7571H29.7861C29.8887 45.7901 29.9883 44.7587 30.0821 43.6804V43.6775L30.085 43.6804C29.9912 44.7587 29.8916 45.7901 29.7891 46.7571ZM35.3242 6.16816C35.3242 6.16523 35.3242 6.16523 35.3242 6.1623C35.7989 5.82533 36.1153 5.27739 36.13 4.65033C36.1153 5.27739 35.8018 5.82826 35.3242 6.16816ZM34.2107 2.68417C34.1257 2.68417 34.0437 2.69882 33.9587 2.70761C33.9587 2.70468 33.9558 2.70175 33.9558 2.70175C34.0378 2.69003 34.1228 2.68417 34.2107 2.68417Z" fill="#B7B9B7"/>
<path d="M38.6294 46.7571H29.7891C29.8916 45.7901 29.9912 44.7587 30.085 43.6804C30.1319 43.7126 31.5237 44.6649 33.1148 44.6649C33.6481 44.6649 34.2049 44.5565 34.7411 44.2723C36.8977 43.1207 33.9587 25.5601 35.5996 17.9651C36.4464 14.024 36.2413 9.61406 35.3242 6.16816C35.8018 5.82826 36.1153 5.27739 36.13 4.65033C36.13 4.65033 36.13 4.6474 36.13 4.64447C36.13 4.64447 36.13 4.64154 36.13 4.63861C36.13 4.63568 36.13 4.63567 36.13 4.63274C36.13 4.62981 36.13 4.62981 36.13 4.62981C36.13 4.62395 36.13 4.62102 36.13 4.61809V4.61516C36.13 4.61223 36.13 4.6093 36.13 4.60344C36.13 3.54272 35.2714 2.68417 34.2107 2.68417C34.1228 2.68417 34.0378 2.69003 33.9558 2.70175C33.191 1.37145 32.2563 0.468952 31.1985 0.255048C31.7787 0.0938886 32.4673 0.00012207 33.2906 0.00012207C33.3258 0.00012207 33.3639 0.00012207 33.3991 0.00012207C33.6569 0.00305207 33.9265 0.0147728 34.2078 0.0352843C34.536 0.0118428 34.8466 0.00012207 35.1396 0.00012207C39.2917 0.00012207 40.0594 2.30618 40.0594 4.66205C40.0594 5.3565 39.992 6.05388 39.9275 6.69853C39.6169 9.68731 38.0727 22.5567 37.9174 33.1288C37.9115 33.542 37.9086 33.9551 37.9086 34.3683C37.9086 38.8046 38.2485 43.2057 38.6294 46.7571Z" fill="#191A1B"/>
<path d="M39.6845 53.5492C39.6845 54.0738 39.2538 54.5045 38.7322 54.5045H29.423C28.8985 54.5045 28.4707 54.0738 28.4707 53.5492V47.7094C28.4707 47.1878 28.8985 46.7571 29.423 46.7571H38.7322C39.2538 46.7571 39.6845 47.1878 39.6845 47.7094V53.5492Z" fill="#70777C"/>
<path d="M39.6836 52.0197C37.902 51.7325 36.0707 51.5831 34.2071 51.5831C34.1631 51.5831 34.1191 51.5831 34.0752 51.586V46.7571H38.7313C39.2528 46.7571 39.6836 47.1878 39.6836 47.7094V52.0197Z" fill="#5D6369"/>
<path d="M68.4169 85.793C68.4169 104.684 53.1008 120 34.207 120C15.3161 120.003 0 104.684 0 85.793C0 66.9021 15.3161 51.5831 34.207 51.5831C53.1008 51.5831 68.4169 66.8992 68.4169 85.793Z" fill="#5D6267"/>
<path d="M66.6585 85.793C66.6585 103.714 52.1306 118.245 34.2067 118.245C16.2857 118.245 1.75781 103.714 1.75781 85.793C1.75781 67.872 16.2857 53.3441 34.2067 53.3441C52.1306 53.3441 66.6585 67.872 66.6585 85.793Z" fill="#323236"/>
<path d="M58.39 85.793C58.39 99.1488 47.563 109.973 34.2072 109.973C20.8544 109.973 10.0273 99.1488 10.0273 85.793C10.0273 72.4402 20.8544 61.6132 34.2072 61.6132C47.563 61.6132 58.39 72.4402 58.39 85.793Z" fill="#0C0C0D"/>
<path d="M34.207 120V118.245C52.131 118.245 66.6588 103.714 66.6588 85.793C66.6588 67.872 52.131 53.3442 34.207 53.3442V51.5831C53.1009 51.5831 68.4169 66.8992 68.4169 85.793C68.4169 104.684 53.1009 120 34.207 120Z" fill="#4B4F54"/>
<path d="M34.207 118.245V109.973C47.5628 109.973 58.3899 99.1488 58.3899 85.793C58.3899 72.4401 47.5628 61.6131 34.207 61.6131V53.3441C52.131 53.3441 66.6588 67.872 66.6588 85.793C66.6588 103.714 52.131 118.245 34.207 118.245Z" fill="#28282B"/>
<path d="M34.207 109.973V61.6132C47.5628 61.6132 58.3898 72.4402 58.3898 85.793C58.3898 99.1488 47.5628 109.973 34.207 109.973Z" fill="#0A0B0B"/>
</svg>
