<svg width="75" height="104" viewBox="0 0 75 104" fill="none" xmlns="http://www.w3.org/2000/svg">
<path d="M52.7408 81.8181C54.2629 88.3498 57.219 92.7811 60.6517 92.8093C65.7186 92.8497 69.2354 83.0178 70.8777 69.91C71.4785 65.1435 73.0086 41.9492 73.0086 41.9492L33.2582 19.2478C33.2582 19.2478 19.0948 34.9288 7.83537 54.9723C-5.25856 78.2917 -0.600181 93.9161 11.941 101.082C24.2779 108.127 42.3706 99.5107 52.7408 81.8181Z" fill="#EF3028"/>
<path d="M36.5198 4.73222C36.8399 4.73222 37.0949 4.53998 37.5 5L43 5C41.5942 1.65985 39.3597 0 36.5198 0C31.9663 0 28.5391 5.42425 28.5391 12.6126C28.5391 19.8009 31.9663 25.2211 36.5198 25.2211C40.8505 25.2211 44.1603 20.3049 44.4682 13.6326H39.6595C39.3921 17.9008 37.561 20.4929 36.5198 20.4929C35.3936 20.4929 33.3235 17.5008 33.3235 12.6126C33.3235 7.72435 35.3936 4.73222 36.5198 4.73222Z" fill="#EF3028"/>
<path d="M13.2736 86.9467C13.2736 85.1146 12.0845 83.6282 10.6187 83.6282C9.15298 83.6282 7.96387 85.1146 7.96387 86.9467C7.96387 88.7834 9.15298 90.2653 10.6187 90.2653C12.0845 90.2653 13.2736 88.7834 13.2736 86.9467Z" fill="#FFFBFD"/>
<path d="M30.5301 91.2609C30.5301 89.6119 29.1964 88.2742 27.5434 88.2742C25.8944 88.2742 24.5566 89.6119 24.5566 91.2609C24.5566 92.9139 25.8944 94.2476 27.5434 94.2476C29.1964 94.2476 30.5301 92.9139 30.5301 91.2609Z" fill="#FFFBFD"/>
<path d="M21.9031 74.336C21.9031 72.8703 20.5654 71.6812 18.9164 71.6812C17.2674 71.6812 15.9297 72.8703 15.9297 74.336C15.9297 75.8053 17.2674 76.9909 18.9164 76.9909C20.5654 76.9909 21.9031 75.8053 21.9031 74.336Z" fill="#FFFBFD"/>
<path d="M42.4773 74.0043C42.4773 72.3553 41.1396 71.0176 39.4906 71.0176C37.8417 71.0176 36.5039 72.3553 36.5039 74.0043C36.5039 75.6533 37.8417 76.991 39.4906 76.991C41.1396 76.991 42.4773 75.6533 42.4773 74.0043Z" fill="#FFFBFD"/>
<path d="M65.7078 71.3493C65.7078 69.7003 64.371 68.3625 62.7191 68.3625C61.0712 68.3625 59.7344 69.7003 59.7344 71.3493C59.7344 72.9982 61.0712 74.336 62.7191 74.336C64.371 74.336 65.7078 72.9982 65.7078 71.3493Z" fill="#FFFBFD"/>
<path d="M65.0437 56.7475C65.0437 55.0985 63.706 53.7607 62.057 53.7607C60.4081 53.7607 59.0703 55.0985 59.0703 56.7475C59.0703 58.4005 60.4081 59.7342 62.057 59.7342C63.706 59.7342 65.0437 58.4005 65.0437 56.7475Z" fill="#FFFBFD"/>
<path d="M17.2557 58.7387C17.2557 57.0897 15.921 55.752 14.2669 55.752C12.6168 55.752 11.2822 57.0897 11.2822 58.7387C11.2822 60.3876 12.6168 61.7254 14.2669 61.7254C15.921 61.7254 17.2557 60.3876 17.2557 58.7387Z" fill="#FFFBFD"/>
<path d="M32.5232 59.4045C32.5232 57.7567 31.1855 56.4158 29.5325 56.4158C27.8876 56.4158 26.5498 57.7567 26.5498 59.4045C26.5498 61.0523 27.8876 62.3892 29.5325 62.3892C31.1855 62.3892 32.5232 61.0523 32.5232 59.4045Z" fill="#FFFBFD"/>
<path d="M36.5047 31.5242C36.5047 29.8764 35.1669 28.5396 33.518 28.5396C31.869 28.5396 30.5312 29.8764 30.5312 31.5242C30.5312 33.1761 31.869 34.513 33.518 34.513C35.1669 34.513 36.5047 33.1761 36.5047 31.5242Z" fill="#FFFBFD"/>
<path d="M51.1062 58.7407C51.1062 57.0888 49.7694 55.752 48.1215 55.752C46.4697 55.752 45.1328 57.0888 45.1328 58.7407C45.1328 60.3885 46.4697 61.7254 48.1215 61.7254C49.7694 61.7254 51.1062 60.3885 51.1062 58.7407Z" fill="#FFFBFD"/>
<path d="M27.2127 44.4706C27.2127 43.0023 25.8718 41.814 24.228 41.814C22.5761 41.814 21.2393 43.0023 21.2393 44.4706C21.2393 45.9354 22.5761 47.1237 24.228 47.1237C25.8718 47.1237 27.2127 45.9354 27.2127 44.4706Z" fill="#FFFBFD"/>
<path d="M43.1424 44.1371C43.1424 42.4881 41.8046 41.1504 40.1516 41.1504C38.5027 41.1504 37.1689 42.4881 37.1689 44.1371C37.1689 45.7861 38.5027 47.1238 40.1516 47.1238C41.8046 47.1238 43.1424 45.7861 43.1424 44.1371Z" fill="#FFFBFD"/>
<path d="M60.3982 42.1459C60.3982 40.4969 59.0605 39.1592 57.4075 39.1592C55.7585 39.1592 54.4248 40.4969 54.4248 42.1459C54.4248 43.7949 55.7585 45.1326 57.4075 45.1326C59.0605 45.1326 60.3982 43.7949 60.3982 42.1459Z" fill="#FFFBFD"/>
<path d="M71.9417 43.5415C72.2578 43.7213 72.6059 43.8052 72.95 43.8052C73.6622 43.8052 74.3544 43.4336 74.7346 42.7703C75.2907 41.7874 74.9426 40.5368 73.9583 39.9814L34.2548 17.5221C33.2666 16.9668 32.0182 17.3104 31.462 18.2933C30.9019 19.2762 31.25 20.5268 32.2343 21.0822L71.9417 43.5415Z" fill="#FAC00A"/>
</svg>
