<svg width="31" height="124" viewBox="0 0 31 124" fill="none" xmlns="http://www.w3.org/2000/svg">
<path fill-rule="evenodd" clip-rule="evenodd" d="M13.3613 29.2375H17.4593V110.569H13.3613V29.2375Z" fill="#C9DADF"/>
<path fill-rule="evenodd" clip-rule="evenodd" d="M15.4566 2.64584C14.2834 2.64584 13.3384 3.59904 13.3384 4.7722C13.3384 5.94537 14.2834 6.89857 15.4566 6.89857C16.6379 6.89857 17.5911 5.94537 17.5911 4.7722C17.5911 3.59904 16.6379 2.64584 15.4566 2.64584ZM15.5055 0.128418C18.2429 0.128418 20.4833 2.36884 20.4833 5.11438V46.2322C20.4833 48.9615 18.2429 51.2101 15.5055 51.2101C12.76 51.2101 10.5195 48.9615 10.5195 46.2322V5.11438C10.5195 2.36884 12.76 0.128418 15.5055 0.128418Z" fill="#354346"/>
<path fill-rule="evenodd" clip-rule="evenodd" d="M0 116.63H30.6327V110.569H0V116.63Z" fill="#C9DADF"/>
<path fill-rule="evenodd" clip-rule="evenodd" d="M0 116.63H30.6327V119.84C30.6327 121.608 29.1825 123.042 27.4228 123.042H3.20991C1.45016 123.042 0 121.608 0 119.84V116.63Z" fill="#ACC9D2"/>
</svg>
