<svg width="32" height="73" viewBox="0 0 32 73" fill="none" xmlns="http://www.w3.org/2000/svg">
<path fill-rule="evenodd" clip-rule="evenodd" d="M11.4287 56.9622L9.50488 56.4888L18.8618 18.4578L20.7856 18.9312L11.4287 56.9622Z" fill="#C9DADF"/>
<path fill-rule="evenodd" clip-rule="evenodd" d="M7.38151 69.1538C7.93389 69.2897 8.48928 68.9537 8.62424 68.4051C8.75921 67.8565 8.42316 67.3011 7.87077 67.1652C7.32219 67.0302 6.76681 67.3663 6.63184 67.9149C6.49687 68.4635 6.83293 69.0188 7.38151 69.1538ZM7.07284 70.3263C5.78901 70.0104 4.99913 68.705 5.31499 67.4212L10.0455 48.1943C10.3595 46.9181 11.6658 46.1244 12.9496 46.4402C14.2296 46.7552 15.0224 48.0653 14.7084 49.3415L9.97791 68.5684C9.66205 69.8523 8.35285 70.6412 7.07284 70.3263Z" fill="#354346"/>
<path fill-rule="evenodd" clip-rule="evenodd" d="M20.7529 16.3902C21.4082 16.5514 22.0813 16.1474 22.2425 15.4921L24.342 6.95866C24.5032 6.30341 24.0944 5.63317 23.4392 5.47195C22.7839 5.31074 22.1146 5.71573 21.9534 6.37098L19.8539 14.9044C19.6927 15.5597 20.0977 16.229 20.7529 16.3902ZM16.4062 15.3208C17.0652 15.4829 17.7346 15.0779 17.8958 14.4227L19.9953 5.88922C20.1565 5.23397 19.7515 4.56466 19.0924 4.40251C18.4372 4.2413 17.7679 4.64629 17.6067 5.30154L15.5072 13.835C15.346 14.4902 15.7509 15.1595 16.4062 15.3208ZM24.9206 17.4156C25.5758 17.5768 26.2413 17.1709 26.4025 16.5156L28.5021 7.98217C28.6633 7.32692 28.2621 6.65855 27.6068 6.49734C26.9478 6.33519 26.2785 6.74018 26.1173 7.39543L24.0178 15.9289C23.8565 16.5841 24.2615 17.2534 24.9206 17.4156ZM13.2666 14.6655L16.1094 3.11103C17.1657 -1.18236 31.3959 2.70661 30.4849 6.40951L27.3956 18.9659C26.6457 22.0135 12.1493 19.2065 13.2666 14.6655Z" fill="#C9DADF"/>
</svg>
