<svg width="59" height="88" viewBox="0 0 59 88" fill="none" xmlns="http://www.w3.org/2000/svg">
<path fill-rule="evenodd" clip-rule="evenodd" d="M25.3921 31.0847C25.3921 31.0847 26.2046 14.1628 25.9494 8.09511C25.8557 5.99095 25.1994 4.17324 23.7463 2.40761C22.965 1.4597 22.064 0.772197 21.2098 0.647197C19.6682 0.418032 18.6838 0.73053 20.7046 1.36595C21.8088 1.7097 22.6161 2.56386 23.1942 3.50657C24.4286 5.50657 24.6265 7.14199 24.6421 9.32428L24.4234 30.6159L25.3921 31.0847Z" fill="#AED3D5"/>
<path fill-rule="evenodd" clip-rule="evenodd" d="M23.6999 31.095C23.6999 31.095 18.0072 15.1002 16.5697 9.19919C16.0697 7.15231 16.1895 5.22002 17.0958 3.12106C17.5749 1.99606 18.252 1.0846 19.0385 0.725227C20.4604 0.0741854 21.4916 0.100226 19.7208 1.27731C18.7624 1.90752 18.226 2.9596 17.9291 4.02731C17.2989 6.28773 17.5697 7.90752 18.1635 10.0117L24.502 30.3763L23.6999 31.095Z" fill="#DEE9E8"/>
<path fill-rule="evenodd" clip-rule="evenodd" d="M22.45 31.017C22.45 31.017 16.174 19.0379 13.8302 12.0014C11.4813 4.96495 17.6896 0.287862 19.799 0.0274462C21.9032 -0.311096 29.1688 2.45453 28.8719 9.86599C28.5802 17.2722 26.0855 30.4962 26.0855 30.4962L24.924 30.7097C26.0177 24.1316 27.1323 17.5118 27.6792 10.9337C27.9136 8.00141 26.9917 4.00661 23.7938 2.3087C20.0959 0.339947 19.6063 0.412863 16.6011 3.32953C14.0073 5.85036 14.2261 9.94411 15.2782 12.6889C17.6375 18.8868 20.5282 24.9337 23.6271 30.892L22.45 31.017Z" fill="#C5DDDE"/>
<path fill-rule="evenodd" clip-rule="evenodd" d="M26.5851 31.9804C31.908 45.0013 31.6841 53.2825 31.5851 67.3659C31.5747 68.7773 27.9914 69.5273 27.533 67.9127C24.5278 57.2669 21.5278 46.2304 22.5903 32.5482L21.7778 32.6627C21.0903 32.7617 20.4497 32.2773 20.3507 31.5898C20.2518 30.8971 20.7361 30.2565 21.4184 30.1575L27.3507 29.319C28.0382 29.22 28.6789 29.7044 28.7778 30.3919C28.8768 31.0794 28.3924 31.72 27.7049 31.8242L26.5851 31.9804Z" fill="#43525A"/>
<path fill-rule="evenodd" clip-rule="evenodd" d="M29.6736 68.7826C28.7361 68.9284 27.757 68.7044 27.533 67.9128C24.5278 57.2669 21.5278 46.2305 22.5903 32.5482L21.7778 32.6628C21.0903 32.7617 20.4497 32.2773 20.3507 31.5898C20.2518 30.8971 20.7361 30.2565 21.4184 30.1576L24.1268 29.7773L29.6736 68.7826Z" fill="#647883"/>
<path fill-rule="evenodd" clip-rule="evenodd" d="M22.6217 32.4908L26.502 31.9387L26.4134 32.746L22.5332 33.2981L22.6217 32.4908Z" fill="#43525A"/>
<path fill-rule="evenodd" clip-rule="evenodd" d="M22.0227 30.3503C22.429 30.293 22.804 30.5482 22.856 30.9232C22.9081 31.293 22.6269 31.6472 22.2206 31.6993C21.8092 31.7618 21.4342 31.5014 21.3821 31.1264C21.33 30.7566 21.6165 30.4076 22.0227 30.3503Z" fill="#828A8F"/>
<path fill-rule="evenodd" clip-rule="evenodd" d="M27.5538 65.5793C24.9028 56.0168 22.5434 45.996 23.3351 33.9179L24.0799 33.8137C23.2934 45.8918 25.658 55.9127 28.3038 65.47L27.5538 65.5793Z" fill="#828A8F"/>
<path fill-rule="evenodd" clip-rule="evenodd" d="M35.5904 73.6887C35.5904 73.6887 34.106 49.8866 33.731 40.0793C33.6373 37.7304 32.5487 35.5012 32.6217 35.272C32.9915 34.0689 34.9446 34.9543 34.9446 34.9543C34.9446 34.9543 36.0904 31.1314 36.3092 33.4491C36.4394 34.7564 35.58 41.595 35.7467 43.3502C36.7987 54.5168 38.481 72.897 38.1529 73.3085C37.6842 73.8918 35.5904 73.6887 35.5904 73.6887Z" fill="#BED9D9"/>
<path fill-rule="evenodd" clip-rule="evenodd" d="M36.0386 37.8867C35.8511 40.0898 35.6583 42.4284 35.7469 43.3555C36.5958 52.3607 37.8511 66.0638 38.1323 71.2409C37.5802 71.6107 37.1531 71.8346 37.1531 71.8346C37.1531 71.8346 34.9656 44.168 35.1115 42.0794C35.2104 40.6888 35.5906 38.8659 36.0386 37.8867Z" fill="#AACED1"/>
<path fill-rule="evenodd" clip-rule="evenodd" d="M35.3294 79.8451L35.2148 67.7983C35.2201 67.6628 35.2253 67.7462 35.293 67.7774C35.3242 67.7931 35.3607 67.8035 35.4076 67.8191C35.6732 67.9441 36.0794 68.0066 36.5326 67.9806C37.2982 67.9233 37.9023 67.6056 37.8815 67.2722C37.8711 67.2201 37.8555 67.1733 37.8294 67.1264C37.8503 67.0535 37.8451 67.0066 37.8451 67.0066C37.8451 67.0066 39.9128 77.1108 40.0117 79.892C40.0326 79.9545 40.0534 80.0118 40.0586 80.0795C40.0638 80.1733 40.043 80.2722 40.0013 80.3608C39.9857 80.4858 39.9596 80.5639 39.918 80.5899C39.8711 80.616 39.8242 80.6472 39.7721 80.6681C39.3867 81.0274 38.6471 81.3035 37.793 81.366C36.5013 81.4597 35.4128 81.0326 35.3659 80.4128C35.3607 80.3712 35.3607 80.3295 35.3711 80.2826C35.3346 80.1576 35.3138 80.0118 35.3294 79.8451Z" fill="#37A0BB"/>
<path fill-rule="evenodd" clip-rule="evenodd" d="M36.8613 67.9388C37.2936 67.8555 37.6426 67.694 37.7936 67.5013L37.9447 67.4961C38.3561 69.5534 39.929 77.4805 40.0124 79.8919C40.0332 79.9544 40.054 80.0117 40.0592 80.0794C40.0645 80.1732 40.0436 80.2721 40.002 80.3607C39.9863 80.4857 39.9603 80.5638 39.9186 80.5898C39.8717 80.6159 39.8249 80.6471 39.7728 80.668C39.4551 80.9648 38.8978 81.2044 38.2363 81.3138L36.8613 67.9388Z" fill="#288EA7"/>
<path fill-rule="evenodd" clip-rule="evenodd" d="M32.8506 21.1628L33.1891 20.3242C33.1995 20.2982 34.012 20.6836 34.9548 21.3711C36.9235 22.8086 38.1579 25.8347 38.4756 29.4544C38.7568 32.6576 38.3506 36.4544 36.9027 38.0534C36.4912 38.5222 36.1266 38.7669 35.9079 39.444C35.8506 39.6315 35.6475 39.1055 35.5381 38.7669C34.7256 36.2461 32.8506 21.1628 32.8506 21.1628Z" fill="#AACED1"/>
<path fill-rule="evenodd" clip-rule="evenodd" d="M35.6318 22.3398C37.012 23.9596 37.8818 26.5221 38.1423 29.4805C38.4235 32.6732 38.0173 36.4805 36.5693 38.0846C36.2516 38.4388 35.96 38.6628 35.7412 39.0638C35.6631 39.0482 35.6162 39.0273 35.6162 39.0273C36.4704 37.8503 36.9704 35.6628 37.2516 34.1419C37.9912 30.1784 37.0433 25.8763 35.6318 22.3398Z" fill="#9CC5C9"/>
<path fill-rule="evenodd" clip-rule="evenodd" d="M31.9752 30.267C32.3607 35.6784 33.5794 40.0013 34.694 39.9232C35.8034 39.8399 36.3919 35.3868 36.0065 29.9753C35.6159 24.5586 34.3971 20.2357 33.2877 20.3191C32.1732 20.3972 31.5846 24.8503 31.9752 30.267Z" fill="#BED9D9"/>
<path fill-rule="evenodd" clip-rule="evenodd" d="M34.085 39.9805C34.4964 40.2201 34.4183 40.8711 34.4183 40.8711C34.4183 40.8711 35.6995 63.0638 35.8298 66.6315C35.8558 67.4076 35.3558 67.3138 35.3245 66.6315L34.085 39.9805Z" fill="white"/>
<path fill-rule="evenodd" clip-rule="evenodd" d="M32.3094 30.0898C32.6323 34.6263 33.6584 38.2617 34.5907 38.1888C35.523 38.1263 36.0178 34.3867 35.6844 29.845C35.3615 25.3034 34.3407 21.6732 33.4084 21.7357C32.4761 21.8086 31.9813 25.5482 32.3094 30.0898Z" fill="#AACED1"/>
<path fill-rule="evenodd" clip-rule="evenodd" d="M35.0798 25.3346C34.9027 24.4752 34.6943 23.7304 34.4756 23.1523C34.2777 22.7044 34.0225 22.3242 33.7152 22.1002C33.4756 21.9284 33.2516 21.9023 33.0433 21.9752C32.7412 22.3606 32.512 23.2148 32.3662 24.3763C33.4495 24.9023 34.9652 26.4231 35.111 26.3971C35.1787 26.3867 35.1735 25.944 35.0798 25.3346Z" fill="#9CC5C9"/>
<path fill-rule="evenodd" clip-rule="evenodd" d="M32.6738 33.2773C32.9603 35.1054 33.3613 36.5846 33.7936 37.4283C34.0332 37.095 34.679 36.1679 35.0436 34.6314C35.528 32.6054 35.2988 30.0325 35.2988 30.0325C35.2988 30.0325 34.0905 32.2721 32.6738 33.2773Z" fill="#BED9D9"/>
<path fill-rule="evenodd" clip-rule="evenodd" d="M33.7461 37.4961C34.2773 37.8294 35.0273 37.319 35.1628 37.5951C35.293 37.8659 35.0951 38.7617 34.8086 38.8659C34.5169 38.9753 33.7982 38.4232 33.7461 37.4961Z" fill="white"/>
<path fill-rule="evenodd" clip-rule="evenodd" d="M33.3818 21.6107C33.637 21.5638 33.9235 21.4544 34.4808 22.7877C35.0329 24.1211 35.4964 26.3867 35.4808 26.7982C35.4652 27.2148 35.4079 27.194 35.4079 27.194C35.4079 27.194 34.835 23.1992 33.3818 21.6107Z" fill="white"/>
<path fill-rule="evenodd" clip-rule="evenodd" d="M35.5957 68.9596C35.903 68.7669 36.0801 69.1471 36.0957 69.3919C36.1165 69.6419 36.6269 79.8138 36.3926 80.0221C36.1634 80.2357 35.9967 80.3242 35.903 80.1315C35.8144 79.944 35.3874 70.4076 35.5957 68.9596Z" fill="white"/>
<path fill-rule="evenodd" clip-rule="evenodd" d="M22.6113 74.9128C21.9916 75.0587 21.6113 75.6837 21.7572 76.3035C21.9082 76.9233 22.5332 77.2983 23.1478 77.1524C23.7728 77.0014 24.1478 76.3816 24.002 75.7618C23.8509 75.142 23.2311 74.7618 22.6113 74.9128ZM14.5749 11.3087L18.1322 26.0066C19.2572 30.6576 16.127 34.8399 16.0332 39.4597L26.6374 75.9441L26.5749 75.9597C26.9759 77.6316 25.7832 79.3608 23.8978 79.8191C22.0176 80.2722 20.1634 79.2826 19.752 77.6108C19.6947 77.3556 19.6686 77.1108 19.6791 76.8608L12.5124 40.3295C10.1791 36.4858 4.8301 34.6472 3.74677 30.1785L0.0123913 14.7358C-0.482399 12.6837 14.002 8.91805 14.5749 11.3087Z" fill="#CD8C5D"/>
<path fill-rule="evenodd" clip-rule="evenodd" d="M14.5749 11.3087L14.5853 11.3347L0.0436413 14.8556L0.0123913 14.7358C-0.482399 12.6837 14.002 8.91805 14.5749 11.3087Z" fill="#E1B390"/>
<path fill-rule="evenodd" clip-rule="evenodd" d="M27.9287 79.2357C31.2829 69.3451 40.4495 47.5898 42.9808 39.9023L45.2152 40.6211C44.5745 42.0013 44.0485 43.2201 43.8714 43.8607C41.5225 52.5794 37.7412 72.9961 35.3558 81.9232C33.1266 90.2773 25.012 87.8659 27.9287 79.2357Z" fill="#BED9D9"/>
<path fill-rule="evenodd" clip-rule="evenodd" d="M45.2152 40.621C44.5745 42.0012 44.0485 43.22 43.8714 43.8606C41.262 53.5429 37.861 73.2929 36.1475 78.7721C34.5954 85.22 33.1318 85.996 33.1318 85.996C33.1318 85.996 43.0954 43.6471 43.71 42.2981C44.3298 40.9491 44.3298 41.0689 44.6995 40.4543L45.2152 40.621Z" fill="#AACED1"/>
<path fill-rule="evenodd" clip-rule="evenodd" d="M43.6056 40.1055C43.6317 40.444 43.4598 40.7773 43.4598 40.7773C43.4598 40.7773 31.5483 74.4232 30.2931 78.1732C30.0223 78.9909 29.5431 78.6992 29.7775 77.9805L43.3556 40.0273L43.6056 40.1055Z" fill="white"/>
<path fill-rule="evenodd" clip-rule="evenodd" d="M42.8562 40.6158C44.1374 37.4336 40.4343 27.4336 42.0801 20.2461C44.7937 8.36584 61.6687 13.4075 57.6843 24.3606C55.2989 30.8971 46.6635 37.3763 45.2156 40.6211C44.7781 41.6106 43.1062 40.8294 43.1062 40.8294L42.8562 40.6158Z" fill="#BED9D9"/>
<path fill-rule="evenodd" clip-rule="evenodd" d="M43.6838 38.647C44.8348 35.7876 41.5119 26.8189 42.9859 20.3762C45.4234 9.71991 60.5588 14.2407 56.9754 24.0585C54.8452 29.9335 47.0952 35.7355 45.7984 38.6522C45.4025 39.5324 43.9025 38.8293 43.9025 38.8293L43.6838 38.647Z" fill="#AACED1"/>
<path fill-rule="evenodd" clip-rule="evenodd" d="M43.9285 37.0325C43.9649 33.2304 41.7253 25.8814 42.9858 20.3762C43.7149 17.1887 45.5795 15.3658 47.7358 14.6262C48.0899 15.0533 48.3035 15.3398 48.3035 15.3398C41.116 20.0689 43.6472 29.0585 44.7045 36.3762C44.4962 36.6887 44.2358 36.9023 43.9285 37.0325Z" fill="#99C4C7"/>
<path fill-rule="evenodd" clip-rule="evenodd" d="M43.6836 38.6471C43.8503 38.2252 43.9232 37.6731 43.9284 37.0169C46.9753 34.4752 48.1315 33.9544 49.5169 30.5481C52.1471 24.0221 52.1055 18.7044 47.6159 14.6679C52.6888 12.8294 59.5065 17.1158 56.9753 24.0585C54.8451 29.9335 47.0951 35.7356 45.7982 38.6523C45.4023 39.5325 43.9023 38.8294 43.9023 38.8294L43.6836 38.6471Z" fill="#99C4C7"/>
<path fill-rule="evenodd" clip-rule="evenodd" d="M44.0325 21.8243C43.3919 25.2982 43.9283 34.168 44.9075 33.793C45.8867 33.4232 45.4439 21.5899 44.8554 21.4024C44.2773 21.2149 44.3294 21.1888 44.0325 21.8243Z" fill="#BED9D9"/>
<path fill-rule="evenodd" clip-rule="evenodd" d="M43.4807 40.0639C43.5692 39.7149 43.1786 37.9493 43.7672 37.6055C44.3609 37.2566 45.262 37.9857 45.012 38.6368C44.762 39.2878 43.8922 40.3347 43.4807 40.0639Z" fill="white"/>
<path fill-rule="evenodd" clip-rule="evenodd" d="M11.4492 41.4648H45.3034V85.668H45.2982C45.0482 86.7513 37.5638 87.6107 28.3763 87.6107C19.1888 87.6107 11.7096 86.7513 11.4544 85.668H11.4492V41.4648Z" fill="#A5C3D2"/>
<path fill-rule="evenodd" clip-rule="evenodd" d="M45.3034 44.668V85.668H45.2982C45.0482 86.7513 37.5638 87.6107 28.3763 87.6107C19.1888 87.6107 11.7096 86.7513 11.4544 85.668H11.4492V83.6888C13.5951 82.7201 15.9023 81.5117 18.1836 80.0273C25.3451 75.3919 37.5378 64.9336 45.3034 44.668Z" fill="#9AB6C5"/>
<path fill-rule="evenodd" clip-rule="evenodd" d="M11.2881 41.0117H45.4652C46.0902 41.0117 46.6058 41.5273 46.6058 42.1576C46.6058 42.7773 46.0902 43.293 45.4652 43.293H11.2881C10.6631 43.293 10.1475 42.7773 10.1475 42.1576C10.1475 41.5273 10.6631 41.0117 11.2881 41.0117Z" fill="#A5C3D2"/>
<path fill-rule="evenodd" clip-rule="evenodd" d="M11.2884 41.0117H45.4655C46.0436 41.0117 46.5228 41.4544 46.5905 42.0117H10.1582C10.2311 41.4544 10.7103 41.0117 11.2884 41.0117Z" fill="#B7C9D1"/>
<path fill-rule="evenodd" clip-rule="evenodd" d="M11.4551 44.4441H45.304V43.2878H11.4551V44.4441Z" fill="#88A5B5"/>
<path fill-rule="evenodd" clip-rule="evenodd" d="M18.9805 50.7305V79.7305C18.9805 82.5221 14.7461 82.5221 14.7461 79.7305V50.7305C14.7461 47.9388 18.9805 47.9388 18.9805 50.7305Z" fill="#C4D7DE"/>
<path fill-rule="evenodd" clip-rule="evenodd" d="M42.1842 48.5481V82.5012C42.1842 85.7721 30.3301 85.7721 30.3301 82.5012V48.5481C30.3301 45.2773 42.1842 45.2773 42.1842 48.5481Z" fill="#88A5B5"/>
<path fill-rule="evenodd" clip-rule="evenodd" d="M16.7728 51.9804C18.1322 51.9804 19.2467 50.8658 19.2467 49.5064C19.2467 48.1471 18.1322 47.0325 16.7728 47.0325C15.4134 47.0325 14.2988 48.1471 14.2988 49.5064C14.2988 50.8658 15.4134 51.9804 16.7728 51.9804Z" fill="#88A5B5"/>
<path fill-rule="evenodd" clip-rule="evenodd" d="M16.9447 51.7618C18.1842 51.7618 19.1947 50.7514 19.1947 49.5066C19.1947 48.267 18.1842 47.2566 16.9447 47.2566C15.6999 47.2566 14.6895 48.267 14.6895 49.5066C14.6895 50.7514 15.6999 51.7618 16.9447 51.7618Z" fill="#456776"/>
<path fill-rule="evenodd" clip-rule="evenodd" d="M16.3353 64.7149C17.6947 64.7149 18.804 63.6055 18.804 62.241C18.804 60.8816 17.6947 59.7722 16.3353 59.7722C14.9707 59.7722 13.8613 60.8816 13.8613 62.241C13.8613 63.6055 14.9707 64.7149 16.3353 64.7149Z" fill="#88A5B5"/>
<path fill-rule="evenodd" clip-rule="evenodd" d="M16.5013 64.4962C17.7409 64.4962 18.7513 63.4805 18.7513 62.241C18.7513 61.0014 17.7409 59.991 16.5013 59.991C15.2565 59.991 14.2461 61.0014 14.2461 62.241C14.2461 63.4805 15.2565 64.4962 16.5013 64.4962Z" fill="#456776"/>
<path fill-rule="evenodd" clip-rule="evenodd" d="M15.8919 77.4439C17.2513 77.4439 18.3607 76.3346 18.3607 74.9752C18.3607 73.6106 17.2513 72.5012 15.8919 72.5012C14.5273 72.5012 13.418 73.6106 13.418 74.9752C13.418 76.3346 14.5273 77.4439 15.8919 77.4439Z" fill="#88A5B5"/>
<path fill-rule="evenodd" clip-rule="evenodd" d="M16.0589 77.2252C17.2985 77.2252 18.3089 76.2148 18.3089 74.9752C18.3089 73.7304 17.2985 72.72 16.0589 72.72C14.8141 72.72 13.8037 73.7304 13.8037 74.9752C13.8037 76.2148 14.8141 77.2252 16.0589 77.2252Z" fill="#456776"/>
<path fill-rule="evenodd" clip-rule="evenodd" d="M24.8037 51.9804C26.1683 51.9804 27.2777 50.8658 27.2777 49.5064C27.2777 48.1471 26.1683 47.0325 24.8037 47.0325C23.4443 47.0325 22.335 48.1471 22.335 49.5064C22.335 50.8658 23.4443 51.9804 24.8037 51.9804Z" fill="#88A5B5"/>
<path fill-rule="evenodd" clip-rule="evenodd" d="M24.9707 51.7618C26.2155 51.7618 27.2259 50.7514 27.2259 49.5066C27.2259 48.267 26.2155 47.2566 24.9707 47.2566C23.7363 47.2566 22.7207 48.267 22.7207 49.5066C22.7207 50.7514 23.7363 51.7618 24.9707 51.7618Z" fill="#456776"/>
<path fill-rule="evenodd" clip-rule="evenodd" d="M24.3613 64.7149C25.7259 64.7149 26.8353 63.6055 26.8353 62.241C26.8353 60.8816 25.7259 59.7722 24.3613 59.7722C23.002 59.7722 21.8926 60.8816 21.8926 62.241C21.8926 63.6055 23.002 64.7149 24.3613 64.7149Z" fill="#88A5B5"/>
<path fill-rule="evenodd" clip-rule="evenodd" d="M24.5273 64.4962C25.7721 64.4962 26.7826 63.4805 26.7826 62.241C26.7826 61.0014 25.7721 59.991 24.5273 59.991C23.293 59.991 22.2773 61.0014 22.2773 62.241C22.2773 63.4805 23.293 64.4962 24.5273 64.4962Z" fill="#456776"/>
<path fill-rule="evenodd" clip-rule="evenodd" d="M23.918 77.4439C25.2826 77.4439 26.3919 76.3346 26.3919 74.9752C26.3919 73.6106 25.2826 72.5012 23.918 72.5012C22.5586 72.5012 21.4492 73.6106 21.4492 74.9752C21.4492 76.3346 22.5586 77.4439 23.918 77.4439Z" fill="#88A5B5"/>
<path fill-rule="evenodd" clip-rule="evenodd" d="M24.0902 77.2252C25.3298 77.2252 26.3454 76.2148 26.3454 74.9752C26.3454 73.7304 25.3298 72.72 24.0902 72.72C22.8506 72.72 21.835 73.7304 21.835 74.9752C21.835 76.2148 22.8506 77.2252 24.0902 77.2252Z" fill="#456776"/>
<path fill-rule="evenodd" clip-rule="evenodd" d="M32.8405 51.9804C34.1947 51.9804 35.3092 50.8658 35.3092 49.5064C35.3092 48.1471 34.1947 47.0325 32.8405 47.0325C31.4759 47.0325 30.3613 48.1471 30.3613 49.5064C30.3613 50.8658 31.4759 51.9804 32.8405 51.9804Z" fill="#88A5B5"/>
<path fill-rule="evenodd" clip-rule="evenodd" d="M33.0072 51.7618C34.2415 51.7618 35.2572 50.7514 35.2572 49.5066C35.2572 48.267 34.2415 47.2566 33.0072 47.2566C31.7624 47.2566 30.752 48.267 30.752 49.5066C30.752 50.7514 31.7624 51.7618 33.0072 51.7618Z" fill="#456776"/>
<path fill-rule="evenodd" clip-rule="evenodd" d="M32.3978 64.7149C33.7572 64.7149 34.8665 63.6055 34.8665 62.241C34.8665 60.8816 33.7572 59.7722 32.3978 59.7722C31.0332 59.7722 29.9238 60.8816 29.9238 62.241C29.9238 63.6055 31.0332 64.7149 32.3978 64.7149Z" fill="#88A5B5"/>
<path fill-rule="evenodd" clip-rule="evenodd" d="M32.5638 64.4962C33.8034 64.4962 34.8138 63.4805 34.8138 62.241C34.8138 61.0014 33.8034 59.991 32.5638 59.991C31.3242 59.991 30.3086 61.0014 30.3086 62.241C30.3086 63.4805 31.3242 64.4962 32.5638 64.4962Z" fill="#456776"/>
<path fill-rule="evenodd" clip-rule="evenodd" d="M31.9544 77.4439C33.3138 77.4439 34.4232 76.3346 34.4232 74.9752C34.4232 73.6106 33.3138 72.5012 31.9544 72.5012C30.5898 72.5012 29.4805 73.6106 29.4805 74.9752C29.4805 76.3346 30.5898 77.4439 31.9544 77.4439Z" fill="#88A5B5"/>
<path fill-rule="evenodd" clip-rule="evenodd" d="M32.1214 77.2252C33.361 77.2252 34.3714 76.2148 34.3714 74.9752C34.3714 73.7304 33.361 72.72 32.1214 72.72C30.8818 72.72 29.8662 73.7304 29.8662 74.9752C29.8662 76.2148 30.8818 77.2252 32.1214 77.2252Z" fill="#456776"/>
<path fill-rule="evenodd" clip-rule="evenodd" d="M40.8662 51.9804C42.2308 51.9804 43.3402 50.8658 43.3402 49.5064C43.3402 48.1471 42.2308 47.0325 40.8662 47.0325C39.5068 47.0325 38.3975 48.1471 38.3975 49.5064C38.3975 50.8658 39.5068 51.9804 40.8662 51.9804Z" fill="#88A5B5"/>
<path fill-rule="evenodd" clip-rule="evenodd" d="M41.0332 51.7618C42.278 51.7618 43.2884 50.7514 43.2884 49.5066C43.2884 48.267 42.278 47.2566 41.0332 47.2566C39.7936 47.2566 38.7832 48.267 38.7832 49.5066C38.7832 50.7514 39.7936 51.7618 41.0332 51.7618Z" fill="#456776"/>
<path fill-rule="evenodd" clip-rule="evenodd" d="M40.4238 64.7149C41.7884 64.7149 42.8978 63.6055 42.8978 62.241C42.8978 60.8816 41.7884 59.7722 40.4238 59.7722C39.0645 59.7722 37.9551 60.8816 37.9551 62.241C37.9551 63.6055 39.0645 64.7149 40.4238 64.7149Z" fill="#88A5B5"/>
<path fill-rule="evenodd" clip-rule="evenodd" d="M40.5898 64.4962C41.8346 64.4962 42.8503 63.4805 42.8503 62.241C42.8503 61.0014 41.8346 59.991 40.5898 59.991C39.3503 59.991 38.3398 61.0014 38.3398 62.241C38.3398 63.4805 39.3503 64.4962 40.5898 64.4962Z" fill="#456776"/>
<path fill-rule="evenodd" clip-rule="evenodd" d="M39.9805 77.4439C41.3451 77.4439 42.4596 76.3346 42.4596 74.9752C42.4596 73.6106 41.3451 72.5012 39.9805 72.5012C38.6211 72.5012 37.5117 73.6106 37.5117 74.9752C37.5117 76.3346 38.6211 77.4439 39.9805 77.4439Z" fill="#88A5B5"/>
<path fill-rule="evenodd" clip-rule="evenodd" d="M40.1523 77.2252C41.3919 77.2252 42.4023 76.2148 42.4023 74.9752C42.4023 73.7304 41.3919 72.72 40.1523 72.72C38.9076 72.72 37.9023 73.7304 37.9023 74.9752C37.9023 76.2148 38.9076 77.2252 40.1523 77.2252Z" fill="#456776"/>
<path fill-rule="evenodd" clip-rule="evenodd" d="M20.5273 57.8658C21.8919 57.8658 23.0013 56.7564 23.0013 55.3918C23.0013 54.0273 21.8919 52.9231 20.5273 52.9231C19.168 52.9231 18.0586 54.0273 18.0586 55.3918C18.0586 56.7564 19.168 57.8658 20.5273 57.8658Z" fill="#88A5B5"/>
<path fill-rule="evenodd" clip-rule="evenodd" d="M20.6943 57.6471C21.9391 57.6471 22.9495 56.6314 22.9495 55.3918C22.9495 54.1523 21.9391 53.1418 20.6943 53.1418C19.4548 53.1418 18.4443 54.1523 18.4443 55.3918C18.4443 56.6314 19.4548 57.6471 20.6943 57.6471Z" fill="#456776"/>
<path fill-rule="evenodd" clip-rule="evenodd" d="M20.085 70.6002C21.4495 70.6002 22.5589 69.4908 22.5589 68.1262C22.5589 66.7668 21.4495 65.6575 20.085 65.6575C18.7256 65.6575 17.6162 66.7668 17.6162 68.1262C17.6162 69.4908 18.7256 70.6002 20.085 70.6002Z" fill="#88A5B5"/>
<path fill-rule="evenodd" clip-rule="evenodd" d="M20.252 70.3814C21.4967 70.3814 22.5072 69.3658 22.5072 68.1262C22.5072 66.8866 21.4967 65.8762 20.252 65.8762C19.0124 65.8762 18.002 66.8866 18.002 68.1262C18.002 69.3658 19.0124 70.3814 20.252 70.3814Z" fill="#456776"/>
<path fill-rule="evenodd" clip-rule="evenodd" d="M19.6426 83.3294C21.0072 83.3294 22.1165 82.2201 22.1165 80.8607C22.1165 79.4961 21.0072 78.3867 19.6426 78.3867C18.2832 78.3867 17.1738 79.4961 17.1738 80.8607C17.1738 82.2201 18.2832 83.3294 19.6426 83.3294Z" fill="#88A5B5"/>
<path fill-rule="evenodd" clip-rule="evenodd" d="M19.8086 83.1106C21.0534 83.1106 22.0638 82.1002 22.0638 80.8606C22.0638 79.621 21.0534 78.6106 19.8086 78.6106C18.569 78.6106 17.5586 79.621 17.5586 80.8606C17.5586 82.1002 18.569 83.1106 19.8086 83.1106Z" fill="#456776"/>
<path fill-rule="evenodd" clip-rule="evenodd" d="M28.5589 57.8658C29.9183 57.8658 31.0277 56.7564 31.0277 55.3918C31.0277 54.0273 29.9183 52.9231 28.5589 52.9231C27.1943 52.9231 26.085 54.0273 26.085 55.3918C26.085 56.7564 27.1943 57.8658 28.5589 57.8658Z" fill="#88A5B5"/>
<path fill-rule="evenodd" clip-rule="evenodd" d="M28.7259 57.6471C29.9655 57.6471 30.9759 56.6314 30.9759 55.3918C30.9759 54.1523 29.9655 53.1418 28.7259 53.1418C27.4863 53.1418 26.4707 54.1523 26.4707 55.3918C26.4707 56.6314 27.4863 57.6471 28.7259 57.6471Z" fill="#456776"/>
<path fill-rule="evenodd" clip-rule="evenodd" d="M28.1165 70.6002C29.4759 70.6002 30.5853 69.4908 30.5853 68.1262C30.5853 66.7668 29.4759 65.6575 28.1165 65.6575C26.752 65.6575 25.6426 66.7668 25.6426 68.1262C25.6426 69.4908 26.752 70.6002 28.1165 70.6002Z" fill="#88A5B5"/>
<path fill-rule="evenodd" clip-rule="evenodd" d="M28.2878 70.3814C29.5221 70.3814 30.5378 69.3658 30.5378 68.1262C30.5378 66.8866 29.5221 65.8762 28.2878 65.8762C27.043 65.8762 26.0273 66.8866 26.0273 68.1262C26.0273 69.3658 27.043 70.3814 28.2878 70.3814Z" fill="#456776"/>
<path fill-rule="evenodd" clip-rule="evenodd" d="M27.6784 83.3294C29.0378 83.3294 30.1471 82.2201 30.1471 80.8607C30.1471 79.4961 29.0378 78.3867 27.6784 78.3867C26.3138 78.3867 25.1992 79.4961 25.1992 80.8607C25.1992 82.2201 26.3138 83.3294 27.6784 83.3294Z" fill="#88A5B5"/>
<path fill-rule="evenodd" clip-rule="evenodd" d="M27.8451 83.1106C29.0846 83.1106 30.0951 82.1002 30.0951 80.8606C30.0951 79.621 29.0846 78.6106 27.8451 78.6106C26.6003 78.6106 25.5898 79.621 25.5898 80.8606C25.5898 82.1002 26.6003 83.1106 27.8451 83.1106Z" fill="#456776"/>
<path fill-rule="evenodd" clip-rule="evenodd" d="M36.5898 57.8658C37.9544 57.8658 39.0638 56.7564 39.0638 55.3918C39.0638 54.0273 37.9544 52.9231 36.5898 52.9231C35.2305 52.9231 34.1211 54.0273 34.1211 55.3918C34.1211 56.7564 35.2305 57.8658 36.5898 57.8658Z" fill="#88A5B5"/>
<path fill-rule="evenodd" clip-rule="evenodd" d="M36.7568 57.6471C38.0016 57.6471 39.012 56.6314 39.012 55.3918C39.012 54.1523 38.0016 53.1418 36.7568 53.1418C35.5173 53.1418 34.5068 54.1523 34.5068 55.3918C34.5068 56.6314 35.5173 57.6471 36.7568 57.6471Z" fill="#456776"/>
<path fill-rule="evenodd" clip-rule="evenodd" d="M36.1475 70.6002C37.512 70.6002 38.6214 69.4908 38.6214 68.1262C38.6214 66.7668 37.512 65.6575 36.1475 65.6575C34.7881 65.6575 33.6787 66.7668 33.6787 68.1262C33.6787 69.4908 34.7881 70.6002 36.1475 70.6002Z" fill="#88A5B5"/>
<path fill-rule="evenodd" clip-rule="evenodd" d="M36.3145 70.3814C37.5592 70.3814 38.5697 69.3658 38.5697 68.1262C38.5697 66.8866 37.5592 65.8762 36.3145 65.8762C35.0749 65.8762 34.0645 66.8866 34.0645 68.1262C34.0645 69.3658 35.0749 70.3814 36.3145 70.3814Z" fill="#456776"/>
<path fill-rule="evenodd" clip-rule="evenodd" d="M35.7051 83.3294C37.0697 83.3294 38.179 82.2201 38.179 80.8607C38.179 79.4961 37.0697 78.3867 35.7051 78.3867C34.3457 78.3867 33.2363 79.4961 33.2363 80.8607C33.2363 82.2201 34.3457 83.3294 35.7051 83.3294Z" fill="#88A5B5"/>
<path fill-rule="evenodd" clip-rule="evenodd" d="M35.8711 83.1106C37.1159 83.1106 38.1263 82.1002 38.1263 80.8606C38.1263 79.621 37.1159 78.6106 35.8711 78.6106C34.6315 78.6106 33.6211 79.621 33.6211 80.8606C33.6211 82.1002 34.6315 83.1106 35.8711 83.1106Z" fill="#456776"/>
</svg>
