<svg width="29" height="130" viewBox="0 0 29 130" fill="none" xmlns="http://www.w3.org/2000/svg">
<path fill-rule="evenodd" clip-rule="evenodd" d="M15.6747 70.6206C15.6747 70.6206 22.3552 101.481 23.7239 112.716C24.1964 116.619 23.5446 120.154 21.4183 123.837C20.2777 125.825 18.8194 127.364 17.2878 127.853C14.5259 128.749 12.6195 128.472 16.1472 126.688C18.0617 125.719 19.2838 123.894 20.0659 121.987C21.7279 117.93 21.5812 114.883 20.9539 110.859L14.0371 71.7775L15.6747 70.6206Z" fill="#AED3D5"/>
<path fill-rule="evenodd" clip-rule="evenodd" d="M12.5708 71.1179C12.5708 71.1179 6.98199 102.264 6.1347 113.556C5.84955 117.474 6.66425 120.969 8.96985 124.554C10.2 126.477 11.7235 127.951 13.2715 128.375C16.0903 129.141 17.9723 128.774 14.3632 127.153C12.3997 126.281 11.0881 124.513 10.2245 122.639C8.37512 118.672 8.38327 115.609 8.82321 111.568L14.2572 72.1933L12.5708 71.1179Z" fill="#DEE9E8"/>
<path fill-rule="evenodd" clip-rule="evenodd" d="M10.2881 71.639C10.2881 71.639 2.40179 95.5912 0.24284 109.237C-1.91611 122.884 10.9235 129.589 14.8911 129.417C18.8424 129.401 31.3562 122.102 28.5618 108.569C25.7592 95.0372 17.1397 71.4842 17.1397 71.4842L14.9319 71.4517C18.9483 83.2078 23.0218 95.0372 26.0362 106.973C27.3723 112.293 26.8835 119.918 21.5309 124.008C15.3311 128.758 14.4023 128.774 7.99063 124.334C2.45068 120.488 1.60339 112.895 2.69508 107.527C5.14733 95.412 8.61795 83.4114 12.4796 71.5168L10.2881 71.639Z" fill="#C5DDDE"/>
<path fill-rule="evenodd" clip-rule="evenodd" d="M17.6052 68.6008C23.4059 43.0436 20.4648 27.8821 15.984 2.02354C15.5277 -0.575353 8.71685 -0.852352 8.36653 2.2598C6.09352 22.7576 3.95086 43.9561 10.0937 68.78L8.55391 68.8207C7.2504 68.8452 6.21573 69.9369 6.24832 71.2322C6.28905 72.5195 7.36446 73.5623 8.65983 73.5297L19.8212 73.269C21.1084 73.2364 22.1431 72.1528 22.1105 70.8575C22.0861 69.5621 20.9944 68.5193 19.699 68.56L17.6052 68.6008Z" fill="#43525A"/>
<path fill-rule="evenodd" clip-rule="evenodd" d="M12.0327 0.00317383C10.2648 0.0194689 8.53762 0.728258 8.36653 2.25989C6.09352 22.7577 3.95087 43.9562 10.0937 68.7801L8.55391 68.8208C7.2504 68.8452 6.21573 69.9369 6.24832 71.2323C6.28905 72.5195 7.36445 73.5624 8.65982 73.5298L13.7598 73.4076L12.0327 0.00317383Z" fill="#647883"/>
<path fill-rule="evenodd" clip-rule="evenodd" d="M10.1505 68.8855L17.4584 68.7144L17.051 67.2561L9.74316 67.4272L10.1505 68.8855Z" fill="#43525A"/>
<path fill-rule="evenodd" clip-rule="evenodd" d="M9.70989 72.9999C10.4757 72.9836 11.0786 72.397 11.0704 71.6964C11.0541 70.9957 10.4105 70.4336 9.65286 70.458C8.8789 70.4743 8.27602 71.0609 8.29231 71.7616C8.30861 72.4622 8.94407 73.0162 9.70989 72.9999Z" fill="#828A8F"/>
<path fill-rule="evenodd" clip-rule="evenodd" d="M9.11542 6.5447C7.16014 24.9325 5.88106 44.0697 11.0218 66.0422L12.4394 66.0015C7.29864 44.0372 8.56957 24.8917 10.533 6.52026L9.11542 6.5447Z" fill="#828A8F"/>
</svg>
