<svg width="102" height="9" viewBox="0 0 102 9" fill="none" xmlns="http://www.w3.org/2000/svg">
<path d="M43.6672 7.95605L43.661 0.325439H38.4238V4.51616C38.4238 4.51616 40.4095 4.62204 41.0428 5.77303C41.6183 6.82019 41.7668 7.97187 41.7668 7.97187L43.6672 7.95605Z" fill="#E6EEF1"/>
<path d="M43.6693 8.58391L43.661 0.746338H38.4238V4.93568C38.4238 4.93568 40.2046 5.19558 40.7286 6.40157C41.2518 7.6055 41.1995 8.59147 41.1995 8.59147L43.6693 8.58391Z" fill="#484144"/>
<path d="M43.6775 3.40711H38.4238V0.325439H43.6775V3.40711Z" fill="#E6EEF1"/>
<path d="M100.847 0.746338H43.6611V8.4959C43.6611 8.4959 77.1229 8.81975 85.7657 7.44874C98.9621 5.35441 100.847 0.746338 100.847 0.746338Z" fill="#E49D5B"/>
<path d="M102 0.325439H43.6611V8.07706C43.6611 8.07706 77.7974 8.40091 86.6134 7.0299C100.077 4.93557 102 0.325439 102 0.325439Z" fill="#B4BDBC"/>
<path d="M38.4242 4.93563V0.325496C38.4242 0.325496 6.65454 -0.30294 3.86095 0.186608C1.06806 0.675468 -0.747118 2.77048 0.300046 5.14465C1.34721 7.51744 3.93108 7.37855 3.93108 7.37855C3.93108 7.37855 5.04838 4.23637 8.33014 4.30719C11.6119 4.37526 13.8458 6.26057 19.9211 6.26057C25.9958 6.26057 31.3024 4.44608 34.0259 4.23637C36.7486 4.02735 38.4242 4.93563 38.4242 4.93563Z" fill="#B02D25"/>
<path d="M3.86086 0.186608C1.76584 0.552393 0.221566 1.82302 0.0214844 3.43742C0.0593006 3.75577 0.149372 4.08511 0.299949 4.42133C1.34711 6.74668 3.93099 6.60917 3.93099 6.60917C3.93099 6.60917 5.04828 3.53231 8.33004 3.60106C11.6118 3.66776 13.8457 5.51456 19.921 5.51456C25.9957 5.51456 31.3023 3.73651 34.0258 3.53231C36.7485 3.32672 38.4241 4.21575 38.4241 4.21575V0.325496C38.4241 0.325496 6.65444 -0.30294 3.86086 0.186608Z" fill="#F0544A"/>
<path d="M32.9775 1.89732C32.9775 1.37615 33.3997 0.953979 33.9202 0.953979C34.4407 0.953979 34.8628 1.37615 34.8628 1.89732C34.8628 2.4185 34.4407 2.84066 33.9202 2.84066C33.3997 2.84066 32.9775 2.4185 32.9775 1.89732Z" fill="#F2F0ED"/>
<path d="M18.293 1.89732C18.293 1.37615 18.7151 0.953979 19.2356 0.953979C19.7561 0.953979 20.1783 1.37615 20.1783 1.89732C20.1783 2.4185 19.7561 2.84066 19.2356 2.84066C18.7151 2.84066 18.293 2.4185 18.293 1.89732Z" fill="#F2F0ED"/>
<path d="M3.54688 1.89732C3.54688 1.37615 3.96904 0.953979 4.48953 0.953979C5.0107 0.953979 5.43218 1.37615 5.43218 1.89732C5.43218 2.4185 5.0107 2.84066 4.48953 2.84066C3.96904 2.84066 3.54688 2.4185 3.54688 1.89732Z" fill="#F2F0ED"/>
<path d="M79.1681 7.55245C79.404 7.57377 79.6364 7.59164 79.8681 7.61089C82.6919 7.46307 85.0516 7.27261 86.6145 7.0299C100.078 4.93557 102.001 0.325439 102.001 0.325439H55.665C59.8049 2.86531 67.6108 6.55135 79.1681 7.55245Z" fill="#C7D1D0"/>
<path d="M86.6168 6.7694C77.805 8.1686 43.668 7.95614 43.668 7.95614L43.67 8.58389C43.67 8.58389 77.0679 8.95586 85.7134 7.60548C92.7788 6.50194 96.0571 4.95285 98.2126 3.56396C95.9134 4.78577 92.1407 5.89138 86.6168 6.7694Z" fill="#69827F"/>
</svg>
