<svg width="31" height="50" viewBox="0 0 31 50" fill="none" xmlns="http://www.w3.org/2000/svg">
<path fill-rule="evenodd" clip-rule="evenodd" d="M0.113281 0.677979C6.29524 0.677979 12.4772 0.677979 18.6607 0.677979C22.5317 4.52863 26.4042 8.38084 30.2751 12.2315C29.4538 24.2331 30.2751 35.9896 30.2751 47.8679C20.2207 47.8679 10.1662 47.8679 0.113281 47.8679C0.113281 32.139 1.69352 16.8941 0.113281 0.677979Z" fill="#FEF0BA"/>
<path fill-rule="evenodd" clip-rule="evenodd" d="M30.2745 12.2314C29.4532 24.2331 30.2745 35.9896 30.2745 47.8679H28.699C30.4916 46.0753 28.7896 21.7472 28.699 18.6164C28.6069 15.484 30.2745 12.2314 30.2745 12.2314Z" fill="#FEF5D1"/>
<path fill-rule="evenodd" clip-rule="evenodd" d="M2.91016 3.35278C7.75704 3.35278 12.6024 3.35278 17.4492 3.35278C20.7924 6.67877 24.1356 10.0048 27.4787 13.3307C26.5668 24.8437 27.4787 36.3566 27.4787 47.8679C19.2137 50.4959 11.0128 50.9175 2.91016 47.8679C2.91016 33.0306 4.06566 19.013 2.91016 3.35278Z" fill="#EFDFD3"/>
<path fill-rule="evenodd" clip-rule="evenodd" d="M2.91016 2.4707C7.75704 2.4707 12.6024 2.4707 17.4492 2.4707C20.7924 5.79669 24.1356 9.12267 27.4787 12.4487C26.5668 23.9616 27.4787 35.4745 27.4787 46.9874C19.2137 49.6138 11.0128 50.0354 2.91016 46.9874C2.91016 32.1485 4.06566 18.1309 2.91016 2.4707Z" fill="#F8E8AB"/>
<path fill-rule="evenodd" clip-rule="evenodd" d="M3.10659 34.617C3.36267 24.6641 3.70308 14.7704 3.02539 4.15381C3.07848 4.1663 3.13157 4.17879 3.18622 4.20378C7.78795 6.28993 5.35046 16.182 6.56999 26.5129C7.79108 36.8437 15.7266 37.6947 17.0945 44.1937C18.4639 50.6926 14.3462 48.4503 9.96624 48.1599C5.58781 47.8679 3.10659 34.617 3.10659 34.617Z" fill="#F4E3A2"/>
<path fill-rule="evenodd" clip-rule="evenodd" d="M2.91016 2.4707C7.75704 2.4707 12.6024 2.4707 17.4492 2.4707C20.7924 5.79669 24.1356 9.12267 27.4787 12.4487C26.1202 12.0286 17.3727 2.63778 17.3727 2.63778C17.3727 2.63778 11.7482 2.68307 9.42159 2.74396C7.09653 2.80486 2.91016 2.4707 2.91016 2.4707Z" fill="#F4DE92"/>
<path fill-rule="evenodd" clip-rule="evenodd" d="M10.1867 48.822C7.75236 48.4957 5.32735 47.8961 2.91016 46.9873C2.91016 32.951 3.94387 19.6486 3.07724 4.9971L3.18654 4.20386C3.18654 4.20386 4.74804 17.9528 4.74804 26.0992C4.74804 34.2455 5.53503 45.9333 9.3279 47.7602C10.1227 48.1444 10.3398 48.4988 10.1867 48.822Z" fill="#F4DE92"/>
<path fill-rule="evenodd" clip-rule="evenodd" d="M27.4193 13.2449C26.6074 24.4923 27.4787 35.7398 27.4787 46.9872C25.1302 47.7336 22.7864 48.302 20.4473 48.6627C20.594 48.544 20.8189 48.4207 21.1374 48.2942C24.9303 46.7889 25.7173 37.1607 25.7173 30.4494C25.7173 23.7381 27.2788 12.4126 27.2788 12.4126L27.4193 13.2449Z" fill="#F4DE92"/>
<path fill-rule="evenodd" clip-rule="evenodd" d="M24.3729 47.868C18.066 49.4389 11.7982 49.6278 5.58812 47.868C4.69338 47.615 3.80177 47.3215 2.91172 46.9873C2.91016 47.2809 2.91016 47.5744 2.91016 47.868C11.0128 50.9176 19.2137 50.496 27.4787 47.868C27.4787 47.5744 27.4787 47.2809 27.4772 46.9873C26.4403 47.3168 25.4066 47.6119 24.3729 47.868Z" fill="#FEF0BA"/>
<path fill-rule="evenodd" clip-rule="evenodd" d="M19.4615 4.26154C19.4178 4.21626 19.4178 4.14443 19.4615 4.09915C19.5068 4.05386 19.5786 4.05386 19.6239 4.09915L25.9386 10.4045C25.9839 10.4498 25.9839 10.5216 25.9401 10.5669C25.8949 10.6121 25.823 10.6121 25.7778 10.5669L19.4615 4.26154Z" fill="#F4DE92"/>
<path fill-rule="evenodd" clip-rule="evenodd" d="M19.7656 4.00398C19.7203 3.95869 19.7203 3.88686 19.764 3.84158C19.8093 3.7963 19.8827 3.7963 19.9264 3.84158C22.0313 5.94335 24.1378 8.04513 26.2411 10.1469C26.2864 10.1922 26.2864 10.264 26.2427 10.3093C26.1974 10.3546 26.1256 10.3546 26.0803 10.3093C23.9754 8.20752 21.8705 6.10575 19.7656 4.00398Z" fill="#F4DF96"/>
<path fill-rule="evenodd" clip-rule="evenodd" d="M20.0693 3.74641C20.024 3.70112 20.024 3.62929 20.0678 3.58401C20.113 3.53873 20.1864 3.53873 20.2302 3.58401C22.335 5.68578 24.4399 7.78756 26.5464 9.88933C26.5901 9.93305 26.5901 10.0064 26.5464 10.0517C26.5011 10.0954 26.4293 10.097 26.384 10.0517C24.2791 7.94995 22.1742 5.84818 20.0693 3.74641Z" fill="#F4E09B"/>
<path fill-rule="evenodd" clip-rule="evenodd" d="M20.3719 3.48723C20.3266 3.44351 20.3266 3.37012 20.3719 3.3264C20.4156 3.28111 20.489 3.28111 20.5327 3.32484C22.6376 5.42817 24.7425 7.52994 26.8489 9.63172C26.8927 9.67544 26.8942 9.74883 26.8489 9.79411C26.8037 9.83783 26.7318 9.83939 26.6865 9.79411C24.5816 7.69234 22.4767 5.59057 20.3719 3.48723Z" fill="#F4E29E"/>
<path fill-rule="evenodd" clip-rule="evenodd" d="M20.6748 3.22942C20.6295 3.1857 20.6295 3.11231 20.6732 3.06858C20.7185 3.0233 20.7903 3.0233 20.8356 3.06702L27.1519 9.3739C27.1956 9.41763 27.1972 9.49102 27.1519 9.5363C27.1066 9.58002 27.0348 9.58002 26.9895 9.5363L20.6748 3.22942Z" fill="#F4E3A2"/>
<path fill-rule="evenodd" clip-rule="evenodd" d="M27.282 9.54736L25.9609 10.7076L27.5193 12.2269L28.9465 11.1323L27.282 9.54736Z" fill="#F4E3A2"/>
<path fill-rule="evenodd" clip-rule="evenodd" d="M19.2896 4.04623L20.6106 2.88603L19.0522 1.3667L17.625 2.45975L19.2896 4.04623Z" fill="#F4E3A2"/>
<path fill-rule="evenodd" clip-rule="evenodd" d="M0.453125 1.26514C0.453125 1.26514 1.09958 4.1539 1.3666 8.67756C1.63205 13.1997 1.32912 37.5637 1.09958 41.5533C0.871606 45.5445 0.735756 47.3105 1.82256 47.3683C2.90936 47.4276 1.97402 45.24 2.16452 43.1117C2.35347 40.9833 3.72914 9.49578 0.453125 1.26514Z" fill="#FEF5D1"/>
<path fill-rule="evenodd" clip-rule="evenodd" d="M3.21289 2.4707C3.21289 2.4707 6.1001 3.10779 7.26029 3.86824C8.41892 4.62869 10.5098 5.52187 12.7708 4.85667C15.0319 4.19147 17.3335 3.23896 17.5818 3.48568C17.8285 3.73239 19.5742 6.05277 19.5368 7.15519C19.4993 8.25761 20.3113 10.0955 23.3374 10.8794C26.3636 11.6648 27.2787 12.4127 27.2787 12.4127L17.3725 2.63778L3.21289 2.4707Z" fill="#F4E3A2"/>
<path fill-rule="evenodd" clip-rule="evenodd" d="M20.7452 15.4966C23.1015 19.2973 23.3294 20.6667 24.2414 31.1568C25.1533 41.647 21.0497 43.6988 17.5519 38.7582C14.0557 33.8161 12.7628 15.876 10.1785 12.1519C7.59425 8.42771 14.215 7.7063 20.7452 15.4966Z" fill="#FEF0BA"/>
<path fill-rule="evenodd" clip-rule="evenodd" d="M21.2653 18.0808C23.5841 18.1089 25.8405 19.3862 25.4532 20.8977L23.3593 29.069C22.3115 33.1539 8.74055 33.246 7.45856 29.069L4.94923 20.8977C4.49015 19.3987 6.80741 18.1152 9.12311 18.0808C11.5575 13.4057 18.8309 13.4057 21.2653 18.0808Z" fill="#6AA1D5"/>
<path fill-rule="evenodd" clip-rule="evenodd" d="M6.51259 25.9851L4.94953 20.8978C4.70282 20.0952 5.25402 19.3535 6.17375 18.8335C6.18624 21.1195 6.25182 23.5367 6.51259 25.9851Z" fill="#5080B0"/>
<path fill-rule="evenodd" clip-rule="evenodd" d="M21.266 18.0808C21.5783 18.0854 21.8906 18.1104 22.1951 18.1588C23.0523 20.1248 23.4162 22.2906 23.8737 27.064L23.36 29.069C22.8166 31.1926 18.8894 32.2357 15.0622 32.1639C13.7084 26.7861 12.7043 19.8749 11.5176 15.5589C14.7108 13.6633 19.4047 14.5049 21.266 18.0808Z" fill="#8CC1EB"/>
<path fill-rule="evenodd" clip-rule="evenodd" d="M20.5268 18.4666C18.4032 14.3864 11.9855 14.3864 9.86182 18.4666C9.7166 18.7446 9.44959 18.9101 9.13417 18.9148C8.32375 18.9257 7.43057 19.1178 6.70604 19.4925C6.37813 19.6627 5.78632 20.0469 5.72854 20.4544C5.71917 20.5231 5.72698 20.5871 5.74728 20.6543L8.25504 28.824C8.53455 29.7344 9.75252 30.3137 10.5707 30.6041C12.0588 31.1351 13.8124 31.3302 15.3848 31.3349C16.9822 31.338 18.778 31.146 20.2911 30.6104C21.0702 30.334 22.3226 29.7547 22.5521 28.8615L24.6461 20.6918C24.6648 20.6215 24.6695 20.5528 24.6586 20.4825C24.593 20.0562 24.0215 19.6721 23.6764 19.491C22.955 19.1115 22.0665 18.9242 21.2561 18.9148C20.9406 18.9101 20.6721 18.7446 20.5268 18.4666Z" fill="white"/>
<path fill-rule="evenodd" clip-rule="evenodd" d="M6.18294 19.8298C5.95808 20.0078 5.76133 20.2265 5.72854 20.4544C5.71917 20.5231 5.72698 20.5872 5.74728 20.6543L6.24696 22.2845C6.21261 21.4554 6.19387 20.634 6.18294 19.8298Z" fill="#E8DFE0"/>
<path fill-rule="evenodd" clip-rule="evenodd" d="M20.5264 18.4665C18.8587 15.2623 14.5427 14.5752 11.7383 16.4037C12.7704 20.5011 13.687 26.4317 14.855 31.3254C15.033 31.3301 15.2095 31.3332 15.3844 31.3348C16.9818 31.3379 18.7775 31.1458 20.2906 30.6102C21.0698 30.3338 22.3221 29.7545 22.5516 28.8613L23.6244 24.6734C23.3308 22.0891 23.031 20.4589 22.5532 19.077C22.1222 18.9724 21.6772 18.9193 21.2556 18.9146C20.9402 18.9099 20.6716 18.7444 20.5264 18.4665Z" fill="white"/>
<path fill-rule="evenodd" clip-rule="evenodd" d="M20.1948 18.6383C18.2102 14.8266 12.1766 14.8266 10.1919 18.6383C9.98266 19.0396 9.59072 19.2816 9.13945 19.2878C8.38369 19.2988 7.54985 19.4752 6.8784 19.8234C6.68166 19.9249 6.13201 20.2669 6.09766 20.5074L6.10234 20.5433L8.61166 28.7146C8.84589 29.4782 10.0045 30.0075 10.6947 30.2527C12.15 30.7711 13.8458 30.9569 15.3854 30.96C16.9501 30.9647 18.6849 30.782 20.1652 30.2589C20.8085 30.0294 22.0015 29.5 22.1889 28.7692L24.2844 20.5979L24.2875 20.5386C24.2469 20.2716 23.7191 19.9359 23.5021 19.8219C22.8338 19.4705 22.0031 19.2972 21.2504 19.2878C20.7976 19.2816 20.4041 19.0396 20.1948 18.6383Z" fill="#6AA1D5"/>
<path fill-rule="evenodd" clip-rule="evenodd" d="M20.1958 18.6383C18.614 15.6012 14.4604 14.9844 11.834 16.788C12.8021 20.7604 13.6765 26.2834 14.7665 30.9492C14.9757 30.957 15.1818 30.9601 15.3864 30.9601C16.951 30.9648 18.6858 30.7821 20.1661 30.259C20.8095 30.0295 22.0024 29.5001 22.1898 28.7693L23.503 23.6492C23.2751 21.8738 23.0299 20.5949 22.6911 19.5003C22.2195 19.3629 21.7198 19.2926 21.2514 19.2879C20.7985 19.2817 20.405 19.0396 20.1958 18.6383Z" fill="#7FB5E5"/>
<path fill-rule="evenodd" clip-rule="evenodd" d="M21.4357 25.1715V22.5576H22.4804V23.0635H21.9666V23.5726H22.4601V24.0629H21.9666V24.6625H22.5147V25.1715H21.4357ZM20.6534 25.195C20.4145 25.195 20.2427 25.1356 20.1365 25.017C20.0304 24.8983 19.9788 24.7078 19.9788 24.4486V24.194H20.4957V24.5204C20.4957 24.5813 20.5051 24.6281 20.5238 24.6625C20.541 24.6969 20.5738 24.714 20.619 24.714C20.6659 24.714 20.6987 24.7 20.7174 24.6719C20.7362 24.6453 20.744 24.5985 20.744 24.536C20.744 24.4548 20.7377 24.3877 20.7205 24.3346C20.7049 24.2799 20.6768 24.2284 20.6393 24.18C20.6003 24.1316 20.5457 24.0738 20.4754 24.0082L20.2412 23.7865C20.0663 23.6194 19.9788 23.4305 19.9788 23.2181C19.9788 22.9964 20.0304 22.8262 20.1334 22.7091C20.238 22.592 20.3879 22.5342 20.5831 22.5342C20.822 22.5342 20.9922 22.5982 21.0922 22.7247C21.1937 22.8527 21.2436 23.0479 21.2436 23.3071H20.7112V23.1275C20.7112 23.0916 20.7018 23.0651 20.6815 23.0448L20.6003 23.0151C20.5582 23.0151 20.5269 23.0261 20.5082 23.0495C20.4894 23.0729 20.4785 23.1026 20.4785 23.14C20.4785 23.176 20.4894 23.2166 20.5082 23.2587C20.5285 23.3009 20.5675 23.3493 20.6253 23.4055L20.9267 23.6959C20.9876 23.7521 21.0438 23.813 21.0937 23.8771C21.1437 23.9411 21.1843 24.0145 21.2155 24.0988C21.2452 24.1847 21.2608 24.2877 21.2608 24.4095C21.2608 24.6547 21.2171 24.8468 21.125 24.9857C21.036 25.1263 20.8783 25.195 20.6534 25.195ZM19.3199 25.1715V22.5576H19.8242V25.1715H19.3199ZM18.3736 24.3315H18.611L18.497 23.0026H18.4736L18.3736 24.3315ZM17.7959 25.1715L18.0488 22.5576H18.9358L19.1825 25.1715H18.689L18.6516 24.7499H18.3361L18.3049 25.1715H17.7959ZM16.353 25.1715V22.5576H16.8902L17.1307 23.8084V22.5576H17.6366V25.1715H17.126L16.8637 23.8646V25.1715H16.353ZM14.84 25.1715V22.5576H15.3771L15.6176 23.8084V22.5576H16.1219V25.1715H15.6113L15.349 23.8646V25.1715H14.84ZM13.9889 24.714C14.067 24.714 14.1076 24.6375 14.1076 24.4829V23.2072C14.1076 23.0791 14.0686 23.0151 13.9921 23.0151C13.9046 23.0151 13.8609 23.0807 13.8609 23.2134V24.486C13.8609 24.5672 13.8703 24.6266 13.8906 24.6609C13.9109 24.6969 13.9437 24.714 13.9889 24.714ZM13.9843 25.195C13.775 25.195 13.6157 25.1309 13.5049 25.0045C13.394 24.8795 13.3394 24.6969 13.3394 24.4579V23.2166C13.3394 22.9933 13.394 22.8231 13.5033 22.7075C13.6126 22.592 13.7735 22.5342 13.9843 22.5342C14.1951 22.5342 14.3543 22.592 14.4636 22.7075C14.5745 22.8231 14.6276 22.9933 14.6276 23.2166V24.4579C14.6276 24.6969 14.5729 24.8795 14.4621 25.0045C14.3528 25.1309 14.1919 25.195 13.9843 25.195ZM12.3197 25.1715H12.8116V24.3112L13.2285 22.5576H12.7116L12.5649 23.443L12.4196 22.5576H11.9012L12.3197 24.3112V25.1715ZM11.1049 24.3315H11.3422L11.2282 23.0026H11.2048L11.1049 24.3315ZM10.5271 25.1715L10.7801 22.5576H11.6654L11.9137 25.1715H11.4203L11.3828 24.7499H11.0674L11.0346 25.1715H10.5271ZM8.33008 25.1715V22.5576H9.12644L9.34505 24.1503L9.56366 22.5576H10.3663V25.1715H9.88845V23.2884L9.58864 25.1715H9.11863L8.80165 23.2884V25.1715H8.33008Z" fill="white"/>
<path fill-rule="evenodd" clip-rule="evenodd" d="M1.80078 1.03254C1.80078 1.03254 17.689 0.767085 17.803 1.05128C17.917 1.33703 17.0613 1.8492 13.8305 1.8492C10.5998 1.8492 2.73299 1.90698 1.80078 1.03254Z" fill="#FEF5D1"/>
<path fill-rule="evenodd" clip-rule="evenodd" d="M22.591 3.47144L26.5245 7.39704L25.9623 7.96074L22.0273 4.03514L22.591 3.47144Z" fill="#426D9B"/>
<path fill-rule="evenodd" clip-rule="evenodd" d="M25.058 7.05976L22.8984 4.90334C23.0218 4.77061 23.2139 4.57386 23.2435 4.59885C23.2888 4.6332 25.3906 6.70686 25.3765 6.75215C25.3703 6.77557 25.2063 6.92547 25.058 7.05976Z" fill="#5080B0"/>
<path fill-rule="evenodd" clip-rule="evenodd" d="M22.3442 3.5808C22.2817 3.51834 22.911 2.51117 23.2998 2.82035C23.4544 2.79068 23.8885 2.73915 24.0993 2.71417C25.0596 1.8491 26.1839 0.918446 27.0833 0.0174627C27.3503 -0.249553 30.2344 2.62985 29.9689 2.89686C29.0695 3.79784 28.1404 4.92368 27.2769 5.88556C27.2535 6.09793 27.202 6.53202 27.1723 6.68661C27.483 7.07386 26.4774 7.70627 26.415 7.64225C25.058 6.28843 23.7011 4.93461 22.3442 3.5808Z" fill="#6AA1D5"/>
<path fill-rule="evenodd" clip-rule="evenodd" d="M22.3442 3.5808C22.2817 3.51834 22.911 2.51118 23.2998 2.82036C23.4544 2.79069 23.8885 2.73916 24.0993 2.71417C25.0596 1.84911 26.1839 0.918454 27.0833 0.0174706C27.1848 -0.0840269 27.6642 0.268872 28.206 0.760743C27.7329 0.6327 25.4968 2.98431 25.1064 3.29974C24.7176 3.61516 24.3398 3.69636 24.0821 3.70729C23.8869 3.71353 23.47 4.26006 23.2842 4.5177L22.3442 3.5808Z" fill="#6195C7"/>
<path fill-rule="evenodd" clip-rule="evenodd" d="M29.1962 1.74756C29.7021 2.29877 30.0722 2.79376 29.9692 2.89682C29.0697 3.7978 28.1407 4.92364 27.2771 5.88552C27.2537 6.09789 27.2022 6.53198 27.1725 6.68657C27.4833 7.07382 26.4777 7.70623 26.4152 7.64221L25.4502 6.68032C25.7078 6.49294 26.2528 6.07603 26.2591 5.87928C26.27 5.62163 26.3496 5.24375 26.665 4.85337C26.9805 4.46456 29.3368 2.21445 29.1962 1.74756Z" fill="#6195C7"/>
<path fill-rule="evenodd" clip-rule="evenodd" d="M23.2803 2.80786L23.299 2.82035C23.4536 2.79068 23.8877 2.73915 24.0985 2.71417C25.0588 1.8491 26.1831 0.918446 27.0825 0.0174627C27.3495 -0.249553 30.2336 2.62985 29.9682 2.89686C29.0687 3.79784 28.1396 4.92368 27.2761 5.88556C27.2527 6.09793 27.2012 6.53202 27.1715 6.68661L27.1809 6.69754C25.7802 5.50144 24.492 4.19134 23.2803 2.80786Z" fill="#6195C7"/>
<path fill-rule="evenodd" clip-rule="evenodd" d="M23.2803 2.80786L23.299 2.82036C23.4536 2.79069 23.8877 2.73916 24.0985 2.71417C25.0588 1.84911 26.1831 0.918454 27.0825 0.0174706C27.184 -0.0840269 27.6634 0.268872 28.2052 0.760743C27.7321 0.6327 25.496 2.98431 25.1057 3.29973C24.72 3.6136 24.3468 3.69479 24.0891 3.70729C23.8159 3.4106 23.5457 3.11079 23.2803 2.80786Z" fill="#5386BB"/>
<path fill-rule="evenodd" clip-rule="evenodd" d="M29.196 1.74756C29.7019 2.29877 30.072 2.79376 29.9689 2.89682C29.0695 3.7978 28.1404 4.92364 27.2769 5.88552C27.2535 6.09789 27.2019 6.53198 27.1723 6.68657L27.1816 6.6975C26.8678 6.43048 26.5617 6.15722 26.2588 5.87928C26.2697 5.62163 26.3494 5.24375 26.6648 4.85337C26.9802 4.46456 29.3365 2.21445 29.196 1.74756Z" fill="#5386BB"/>
<path fill-rule="evenodd" clip-rule="evenodd" d="M24.0996 2.71417C25.0599 1.8491 26.1842 0.918446 27.0836 0.0174627C27.3506 -0.249553 30.2347 2.62985 29.9693 2.89686C29.0699 3.79784 28.1408 4.92368 27.2773 5.88556C26.1171 4.92993 25.0709 3.8603 24.0996 2.71417Z" fill="#6AA1D5"/>
<path fill-rule="evenodd" clip-rule="evenodd" d="M24.0996 2.71417C25.0599 1.84911 26.1842 0.918454 27.0836 0.0174706C27.1851 -0.0840269 27.6645 0.268872 28.2063 0.760743C27.7332 0.6327 25.4971 2.98431 25.1068 3.29973C25.0022 3.38562 24.8975 3.45432 24.796 3.50741C24.5587 3.24821 24.3276 2.98275 24.0996 2.71417Z" fill="#6195C7"/>
<path fill-rule="evenodd" clip-rule="evenodd" d="M29.1961 1.74756C29.702 2.29877 30.0721 2.79376 29.969 2.89682C29.0696 3.7978 28.1405 4.92364 27.277 5.88552C26.9959 5.65442 26.7211 5.41707 26.4541 5.17192C26.5088 5.06886 26.5775 4.96112 26.6649 4.85337C26.9803 4.46456 29.3366 2.21445 29.1961 1.74756Z" fill="#6195C7"/>
<path fill-rule="evenodd" clip-rule="evenodd" d="M27.1411 0.126709L27.2536 0.132955L27.2473 0.245383L24.421 2.80311L24.3086 2.79843L24.3148 2.686L27.1411 0.126709Z" fill="#5080B0"/>
<path fill-rule="evenodd" clip-rule="evenodd" d="M27.4197 0.30957L27.5336 0.311132L27.5258 0.425121C26.578 1.30424 25.6302 2.18337 24.6823 3.06249L24.5684 3.05936L24.5746 2.94538C25.5224 2.06625 26.4703 1.18713 27.4197 0.30957Z" fill="#5080B0"/>
<path fill-rule="evenodd" clip-rule="evenodd" d="M27.6784 0.509277H27.7924L27.7862 0.623267C26.8384 1.52269 25.889 2.42055 24.9411 3.31997L24.8271 3.31841L24.8334 3.20442C25.7812 2.305 26.7306 1.40714 27.6784 0.509277Z" fill="#5080B0"/>
<path fill-rule="evenodd" clip-rule="evenodd" d="M27.9325 0.712402H28.0481L28.0434 0.826392C27.0956 1.74299 26.1478 2.66115 25.2015 3.57775L25.0859 3.57931L25.0906 3.46376C26.0384 2.54716 26.9863 1.63056 27.9325 0.712402Z" fill="#6195C7"/>
<path fill-rule="evenodd" clip-rule="evenodd" d="M28.1783 0.927928L28.2938 0.924805L28.2891 1.04036C27.346 1.97257 26.4028 2.90322 25.4613 3.83543L25.3457 3.83856L25.3488 3.72301C26.292 2.79079 27.2351 1.86014 28.1783 0.927928Z" fill="#6195C7"/>
<path fill-rule="evenodd" clip-rule="evenodd" d="M28.4277 1.13545L28.5432 1.13232L28.5401 1.24787C27.6001 2.1957 26.6601 3.14509 25.72 4.09448L25.6045 4.0976L25.6076 3.98205C26.5476 3.03423 27.4877 2.08484 28.4277 1.13545Z" fill="#6195C7"/>
<path fill-rule="evenodd" clip-rule="evenodd" d="M28.6552 1.36831L28.7708 1.36206L28.7692 1.47761L25.9788 4.35233L25.8633 4.35857L25.8648 4.24302L28.6552 1.36831Z" fill="#6195C7"/>
<path fill-rule="evenodd" clip-rule="evenodd" d="M29.8397 2.82044L29.835 2.70801L29.721 2.71425L27.168 5.54525L27.1727 5.65767L27.2851 5.65143L29.8397 2.82044Z" fill="#5080B0"/>
<path fill-rule="evenodd" clip-rule="evenodd" d="M29.6568 2.54236L29.6537 2.42993L29.5397 2.43618C28.6637 3.38557 27.7862 4.33496 26.9102 5.28591L26.9133 5.3999L27.0257 5.39209C27.9033 4.4427 28.7808 3.49331 29.6568 2.54236Z" fill="#5080B0"/>
<path fill-rule="evenodd" clip-rule="evenodd" d="M29.4564 2.28318L29.4548 2.16919L29.3408 2.17544C28.4445 3.12639 27.5483 4.07578 26.6504 5.02673L26.652 5.14072L26.7659 5.13447C27.6622 4.18352 28.5601 3.23413 29.4564 2.28318Z" fill="#5080B0"/>
<path fill-rule="evenodd" clip-rule="evenodd" d="M29.2523 2.02878V1.91479L29.1383 1.91948C28.2232 2.86887 27.3082 3.81826 26.3916 4.76765V4.88164L26.5056 4.87695C27.4222 3.92756 28.3372 2.97817 29.2523 2.02878Z" fill="#6195C7"/>
<path fill-rule="evenodd" clip-rule="evenodd" d="M29.0368 1.78498L29.0384 1.66943L28.9244 1.67412C27.9937 2.61882 27.0646 3.56353 26.134 4.50823L26.1309 4.62378L26.2464 4.6191C27.1771 3.67439 28.1062 2.72969 29.0368 1.78498Z" fill="#6195C7"/>
<path d="M26.6775 4.79562C26.651 4.79562 26.6275 4.78781 26.6104 4.76907C27.2303 4.1273 27.8486 3.48552 28.467 2.84375C28.3811 2.96867 28.2874 3.09827 28.1906 3.231C27.6113 3.87278 26.9539 4.52704 26.7197 4.79094C26.704 4.79406 26.69 4.79562 26.6775 4.79562Z" fill="#72AADD"/>
<path d="M26.7197 4.79089C26.954 4.527 27.6113 3.87273 28.1907 3.23096C27.6566 3.95861 27.007 4.71906 26.7197 4.79089Z" fill="#6EA3D6"/>
<path d="M26.7334 4.41298C26.7771 4.28806 26.8318 4.13503 26.8927 3.96327C27.5922 3.25123 28.2933 2.54074 28.9929 1.8287C29.0038 1.84588 29.0116 1.86149 29.0163 1.87399C29.0288 1.90834 28.9835 2.01452 28.8976 2.16755C28.1762 2.9155 27.4548 3.66502 26.7334 4.41298ZM27.0192 3.60881C27.0785 3.44173 27.1409 3.26684 27.2065 3.08727L28.7306 1.51796C28.793 1.58199 28.8492 1.64601 28.8976 1.70066C28.2699 2.33775 27.6453 2.97328 27.0192 3.60881ZM27.3408 2.72188C27.3939 2.57978 27.4454 2.43769 27.497 2.30027C27.8327 1.96143 28.1669 1.62415 28.5026 1.2853C28.5416 1.32434 28.5806 1.36338 28.6197 1.40398L27.3408 2.72188ZM27.6359 1.93488C27.6922 1.7881 27.7468 1.65069 27.7968 1.52577C27.9545 1.37118 28.1106 1.21503 28.2683 1.06045C28.3043 1.0948 28.3449 1.13384 28.3886 1.176C28.1372 1.42896 27.8873 1.68192 27.6359 1.93488ZM27.9576 1.14477C28.0263 0.993302 28.0763 0.904297 28.0981 0.904297C28.0997 0.904297 28.1013 0.904297 28.1028 0.905858C28.1028 0.905858 28.12 0.923035 28.1528 0.952703C28.0872 1.01672 28.0232 1.08075 27.9576 1.14477Z" fill="#72AADD"/>
<path d="M27.7969 1.52595C27.8578 1.37605 27.9124 1.24644 27.9577 1.14494C28.0233 1.08092 28.0873 1.0169 28.1529 0.952881C28.181 0.979427 28.2216 1.0169 28.2684 1.06062C28.1107 1.21521 27.9546 1.37136 27.7969 1.52595Z" fill="#6EA3D6"/>
<path d="M27.4971 2.3003C27.5455 2.17382 27.5908 2.05202 27.636 1.93491C27.8874 1.68195 28.1373 1.42899 28.3887 1.17603C28.4246 1.21038 28.4636 1.24785 28.5027 1.28533C28.167 1.62418 27.8328 1.96146 27.4971 2.3003Z" fill="#6EA3D6"/>
<path d="M27.2061 3.08735C27.2498 2.96711 27.2951 2.84375 27.3403 2.72196L28.6192 1.40405C28.6582 1.44153 28.6942 1.48057 28.7301 1.51804L27.2061 3.08735Z" fill="#6EA3D6"/>
<path d="M26.6104 4.76918C26.6119 4.76137 26.6588 4.62708 26.7337 4.41316C27.4551 3.6652 28.1765 2.91568 28.8979 2.16772C28.7996 2.34417 28.6481 2.58152 28.467 2.84385C27.8486 3.48563 27.2303 4.1274 26.6104 4.76918Z" fill="#6EA3D6"/>
<path d="M26.8926 3.96329C26.9316 3.85086 26.9738 3.73219 27.0191 3.60883C27.6452 2.9733 28.2698 2.33777 28.8975 1.70068C28.9381 1.75065 28.9709 1.79437 28.9928 1.82873C28.2932 2.54077 27.5921 3.25125 26.8926 3.96329Z" fill="#6EA3D6"/>
<path fill-rule="evenodd" clip-rule="evenodd" d="M24.6448 4.44732C24.8369 4.67529 26.0564 5.7824 26.0517 5.96197C26.0455 6.14154 25.6239 6.7474 25.4302 6.38045C25.235 6.01194 25.0071 5.26086 24.6417 4.83925C24.2763 4.41921 23.914 3.76026 24.6448 4.44732Z" fill="#72AADD"/>
</svg>
