<svg width="28" height="63" viewBox="0 0 28 63" fill="none" xmlns="http://www.w3.org/2000/svg">
<path d="M27.2173 50.6663C27.4648 51.5292 27.5886 59.1822 27.4648 60.5403C27.341 61.8966 24.6267 62.885 24.6267 62.885H3.15113C3.15113 62.885 0.43509 61.8966 0.31304 60.5403C0.189271 59.1822 0.31304 51.5292 0.558858 50.6663C0.806396 49.8016 3.02736 45.4216 3.08924 42.3961C3.15113 39.3724 2.41023 37.4608 1.54729 35.5476C0.682627 33.6343 -0.0582666 31.7211 0.00361776 27.3393C0.0655021 22.9575 3.70637 18.7614 4.01579 18.3918C4.32349 18.0223 5.24832 15.1206 5.75027 14.6891C6.2505 14.2559 7.471 13.5167 7.471 13.5167L13.766 13.0423L13.8881 13.0337L14.0118 13.0423L20.3069 13.5167C20.3069 13.5167 21.5273 14.2559 22.0276 14.6891C22.5278 15.1206 23.4544 18.0223 23.7621 18.3918C24.0715 18.7614 27.7124 22.9575 27.7725 27.3393C27.8361 31.7211 27.0952 33.6343 26.2306 35.5476C25.3659 37.4608 24.6267 39.3724 24.6886 42.3961C24.7505 45.4216 26.9715 49.8016 27.2173 50.6663Z" fill="#F6CC29"/>
<path d="M14.011 13.0234H13.791V13.0423H14.011L14.0265 12.8223L13.9028 12.8137L13.8873 13.0337L13.9062 13.252L14.03 13.2417L14.011 13.0234L13.9939 12.8033L13.8701 12.8137L13.8718 13.252L13.9956 13.2606L14.2311 13.2778V12.7827L13.9939 12.8033L14.011 13.0234Z" fill="#DEB910"/>
<path d="M13.8887 13.0337L13.8733 12.8137L13.7512 12.8223L13.7667 13.0423H13.985V13.0234H13.7667L13.7478 13.2417L13.8715 13.252L13.8887 13.0337L13.9076 12.8137L13.7839 12.8033L13.5449 12.7827V13.2778L13.9042 13.252L13.9076 12.8137L13.8887 13.0337Z" fill="#DEB910"/>
<path d="M25.0592 29.3144C25.0592 35.6197 19.9486 40.7303 13.6433 40.7303C7.33792 40.7303 2.22559 35.6197 2.22559 29.3144C2.22559 23.0091 7.33792 17.8984 13.6433 17.8984C19.9486 17.8984 25.0592 23.0091 25.0592 29.3144Z" fill="#F9A72C"/>
<path d="M13.8466 53.9135H13.4375C9.52849 53.9135 6.36035 50.7436 6.36035 46.8346V36.187H20.9238V46.8346C20.9238 50.7436 17.754 53.9135 13.8466 53.9135Z" fill="#F9A72C"/>
<path d="M24.6264 62.8851H18.4517C18.4517 62.8851 21.166 61.8967 21.2898 60.5404C21.4136 59.1824 21.2898 51.5293 21.0423 50.6664C20.9769 50.4326 20.7638 49.9375 20.4887 49.2843C20.7707 48.5211 20.9236 47.6959 20.9236 46.8347V38.1073C23.4489 36.0135 25.0579 32.8523 25.0579 29.3146C25.0579 24.491 22.0668 20.3671 17.8397 18.6945C17.7143 18.5398 17.6249 18.4367 17.587 18.392C17.2793 18.0224 16.3528 15.1207 15.8526 14.6892C15.3523 14.256 14.1318 13.5168 14.1318 13.5168H20.3065C20.3065 13.5168 21.527 14.256 22.0273 14.6892C22.5275 15.1207 23.454 18.0224 23.7617 18.392C24.0712 18.7615 27.712 22.9577 27.7722 27.3394C27.7756 27.5113 27.7773 27.6781 27.7773 27.8414C27.7773 31.8707 27.0605 33.7083 26.2302 35.5477C25.4 37.3853 24.6848 39.2246 24.6848 42.0473C24.6848 42.1624 24.6848 42.2793 24.6883 42.3962C24.7502 45.4217 26.9711 49.8017 27.2169 50.6664C27.3992 51.299 27.5126 55.5742 27.5126 58.3486C27.5126 58.4483 27.5126 58.5463 27.5126 58.6426C27.5109 59.0723 27.5075 59.4591 27.4989 59.7789C27.492 60.1106 27.48 60.3736 27.4645 60.5404C27.4284 60.9495 27.1551 61.326 26.7906 61.6509C26.6222 61.8021 26.4348 61.9414 26.2405 62.0686C25.4721 62.5774 24.6264 62.8851 24.6264 62.8851Z" fill="#F4BC1D"/>
<path d="M20.9237 38.1071V36.187H19.772C19.8648 35.9738 19.9594 35.7607 20.0556 35.5475C20.9203 33.6343 21.6595 31.721 21.5993 27.3392C21.5443 23.4955 18.7372 19.7962 17.8398 18.6943C22.0669 20.3669 25.058 24.4908 25.058 29.3144C25.058 32.8521 23.449 36.0134 20.9237 38.1071Z" fill="#F89B21"/>
<path d="M20.4895 49.2842C19.7503 47.5239 18.5591 44.5998 18.5144 42.3961C18.4594 39.7093 19.0369 37.9009 19.7727 36.187H20.9244V46.8346C20.9244 47.6958 20.7714 48.5209 20.4895 49.2842Z" fill="#F89B21"/>
<path d="M8.64355 8.51793L10.433 0.926781C10.9264 -0.180262 16.2966 -0.431237 16.9739 0.926781C17.5463 3.57578 18.8871 8.51793 18.8871 8.51793H8.64355Z" fill="#F6CC29"/>
<path d="M9.84885 8.32189C10.8992 8.29954 11.9753 8.27547 12.9809 7.93339C13.9814 7.59474 14.8512 6.90714 15.4666 6.05451C16.5667 4.52975 16.8349 2.58555 16.8504 0.747924C15.8052 -0.405532 10.9026 -0.128772 10.4333 0.926701L8.68164 8.35283C9.07014 8.33564 9.46035 8.32876 9.84885 8.32189Z" fill="#F6CC29"/>
<path d="M18.8737 8.46637C17.7941 8.35291 16.3261 8.26868 14.351 8.26868C14.1601 8.26868 13.9659 8.2704 13.7665 8.27212C13.7665 8.27212 13.4158 8.26524 12.8657 8.26524C12.6663 8.26524 12.4394 8.26696 12.1953 8.26868C12.4549 8.21711 12.7127 8.15179 12.9689 8.06928C14.8735 7.44012 16.1078 5.73314 16.608 3.85426C16.8624 2.89849 16.9535 1.90834 16.9707 0.921631L16.9742 0.926788C17.5122 3.41763 18.7293 7.93348 18.8737 8.46637Z" fill="#F4BC1D"/>
<path d="M13.7667 8.2723C13.7667 8.2723 5.92803 8.14681 5.80598 9.07336C5.68222 9.99819 5.80598 13.517 5.80598 13.517H21.6037V9.01148C21.6037 9.01148 20.1013 8.22073 13.7667 8.2723Z" fill="#F9A72C"/>
<mask id="mask0_549_45799" style="mask-type:luminance" maskUnits="userSpaceOnUse" x="5" y="8" width="17" height="6">
<path d="M5.44141 8.43018H21.7239V13.711H5.44141V8.43018Z" fill="white"/>
</mask>
<g mask="url(#mask0_549_45799)">
<mask id="mask1_549_45799" style="mask-type:luminance" maskUnits="userSpaceOnUse" x="19" y="8" width="3" height="2">
<path d="M21.6025 9.01147C21.5905 9.00631 21.1109 8.76049 19.5947 8.55249C21.1109 8.75877 21.5905 9.00631 21.6025 9.01147Z" fill="white"/>
</mask>
<g mask="url(#mask1_549_45799)">
<mask id="mask2_549_45799" style="mask-type:luminance" maskUnits="userSpaceOnUse" x="19" y="8" width="3" height="2">
<path d="M21.6006 9.01147C21.5885 9.00631 21.1089 8.76049 19.5928 8.55249C21.1089 8.75877 21.5885 9.00631 21.6006 9.01147Z" fill="white"/>
</mask>
<g mask="url(#mask2_549_45799)">
<path d="M19.8449 3.58618L4.24316 9.10421L7.55914 18.4814L23.1609 12.9651L19.8449 3.58618Z" fill="url(#paint0_linear_549_45799)"/>
</g>
</g>
</g>
<path d="M21.602 13.517H5.80427V13.5153C5.80255 13.4826 5.76129 12.2862 5.75098 11.1121C6.52453 11.1241 7.29809 11.1929 8.06992 11.241C9.30761 11.3149 10.5487 11.3768 11.7916 11.3871C11.9205 11.3871 12.0512 11.3871 12.1801 11.3871C13.3267 11.3871 14.4767 11.3424 15.6129 11.1877C16.6117 11.0502 17.6809 10.8422 18.5456 10.2938C19.1971 9.88472 19.5804 9.27963 19.5942 8.55249C21.1103 8.76049 21.5899 9.00631 21.602 9.01147V13.517Z" fill="#F79424"/>
<path d="M10.2191 7.45906C9.85634 7.45906 9.46441 7.15308 9.56067 6.68723C9.93198 4.89774 10.3033 3.10653 10.6746 1.31876C10.7399 1.00762 10.9668 0.873535 11.2075 0.873535C11.5702 0.873535 11.9621 1.17952 11.8659 1.64537C11.4946 3.43486 11.1233 5.22607 10.7519 7.01556C10.6866 7.32498 10.4597 7.45906 10.2191 7.45906Z" fill="#F8E174"/>
<path d="M5.73404 38.2002C5.5948 38.2002 5.4504 38.1435 5.32491 38.0094C3.89298 36.495 2.99565 34.5852 2.5384 32.5653C1.79234 29.27 1.91611 25.6343 3.49245 22.5968C4.00471 21.6118 4.66653 20.7059 5.41602 19.8876C5.51572 19.781 5.61714 19.6779 5.71513 19.5679C5.71857 19.5645 5.72372 19.5593 5.72888 19.5524C5.75982 19.5077 5.81655 19.4269 5.81827 19.4235C5.88359 19.3066 5.95063 19.1897 6.0022 19.0659C6.37351 18.1686 6.27037 17.1235 6.19817 16.1797C6.16895 15.7843 6.46118 15.5884 6.76888 15.5884C7.0783 15.5884 7.4032 15.7861 7.43242 16.1797C7.53728 17.5687 7.55791 19.0505 6.75341 20.2108C4.00299 22.2942 2.22554 25.5965 2.22554 29.3147C2.22554 32.7768 3.76749 35.8796 6.20161 37.9733C6.08128 38.1091 5.91109 38.2002 5.73404 38.2002Z" fill="#F8E174"/>
<path d="M6.20166 37.973C3.76754 35.8792 2.22559 32.7764 2.22559 29.3143C2.22559 25.5961 4.00304 22.2939 6.75346 20.2104C6.66063 20.3445 6.55577 20.4735 6.4406 20.5989C4.60813 22.5655 3.50281 25.0134 3.36873 27.7156C3.20542 31.023 3.85177 34.6536 6.1965 37.1358C6.28933 37.2355 6.34262 37.3421 6.36153 37.4487V37.6481C6.33918 37.7684 6.28245 37.8819 6.20166 37.973Z" fill="#FBCB77"/>
<path d="M6.36035 37.6484V37.449C6.37238 37.516 6.37067 37.5831 6.36035 37.6484Z" fill="#FBCB77"/>
<path d="M2.41009 59.9629C2.10239 59.9629 1.79297 59.7652 1.79297 59.3681C1.79297 56.6108 1.79297 53.8553 1.79297 51.098C1.79297 50.7009 2.10067 50.5015 2.41009 50.5015C2.71952 50.5015 3.02722 50.7009 3.02722 51.098C3.02722 53.8553 3.02722 56.6108 3.02722 59.3681C3.02722 59.7652 2.71952 59.9629 2.41009 59.9629Z" fill="#F8E174"/>
<path d="M22.1675 28.78C22.1675 30.0968 18.4923 31.1626 13.9593 31.1626C9.42622 31.1626 5.75098 30.0968 5.75098 28.78C5.75098 27.4633 9.42622 26.3958 13.9593 26.3958C18.4923 26.3958 22.1675 27.4633 22.1675 28.78Z" fill="#C75F27"/>
<path d="M22.1687 30.4405C22.1687 31.7556 18.4935 32.8214 13.9605 32.8214C9.42743 32.8214 5.75391 31.7556 5.75391 30.4405C5.75391 30.2463 5.83298 30.0572 5.98597 29.8767C6.85751 30.9236 10.0961 31.6989 13.9605 31.6989C17.8248 31.6989 21.0634 30.9236 21.935 29.8767C22.0879 30.0572 22.1687 30.2463 22.1687 30.4405Z" fill="#C75F27"/>
<defs>
<linearGradient id="paint0_linear_549_45799" x1="61.6283" y1="-11.1906" x2="64.9449" y2="-1.81259" gradientUnits="userSpaceOnUse">
<stop stop-color="#F2DBB3"/>
<stop offset="0.5" stop-color="#F1DBB3"/>
<stop offset="1" stop-color="#F1DAB2"/>
</linearGradient>
</defs>
</svg>
