<svg width="24" height="45" viewBox="0 0 24 45" fill="none" xmlns="http://www.w3.org/2000/svg">
<path fill-rule="evenodd" clip-rule="evenodd" d="M4.32924 11.3455H18.8216L23.1026 39.283C23.4498 42.3052 18.0891 44.584 12.5548 44.7631C6.66777 44.9584 0.57458 42.8477 0.954387 39.1745L4.32924 11.3455Z" fill="#BCD4D4"/>
<path fill-rule="evenodd" clip-rule="evenodd" d="M4.75048 12.8428H17.7887L21.641 37.9914C21.9557 40.7098 17.1376 42.7607 12.1513 42.9289C6.85027 43.0971 1.36477 41.1981 1.7066 37.8938L4.75048 12.8428Z" fill="#CADFDE"/>
<path fill-rule="evenodd" clip-rule="evenodd" d="M17.8104 12.9895L21.641 37.9917C21.9557 40.71 17.1376 42.761 12.1513 42.9292C6.85027 43.1028 1.36477 41.1983 1.7066 37.894L2.43909 31.893C10.1872 26.5974 16.7849 14.6335 17.8104 12.9895Z" fill="#C0DBDC"/>
<path fill-rule="evenodd" clip-rule="evenodd" d="M4.32716 11.3455H18.8195L19.0148 12.6151C17.0399 13.315 14.4572 13.7437 11.6303 13.7437C8.77091 13.7437 6.16109 13.3042 4.18066 12.5934L4.32716 11.3455Z" fill="#BCD4D4"/>
<path fill-rule="evenodd" clip-rule="evenodd" d="M4.04875 11.7469C5.20987 12.9189 10.0497 13.315 11.7371 13.315C15.8825 13.315 19.241 12.4848 19.241 11.4594C19.241 11.4431 19.2356 11.4268 19.2356 11.4105L19.1651 10.1409L21.0261 3.11987H2.45898L4.29834 10.0758L4.04875 11.7469Z" fill="#778287"/>
<path fill-rule="evenodd" clip-rule="evenodd" d="M16.4941 12.8918C17.4653 12.6965 18.2358 12.4361 18.7078 12.1485C18.7567 11.4431 18.7295 10.1084 18.7295 10.1084L14.9966 10.8138C14.9966 10.8138 14.6927 13.1306 15.295 13.0383C15.5066 13.0058 15.9732 12.957 16.4941 12.8918Z" fill="#647883"/>
<path fill-rule="evenodd" clip-rule="evenodd" d="M19.1651 10.1572V10.1409L21.0261 3.11987H2.45898L4.29834 10.0758L4.28206 10.1897C6.50122 10.7974 8.95369 11.0144 11.6069 11.0144C14.2601 11.0144 16.9405 10.7703 19.1651 10.1572Z" fill="#647883"/>
<path fill-rule="evenodd" clip-rule="evenodd" d="M7.481 3.11987H3.79688C3.79688 3.11987 4.68671 9.99438 5.67963 10.5153C7.51899 10.8788 9.49941 11.0144 11.6046 11.0144C11.8705 11.0144 12.1364 11.0144 12.4076 11.0036C14.2633 9.97268 14.0137 5.8165 13.8835 3.99886C13.8835 3.99886 10.3675 3.41829 7.481 3.11987Z" fill="#6C7B82"/>
<path fill-rule="evenodd" clip-rule="evenodd" d="M17.6006 10.5153C17.975 10.4448 18.3439 10.3634 18.7075 10.2766L18.7509 10.0487C19.2338 7.40088 20.3895 3.97177 20.3678 3.34237C20.3678 3.34237 19.4454 3.11991 19.4454 3.5377C19.4454 3.73845 18.8594 5.85452 18.2571 8.07368C18.0292 8.90383 17.8013 9.75568 17.6006 10.5153Z" fill="#6E818A"/>
<path fill-rule="evenodd" clip-rule="evenodd" d="M11.71 0.00550388C17.1304 -0.124716 21.0261 2.08902 21.0261 3.11992C21.0261 4.13998 16.8645 4.97013 11.7371 4.97013C6.61516 4.97013 2.45898 4.13998 2.45898 3.11992C2.45898 2.08902 6.28418 0.14115 11.71 0.00550388Z" fill="#9AB6C5"/>
<path fill-rule="evenodd" clip-rule="evenodd" d="M11.7081 0.00552279C16.2116 -0.102994 19.6569 1.41081 20.6987 2.50682C19.5701 3.44007 15.9837 4.11287 11.7298 4.11287C7.50312 4.11287 3.92751 3.44549 2.78809 2.51768C3.81356 1.47592 7.21013 0.114039 11.7081 0.00552279Z" fill="#A5C3D2"/>
<path fill-rule="evenodd" clip-rule="evenodd" d="M9.00642 2.93534C9.79316 2.93534 10.428 2.76714 10.428 2.55553C10.428 2.34393 9.79316 2.18115 9.00642 2.18115C8.23052 2.18115 7.5957 2.34393 7.5957 2.55553C7.5957 2.76714 8.23052 2.93534 9.00642 2.93534Z" fill="#647883"/>
<path fill-rule="evenodd" clip-rule="evenodd" d="M10.9972 1.45932C11.7785 1.45932 12.4188 1.28569 12.4188 1.07951C12.4188 0.867907 11.7785 0.699707 10.9972 0.699707C10.2159 0.699707 9.58105 0.867907 9.58105 1.07951C9.58105 1.28569 10.2159 1.45932 10.9972 1.45932Z" fill="#647883"/>
<path fill-rule="evenodd" clip-rule="evenodd" d="M13.1501 2.7999C13.926 2.7999 14.5662 2.6317 14.5662 2.42009C14.5662 2.20848 13.926 2.04028 13.1501 2.04028C12.3688 2.04028 11.7285 2.20848 11.7285 2.42009C11.7285 2.6317 12.3688 2.7999 13.1501 2.7999Z" fill="#647883"/>
<path fill-rule="evenodd" clip-rule="evenodd" d="M4.73146 4.83987C4.53613 5.62662 5.12754 9.82077 5.69183 9.98355C6.25069 10.1463 5.78407 6.3591 5.58874 5.76226C5.39341 5.17085 5.23064 4.56316 4.73146 4.83987Z" fill="#A5C3D2"/>
<path fill-rule="evenodd" clip-rule="evenodd" d="M5.58807 10.7973C5.4253 11.112 4.99123 12.0832 5.32763 12.1809C5.66403 12.2785 6.20119 10.9709 6.55929 10.9492C6.91197 10.9329 7.9049 11.15 7.92117 10.9926C7.94288 10.8299 4.74707 10.271 4.74707 10.271C4.74707 10.271 4.81761 10.7539 5.58807 10.7973Z" fill="#A5C3D2"/>
<path fill-rule="evenodd" clip-rule="evenodd" d="M15.3584 14.7584C15.3584 14.7584 18.386 37.1995 17.8163 38.4638C17.252 39.728 16.3622 40.2923 17.3768 40.2923C18.386 40.2923 20.4749 39.0335 20.5346 37.894C20.5997 36.7546 17.3768 14.8235 16.8722 14.4437C16.3622 14.0639 15.5429 13.8143 15.3584 14.7584Z" fill="#BCD4D4"/>
<path fill-rule="evenodd" clip-rule="evenodd" d="M5.61072 13.9987C5.61072 13.9987 2.3281 36.25 3.08771 36.8197C3.8419 37.384 4.09691 37.1344 4.09691 37.1344C4.09691 37.1344 6.66332 15.7893 6.87493 14.5685C7.09196 13.3531 5.61072 13.9987 5.61072 13.9987Z" fill="white"/>
<path fill-rule="evenodd" clip-rule="evenodd" d="M7.55155 15.5883C7.55155 15.5883 5.44633 34.0795 6.10828 34.6384C6.78108 35.2081 8.57703 16.9231 8.62043 16.31C8.67469 15.6914 8.06157 15.2791 7.55155 15.5883Z" fill="#D6E4E5"/>
<path fill-rule="evenodd" clip-rule="evenodd" d="M21.6582 38.3064V38.3118C21.6365 38.4312 21.3381 39.9504 19.591 41.0301L19.5259 41.079C19.4391 41.1278 19.3577 41.1766 19.2655 41.22C19.1081 41.3068 18.9453 41.3882 18.7717 41.4696C16.992 42.3106 14.5938 42.8478 12.1522 42.9292C10.1013 42.9943 8.01774 42.7501 6.25977 42.2347C4.85448 41.7084 3.49803 40.927 2.24467 39.831C1.8323 39.2559 1.63698 38.6048 1.70751 37.894L1.92454 36.1523V36.1415C2.22296 33.6999 2.52138 31.1823 2.7981 28.9577V28.9523L2.80353 28.9143C2.89034 28.1872 5.56527 27.9702 5.56527 27.9702C5.56527 27.9702 6.59617 27.7857 7.49143 27.9322C11.9297 28.6647 11.3546 29.7173 16.1022 28.312C17.0083 28.0407 19.9003 26.6626 20.1933 28.5833L21.6582 38.3064Z" fill="#43525A"/>
<path fill-rule="evenodd" clip-rule="evenodd" d="M16.8574 28.0516C17.6442 34.4595 18.2627 37.4708 17.8178 38.4637C17.3729 39.4566 16.3637 40.2922 17.3783 40.2922C18.3875 40.2922 20.4873 38.7947 20.5361 37.894C20.5904 36.9879 19.8742 34.0037 18.8595 27.585C18.2247 27.6175 17.4 27.8345 16.8574 28.0516Z" fill="#647883"/>
<path fill-rule="evenodd" clip-rule="evenodd" d="M3.69853 28.2956C2.90093 34.3617 2.49942 36.3801 3.08541 36.8196C3.6714 37.2591 4.09461 37.1343 4.09461 37.1343C4.09461 37.1343 4.42558 34.3346 5.19605 28.0081C5.19063 28.0081 4.37675 28.0786 3.69853 28.2956Z" fill="#778287"/>
<path fill-rule="evenodd" clip-rule="evenodd" d="M6.26508 27.8887C5.77133 32.951 5.72792 34.3183 6.10773 34.6385C6.49297 34.964 6.89448 33.2711 7.49132 27.9321C7.45876 27.9484 7.27971 27.8942 7.07353 27.8887C6.75341 27.8725 6.35732 27.8942 6.26508 27.8887Z" fill="#778287"/>
</svg>
