<svg width="17" height="60" viewBox="0 0 17 60" fill="none" xmlns="http://www.w3.org/2000/svg">
<path fill-rule="evenodd" clip-rule="evenodd" d="M13.0082 12.405C13.015 12.4022 15.6127 11.2645 15.2756 9.57761C15.0893 8.64241 14.1202 6.58851 13.1061 4.73034C12.0866 2.86402 10.8293 1.14042 10.6526 1.14042C10.0042 1.14042 8.80528 1.15265 8.34311 1.15809C8.32408 0.811467 8.31321 0.531451 8.31457 0.414551C8.82974 0.425425 10.5357 0.460767 10.9122 0.460767C11.3771 0.460767 12.629 2.29719 13.7627 4.37284C14.808 6.2881 15.8098 8.42492 16.0109 9.43081C16.4677 11.7131 13.325 13.0833 13.3154 13.0873L13.0082 12.405Z" fill="#F6AF1B"/>
<path fill-rule="evenodd" clip-rule="evenodd" d="M13.0084 12.405C13.0152 12.4023 15.6128 11.2645 15.2757 9.57765C15.0895 8.64245 14.1203 6.58854 13.1062 4.73037C12.0868 2.86405 10.8294 1.14045 10.6527 1.14045C9.83983 1.14045 8.15973 1.15948 8.1543 1.15948L8.16653 0.411865C8.17197 0.411865 10.4678 0.460801 10.9123 0.460801C11.3772 0.460801 12.6291 2.29722 13.7628 4.37287C14.8081 6.28813 15.8099 8.42496 16.0111 9.43084C16.4678 11.7131 13.3251 13.0833 13.3156 13.0874L13.0084 12.405Z" fill="#BF1E24"/>
<path fill-rule="evenodd" clip-rule="evenodd" d="M15.8311 8.79059C15.4505 7.66916 14.6213 5.94693 13.7622 4.37285C12.8963 2.78655 11.9598 1.33889 11.359 0.744873C11.1999 0.833228 11.1387 0.971877 11.4731 1.3851C11.8062 1.79833 15.2751 7.33885 15.8311 8.79059Z" fill="#E95864"/>
<path fill-rule="evenodd" clip-rule="evenodd" d="M13.302 12.2596C13.9735 11.9021 15.5421 10.9125 15.2757 9.57767C15.0895 8.64247 14.1203 6.58856 13.1062 4.73039C12.1683 3.01223 11.0279 1.41505 10.7139 1.1731C11.4044 1.29951 14.5077 6.71905 15.186 8.05933C15.8643 9.3996 15.7718 10.2261 15.3844 10.9628C14.9957 11.6995 13.6051 12.6252 13.6051 12.6252C13.5086 12.5545 13.408 12.4281 13.302 12.2596Z" fill="#84171C"/>
<path fill-rule="evenodd" clip-rule="evenodd" d="M8.49121 0.418701C9.14368 0.432294 10.5723 0.46084 10.9121 0.46084C10.9529 0.46084 10.9991 0.474433 11.0508 0.501619C10.9964 0.600848 10.9352 0.685124 10.8754 0.705514C10.7096 0.763964 9.7173 0.71367 9.08115 0.705514C8.72229 0.701436 8.56325 0.550553 8.49121 0.418701Z" fill="#E95864"/>
<path fill-rule="evenodd" clip-rule="evenodd" d="M1.05842 49.7397H14.7493C15.2645 49.7397 15.6872 50.2644 15.6872 50.906V55.23L15.588 55.9219C15.4099 56.0863 15.2944 56.2685 15.448 56.2848C15.6002 56.3011 15.6859 56.524 15.6859 56.524V57.7257L15.6872 57.7189V58.5331C15.6872 60.4782 0.119141 60.5 0.119141 58.5331V56.524C0.1205 56.5172 0.163998 56.3052 0.358378 56.2848C0.43178 56.2766 0.374689 56.1883 0.274101 56.0809C0.229244 56.032 0.27546 55.9395 0.221088 55.8879L0.119141 55.3754V50.906C0.119141 50.2644 0.541884 49.7397 1.05842 49.7397Z" fill="#B51D23"/>
<path fill-rule="evenodd" clip-rule="evenodd" d="M12.7227 49.7397H14.7494C15.2646 49.7397 15.6873 50.2644 15.6873 50.906V55.23L15.5881 55.9219C15.41 56.0863 15.2945 56.2685 15.4481 56.2848C15.6003 56.3011 15.6859 56.524 15.6859 56.524V57.7257L15.6873 57.7189V58.5331C15.6873 59.0292 14.6705 59.4003 13.1576 59.645L13.2718 57.2635L12.7227 56.9169V49.7397Z" fill="#CB2C2E"/>
<path fill-rule="evenodd" clip-rule="evenodd" d="M15.4779 56.1405C15.414 56.2193 15.3882 56.2778 15.448 56.2846C15.6451 56.305 15.6859 56.5238 15.6859 56.5238V56.5727C13.5694 57.9089 2.2315 57.9225 0.119141 56.5755V56.5238C0.1205 56.517 0.163998 56.305 0.358378 56.2846C0.426343 56.2764 0.382846 56.1989 0.294491 56.1011L0.477997 56.1677C0.477997 56.1677 8.00854 58.2841 15.4031 56.1051L15.4779 56.1405ZM15.5119 50.2275C15.622 50.4192 15.6872 50.653 15.6872 50.9058V55.7585L15.6397 55.7422L0.119141 55.6919V50.9058C0.119141 50.653 0.184387 50.4192 0.29585 50.2275C0.43314 50.1392 0.590819 50.0889 0.758013 50.0889H15.0484C15.2156 50.0889 15.3732 50.1392 15.5119 50.2275Z" fill="#AB1C22"/>
<path fill-rule="evenodd" clip-rule="evenodd" d="M12.7227 56.7195V56.9166L13.246 57.247C14.3606 57.0825 15.2333 56.8582 15.6859 56.5727V56.5238C15.6859 56.5238 15.6452 56.305 15.4481 56.2846C15.3882 56.2778 15.4141 56.2193 15.478 56.1405L15.4032 56.1051C14.5074 56.3702 13.6089 56.57 12.7227 56.7195ZM15.5119 50.2275C15.622 50.4192 15.6873 50.653 15.6873 50.9058V55.7585L15.6397 55.7422L12.7227 55.7327V50.0889H15.0484C15.2156 50.0889 15.3733 50.1392 15.5119 50.2275Z" fill="#84171C"/>
<path fill-rule="evenodd" clip-rule="evenodd" d="M1.33164 17.4792H14.7493C15.1354 17.4792 15.3338 17.7987 15.6125 18.1902C15.6981 18.3111 15.6872 18.4851 15.6872 18.6455V55.7627C15.6872 57.7092 0.119141 57.7309 0.119141 55.7627V18.6455C0.119141 18.4838 0.132734 18.322 0.196621 18.1874C0.382846 17.7865 0.948316 17.4792 1.33164 17.4792Z" fill="#B51D23"/>
<path fill-rule="evenodd" clip-rule="evenodd" d="M12.1582 17.4792H14.749C15.1351 17.4792 15.3335 17.7987 15.6122 18.1902C15.6978 18.3111 15.687 18.4851 15.687 18.6455V55.7627C15.687 56.3037 14.4867 56.6951 12.7536 56.9371L12.7223 56.9167V18.6727L12.1582 17.4792Z" fill="#CB2C2E"/>
<path fill-rule="evenodd" clip-rule="evenodd" d="M15.6872 55.416V55.7626C15.6872 57.7092 0.119141 57.7309 0.119141 55.7626V55.416C0.119141 57.3843 15.6872 57.3612 15.6872 55.416Z" fill="#CB2C2E"/>
<path fill-rule="evenodd" clip-rule="evenodd" d="M15.6873 55.416V55.7626L15.6764 55.851L15.6751 55.8537L15.6438 55.938L15.6411 55.9421L15.5894 56.0236L15.5867 56.025L15.5147 56.1038L15.5092 56.1079C15.482 56.1324 15.4521 56.1568 15.4195 56.1827L15.4141 56.1867C15.3815 56.2098 15.3461 56.233 15.3081 56.2561L15.2972 56.2629C15.2591 56.286 15.217 56.3077 15.1735 56.3295L15.1626 56.3363C15.1191 56.3567 15.0743 56.377 15.028 56.3988L15.0104 56.4056C14.9641 56.4246 14.9152 56.445 14.8649 56.464L14.8323 56.4763C14.7861 56.4926 14.7385 56.5089 14.6896 56.5252L14.6406 56.5415C14.5931 56.5565 14.5428 56.5728 14.4938 56.5877L14.4354 56.604C14.3864 56.6176 14.3375 56.6312 14.2872 56.6448L14.2152 56.6625C14.1635 56.6761 14.1119 56.6883 14.0589 56.7006L13.9732 56.7209C13.927 56.7305 13.8794 56.7413 13.8305 56.7522L13.7163 56.7753L13.5831 56.8011L13.4635 56.8243C13.4118 56.8338 13.3588 56.8433 13.3044 56.8514L13.1821 56.8718L13.0475 56.8936L12.917 56.914H12.9157L12.8355 56.9262L12.7539 56.9371L12.7227 56.9167V56.5945C14.4721 56.3526 15.6873 55.9597 15.6873 55.416Z" fill="#F9CA58"/>
<path fill-rule="evenodd" clip-rule="evenodd" d="M3.46869 14.5146H12.3395C12.6236 14.8273 15.4944 17.7851 15.6304 18.2459C14.422 18.5885 11.456 18.8304 7.98701 18.8304C4.36311 18.8304 1.28565 18.5667 0.191406 18.1997C0.319181 17.8205 3.22809 14.7784 3.46869 14.5146Z" fill="#BF1E24"/>
<path fill-rule="evenodd" clip-rule="evenodd" d="M11.3213 14.5146H12.3394C12.6235 14.8273 15.4943 17.7851 15.6303 18.2459C15.0349 18.4145 14.0141 18.5586 12.7173 18.6619L11.4219 15.9242V15.5722H10.9814V14.7566L11.3063 14.5745L11.3213 14.5146Z" fill="#D33136"/>
<path fill-rule="evenodd" clip-rule="evenodd" d="M2.39453 15.6565H2.39725C2.49104 15.7911 4.86439 16.0398 7.82903 16.0398C10.795 16.0398 13.2499 15.7911 13.3451 15.6565H13.3478V13.449H2.39453C2.39453 14.1844 2.39453 14.9211 2.39453 15.6565Z" fill="#B51D23"/>
<path fill-rule="evenodd" clip-rule="evenodd" d="M11.4218 15.9161C12.5555 15.8346 13.2936 15.7285 13.3452 15.6565H13.348V13.449H10.9434V14.1694L11.4191 14.1504L11.3063 14.5745L10.9814 14.7566V15.5722L11.4218 15.5532V15.9161Z" fill="#9F1B20"/>
<path fill-rule="evenodd" clip-rule="evenodd" d="M2.01562 14.5364H13.7274V15.371H13.6893C13.3563 15.5042 10.8796 15.6075 7.8715 15.6075C4.86472 15.6075 2.38671 15.5042 2.05369 15.371H2.01562V14.5364Z" fill="#BF1E24"/>
<path fill-rule="evenodd" clip-rule="evenodd" d="M11.3158 14.5364H13.7272V15.371H13.6892C13.4826 15.4539 12.4509 15.5246 10.9814 15.5667V14.7566L11.3063 14.5744L11.3158 14.5364Z" fill="#CB2C2E"/>
<path fill-rule="evenodd" clip-rule="evenodd" d="M13.3481 14.4316C13.5942 14.4615 13.7274 14.4928 13.7274 14.5268C13.7274 14.6736 11.1053 14.7932 7.8715 14.7932C4.63636 14.7932 2.01562 14.6736 2.01562 14.5268C2.01562 14.4928 2.1502 14.4615 2.39487 14.4316V14.4493H2.39759C2.49138 14.5105 4.86472 14.6233 7.82936 14.6233C10.7954 14.6233 13.2503 14.5105 13.3454 14.4493H13.3481V14.4316Z" fill="#D33136"/>
<path fill-rule="evenodd" clip-rule="evenodd" d="M13.348 14.4316C13.5941 14.4615 13.7273 14.4928 13.7273 14.5268C13.7273 14.6219 12.6344 14.7049 10.9883 14.7524L11.3064 14.5744V14.5716C12.5066 14.5336 13.2923 14.4833 13.3453 14.4493H13.348V14.4316Z" fill="#BF1E24"/>
<path fill-rule="evenodd" clip-rule="evenodd" d="M2.39453 14.4494H2.39725C2.49104 14.5106 4.86439 14.6234 7.82903 14.6234C10.795 14.6234 13.2499 14.5106 13.3451 14.4494H13.3478V13.449H2.39453C2.39453 13.782 2.39453 14.1164 2.39453 14.4494Z" fill="#B51D23"/>
<path fill-rule="evenodd" clip-rule="evenodd" d="M11.3063 14.5717C12.5066 14.5336 13.2922 14.4833 13.3452 14.4494H13.348V14.0266C12.8872 14.0823 12.0349 14.1299 10.9434 14.1612L11.3362 14.1503L11.3063 14.5717Z" fill="#9F1B20"/>
<path fill-rule="evenodd" clip-rule="evenodd" d="M2.01562 11.6643H13.7274V13.9615H13.6893C13.3563 14.0975 10.8796 14.2021 7.8715 14.2021C4.86472 14.2021 2.38671 14.0975 2.05369 13.9615H2.01562V11.6643Z" fill="#BF1E24"/>
<path fill-rule="evenodd" clip-rule="evenodd" d="M9.22266 11.6643H13.7274V13.9615H13.6893C13.4814 14.0458 12.4347 14.1192 10.9435 14.1613V11.7866L9.23217 11.7336L9.22266 11.6643Z" fill="#CB2C2E"/>
<path fill-rule="evenodd" clip-rule="evenodd" d="M7.8715 11.9375C11.0971 11.9375 13.7274 11.8179 13.7274 11.6711C13.7274 11.5229 11.0971 11.4033 7.8715 11.4033C4.64588 11.4033 2.01562 11.5229 2.01562 11.6711C2.01562 11.8179 4.64588 11.9375 7.8715 11.9375Z" fill="#CB2C2E"/>
<path fill-rule="evenodd" clip-rule="evenodd" d="M9.1875 11.4099C11.7878 11.4371 13.7276 11.5431 13.7276 11.6709C13.7276 11.766 12.6143 11.8503 10.9437 11.8979L9.23236 11.7334L9.1875 11.4099Z" fill="#DA3F46"/>
<path fill-rule="evenodd" clip-rule="evenodd" d="M7.87124 0.819627L7.58307 0.785645L5.6515 10.5781L5.45712 11.5636C5.43401 11.7756 10.1943 11.8463 10.2854 11.5636L10.0584 10.4149L8.15941 0.785645L7.87124 0.819627Z" fill="#B51D23"/>
<path fill-rule="evenodd" clip-rule="evenodd" d="M9.23042 11.7268C9.82579 11.6996 10.2581 11.648 10.2852 11.5637L10.0582 10.4151L8.58475 2.94434C8.60242 3.21892 8.61465 3.4065 8.61465 3.42281C8.61465 3.48942 8.57387 3.67156 8.47464 3.69603C8.37542 3.7205 8.11035 3.76671 8.11035 3.76671L9.23042 11.7268Z" fill="#CB2C2E"/>
<path fill-rule="evenodd" clip-rule="evenodd" d="M6.18066 11.6927C6.48651 11.7144 6.86575 11.7307 7.26947 11.7403L7.62832 3.76658C7.26403 3.6959 6.18066 11.6886 6.18066 11.6927Z" fill="#BF1E24"/>
<path fill-rule="evenodd" clip-rule="evenodd" d="M7.51501 0H8.20961C8.44613 0 8.61196 0.19574 8.63915 0.430899L8.97897 3.2433C9.00752 3.47846 8.78459 3.67284 8.54944 3.67284H7.17518C6.94002 3.67284 6.71709 3.47846 6.74564 3.2433L7.08547 0.430899C7.11265 0.19574 7.27849 0 7.51501 0Z" fill="#B51D23"/>
<path fill-rule="evenodd" clip-rule="evenodd" d="M7.98047 0H8.21019C8.44671 0 8.61254 0.19574 8.63973 0.430899L8.97956 3.2433C9.0081 3.47846 8.78518 3.67284 8.55002 3.67284H8.38282C8.45079 3.61575 8.48069 3.47846 8.48069 3.42273C8.48069 3.35612 8.29855 0.7014 8.31622 0.387401C8.32573 0.19438 8.13135 0.0693245 7.98047 0Z" fill="#F3AB17"/>
<path fill-rule="evenodd" clip-rule="evenodd" d="M15.6859 56.5728C13.5694 57.9089 2.2315 57.9225 0.119141 56.5755V56.8324C0.930645 57.3911 4.20792 57.8994 7.57356 57.9348C11.3551 57.9742 15.2387 57.4699 15.6859 56.8283V56.5728Z" fill="#CB2C2E"/>
<path fill-rule="evenodd" clip-rule="evenodd" d="M1.05842 49.7397H3.01582V56.9169L2.46666 57.2635L2.58084 59.6409C1.10599 59.3962 0.119141 59.0279 0.119141 58.5331V56.524C0.1205 56.5172 0.163998 56.3052 0.358378 56.2848C0.43178 56.2766 0.374689 56.1883 0.274101 56.0809C0.229244 56.032 0.27546 55.9395 0.221088 55.8879L0.119141 55.3754V50.906C0.119141 50.2644 0.541884 49.7397 1.05842 49.7397Z" fill="#AB1C22"/>
<path fill-rule="evenodd" clip-rule="evenodd" d="M2.98863 56.9345L2.49792 57.2444C1.4132 57.0813 0.562273 56.8584 0.119141 56.5757V56.524C0.1205 56.5172 0.163998 56.3052 0.358378 56.2848C0.418187 56.278 0.391001 56.2168 0.323036 56.1353C0.729468 56.486 1.70953 56.7524 2.98863 56.9345Z" fill="#84171C"/>
<path fill-rule="evenodd" clip-rule="evenodd" d="M1.33164 17.4792H3.57993L3.01582 18.6727V56.9167L2.98863 56.9344C1.29086 56.6924 0.119141 56.3023 0.119141 55.7627V18.6455C0.119141 18.4838 0.132734 18.322 0.196621 18.1874C0.382846 17.7865 0.948316 17.4792 1.33164 17.4792Z" fill="#AB1C22"/>
<path fill-rule="evenodd" clip-rule="evenodd" d="M2.98863 56.9344C1.29086 56.6924 0.119141 56.3023 0.119141 55.7626V55.416C0.119141 55.9584 1.30309 56.3485 3.01582 56.5905V56.9167L2.98863 56.9344Z" fill="#9F1B20"/>
<path fill-rule="evenodd" clip-rule="evenodd" d="M3.46869 14.5146H4.41748L4.43243 14.5745L4.75731 14.7566V15.5667L4.31689 15.5532V15.9242L3.02963 18.6429C1.7247 18.5327 0.724253 18.3778 0.191406 18.1997C0.319181 17.8205 3.22809 14.7784 3.46869 14.5146Z" fill="#B51D23"/>
<path fill-rule="evenodd" clip-rule="evenodd" d="M4.43213 14.5744L4.3193 14.1503L4.32338 14.1462C3.46023 14.1163 2.78601 14.0742 2.39453 14.0266V14.5364H4.42261L4.43213 14.5744ZM2.39453 15.6564H2.39725C2.4489 15.7298 3.18021 15.8372 4.31659 15.9201V15.5531L4.757 15.5667C3.68723 15.5368 2.8499 15.4906 2.39453 15.4348V15.6564Z" fill="#84171C"/>
<path fill-rule="evenodd" clip-rule="evenodd" d="M2.01562 14.5364H4.42295L4.43247 14.5744L4.75734 14.7566V15.5667C3.28929 15.5246 2.2603 15.4539 2.05369 15.371H2.01562V14.5364Z" fill="#AB1C22"/>
<path fill-rule="evenodd" clip-rule="evenodd" d="M4.75054 14.7524C3.10715 14.7049 2.01562 14.6219 2.01562 14.5268C2.01562 14.4928 2.1502 14.4615 2.39487 14.4316V14.4493H2.39759C2.4506 14.4847 3.23084 14.5349 4.43247 14.573V14.5744L4.75054 14.7524Z" fill="#9F1B20"/>
<path fill-rule="evenodd" clip-rule="evenodd" d="M2.39453 14.4494H2.39725C2.45026 14.4847 3.2305 14.535 4.43213 14.5731L4.44164 14.1585V14.1503H4.42669C4.30299 14.1462 4.3329 14.1462 4.29756 14.1449H4.27037L4.26493 14.1435H4.23503L4.22823 14.1422H4.19425L4.16163 14.1408L4.13036 14.1394L4.11541 14.1381L4.07055 14.1367H4.06919L4.00666 14.134L3.9455 14.1313H3.93598L3.89248 14.1299L3.88569 14.1286L3.82588 14.1272L3.76743 14.1245L3.76199 14.1231L3.71985 14.1218H3.71034L3.67771 14.1204L3.65325 14.119L3.63693 14.1177L3.59616 14.1163H3.5948L3.55538 14.1136H3.54178L3.5146 14.1122L3.48741 14.1095L3.43576 14.1082L3.43304 14.1068L3.3977 14.1055L3.38003 14.1041L3.35828 14.1027L3.32837 14.1014H3.32022L3.28352 14.0987H3.27672L3.24681 14.0973L3.22642 14.0959L3.21011 14.0946L3.17749 14.0932H3.17341L3.13807 14.0905L3.12855 14.0891L3.08098 14.0864L3.03476 14.0837L3.00078 14.081L2.98855 14.0796L2.96816 14.0783L2.94369 14.0769L2.90427 14.0742H2.90019L2.87165 14.0715L2.85669 14.0701H2.84038L2.81592 14.0674H2.81048L2.78057 14.0647H2.77378L2.69494 14.0579H2.69358L2.66503 14.0552L2.65688 14.0538L2.63785 14.0524L2.62018 14.0511L2.61202 14.0497L2.58483 14.047H2.58347L2.55901 14.0443H2.54813L2.51415 14.0402H2.50871L2.4856 14.0375L2.48153 14.0361L2.4489 14.0334L2.419 14.0293H2.41628L2.39453 14.0266V14.4494Z" fill="#84171C"/>
<path fill-rule="evenodd" clip-rule="evenodd" d="M2.01562 11.6643H6.51628L6.50676 11.7336L4.79404 11.7866V14.1613C3.30696 14.1192 2.26166 14.0458 2.05369 13.9615H2.01562V11.6643Z" fill="#AB1C22"/>
<path fill-rule="evenodd" clip-rule="evenodd" d="M4.79404 11.8979C3.12753 11.8503 2.01562 11.766 2.01562 11.6709C2.01562 11.5431 3.95399 11.4371 6.55162 11.4099L6.50676 11.7334L4.79404 11.8979Z" fill="#9F1B20"/>
<path fill-rule="evenodd" clip-rule="evenodd" d="M7.1508 2.97559L5.65149 10.5782L5.45711 11.5637C5.45031 11.6289 5.89209 11.6806 6.50921 11.7132L7.62792 3.7667C7.62792 3.7667 7.36285 3.72048 7.26362 3.69602C7.16575 3.67155 7.12361 3.4894 7.12361 3.4228C7.12361 3.40649 7.13449 3.23249 7.1508 2.97559Z" fill="#AB1C22"/>
<path fill-rule="evenodd" clip-rule="evenodd" d="M7.51501 0H7.62511C7.47287 0.0693245 7.27849 0.19438 7.28936 0.387401C7.30567 0.7014 7.12353 3.35612 7.12353 3.42273C7.12353 3.47846 7.15343 3.61575 7.2214 3.67284H7.17518C6.94002 3.67284 6.71709 3.47846 6.74564 3.2433L7.08547 0.430899C7.11265 0.19574 7.27849 0 7.51501 0Z" fill="#AB1C22"/>
<path fill-rule="evenodd" clip-rule="evenodd" d="M2.49792 57.2445C1.4132 57.0813 0.562273 56.8584 0.119141 56.5757V56.8326C0.482075 57.0827 1.34115 57.3233 2.47889 57.515L2.46666 57.2635L2.49792 57.2445Z" fill="#9F1B20"/>
<path fill-rule="evenodd" clip-rule="evenodd" d="M15.6871 55.416V55.7626C15.6871 56.3145 14.4365 56.7114 12.6436 56.952L12.5879 56.9167V56.6122C14.4094 56.3716 15.6871 55.9733 15.6871 55.416Z" fill="#DA3F46"/>
<path fill-rule="evenodd" clip-rule="evenodd" d="M7.98047 0H8.21019C8.44671 0 8.61254 0.19574 8.63973 0.430899L8.97956 3.2433C9.0081 3.47846 8.78518 3.67284 8.55002 3.67284H8.38282C8.45079 3.61575 8.48069 3.47846 8.48069 3.42273C8.48069 3.35612 8.29855 0.7014 8.31622 0.387401C8.32573 0.19438 8.13135 0.0693245 7.98047 0Z" fill="#F6AF1B"/>
<path fill-rule="evenodd" clip-rule="evenodd" d="M7.98047 0H8.21019C8.44671 0 8.61254 0.19574 8.63973 0.430899L8.97956 3.2433C9.0081 3.47846 8.78518 3.67284 8.55002 3.67284H8.38282L8.3869 3.67012L8.40457 3.65245L8.41001 3.64429V3.64293L8.41273 3.64157L8.41409 3.63885L8.41545 3.6375L8.41681 3.63478L8.41816 3.63342L8.41952 3.6307V3.62934L8.42224 3.62526L8.42496 3.62254V3.62118L8.42768 3.61711L8.42904 3.61575V3.61303L8.43176 3.61167V3.60895L8.43448 3.60623V3.60487L8.43584 3.60079L8.43855 3.59672V3.59536L8.44127 3.58992L8.44263 3.58856L8.44399 3.58584V3.58312L8.44535 3.5804L8.44671 3.57905L8.44807 3.57497L8.44943 3.56953L8.45079 3.56545L8.45215 3.56409V3.56137L8.45622 3.55322V3.55186L8.45758 3.54778L8.45894 3.54234L8.4603 3.53827L8.46166 3.53691V3.53419L8.46302 3.53147V3.52875L8.46438 3.52603V3.52467L8.46574 3.5206L8.4671 3.51516V3.51108L8.46846 3.50972V3.507L8.46982 3.50564V3.50292L8.47118 3.50021V3.49885L8.47254 3.49477V3.48933L8.47526 3.48118V3.47438L8.47661 3.47302V3.46622L8.47797 3.46486V3.45399L8.47933 3.45263V3.4404L8.48069 3.43768V3.42273C8.48069 3.35612 8.29855 0.7014 8.31622 0.387401V0.357496L8.31486 0.356137L8.3135 0.334389L8.31214 0.330311V0.326233L8.31078 0.318077L8.30942 0.316718V0.315358L8.3067 0.304484V0.303124L8.30534 0.301765L8.30398 0.293609L8.30126 0.286813V0.285454L8.29855 0.278657V0.277298L8.29311 0.266423V0.265064L8.29175 0.262346L8.28903 0.255549L8.28495 0.247393L8.2768 0.2338L8.27272 0.225644L8.26864 0.218848L8.26728 0.217489L8.2632 0.212051L8.25913 0.205254L8.24281 0.184865V0.183506L8.23194 0.172631L8.2265 0.165835L8.21427 0.153601V0.152242L8.20883 0.148164L8.20204 0.141368L8.19524 0.13593L8.19252 0.133212L8.18844 0.130493L8.183 0.123697L8.17621 0.118259L8.17213 0.115541L8.16941 0.112822L8.16262 0.107385L8.1599 0.106026L8.15582 0.101948L8.14902 0.0978698L8.14766 0.0965102L8.14087 0.0924326L8.13815 0.089714L8.13407 0.0869954L8.12727 0.0815582L8.12591 0.0801992L8.11912 0.0774803L8.11368 0.0734024L8.11232 0.0720431L8.10552 0.0679652L8.09737 0.0625279L8.09057 0.0584504H8.08921L8.08242 0.0543721L8.07698 0.0502942L8.07562 0.0489349L8.06882 0.044857L8.06475 0.0434977L8.06067 0.0407791L8.05387 0.0367015H8.05251L8.04572 0.0326233L8.04028 0.0299047L8.03892 0.0285454L8.03076 0.0258271L8.02804 0.0244675L8.02397 0.0217489L8.01581 0.0176709L8.00901 0.013593L8.00086 0.0108744L7.99406 0.00679652H7.9927L7.98727 0.00407824L7.98047 0.0013593V0Z" fill="#CB2C2E"/>
<path fill-rule="evenodd" clip-rule="evenodd" d="M15.6861 56.5728C15.2199 56.8664 14.3037 57.0974 13.136 57.2633H13.1374L13.1211 57.6031C14.494 57.4046 15.4754 57.1314 15.6861 56.8283V56.5728Z" fill="#DA3F46"/>
<path fill-rule="evenodd" clip-rule="evenodd" d="M2.07227 18.5477C2.07227 18.5477 5.44334 18.9119 8.43788 18.829C11.4324 18.7461 14.1823 18.5137 14.1823 18.5137C14.1823 18.5137 8.65265 19.7914 2.07227 18.5477Z" fill="#CB2C2E"/>
<path fill-rule="evenodd" clip-rule="evenodd" d="M3.9541 11.8694C3.9541 11.8694 6.65096 11.9401 7.67723 11.9373C8.70351 11.9346 11.4588 11.8816 11.4588 11.8816C11.4588 11.8816 9.80454 12.0203 7.62014 12.0869C6.49192 12.1222 5.22233 12.0189 3.9541 11.8694Z" fill="#E95864"/>
<path fill-rule="evenodd" clip-rule="evenodd" d="M3.9541 14.7227C3.9541 14.7227 6.65096 14.7933 7.67723 14.7906C8.70351 14.7879 11.4588 14.7349 11.4588 14.7349C8.85711 14.9524 6.54629 15.0285 3.9541 14.7227Z" fill="#E95864"/>
<path fill-rule="evenodd" clip-rule="evenodd" d="M13.0742 16.3213C13.0742 16.3213 14.9106 18.4228 14.844 18.9189C14.7774 19.4151 14.9786 54.8059 14.9772 55.2721C14.9759 55.7397 14.4485 19.1432 14.3153 18.8278C14.1821 18.5138 13.0742 16.3213 13.0742 16.3213Z" fill="#E95864"/>
<path fill-rule="evenodd" clip-rule="evenodd" d="M15.6872 31.9409V45.572C15.6872 46.8511 0.119141 46.7954 0.119141 45.572V31.9409C0.1205 33.2676 15.6872 33.2934 15.6872 31.9409Z" fill="#C93833"/>
<path fill-rule="evenodd" clip-rule="evenodd" d="M3.01582 46.3142C1.30309 46.1579 0.119141 45.9105 0.119141 45.572V31.9409C0.119141 32.3066 1.30309 32.573 3.01582 32.7402V46.3142Z" fill="#BF2E28"/>
<path fill-rule="evenodd" clip-rule="evenodd" d="M15.6873 31.9409V45.4402C15.6873 45.5516 15.6452 45.659 15.5663 45.7582C15.2211 46.0192 14.1513 46.2109 12.7227 46.3359V32.7538C14.4721 32.5879 15.6873 32.3188 15.6873 31.9409Z" fill="#D55047"/>
<path fill-rule="evenodd" clip-rule="evenodd" d="M14.8665 32.6409C14.8869 37.1932 14.9114 42.1397 14.9318 46.2461C14.9005 46.2584 14.8706 46.272 14.838 46.2842C14.7741 42.1981 14.6966 37.272 14.6191 32.7265C14.7061 32.698 14.7891 32.6708 14.8665 32.6409Z" fill="white"/>
</svg>
