<svg width="29" height="50" viewBox="0 0 29 50" fill="none" xmlns="http://www.w3.org/2000/svg">
<path fill-rule="evenodd" clip-rule="evenodd" d="M11.9795 6.12845H17.0653V5.39893H11.9795V6.12845Z" fill="#83171C"/>
<path fill-rule="evenodd" clip-rule="evenodd" d="M15.8964 6.12839H13.1059C13.1003 5.96196 13.0976 5.71093 13.1322 5.70677C13.1835 5.69983 15.8839 5.68458 15.9047 5.72202C15.9144 5.74283 15.9075 5.94532 15.8964 6.12839Z" fill="#AB1C22"/>
<path fill-rule="evenodd" clip-rule="evenodd" d="M11.8915 5.62916C11.8111 5.62916 11.5684 4.57094 12.0191 4.51962C12.1009 4.40035 12.3478 4.0869 12.4685 3.93434C12.5309 2.75269 12.6571 1.42402 12.6571 0.259007C12.6571 -0.0863357 16.3865 -0.0863357 16.3865 0.259007C16.3865 1.42402 16.5141 2.75269 16.5765 3.93434C16.6972 4.0869 16.9441 4.40035 17.0259 4.51962C17.4766 4.57094 17.2339 5.62916 17.1535 5.62916C15.399 5.62916 13.646 5.62916 11.8915 5.62916Z" fill="#B51D23"/>
<path fill-rule="evenodd" clip-rule="evenodd" d="M11.8915 5.62914C11.8111 5.62914 11.5684 4.57092 12.0191 4.51961C12.1009 4.40033 12.3478 4.08689 12.4685 3.93433C12.5309 2.75267 12.6571 1.424 12.6571 0.25899C12.6571 0.127233 13.1966 0.0467918 13.8651 0.0148926C13.4754 0.238186 13.5475 3.20619 13.5003 3.6611C13.4518 4.11879 13.259 4.4142 13.0995 4.58757C12.9775 4.71932 13.0593 5.34205 13.1065 5.62914H11.8915Z" fill="#AB1C22"/>
<path fill-rule="evenodd" clip-rule="evenodd" d="M15.1436 0.0134277C15.8287 0.0439398 16.3862 0.125768 16.3862 0.258912C16.3862 1.42392 16.5138 2.75259 16.5762 3.93425C16.6969 4.08681 16.9438 4.40025 17.0256 4.51953C17.4764 4.57084 17.2336 5.62906 17.1532 5.62906H15.9064C15.9521 5.34197 16.0353 4.71924 15.9119 4.58749C15.7524 4.41412 15.5596 4.11871 15.5125 3.66103C15.4639 3.20612 15.5361 0.225626 15.1436 0.0134277Z" fill="#AB1C22"/>
<path fill-rule="evenodd" clip-rule="evenodd" d="M11.998 4.5224L12.0189 4.51962C12.1007 4.40035 12.3476 4.0869 12.4682 3.93434C12.5306 2.75269 12.6568 1.42402 12.6568 0.259007C12.6568 -0.0863357 16.3863 -0.0863357 16.3863 0.259007C16.3863 1.42402 16.5139 2.75269 16.5763 3.93434C16.6969 4.0869 16.9438 4.40035 17.0256 4.51962L17.0381 4.5224C15.3586 4.65138 13.6776 4.63612 11.998 4.5224Z" fill="#AB1C22"/>
<path fill-rule="evenodd" clip-rule="evenodd" d="M11.998 4.52238L12.0189 4.51961C12.1007 4.40033 12.3476 4.08689 12.4682 3.93433C12.5306 2.75267 12.6568 1.424 12.6568 0.25899C12.6568 0.127233 13.1963 0.0467918 13.8648 0.0148926C13.4751 0.238186 13.5472 3.20619 13.5001 3.6611C13.4515 4.11463 13.2629 4.40865 13.1034 4.58202C12.7345 4.56815 12.367 4.54735 11.998 4.52238Z" fill="#9F1B20"/>
<path fill-rule="evenodd" clip-rule="evenodd" d="M15.1436 0.0134277C15.8287 0.0439398 16.3862 0.125768 16.3862 0.258912C16.3862 1.42392 16.5138 2.75259 16.5762 3.93425C16.6969 4.08681 16.9438 4.40025 17.0256 4.51953L17.0381 4.5223C16.6636 4.55004 16.2878 4.57223 15.9119 4.58749C15.7524 4.41412 15.5596 4.11871 15.5125 3.66103C15.4639 3.20612 15.5361 0.225626 15.1436 0.0134277Z" fill="#9F1B20"/>
<path fill-rule="evenodd" clip-rule="evenodd" d="M12.4678 3.93434C12.5302 2.75269 12.6564 1.42402 12.6564 0.259007C12.6564 -0.0863357 16.3858 -0.0863357 16.3858 0.259007C16.3858 1.42402 16.5134 2.75269 16.5758 3.93434C15.2056 4.06471 13.8367 4.04946 12.4678 3.93434Z" fill="#B51D23"/>
<path fill-rule="evenodd" clip-rule="evenodd" d="M12.4678 3.93433C12.5302 2.75267 12.6564 1.424 12.6564 0.25899C12.6564 0.127233 13.1959 0.0467918 13.8644 0.0148926C13.4747 0.238186 13.5468 3.20619 13.4996 3.6611C13.4858 3.78593 13.4622 3.89688 13.4317 3.99812C13.1099 3.98287 12.7895 3.96068 12.4678 3.93433Z" fill="#AB1C22"/>
<path fill-rule="evenodd" clip-rule="evenodd" d="M15.1436 0.0134277C15.8287 0.0439398 16.3862 0.125768 16.3862 0.258912C16.3862 1.42392 16.5138 2.75259 16.5762 3.93425C16.2448 3.96615 15.9119 3.98834 15.5818 4.00359C15.5499 3.90096 15.525 3.78724 15.5125 3.66103C15.4639 3.20612 15.5361 0.225626 15.1436 0.0134277Z" fill="#AB1C22"/>
<path fill-rule="evenodd" clip-rule="evenodd" d="M12.7648 0.293679C12.7675 0.252071 12.8022 0.221559 12.8411 0.222946C12.8813 0.22572 12.9118 0.260393 12.9104 0.300613L12.7343 3.78455C12.7315 3.82478 12.6982 3.85529 12.658 3.8539C12.6178 3.85251 12.5872 3.81784 12.59 3.77623L12.7648 0.293679Z" fill="#83171C"/>
<path fill-rule="evenodd" clip-rule="evenodd" d="M13.0635 0.231343C13.0649 0.189735 13.0982 0.157836 13.1384 0.159223C13.1787 0.16061 13.2092 0.195283 13.2078 0.236891C13.162 1.41855 13.1162 2.60159 13.0705 3.78324C13.0677 3.82485 13.0344 3.85675 12.9942 3.85398C12.954 3.85259 12.9235 3.81792 12.9249 3.77631C12.9706 2.59465 13.0164 1.413 13.0635 0.231343Z" fill="#83171C"/>
<path fill-rule="evenodd" clip-rule="evenodd" d="M13.3597 0.192445C13.3611 0.150837 13.3943 0.117551 13.4346 0.118938C13.4734 0.120325 13.5053 0.154998 13.5039 0.196606C13.4706 1.39213 13.4373 2.58627 13.404 3.78179C13.4027 3.8234 13.3694 3.85669 13.3292 3.8553C13.2903 3.85391 13.2584 3.81924 13.2598 3.77763C13.2931 2.58211 13.3264 1.38797 13.3597 0.192445Z" fill="#83171C"/>
<path fill-rule="evenodd" clip-rule="evenodd" d="M13.6572 0.160629C13.6586 0.117634 13.6919 0.0843483 13.7307 0.0857352C13.7709 0.0857352 13.8028 0.120408 13.8014 0.163403C13.7806 1.36864 13.7612 2.57525 13.739 3.78187C13.739 3.82348 13.7057 3.85677 13.6655 3.85538C13.6267 3.85538 13.5934 3.82071 13.5948 3.7791C13.6156 2.57248 13.6364 1.36586 13.6572 0.160629Z" fill="#9F1B20"/>
<path fill-rule="evenodd" clip-rule="evenodd" d="M13.9537 0.140978C13.9551 0.0993704 13.987 0.0646973 14.0272 0.0646973C14.0674 0.0646973 14.0993 0.0993702 14.0993 0.142365C14.091 1.35453 14.0827 2.56809 14.0743 3.78025C14.0743 3.82325 14.0411 3.85653 14.0022 3.85653C13.962 3.85653 13.9287 3.82186 13.9287 3.78025C13.9384 2.5667 13.9454 1.35453 13.9537 0.140978Z" fill="#9F1B20"/>
<path fill-rule="evenodd" clip-rule="evenodd" d="M14.252 0.114777C14.252 0.0717823 14.2839 0.0371094 14.3241 0.0371094C14.3629 0.0371094 14.3962 0.0703953 14.3962 0.11339C14.4004 1.33527 14.4045 2.55714 14.4101 3.7804C14.4101 3.82201 14.3768 3.85668 14.3379 3.85807C14.2977 3.85807 14.2644 3.8234 14.2644 3.7804C14.2603 2.55853 14.2561 1.33665 14.252 0.114777Z" fill="#9F1B20"/>
<path fill-rule="evenodd" clip-rule="evenodd" d="M14.5489 0.117629C14.5475 0.074634 14.5794 0.039961 14.6196 0.0385742C14.6598 0.0385742 14.6931 0.0718602 14.6931 0.114855L14.7444 3.78048C14.7458 3.82209 14.7139 3.85815 14.6737 3.85815C14.6335 3.85954 14.6002 3.82486 14.6002 3.78187L14.5489 0.117629Z" fill="#9F1B20"/>
<path fill-rule="evenodd" clip-rule="evenodd" d="M16.2528 0.293679C16.2514 0.252071 16.2168 0.221559 16.1765 0.222946C16.1363 0.22572 16.1058 0.260393 16.1086 0.300613L16.2847 3.78455C16.2861 3.82478 16.3208 3.85529 16.3596 3.8539C16.3998 3.85251 16.4303 3.81784 16.429 3.77623L16.2528 0.293679Z" fill="#83171C"/>
<path fill-rule="evenodd" clip-rule="evenodd" d="M15.9562 0.231343C15.9548 0.189735 15.9215 0.157836 15.8813 0.159223C15.8411 0.16061 15.8092 0.195283 15.8106 0.236891C15.8577 1.41855 15.9035 2.60159 15.9493 3.78324C15.9507 3.82485 15.9853 3.85675 16.0256 3.85398C16.0644 3.85259 16.0963 3.81792 16.0935 3.77631C16.0478 2.59465 16.002 1.413 15.9562 0.231343Z" fill="#83171C"/>
<path fill-rule="evenodd" clip-rule="evenodd" d="M15.6593 0.192445C15.658 0.150837 15.6247 0.117551 15.5844 0.118938C15.5442 0.120325 15.5123 0.154998 15.5137 0.196606C15.547 1.39213 15.5817 2.58627 15.615 3.78179C15.615 3.8234 15.6482 3.85669 15.6885 3.8553C15.7287 3.85391 15.7606 3.81924 15.7592 3.77763C15.7259 2.58211 15.6926 1.38797 15.6593 0.192445Z" fill="#83171C"/>
<path fill-rule="evenodd" clip-rule="evenodd" d="M15.3625 0.160629C15.3611 0.117634 15.3278 0.0843483 15.2876 0.0857352C15.2474 0.0857352 15.2155 0.120408 15.2168 0.163403C15.2376 1.36864 15.2584 2.57525 15.2793 3.78187C15.2793 3.82348 15.3139 3.85677 15.3528 3.85538C15.393 3.85538 15.4249 3.82071 15.4235 3.7791C15.4041 2.57248 15.3819 1.36586 15.3625 0.160629Z" fill="#9F1B20"/>
<path fill-rule="evenodd" clip-rule="evenodd" d="M15.0642 0.140978C15.0642 0.0993704 15.0323 0.0646973 14.992 0.0646973C14.9518 0.0646973 14.9199 0.0993702 14.9199 0.142365C14.9282 1.35453 14.9366 2.56809 14.9449 3.78025C14.9449 3.82325 14.9768 3.85653 15.017 3.85653C15.0572 3.85653 15.0891 3.82186 15.0891 3.78025C15.0808 2.5667 15.0725 1.35453 15.0642 0.140978Z" fill="#9F1B20"/>
<path d="M15.2751 3.49742C15.2557 3.45997 15.185 3.31434 15.0851 3.10353C15.0782 2.16597 15.0712 1.2298 15.0657 0.293632C15.117 0.46561 15.1766 0.727738 15.2321 1.0287C15.246 1.85114 15.2599 2.67497 15.2751 3.49742ZM15.4166 3.28799C15.4096 2.91768 15.4027 2.54738 15.3972 2.17568C15.4429 2.63059 15.4582 3.04667 15.4166 3.28799ZM14.9381 2.79425C14.8715 2.65556 14.7994 2.50161 14.7245 2.34073L14.6926 0.11472C14.6926 0.0717251 14.6593 0.0384391 14.6205 0.0384391C14.6205 0.0384391 14.6205 0.0384391 14.6191 0.0384391C14.5789 0.0398259 14.547 0.0744989 14.5484 0.117494L14.5747 2.02173C14.5165 1.89691 14.4582 1.77209 14.4014 1.64727C14.4 1.13549 14.3972 0.625106 14.3958 0.113333C14.3958 0.0703382 14.3639 0.0370522 14.3237 0.0370522C14.2835 0.0370522 14.2516 0.0717251 14.2516 0.11472C14.253 0.518313 14.2543 0.923294 14.2557 1.32689C14.1989 1.20206 14.1448 1.08002 14.0935 0.963514C14.0948 0.690291 14.0962 0.415681 14.099 0.142458C14.099 0.0994635 14.0671 0.0647906 14.0269 0.0647906C13.9867 0.0647906 13.9548 0.0994637 13.9534 0.141071C13.9534 0.306115 13.952 0.469771 13.9506 0.634814C13.8882 0.487801 13.8369 0.358818 13.7994 0.260346C13.8008 0.228447 13.8008 0.195161 13.8008 0.163262C13.8022 0.142458 13.7953 0.124428 13.7842 0.111946C13.7994 0.080047 13.8175 0.055082 13.8355 0.0370522C13.9437 0.0328913 14.1392 0.0273438 14.3389 0.0273438C14.5983 0.0273438 14.8646 0.0370524 14.9589 0.0731121C14.9353 0.0869815 14.9201 0.111946 14.9201 0.142458C14.9256 1.02593 14.9325 1.91078 14.9381 2.79425Z" fill="#C42424"/>
<path d="M13.7848 0.112003C13.7751 0.0995208 13.7612 0.0911993 13.7459 0.0870385C13.7404 0.0579133 13.7404 0.0412701 13.7501 0.0412701C13.7501 0.0412701 13.782 0.039883 13.8361 0.0371094C13.8181 0.0551392 13.8 0.0801041 13.7848 0.112003Z" fill="#BC2424"/>
<path d="M13.8002 0.260279C13.7724 0.183998 13.753 0.124361 13.7461 0.0869141C13.7613 0.0910749 13.7752 0.0993964 13.7849 0.111879C13.796 0.124361 13.803 0.142391 13.8016 0.163195C13.8016 0.195094 13.8016 0.22838 13.8002 0.260279Z" fill="#B22323"/>
<path d="M14.094 0.963421C14.0427 0.84692 13.9942 0.735966 13.9512 0.634721C13.9526 0.469678 13.9539 0.306021 13.9539 0.140978C13.9553 0.0993704 13.9872 0.0646973 14.0275 0.0646973C14.0677 0.0646973 14.0996 0.0993702 14.0996 0.142365C14.0968 0.415588 14.0954 0.690198 14.094 0.963421Z" fill="#B22323"/>
<path d="M14.4017 1.64732C14.3518 1.53914 14.3033 1.43235 14.2561 1.32694C14.2547 0.923351 14.2533 0.51837 14.252 0.114777C14.252 0.0717823 14.2839 0.0371094 14.3241 0.0371094C14.3643 0.0371094 14.3962 0.0703953 14.3962 0.11339C14.3976 0.625163 14.4004 1.13555 14.4017 1.64732Z" fill="#B22323"/>
<path d="M14.725 2.34086C14.6765 2.23684 14.6252 2.13005 14.5752 2.02187L14.5489 0.117629C14.5475 0.074634 14.5794 0.039961 14.6196 0.0385742C14.621 0.0385742 14.621 0.0385742 14.621 0.0385742C14.6598 0.0385742 14.6931 0.0718602 14.6931 0.114855L14.725 2.34086Z" fill="#B22323"/>
<path d="M15.28 3.50723C15.28 3.50723 15.28 3.50723 15.2786 3.50723C15.2786 3.50723 15.2772 3.50307 15.2744 3.49752C15.2592 2.67508 15.2453 1.85125 15.2314 1.02881C15.2966 1.38386 15.3577 1.793 15.3965 2.17579C15.402 2.54749 15.409 2.91779 15.4159 3.2881C15.3909 3.4254 15.3479 3.50723 15.28 3.50723Z" fill="#B22323"/>
<path d="M15.085 3.10366C15.0406 3.01212 14.9907 2.90811 14.938 2.79438C14.9324 1.91091 14.9255 1.02606 14.9199 0.142588C14.9199 0.112076 14.9352 0.0871116 14.9588 0.0732422C14.9615 0.074629 14.9643 0.0760161 14.9671 0.0774029C14.9934 0.0884983 15.0281 0.167553 15.0655 0.293762C15.0711 1.22993 15.078 2.1661 15.085 3.10366Z" fill="#B22323"/>
<path fill-rule="evenodd" clip-rule="evenodd" d="M13.941 4.7042C14.2129 4.72778 15.7191 4.65566 15.83 4.77632C15.9424 4.8956 16.0616 5.56132 15.6983 5.44898C15.3335 5.33664 14.7011 4.99546 14.1935 4.9594C13.6845 4.92472 13.0243 4.73194 13.941 4.7042Z" fill="#C42424"/>
<path fill-rule="evenodd" clip-rule="evenodd" d="M0.931641 6.19225C9.55273 6.14509 19.4914 6.09794 28.1125 6.05078C27.7879 16.2363 27.2332 36.8168 27.7228 48.1063C18.7924 48.1063 9.86201 48.1063 0.931641 48.1063C0.931641 34.1359 2.33659 20.5954 0.931641 6.19225Z" fill="#F6C418"/>
<path fill-rule="evenodd" clip-rule="evenodd" d="M27.8851 13.7966C27.157 24.4551 27.9226 37.5143 27.9226 48.0646H26.5218C28.1154 46.4724 26.6022 24.8642 26.5218 22.0821C26.4414 19.3013 27.8851 13.7966 27.8851 13.7966Z" fill="#FBE888"/>
<path fill-rule="evenodd" clip-rule="evenodd" d="M3.41504 8.56812C7.72004 8.56812 12.025 8.56812 16.3286 8.56812C19.298 11.5223 22.2688 14.4764 25.2382 17.4305C24.4269 27.6563 25.2382 37.882 25.2382 48.1064C17.8972 50.4406 10.6131 50.8151 3.41504 48.1064C3.41504 34.9279 4.44275 22.4775 3.41504 8.56812Z" fill="#EFDFD3"/>
<path fill-rule="evenodd" clip-rule="evenodd" d="M3.41504 7.78454H16.3286L25.9261 7.73877L26.0981 16.6636C25.2881 26.8893 25.2382 37.0985 25.2382 47.3242C17.8972 49.657 10.6131 50.0315 3.41504 47.3242C3.41504 34.1443 4.44275 21.694 3.41504 7.78454Z" fill="#F6C418"/>
<path fill-rule="evenodd" clip-rule="evenodd" d="M3.59067 36.3369C3.81952 27.4967 4.12186 18.7092 3.51855 9.27954C3.5671 9.29064 3.61425 9.30173 3.66279 9.32392C7.75005 11.1768 5.58506 19.963 6.66825 29.1388C7.75143 38.3147 14.8011 39.0706 16.0161 44.8429C17.231 50.6153 13.5737 48.6237 9.6848 48.3657C5.79449 48.1063 3.59067 36.3369 3.59067 36.3369Z" fill="#F3BC0B"/>
<path fill-rule="evenodd" clip-rule="evenodd" d="M9.87808 48.9538C7.71726 48.6639 5.56199 48.1314 3.41504 47.3242C3.41504 34.8572 4.33318 23.042 3.56344 10.0285L3.66191 9.32397C3.66191 9.32397 5.04883 21.5358 5.04883 28.7714C5.04883 36.0069 5.74784 46.388 9.11666 48.0107C9.82261 48.3519 10.014 48.6667 9.87808 48.9538Z" fill="#ECB40E"/>
<path fill-rule="evenodd" clip-rule="evenodd" d="M26.0928 16.3917C25.3744 26.3803 25.2385 37.3342 25.2385 47.3242C23.1511 47.9871 21.0694 48.492 18.9932 48.8123C19.1235 48.7069 19.3233 48.5974 19.6062 48.485C22.975 47.148 23.674 38.5963 23.674 32.6353C23.674 26.6743 26.0124 12.2004 26.0124 12.2004L26.0928 16.3917Z" fill="#ECB40E"/>
<path fill-rule="evenodd" clip-rule="evenodd" d="M22.4782 48.1064C16.8765 49.5017 11.3108 49.6695 5.79361 48.1064C5.00029 47.8818 4.20697 47.621 3.41643 47.3242C3.41643 47.585 3.41504 47.8457 3.41504 48.1064C10.6131 50.8151 17.8972 50.4406 25.2382 48.1064C25.2382 47.8457 25.2368 47.585 25.2354 47.3242C24.3159 47.6169 23.3964 47.879 22.4782 48.1064Z" fill="#FCD73A"/>
<path fill-rule="evenodd" clip-rule="evenodd" d="M1.23535 6.71362C1.23535 6.71362 1.80954 9.27942 2.04531 13.2973C2.28248 17.3138 2.01203 38.9539 1.80954 42.4975C1.60705 46.0425 1.485 47.6111 2.45029 47.6624C3.41698 47.7151 2.58621 45.772 2.75541 43.8817C2.92323 41.9913 4.14511 14.0241 1.23535 6.71362Z" fill="#FBE888"/>
<path fill-rule="evenodd" clip-rule="evenodd" d="M2.43262 6.50701C2.43262 6.50701 11.2354 6.27123 11.2992 6.52365C11.3616 6.77746 10.8873 7.23237 9.09815 7.23237C7.30764 7.23237 2.94855 7.28368 2.43262 6.50701Z" fill="#FBE888"/>
<path fill-rule="evenodd" clip-rule="evenodd" d="M11.9796 6.12842H17.0585L18.3414 8.89255H10.748L11.9796 6.12842Z" fill="#ECB40E"/>
<path fill-rule="evenodd" clip-rule="evenodd" d="M26.3067 6.50701C26.3067 6.50701 17.5039 6.27123 17.4401 6.52365C17.3763 6.77746 17.8506 7.23237 19.6411 7.23237C21.4303 7.23237 25.7907 7.28368 26.3067 6.50701Z" fill="#FBE888"/>
<path fill-rule="evenodd" clip-rule="evenodd" d="M11.9805 6.12842C11.9805 6.12842 12.1553 7.39468 11.5242 7.98134C10.8932 8.56801 7.55761 8.14639 7.82806 8.56801C8.09851 8.99102 12.6726 11.407 13.6337 10.7663C13.7391 10.6955 21.657 8.44041 22.1591 8.40297C24.4877 8.23515 25.3823 8.75802 25.2478 10.1921C25.1132 11.6276 25.9981 12.2933 25.9981 12.2933L25.9274 7.73863L17.825 7.77885C17.825 7.77885 16.9595 7.60965 16.8583 7.15474C16.757 6.69844 16.7404 6.12842 16.7404 6.12842H11.9805Z" fill="#F3BC0B"/>
<path fill-rule="evenodd" clip-rule="evenodd" d="M24.0158 12.0672C22.7342 16.1184 22.002 24.2194 22.2461 29.8919C22.4902 35.563 22.4902 38.8042 19.9868 39.5462C17.4834 40.2896 12.9662 38.1288 11.1341 31.7143C9.30194 25.2998 6.79855 13.8217 10.1563 12.4722C13.5154 11.1213 18.2337 12.7967 19.3765 11.5263C20.518 10.2559 25.0837 8.03267 24.0158 12.0672Z" fill="#F6C418"/>
<path fill-rule="evenodd" clip-rule="evenodd" d="M15.0694 45.1674C14.738 45.8373 14.0431 46.2978 13.2401 46.2978C12.1167 46.2978 11.2041 45.3949 11.2041 44.2798C11.2041 44.0815 11.2332 43.8887 11.2887 43.707C11.6202 43.0371 12.3136 42.5767 13.1167 42.5767C14.2415 42.5767 15.1527 43.4809 15.1527 44.5946C15.1527 44.793 15.1235 44.9857 15.0694 45.1674Z" fill="#ECB40E"/>
<path fill-rule="evenodd" clip-rule="evenodd" d="M10.1552 42.0248C9.9555 42.4284 9.53665 42.7058 9.05262 42.7058C8.3758 42.7058 7.8252 42.1607 7.8252 41.4895C7.8252 41.3702 7.84323 41.2537 7.87651 41.1441C8.07623 40.7405 8.49508 40.4631 8.97773 40.4631C9.65593 40.4631 10.2051 41.0082 10.2051 41.6795C10.2051 41.7987 10.1871 41.9152 10.1552 42.0248Z" fill="#ECB40E"/>
<path fill-rule="evenodd" clip-rule="evenodd" d="M9.39289 33.4536C8.71468 34.8224 7.29448 35.7656 5.65098 35.7656C4.91314 35.7656 4.21968 35.5742 3.61914 35.2413L3.78141 28.4731C4.27931 28.2651 4.82437 28.1514 5.39717 28.1514C7.69946 28.1514 9.56486 29.9987 9.56486 32.2788C9.56486 32.6866 9.50523 33.0805 9.39289 33.4536Z" fill="#F3BC0B"/>
<path fill-rule="evenodd" clip-rule="evenodd" d="M3.61914 35.2427C3.67878 32.9876 3.7398 30.7338 3.78834 28.4704C4.28209 28.2651 4.82576 28.1514 5.39578 28.1514C5.80631 28.1514 6.20436 28.2096 6.57883 28.3192C6.60656 28.5924 6.63569 28.8656 6.66759 29.1389C6.9422 31.4578 7.59683 33.2386 8.44285 34.7004C7.70362 35.362 6.72445 35.7656 5.64959 35.7656C4.91175 35.7656 4.21968 35.5755 3.61914 35.2427Z" fill="#E6B010"/>
<path fill-rule="evenodd" clip-rule="evenodd" d="M3.61914 35.2427C3.67878 32.9876 3.7398 30.7339 3.78696 28.4704C4.17946 28.3067 4.60247 28.2013 5.04628 28.1653C5.04767 28.3705 5.04905 28.573 5.04905 28.7714C5.04905 30.9239 5.11008 33.3537 5.28622 35.749C4.68429 35.6976 4.11982 35.5201 3.61914 35.2427Z" fill="#E1AC12"/>
<path fill-rule="evenodd" clip-rule="evenodd" d="M25.114 16.1572C24.7825 16.8257 24.089 17.2861 23.286 17.2861C22.1612 17.2861 21.25 16.3832 21.25 15.2695C21.25 15.0698 21.2791 14.877 21.3332 14.6954C21.6647 14.0269 22.3595 13.5664 23.1612 13.5664C24.286 13.5664 25.1986 14.4693 25.1986 15.583C25.1986 15.7827 25.1694 15.9755 25.114 16.1572Z" fill="#ECB40E"/>
<path fill-rule="evenodd" clip-rule="evenodd" d="M25.8621 18.3264C25.7345 18.5829 25.4682 18.7591 25.1603 18.7591C24.7304 18.7591 24.3809 18.4137 24.3809 17.9866C24.3809 17.9103 24.392 17.8368 24.4141 17.7674C24.5404 17.5109 24.8066 17.3347 25.1132 17.3347C25.5445 17.3347 25.894 17.6801 25.894 18.1072C25.894 18.1835 25.8829 18.257 25.8621 18.3264Z" fill="#ECB40E"/>
<path fill-rule="evenodd" clip-rule="evenodd" d="M22.5845 9.78585C22.3612 10.2366 21.8939 10.5473 21.3516 10.5473C20.5943 10.5473 19.9785 9.93702 19.9785 9.1867C19.9785 9.05217 19.9979 8.9218 20.0354 8.79975C20.2587 8.349 20.7275 8.03833 21.2684 8.03833C22.027 8.03833 22.6414 8.64719 22.6414 9.39751C22.6414 9.53204 22.622 9.66241 22.5845 9.78585Z" fill="#F3BC0B"/>
<path fill-rule="evenodd" clip-rule="evenodd" d="M6.33594 16.8604H23.1773L14.7379 34.4132L6.33594 16.8604Z" fill="#FDF5CB"/>
<path fill-rule="evenodd" clip-rule="evenodd" d="M20.1406 18.2473C20.2238 18.0587 20.4125 17.927 20.6316 17.927H22.7452C23.0407 17.927 23.2806 18.1669 23.2806 18.4623V19.4845C23.2806 19.7355 23.1058 19.9477 22.8715 20.0046C23.085 20.0753 23.239 20.2778 23.239 20.5136V21.5066C23.239 21.802 22.9977 22.0433 22.7023 22.0433H22.2418V22.182H22.8132C23.1086 22.182 23.3499 22.422 23.3499 22.7174V23.7479C23.3499 24.0433 23.1086 24.2846 22.8132 24.2846H20.6316C20.4249 24.2846 20.2446 24.1667 20.1559 23.9947C19.8494 24.2361 19.4583 24.3318 19.0477 24.3318C18.6414 24.3318 18.2281 24.2582 17.8924 24.0405C17.7967 24.1875 17.6303 24.2846 17.4431 24.2846H15.2614C15.2004 24.2846 15.1408 24.2735 15.0853 24.2555C15.0312 24.2735 14.973 24.2846 14.9105 24.2846H12.7289C12.6457 24.2846 12.5653 24.2652 12.4945 24.2305C12.4238 24.2652 12.3447 24.2846 12.2601 24.2846H11.2089C11.1187 24.2846 11.0341 24.2624 10.9592 24.2222C10.8857 24.2624 10.8011 24.2846 10.711 24.2846H9.66105C9.45163 24.2846 9.26994 24.1639 9.18118 23.9892C8.83167 24.2402 8.40728 24.3318 7.97456 24.3318C7.47665 24.3318 7.02036 24.1723 6.66808 23.813C6.30332 23.44 6.16602 22.9504 6.16602 22.4386V20.0004C6.16602 19.4789 6.25755 18.9297 6.57654 18.5025C6.91773 18.0448 7.44614 17.8784 7.99814 17.8784C8.30881 17.8784 8.61393 17.9353 8.89547 18.067C8.99533 18.1156 9.08825 18.1711 9.17563 18.2349C9.26162 18.0532 9.44608 17.927 9.66105 17.927H10.711C10.8011 17.927 10.8857 17.9492 10.9592 17.988C11.0341 17.9492 11.1187 17.927 11.2089 17.927H12.2601C12.3447 17.927 12.4238 17.9464 12.4945 17.981C12.5653 17.9464 12.6457 17.927 12.7289 17.927H14.8426C14.9175 17.927 14.9882 17.9422 15.052 17.9686C15.1158 17.9422 15.1865 17.927 15.2614 17.927H17.3751C17.572 17.927 17.7454 18.0338 17.8383 18.1932C18.1435 17.9713 18.5151 17.8784 18.9063 17.8784C19.3515 17.8784 19.798 17.9727 20.1406 18.2473Z" fill="#FDF5CB"/>
<path fill-rule="evenodd" clip-rule="evenodd" d="M20.631 23.7477V18.4622H22.7446V19.4844H21.7045V20.5134H22.7016V21.5065H21.7045V22.7173H22.8126V23.7477H20.631ZM19.0471 23.7963C18.5645 23.7963 18.2164 23.6756 18.0042 23.4357C17.7906 23.1957 17.6838 22.813 17.6838 22.2887V21.7714H18.7295V22.4329C18.7295 22.555 18.7475 22.6507 18.7836 22.72C18.821 22.788 18.8862 22.8227 18.9778 22.8227C19.0735 22.8227 19.14 22.7949 19.1789 22.7395C19.2149 22.6826 19.233 22.5911 19.233 22.4621C19.233 22.3012 19.2177 22.1653 19.1844 22.0557C19.1539 21.9475 19.097 21.8421 19.018 21.7423C18.9389 21.6438 18.8294 21.5287 18.6893 21.3955L18.2164 20.9462C17.8613 20.6105 17.6838 20.2291 17.6838 19.7978C17.6838 19.3484 17.7878 19.0045 17.9972 18.7687C18.2066 18.5329 18.5104 18.415 18.9057 18.415C19.3897 18.415 19.735 18.544 19.9375 18.802C20.14 19.06 20.2426 19.4525 20.2426 19.9795H19.1664V19.6161C19.1664 19.5426 19.147 19.4871 19.1054 19.4483C19.0638 19.4081 19.0083 19.3873 18.9389 19.3873C18.8543 19.3873 18.7933 19.4108 18.7545 19.458C18.7143 19.5052 18.6948 19.5662 18.6948 19.6397C18.6948 19.7132 18.7156 19.7936 18.7559 19.8796C18.7961 19.967 18.8738 20.0641 18.9916 20.1778L19.6019 20.7631C19.7239 20.8782 19.8377 21.0016 19.9389 21.1306C20.0415 21.2596 20.1234 21.4094 20.1858 21.5814C20.2468 21.752 20.2773 21.9614 20.2773 22.2069C20.2773 22.7034 20.1872 23.0931 20.0041 23.3733C19.821 23.6562 19.502 23.7963 19.0471 23.7963ZM15.2608 23.7477V18.4622H17.3745V19.4844H16.3343V20.5134H17.3315V21.5065H16.3343V22.7173H17.4425V23.7477H15.2608ZM12.7283 23.7477V18.4622H14.842V19.4844H13.8032V20.5134H14.8004V21.5065H13.8032V22.7173H14.9099V23.7477H12.7283ZM9.66045 23.7477V18.4622H10.7103V20.3512H11.2082V18.4622H12.2595V23.7477H11.2082V21.3511H10.7103V23.7477H9.66045ZM7.97395 23.7963C7.59255 23.7963 7.28327 23.677 7.05027 23.4385C6.81726 23.1999 6.70215 22.867 6.70215 22.4385V20.0003C6.70215 19.4871 6.80201 19.096 7.00588 18.8228C7.20837 18.551 7.53985 18.415 7.99753 18.415C8.24856 18.415 8.47186 18.4608 8.66603 18.5523C8.86158 18.6439 9.01553 18.7826 9.12787 18.9643C9.23882 19.1487 9.29569 19.3789 9.29569 19.6577V20.5703H8.2444V19.7895C8.2444 19.6314 8.22499 19.5246 8.18477 19.4705C8.14454 19.415 8.08213 19.3873 7.99753 19.3873C7.89906 19.3873 7.83387 19.4233 7.80059 19.4941C7.76592 19.5648 7.74927 19.6605 7.74927 19.7784V22.4232C7.74927 22.5702 7.77008 22.6729 7.81307 22.7325C7.85607 22.7922 7.91848 22.8227 7.99753 22.8227C8.08768 22.8227 8.15148 22.7866 8.18893 22.7117C8.22637 22.6368 8.2444 22.5411 8.2444 22.4232V21.4718H9.30678V22.4718C9.30678 22.9364 9.19028 23.2734 8.95728 23.4815C8.7215 23.6923 8.39419 23.7963 7.97395 23.7963Z" fill="#B51D23"/>
<path fill-rule="evenodd" clip-rule="evenodd" d="M19.0478 23.7963C18.5652 23.7963 18.217 23.6756 18.0048 23.4357C17.7913 23.1957 17.6845 22.813 17.6845 22.2887V21.7714H18.7302V22.4329C18.7302 22.555 18.7482 22.6507 18.7843 22.72C18.8217 22.788 18.8869 22.8227 18.9785 22.8227C19.0742 22.8227 19.1407 22.7949 19.1796 22.7395C19.2156 22.6826 19.2337 22.5911 19.2337 22.4621C19.2337 22.3012 19.2184 22.1653 19.1851 22.0557C19.1546 21.9475 19.0977 21.8421 19.0187 21.7423C18.9396 21.6438 18.8301 21.5287 18.69 21.3955L18.217 20.9462C17.862 20.6105 17.6845 20.2291 17.6845 19.7978C17.6845 19.3484 17.7885 19.0045 17.9979 18.7687C18.2073 18.5329 18.5111 18.415 18.9063 18.415C19.3904 18.415 19.7357 18.544 19.9382 18.802C20.1407 19.06 20.2433 19.4525 20.2433 19.9795H19.1671V19.6161C19.1671 19.5426 19.1477 19.4871 19.1061 19.4483C19.0644 19.4081 19.009 19.3873 18.9396 19.3873C18.855 19.3873 18.794 19.4108 18.7552 19.458C18.7149 19.5052 18.6955 19.5662 18.6955 19.6397C18.6955 19.7132 18.7163 19.7936 18.7566 19.8796C18.7968 19.967 18.8744 20.0641 18.9923 20.1778L19.6026 20.7631C19.7246 20.8782 19.8383 21.0016 19.9396 21.1306C20.0422 21.2596 20.1241 21.4094 20.1865 21.5814C20.2475 21.752 20.278 21.9614 20.278 22.2069C20.278 22.7034 20.1879 23.0931 20.0048 23.3733C19.8217 23.6562 19.5027 23.7963 19.0478 23.7963ZM15.2615 23.7477V18.4622H17.3752V19.4844H16.335V20.5134H17.3322V21.5065H16.335V22.7173H17.4431V23.7477H15.2615ZM12.729 23.7477V18.4622H14.8427V19.4844H13.8039V20.5134H14.8011V21.5065H13.8039V22.7173H14.9106V23.7477H12.729ZM9.66114 23.7477V18.4622H10.711V20.3512H11.2089V18.4622H12.2602V23.7477H11.2089V21.3511H10.711V23.7477H9.66114ZM22.7453 18.655C22.712 18.9282 22.6801 19.2056 22.6496 19.4844H21.7051V20.5134H22.5456C22.5137 20.8435 22.4846 21.175 22.4582 21.5065H21.7051V22.7173H22.3681C22.3445 23.0612 22.3251 23.4052 22.3057 23.7477H20.6317V18.4622H22.7453V18.655ZM8.86366 21.4718H9.30747V22.4718C9.30747 22.7852 9.25477 23.0404 9.14798 23.2387C9.04257 22.6438 8.94687 22.0529 8.86366 21.4718ZM8.54883 18.5038C8.58905 18.5191 8.62927 18.5343 8.66672 18.5523C8.86227 18.6439 9.01622 18.7826 9.12856 18.9643C9.23951 19.1487 9.29638 19.3789 9.29638 19.6577V20.5703H8.74438C8.65562 19.8574 8.59044 19.1667 8.54883 18.5038Z" fill="#D72325"/>
<path fill-rule="evenodd" clip-rule="evenodd" d="M17.6713 24.7561C17.7684 24.6604 17.9016 24.6021 18.0472 24.6021H19.4993C19.7947 24.6021 20.0346 24.8421 20.0346 25.1375V25.8393C20.0346 25.9821 19.9778 26.1125 19.8862 26.2096C19.9611 26.3025 20.0069 26.419 20.0069 26.5466V27.229C20.0069 27.3801 19.9431 27.5174 19.8432 27.6145C19.9875 27.7102 20.0818 27.8753 20.0818 28.0611V28.7684C20.0818 29.0639 19.8419 29.3052 19.5464 29.3052H18.0472C17.9043 29.3052 17.774 29.2483 17.6783 29.1568C17.4383 29.2858 17.1679 29.3385 16.8891 29.3385C16.5146 29.3385 16.1693 29.2192 15.9002 28.9584C15.6312 29.2331 15.265 29.3385 14.8822 29.3385C14.627 29.3385 14.3802 29.2913 14.1652 29.1804C14.0681 29.2622 13.9516 29.3052 13.8199 29.3052H13.1333C13.0362 29.3052 12.9447 29.2788 12.8657 29.2344C12.7866 29.2788 12.6964 29.3052 12.598 29.3052H11.8934C11.77 29.3052 11.6618 29.2677 11.5689 29.197C11.3692 29.2941 11.1417 29.3385 10.9045 29.3385C10.4885 29.3385 10.0724 29.2317 9.78669 28.9099C9.50931 28.5965 9.43164 28.1707 9.43164 27.7657V27.4106C9.43164 27.2082 9.54537 27.032 9.7118 26.9405C9.53289 26.6825 9.43164 26.3857 9.43164 26.0556C9.43164 25.6701 9.52179 25.2887 9.78253 24.9932C10.0474 24.6937 10.4136 24.5688 10.8075 24.5688C11.1611 24.5688 11.5106 24.6493 11.7769 24.8726C11.8698 24.7103 12.0446 24.6021 12.2443 24.6021H13.4745C13.5702 24.6021 13.6604 24.6271 13.738 24.6701C13.8157 24.6271 13.9045 24.6021 13.9988 24.6021H14.7047C14.7671 24.6021 14.8268 24.6132 14.8822 24.6326C14.9377 24.6132 14.9973 24.6021 15.0598 24.6021H15.7643C15.9113 24.6021 16.0431 24.6604 16.1402 24.7561C16.3648 24.6243 16.6311 24.5688 16.9057 24.5688C17.1429 24.5688 17.3773 24.6132 17.5937 24.7159L17.6713 24.7561Z" fill="#FDF5CB"/>
<path fill-rule="evenodd" clip-rule="evenodd" d="M18.0476 28.7686V25.1376H19.4997V25.8394H18.7854V26.5467H19.4705V27.2291H18.7854V28.0612H19.5468V28.7686H18.0476ZM16.8895 28.8019C16.6273 28.8019 16.4152 28.72 16.2557 28.5564C16.0948 28.3927 16.0157 28.1639 16.0157 27.8698V26.1944C16.0157 25.8422 16.0851 25.5731 16.2238 25.3859C16.3638 25.1986 16.5913 25.1057 16.9061 25.1057C17.0781 25.1057 17.2307 25.1362 17.3652 25.2C17.4983 25.2624 17.6051 25.3581 17.6814 25.483C17.7591 25.6092 17.7979 25.7673 17.7979 25.9587V26.5856H17.0753V26.0502C17.0753 25.9406 17.0615 25.8685 17.0337 25.8311C17.006 25.7922 16.963 25.7728 16.9061 25.7728C16.8382 25.7728 16.7938 25.7978 16.7702 25.8463C16.7466 25.8949 16.7355 25.9601 16.7355 26.0419V27.8587C16.7355 27.96 16.7494 28.0293 16.7799 28.0723C16.809 28.1126 16.8506 28.1334 16.9061 28.1334C16.9671 28.1334 17.0115 28.1084 17.0365 28.0571C17.0628 28.0058 17.0753 27.9406 17.0753 27.8587V27.2041H17.8048V27.892C17.8048 28.211 17.7244 28.4426 17.5649 28.5855C17.4026 28.7297 17.178 28.8019 16.8895 28.8019ZM14.8826 28.8019C14.5803 28.8019 14.357 28.7159 14.2141 28.5467C14.0713 28.3775 13.9991 28.1264 13.9991 27.7963V25.1376H14.7051V27.7686C14.7051 27.8282 14.7092 27.8865 14.7148 27.9433C14.7217 27.9988 14.7384 28.0446 14.7619 28.0793C14.7869 28.1153 14.8271 28.1334 14.8826 28.1334C14.9381 28.1334 14.9797 28.1167 15.0047 28.0807C15.0282 28.046 15.0449 28.0002 15.0504 27.9433C15.056 27.8865 15.0601 27.8282 15.0601 27.7686V25.1376H15.7647V27.7963C15.7647 28.1264 15.694 28.3775 15.5511 28.5467C15.4082 28.7159 15.185 28.8019 14.8826 28.8019ZM12.6968 27.6036H13.0255L12.8674 25.7576H12.8341L12.6968 27.6036ZM11.8938 28.7686L12.2447 25.1376H13.4749L13.8202 28.7686H13.1337L13.081 28.1833H12.6441L12.5983 28.7686H11.8938ZM10.9049 28.8019C10.5734 28.8019 10.3349 28.7186 10.1879 28.5536C10.0423 28.3886 9.96875 28.1264 9.96875 27.7658V27.4108H10.6872V27.8657C10.6872 27.9489 10.6997 28.0141 10.7246 28.0626C10.7496 28.1098 10.794 28.1334 10.8578 28.1334C10.923 28.1334 10.9687 28.1139 10.9951 28.0751C11.02 28.0363 11.0325 27.9739 11.0325 27.8851C11.0325 27.7741 11.0228 27.6812 11.0006 27.6063C10.9784 27.5314 10.9396 27.4593 10.8855 27.3914C10.8314 27.3234 10.7565 27.2443 10.6594 27.1542L10.3335 26.8449C10.0908 26.6147 9.96875 26.3512 9.96875 26.0558C9.96875 25.7465 10.0409 25.5107 10.1837 25.3484C10.328 25.1862 10.536 25.1057 10.8078 25.1057C11.1407 25.1057 11.3779 25.1945 11.5166 25.372C11.6566 25.5495 11.726 25.8186 11.726 26.1792H10.9867V25.9309C10.9867 25.881 10.9729 25.8422 10.9451 25.8144C10.9174 25.7881 10.8786 25.7728 10.8314 25.7728C10.7732 25.7728 10.7316 25.7895 10.7038 25.8228C10.6775 25.8546 10.6636 25.8963 10.6636 25.9462C10.6636 25.9975 10.6775 26.053 10.7052 26.1126C10.7329 26.1709 10.787 26.2388 10.8675 26.3165L11.2863 26.7187C11.3709 26.7978 11.4472 26.8824 11.5179 26.9711C11.5887 27.0599 11.6441 27.1625 11.6871 27.2804C11.7288 27.3983 11.7509 27.5411 11.7509 27.7103C11.7509 28.0515 11.6885 28.3178 11.5623 28.512C11.4375 28.7048 11.2184 28.8019 10.9049 28.8019Z" fill="#D72325"/>
</svg>
