<svg width="44" height="49" viewBox="0 0 44 49" fill="none" xmlns="http://www.w3.org/2000/svg">
<path fill-rule="evenodd" clip-rule="evenodd" d="M28.0781 44.2917L35.1094 3.66146L0 3.40625L5.28125 13.2656L10.2604 44.2917C10.2604 46.5104 14.25 48.3073 19.1667 48.3073C24.0885 48.3073 28.0781 46.5104 28.0781 44.2917Z" fill="#CADFDE"/>
<path fill-rule="evenodd" clip-rule="evenodd" d="M11.8594 16.5208C11.8594 16.5208 13.5417 38.5156 14.1042 39.2187C14.6667 39.9219 14.8125 39.7083 14.8125 39.7083C14.8125 39.7083 13.2656 17.0833 12.9115 16.4531C12.5625 15.8177 11.8594 16.5208 11.8594 16.5208Z" fill="#D4DFE0"/>
<path fill-rule="evenodd" clip-rule="evenodd" d="M9.26597 13.849C9.26597 13.849 11.7868 43.6094 12.2087 44.0677C12.6358 44.5208 13.1201 44.5625 13.5108 44.4896C13.8962 44.4167 10.2451 13.4323 10.2451 13.4323C10.2451 13.4323 9.12014 13.0781 9.26597 13.849Z" fill="#D4DFE0"/>
<path fill-rule="evenodd" clip-rule="evenodd" d="M22.167 47.8958L25.2816 47.2135L30.3649 5.82812L25.1722 6.54167L22.167 47.8958Z" fill="#BCD4D4"/>
<path fill-rule="evenodd" clip-rule="evenodd" d="M19.7868 6.75521C28.2503 6.75521 35.1462 5.23958 35.1462 3.375C35.1462 1.51563 28.2503 0 19.7868 0C11.3337 0 4.43262 1.51563 4.43262 3.375C4.43262 5.23958 11.3337 6.75521 19.7868 6.75521Z" fill="#D4DFE0"/>
<path fill-rule="evenodd" clip-rule="evenodd" d="M14.9115 6.57814C11.6198 6.33856 8.82812 5.85418 6.95312 5.23439C7.03646 4.64064 7.71875 4.1146 8.59375 3.89064C8.92708 3.68751 16.9844 4.96356 16.6458 5.39064C16.4948 5.57814 15.8906 6.12502 14.9115 6.57814Z" fill="white"/>
<path fill-rule="evenodd" clip-rule="evenodd" d="M19.6458 6C27.2031 6 33.3646 4.74479 33.3646 3.20833C33.3646 1.67708 27.2031 0.421875 19.6458 0.421875C12.0885 0.421875 5.92188 1.67708 5.92188 3.20833C5.92188 4.74479 12.0885 6 19.6458 6Z" fill="#CADFDE"/>
<path fill-rule="evenodd" clip-rule="evenodd" d="M26.1042 0.75C31.3646 1.14063 33.3646 2.0625 33.3646 3.20833C33.3646 4.35937 30.25 5.25 25.7188 5.70833C25.7917 4.21354 25.8438 3.26563 26.1042 0.75Z" fill="#D6E4E5"/>
<path fill-rule="evenodd" clip-rule="evenodd" d="M14.7083 5.80729C9.56771 5.40625 5.92188 4.39583 5.92188 3.20833C5.92188 2.08333 9.21875 1.11458 13.9531 0.671875L14.7083 5.80729Z" fill="#C0DBDC"/>
<path fill-rule="evenodd" clip-rule="evenodd" d="M25.8289 0.619943C25.6622 0.958486 25.5216 1.17723 26.5007 1.30223C27.4799 1.43765 29.9435 1.87515 30.8028 2.10432C31.657 2.33348 32.3966 1.9689 32.0476 1.83348C31.7039 1.69286 27.7455 0.489735 25.8289 0.619943Z" fill="white"/>
<path fill-rule="evenodd" clip-rule="evenodd" d="M8.78697 12.7346C8.59426 13.8543 9.07863 16.0054 9.43801 16.1668C9.8078 16.3335 9.6203 14.4637 9.59426 13.995C9.56301 13.521 9.44842 12.3231 9.44842 12.3231C9.44842 12.3231 8.97967 12.2033 8.78697 12.7346Z" fill="white"/>
<path fill-rule="evenodd" clip-rule="evenodd" d="M9.56836 16.8647C9.56836 16.8647 9.77148 19.4428 10.0163 19.3491C10.2611 19.2553 10.084 17.0626 9.92773 16.8022C9.77669 16.547 9.67253 16.4116 9.56836 16.8647Z" fill="white"/>
<path fill-rule="evenodd" clip-rule="evenodd" d="M7.49479 1.35425L0 3.40633L6.97396 5.1355L6.96354 3.18758L7.49479 1.35425Z" fill="#D4DFE0"/>
<path fill-rule="evenodd" clip-rule="evenodd" d="M10.2188 1.17725L2.71875 3.22933L7.74479 4.59912L6.96354 3.18766L10.2188 1.17725Z" fill="#BCD4D4"/>
<path fill-rule="evenodd" clip-rule="evenodd" d="M5.58329 8.9429C6.5885 16.0783 10.375 42.2762 10.8802 42.8387C11.4843 43.495 11.5781 43.0783 11.5781 43.0783C11.5781 43.0783 6.80204 8.90644 6.61975 8.28144C5.91662 5.80748 5.29683 6.9481 5.58329 8.9429Z" fill="white"/>
<path fill-rule="evenodd" clip-rule="evenodd" d="M32.9482 9.80724C34.2607 7.97911 37.3232 7.87494 39.7764 8.70307C43.0368 9.80724 43.8701 11.7343 42.8545 14.8541C41.8285 18.0104 39.3441 21.9739 37.6826 24.4166C35.318 27.8958 29.3545 35.1302 29.3545 35.1302L30.3701 29.2395C30.7712 26.9114 43.4743 14.901 39.8128 11.6249C38.3128 10.2812 35.4743 10.4427 34.766 11.0677C34.0524 11.7031 33.2712 12.4635 33.2712 12.4635L32.9482 9.80724Z" fill="#CADFDE"/>
<path fill-rule="evenodd" clip-rule="evenodd" d="M19.6414 14.0209C22.2039 14.2761 25.2559 13.2605 25.3237 13.474C25.3966 13.698 25.4434 13.8438 25.0372 14.0834C24.6205 14.323 23.7559 14.4167 23.2195 14.5157C22.2924 14.6927 21.1518 14.8334 20.2143 14.823C19.9903 14.8125 19.7716 14.7709 19.5632 14.6302C19.157 14.3542 19.3028 13.9896 19.6414 14.0209ZM19.6153 16.0469C22.1778 16.3021 25.2299 15.2865 25.3028 15.5052C25.3757 15.724 25.4278 15.8698 25.0112 16.1094C24.5997 16.3438 23.7299 16.4427 23.1987 16.5417C22.2664 16.7188 21.1309 16.8594 20.1934 16.8438C19.9695 16.8438 19.7507 16.7917 19.5424 16.6615C19.1362 16.3802 19.2768 16.0157 19.6153 16.0469ZM19.6362 12.0573C22.1987 12.3125 25.2507 11.2917 25.3184 11.5105C25.3914 11.7344 25.4382 11.8802 25.032 12.1198C24.6153 12.3542 23.7507 12.4532 23.2143 12.5521C22.2872 12.7292 21.1466 12.8646 20.2091 12.8542C19.9851 12.849 19.7664 12.8021 19.558 12.6667C19.1518 12.3907 19.2976 12.0261 19.6362 12.0573ZM19.6205 19.8802C22.1882 20.1355 25.2351 19.1198 25.308 19.3386C25.3809 19.5573 25.4278 19.7032 25.0216 19.9427C24.6049 20.1771 23.7351 20.2761 23.2039 20.375C22.2716 20.5521 21.1362 20.6927 20.2039 20.6771C19.9747 20.6771 19.7559 20.625 19.5476 20.4948C19.1414 20.2136 19.282 19.849 19.6205 19.8802ZM19.6205 21.75C22.1882 22.0052 25.2351 20.9844 25.308 21.2032C25.3809 21.4271 25.4278 21.573 25.0216 21.8125C24.6049 22.0469 23.7351 22.1459 23.2039 22.2448C22.2716 22.4219 21.1362 22.5625 20.2039 22.5469C19.9747 22.5417 19.7559 22.5 19.5476 22.3594C19.1414 22.0834 19.282 21.7136 19.6205 21.75ZM19.6205 23.6198C22.1882 23.875 25.2351 22.8542 25.308 23.073C25.3809 23.2969 25.4278 23.448 25.0216 23.6823C24.6049 23.9167 23.7351 24.0157 23.2039 24.1146C22.2716 24.2917 21.1362 24.4323 20.2039 24.4167C19.9747 24.4115 19.7559 24.3646 19.5476 24.2292C19.1414 23.9532 19.282 23.5886 19.6205 23.6198ZM19.6205 25.4896C22.1882 25.7396 25.2351 24.7292 25.308 24.948C25.3809 25.1667 25.4278 25.3125 25.0216 25.5469C24.6049 25.7917 23.7351 25.8802 23.2039 25.9844C22.2716 26.1615 21.1362 26.2969 20.2039 26.2865C19.9747 26.2813 19.7559 26.2344 19.5476 26.099C19.1414 25.823 19.282 25.4584 19.6205 25.4896ZM19.6205 27.3542C22.1882 27.6146 25.2351 26.5938 25.308 26.8125C25.3809 27.0365 25.4278 27.1823 25.0216 27.4167C24.6049 27.6563 23.7351 27.7552 23.2039 27.8542C22.2716 28.0261 21.1362 28.1719 20.2039 28.1563C19.9747 28.1511 19.7559 28.1042 19.5476 27.9688C19.1414 27.6927 19.282 27.3282 19.6205 27.3542ZM19.6205 29.2292C22.1882 29.4792 25.2351 28.4636 25.308 28.6823C25.3809 28.9011 25.4278 29.0521 25.0216 29.2917C24.6049 29.5261 23.7351 29.625 23.2039 29.724C22.2716 29.9011 21.1362 30.0365 20.2039 30.0209C19.9747 30.0209 19.7559 29.974 19.5476 29.8386C19.1414 29.5625 19.282 29.1927 19.6205 29.2292ZM19.6205 31.0938C22.1882 31.349 25.2351 30.3334 25.308 30.5521C25.3809 30.7761 25.4278 30.9167 25.0216 31.1615C24.6049 31.3959 23.7351 31.4948 23.2039 31.5938C22.2716 31.7657 21.1362 31.9063 20.2039 31.8959C19.9747 31.8907 19.7559 31.8438 19.5476 31.7032C19.1414 31.4323 19.282 31.0677 19.6205 31.0938ZM19.6205 32.9636C22.1882 33.224 25.2351 32.2032 25.308 32.4219C25.3809 32.6407 25.4278 32.7917 25.0216 33.0261C24.6049 33.2657 23.7351 33.3594 23.2039 33.4584C22.2716 33.6355 21.1362 33.7761 20.2039 33.7657C19.9747 33.7605 19.7559 33.7136 19.5476 33.573C19.1414 33.2969 19.282 32.9375 19.6205 32.9636ZM19.6205 34.8334C22.1882 35.0886 25.2351 34.0677 25.308 34.2917C25.3809 34.5105 25.4278 34.6615 25.0216 34.8959C24.6049 35.1355 23.7351 35.2344 23.2039 35.3334C22.2716 35.5052 21.1362 35.6459 20.2039 35.6302C19.9747 35.625 19.7559 35.5834 19.5476 35.448C19.1414 35.1719 19.282 34.8021 19.6205 34.8334ZM19.6205 36.7032C22.1882 36.9584 25.2351 35.9428 25.308 36.1615C25.3809 36.3803 25.4278 36.5261 25.0216 36.7709C24.6049 37.0052 23.7351 37.099 23.2039 37.198C22.2716 37.375 21.1362 37.5157 20.2039 37.5052C19.9747 37.5 19.7559 37.4532 19.5476 37.3125C19.1414 37.0365 19.282 36.6719 19.6205 36.7032ZM19.6205 38.573C22.1882 38.8282 25.2351 37.8073 25.308 38.0313C25.3809 38.25 25.4278 38.3959 25.0216 38.6355C24.6049 38.8698 23.7351 38.9688 23.2039 39.0677C22.2716 39.2396 21.1362 39.3855 20.2039 39.3698C19.9747 39.3646 19.7559 39.323 19.5476 39.1823C19.1414 38.9063 19.282 38.5417 19.6205 38.573ZM19.6205 40.4427C22.1882 40.698 25.2351 39.6771 25.308 39.9011C25.3809 40.1198 25.4278 40.2709 25.0216 40.5052C24.6049 40.7396 23.7351 40.8386 23.2039 40.9375C22.2716 41.1146 21.1362 41.2553 20.2039 41.2396C19.9747 41.2344 19.7559 41.1875 19.5476 41.0521C19.1414 40.7761 19.282 40.4115 19.6205 40.4427ZM19.6205 42.3073C22.1882 42.5677 25.2351 41.5469 25.308 41.7709C25.3809 41.9896 25.4278 42.1355 25.0216 42.3698C24.6049 42.6146 23.7351 42.7084 23.2039 42.8073C22.2716 42.9792 21.1362 43.125 20.2039 43.1094C19.9747 43.1094 19.7559 43.0625 19.5476 42.9219C19.1414 42.6459 19.282 42.2813 19.6205 42.3073ZM19.6205 44.1771C22.1882 44.4375 25.2351 43.4167 25.308 43.6355C25.3809 43.8594 25.4278 44.0052 25.0216 44.2396C24.6049 44.4792 23.7351 44.5782 23.2039 44.6771C22.2716 44.849 21.1362 44.9948 20.2039 44.9792C19.9747 44.974 19.7559 44.9323 19.5476 44.7917C19.1414 44.5157 19.282 44.1459 19.6205 44.1771ZM19.6205 18.0105C22.1882 18.2657 25.2351 17.2448 25.308 17.4688C25.3809 17.6875 25.4278 17.8386 25.0216 18.073C24.6049 18.3125 23.7351 18.4063 23.2039 18.5105C22.2716 18.6823 21.1362 18.8282 20.2039 18.8073C19.9747 18.8021 19.7559 18.7605 19.5476 18.625C19.1414 18.3438 19.282 17.9792 19.6205 18.0105Z" fill="#456776"/>
</svg>
