<svg width="48" height="42" viewBox="0 0 48 42" fill="none" xmlns="http://www.w3.org/2000/svg">
<path d="M16.9501 37.6777C16.9501 40.0299 18.8577 41.9375 21.2099 41.9375H37.4072C39.7594 41.9375 41.667 40.0299 41.667 37.6777C41.667 35.3255 39.7594 33.4178 37.4072 33.4178H21.2099C18.8577 33.4178 16.9501 35.3255 16.9501 37.6777Z" fill="#CEC1A7"/>
<path d="M2.91304 24.3169C2.91304 26.9076 5.01438 29.004 7.60753 29.004H18.7029C21.2961 29.004 23.3974 26.9076 23.3974 24.3169V13.3606C23.3974 10.7724 21.2961 8.67358 18.7029 8.67358H7.60753C5.01438 8.67358 2.91304 10.7724 2.91304 13.3606V24.3169ZM6.03028 5.76001H20.2827C23.6135 5.76001 26.3135 8.45996 26.3135 11.7883V25.8892C26.3135 29.2201 23.6135 31.92 20.2827 31.92H6.03028C2.69942 31.92 -0.000530243 29.2201 -0.000530243 25.8892V11.7883C-0.000530243 8.45996 2.69942 5.76001 6.03028 5.76001Z" fill="#CEC1A7"/>
<path d="M11.212 31.6469C11.212 34.9777 13.9119 37.6777 17.2428 37.6777H41.3735C44.7043 37.6777 47.4043 34.9777 47.4043 31.6469V6.03329C47.4043 2.70244 44.7043 0 41.3735 0H17.2428C13.9119 0 11.212 2.70244 11.212 6.03329V31.6469Z" fill="#ECE1CC"/>
</svg>
