<svg width="73" height="50" viewBox="0 0 73 50" fill="none" xmlns="http://www.w3.org/2000/svg">
<path d="M18.9805 47.6481C18.9805 47.6481 24.7799 50 35.752 50C46.7241 50 53.6202 47.0231 53.6202 47.0231L18.9805 47.6481Z" fill="#C2B19C"/>
<path d="M0.0150205 36.9898C-0.0638547 34.3259 12.3976 28.6833 37.0057 28.6833C61.6147 28.6833 71.9592 32.287 71.9592 35.8932C71.9592 39.4977 52.8367 43.729 36.379 43.729C19.9212 43.729 0.171074 42.3203 0.0150205 36.9898Z" fill="#C2B19C"/>
<path d="M24.9527 41.222L24.705 40.5808L27.4453 40.1253C27.4453 40.1253 19.4976 34.5362 16.6453 30.2134C14.7345 30.5348 12.9882 30.8936 11.4048 31.2778C12.7075 33.4422 15.7726 37.6675 20.7884 39.6385C18.1143 39.3374 14.5488 38.8048 12.0994 37.9304C9.65683 37.0577 7.40423 34.778 5.88609 32.9274C4.36796 33.4922 3.14328 34.0672 2.21289 34.6211C4.33828 36.3521 7.43476 38.586 10.3752 39.6538C15.5479 41.5341 24.9527 41.222 24.9527 41.222Z" fill="#E1B61D"/>
<path d="M25.579 41.8495C25.579 41.8495 8.15018 43.7358 0.409405 36.0586C0.139703 36.3953 0.00654818 36.7099 0.0150295 36.9898C0.136311 41.1176 12.0023 42.8936 24.9921 43.4864C25.9573 43.3558 26.8885 43.1802 27.7731 42.9453L25.579 41.8495Z" fill="#E1B61D"/>
<path d="M51.1279 36.3622C47.3665 37.9304 47.1943 39.1847 47.1943 39.1847C48.1349 39.6538 54.2634 39.1831 58.8085 35.2664C60.8762 33.4837 62.1636 31.9291 62.9549 30.7629C61.2731 30.3915 59.3428 30.0573 57.1521 29.7706C56.0894 31.5254 53.7698 35.2614 51.1279 36.3622Z" fill="#E1B61D"/>
<path d="M61.144 37.3046C55.9722 40.5961 46.4105 40.2815 46.4105 40.2815L46.0967 41.222C46.0967 41.222 52.6806 41.5367 58.4801 40.4384C63.7036 39.4503 69.9432 35.0299 71.1315 34.1614C70.3893 33.4058 69.1384 32.6764 67.3378 32.0098C66.4176 33.1513 64.5127 35.1597 61.144 37.3046Z" fill="#E1B61D"/>
<path d="M14.1221 3.60366C13.6786 5.02341 13.9652 30.5637 18.981 35.4225C23.9968 40.2814 24.3106 41.222 36.85 41.222C49.3895 41.222 50.643 36.8338 52.8371 34.1699C55.032 31.5034 57.6171 9.00108 57.0692 4.07521C56.7562 1.25267 44.8435 0 35.5957 0C26.8185 0 14.9058 1.09577 14.1221 3.60366Z" fill="#E6E4E3"/>
<path d="M35.4543 7.83577C50.9486 7.73145 55.6811 5.83336 57.1111 4.56797C57.1 4.38732 57.0865 4.22278 57.0695 4.07521C56.7565 1.25267 44.8439 0 35.596 0C26.8188 0 14.9061 1.09577 14.1225 3.60366C14.1064 3.6537 14.0919 3.73427 14.0784 3.84283C14.0572 4.75455 15.4014 7.96977 35.4543 7.83577Z" fill="#E1B61D"/>
<path d="M14.9062 3.75974C14.4007 4.56969 22.116 6.89524 36.2228 6.89524C50.3296 6.89524 55.8313 4.54425 55.6744 3.75974C55.5175 2.97608 50.9572 0.783691 36.2228 0.783691C21.4893 0.783691 15.6898 2.50707 14.9062 3.75974Z" fill="#E8E3DD"/>
<path d="M55.9729 20.689C56.4427 20.689 58.4808 20.5321 58.6368 18.3372C58.7937 16.1448 59.5774 10.3454 62.7129 10.5014C65.8475 10.6583 68.1985 14.7335 66.1605 17.8682C63.0097 22.7169 57.0695 28.8395 54.7185 28.3704C52.3675 27.8997 52.0537 35.2665 52.0537 35.2665C52.0537 35.2665 54.7185 36.8338 56.4427 33.0707C58.167 29.311 64.7738 24.7854 68.3554 19.5924C71.49 15.0457 69.6208 10.3259 66.6312 8.46256C60.8326 4.85042 56.2858 11.5981 56.2858 11.5981L55.9729 20.689Z" fill="#CEC9BD"/>
<path d="M58.6366 18.3372C58.7935 16.1448 59.5772 10.3454 62.7127 10.5014C64.425 10.5863 65.9041 11.8415 66.5606 13.4758C66.3451 11.1638 63.9297 9.34461 61.6678 9.8679C58.9512 10.493 57.9539 14.7488 57.7868 16.9828C57.6833 18.383 56.7945 18.9674 56.0235 19.2099L55.9727 20.6891C56.4425 20.6891 58.4805 20.5321 58.6366 18.3372Z" fill="#C2B19C"/>
<path d="M69.8184 13.1807C69.8405 14.7921 69.2391 16.468 68.1018 18.2592C63.3405 25.7498 57.2883 28.1508 55.4581 31.9809C54.4284 34.1368 53.0825 34.5736 52.1021 34.5431C52.0656 34.9883 52.0537 35.2665 52.0537 35.2665C52.0537 35.2665 54.7185 36.8338 56.4427 33.0707C58.167 29.311 64.7738 24.7855 68.3554 19.5924C69.882 17.378 70.2187 15.1262 69.8184 13.1807Z" fill="#C2B19C"/>
<path d="M24.4665 39.9693C24.4665 39.9693 24.3104 41.5366 24.9372 42.1643C25.5639 42.7893 31.2065 44.0445 35.7524 44.0445C40.2974 44.0445 45.4701 42.4764 46.2538 41.6927C47.0374 40.909 47.1944 39.1848 47.1944 39.1848L24.4665 39.9693Z" fill="#CDBEA0"/>
<path d="M38.4449 7.79004C37.4942 7.81379 36.4993 7.82905 35.4536 7.83584C33.8201 7.84601 32.3113 7.83584 30.917 7.80531C30.9908 12.9966 31.2062 28.5961 31.2062 32.7587C31.2062 36.163 32.0009 39.424 32.5115 41.1678C33.7735 41.2068 35.2051 41.222 36.8496 41.222C37.0192 41.222 37.1871 41.222 37.3534 41.2195C37.6697 39.7455 38.1302 37.4895 38.4169 35.5787C38.8147 32.9232 38.5382 13.8473 38.4449 7.79004Z" fill="#E6E4E3"/>
<path d="M15.6872 5.61619C14.2692 4.89783 14.0707 4.19644 14.0783 3.84277C13.7043 6.79338 14.142 30.7349 18.9813 35.4225C19.0169 35.4572 19.0509 35.492 19.0865 35.5242C18.0221 33.2835 17.386 30.5 16.7872 27.4281C15.6906 21.8093 15.6796 8.23688 15.6872 5.61619Z" fill="#E6E4E3"/>
<path d="M24.0254 7.43382C21.7694 7.21925 20.0206 6.93428 18.6661 6.61963C18.6627 9.73053 18.7213 22.9773 19.9222 28.6834C20.8899 33.2794 23.1646 37.8762 24.1526 39.7344C25.3595 40.3425 26.7869 40.7182 28.8716 40.9413C27.8894 39.3613 26.3713 36.5557 25.5647 33.2294C24.5165 28.9023 24.1255 12.8508 24.0254 7.43382Z" fill="#E6E4E3"/>
<path d="M57.1109 4.56799C56.7547 4.88265 56.1941 5.23631 55.3146 5.59252C55.2391 8.51514 55.0068 15.8539 54.4046 24.7642C54.0899 29.4281 53.09 32.8494 52.0078 35.275C52.286 34.8865 52.554 34.5125 52.8373 34.1699C54.9661 31.5857 57.4612 10.3411 57.1109 4.56799Z" fill="#E6E4E3"/>
<path d="M51.4578 6.65601C49.882 6.96048 47.9118 7.22933 45.448 7.43628C45.3946 12.7811 45.2453 25.6199 45.0011 31.9749C44.8247 36.5556 43.6093 39.3043 42.5771 40.8326C44.6109 40.518 46.1689 40.0295 47.3962 39.4434C48.2604 37.6454 49.4452 34.9645 50.3298 32.131C51.6215 27.9989 51.5299 12.3859 51.4578 6.65601Z" fill="#E6E4E3"/>
<path d="M18.6661 6.61954C17.321 6.30488 16.3651 5.9597 15.6875 5.61621C15.6799 8.2369 15.6909 21.8093 16.7875 27.4281C17.3863 30.5 18.0224 33.2835 19.0867 35.5243C21.1646 37.5411 22.4368 38.8726 24.1526 39.7343C23.1645 37.8761 20.8898 33.2793 19.9221 28.6833C18.7212 22.9772 18.6627 9.73044 18.6661 6.61954Z" fill="#F6CC01"/>
<path d="M30.9181 7.80519C28.2109 7.74667 25.9362 7.61352 24.0254 7.43372C24.1255 12.8507 24.5165 28.9021 25.5647 33.2292C26.3713 36.5556 27.8894 39.3611 28.8715 40.9412C29.9054 41.0523 31.1021 41.1235 32.5125 41.1676C32.0019 39.4239 31.2073 36.1629 31.2073 32.7585C31.2073 28.596 30.9918 12.9965 30.9181 7.80519Z" fill="#F6CC01"/>
<path d="M45.4471 7.43628C43.454 7.60336 41.137 7.72718 38.445 7.78994C38.5383 13.8472 38.8148 32.9231 38.4171 35.5786C38.1304 37.4894 37.6699 39.7454 37.3535 41.2194C39.3814 41.1999 41.1039 41.0608 42.5762 40.8327C43.6084 39.3043 44.8237 36.5556 45.0002 31.9749C45.2444 25.6199 45.3937 12.7811 45.4471 7.43628Z" fill="#F6CC01"/>
<path d="M55.3144 5.59253C54.4086 5.95976 53.1644 6.32615 51.4571 6.65607C51.5292 12.386 51.6208 27.999 50.3292 32.131C49.4446 34.9646 48.2597 37.6455 47.3955 39.4435C49.8763 38.2578 51.0102 36.6668 52.0076 35.275C53.0898 32.8494 54.0897 29.4281 54.4044 24.7643C55.0065 15.8539 55.2389 8.51515 55.3144 5.59253Z" fill="#F6CC01"/>
<path d="M71.9595 35.8933C71.9595 39.4978 52.837 43.7291 36.3792 43.7291C19.9215 43.7291 0.171336 42.3204 0.0152821 36.9899C0.0152821 36.9899 -1.23908 44.2006 18.9809 47.6482C39.2009 51.0967 51.7403 47.8068 56.1285 46.5516C60.5175 45.2973 72.9001 40.5961 71.9595 35.8933Z" fill="#E6E4E3"/>
<path d="M34.6054 0.789628C34.3942 0.792172 34.1872 0.793869 33.9803 0.798958C32.2679 0.820161 30.687 0.868503 29.2351 0.937201C29.2079 2.68093 28.8941 4.53068 27.1182 6.53903C29.7609 6.75869 32.8014 6.89524 36.2219 6.89524C49.8605 6.89524 55.4547 4.69776 55.6692 3.84286C55.4716 3.02442 50.8858 0.783691 36.2219 0.783691C35.8224 0.783691 35.4323 0.785388 35.0464 0.787932C34.898 0.787932 34.7512 0.789628 34.6054 0.789628Z" fill="#CEC9BD"/>
<path d="M64.8954 9.36405C67.0157 10.1842 68.4269 12.5861 68.0936 14.8395C67.9944 15.5104 69.0198 15.7996 69.1198 15.1236C69.5448 12.2519 67.8892 9.38526 65.1778 8.33698C64.5392 8.08933 64.2618 9.11895 64.8954 9.36405Z" fill="#E8E3DD"/>
</svg>
