<svg width="29" height="20" viewBox="0 0 29 20" fill="none" xmlns="http://www.w3.org/2000/svg">
<path d="M21.0452 9.85243C21.327 8.61916 21.5736 7.55502 21.5736 6.81505C21.5736 5.30928 22.628 4.08305 23.9242 4.08305C24.7883 4.08305 25.7065 4.47535 26.2114 5.06027C26.5824 5.49016 26.7162 5.99521 26.6247 6.59893C26.3828 8.18222 25.6032 8.70607 23.8631 9.74907C22.7571 10.4068 21.1979 11.2501 20.585 11.9337C20.1834 12.3801 19.8735 12.2015 19.6386 12.3801C19.7302 11.5132 20.8574 10.6699 21.0452 9.85243ZM19.5353 14.4896C20.8081 12.9368 22.2734 12.3942 24.5934 11.0082C26.3828 9.93935 27.6884 9.11951 28.0336 6.85029C28.4352 4.21695 26.0094 2.69238 23.9242 2.69238C21.8366 2.69238 20.1482 4.55287 20.1482 6.85029C20.1482 8.56513 18.5913 15.6406 19.5353 14.4896Z" fill="#2E7D78"/>
<path d="M8.4465 14.2825C8.82446 15.2143 9.1818 16.9231 9.1818 16.9231H18.8963C18.8963 16.9231 19.2514 15.2143 19.6339 14.2825C20.2295 12.8281 22.5453 9.54249 23.1477 8.09042C24.6916 4.40245 24.1327 0 24.1327 0H3.94543C3.94543 0 3.38651 4.40245 4.9281 8.09042C5.53283 9.54249 7.84865 12.8281 8.4465 14.2825Z" fill="#2E7D78"/>
<path d="M21.2679 20C25.7812 19.3369 28.8461 18.0356 28.8461 16.5385H0C0 18.0356 3.06727 19.3369 7.57822 20H21.2679Z" fill="#235255"/>
<path d="M18.0761 7.69118C18.0761 5.56748 16.3525 3.84619 14.2288 3.84619C12.1051 3.84619 10.3838 5.56748 10.3838 7.69118C10.3838 9.81488 12.1051 11.5385 14.2288 11.5385C16.3525 11.5385 18.0761 9.81488 18.0761 7.69118Z" fill="#FFFBFD"/>
</svg>
