<svg width="120" height="17" viewBox="0 0 120 17" fill="none" xmlns="http://www.w3.org/2000/svg">
<path d="M120 6.0763C120 6.0763 106.397 13.7774 87.1468 15.5741C67.8967 17.3701 56.8604 16.3426 56.8604 16.3426V0.942749C56.8604 0.942749 89.9702 1.45687 99.9799 2.48281C109.99 3.50876 120 6.0763 120 6.0763Z" fill="#A7A49F"/>
<path d="M56.8591 16.3426H55.0241C55.0241 16.3426 55.2769 9.5265 53.7622 8.51665C52.2474 7.50603 48.7129 6.6747 48.7129 6.6747V0.942749H56.8591V16.3426Z" fill="#B4BDBC"/>
<path d="M48.7129 6.67476C48.7129 6.67476 52.2474 7.50609 53.7622 8.51671C55.2769 9.52656 55.0241 16.3427 55.0241 16.3427H56.8591V5.05042H48.7129V6.67476Z" fill="#484144"/>
<path d="M48.7139 6.67474V0.942792C48.7139 0.942792 5.01362 -1.62475 1.67681 1.71436C-1.65999 5.0504 0.393425 8.64388 4.24359 10.6973C4.24359 10.6973 6.81036 7.10228 9.89049 7.35896C12.9699 7.6164 20.4135 8.89903 26.5738 8.89903C32.7332 8.89903 37.0968 6.84714 41.4603 6.33302C45.823 5.81966 48.7139 6.67474 48.7139 6.67474Z" fill="#F0544A"/>
<path d="M41.4612 5.61125C37.0977 6.06637 32.7341 7.88456 26.5746 7.88456C20.4144 7.88456 12.9707 6.74905 9.89138 6.52149C6.81125 6.29393 4.24447 9.4775 4.24447 9.4775C1.86695 8.35348 0.17671 6.70998 0.0158081 4.9209C-0.167314 7.18272 1.62023 9.29744 4.24447 10.6973C4.24447 10.6973 6.81125 7.10227 9.89138 7.35895C12.9707 7.61639 20.4144 8.89901 26.5746 8.89901C32.7341 8.89901 37.0977 6.84713 41.4612 6.33301C45.8239 5.81965 48.7148 6.67473 48.7148 6.67473V5.9139C48.7148 5.9139 45.8239 5.15612 41.4612 5.61125Z" fill="#B02D25"/>
<path d="M119.001 6.60428C119.003 6.60428 119.006 6.60198 119.008 6.60198C119.005 6.60198 119.004 6.60428 119.001 6.60428ZM119.01 6.60045C119.65 6.27251 119.991 6.08019 119.999 6.07636C119.999 6.07636 119.659 6.26868 119.01 6.60045ZM93.3621 2.01626C87.1812 1.6868 78.9698 1.43318 71.9023 1.25696C78.9706 1.43318 87.1804 1.6868 93.3621 2.01626Z" fill="#F5F8F9"/>
<path d="M95.404 14.4103C83.2245 11.0628 75.777 5.196 71.9023 1.25696C78.9698 1.43318 87.1812 1.6868 93.3621 2.01626C93.3751 2.01626 93.3866 2.01626 93.3997 2.0178C93.4134 2.0178 93.4272 2.0178 93.441 2.02009C96.076 2.15954 98.3378 2.31432 99.979 2.48288C109.966 3.50653 119.954 6.06487 119.999 6.07636C119.991 6.0802 119.65 6.27251 119.01 6.60045C119.009 6.60045 119.008 6.60045 119.008 6.60198C119.006 6.60198 119.003 6.60428 119.001 6.60428C118.999 6.60581 118.998 6.60811 118.995 6.60811H118.995C116.139 8.06542 107.402 12.1592 95.404 14.4103Z" fill="#C1C3C1"/>
<path d="M87.1468 14.5459C67.8967 16.3427 56.8604 15.3167 56.8604 15.3167V16.3427C56.8604 16.3427 67.8967 17.3702 87.1468 15.5742C106.397 13.7774 120 6.07635 120 6.07635C120 6.07635 119.519 5.95299 118.663 5.74841C114.794 7.68843 102.849 13.081 87.1468 14.5459Z" fill="#69827F"/>
<path d="M40.4785 3.39461C40.4785 2.8146 40.949 2.34338 41.529 2.34338C42.109 2.34338 42.5794 2.8146 42.5794 3.39461C42.5794 3.97386 42.109 4.44431 41.529 4.44431C40.949 4.44431 40.4785 3.97386 40.4785 3.39461Z" fill="#F2F0ED"/>
<path d="M24.1133 3.39461C24.1133 2.8146 24.5837 2.34338 25.1637 2.34338C25.7438 2.34338 26.2142 2.8146 26.2142 3.39461C26.2142 3.97386 25.7438 4.44431 25.1637 4.44431C24.5837 4.44431 24.1133 3.97386 24.1133 3.39461Z" fill="#F2F0ED"/>
<path d="M7.68164 3.39461C7.68164 2.8146 8.15209 2.34338 8.7321 2.34338C9.31212 2.34338 9.78256 2.8146 9.78256 3.39461C9.78256 3.97386 9.31212 4.44431 8.7321 4.44431C8.15209 4.44431 7.68164 3.97386 7.68164 3.39461Z" fill="#F2F0ED"/>
</svg>
