<svg width="73" height="20" viewBox="0 0 73 20" fill="none" xmlns="http://www.w3.org/2000/svg">
<path d="M32.6559 2.90662H30.8061V9.07281L32.8613 10.1007L32.6559 2.90662Z" fill="#E6EEF1"/>
<path d="M30.8018 8.04016H32.8023L32.8613 10.1006L30.8018 9.09085V8.04016Z" fill="#484144"/>
<path d="M66.4576 5.84374C67.4212 5.84374 68.2022 5.06321 68.2022 4.09861C68.2022 3.13544 67.4212 2.35539 66.4576 2.35539C65.4939 2.35539 64.7129 3.13544 64.7129 4.09861C64.7129 5.06321 65.4939 5.84374 66.4576 5.84374ZM46.3528 2.91902C52.0248 2.77395 61.4553 1.71851 64.5194 0.997439C67.8146 0.223097 69.5588 1.57962 69.5588 3.71144C69.5588 5.27392 70.8083 12.5626 71.4756 16.3444C68.6555 16.627 60.5558 17.4089 57.5365 17.4089C54.8168 17.4089 49.1372 7.89565 46.3528 2.91902Z" fill="#ACA29B"/>
<path d="M67.1891 5.37252C68.2108 5.37252 69.0389 4.54443 69.0389 3.52323C69.0389 2.50156 68.2108 1.67347 67.1891 1.67347C66.1674 1.67347 65.3389 2.50156 65.3389 3.52323C65.3389 4.54443 66.1674 5.37252 67.1891 5.37252ZM44.5781 2.28942C50.3334 2.28942 61.6388 1.05609 65.1334 0.23418C68.6279 -0.587726 70.4777 0.850134 70.4777 3.11133C70.4777 5.37252 72.9443 18.9397 72.9443 18.9397C72.9443 18.9397 63.2812 19.7858 55.6777 19.9671C47.0448 20.173 32.6557 19.3511 32.6557 19.3511V2.9068L44.5781 2.28942Z" fill="#B4BDBC"/>
<path d="M30.801 9.09087C30.185 8.67944 28.9517 8.47254 26.0741 8.46873C23.1965 8.4654 9.21834 8.65518 6.13525 8.65043C4.27359 8.649 0.790955 8.64424 0.790955 8.64424C0.790955 8.64424 -0.849051 4.73686 0.592613 2.27209L30.8086 2.92372L30.801 9.09087Z" fill="#F0544A"/>
<path d="M5.65567 7.96464C8.92665 7.96844 23.7557 7.78104 26.8088 7.78485C28.7566 7.78723 29.9932 7.87236 30.8037 8.04027L30.8023 9.09095C30.1863 8.67953 28.953 8.47262 26.0754 8.46882C23.1978 8.46549 9.21964 8.65527 6.13654 8.65051C4.27489 8.64909 0.792254 8.64433 0.792254 8.64433C0.792254 8.64433 0.683332 8.3851 0.546824 7.95893C1.65554 7.96131 4.15313 7.96369 5.65567 7.96464Z" fill="#B02D25"/>
<path d="M51.3403 18.6203C62.1173 18.6993 70.3878 17.8303 72.7117 17.6448C72.8554 18.451 72.9443 18.9395 72.9443 18.9395C72.9443 18.9395 63.2812 19.7856 55.6777 19.9668C47.0448 20.1728 32.6557 19.3509 32.6557 19.3509V18.1028C34.4194 18.2075 40.8106 18.5437 51.3403 18.6203Z" fill="#69827F"/>
<path d="M70.9076 6.84354C70.9071 6.84212 70.9071 6.83974 70.9066 6.83831C70.9066 6.83974 70.9071 6.84212 70.9076 6.84354ZM70.8933 6.74984C70.8933 6.74699 70.8928 6.74604 70.8928 6.74461C70.8928 6.74604 70.8933 6.74842 70.8933 6.74984ZM70.85 6.45114C70.8486 6.43925 70.8467 6.42831 70.8448 6.41594C70.8467 6.42831 70.8486 6.4402 70.85 6.45114ZM70.832 6.32605C70.831 6.32082 70.8305 6.31511 70.8296 6.3113C70.8305 6.31511 70.831 6.31986 70.832 6.32605ZM70.8006 6.10535C70.8001 6.10297 70.7996 6.09964 70.7991 6.09679C70.7996 6.10059 70.8001 6.10297 70.8006 6.10535ZM70.7911 6.03971C70.7863 6.00547 70.7815 5.97265 70.7773 5.93888C70.7815 5.9717 70.7863 6.00547 70.7911 6.03971ZM70.753 5.76717V5.76574C70.753 5.76574 70.753 5.76574 70.753 5.76717ZM70.7511 5.751C70.7506 5.751 70.7506 5.74862 70.7506 5.74767C70.7506 5.74862 70.7506 5.75005 70.7511 5.751ZM70.714 5.48084C70.714 5.47941 70.7135 5.47703 70.7135 5.47465C70.7135 5.47703 70.714 5.47846 70.714 5.48084ZM70.6631 5.09224C70.6626 5.09129 70.6626 5.08986 70.6626 5.08748C70.6626 5.08891 70.6626 5.09129 70.6631 5.09224ZM70.617 4.72599V4.72457C70.617 4.72599 70.617 4.72599 70.617 4.72599ZM70.6117 4.68224C70.6117 4.68224 70.6117 4.68224 70.6117 4.68081V4.68224ZM70.6103 4.66987C70.6103 4.66892 70.6098 4.66606 70.6094 4.66511C70.6098 4.66749 70.6103 4.66892 70.6103 4.66987ZM70.5623 4.25464C70.5623 4.25368 70.5618 4.25083 70.5618 4.24988C70.5623 4.25226 70.5623 4.25368 70.5623 4.25464ZM70.5551 4.189C70.5551 4.18757 70.5551 4.18757 70.5551 4.18757V4.189ZM70.5537 4.17663C70.5537 4.17568 70.5537 4.17568 70.5537 4.17425C70.5537 4.17425 70.5537 4.17568 70.5537 4.17663ZM70.5409 4.05154C70.5409 4.05011 70.5404 4.04868 70.5404 4.04773C70.5404 4.04773 70.5409 4.05011 70.5409 4.05154ZM70.5266 3.90789C70.5266 3.90647 70.5266 3.90647 70.5266 3.90504C70.5266 3.90504 70.5266 3.90647 70.5266 3.90789ZM70.5214 3.84939C70.5214 3.84939 70.5209 3.84796 70.5209 3.84701C70.5209 3.84796 70.5214 3.84796 70.5214 3.84939ZM70.5204 3.84083C70.5204 3.83845 70.5199 3.83465 70.5199 3.83322C70.5199 3.8356 70.5204 3.83845 70.5204 3.84083ZM70.5152 3.78232C70.5152 3.78232 70.5152 3.7809 70.5152 3.77995C70.5152 3.7809 70.5152 3.7809 70.5152 3.78232ZM70.5133 3.75902C70.5128 3.75807 70.5128 3.75807 70.5128 3.75664C70.5128 3.75807 70.5133 3.75902 70.5133 3.75902ZM70.509 3.7105C70.5085 3.7067 70.5085 3.70289 70.5081 3.70051C70.5085 3.70432 70.5085 3.7067 70.509 3.7105ZM70.5019 3.62156C70.5019 3.62013 70.5014 3.62013 70.5014 3.61918C70.5014 3.61918 70.5019 3.62013 70.5019 3.62156ZM70.5 3.60063V3.59968C70.5 3.60063 70.5 3.60063 70.5 3.60063Z" fill="#F5F8F9"/>
<path d="M70.4894 3.42787C70.4894 3.42645 70.4889 3.42645 70.4889 3.42549C70.4889 3.42645 70.4894 3.42787 70.4894 3.42787ZM70.4808 3.25854C70.4808 3.25712 70.4808 3.25712 70.4808 3.25617C70.4808 3.25617 70.4808 3.25712 70.4808 3.25854ZM70.4789 3.18197C70.4789 3.18197 70.4789 3.18054 70.4789 3.17959C70.4789 3.18054 70.4789 3.18054 70.4789 3.18197ZM45.8684 2.27207C50.1211 2.16267 56.3667 1.57193 60.8092 0.964533C56.3662 1.57193 50.1211 2.16267 45.8684 2.27112M60.921 0.948837C60.9267 0.94741 60.9319 0.94741 60.9371 0.946459C60.9314 0.94741 60.9267 0.94741 60.921 0.948837ZM65.0395 0.255829H65.04C65.04 0.255829 65.04 0.255829 65.0395 0.255829ZM65.0609 0.251073H65.0614C65.0609 0.251073 65.0609 0.251073 65.0609 0.251073Z" fill="#F5F8F9"/>
<path d="M57.7283 17.6377C60.9303 17.6377 69.5204 16.8086 72.5107 16.5104C72.105 14.2102 71.4962 10.6862 71.0505 7.78718C71.0501 7.78575 71.0501 7.7848 71.0501 7.78337C71.0006 7.46184 70.953 7.14792 70.9083 6.84351C70.9078 6.84208 70.9074 6.8397 70.9074 6.83828C70.904 6.81545 70.9007 6.79119 70.8969 6.76931C70.8964 6.76408 70.8959 6.76075 70.8955 6.75551C70.895 6.75314 70.8945 6.75076 70.894 6.74981C70.894 6.74838 70.8936 6.746 70.8936 6.74457C70.8931 6.73982 70.8921 6.73506 70.8917 6.73031C70.8912 6.72745 70.8907 6.72507 70.8902 6.7227C70.885 6.6875 70.8802 6.65325 70.875 6.61805C70.8745 6.61568 70.8741 6.61187 70.8736 6.60949C70.8707 6.58761 70.8674 6.56716 70.8646 6.54481C70.8636 6.54005 70.8626 6.53387 70.8622 6.52911C70.8607 6.52198 70.8598 6.51437 70.8588 6.50628C70.8569 6.49534 70.8555 6.48297 70.8536 6.47061C70.8531 6.46965 70.8531 6.46728 70.8527 6.46585C70.8522 6.46204 70.8522 6.45967 70.8517 6.45634C70.8512 6.45491 70.8512 6.45348 70.8508 6.4511C70.8493 6.44017 70.8474 6.42827 70.8455 6.41591C70.8455 6.41496 70.8451 6.4121 70.8451 6.41115C70.8431 6.39783 70.8412 6.38547 70.8393 6.37215C70.8374 6.35978 70.836 6.34884 70.8346 6.3379C70.8341 6.33695 70.8341 6.33552 70.8341 6.33457C70.8336 6.33172 70.8332 6.32839 70.8327 6.32601C70.8317 6.31983 70.8313 6.31507 70.8303 6.31127C70.8303 6.30746 70.8298 6.30508 70.8294 6.30128C70.8279 6.29414 70.827 6.28701 70.826 6.2794C70.8255 6.27702 70.8255 6.27464 70.8251 6.27226C70.8241 6.26751 70.8232 6.26132 70.8227 6.25657C70.8222 6.25419 70.8217 6.25181 70.8217 6.24896C70.8194 6.23469 70.8175 6.21994 70.8156 6.20425C70.8108 6.17143 70.806 6.13813 70.8013 6.10531C70.8008 6.10294 70.8003 6.10056 70.7999 6.09675C70.7994 6.09342 70.7989 6.08819 70.798 6.08344C70.798 6.08344 70.798 6.08248 70.798 6.08106C70.797 6.0763 70.7961 6.07012 70.7956 6.06536C70.7951 6.06298 70.7946 6.05918 70.7946 6.0568C70.7942 6.05537 70.7942 6.05442 70.7937 6.05299C70.7932 6.04966 70.7927 6.04586 70.7923 6.04205C70.7923 6.0411 70.7918 6.03968 70.7918 6.03968C70.787 6.00543 70.7823 5.97166 70.778 5.93884C70.7775 5.93741 70.777 5.93504 70.777 5.93266C70.7737 5.91078 70.7709 5.88985 70.768 5.86797C70.767 5.86417 70.7666 5.85941 70.7661 5.85608C70.7661 5.85323 70.7656 5.85085 70.7651 5.84847C70.7642 5.84133 70.7632 5.83372 70.7623 5.82659C70.7613 5.82041 70.7604 5.81565 70.7599 5.80947C70.7599 5.80947 70.7599 5.80852 70.7594 5.80852C70.759 5.80471 70.7585 5.80091 70.758 5.79758C70.7566 5.78759 70.7552 5.77665 70.7537 5.76713C70.7537 5.76571 70.7537 5.76571 70.7537 5.76571C70.7533 5.76095 70.7523 5.75619 70.7518 5.75096C70.7513 5.75001 70.7513 5.74858 70.7513 5.74763C70.7499 5.73765 70.7485 5.72671 70.7471 5.71719C70.7466 5.71577 70.7466 5.71481 70.7466 5.71339C70.7452 5.70245 70.7437 5.69246 70.7423 5.68152C70.7418 5.67914 70.7414 5.67676 70.7414 5.67438C70.7409 5.67201 70.7404 5.6682 70.7399 5.66487C70.7399 5.66487 70.7395 5.66345 70.7395 5.66202C70.739 5.65726 70.738 5.65108 70.7371 5.64632C70.7361 5.63681 70.7347 5.62682 70.7333 5.61731C70.7333 5.61493 70.7328 5.61255 70.7323 5.6097C70.7318 5.60494 70.7309 5.60018 70.7304 5.59543C70.7295 5.5902 70.729 5.58544 70.7285 5.58068C70.728 5.57831 70.728 5.57688 70.7276 5.5745C70.7271 5.57212 70.7266 5.56832 70.7261 5.56499C70.7261 5.56356 70.7257 5.56261 70.7257 5.56118C70.7252 5.55738 70.7247 5.55405 70.7242 5.55024C70.7238 5.54786 70.7233 5.54406 70.7233 5.54168C70.7204 5.52123 70.7176 5.50173 70.7147 5.4808C70.7147 5.47842 70.7142 5.47699 70.7142 5.47462C70.7114 5.45511 70.709 5.43704 70.7066 5.41754C70.7057 5.41373 70.7052 5.40898 70.7047 5.40517C70.7038 5.39661 70.7024 5.38805 70.7014 5.37996C70.7014 5.37996 70.7014 5.37996 70.7009 5.37854C70.6971 5.34667 70.6928 5.31385 70.6886 5.28246C70.6886 5.28246 70.6886 5.28103 70.6881 5.28103C70.68 5.21682 70.6719 5.15451 70.6638 5.0922C70.6634 5.09125 70.6634 5.08887 70.6634 5.08745C70.661 5.0727 70.6596 5.05938 70.6576 5.04511C70.6576 5.04369 70.6572 5.04226 70.6572 5.04131C70.6567 5.03893 70.6562 5.03512 70.6557 5.03275C70.6557 5.03037 70.6553 5.02799 70.6553 5.02561C70.6538 5.01705 70.6529 5.00849 70.6519 4.9985C70.6515 4.99755 70.6515 4.99612 70.6515 4.99517C70.6481 4.96949 70.6448 4.94523 70.642 4.9205C70.642 4.91954 70.642 4.91954 70.6415 4.91954C70.6415 4.91574 70.641 4.91336 70.6405 4.91098C70.64 4.90718 70.6396 4.9048 70.6396 4.90099C70.6372 4.88292 70.6348 4.86342 70.6324 4.84392C70.631 4.8344 70.6296 4.82442 70.6286 4.8149C70.6272 4.80491 70.6263 4.79398 70.6248 4.78446C70.6239 4.77447 70.6225 4.76496 70.6215 4.75497C70.6201 4.74546 70.6186 4.73547 70.6177 4.72596C70.6177 4.72596 70.6177 4.72596 70.6177 4.72453C70.6167 4.71597 70.6153 4.70646 70.6144 4.69647H70.6139C70.6134 4.69171 70.6129 4.68696 70.6125 4.6822V4.68077C70.612 4.67697 70.6115 4.67364 70.611 4.66983C70.611 4.66888 70.6106 4.66746 70.6101 4.66508C70.6091 4.65652 70.6082 4.64795 70.6072 4.63939C70.6072 4.63844 70.6072 4.63844 70.6072 4.63701C70.6049 4.61894 70.6025 4.60039 70.6006 4.58232C70.6001 4.58089 70.6001 4.58089 70.6001 4.58089C70.5996 4.57613 70.5991 4.57138 70.5987 4.56614C70.5982 4.56281 70.5977 4.55901 70.5972 4.5552C70.5972 4.55283 70.5968 4.55187 70.5968 4.5495C70.5958 4.54189 70.5949 4.53475 70.5939 4.52762C70.5934 4.52381 70.5934 4.52143 70.593 4.51906C70.593 4.51763 70.5925 4.51525 70.5925 4.51382C70.592 4.51145 70.592 4.50907 70.5915 4.50669C70.5915 4.50526 70.5915 4.50526 70.5915 4.50431C70.5906 4.49955 70.5901 4.49432 70.5896 4.48957C70.5892 4.48719 70.5892 4.48624 70.5892 4.48481C70.5887 4.48243 70.5887 4.48005 70.5882 4.47863C70.5882 4.47625 70.5877 4.47482 70.5877 4.47244C70.5873 4.47006 70.5873 4.46769 70.5868 4.46531C70.5868 4.46293 70.5863 4.4615 70.5863 4.45912C70.583 4.43249 70.5801 4.4068 70.5773 4.38017C70.5768 4.37779 70.5768 4.37541 70.5763 4.37256C70.5763 4.37256 70.5763 4.37161 70.5758 4.37161C70.5758 4.36923 70.5754 4.36542 70.5754 4.36305C70.5749 4.36067 70.5744 4.35829 70.5744 4.35686C70.5739 4.35306 70.5739 4.35068 70.5735 4.3483C70.5735 4.34735 70.5735 4.34592 70.573 4.34497C70.5725 4.34117 70.5725 4.33879 70.572 4.33403C70.5716 4.3326 70.5716 4.33023 70.5711 4.32785C70.5711 4.32642 70.5706 4.32404 70.5706 4.32166C70.5706 4.32024 70.5701 4.31929 70.5701 4.31786C70.5687 4.30597 70.5673 4.29503 70.5663 4.28409C70.5659 4.28124 70.5659 4.27886 70.5659 4.27791C70.5654 4.27553 70.5654 4.27553 70.5654 4.2741C70.5649 4.26934 70.5644 4.26554 70.5639 4.26173C70.5635 4.25936 70.5635 4.25698 70.563 4.2546C70.563 4.25365 70.563 4.25222 70.5625 4.24984C70.5625 4.24746 70.562 4.24509 70.562 4.24271C70.5616 4.24128 70.5616 4.23985 70.5616 4.2389C70.5611 4.23748 70.5611 4.2351 70.5606 4.23415C70.5606 4.23034 70.5601 4.22654 70.5597 4.22321C70.5592 4.22035 70.5592 4.21798 70.5587 4.21465C70.5587 4.21465 70.5587 4.21322 70.5582 4.21227C70.5578 4.20466 70.5568 4.1961 70.5559 4.18896V4.18753C70.5554 4.1842 70.5549 4.1804 70.5544 4.17659C70.5544 4.17564 70.5544 4.17422 70.5544 4.17422C70.5525 4.15709 70.5511 4.1414 70.5492 4.12427C70.5487 4.11952 70.5483 4.11571 70.5478 4.11238C70.5473 4.10715 70.5468 4.10382 70.5468 4.10002L70.5463 4.09859C70.5459 4.09146 70.5449 4.08289 70.544 4.07433C70.5435 4.071 70.543 4.06577 70.5425 4.06244C70.5425 4.05864 70.5421 4.05483 70.5416 4.0515C70.5416 4.05007 70.5411 4.0477 70.5411 4.0477C70.5411 4.04532 70.5406 4.04151 70.5406 4.04056C70.5402 4.03771 70.5402 4.03771 70.5402 4.03676C70.5402 4.03438 70.5397 4.032 70.5392 4.02962C70.5392 4.02677 70.5387 4.02439 70.5387 4.02201C70.5383 4.01821 70.5383 4.01583 70.5378 4.01345V4.0125C70.5364 4.00013 70.5354 3.98777 70.534 3.97683C70.5335 3.96969 70.5326 3.96113 70.5321 3.954C70.5316 3.95257 70.5316 3.95257 70.5316 3.95162C70.5307 3.94068 70.5297 3.92974 70.5283 3.9188C70.5283 3.91737 70.5283 3.91594 70.5283 3.91499C70.5278 3.91261 70.5278 3.91024 70.5273 3.90786C70.5273 3.90643 70.5273 3.905 70.5273 3.905C70.5264 3.89787 70.5259 3.89169 70.5254 3.8855C70.5254 3.88312 70.5249 3.88217 70.5249 3.8798C70.5245 3.87742 70.5245 3.87599 70.524 3.87361C70.524 3.87218 70.524 3.87123 70.524 3.86981C70.523 3.86362 70.5226 3.85649 70.5221 3.84935C70.5221 3.84793 70.5216 3.84793 70.5216 3.84698C70.5216 3.84412 70.5216 3.84317 70.5211 3.84079C70.5211 3.83841 70.5207 3.83556 70.5207 3.83318C70.5202 3.8308 70.5202 3.82843 70.5197 3.82605C70.5197 3.82462 70.5197 3.82224 70.5192 3.82129C70.5192 3.81986 70.5192 3.81891 70.5192 3.81891C70.5188 3.81654 70.5188 3.81368 70.5183 3.8113C70.5183 3.81035 70.5183 3.80892 70.5183 3.80797C70.5178 3.80512 70.5178 3.80179 70.5173 3.79941C70.5173 3.79703 70.5169 3.79561 70.5169 3.79323C70.5169 3.7918 70.5169 3.79085 70.5164 3.78942C70.5164 3.78705 70.5159 3.78467 70.5159 3.78229C70.5159 3.78086 70.5159 3.78086 70.5159 3.77991C70.5154 3.77753 70.5154 3.77373 70.515 3.77135C70.515 3.76992 70.515 3.76897 70.5145 3.76754C70.5145 3.76517 70.514 3.76279 70.514 3.75898C70.514 3.75898 70.5135 3.75803 70.5135 3.7566C70.5135 3.75565 70.5135 3.75423 70.5131 3.75185C70.5131 3.74804 70.5126 3.74329 70.5121 3.73948C70.5121 3.73948 70.5121 3.73853 70.5121 3.7371C70.5121 3.7371 70.5116 3.73615 70.5116 3.73473C70.5116 3.73235 70.5112 3.72997 70.5112 3.72759C70.5112 3.72616 70.5112 3.72521 70.5107 3.72521C70.5107 3.72141 70.5107 3.71998 70.5102 3.7176C70.5102 3.71665 70.5102 3.71522 70.5102 3.7138C70.5097 3.71285 70.5097 3.71142 70.5097 3.71047C70.5092 3.70666 70.5092 3.70428 70.5088 3.70048C70.5088 3.69953 70.5088 3.6981 70.5083 3.69572C70.5083 3.69477 70.5083 3.69334 70.5083 3.69097C70.5078 3.68954 70.5078 3.68859 70.5078 3.68859C70.5073 3.68478 70.5073 3.6824 70.5069 3.6786C70.5069 3.67765 70.5069 3.67622 70.5069 3.67527C70.5064 3.67242 70.5064 3.67146 70.5064 3.66909C70.5064 3.66766 70.5059 3.66671 70.5059 3.66528C70.5054 3.6591 70.505 3.65291 70.5045 3.64721C70.5045 3.64578 70.5045 3.64483 70.5045 3.6434C70.504 3.64198 70.504 3.64102 70.504 3.63865C70.5035 3.63722 70.5035 3.63484 70.5035 3.63389C70.5031 3.63246 70.5031 3.63104 70.5031 3.62866C70.5031 3.62628 70.5026 3.6239 70.5026 3.62152C70.5026 3.6201 70.5021 3.61914 70.5021 3.61914C70.5021 3.61534 70.5016 3.61296 70.5016 3.61058C70.5012 3.60678 70.5012 3.6044 70.5007 3.60059C70.5007 3.60059 70.5007 3.60059 70.5007 3.59964C70.5007 3.59727 70.5002 3.59346 70.5002 3.58965C70.4997 3.58728 70.4997 3.58395 70.4997 3.58252C70.4993 3.58109 70.4993 3.58014 70.4993 3.57872C70.4988 3.57301 70.4983 3.56682 70.4978 3.56064V3.55921C70.4974 3.55351 70.4969 3.54732 70.4964 3.54114C70.4964 3.53971 70.4964 3.53876 70.4964 3.53733C70.4959 3.53638 70.4959 3.534 70.4959 3.53115C70.4959 3.53115 70.4959 3.5302 70.4955 3.52877C70.4955 3.52639 70.4955 3.52402 70.495 3.52164V3.52021C70.495 3.51783 70.4945 3.5145 70.4945 3.51213C70.4945 3.5107 70.4945 3.50927 70.4945 3.50832C70.494 3.50689 70.494 3.50452 70.494 3.50356C70.4936 3.50214 70.4936 3.50071 70.4936 3.49976C70.4931 3.49358 70.4931 3.48882 70.4926 3.48264C70.4926 3.48264 70.4926 3.48264 70.4926 3.48168C70.4921 3.47883 70.4921 3.47645 70.4921 3.47407C70.4917 3.47312 70.4917 3.47312 70.4917 3.47312C70.4917 3.46694 70.4912 3.46076 70.4907 3.45457C70.4907 3.45457 70.4907 3.45457 70.4907 3.45362C70.4907 3.45124 70.4902 3.44839 70.4902 3.44601V3.44506C70.4897 3.43888 70.4893 3.43412 70.4893 3.42794C70.4893 3.42794 70.4888 3.42651 70.4888 3.42556C70.4888 3.42318 70.4888 3.42175 70.4883 3.41938C70.4883 3.41938 70.4883 3.41795 70.4883 3.417C70.4883 3.41462 70.4878 3.41224 70.4878 3.40844C70.4878 3.40606 70.4878 3.40368 70.4874 3.4013C70.4874 3.39987 70.4874 3.39987 70.4874 3.39845C70.4874 3.39607 70.4869 3.39512 70.4869 3.39274C70.4869 3.39131 70.4869 3.39131 70.4869 3.39036C70.4869 3.38751 70.4864 3.38513 70.4864 3.38275V3.3818C70.4864 3.37895 70.4864 3.37657 70.4859 3.37419C70.4859 3.37419 70.4859 3.37324 70.4859 3.37181C70.4859 3.37086 70.4859 3.36943 70.4855 3.36706C70.4855 3.36468 70.4855 3.36325 70.4855 3.36087C70.4855 3.35992 70.4855 3.35849 70.485 3.35849C70.485 3.35612 70.485 3.35469 70.485 3.35231C70.485 3.35231 70.485 3.35136 70.485 3.34993C70.485 3.34851 70.4845 3.34755 70.4845 3.34613C70.4845 3.34375 70.4845 3.3428 70.4845 3.34042C70.4845 3.33899 70.484 3.33757 70.484 3.33757C70.484 3.33519 70.484 3.33281 70.484 3.33186C70.484 3.33043 70.484 3.33043 70.484 3.32948C70.4836 3.32805 70.4836 3.32567 70.4836 3.32425C70.4836 3.3233 70.4836 3.32187 70.4836 3.32092C70.4831 3.31806 70.4831 3.31711 70.4831 3.31473C70.4831 3.31331 70.4831 3.31236 70.4831 3.31236C70.4831 3.30998 70.4826 3.30855 70.4826 3.30712C70.4826 3.30617 70.4826 3.30475 70.4826 3.3038C70.4826 3.30237 70.4826 3.30142 70.4826 3.29999C70.4826 3.29904 70.4821 3.29761 70.4821 3.29619C70.4821 3.29381 70.4821 3.29143 70.4821 3.29048C70.4821 3.28905 70.4821 3.28762 70.4821 3.28762C70.4817 3.28525 70.4817 3.28429 70.4817 3.28192C70.4817 3.28192 70.4817 3.28049 70.4817 3.27954C70.4817 3.27811 70.4817 3.27573 70.4817 3.27431C70.4812 3.27335 70.4812 3.27193 70.4812 3.27098C70.4812 3.26955 70.4812 3.26717 70.4812 3.26574C70.4812 3.26479 70.4812 3.26479 70.4812 3.26337C70.4812 3.26241 70.4807 3.26004 70.4807 3.25861C70.4807 3.25718 70.4807 3.25623 70.4807 3.25623C70.4807 3.25385 70.4807 3.25147 70.4807 3.2491C70.4807 3.2491 70.4807 3.2491 70.4807 3.24767C70.4802 3.24624 70.4802 3.24386 70.4802 3.24291C70.4802 3.24149 70.4802 3.24054 70.4802 3.24054C70.4802 3.23816 70.4802 3.23673 70.4802 3.23435V3.23292C70.4798 3.23055 70.4798 3.22817 70.4798 3.22674C70.4798 3.22579 70.4798 3.22436 70.4798 3.22341C70.4798 3.22199 70.4798 3.22103 70.4798 3.21961C70.4798 3.21866 70.4798 3.21866 70.4798 3.21723C70.4798 3.2158 70.4793 3.21342 70.4793 3.21247C70.4793 3.21247 70.4793 3.21105 70.4793 3.21009C70.4793 3.20867 70.4793 3.20629 70.4793 3.20391C70.4793 3.20391 70.4793 3.20248 70.4793 3.20153C70.4793 3.20011 70.4793 3.19915 70.4793 3.19773C70.4793 3.1963 70.4793 3.19535 70.4793 3.19535C70.4788 3.19297 70.4788 3.19059 70.4788 3.18821C70.4788 3.18679 70.4788 3.18441 70.4788 3.18203C70.4788 3.1806 70.4788 3.1806 70.4788 3.17965C70.4788 3.17823 70.4783 3.17585 70.4783 3.17442V3.17347C70.4783 3.17109 70.4783 3.16966 70.4783 3.16729C70.4783 3.16586 70.4783 3.16586 70.4783 3.16491C70.4783 3.16348 70.4783 3.16253 70.4783 3.16015V3.15873C70.4783 3.15777 70.4783 3.15492 70.4783 3.15254C70.4783 3.15016 70.4783 3.14779 70.4783 3.14541C70.4783 3.14303 70.4783 3.1416 70.4779 3.13922V3.13827C70.4779 3.13304 70.4779 3.12971 70.4779 3.12591C70.4779 3.12448 70.4779 3.12448 70.4779 3.12353C70.4779 3.1221 70.4779 3.12115 70.4779 3.11877C70.4779 3.11877 70.4779 3.11877 70.4779 3.11734C70.4779 3.11639 70.4779 3.11354 70.4779 3.11116C70.4779 1.28851 69.2759 0 66.9781 0C66.4264 0 65.8104 0.0746754 65.1336 0.234015C65.1302 0.235442 65.1269 0.235442 65.1236 0.236393H65.1231C65.1198 0.23782 65.1169 0.23782 65.1131 0.238771C65.1126 0.238771 65.1122 0.238771 65.1112 0.238771C65.1088 0.240198 65.1065 0.240198 65.1041 0.241149C65.1026 0.241149 65.1012 0.241149 65.1003 0.241149C65.0979 0.242576 65.0955 0.242576 65.0931 0.243528C65.0922 0.243528 65.0912 0.243528 65.0898 0.243528C65.0879 0.244955 65.0855 0.244955 65.0831 0.246382C65.0822 0.246382 65.0812 0.246382 65.0803 0.246382C65.0774 0.247333 65.0751 0.247333 65.0722 0.24876C65.0717 0.24876 65.0713 0.24876 65.0703 0.24876C65.0675 0.249711 65.0641 0.249711 65.0613 0.251138H65.0608C65.0575 0.251138 65.0541 0.252089 65.0513 0.253516C65.0508 0.253516 65.0503 0.253516 65.0494 0.253516C65.0465 0.254943 65.0432 0.254943 65.0399 0.255894H65.0394C64.1176 0.466603 62.7002 0.702996 61.005 0.937962H61.0045C60.9988 0.937962 60.9931 0.938913 60.9879 0.938913C60.9846 0.94034 60.9817 0.94034 60.9784 0.941292C60.9765 0.941292 60.9736 0.941292 60.9717 0.941292C60.9674 0.942718 60.9636 0.942718 60.9593 0.94367C60.9574 0.94367 60.9555 0.94367 60.9536 0.94367C60.9484 0.945097 60.9432 0.946524 60.9379 0.946524H60.937C60.9318 0.947475 60.9265 0.947475 60.9208 0.948902C60.9189 0.948902 60.917 0.948902 60.9151 0.949853C60.9113 0.949853 60.9075 0.95128 60.9037 0.95128C60.8999 0.95128 60.8951 0.952231 60.8913 0.952231C60.8894 0.953658 60.888 0.953658 60.8861 0.953658C60.8823 0.953658 60.8799 0.955085 60.8766 0.955085C60.8666 0.956036 60.8566 0.957463 60.8466 0.959841C60.8461 0.959841 60.8452 0.959841 60.8452 0.959841C60.8333 0.960793 60.8214 0.96222 60.81 0.964598C60.8095 0.964598 60.8095 0.964598 60.809 0.964598C56.3666 1.57199 50.1209 2.16274 45.8682 2.27213C48.821 7.54841 54.844 17.6377 57.7283 17.6377ZM69.039 3.52307C69.039 4.54426 68.211 5.37235 67.1893 5.37235C66.1676 5.37235 65.339 4.54426 65.339 3.52307C65.339 2.50139 66.1676 1.6733 67.1893 1.6733C68.211 1.6733 69.039 2.50139 69.039 3.52307Z" fill="#C9D2D2"/>
<path d="M5.88184 5.27394C5.88184 4.91483 5.59027 4.62231 5.22973 4.62231C4.86967 4.62231 4.57763 4.91483 4.57763 5.27394C4.57763 5.63448 4.86967 5.92652 5.22973 5.92652C5.59027 5.92652 5.88184 5.63448 5.88184 5.27394Z" fill="#F2F0ED"/>
<path d="M16.042 5.27394C16.042 4.91483 15.7499 4.62231 15.3899 4.62231C15.0298 4.62231 14.7378 4.91483 14.7378 5.27394C14.7378 5.63448 15.0298 5.92652 15.3899 5.92652C15.7499 5.92652 16.042 5.63448 16.042 5.27394Z" fill="#F2F0ED"/>
<path d="M26.2412 5.27394C26.2412 4.91483 25.9492 4.62231 25.5891 4.62231C25.229 4.62231 24.937 4.91483 24.937 5.27394C24.937 5.63448 25.229 5.92652 25.5891 5.92652C25.9492 5.92652 26.2412 5.63448 26.2412 5.27394Z" fill="#F2F0ED"/>
</svg>
