<svg width="33" height="40" viewBox="0 0 33 40" fill="none" xmlns="http://www.w3.org/2000/svg">
<path fill-rule="evenodd" clip-rule="evenodd" d="M16.4407 3.66633C22.2595 3.66633 27.0035 3.43193 27.0035 3.14299C27.0035 2.85404 22.2595 2.61816 16.4407 2.61816C10.622 2.61816 5.87793 2.85404 5.87793 3.14299C5.87793 3.43193 10.622 3.66633 16.4407 3.66633Z" fill="#9D9BA3"/>
<path fill-rule="evenodd" clip-rule="evenodd" d="M6.48995 2.85275V4.53926L2.0039 10.9271C2.0039 10.9271 0.46187 12.6489 0.497251 14.9104C0.532632 17.1704 0.497251 32.0983 0.497251 32.0983C0.497251 32.0983 0.317396 32.9239 1.0722 33.8202C1.56606 34.4084 3.18623 36.5401 4.44668 37.948L4.44963 37.9524L4.45406 37.9569C4.75627 38.2945 5.03785 38.5893 5.27814 38.8119C5.44768 38.98 5.61132 39.1333 5.73515 39.2321C5.75579 39.266 5.80297 39.2969 5.87373 39.3294L5.90469 39.3426L5.90764 39.3441C6.83639 39.7171 11.1662 40.0001 16.3687 40.0001C21.7629 40.0001 26.2194 39.6964 26.9197 39.3014C26.9639 39.2763 26.9934 39.2527 27.0067 39.2262C27.8381 38.9697 31.0549 34.6944 31.789 33.8202C32.5424 32.9239 32.3625 32.0983 32.3625 32.0983C32.3625 32.0983 32.3271 17.1704 32.3625 14.9104C32.3994 12.6489 30.8559 10.9271 30.8559 10.9271L26.3698 4.53926V2.85275C17.1161 2.39869 15.7436 2.39869 6.48995 2.85275Z" fill="#EADDF0"/>
<path fill-rule="evenodd" clip-rule="evenodd" d="M6.48995 2.85259V4.53909L2.0039 10.9269C2.0039 10.9269 0.46187 12.6488 0.497251 14.9102C0.532632 17.1702 0.497251 32.0982 0.497251 32.0982C0.497251 32.0982 0.317396 32.9237 1.0722 33.82C1.21225 33.9881 1.44665 34.2829 1.7356 34.65C3.26141 34.622 5.30026 34.1989 5.10124 33.9159C4.80934 33.4972 4.96856 32.6937 4.96856 32.6937C4.96856 32.6937 4.5145 14.4046 4.96856 12.8714C5.42262 11.3382 8.28997 4.54499 8.28997 4.54499C8.28997 4.54499 7.76073 4.1558 7.89488 3.9037C8.03051 3.65309 8.54796 3.49092 8.54796 3.49092L8.58777 2.79214L8.24575 2.76855C7.69292 2.79509 7.10912 2.8231 6.48995 2.85259Z" fill="#DFCEE7"/>
<path fill-rule="evenodd" clip-rule="evenodd" d="M20.9506 39.922C24.1246 39.807 26.4317 39.5756 26.9182 39.3013C26.9625 39.2763 26.9919 39.2527 27.0052 39.2262C27.8367 38.9696 31.0534 34.6944 31.7876 33.8202C32.5409 32.9239 32.3611 32.0983 32.3611 32.0983C32.3611 32.0983 32.3257 17.1704 32.3611 14.9104C32.3979 12.6489 30.8544 10.927 30.8544 10.927L26.3684 4.53925V2.85274C21.9884 2.63898 19.3747 2.52547 16.8552 2.51367C16.8405 2.61244 16.8287 2.71269 16.8184 2.81441L16.898 3.66651C16.898 3.66651 17.3284 3.6444 17.4641 3.97168C17.5982 4.29895 16.9171 4.54957 16.9171 4.54957V4.72942C16.9171 4.72942 20.8695 10.818 21.1069 12.4499C21.3442 14.0819 21.4474 32.9003 21.4474 32.9003C21.4474 32.9003 21.9 33.8718 21.9177 34.0959C21.9368 34.32 21.5963 39.7112 20.9506 39.922Z" fill="#DFCEE7"/>
<path fill-rule="evenodd" clip-rule="evenodd" d="M32.2567 33.0182C32.4454 32.4845 32.3613 32.0983 32.3613 32.0983C32.3613 32.0983 32.326 17.1703 32.3613 14.9103C32.3982 12.6489 30.8547 10.927 30.8547 10.927L26.3686 4.5392V3.75049L25.2188 4.32396L29.1829 10.4818C29.8994 14.0877 30.4021 32.7838 30.4021 32.7838C30.4021 32.7838 31.9088 32.856 32.2567 33.0182Z" fill="#F4EBF7"/>
<path fill-rule="evenodd" clip-rule="evenodd" d="M3.8252 35.1086C3.8252 35.1086 5.96134 37.7106 8.27734 37.8905C9.38153 37.976 12.8799 38.0644 16.3664 38.0777H16.4711C19.9591 38.0644 23.4559 37.976 24.5616 37.8905C26.8776 37.7106 29.0137 35.1086 29.0137 35.1086L16.4711 34.2757V34.2683L16.4195 34.2727L16.3664 34.2683V34.2757L3.8252 35.1086Z" fill="#D2CEDE"/>
<path fill-rule="evenodd" clip-rule="evenodd" d="M6.49023 3.49829V4.40051C8.09861 4.59364 11.9979 4.72926 16.4412 4.72926C20.9022 4.72926 24.7882 4.59216 26.3701 4.39904V3.50124C24.8944 3.70321 21.0069 3.84621 16.4412 3.84621C11.852 3.84621 7.94824 3.70173 6.49023 3.49829Z" fill="#B9AFBC"/>
<path fill-rule="evenodd" clip-rule="evenodd" d="M25.2577 3.93031V3.91262L25.2149 3.90967L25.2577 3.93031ZM4.43284 9.40261L2.9144 11.5668C2.88786 11.6051 2.8628 11.6361 2.83479 11.667C2.11684 12.4808 1.59202 13.8149 1.60971 14.8926C1.65394 17.7084 1.62593 20.5448 1.62446 23.362C1.62151 26.2751 1.61856 29.1881 1.60971 32.1012C1.60971 32.1719 1.60382 32.2338 1.59055 32.3002C1.56254 32.5685 1.76156 32.912 1.92225 33.1051C4.36208 36.0093 6.00436 37.0383 9.60588 37.2668C11.8511 37.4084 14.1199 37.4526 16.3681 37.4526C18.6178 37.4526 20.8851 37.4084 23.1304 37.2668C26.838 37.031 28.4258 36.0934 30.9364 33.1051C31.0971 32.912 31.2961 32.5685 31.2681 32.3002C31.2563 32.2338 31.2504 32.1719 31.2504 32.1012C31.2401 29.1881 31.2371 26.2751 31.2356 23.362C31.2327 20.5448 31.2047 17.7084 31.2504 14.8926C31.2666 13.8149 30.7432 12.4823 30.0268 11.6685C29.9943 11.6346 29.9722 11.6051 29.9442 11.5668L28.4213 9.39671C25.4773 9.5633 21.1697 9.66944 16.3681 9.66944C11.6315 9.66944 7.37391 9.56772 4.43284 9.40261Z" fill="#6FC12D"/>
<path fill-rule="evenodd" clip-rule="evenodd" d="M4.43284 9.40259L2.9144 11.5667C2.88786 11.6051 2.8628 11.636 2.83479 11.667C2.11684 12.4793 1.59202 13.8149 1.60971 14.8926C1.65394 17.7083 1.62593 20.5447 1.62446 23.362C1.62151 26.275 1.61856 29.1881 1.60971 32.1011C1.60971 32.1719 1.60382 32.2338 1.59055 32.3002C1.56254 32.5685 1.76156 32.912 1.92225 33.1051C2.37336 33.6402 2.79646 34.1135 3.20924 34.5277C4.30311 34.3744 5.23777 34.112 5.10066 33.9159C4.80877 33.4972 4.96799 32.6938 4.96799 32.6938C4.96799 32.6938 4.51393 14.4046 4.96799 12.8714C5.14047 12.2876 5.66529 10.9358 6.24761 9.48957C5.59895 9.46303 4.99157 9.43355 4.43284 9.40259Z" fill="#69B530"/>
<path fill-rule="evenodd" clip-rule="evenodd" d="M25.2588 3.93031V3.91262L25.2161 3.90967L25.2588 3.93031ZM21.644 37.3464C22.1409 37.3243 22.6377 37.2978 23.1315 37.2668C26.8392 37.031 28.4269 36.0934 30.9375 33.1051C31.0982 32.912 31.2972 32.5685 31.2692 32.3002C31.2574 32.2338 31.2515 32.1719 31.2515 32.1012C31.2412 29.1881 31.2383 26.2751 31.2368 23.362C31.2338 20.5448 31.2058 17.7084 31.2515 14.8926C31.2677 13.8149 30.7444 12.4823 30.0279 11.6685C29.9955 11.6346 29.9734 11.6051 29.9454 11.5668L28.4225 9.39671C26.2171 9.52202 23.2465 9.61342 19.8779 9.65028C20.5163 10.8223 21.0278 11.894 21.1089 12.4498C21.3463 14.0818 21.4494 32.9002 21.4494 32.9002C21.4494 32.9002 21.902 33.8717 21.9197 34.0958C21.93 34.2167 21.8357 35.8427 21.644 37.3464Z" fill="#69B530"/>
<path fill-rule="evenodd" clip-rule="evenodd" d="M6.49023 2.57559V3.696L12.4225 4.02622L26.3701 3.696L26.3568 2.58296C17.1149 2.13038 15.7395 2.12153 6.49023 2.57559Z" fill="#B9AFBC"/>
<path fill-rule="evenodd" clip-rule="evenodd" d="M6.49023 2.64331V3.6959L7.99836 3.77993C8.19738 3.60155 8.54824 3.49099 8.54824 3.49099L8.58805 2.79221L6.49023 2.64331Z" fill="#847F8A"/>
<path fill-rule="evenodd" clip-rule="evenodd" d="M17.3985 3.90828L26.3691 3.69599L26.3558 2.58296C24.4482 2.49008 22.8767 2.4149 21.4998 2.36035C19.0555 2.48713 16.7764 2.61981 16.7764 2.61981L16.8206 3.66651C16.8206 3.66651 17.1877 3.71811 17.3985 3.90828Z" fill="#847F8A"/>
<path fill-rule="evenodd" clip-rule="evenodd" d="M32.4343 32.1365C32.7159 32.1615 32.937 32.4018 32.937 32.6893V32.6908C32.937 34.4805 17.7275 34.053 16.4081 34.053C15.0061 34.053 0 34.5291 0 32.6908V32.6893C0 32.4416 0.165113 32.2294 0.390668 32.1586C0.654554 32.5935 7.72491 32.9414 16.4081 32.9414C25.2431 32.9414 32.4078 32.5817 32.4343 32.1365Z" fill="#F2E7F5"/>
<path fill-rule="evenodd" clip-rule="evenodd" d="M27.125 4.02608C27.125 4.3165 22.2733 4.5509 16.4398 4.5509C10.6064 4.5509 5.70605 4.3165 5.70605 4.02608C5.70605 3.76072 5.82694 3.37152 5.87706 3.14744C5.93603 3.43491 10.6417 3.66637 16.4398 3.66637C22.2733 3.66637 27.0026 3.43197 27.0026 3.14302L27.125 4.02608Z" fill="#F2E7F5"/>
<path fill-rule="evenodd" clip-rule="evenodd" d="M8.07218 4.35335C6.59796 4.26343 5.70605 4.14991 5.70605 4.02608C5.70605 3.76072 5.82694 3.37152 5.87706 3.14744C5.9036 3.28012 6.90902 3.39953 8.54688 3.49093C8.54688 3.49093 8.02942 3.6531 7.8938 3.90372C7.82156 4.04082 7.94539 4.2192 8.07218 4.35335Z" fill="#E8DCEE"/>
<path fill-rule="evenodd" clip-rule="evenodd" d="M27.1271 4.02612C27.1271 4.3018 22.728 4.52736 17.2704 4.548C17.4326 4.43891 17.58 4.28706 17.5314 4.11015C17.4326 3.75192 16.8223 3.66641 16.8223 3.66641C22.4803 3.65609 27.0047 3.42612 27.0047 3.14307L27.1271 4.02612Z" fill="#E8DCEE"/>
<path fill-rule="evenodd" clip-rule="evenodd" d="M27.6852 2.52689C27.6852 2.81584 22.6522 3.05024 16.4413 3.05024C10.2319 3.05024 5.19742 2.81584 5.19742 2.52689C5.19742 2.23647 5.1355 0.862498 5.21658 0.822694C5.29766 0.78289 27.6852 0.853653 27.6852 0.853653V2.52689Z" fill="#441417"/>
<path fill-rule="evenodd" clip-rule="evenodd" d="M15.0981 3.04717C13.2332 3.03685 11.5084 3.00442 10.0371 2.95725V0.812256C11.5526 0.81373 13.3025 0.816678 15.0981 0.819627V3.04717Z" fill="#591C1F"/>
<path fill-rule="evenodd" clip-rule="evenodd" d="M27.6846 2.52694C27.6846 2.80999 22.8728 3.03997 16.8535 3.05029V0.824219C22.3332 0.836013 27.6846 0.853703 27.6846 0.853703V2.52694Z" fill="#301417"/>
<path fill-rule="evenodd" clip-rule="evenodd" d="M8.56896 2.90123C6.48883 2.80541 5.19742 2.67273 5.19742 2.52678C5.19742 2.23636 5.1355 0.862389 5.21658 0.822585C5.23722 0.813739 6.56697 0.810791 8.56896 0.810791V2.90123Z" fill="#301417"/>
<path fill-rule="evenodd" clip-rule="evenodd" d="M16.4426 1.37826C22.6343 1.37826 27.685 1.14238 27.685 0.853435C27.685 0.564488 22.6343 0.328613 16.4426 0.328613C10.2494 0.328613 5.19727 0.564488 5.19727 0.853435C5.19727 1.14238 10.2494 1.37826 16.4426 1.37826Z" fill="#6A3432"/>
<path fill-rule="evenodd" clip-rule="evenodd" d="M27.066 0.716371C27.066 0.924236 22.3087 1.09377 16.4398 1.09377C10.571 1.09377 5.81365 0.924236 5.81365 0.716371C5.81365 0.507032 5.75468 0.384672 5.83134 0.355188C5.908 0.327177 27.066 0.377301 27.066 0.377301V0.716371Z" fill="#441417"/>
<path fill-rule="evenodd" clip-rule="evenodd" d="M15.0981 1.09092C13.2126 1.08207 11.4818 1.05554 10.0371 1.01721V0.346436C11.5275 0.34791 13.2863 0.349384 15.0981 0.353807V1.09092Z" fill="#591C1F"/>
<path fill-rule="evenodd" clip-rule="evenodd" d="M16.4406 0.7548C22.2933 0.7548 27.0668 0.585265 27.0668 0.3774C27.0668 0.169535 22.2933 0 16.4406 0C10.588 0 5.81445 0.169535 5.81445 0.3774C5.81445 0.585265 10.588 0.7548 16.4406 0.7548Z" fill="#874745"/>
<path fill-rule="evenodd" clip-rule="evenodd" d="M16.4298 8.59758C17.8377 8.59758 19.1881 8.6138 20.4426 8.64328H20.4441C22.0598 8.43837 24.0722 8.52977 25.0569 8.72584C25.5405 8.82166 26.1331 8.91159 26.6108 8.97793C26.9395 9.01331 27.2285 9.05017 27.4732 9.08997H27.4776C28.0865 9.1858 28.424 9.29341 28.424 9.40546C28.424 9.85067 23.0535 10.2119 16.4298 10.2119C9.80613 10.2119 4.43555 9.85067 4.43555 9.40546C4.43555 9.3288 4.58887 9.25656 4.87339 9.18727C4.87339 9.18727 6.0734 8.68161 6.70142 8.71699C7.32944 8.75385 7.62576 8.83346 7.99431 8.78039C8.36139 8.72584 8.83757 8.51945 9.59974 8.59169C10.3501 8.66245 11.1005 8.67867 11.4735 8.66835H11.4941C12.9993 8.62264 14.6711 8.59758 16.4298 8.59758Z" fill="#90D241"/>
<path fill-rule="evenodd" clip-rule="evenodd" d="M6.11616 9.81681C5.04882 9.69592 4.43555 9.55587 4.43555 9.4055C4.43555 9.32884 4.58887 9.25661 4.87339 9.18732C4.87339 9.18732 5.90829 8.75095 6.5599 8.71704C6.40953 9.0856 6.26063 9.4571 6.11616 9.81681Z" fill="#76BE2C"/>
<path fill-rule="evenodd" clip-rule="evenodd" d="M19.2988 8.62117C19.688 8.62707 20.0698 8.63444 20.4428 8.64328H20.4443C22.06 8.43837 24.0724 8.52977 25.0571 8.72584C25.5407 8.82166 26.1333 8.91159 26.611 8.97793C26.9397 9.01331 27.2287 9.05017 27.4734 9.08997H27.4778C28.0867 9.1858 28.4242 9.29341 28.4242 9.40546C28.4242 9.76369 24.9554 10.0674 20.1553 10.172C19.8944 9.67524 19.601 9.14599 19.2988 8.62117Z" fill="#76BE2C"/>
<path fill-rule="evenodd" clip-rule="evenodd" d="M4.43528 9.4054C4.43528 9.4054 4.63283 9.54987 4.79057 9.53366C4.94683 9.51892 5.70016 9.49828 5.97879 9.65012C6.25742 9.80344 6.47707 9.84324 6.66577 9.82555C6.853 9.80786 7.05055 9.78133 7.15374 9.8344C7.19207 9.85504 7.75227 9.83292 8.49381 9.81229C9.76753 9.77543 11.572 9.74005 12.1735 9.91106C13.1243 10.1808 16.0492 10.5125 16.8394 10.2118C17.6281 9.91106 18.5421 9.68403 19.3323 9.92875C20.1239 10.1735 24.2901 10.2663 25.095 9.96266C25.8999 9.65897 28.1997 9.08992 28.4238 9.4054C28.6464 9.71941 28.1599 10.6821 28.1599 10.6821L20.7151 12.5484L6.39747 11.4354C6.39747 11.4354 4.33356 10.0629 4.43528 9.4054Z" fill="#6FC12D"/>
<path fill-rule="evenodd" clip-rule="evenodd" d="M4.43537 9.40552C4.43537 9.40552 4.63291 9.54999 4.79065 9.53377C4.94692 9.51903 5.70025 9.49839 5.97887 9.65024C6.03784 9.68267 6.09534 9.71068 6.14841 9.73427C5.98477 10.1426 5.82703 10.5421 5.68108 10.9136C5.09582 10.4552 4.37345 9.80061 4.43537 9.40552Z" fill="#65B831"/>
<path fill-rule="evenodd" clip-rule="evenodd" d="M20.0908 10.0482C21.5695 10.1941 24.4412 10.2089 25.0958 9.96266C25.9007 9.65897 28.2005 9.08992 28.4246 9.4054C28.6472 9.71941 28.1607 10.6821 28.1607 10.6821L21.108 12.4497C21.0358 11.9587 20.6274 11.0609 20.0908 10.0482Z" fill="#69B530"/>
<path fill-rule="evenodd" clip-rule="evenodd" d="M1.59375 32.4417C1.62766 32.6805 1.78835 32.9444 1.92103 33.1051C2.09204 33.3085 2.25862 33.5016 2.42374 33.6874C6.72846 34.3184 15.36 34.053 16.4067 34.053C17.3885 34.053 26.0776 34.2904 30.4486 33.6712C30.6064 33.4913 30.7686 33.3026 30.9351 33.1051C31.0693 32.9444 31.2315 32.6776 31.2639 32.4373C28.8845 32.7321 23.1291 32.9414 16.4067 32.9414C9.72554 32.9414 3.99968 32.735 1.59375 32.4417Z" fill="#9AD64B"/>
<path fill-rule="evenodd" clip-rule="evenodd" d="M1.59375 32.4417C1.62766 32.6805 1.78835 32.9444 1.92103 33.105C2.09204 33.3085 2.25862 33.5016 2.42374 33.6874C3.20212 33.8009 4.12204 33.8864 5.11271 33.9483L5.09944 33.9159C4.82082 33.5164 4.95202 32.7689 4.96529 32.6996C3.53825 32.6259 2.38541 32.5389 1.59375 32.4417Z" fill="#9AD64B"/>
<path fill-rule="evenodd" clip-rule="evenodd" d="M21.9185 34.0958C24.8154 34.081 28.2016 33.9896 30.4498 33.6712C30.6076 33.4913 30.7697 33.3026 30.9363 33.1051C31.0705 32.9444 31.2326 32.6776 31.2651 32.4373C29.5093 32.6554 25.9137 32.8264 21.4482 32.9002C21.4482 32.9002 21.9008 33.8717 21.9185 34.0958Z" fill="#90D049"/>
<path fill-rule="evenodd" clip-rule="evenodd" d="M22.1345 29.6658C22.534 29.6658 22.8613 29.3119 22.8613 28.88C22.8613 28.4466 22.534 28.0942 22.1345 28.0942C21.7335 28.0942 21.4062 28.4466 21.4062 28.88C21.4062 29.3119 21.7335 29.6658 22.1345 29.6658Z" fill="#82CD2B"/>
<path fill-rule="evenodd" clip-rule="evenodd" d="M22.0364 29.6745C22.4373 29.6745 22.7632 29.3207 22.7632 28.8888C22.7632 28.4554 22.4373 28.103 22.0364 28.103C21.6354 28.103 21.3096 28.4554 21.3096 28.8888C21.3096 29.3207 21.6354 29.6745 22.0364 29.6745Z" fill="#508C31"/>
<path fill-rule="evenodd" clip-rule="evenodd" d="M20.8529 28.2814C21.0549 28.2814 21.2185 28.103 21.2185 27.8863C21.2185 27.6681 21.0549 27.4912 20.8529 27.4912C20.6509 27.4912 20.4873 27.6681 20.4873 27.8863C20.4873 28.103 20.6509 28.2814 20.8529 28.2814Z" fill="#82CD2B"/>
<path fill-rule="evenodd" clip-rule="evenodd" d="M20.8065 28.2858C21.007 28.2858 21.1707 28.1089 21.1707 27.8907C21.1707 27.6725 21.007 27.4956 20.8065 27.4956C20.6046 27.4956 20.4395 27.6725 20.4395 27.8907C20.4395 28.1089 20.6046 28.2858 20.8065 28.2858Z" fill="#508C31"/>
<path fill-rule="evenodd" clip-rule="evenodd" d="M24.9672 25.1754C25.1279 25.1754 25.2576 25.0353 25.2576 24.8628C25.2576 24.6889 25.1279 24.5488 24.9672 24.5488C24.808 24.5488 24.6768 24.6889 24.6768 24.8628C24.6768 25.0353 24.808 25.1754 24.9672 25.1754Z" fill="#82CD2B"/>
<path fill-rule="evenodd" clip-rule="evenodd" d="M24.9281 25.1798C25.0888 25.1798 25.2185 25.0383 25.2185 24.8658C25.2185 24.6933 25.0888 24.5518 24.9281 24.5518C24.7689 24.5518 24.6377 24.6933 24.6377 24.8658C24.6377 25.0383 24.7689 25.1798 24.9281 25.1798Z" fill="#508C31"/>
<path fill-rule="evenodd" clip-rule="evenodd" d="M25.9502 31.9007C26.0785 31.9007 26.1831 31.7886 26.1831 31.6486C26.1831 31.51 26.0785 31.3965 25.9502 31.3965C25.8205 31.3965 25.7158 31.51 25.7158 31.6486C25.7158 31.7886 25.8205 31.9007 25.9502 31.9007Z" fill="#82CD2B"/>
<path fill-rule="evenodd" clip-rule="evenodd" d="M25.9175 31.9036C26.0458 31.9036 26.1504 31.7901 26.1504 31.6515C26.1504 31.5129 26.0458 31.3994 25.9175 31.3994C25.7892 31.3994 25.6846 31.5129 25.6846 31.6515C25.6846 31.7901 25.7892 31.9036 25.9175 31.9036Z" fill="#508C31"/>
<path fill-rule="evenodd" clip-rule="evenodd" d="M19.3721 30.3999C19.5004 30.3999 19.605 30.2879 19.605 30.1478C19.605 30.0093 19.5004 29.8958 19.3721 29.8958C19.2424 29.8958 19.1377 30.0093 19.1377 30.1478C19.1377 30.2879 19.2424 30.3999 19.3721 30.3999Z" fill="#82CD2B"/>
<path fill-rule="evenodd" clip-rule="evenodd" d="M19.3403 30.4029C19.4686 30.4029 19.5733 30.2893 19.5733 30.1508C19.5733 30.0122 19.4686 29.8987 19.3403 29.8987C19.2121 29.8987 19.1074 30.0122 19.1074 30.1508C19.1074 30.2893 19.2121 30.4029 19.3403 30.4029Z" fill="#508C31"/>
<path fill-rule="evenodd" clip-rule="evenodd" d="M3.82054 14.9499C4.22153 14.9499 4.5488 14.5976 4.5488 14.1642C4.5488 13.7322 4.22153 13.3784 3.82054 13.3784C3.42103 13.3784 3.09375 13.7322 3.09375 14.1642C3.09375 14.5976 3.42103 14.9499 3.82054 14.9499Z" fill="#82CD2B"/>
<path fill-rule="evenodd" clip-rule="evenodd" d="M3.72386 14.9604C4.12485 14.9604 4.45212 14.6066 4.45212 14.1747C4.45212 13.7413 4.12485 13.3889 3.72386 13.3889C3.32435 13.3889 2.99707 13.7413 2.99707 14.1747C2.99707 14.6066 3.32435 14.9604 3.72386 14.9604Z" fill="#508C31"/>
<path fill-rule="evenodd" clip-rule="evenodd" d="M5.0033 16.1161C5.2038 16.1161 5.36891 15.9392 5.36891 15.721C5.36891 15.5043 5.2038 15.3259 5.0033 15.3259C4.80133 15.3259 4.6377 15.5043 4.6377 15.721C4.6377 15.9392 4.80133 16.1161 5.0033 16.1161Z" fill="#82CD2B"/>
<path fill-rule="evenodd" clip-rule="evenodd" d="M4.95154 16.1207C5.15351 16.1207 5.31715 15.9438 5.31715 15.7257C5.31715 15.5075 5.15351 15.3306 4.95154 15.3306C4.74958 15.3306 4.58594 15.5075 4.58594 15.7257C4.58594 15.9438 4.74958 16.1207 4.95154 16.1207Z" fill="#508C31"/>
<path fill-rule="evenodd" clip-rule="evenodd" d="M5.21682 14.7185C5.34508 14.7185 5.44975 14.605 5.44975 14.4664C5.44975 14.3279 5.34508 14.2144 5.21682 14.2144C5.08857 14.2144 4.98242 14.3279 4.98242 14.4664C4.98242 14.605 5.08857 14.7185 5.21682 14.7185Z" fill="#82CD2B"/>
<path fill-rule="evenodd" clip-rule="evenodd" d="M5.1841 14.7215C5.31236 14.7215 5.41703 14.608 5.41703 14.4694C5.41703 14.3308 5.31236 14.2173 5.1841 14.2173C5.05584 14.2173 4.95117 14.3308 4.95117 14.4694C4.95117 14.608 5.05584 14.7215 5.1841 14.7215Z" fill="#508C31"/>
<path fill-rule="evenodd" clip-rule="evenodd" d="M2.44752 15.3659C2.51238 15.3659 2.56546 15.3099 2.56546 15.2391C2.56546 15.1698 2.51238 15.1123 2.44752 15.1123C2.38413 15.1123 2.33105 15.1698 2.33105 15.2391C2.33105 15.3099 2.38413 15.3659 2.44752 15.3659Z" fill="#82CD2B"/>
<path fill-rule="evenodd" clip-rule="evenodd" d="M2.43337 15.3673C2.49676 15.3673 2.54983 15.3113 2.54983 15.2406C2.54983 15.1713 2.49676 15.1138 2.43337 15.1138C2.3685 15.1138 2.31543 15.1713 2.31543 15.2406C2.31543 15.3113 2.3685 15.3673 2.43337 15.3673Z" fill="#508C31"/>
<path fill-rule="evenodd" clip-rule="evenodd" d="M4.85084 12.9982C4.9157 12.9982 4.96878 12.9407 4.96878 12.8714C4.96878 12.8021 4.9157 12.7446 4.85084 12.7446C4.78745 12.7446 4.73438 12.8021 4.73438 12.8714C4.73438 12.9407 4.78745 12.9982 4.85084 12.9982Z" fill="#82CD2B"/>
<path fill-rule="evenodd" clip-rule="evenodd" d="M4.83473 12.9997C4.89813 12.9997 4.9512 12.9422 4.9512 12.8729C4.9512 12.8021 4.89813 12.7461 4.83473 12.7461C4.76987 12.7461 4.7168 12.8021 4.7168 12.8729C4.7168 12.9422 4.76987 12.9997 4.83473 12.9997Z" fill="#508C31"/>
<path fill-rule="evenodd" clip-rule="evenodd" d="M6.21314 16.0836C6.27801 16.0836 6.33108 16.0276 6.33108 15.9569C6.33108 15.8876 6.27801 15.8301 6.21314 15.8301C6.14828 15.8301 6.09668 15.8876 6.09668 15.9569C6.09668 16.0276 6.14828 16.0836 6.21314 16.0836Z" fill="#82CD2B"/>
<path fill-rule="evenodd" clip-rule="evenodd" d="M6.19899 16.0851C6.26238 16.0851 6.31546 16.0291 6.31546 15.9583C6.31546 15.889 6.26238 15.8315 6.19899 15.8315C6.13413 15.8315 6.08105 15.889 6.08105 15.9583C6.08105 16.0291 6.13413 16.0851 6.19899 16.0851Z" fill="#508C31"/>
<path fill-rule="evenodd" clip-rule="evenodd" d="M15.1802 25.7371C15.3084 25.7371 15.4131 25.625 15.4131 25.4865C15.4131 25.3464 15.3084 25.2344 15.1802 25.2344C15.0519 25.2344 14.9473 25.3464 14.9473 25.4865C14.9473 25.625 15.0519 25.7371 15.1802 25.7371Z" fill="#82CD2B"/>
<path fill-rule="evenodd" clip-rule="evenodd" d="M15.1465 25.7398C15.2748 25.7398 15.3794 25.6277 15.3794 25.4892C15.3794 25.3491 15.2748 25.2356 15.1465 25.2356C15.0168 25.2356 14.9121 25.3491 14.9121 25.4892C14.9121 25.6277 15.0168 25.7398 15.1465 25.7398Z" fill="#508C31"/>
<path fill-rule="evenodd" clip-rule="evenodd" d="M19.6958 21.357C19.8241 21.357 19.9302 21.2435 19.9302 21.1049C19.9302 20.9663 19.8241 20.8528 19.6958 20.8528C19.5676 20.8528 19.4629 20.9663 19.4629 21.1049C19.4629 21.2435 19.5676 21.357 19.6958 21.357Z" fill="#82CD2B"/>
<path fill-rule="evenodd" clip-rule="evenodd" d="M19.6646 21.3599C19.7928 21.3599 19.8975 21.2464 19.8975 21.1078C19.8975 20.9692 19.7928 20.8557 19.6646 20.8557C19.5363 20.8557 19.4316 20.9692 19.4316 21.1078C19.4316 21.2464 19.5363 21.3599 19.6646 21.3599Z" fill="#508C31"/>
<path fill-rule="evenodd" clip-rule="evenodd" d="M16.9154 21.2479C17.1159 21.2479 17.281 21.0696 17.281 20.8529C17.281 20.6347 17.1159 20.4578 16.9154 20.4578C16.7134 20.4578 16.5498 20.6347 16.5498 20.8529C16.5498 21.0696 16.7134 21.2479 16.9154 21.2479Z" fill="#82CD2B"/>
<path fill-rule="evenodd" clip-rule="evenodd" d="M16.8656 21.2523C17.0676 21.2523 17.2312 21.074 17.2312 20.8572C17.2312 20.6391 17.0676 20.4622 16.8656 20.4622C16.6651 20.4622 16.5 20.6391 16.5 20.8572C16.5 21.074 16.6651 21.2523 16.8656 21.2523Z" fill="#508C31"/>
<path fill-rule="evenodd" clip-rule="evenodd" d="M8.24437 20.7363C8.64536 20.7363 8.97116 20.384 8.97116 19.9506C8.97116 19.5171 8.64536 19.1648 8.24437 19.1648C7.84485 19.1648 7.51758 19.5171 7.51758 19.9506C7.51758 20.384 7.84485 20.7363 8.24437 20.7363Z" fill="#82CD2B"/>
<path fill-rule="evenodd" clip-rule="evenodd" d="M8.14574 20.7453C8.54672 20.7453 8.874 20.393 8.874 19.9596C8.874 19.5276 8.54672 19.1738 8.14574 19.1738C7.74622 19.1738 7.41895 19.5276 7.41895 19.9596C7.41895 20.393 7.74622 20.7453 8.14574 20.7453Z" fill="#508C31"/>
<path fill-rule="evenodd" clip-rule="evenodd" d="M29.3022 17.7585C29.5971 17.7585 29.8374 17.4047 29.8374 16.9728C29.8374 16.5394 29.5971 16.187 29.3022 16.187C29.0089 16.187 28.7686 16.5394 28.7686 16.9728C28.7686 17.4047 29.0089 17.7585 29.3022 17.7585Z" fill="#82CD2B"/>
<path fill-rule="evenodd" clip-rule="evenodd" d="M29.2309 17.7673C29.5258 17.7673 29.7646 17.415 29.7646 16.9816C29.7646 16.5481 29.5258 16.1958 29.2309 16.1958C28.9376 16.1958 28.6973 16.5481 28.6973 16.9816C28.6973 17.415 28.9376 17.7673 29.2309 17.7673Z" fill="#508C31"/>
<path fill-rule="evenodd" clip-rule="evenodd" d="M3.87546 27.9394C4.17031 27.9394 4.40913 27.5871 4.40913 27.1537C4.40913 26.7217 4.17031 26.3679 3.87546 26.3679C3.58209 26.3679 3.3418 26.7217 3.3418 27.1537C3.3418 27.5871 3.58209 27.9394 3.87546 27.9394Z" fill="#82CD2B"/>
<path fill-rule="evenodd" clip-rule="evenodd" d="M3.80418 27.9482C4.09902 27.9482 4.33784 27.5959 4.33784 27.1625C4.33784 26.7305 4.09902 26.3767 3.80418 26.3767C3.51081 26.3767 3.27051 26.7305 3.27051 27.1625C3.27051 27.5959 3.51081 27.9482 3.80418 27.9482Z" fill="#508C31"/>
<path fill-rule="evenodd" clip-rule="evenodd" d="M4.58375 25.504C4.69137 25.504 4.77834 25.3271 4.77834 25.109C4.77834 24.8908 4.69137 24.7139 4.58375 24.7139C4.4776 24.7139 4.39062 24.8908 4.39062 25.109C4.39062 25.3271 4.4776 25.504 4.58375 25.504Z" fill="#82CD2B"/>
<path fill-rule="evenodd" clip-rule="evenodd" d="M4.55983 25.5084C4.66598 25.5084 4.75295 25.3315 4.75295 25.1134C4.75295 24.8952 4.66598 24.7183 4.55983 24.7183C4.45221 24.7183 4.36523 24.8952 4.36523 25.1134C4.36523 25.3315 4.45221 25.5084 4.55983 25.5084Z" fill="#508C31"/>
<path fill-rule="evenodd" clip-rule="evenodd" d="M29.8098 13.5319C29.9174 13.5319 30.0044 13.3535 30.0044 13.1368C30.0044 12.9186 29.9174 12.7417 29.8098 12.7417C29.7037 12.7417 29.6152 12.9186 29.6152 13.1368C29.6152 13.3535 29.7037 13.5319 29.8098 13.5319Z" fill="#82CD2B"/>
<path fill-rule="evenodd" clip-rule="evenodd" d="M29.7835 13.5363C29.8911 13.5363 29.9781 13.3594 29.9781 13.1412C29.9781 12.923 29.8911 12.7461 29.7835 12.7461C29.6773 12.7461 29.5889 12.923 29.5889 13.1412C29.5889 13.3594 29.6773 13.5363 29.7835 13.5363Z" fill="#508C31"/>
<path fill-rule="evenodd" clip-rule="evenodd" d="M19.2326 13.927C19.6336 13.927 19.9594 13.5732 19.9594 13.1412C19.9594 12.7078 19.6336 12.3555 19.2326 12.3555C18.8317 12.3555 18.5059 12.7078 18.5059 13.1412C18.5059 13.5732 18.8317 13.927 19.2326 13.927Z" fill="#82CD2B"/>
<path fill-rule="evenodd" clip-rule="evenodd" d="M19.136 13.9358C19.537 13.9358 19.8642 13.5834 19.8642 13.15C19.8642 12.7166 19.537 12.3643 19.136 12.3643C18.735 12.3643 18.4092 12.7166 18.4092 13.15C18.4092 13.5834 18.735 13.9358 19.136 13.9358Z" fill="#508C31"/>
<path fill-rule="evenodd" clip-rule="evenodd" d="M19.4877 15.46C19.6469 15.46 19.7781 15.32 19.7781 15.146C19.7781 14.9736 19.6469 14.832 19.4877 14.832C19.327 14.832 19.1973 14.9736 19.1973 15.146C19.1973 15.32 19.327 15.46 19.4877 15.46Z" fill="#82CD2B"/>
<path fill-rule="evenodd" clip-rule="evenodd" d="M19.4467 15.4644C19.6074 15.4644 19.7371 15.3229 19.7371 15.1504C19.7371 14.978 19.6074 14.8364 19.4467 14.8364C19.286 14.8364 19.1562 14.978 19.1562 15.1504C19.1562 15.3229 19.286 15.4644 19.4467 15.4644Z" fill="#508C31"/>
<path fill-rule="evenodd" clip-rule="evenodd" d="M16.2508 15.6016C16.5766 15.6016 16.8435 15.3142 16.8435 14.9618C16.8435 14.6095 16.5766 14.322 16.2508 14.322C15.925 14.322 15.6582 14.6095 15.6582 14.9618C15.6582 15.3142 15.925 15.6016 16.2508 15.6016Z" fill="#82CD2B"/>
<path fill-rule="evenodd" clip-rule="evenodd" d="M16.1708 15.609C16.4966 15.609 16.7619 15.3215 16.7619 14.9692C16.7619 14.6168 16.4966 14.3293 16.1708 14.3293C15.8435 14.3293 15.5781 14.6168 15.5781 14.9692C15.5781 15.3215 15.8435 15.609 16.1708 15.609Z" fill="#508C31"/>
<path fill-rule="evenodd" clip-rule="evenodd" d="M17.5824 16.7648C17.7844 16.7648 17.9495 16.5879 17.9495 16.3697C17.9495 16.153 17.7844 15.9746 17.5824 15.9746C17.3819 15.9746 17.2168 16.153 17.2168 16.3697C17.2168 16.5879 17.3819 16.7648 17.5824 16.7648Z" fill="#82CD2B"/>
<path fill-rule="evenodd" clip-rule="evenodd" d="M17.5346 16.7707C17.7365 16.7707 17.9002 16.5923 17.9002 16.3756C17.9002 16.1574 17.7365 15.979 17.5346 15.979C17.3326 15.979 17.1689 16.1574 17.1689 16.3756C17.1689 16.5923 17.3326 16.7707 17.5346 16.7707Z" fill="#508C31"/>
<path fill-rule="evenodd" clip-rule="evenodd" d="M17.7998 15.3672C17.9281 15.3672 18.0328 15.2552 18.0328 15.1151C18.0328 14.9766 17.9281 14.863 17.7998 14.863C17.6701 14.863 17.5654 14.9766 17.5654 15.1151C17.5654 15.2552 17.6701 15.3672 17.7998 15.3672Z" fill="#82CD2B"/>
<path fill-rule="evenodd" clip-rule="evenodd" d="M17.7671 15.3719C17.8954 15.3719 18 15.2583 18 15.1198C18 14.9797 17.8954 14.8677 17.7671 14.8677C17.6388 14.8677 17.5342 14.9797 17.5342 15.1198C17.5342 15.2583 17.6388 15.3719 17.7671 15.3719Z" fill="#508C31"/>
<path fill-rule="evenodd" clip-rule="evenodd" d="M15.0286 16.0158C15.0934 16.0158 15.1465 15.9583 15.1465 15.889C15.1465 15.8182 15.0934 15.7622 15.0286 15.7622C14.9637 15.7622 14.9121 15.8182 14.9121 15.889C14.9121 15.9583 14.9637 16.0158 15.0286 16.0158Z" fill="#82CD2B"/>
<path fill-rule="evenodd" clip-rule="evenodd" d="M15.0129 16.0175C15.0778 16.0175 15.1309 15.96 15.1309 15.8907C15.1309 15.8199 15.0778 15.7639 15.0129 15.7639C14.9496 15.7639 14.8965 15.8199 14.8965 15.8907C14.8965 15.96 14.9496 16.0175 15.0129 16.0175Z" fill="#508C31"/>
<path fill-rule="evenodd" clip-rule="evenodd" d="M17.4319 13.6469C17.4968 13.6469 17.5498 13.5909 17.5498 13.5201C17.5498 13.4508 17.4968 13.3933 17.4319 13.3933C17.367 13.3933 17.3154 13.4508 17.3154 13.5201C17.3154 13.5909 17.367 13.6469 17.4319 13.6469Z" fill="#82CD2B"/>
<path fill-rule="evenodd" clip-rule="evenodd" d="M17.4163 13.6483C17.4811 13.6483 17.5342 13.5923 17.5342 13.5216C17.5342 13.4523 17.4811 13.3948 17.4163 13.3948C17.3514 13.3948 17.2998 13.4523 17.2998 13.5216C17.2998 13.5923 17.3514 13.6483 17.4163 13.6483Z" fill="#508C31"/>
<path fill-rule="evenodd" clip-rule="evenodd" d="M18.7962 16.7338C18.861 16.7338 18.9141 16.6763 18.9141 16.607C18.9141 16.5362 18.861 16.4802 18.7962 16.4802C18.7313 16.4802 18.6797 16.5362 18.6797 16.607C18.6797 16.6763 18.7313 16.7338 18.7962 16.7338Z" fill="#82CD2B"/>
<path fill-rule="evenodd" clip-rule="evenodd" d="M18.7786 16.734C18.8434 16.734 18.8965 16.678 18.8965 16.6087C18.8965 16.538 18.8434 16.4819 18.7786 16.4819C18.7137 16.4819 18.6621 16.538 18.6621 16.6087C18.6621 16.678 18.7137 16.734 18.7786 16.734Z" fill="#508C31"/>
<path fill-rule="evenodd" clip-rule="evenodd" d="M28.7149 14.4828C28.8506 14.4828 28.9596 14.3044 28.9596 14.0877C28.9596 13.8695 28.8506 13.6912 28.7149 13.6912C28.5808 13.6912 28.4717 13.8695 28.4717 14.0877C28.4717 14.3044 28.5808 14.4828 28.7149 14.4828Z" fill="#82CD2B"/>
<path fill-rule="evenodd" clip-rule="evenodd" d="M28.6827 14.4872C28.8169 14.4872 28.9259 14.3088 28.9259 14.0921C28.9259 13.8739 28.8169 13.697 28.6827 13.697C28.5485 13.697 28.4395 13.8739 28.4395 14.0921C28.4395 14.3088 28.5485 14.4872 28.6827 14.4872Z" fill="#508C31"/>
<path fill-rule="evenodd" clip-rule="evenodd" d="M29.5624 15.1033C29.6361 15.1033 29.695 15.0075 29.695 14.8896C29.695 14.7701 29.6361 14.6743 29.5624 14.6743C29.4901 14.6743 29.4297 14.7701 29.4297 14.8896C29.4297 15.0075 29.4901 15.1033 29.5624 15.1033Z" fill="#82CD2B"/>
<path fill-rule="evenodd" clip-rule="evenodd" d="M29.5448 15.1062C29.6185 15.1062 29.6775 15.0104 29.6775 14.891C29.6775 14.7731 29.6185 14.6772 29.5448 14.6772C29.4726 14.6772 29.4121 14.7731 29.4121 14.891C29.4121 15.0104 29.4726 15.1062 29.5448 15.1062Z" fill="#508C31"/>
<path fill-rule="evenodd" clip-rule="evenodd" d="M28.2137 16.4981C28.286 16.4981 28.3464 16.4023 28.3464 16.2843C28.3464 16.1664 28.286 16.0691 28.2137 16.0691C28.14 16.0691 28.0811 16.1664 28.0811 16.2843C28.0811 16.4023 28.14 16.4981 28.2137 16.4981Z" fill="#82CD2B"/>
<path fill-rule="evenodd" clip-rule="evenodd" d="M28.1981 16.501C28.2703 16.501 28.3308 16.4052 28.3308 16.2873C28.3308 16.1678 28.2703 16.072 28.1981 16.072C28.1244 16.072 28.0654 16.1678 28.0654 16.2873C28.0654 16.4052 28.1244 16.501 28.1981 16.501Z" fill="#508C31"/>
<path fill-rule="evenodd" clip-rule="evenodd" d="M28.6278 12.836C28.7 12.836 28.7605 12.7402 28.7605 12.6207C28.7605 12.5028 28.7 12.407 28.6278 12.407C28.5541 12.407 28.4951 12.5028 28.4951 12.6207C28.4951 12.7402 28.5541 12.836 28.6278 12.836Z" fill="#82CD2B"/>
<path fill-rule="evenodd" clip-rule="evenodd" d="M28.6112 12.8389C28.6834 12.8389 28.7424 12.7431 28.7424 12.6237C28.7424 12.5057 28.6834 12.4084 28.6112 12.4084C28.5375 12.4084 28.4785 12.5057 28.4785 12.6237C28.4785 12.7431 28.5375 12.8389 28.6112 12.8389Z" fill="#508C31"/>
<path fill-rule="evenodd" clip-rule="evenodd" d="M29.09 24.6417C29.1843 24.6417 29.2624 24.5179 29.2624 24.3646C29.2624 24.2112 29.1843 24.0859 29.09 24.0859C28.9956 24.0859 28.9189 24.2112 28.9189 24.3646C28.9189 24.5179 28.9956 24.6417 29.09 24.6417Z" fill="#82CD2B"/>
<path fill-rule="evenodd" clip-rule="evenodd" d="M29.0675 24.6446C29.1618 24.6446 29.2385 24.5208 29.2385 24.3675C29.2385 24.2142 29.1618 24.0903 29.0675 24.0903C28.9731 24.0903 28.8965 24.2142 28.8965 24.3675C28.8965 24.5208 28.9731 24.6446 29.0675 24.6446Z" fill="#508C31"/>
<path fill-rule="evenodd" clip-rule="evenodd" d="M25.6854 21.2862C25.7591 21.2862 25.8181 21.1904 25.8181 21.0724C25.8181 20.953 25.7591 20.8572 25.6854 20.8572C25.6132 20.8572 25.5527 20.953 25.5527 21.0724C25.5527 21.1904 25.6132 21.2862 25.6854 21.2862Z" fill="#82CD2B"/>
<path fill-rule="evenodd" clip-rule="evenodd" d="M25.6669 21.2893C25.7391 21.2893 25.7995 21.1935 25.7995 21.0741C25.7995 20.9562 25.7391 20.8604 25.6669 20.8604C25.5931 20.8604 25.5342 20.9562 25.5342 21.0741C25.5342 21.1935 25.5931 21.2893 25.6669 21.2893Z" fill="#508C31"/>
<path fill-rule="evenodd" clip-rule="evenodd" d="M29.9198 28.1768C29.9935 28.1768 30.0525 28.0795 30.0525 27.9616C30.0525 27.8436 29.9935 27.7463 29.9198 27.7463C29.8476 27.7463 29.7871 27.8436 29.7871 27.9616C29.7871 28.0795 29.8476 28.1768 29.9198 28.1768Z" fill="#82CD2B"/>
<path fill-rule="evenodd" clip-rule="evenodd" d="M29.9012 28.1783C29.9749 28.1783 30.0339 28.0824 30.0339 27.9645C30.0339 27.8451 29.9749 27.7493 29.9012 27.7493C29.8275 27.7493 29.7686 27.8451 29.7686 27.9645C29.7686 28.0824 29.8275 28.1783 29.9012 28.1783Z" fill="#508C31"/>
<path fill-rule="evenodd" clip-rule="evenodd" d="M28.0997 26.9546C28.2294 26.9546 28.3355 26.7821 28.3355 26.5713C28.3355 26.3605 28.2294 26.188 28.0997 26.188C27.9699 26.188 27.8623 26.3605 27.8623 26.5713C27.8623 26.7821 27.9699 26.9546 28.0997 26.9546Z" fill="#82CD2B"/>
<path fill-rule="evenodd" clip-rule="evenodd" d="M28.0669 26.959C28.1967 26.959 28.3043 26.7865 28.3043 26.5757C28.3043 26.3649 28.1967 26.1924 28.0669 26.1924C27.9372 26.1924 27.8311 26.3649 27.8311 26.5757C27.8311 26.7865 27.9372 26.959 28.0669 26.959Z" fill="#508C31"/>
<path fill-rule="evenodd" clip-rule="evenodd" d="M3.2793 35.2337C3.2793 35.2337 6.50784 38.6421 8.58944 38.679C10.671 38.7144 23.6972 39.1449 25.4545 38.3915C27.2133 37.6382 31.1966 33.7979 30.9814 34.1561C30.7661 34.5158 26.5675 39.2525 24.7012 39.2525C22.8348 39.2525 8.44644 39.6476 7.22578 39.0004C6.00513 38.3561 3.2793 35.2337 3.2793 35.2337Z" fill="#F6E9F6"/>
<path fill-rule="evenodd" clip-rule="evenodd" d="M26.4609 5.28809C26.4609 5.28809 30.7494 11.2454 31.1799 11.9634C31.6104 12.6798 31.9332 13.1103 31.9686 15.0312C32.0055 16.9506 32.1308 32.1115 31.8625 32.1115C31.5927 32.1115 31.4851 29.7616 31.4851 28.3257C31.4851 26.8898 31.6664 14.8587 31.4954 13.9535C31.3259 13.0469 30.9838 12.186 30.5003 11.6479C30.0153 11.1098 26.4609 5.28809 26.4609 5.28809Z" fill="#D2CEDE"/>
<path fill-rule="evenodd" clip-rule="evenodd" d="M6.37206 5.28809C6.37206 5.28809 2.08356 11.2454 1.65309 11.9634C1.22261 12.6798 0.899759 13.1103 0.862904 15.0312C0.827523 16.9506 0.702214 32.1115 0.970522 32.1115C1.2403 32.1115 1.34792 29.7616 1.34792 28.3257C1.34792 26.8898 1.16659 14.8587 1.3376 13.9535C1.50714 13.0469 1.84916 12.186 2.3327 11.6479C2.81772 11.1098 6.37206 5.28809 6.37206 5.28809Z" fill="#FDFEFF"/>
<path fill-rule="evenodd" clip-rule="evenodd" d="M21.3457 32.9016C21.3457 32.9016 27.1585 32.7423 28.1817 32.6819C29.2048 32.62 31.2878 32.4991 31.2687 32.3001C31.251 32.1011 31.2333 14.4841 31.2333 14.4841C31.2333 14.4841 30.9443 30.988 29.5276 31.616C28.1094 32.2441 21.3457 32.9016 21.3457 32.9016Z" fill="#5CA332"/>
<path fill-rule="evenodd" clip-rule="evenodd" d="M23.1578 34.0855C23.1578 34.0855 25.465 34.0471 26.4675 33.9955C27.4714 33.9454 30.2164 33.7051 30.4493 33.6712C30.6808 33.6373 28.2542 36.3071 26.2935 36.7302C24.3313 37.1548 23.1003 37.3789 22.3087 37.314C21.517 37.2491 26.9083 36.487 27.4463 35.3828C27.9844 34.2801 26.0473 34.6929 23.1578 34.0855Z" fill="#5CA332"/>
<path fill-rule="evenodd" clip-rule="evenodd" d="M16.9189 4.63935C16.9189 4.63935 21.2502 4.91797 23.7254 6.31701C26.2021 7.71752 28.468 9.12097 28.9574 10.1603C29.4483 11.1981 25.3308 4.49487 25.3308 4.49487C25.3308 4.49487 20.4777 4.69094 16.9189 4.63935Z" fill="#D5C7DD"/>
<path d="M21.2202 14.7083C20.2355 14.6671 19.1726 14.6037 18.0315 14.5182C18.0197 14.1275 18.0065 13.7855 17.9902 13.5009C18.1539 13.498 18.3175 13.4936 18.4797 13.4892C18.5976 13.753 18.8482 13.9358 19.1357 13.9358C19.174 13.9358 19.2109 13.9329 19.2463 13.927C19.5426 13.9211 19.7976 13.7236 19.9052 13.4435C20.3357 13.4272 20.7603 13.4095 21.1745 13.3904C21.1908 13.753 21.2055 14.1983 21.2202 14.7083Z" fill="#94D34F"/>
<path d="M24.1409 14.7746C23.2579 14.7746 22.2849 14.754 21.2205 14.7083C21.2058 14.1982 21.191 13.753 21.1748 13.3903C23.9006 13.2591 26.1783 13.0336 26.7945 12.6517C28.5813 11.5446 28.4103 10.0719 28.4088 10.0586C28.4206 10.0689 31.2835 12.7844 30.4904 13.8355C30.0791 14.381 27.9518 14.7746 24.1409 14.7746ZM28.6786 13.697C28.5459 13.6999 28.4398 13.8768 28.4398 14.0921C28.4398 14.3088 28.5488 14.4871 28.683 14.4871C28.6963 14.4871 28.7081 14.4857 28.7199 14.4827C28.8525 14.4783 28.9602 14.3029 28.9602 14.0876C28.9602 13.8695 28.8511 13.6911 28.7154 13.6911C28.7036 13.6911 28.6904 13.694 28.6786 13.697ZM29.7813 12.7461C29.6752 12.7505 29.5896 12.926 29.5896 13.1412C29.5896 13.3594 29.6781 13.5363 29.7842 13.5363C29.7946 13.5363 29.8049 13.5348 29.8152 13.5319C29.9199 13.5274 30.0054 13.352 30.0054 13.1368C30.0054 12.9186 29.9184 12.7417 29.8108 12.7417C29.8005 12.7417 29.7916 12.7431 29.7813 12.7461ZM28.6078 12.4085C28.5356 12.4114 28.4781 12.5073 28.4781 12.6237C28.4781 12.7431 28.5371 12.839 28.6108 12.839C28.6167 12.839 28.624 12.8375 28.6314 12.836C28.7022 12.8345 28.7611 12.7387 28.7611 12.6208C28.7611 12.5028 28.7007 12.407 28.6285 12.407C28.6211 12.407 28.6152 12.407 28.6078 12.4085Z" fill="#8FCB4E"/>
<path d="M29.8152 13.5319C29.908 13.5024 29.9788 13.3373 29.9788 13.1412C29.9788 12.923 29.8918 12.7461 29.7842 12.7461C29.7842 12.7461 29.7827 12.7461 29.7812 12.7461C29.7916 12.7432 29.8004 12.7417 29.8107 12.7417C29.9184 12.7417 30.0053 12.9186 30.0053 13.1368C30.0053 13.352 29.9198 13.5275 29.8152 13.5319Z" fill="#A2D958"/>
<path d="M29.7835 13.5363C29.6773 13.5363 29.5889 13.3594 29.5889 13.1412C29.5889 12.9259 29.6744 12.7505 29.7805 12.7461C29.782 12.7461 29.7835 12.7461 29.7835 12.7461C29.8911 12.7461 29.9781 12.923 29.9781 13.1412C29.9781 13.3373 29.9073 13.5024 29.8144 13.5319C29.8041 13.5348 29.7938 13.5363 29.7835 13.5363Z" fill="#7BAC51"/>
<path d="M19.2471 13.9269C19.5021 13.8842 19.7144 13.6984 19.8102 13.4463C19.8427 13.4463 19.8736 13.4448 19.906 13.4434C19.7984 13.7235 19.5434 13.921 19.2471 13.9269Z" fill="#A2D958"/>
<path d="M19.1355 13.9357C18.848 13.9357 18.5974 13.7529 18.4795 13.489C18.9262 13.4772 19.3714 13.4625 19.8092 13.4463C19.7134 13.6984 19.5011 13.8841 19.2461 13.9269C19.2107 13.9328 19.1738 13.9357 19.1355 13.9357Z" fill="#7BAC51"/>
<path d="M28.719 14.4828C28.8355 14.4533 28.9254 14.2882 28.9254 14.0921C28.9254 13.874 28.8163 13.6971 28.6822 13.6971C28.6807 13.6971 28.6792 13.6971 28.6777 13.6971C28.6895 13.6941 28.7028 13.6912 28.7146 13.6912C28.8502 13.6912 28.9593 13.8695 28.9593 14.0877C28.9593 14.303 28.8517 14.4784 28.719 14.4828Z" fill="#A2D958"/>
<path d="M28.6827 14.4872C28.5485 14.4872 28.4395 14.3088 28.4395 14.0921C28.4395 13.8769 28.5456 13.7 28.6783 13.697C28.6798 13.697 28.6812 13.697 28.6827 13.697C28.8169 13.697 28.9259 13.8739 28.9259 14.0921C28.9259 14.2882 28.836 14.4533 28.7196 14.4828C28.7078 14.4857 28.696 14.4872 28.6827 14.4872Z" fill="#7BAC51"/>
<path d="M28.63 12.836C28.692 12.8198 28.7406 12.7313 28.7406 12.6237C28.7406 12.5058 28.6816 12.4085 28.6094 12.4085C28.6079 12.4085 28.6079 12.4085 28.6064 12.4085C28.6138 12.407 28.6197 12.407 28.6271 12.407C28.6993 12.407 28.7598 12.5028 28.7598 12.6207C28.7598 12.7387 28.7008 12.8345 28.63 12.836Z" fill="#A2D958"/>
<path d="M28.6112 12.8389C28.5375 12.8389 28.4785 12.7431 28.4785 12.6237C28.4785 12.5072 28.536 12.4114 28.6082 12.4084C28.6097 12.4084 28.6097 12.4084 28.6112 12.4084C28.6834 12.4084 28.7424 12.5057 28.7424 12.6237C28.7424 12.7313 28.6938 12.8198 28.6318 12.836C28.6245 12.8374 28.6171 12.8389 28.6112 12.8389Z" fill="#7BAC51"/>
<path fill-rule="evenodd" clip-rule="evenodd" d="M5.53314 33.105C5.44469 33.3733 6.0727 33.6431 9.53565 33.7153C12.9971 33.7861 19.7446 33.8583 19.7255 33.5178C19.7078 33.1757 8.97839 33.4101 5.53314 33.105Z" fill="white"/>
<path fill-rule="evenodd" clip-rule="evenodd" d="M15.8682 34.0605C15.8682 34.0605 9.55266 34.1593 7.24108 34.0487C4.92803 33.9366 2.4248 33.6875 2.4248 33.6875C2.4248 33.6875 3.77814 35.2133 4.59486 35.7249C5.41157 36.235 6.5025 37.1106 10.3517 37.3097C14.1994 37.5102 20.3439 37.3966 20.3439 37.3966C20.3439 37.3966 11.8937 37.1961 10.2441 36.5858C8.59294 35.9755 9.26961 35.2089 11.876 35.0423C14.4839 34.8757 15.8682 34.0605 15.8682 34.0605Z" fill="#69B530"/>
<path fill-rule="evenodd" clip-rule="evenodd" d="M14.1743 34.0826C12.134 34.1032 8.78901 34.1224 7.24108 34.0487C4.92803 33.9366 2.4248 33.6875 2.4248 33.6875C2.4248 33.6875 3.77814 35.2133 4.59486 35.7249C5.40715 36.232 6.48923 37.0988 10.2765 37.3052C7.6347 37.0959 6.28579 36.2467 6.35065 35.4551C6.42289 34.5765 7.33838 34.5941 9.11334 34.4688C10.8898 34.3435 14.1743 34.0826 14.1743 34.0826Z" fill="#5CA332"/>
<path fill-rule="evenodd" clip-rule="evenodd" d="M9.87148 35.8795C10.0307 35.8795 10.1619 35.738 10.1619 35.5655C10.1619 35.393 10.0307 35.2515 9.87148 35.2515C9.71079 35.2515 9.58105 35.393 9.58105 35.5655C9.58105 35.738 9.71079 35.8795 9.87148 35.8795Z" fill="#82CD2B"/>
<path fill-rule="evenodd" clip-rule="evenodd" d="M9.83144 35.8824C9.99213 35.8824 10.1219 35.7424 10.1219 35.5684C10.1219 35.3959 9.99213 35.2544 9.83144 35.2544C9.67222 35.2544 9.54102 35.3959 9.54102 35.5684C9.54102 35.7424 9.67222 35.8824 9.83144 35.8824Z" fill="#508C31"/>
<path fill-rule="evenodd" clip-rule="evenodd" d="M12.5493 36.1656C12.6289 36.1656 12.6952 36.0948 12.6952 36.0078C12.6952 35.9209 12.6289 35.8501 12.5493 35.8501C12.4682 35.8501 12.4033 35.9209 12.4033 36.0078C12.4033 36.0948 12.4682 36.1656 12.5493 36.1656Z" fill="#82CD2B"/>
<path fill-rule="evenodd" clip-rule="evenodd" d="M12.5307 36.167C12.6118 36.167 12.6767 36.0963 12.6767 36.0093C12.6767 35.9223 12.6118 35.8516 12.5307 35.8516C12.4511 35.8516 12.3848 35.9223 12.3848 36.0093C12.3848 36.0963 12.4511 36.167 12.5307 36.167Z" fill="#508C31"/>
<path fill-rule="evenodd" clip-rule="evenodd" d="M15.8305 35.2486C15.9101 35.2486 15.9765 35.1778 15.9765 35.0908C15.9765 35.0039 15.9101 34.9331 15.8305 34.9331C15.7494 34.9331 15.6846 35.0039 15.6846 35.0908C15.6846 35.1778 15.7494 35.2486 15.8305 35.2486Z" fill="#82CD2B"/>
<path fill-rule="evenodd" clip-rule="evenodd" d="M15.812 35.2515C15.893 35.2515 15.9579 35.1793 15.9579 35.0923C15.9579 35.0053 15.893 34.9346 15.812 34.9346C15.7324 34.9346 15.666 35.0053 15.666 35.0923C15.666 35.1793 15.7324 35.2515 15.812 35.2515Z" fill="#508C31"/>
<path fill-rule="evenodd" clip-rule="evenodd" d="M20.7182 35.8455C20.8788 35.8455 21.0086 35.704 21.0086 35.5315C21.0086 35.3591 20.8788 35.2175 20.7182 35.2175C20.5589 35.2175 20.4277 35.3591 20.4277 35.5315C20.4277 35.704 20.5589 35.8455 20.7182 35.8455Z" fill="#82CD2B"/>
<path fill-rule="evenodd" clip-rule="evenodd" d="M20.6781 35.8487C20.8388 35.8487 20.9685 35.7087 20.9685 35.5362C20.9685 35.3622 20.8388 35.2222 20.6781 35.2222C20.5189 35.2222 20.3877 35.3622 20.3877 35.5362C20.3877 35.7087 20.5189 35.8487 20.6781 35.8487Z" fill="#508C31"/>
<path fill-rule="evenodd" clip-rule="evenodd" d="M21.6577 34.7945C21.6975 34.7945 21.7299 34.7591 21.7299 34.7163C21.7299 34.6721 21.6975 34.6367 21.6577 34.6367C21.6164 34.6367 21.584 34.6721 21.584 34.7163C21.584 34.7591 21.6164 34.7945 21.6577 34.7945Z" fill="#82CD2B"/>
<path fill-rule="evenodd" clip-rule="evenodd" d="M21.647 34.7959C21.6868 34.7959 21.7207 34.7606 21.7207 34.7163C21.7207 34.6736 21.6868 34.6367 21.647 34.6367C21.6071 34.6367 21.5732 34.6736 21.5732 34.7163C21.5732 34.7606 21.6071 34.7959 21.647 34.7959Z" fill="#508C31"/>
<path fill-rule="evenodd" clip-rule="evenodd" d="M9.01414 35.9239C9.05394 35.9239 9.08638 35.8885 9.08638 35.8457C9.08638 35.8015 9.05394 35.7661 9.01414 35.7661C8.97286 35.7661 8.94043 35.8015 8.94043 35.8457C8.94043 35.8885 8.97286 35.9239 9.01414 35.9239Z" fill="#82CD2B"/>
<path fill-rule="evenodd" clip-rule="evenodd" d="M9.0034 35.9253C9.0432 35.9253 9.07711 35.8899 9.07711 35.8457C9.07711 35.8015 9.0432 35.7661 9.0034 35.7661C8.96359 35.7661 8.92969 35.8015 8.92969 35.8457C8.92969 35.8899 8.96359 35.9253 9.0034 35.9253Z" fill="#508C31"/>
<path fill-rule="evenodd" clip-rule="evenodd" d="M14.5679 34.9539C14.6077 34.9539 14.6416 34.9185 14.6416 34.8758C14.6416 34.8315 14.6077 34.7961 14.5679 34.7961C14.528 34.7961 14.4941 34.8315 14.4941 34.8758C14.4941 34.9185 14.528 34.9539 14.5679 34.9539Z" fill="#82CD2B"/>
<path fill-rule="evenodd" clip-rule="evenodd" d="M14.5566 34.9554C14.5979 34.9554 14.6303 34.92 14.6303 34.8758C14.6303 34.833 14.5979 34.7961 14.5566 34.7961C14.5168 34.7961 14.4844 34.833 14.4844 34.8758C14.4844 34.92 14.5168 34.9554 14.5566 34.9554Z" fill="#508C31"/>
<path fill-rule="evenodd" clip-rule="evenodd" d="M19.6631 36.5696C19.7043 36.5696 19.7368 36.5342 19.7368 36.49C19.7368 36.4458 19.7043 36.4104 19.6631 36.4104C19.6233 36.4104 19.5908 36.4458 19.5908 36.49C19.5908 36.5342 19.6233 36.5696 19.6631 36.5696Z" fill="#82CD2B"/>
<path fill-rule="evenodd" clip-rule="evenodd" d="M19.6518 36.5696C19.6916 36.5696 19.7255 36.5342 19.7255 36.4915C19.7255 36.4472 19.6916 36.4119 19.6518 36.4119C19.6106 36.4119 19.5781 36.4472 19.5781 36.4915C19.5781 36.5342 19.6106 36.5696 19.6518 36.5696Z" fill="#508C31"/>
<path fill-rule="evenodd" clip-rule="evenodd" d="M24.7111 35.6245C24.8099 35.6245 24.8909 35.5375 24.8909 35.4314C24.8909 35.3253 24.8099 35.2383 24.7111 35.2383C24.6138 35.2383 24.5342 35.3253 24.5342 35.4314C24.5342 35.5375 24.6138 35.6245 24.7111 35.6245Z" fill="#82CD2B"/>
<path fill-rule="evenodd" clip-rule="evenodd" d="M24.6881 35.626C24.7869 35.626 24.8665 35.539 24.8665 35.4329C24.8665 35.3267 24.7869 35.2397 24.6881 35.2397C24.5894 35.2397 24.5098 35.3267 24.5098 35.4329C24.5098 35.539 24.5894 35.626 24.6881 35.626Z" fill="#508C31"/>
<path d="M18.0154 32.9134C13.7785 32.8603 10.7873 32.8235 6.55188 32.7704C6.5504 32.7704 6.54893 32.7704 6.54746 32.7704C6.55778 32.508 6.5681 32.2456 6.57841 31.9832C6.53714 29.3355 6.49733 26.6863 6.45605 24.0371C6.602 24.9113 6.92633 25.7413 7.40103 26.502C7.39071 28.5748 7.38776 30.2082 7.39808 30.6976C7.42609 31.9743 7.92585 32.1615 8.27524 32.1615C8.38876 32.1615 8.48605 32.1424 8.5465 32.1335C8.62463 32.1217 8.65706 30.4279 8.66296 28.047C10.5013 29.8131 13.2832 30.9409 16.3967 30.9497H16.3982C16.4026 30.9497 16.4085 30.9497 16.4129 30.9497H16.4144C16.4203 30.9497 16.4247 30.9497 16.4306 30.9497C16.438 30.9497 16.4454 30.9497 16.4527 30.9497C16.4542 30.9497 16.4557 30.9497 16.4572 30.9497C16.466 30.9497 16.4734 30.9497 16.4807 30.9497H16.4822C16.4911 30.9497 16.4984 30.9497 16.5058 30.9483C16.5073 30.9483 16.5073 30.9483 16.5073 30.9483C16.5161 30.9483 16.5235 30.9483 16.5323 30.9483C16.5323 30.9483 16.5323 30.9483 16.5338 30.9483C16.8729 30.9468 17.209 30.9306 17.5392 30.9011C17.5422 30.9011 17.5466 30.9011 17.5496 30.8996C17.551 30.8996 17.554 30.8996 17.5569 30.8996C17.7191 30.8849 17.8798 30.8672 18.039 30.848C18.0257 32.1203 18.0154 32.9134 18.0154 32.9134Z" fill="#8CCF43"/>
<path d="M7.95312 8.78649C8.81849 6.77271 9.70008 4.8916 9.70008 4.8916C11.5428 4.97268 13.1704 4.99037 14.2274 4.99037C15.0235 4.99037 15.4967 4.98005 15.4967 4.98005C15.4967 4.98005 16.0628 6.74175 16.6525 8.59779C16.5788 8.59779 16.5036 8.59779 16.4299 8.59779C14.6711 8.59779 12.9994 8.62285 11.4942 8.66855H11.4736C11.4102 8.6715 11.3365 8.6715 11.2524 8.6715C10.9148 8.6715 10.4269 8.65676 9.91384 8.61843C10.5227 7.299 11.0932 6.22577 11.0932 6.22577C11.0932 6.22577 10.3694 7.3565 9.60278 8.59189C9.60278 8.59189 9.6013 8.59189 9.59983 8.59189C9.48926 8.58157 9.38459 8.57715 9.28435 8.57715C8.70203 8.57715 8.30841 8.73489 7.9944 8.78059C7.97966 8.78207 7.96639 8.78354 7.95312 8.78649Z" fill="#EFE4F4"/>
<path d="M6.42671 22.1193C6.39427 20.0716 6.36332 18.0225 6.33088 15.9748C6.33236 15.9703 6.33236 15.963 6.33236 15.9571C6.33236 15.9497 6.33088 15.9423 6.33088 15.935C6.31761 15.1006 6.30435 14.2661 6.29108 13.4317C6.28666 13.1133 6.51663 12.3806 6.85718 11.4725L7.88029 11.5506C7.35989 12.7108 7.48814 13.7251 7.48814 13.7251C7.48814 13.7251 7.46751 16.2667 7.44539 19.392C6.91172 20.2264 6.55791 21.1463 6.42671 22.1193ZM8.58791 17.99C8.55106 15.4617 8.50683 13.4686 8.4744 12.9718C8.45228 12.6416 8.54811 12.1654 8.71617 11.6155L9.80414 11.701C9.64493 12.1816 9.48571 12.8288 9.45918 13.5526C9.2292 13.5512 9.10389 13.5482 9.10389 13.5482C9.22183 13.5644 9.33976 13.5806 9.4577 13.5969C9.4518 13.8195 9.4577 14.048 9.47982 14.2809C9.52846 14.7777 9.55795 15.848 9.57564 17.1497C9.22183 17.4107 8.8916 17.6908 8.58791 17.99ZM12.1644 13.5659C11.2695 13.5659 10.5147 13.5615 9.97958 13.557C9.94567 13.0249 9.92356 12.4013 10.0032 11.7157L17.8151 12.3231C17.849 12.4411 17.8784 12.5428 17.9006 12.6239C17.9359 12.7521 17.9669 13.0573 17.9905 13.501C17.8445 13.5055 17.6971 13.5084 17.5497 13.5113C17.5467 13.4465 17.4951 13.3934 17.4332 13.3934C17.4273 13.3934 17.4214 13.3949 17.4155 13.3949C17.3536 13.3964 17.3035 13.4509 17.3005 13.5172C15.4371 13.5541 13.615 13.5659 12.1644 13.5659ZM15.7585 10.3315C15.1556 10.3315 14.4258 10.274 13.7609 10.1914C14.6204 10.2047 15.5123 10.212 16.4308 10.212C16.5679 10.212 16.7035 10.212 16.8391 10.212C16.618 10.2961 16.2273 10.3315 15.7585 10.3315Z" fill="#8CCF43"/>
<path d="M16.4293 10.2121C15.5109 10.2121 14.619 10.2047 13.7595 10.1914C13.1035 10.1118 12.5123 10.0071 12.1732 9.91132C11.8238 9.81107 11.0661 9.78159 10.242 9.78159C9.96338 9.78159 9.67591 9.78601 9.39433 9.79043C9.5624 9.39239 9.7393 8.99583 9.91326 8.61843C10.4263 8.65676 10.9143 8.6715 11.2519 8.6715C11.3359 8.6715 11.4096 8.6715 11.473 8.66855H11.4936C12.9988 8.62285 14.6706 8.59779 16.4293 8.59779C16.503 8.59779 16.5782 8.59779 16.6519 8.59779C16.8126 9.10492 16.9762 9.61942 17.1296 10.1074C17.0308 10.1398 16.9335 10.1752 16.8391 10.2121C16.8391 10.2121 16.8391 10.2121 16.8377 10.2121C16.702 10.2121 16.5664 10.2121 16.4293 10.2121ZM7.50586 9.84055C7.65181 9.49116 7.80218 9.13588 7.95255 8.78649C7.96582 8.78354 7.97908 8.78206 7.99383 8.78059C8.30783 8.73489 8.70145 8.57715 9.28377 8.57715C9.38401 8.57715 9.48868 8.58157 9.59925 8.59189C9.60073 8.59189 9.6022 8.59189 9.6022 8.59189C9.35306 8.99583 9.09802 9.41156 8.86214 9.80222C8.73536 9.80517 8.613 9.8096 8.49359 9.81254C8.09407 9.82434 7.74763 9.83466 7.50586 9.84055Z" fill="#A7DB5E"/>
<path d="M17.8143 12.323L10.0024 11.7157C10.0363 11.4326 10.0865 11.1393 10.1616 10.837C10.1616 10.837 9.98179 11.1658 9.80341 11.7009L8.71544 11.6154C8.88497 11.0567 9.12822 10.4228 9.39505 9.79034C9.67663 9.78592 9.9641 9.78149 10.2427 9.78149C11.0668 9.78149 11.8246 9.81098 12.174 9.91123C12.513 10.0071 13.1042 10.1117 13.7602 10.1913C14.4251 10.2739 15.1548 10.3314 15.7578 10.3314C16.2266 10.3314 16.6173 10.296 16.8384 10.212C16.8399 10.212 16.8399 10.212 16.8399 10.212C16.9342 10.1751 17.0315 10.1397 17.1303 10.1073C17.4133 11.0095 17.6654 11.8203 17.8143 12.323ZM7.87955 11.5506L6.85645 11.4724C7.04662 10.9682 7.26923 10.411 7.50658 9.84046C7.74835 9.83457 8.09479 9.82425 8.4943 9.81245C8.61371 9.8095 8.73607 9.80508 8.86286 9.80213C8.48104 10.4346 8.15081 11.0036 7.97243 11.3574C7.93852 11.4223 7.90756 11.4872 7.87955 11.5506Z" fill="#8CCF43"/>
<path d="M6.33105 15.9746C6.33105 15.9614 6.33105 15.9481 6.33105 15.9348C6.33105 15.9422 6.33253 15.9496 6.33253 15.9569C6.33253 15.9628 6.33253 15.9702 6.33105 15.9746Z" fill="#9CD74D"/>
<path d="M17.5354 13.5112C17.5295 13.4464 17.4794 13.3948 17.4175 13.3948H17.416C17.4219 13.3948 17.4278 13.3933 17.4337 13.3933C17.4956 13.3933 17.5472 13.4464 17.5502 13.5112C17.5457 13.5112 17.5399 13.5112 17.5354 13.5112Z" fill="#9CD74D"/>
<path d="M17.2998 13.5171C17.3028 13.4508 17.3529 13.3962 17.4148 13.3948H17.4163C17.4782 13.3948 17.5283 13.4464 17.5342 13.5112C17.4561 13.5142 17.3779 13.5157 17.2998 13.5171Z" fill="#71A546"/>
<path d="M9.95605 16.8828C10.0047 15.4483 10.0342 14.3574 10.018 14.1201C10.0091 13.9785 9.99733 13.8267 9.98701 13.6675C12.1718 13.955 14.1841 14.179 16.0239 14.3486C15.7689 14.4193 15.5787 14.6714 15.5787 14.9692C15.5787 14.9943 15.5802 15.0179 15.5817 15.0429C13.4485 15.183 11.5025 15.8523 9.95605 16.8828ZM18.048 15.1166C18.0436 15.1166 18.0377 15.1152 18.0333 15.1152C18.0318 14.9766 17.9286 14.8631 17.8004 14.8631C17.7886 14.8631 17.7768 14.8645 17.765 14.8675C17.6559 14.869 17.5645 14.9515 17.5409 15.0621C17.4186 15.0518 17.2962 15.0429 17.1738 15.0356C17.0633 15.0297 16.9527 15.0252 16.8407 15.0208C16.8421 15.0016 16.8436 14.981 16.8436 14.9618C16.8436 14.7157 16.7139 14.5004 16.5237 14.3943C17.0412 14.44 17.5439 14.4812 18.0318 14.5181C18.0377 14.7068 18.0436 14.9073 18.048 15.1166Z" fill="#8CCF43"/>
<path d="M16.8397 15.0209C16.8131 15.0194 16.7866 15.0194 16.76 15.0194C16.7615 15.0017 16.7615 14.9855 16.7615 14.9693C16.7615 14.7084 16.617 14.4843 16.4092 14.384C16.4475 14.387 16.4858 14.3914 16.5227 14.3944C16.7129 14.5005 16.8426 14.7157 16.8426 14.9619C16.8426 14.9811 16.8411 15.0017 16.8397 15.0209Z" fill="#9CD74D"/>
<path d="M15.5811 15.043C15.5796 15.0179 15.5781 14.9943 15.5781 14.9693C15.5781 14.6715 15.7683 14.4194 16.0233 14.3486C16.1531 14.3604 16.2828 14.3722 16.4096 14.384C16.6174 14.4843 16.7619 14.7083 16.7619 14.9693C16.7619 14.9855 16.7619 15.0017 16.7604 15.0194C16.6514 15.0165 16.5408 15.015 16.4302 15.015C16.1914 15.015 15.9555 15.0209 15.7226 15.0341C15.702 15.0356 15.6828 15.0356 15.6622 15.0371H15.6607C15.6563 15.0371 15.6518 15.0386 15.6459 15.0386C15.6415 15.0386 15.6371 15.0386 15.6327 15.04C15.6312 15.04 15.6312 15.04 15.6312 15.04C15.615 15.04 15.5988 15.0415 15.5811 15.043Z" fill="#71A546"/>
<path d="M18.032 15.1151C18.0217 15.1137 18.0099 15.1122 17.9995 15.1107C17.9966 14.9766 17.8934 14.8675 17.7666 14.8675C17.7651 14.8675 17.7651 14.8675 17.7637 14.8675C17.7755 14.8645 17.7873 14.863 17.7991 14.863C17.9273 14.863 18.0305 14.9766 18.032 15.1151Z" fill="#9CD74D"/>
<path d="M18.001 15.1109C17.8491 15.0918 17.6958 15.0755 17.541 15.0623C17.5646 14.9517 17.656 14.8691 17.7651 14.8677C17.7666 14.8677 17.7666 14.8677 17.768 14.8677C17.8948 14.8677 17.998 14.9768 18.001 15.1109Z" fill="#71A546"/>
<path d="M18.0307 14.5182C17.5427 14.4813 17.04 14.4401 16.5226 14.3944C16.4415 14.3487 16.3486 14.3221 16.2498 14.3221C16.2189 14.3221 16.1894 14.3236 16.1599 14.3295C16.1127 14.3295 16.067 14.3369 16.0228 14.3487C14.183 14.1791 12.1707 13.955 9.98589 13.6676C9.98294 13.6307 9.98146 13.5939 9.97852 13.557C10.5137 13.5614 11.2685 13.5658 12.1633 13.5658C13.6139 13.5658 15.4361 13.554 17.2995 13.5172C17.2995 13.5187 17.2995 13.5201 17.2995 13.5216C17.2995 13.5924 17.3511 13.6484 17.416 13.6484C17.4219 13.6484 17.4292 13.6484 17.4351 13.6469C17.4985 13.6469 17.5501 13.5894 17.5501 13.5201C17.5501 13.5172 17.5501 13.5142 17.5486 13.5113C17.6961 13.5083 17.8435 13.5054 17.9894 13.501C18.0056 13.7855 18.0189 14.1275 18.0307 14.5182Z" fill="#ABDD6C"/>
<path d="M16.5218 14.3943C16.485 14.3913 16.4467 14.3869 16.4083 14.3839C16.3361 14.3486 16.255 14.3294 16.1695 14.3294C16.1651 14.3294 16.1621 14.3294 16.1592 14.3294C16.1887 14.3235 16.2181 14.322 16.2491 14.322C16.3479 14.322 16.4408 14.3486 16.5218 14.3943Z" fill="#B7E176"/>
<path d="M16.4097 14.3839C16.2829 14.3721 16.1532 14.3603 16.0234 14.3485C16.0677 14.3367 16.1134 14.3293 16.1605 14.3293C16.1635 14.3293 16.1664 14.3293 16.1709 14.3293C16.2564 14.3293 16.3374 14.3485 16.4097 14.3839Z" fill="#96BE6F"/>
<path d="M17.4355 13.6469C17.4916 13.638 17.5343 13.5849 17.5343 13.5216C17.5343 13.5186 17.5343 13.5157 17.5343 13.5112C17.5387 13.5112 17.5446 13.5112 17.5491 13.5112C17.5505 13.5142 17.5505 13.5171 17.5505 13.5201C17.5505 13.5894 17.4989 13.6469 17.4355 13.6469Z" fill="#B7E176"/>
<path d="M17.4163 13.6483C17.3514 13.6483 17.2998 13.5923 17.2998 13.5216C17.2998 13.5201 17.2998 13.5186 17.2998 13.5171C17.3779 13.5157 17.4561 13.5142 17.5342 13.5112C17.5342 13.5157 17.5342 13.5186 17.5342 13.5216C17.5342 13.5849 17.4915 13.638 17.4354 13.6469C17.4295 13.6483 17.4222 13.6483 17.4163 13.6483Z" fill="#96BE6F"/>
<path d="M9.45733 13.5967C9.33939 13.5805 9.22145 13.5643 9.10352 13.5481C9.10352 13.5481 9.22882 13.551 9.4588 13.5525C9.4588 13.5673 9.45733 13.582 9.45733 13.5967Z" fill="#ABDD6C"/>
<path d="M15.0379 37.6972C12.716 37.6972 9.29876 37.5763 8.8329 37.3374C8.76656 37.3035 8.6958 37.249 8.61914 37.1768C8.93168 37.2151 9.26043 37.2446 9.60687 37.2667C9.81621 37.28 10.0255 37.2917 10.2349 37.3035C10.2555 37.305 10.2762 37.305 10.2968 37.3065C12.3165 37.4171 14.3509 37.4524 16.3691 37.4524C16.6816 37.4524 16.9927 37.451 17.3052 37.4495C17.2669 37.532 17.2286 37.5866 17.1947 37.6058C17.0871 37.6662 16.1996 37.6972 15.0379 37.6972Z" fill="#DCD9E5"/>
<path d="M16.3673 37.4525C14.3491 37.4525 12.3147 37.4171 10.295 37.3066C10.3142 37.308 10.3333 37.3095 10.351 37.3095C12.1511 37.4039 14.4538 37.4274 16.3953 37.4274C16.7123 37.4274 17.0204 37.4274 17.3138 37.426C17.3108 37.4348 17.3064 37.4422 17.3035 37.4496C16.9909 37.451 16.6799 37.4525 16.3673 37.4525ZM10.2331 37.3036C10.0238 37.2918 9.81442 37.28 9.60508 37.2668C9.25864 37.2446 8.92989 37.2152 8.61736 37.1768C8.60851 37.1695 8.59967 37.1606 8.59082 37.1518C9.07289 37.2166 9.61688 37.2682 10.2331 37.3036ZM17.3683 37.2918C14.7649 37.1768 11.2474 36.9572 10.2434 36.5857C9.35299 36.2569 9.13923 35.8825 9.54022 35.5802C9.54611 35.7483 9.67437 35.8825 9.83064 35.8825C9.84538 35.8825 9.86012 35.881 9.87487 35.8795C10.0326 35.8766 10.1609 35.7365 10.1609 35.5655C10.1609 35.4726 10.124 35.3901 10.065 35.3326C10.4881 35.1955 11.0955 35.0923 11.8754 35.0422C13.4071 34.9449 14.5172 34.6235 15.1717 34.3743C16.8804 34.3404 18.0185 34.2874 18.0185 34.2874C18.0185 34.2874 17.6705 36.4545 17.3683 37.2918ZM12.5255 35.8515C12.4459 35.853 12.3825 35.9237 12.3825 36.0092C12.3825 36.0962 12.4489 36.167 12.5285 36.167C12.5358 36.167 12.5447 36.1655 12.552 36.1655C12.6302 36.164 12.695 36.0933 12.695 36.0078C12.695 35.9208 12.6287 35.85 12.5491 35.85C12.5403 35.85 12.5329 35.85 12.5255 35.8515ZM15.8071 34.9345C15.729 34.936 15.6641 35.0068 15.6641 35.0923C15.6641 35.1793 15.7305 35.2515 15.8101 35.2515C15.8174 35.2515 15.8248 35.25 15.8322 35.2485C15.9118 35.2471 15.9767 35.1763 15.9767 35.0908C15.9767 35.0038 15.9103 34.9331 15.8307 34.9331C15.8219 34.9331 15.8145 34.9345 15.8071 34.9345ZM14.5555 34.796C14.5142 34.7974 14.4833 34.8328 14.4833 34.8756C14.4833 34.9198 14.5157 34.9552 14.5555 34.9552C14.5599 34.9552 14.5644 34.9552 14.5673 34.9537C14.6071 34.9537 14.6395 34.9183 14.6395 34.8756C14.6395 34.8313 14.6056 34.796 14.5658 34.796C14.5629 34.796 14.5585 34.796 14.5555 34.796Z" fill="#8CCF43"/>
<path d="M16.3962 37.4274C14.4547 37.4274 12.152 37.4038 10.3519 37.3094C10.3342 37.3094 10.3151 37.308 10.2959 37.3065C10.2753 37.305 10.2546 37.305 10.234 37.3035C9.61777 37.2682 9.07379 37.2166 8.59172 37.1517C9.08558 37.218 9.64283 37.2711 10.2767 37.305C9.58387 37.2505 8.98091 37.1517 8.46788 37.022C7.96222 36.4529 7.32978 35.3369 6.99219 34.7089C7.45214 34.5615 8.1583 34.5364 9.11359 34.4686C9.45266 34.445 9.84775 34.4155 10.2635 34.3846C10.9844 34.3979 11.6949 34.4023 12.3731 34.4023C13.3977 34.4023 14.3515 34.3905 15.1726 34.3743C14.5181 34.6234 13.408 34.9448 11.8763 35.0421C11.0964 35.0922 10.489 35.1954 10.0659 35.3325C10.0143 35.2824 9.94652 35.2514 9.87134 35.2514C9.8566 35.2514 9.84185 35.2529 9.82711 35.2544C9.66937 35.2573 9.54111 35.3974 9.54111 35.5684C9.54111 35.5728 9.54111 35.5772 9.54111 35.5802C9.14013 35.8824 9.35389 36.2568 10.2443 36.5856C11.2483 36.9571 14.7657 37.1768 17.3692 37.2917C17.3501 37.3419 17.3324 37.3861 17.3147 37.4259C17.0213 37.4274 16.7132 37.4274 16.3962 37.4274ZM9.00155 35.7659C8.96174 35.7674 8.92931 35.8028 8.92931 35.8455C8.92931 35.8898 8.96322 35.9251 9.00302 35.9251C9.00597 35.9251 9.01039 35.9251 9.01334 35.9237C9.05315 35.9237 9.08558 35.8883 9.08558 35.8455C9.08558 35.8013 9.05315 35.7659 9.01334 35.7659C9.00892 35.7659 9.00597 35.7659 9.00155 35.7659Z" fill="#86C741"/>
<path d="M10.2763 37.3051C9.64242 37.2712 9.08516 37.2181 8.5913 37.1518C8.5515 37.1119 8.51022 37.0692 8.46747 37.022C8.98049 37.1518 9.58345 37.2505 10.2763 37.3051ZM6.99177 34.709C6.84288 34.4333 6.75 34.2505 6.75 34.2505C7.90137 34.3227 9.09696 34.3625 10.2631 34.3846C9.84734 34.4156 9.45224 34.4451 9.11317 34.4687C8.15788 34.5365 7.45173 34.5615 6.99177 34.709Z" fill="#7AB63F"/>
<path d="M9.87677 35.8795C10.0154 35.8559 10.123 35.7262 10.123 35.5684C10.123 35.3959 9.99324 35.2544 9.83255 35.2544C9.83107 35.2544 9.8296 35.2544 9.82812 35.2544C9.84287 35.2529 9.85761 35.2515 9.87235 35.2515C9.94754 35.2515 10.0154 35.2824 10.0669 35.3325C10.1259 35.39 10.1628 35.4726 10.1628 35.5655C10.1628 35.7365 10.0345 35.8765 9.87677 35.8795Z" fill="#9CD74D"/>
<path d="M9.83144 35.8824C9.67517 35.8824 9.54691 35.7483 9.54102 35.5802C9.54102 35.5772 9.54102 35.5728 9.54102 35.5684C9.54102 35.3974 9.66927 35.2573 9.82701 35.2544C9.82849 35.2544 9.82996 35.2544 9.83144 35.2544C9.99213 35.2544 10.1219 35.3959 10.1219 35.5684C10.1219 35.7261 10.0142 35.8559 9.87566 35.8795C9.86092 35.8809 9.84618 35.8824 9.83144 35.8824Z" fill="#71A546"/>
<path d="M12.5529 36.1656C12.6222 36.1538 12.6753 36.0874 12.6753 36.0093C12.6753 35.9223 12.6104 35.8516 12.5293 35.8516C12.5293 35.8516 12.5278 35.8516 12.5264 35.8516C12.5337 35.8501 12.5411 35.8501 12.55 35.8501C12.6296 35.8501 12.6959 35.9209 12.6959 36.0078C12.6959 36.0933 12.631 36.1641 12.5529 36.1656Z" fill="#9CD74D"/>
<path d="M12.5307 36.167C12.4511 36.167 12.3848 36.0963 12.3848 36.0093C12.3848 35.9238 12.4482 35.853 12.5278 35.8516C12.5292 35.8516 12.5307 35.8516 12.5307 35.8516C12.6118 35.8516 12.6767 35.9223 12.6767 36.0093C12.6767 36.0874 12.6236 36.1538 12.5543 36.1656C12.5469 36.1656 12.5381 36.167 12.5307 36.167Z" fill="#71A546"/>
<path d="M15.8346 35.2486C15.9054 35.2368 15.9585 35.1719 15.9585 35.0923C15.9585 35.0053 15.8936 34.9346 15.8125 34.9346C15.811 34.9346 15.811 34.9346 15.8096 34.9346C15.8169 34.9346 15.8243 34.9331 15.8332 34.9331C15.9128 34.9331 15.9791 35.0039 15.9791 35.0908C15.9791 35.1764 15.9142 35.2471 15.8346 35.2486Z" fill="#9CD74D"/>
<path d="M15.812 35.2515C15.7324 35.2515 15.666 35.1793 15.666 35.0923C15.666 35.0068 15.7309 34.936 15.809 34.9346C15.8105 34.9346 15.8105 34.9346 15.812 34.9346C15.893 34.9346 15.9579 35.0053 15.9579 35.0923C15.9579 35.1719 15.9048 35.2368 15.8341 35.2486C15.8267 35.2501 15.8193 35.2515 15.812 35.2515Z" fill="#71A546"/>
<path d="M9.01375 35.9239C9.04913 35.9194 9.07714 35.8855 9.07714 35.8457C9.07714 35.8015 9.04323 35.7661 9.00343 35.7661H9.00195C9.00638 35.7661 9.00932 35.7661 9.01375 35.7661C9.05355 35.7661 9.08598 35.8015 9.08598 35.8457C9.08598 35.8885 9.05355 35.9239 9.01375 35.9239Z" fill="#9CD74D"/>
<path d="M9.0034 35.9253C8.96359 35.9253 8.92969 35.8899 8.92969 35.8457C8.92969 35.803 8.96212 35.7676 9.00192 35.7661H9.0034C9.0432 35.7661 9.07711 35.8015 9.07711 35.8457C9.07711 35.8855 9.0491 35.9194 9.01372 35.9239C9.01077 35.9253 9.00635 35.9253 9.0034 35.9253Z" fill="#71A546"/>
<path d="M14.5684 34.9539C14.6038 34.948 14.6304 34.9156 14.6304 34.8758C14.6304 34.833 14.5979 34.7961 14.5566 34.7961C14.5596 34.7961 14.564 34.7961 14.567 34.7961C14.6068 34.7961 14.6407 34.8315 14.6407 34.8758C14.6407 34.9185 14.6082 34.9539 14.5684 34.9539Z" fill="#9CD74D"/>
<path d="M14.5566 34.9554C14.5168 34.9554 14.4844 34.92 14.4844 34.8758C14.4844 34.833 14.5153 34.7976 14.5566 34.7961C14.5979 34.7961 14.6303 34.833 14.6303 34.8758C14.6303 34.9156 14.6038 34.948 14.5684 34.9539C14.5655 34.9554 14.561 34.9554 14.5566 34.9554Z" fill="#71A546"/>
<path d="M8.27421 32.1615C7.92482 32.1615 7.42506 31.9743 7.39705 30.6976C7.38673 30.2081 7.38968 28.5747 7.39999 26.502C7.74496 27.0563 8.16954 27.5752 8.66193 28.0469C8.65603 30.4278 8.6236 32.1217 8.54546 32.1335C8.48502 32.1423 8.38772 32.1615 8.27421 32.1615Z" fill="#C8E99D"/>
<path d="M9.91458 8.61824C9.81138 8.61087 9.70818 8.60203 9.60352 8.59171C10.3701 7.35631 11.094 6.22559 11.094 6.22559C11.094 6.22559 10.5234 7.29882 9.91458 8.61824Z" fill="#F8F4FA"/>
<path d="M7.44531 19.3919C7.46743 16.2666 7.48806 13.725 7.48806 13.725C7.48806 13.725 7.35981 12.7107 7.88021 11.5505L8.71609 11.6154C8.54803 12.1653 8.4522 12.6415 8.47432 12.9717C8.50675 13.4685 8.55098 15.4616 8.58783 17.9899C8.14852 18.4219 7.76374 18.8922 7.44531 19.3919Z" fill="#C8E99D"/>
<path d="M8.8623 9.80213C9.09818 9.41146 9.35322 8.99573 9.60236 8.5918C9.70703 8.60212 9.81023 8.61096 9.91342 8.61833C9.73947 8.99573 9.56256 9.3923 9.3945 9.79034C9.21317 9.79329 9.03479 9.79771 8.8623 9.80213Z" fill="#D5EEAD"/>
<path d="M8.71577 11.6154L7.87988 11.5505C7.90789 11.4871 7.93885 11.4222 7.97276 11.3574C8.15114 11.0036 8.48136 10.4345 8.86319 9.80208C9.03567 9.79765 9.21405 9.79323 9.39538 9.79028C9.12855 10.4227 8.8853 11.0566 8.71577 11.6154Z" fill="#C8E99D"/>
<path fill-rule="evenodd" clip-rule="evenodd" d="M10.1623 10.8369C10.1623 10.8369 9.2999 12.4158 9.47975 14.2807C9.65961 16.1471 9.58737 26.0862 9.58737 26.0862C9.58737 26.0862 10.0724 14.9456 10.0178 14.12C9.96477 13.2944 9.83946 12.146 10.1623 10.8369Z" fill="white"/>
<path fill-rule="evenodd" clip-rule="evenodd" d="M16.4302 30.9497C21.9718 30.9497 26.4918 27.3703 26.4918 22.9816C26.4918 18.5943 21.9718 15.0149 16.4302 15.0149C10.8871 15.0149 6.36719 18.5943 6.36719 22.9816C6.36719 27.3703 10.8871 30.9497 16.4302 30.9497Z" fill="#FDF5CB"/>
<path d="M16.3967 30.9497C13.2832 30.9409 10.5013 29.8131 8.66296 28.047C8.66296 28.044 8.66296 28.0411 8.66296 28.0382C10.5043 29.8072 13.2876 30.9409 16.3967 30.9497ZM7.40103 26.502C6.92633 25.7413 6.602 24.9113 6.45605 24.0371C6.45605 24.0371 6.45605 24.0371 6.45605 24.0356C6.602 24.9069 6.92633 25.7339 7.40103 26.4932C7.40103 26.4961 7.40103 26.4991 7.40103 26.502Z" fill="#A3DA62"/>
<path d="M8.66232 28.047C8.16993 27.5752 7.74536 27.0563 7.40039 26.502C7.40039 26.4991 7.40039 26.4961 7.40039 26.4932C7.74536 27.0475 8.16993 27.5649 8.66232 28.0381C8.66232 28.0411 8.66232 28.044 8.66232 28.047Z" fill="#D3EDB0"/>
<path d="M16.4814 30.9498C16.4829 30.9498 16.4829 30.9498 16.4829 30.9498H16.4814ZM16.5065 30.9483H16.508C16.508 30.9483 16.508 30.9483 16.5065 30.9483ZM17.5399 30.9011C17.5444 30.9011 17.5473 30.9011 17.5503 30.8997C17.5473 30.9011 17.5429 30.9011 17.5399 30.9011Z" fill="#A3DA62"/>
<path d="M16.4297 30.9499C16.4238 30.9499 16.4194 30.9499 16.4135 30.9499H16.4121C16.4076 30.9499 16.4017 30.9499 16.3973 30.9499C16.3973 30.9499 16.3973 30.9499 16.3958 30.9499C13.2867 30.941 10.5034 29.8074 8.66208 28.0383C8.16969 27.5651 7.74511 27.0476 7.40015 26.4933C6.92545 25.7341 6.60112 24.907 6.45517 24.0358L6.44043 23.054H18.0927C18.0912 23.3341 18.0912 23.6142 18.0897 23.8928H18.0072L17.615 27.9572H18.0647C18.0558 29.0585 18.047 30.0477 18.0381 30.8482C17.8789 30.8673 17.7182 30.885 17.556 30.8998C17.5531 30.8998 17.5516 30.8998 17.5487 30.8998C17.5457 30.9012 17.5428 30.9012 17.5384 30.9012C17.2081 30.9307 16.872 30.9469 16.5329 30.9484C16.5315 30.9484 16.5315 30.9484 16.5315 30.9484C16.5226 30.9484 16.5152 30.9484 16.5064 30.9484H16.5049C16.4976 30.9499 16.4902 30.9499 16.4813 30.9499C16.4813 30.9499 16.4813 30.9499 16.4799 30.9499C16.4725 30.9499 16.4651 30.9499 16.4563 30.9499C16.4548 30.9499 16.4533 30.9499 16.4519 30.9499C16.4445 30.9499 16.4371 30.9499 16.4297 30.9499ZM15.4582 26.8353C15.4582 27.2378 15.5408 27.5326 15.7044 27.7169C15.8681 27.9027 16.1364 27.9941 16.5079 27.9941C16.8573 27.9941 17.102 27.8864 17.2435 27.6697C17.3836 27.453 17.4543 27.1538 17.4543 26.7734C17.4543 26.5832 17.4307 26.4225 17.3836 26.2913C17.3349 26.1587 17.2715 26.0437 17.1934 25.9449C17.1153 25.8461 17.0283 25.7503 16.9354 25.6618L16.4651 25.2107C16.3752 25.1252 16.3133 25.0486 16.2838 24.9822C16.2528 24.9174 16.2366 24.854 16.2366 24.798C16.2366 24.7405 16.2514 24.6948 16.2823 24.6579C16.3118 24.6211 16.3605 24.6034 16.4238 24.6034C16.4784 24.6034 16.5211 24.6196 16.5521 24.6505C16.5845 24.6815 16.5993 24.7228 16.5993 24.7788V25.0589H17.4263C17.4263 24.6535 17.3482 24.3527 17.1919 24.1537C17.0356 23.9547 16.7718 23.8559 16.3988 23.8559C16.0936 23.8559 15.8607 23.9459 15.7 24.1287C15.5393 24.31 15.4582 24.5739 15.4582 24.9203C15.4582 25.2505 15.5953 25.5454 15.8681 25.8034L16.2322 26.1483C16.3398 26.2501 16.4238 26.34 16.4858 26.4152C16.5462 26.4918 16.589 26.5729 16.614 26.6555C16.6376 26.741 16.6509 26.8442 16.6509 26.9695C16.6509 27.0668 16.6361 27.139 16.6081 27.1818C16.5786 27.2245 16.527 27.2466 16.4548 27.2466C16.384 27.2466 16.3339 27.2201 16.3059 27.167C16.2779 27.1125 16.2632 27.0402 16.2632 26.9459V26.4373H15.4582V26.8353ZM13.9752 27.3012H14.4646L14.5236 27.9572H15.2916L14.9069 23.8928H13.527L13.1349 27.9572H13.925L13.9752 27.3012ZM11.4469 26.0009L11.6503 27.9572H12.6248L13.0685 23.8928H12.2651L12.0469 26.4594L11.8302 23.8928H11.0724L10.8439 26.4594L10.6198 23.8928H9.82524L10.2616 27.9572H11.2538L11.4469 26.0009ZM14.4027 26.6525H14.0341L14.1889 24.5857H14.2258L14.4027 26.6525Z" fill="#FCF7D6"/>
<path fill-rule="evenodd" clip-rule="evenodd" d="M21.2529 15.9878C21.3429 19.952 21.3989 26.2086 21.4269 29.8985C24.4535 28.5246 26.4908 25.9417 26.4908 22.9815C26.4908 19.9652 24.3739 17.3411 21.2529 15.9878Z" fill="#EFE5B5"/>
<path fill-rule="evenodd" clip-rule="evenodd" d="M16.4302 15.0149C21.9865 15.0149 26.4918 18.581 26.4918 22.9816L26.4903 23.0538H6.36866L6.36719 22.9816C6.36719 18.581 10.8724 15.0149 16.4302 15.0149Z" fill="#54222A"/>
<path d="M15.7793 15.0311H15.7808C15.7793 15.0311 15.7793 15.0311 15.7793 15.0311ZM16.0019 15.0208C16.0034 15.0208 16.0034 15.0208 16.0063 15.0208C16.0049 15.0208 16.0034 15.0208 16.0019 15.0208ZM16.0623 15.0193C16.0638 15.0193 16.0653 15.0193 16.0682 15.0193C16.0668 15.0193 16.0638 15.0193 16.0623 15.0193ZM16.1243 15.0178C16.1257 15.0178 16.1287 15.0178 16.1302 15.0178C16.1272 15.0178 16.1257 15.0178 16.1243 15.0178ZM16.456 15.0149C16.4545 15.0149 16.4545 15.0149 16.453 15.0149C16.453 15.0149 16.4545 15.0149 16.456 15.0149Z" fill="#E6D9BE"/>
<path d="M18.0918 23.0538H6.43807L6.4248 22.1221C6.93783 18.3334 10.8062 15.3392 15.6298 15.04C15.6298 15.04 15.6298 15.04 15.6313 15.04C15.6357 15.0385 15.6402 15.0385 15.6446 15.0385C15.6505 15.0385 15.6549 15.037 15.6593 15.037C15.6608 15.037 15.6608 15.037 15.6608 15.037C15.6991 15.0355 15.7389 15.0326 15.7787 15.0311C15.7787 15.0311 15.7787 15.0311 15.7802 15.0311C15.7846 15.0311 15.789 15.0311 15.7935 15.0296C15.7935 15.0296 15.7935 15.0296 15.7949 15.0296C15.7994 15.0296 15.8023 15.0296 15.8067 15.0296C15.8082 15.0296 15.8097 15.0296 15.8097 15.0296C15.8141 15.0296 15.8185 15.0296 15.8215 15.0282C15.823 15.0282 15.8244 15.0282 15.8259 15.0282C15.8289 15.0282 15.8333 15.0282 15.8362 15.0282C15.8377 15.0282 15.8406 15.0282 15.8421 15.0282C15.8451 15.0282 15.848 15.0282 15.8524 15.0282C15.8539 15.0282 15.8554 15.0267 15.8569 15.0267C15.8598 15.0267 15.8642 15.0267 15.8672 15.0267C15.8687 15.0267 15.8701 15.0267 15.8716 15.0267C15.876 15.0267 15.879 15.0267 15.8819 15.0267C15.8849 15.0267 15.8863 15.0267 15.8878 15.0267C15.8908 15.0252 15.8952 15.0252 15.8981 15.0252C15.8996 15.0252 15.9026 15.0252 15.904 15.0252C15.907 15.0252 15.9099 15.0252 15.9129 15.0252C15.9144 15.0252 15.9173 15.0252 15.9188 15.0252C15.9217 15.0252 15.9261 15.0252 15.9291 15.0237C15.9306 15.0237 15.9306 15.0237 15.932 15.0237C15.9365 15.0237 15.9409 15.0237 15.9438 15.0237C15.9453 15.0237 15.9453 15.0237 15.9453 15.0237C15.9601 15.0237 15.9733 15.0223 15.9881 15.0223H15.9895C15.994 15.0223 15.9969 15.0223 16.0013 15.0208C16.0028 15.0208 16.0043 15.0208 16.0058 15.0208C16.0087 15.0208 16.0117 15.0208 16.0146 15.0208C16.0176 15.0208 16.019 15.0208 16.0205 15.0208C16.0234 15.0208 16.0264 15.0208 16.0293 15.0208C16.0323 15.0208 16.0352 15.0208 16.0367 15.0208C16.0397 15.0208 16.0426 15.0208 16.0456 15.0208C16.047 15.0208 16.05 15.0193 16.0515 15.0193C16.0544 15.0193 16.0588 15.0193 16.0618 15.0193C16.0633 15.0193 16.0662 15.0193 16.0677 15.0193C16.0706 15.0193 16.0736 15.0193 16.0765 15.0193C16.0795 15.0193 16.0809 15.0193 16.0839 15.0193C16.0854 15.0193 16.0898 15.0193 16.0913 15.0193C16.0942 15.0193 16.0972 15.0193 16.0986 15.0193C16.1016 15.0193 16.1045 15.0178 16.1075 15.0178C16.1104 15.0178 16.1119 15.0178 16.1148 15.0178C16.1178 15.0178 16.1207 15.0178 16.1237 15.0178C16.1252 15.0178 16.1266 15.0178 16.1296 15.0178C16.1325 15.0178 16.1355 15.0178 16.1384 15.0178C16.1414 15.0178 16.1429 15.0178 16.1443 15.0178C16.1473 15.0178 16.1517 15.0178 16.1547 15.0178C16.1561 15.0178 16.1591 15.0178 16.1606 15.0178C16.1635 15.0178 16.1664 15.0178 16.1694 15.0178C16.1723 15.0164 16.1738 15.0164 16.1753 15.0164C16.1886 15.0164 16.2018 15.0164 16.2151 15.0164C16.2151 15.0164 16.2151 15.0164 16.2166 15.0164C16.2195 15.0164 16.2225 15.0164 16.2254 15.0164C16.2284 15.0164 16.2298 15.0164 16.2328 15.0164C16.2343 15.0164 16.2372 15.0164 16.2402 15.0164C16.2431 15.0164 16.2461 15.0164 16.2475 15.0164C16.2505 15.0164 16.252 15.0164 16.2549 15.0164C16.2578 15.0164 16.2608 15.0164 16.2637 15.0149C16.2667 15.0149 16.2682 15.0149 16.2711 15.0149C16.2741 15.0149 16.277 15.0149 16.28 15.0149C16.2814 15.0149 16.2844 15.0149 16.2859 15.0149C16.2888 15.0149 16.2918 15.0149 16.2962 15.0149C16.2977 15.0149 16.3006 15.0149 16.3021 15.0149C16.305 15.0149 16.308 15.0149 16.3109 15.0149C16.3139 15.0149 16.3153 15.0149 16.3183 15.0149C16.3212 15.0149 16.3242 15.0149 16.3271 15.0149C16.3286 15.0149 16.3316 15.0149 16.333 15.0149C16.336 15.0149 16.3389 15.0149 16.3434 15.0149C16.3448 15.0149 16.3478 15.0149 16.3493 15.0149C16.3522 15.0149 16.3551 15.0149 16.3581 15.0149C16.361 15.0149 16.3625 15.0149 16.3655 15.0149C16.3684 15.0149 16.3714 15.0149 16.3743 15.0149C16.3758 15.0149 16.3787 15.0149 16.3817 15.0149C16.3846 15.0149 16.3876 15.0149 16.3905 15.0149C16.392 15.0149 16.395 15.0149 16.3964 15.0149C16.4008 15.0149 16.4038 15.0149 16.4067 15.0149C16.4082 15.0149 16.4112 15.0149 16.4126 15.0149C16.4185 15.0149 16.423 15.0149 16.4289 15.0149C16.4362 15.0149 16.4436 15.0149 16.4524 15.0149C16.4539 15.0149 16.4539 15.0149 16.4554 15.0149C16.9964 15.0164 17.5286 15.0517 18.0461 15.1181C18.0608 15.7741 18.0726 16.5289 18.08 17.3501H17.9753V18.2287H18.0874C18.0962 19.7309 18.0962 21.3983 18.0918 23.0538ZM15.5001 20.6759C15.5001 21.0931 15.5959 21.413 15.789 21.6341C15.9836 21.8553 16.2623 21.9658 16.6279 21.9658C16.9935 21.9658 17.2736 21.8553 17.4667 21.6341C17.6598 21.413 17.7557 21.0931 17.7557 20.6759V18.5044C17.7557 18.1122 17.6613 17.8144 17.4697 17.6125C17.278 17.409 16.9964 17.3088 16.6279 17.3088C16.2593 17.3088 15.9792 17.409 15.7876 17.6125C15.5959 17.8144 15.5001 18.1122 15.5001 18.5044V20.6759ZM14.222 21.9231H15.1315V17.3501H14.222V18.9835H13.79V17.3501H12.8804V21.9231H13.79V19.8503H14.222V21.9231ZM16.6352 21.1241C16.5556 21.1241 16.4996 21.0931 16.4642 21.0312C16.4289 20.9693 16.4126 20.8675 16.4126 20.726V18.4955C16.4126 18.2655 16.4893 18.1506 16.6411 18.1506C16.7768 18.1506 16.8431 18.2626 16.8431 18.4882V20.7216C16.8431 20.9884 16.7738 21.1241 16.6352 21.1241Z" fill="#5F2D35"/>
<path fill-rule="evenodd" clip-rule="evenodd" d="M21.2529 15.9878C21.2972 17.9721 21.334 20.5313 21.3635 23.0537H26.4908V22.9815C26.4908 19.9652 24.3739 17.3411 21.2529 15.9878Z" fill="#301416"/>
<path fill-rule="evenodd" clip-rule="evenodd" d="M18.5183 21.9231V18.2288H17.9758V17.3501H19.9763V18.2288H19.4323V21.9231H18.5183ZM16.6357 21.1241C16.7743 21.1241 16.8436 20.9885 16.8436 20.7217V18.4882C16.8436 18.2627 16.7772 18.1506 16.6416 18.1506C16.4897 18.1506 16.4131 18.2656 16.4131 18.4956V20.7261C16.4131 20.8676 16.4293 20.9693 16.4647 21.0312C16.5001 21.0932 16.5561 21.1241 16.6357 21.1241ZM16.6283 21.9659C16.2627 21.9659 15.9841 21.8553 15.7895 21.6342C15.5964 21.4131 15.5005 21.0932 15.5005 20.676V18.5044C15.5005 18.1123 15.5964 17.8145 15.788 17.6125C15.9797 17.4091 16.2598 17.3088 16.6283 17.3088C16.9969 17.3088 17.2785 17.4091 17.4701 17.6125C17.6618 17.8145 17.7561 18.1123 17.7561 18.5044V20.676C17.7561 21.0932 17.6603 21.4131 17.4672 21.6342C17.274 21.8553 16.9939 21.9659 16.6283 21.9659ZM12.8809 21.9231V17.3501H13.7905V18.9836H14.2224V17.3501H15.132V21.9231H14.2224V19.8504H13.7905V21.9231H12.8809Z" fill="#F57914"/>
<path fill-rule="evenodd" clip-rule="evenodd" d="M22.2484 27.9572V23.8928H23.0327V27.9572H22.2484ZM20.8966 27.2422C21.1074 27.2422 21.2121 27.142 21.2121 26.9415V26.4329C21.2121 26.3179 21.1959 26.2265 21.1605 26.1587C21.1266 26.0923 21.0617 26.0584 20.9659 26.0584H20.8155V27.2363L20.8966 27.2422ZM20.8155 25.4231H20.9821C21.0573 25.4231 21.1059 25.395 21.128 25.3361C21.1487 25.2771 21.1605 25.2078 21.1605 25.1253V24.7169C21.1605 24.5857 21.1015 24.5208 20.9865 24.5208H20.8155V25.4231ZM20.0209 27.9572V23.8928H21.1221C21.4185 23.8928 21.6337 23.9636 21.7678 24.108C21.9035 24.251 21.9698 24.4899 21.9698 24.8201V24.9985C21.9698 25.1887 21.9359 25.3449 21.8681 25.4629C21.7988 25.5808 21.6956 25.6589 21.5556 25.6958C21.7384 25.7415 21.8607 25.8506 21.9226 26.0201C21.986 26.1911 22.017 26.3975 22.017 26.6437C22.017 26.9061 21.9919 27.1361 21.9433 27.3336C21.8946 27.5312 21.8032 27.6845 21.675 27.7936C21.5452 27.9027 21.361 27.9572 21.1221 27.9572H20.0209ZM18.5128 26.6526H18.8813L18.7044 24.5857H18.6676L18.5128 26.6526ZM17.615 27.9572L18.0071 23.8928H19.3855L19.7718 27.9572H19.0022L18.9447 27.3012H18.4553L18.4037 27.9572H17.615ZM16.5078 27.9941C16.1363 27.9941 15.868 27.9027 15.7044 27.7169C15.5407 27.5327 15.4582 27.2378 15.4582 26.8354V26.4373H16.2631V26.9459C16.2631 27.0403 16.2779 27.1125 16.3059 27.1671C16.3339 27.2201 16.384 27.2467 16.4548 27.2467C16.527 27.2467 16.5786 27.2245 16.6081 27.1818C16.6361 27.139 16.6508 27.0668 16.6508 26.9695C16.6508 26.8442 16.6376 26.741 16.614 26.6555C16.5889 26.5729 16.5462 26.4919 16.4857 26.4152C16.4238 26.34 16.3398 26.2501 16.2322 26.1484L15.868 25.8034C15.5953 25.5454 15.4582 25.2506 15.4582 24.9203C15.4582 24.5739 15.5393 24.31 15.7 24.1287C15.8606 23.9459 16.0936 23.856 16.3987 23.856C16.7717 23.856 17.0356 23.9547 17.1919 24.1537C17.3481 24.3528 17.4263 24.6535 17.4263 25.0589H16.5992V24.7788C16.5992 24.7228 16.5845 24.6815 16.5521 24.6506C16.5211 24.6196 16.4783 24.6034 16.4238 24.6034C16.3604 24.6034 16.3118 24.6211 16.2823 24.6579C16.2513 24.6948 16.2366 24.7405 16.2366 24.798C16.2366 24.854 16.2528 24.9174 16.2838 24.9823C16.3132 25.0486 16.3752 25.1253 16.4651 25.2108L16.9354 25.6619C17.0282 25.7503 17.1152 25.8462 17.1933 25.9449C17.2715 26.0437 17.3349 26.1587 17.3835 26.2914C17.4307 26.4226 17.4543 26.5833 17.4543 26.7734C17.4543 27.1538 17.3835 27.4531 17.2435 27.6698C17.1019 27.8865 16.8572 27.9941 16.5078 27.9941ZM14.0341 26.6526H14.4026L14.2257 24.5857H14.1889L14.0341 26.6526ZM13.1348 27.9572L13.527 23.8928H14.9068L15.2916 27.9572H14.5235L14.4646 27.3012H13.9751L13.925 27.9572H13.1348ZM10.2616 27.9572L9.8252 23.8928H10.6198L10.8439 26.4594L11.0724 23.8928H11.8301L12.0468 26.4594L12.265 23.8928H13.0685L12.6247 27.9572H11.6503L11.4468 26.0009L11.2537 27.9572H10.2616Z" fill="#69B530"/>
<path fill-rule="evenodd" clip-rule="evenodd" d="M22.2492 27.957V23.8926H23.0335V27.957H22.2492ZM21.375 23.9132C21.3897 25.3181 21.403 26.6906 21.4133 27.9246C21.5165 27.8966 21.605 27.8538 21.6757 27.7934C21.804 27.6843 21.8954 27.531 21.944 27.3334C21.9927 27.1359 22.0178 26.9059 22.0178 26.6435C22.0178 26.3973 21.9868 26.1909 21.9234 26.0199C21.8615 25.8503 21.7391 25.7412 21.5563 25.6955C21.6964 25.6587 21.7996 25.5806 21.8689 25.4626C21.9367 25.3447 21.9706 25.1884 21.9706 24.9982V24.8199C21.9706 24.4896 21.9042 24.2508 21.7686 24.1078C21.6757 24.009 21.5445 23.9427 21.375 23.9132Z" fill="#5CA332"/>
<path d="M16.5086 27.9941C16.1371 27.9941 15.8688 27.9027 15.7052 27.7169C15.5415 27.5327 15.459 27.2378 15.459 26.8354V26.4373H16.2639V26.9459C16.2639 27.0403 16.2787 27.1125 16.3067 27.1671C16.3347 27.2201 16.3848 27.2467 16.4556 27.2467C16.5278 27.2467 16.5794 27.2245 16.6089 27.1818C16.6369 27.139 16.6516 27.0668 16.6516 26.9695C16.6516 26.8442 16.6384 26.741 16.6148 26.6555C16.5897 26.5729 16.547 26.4919 16.4865 26.4152C16.4246 26.34 16.3406 26.2501 16.2329 26.1484L15.8688 25.8034C15.5961 25.5454 15.459 25.2506 15.459 24.9203C15.459 24.5739 15.5401 24.31 15.7008 24.1287C15.8614 23.9459 16.0944 23.856 16.3995 23.856C16.7725 23.856 17.0364 23.9547 17.1927 24.1537C17.3489 24.3528 17.4271 24.6535 17.4271 25.0589H16.6V24.7788C16.6 24.7228 16.5853 24.6815 16.5529 24.6506C16.5219 24.6196 16.4791 24.6034 16.4246 24.6034C16.3612 24.6034 16.3126 24.6211 16.2831 24.6579C16.2521 24.6948 16.2374 24.7405 16.2374 24.798C16.2374 24.854 16.2536 24.9174 16.2845 24.9823C16.314 25.0486 16.3759 25.1253 16.4659 25.2108L16.9362 25.6619C17.029 25.7503 17.116 25.8462 17.1941 25.9449C17.2723 26.0437 17.3357 26.1587 17.3843 26.2914C17.4315 26.4226 17.4551 26.5833 17.4551 26.7734C17.4551 27.1538 17.3843 27.4531 17.2443 27.6698C17.1027 27.8865 16.858 27.9941 16.5086 27.9941Z" fill="#86C741"/>
<path d="M18.0649 27.957H17.6152L18.0074 23.8926H18.0899C18.084 25.3152 18.0752 26.7083 18.0649 27.957Z" fill="#86C741"/>
<path d="M15.2915 27.957H14.5235L14.4645 27.301H13.9751L13.9249 27.957H13.1348L13.5269 23.8926H14.9068L15.2915 27.957ZM14.034 26.6523H14.4026L14.2257 24.5855H14.1888L14.034 26.6523Z" fill="#86C741"/>
<path d="M12.6247 27.957H11.6503L11.4468 26.0007L11.2537 27.957H10.2616L9.8252 23.8926H10.6198L10.8439 26.4592L11.0724 23.8926H11.8301L12.0468 26.4592L12.265 23.8926H13.0685L12.6247 27.957Z" fill="#86C741"/>
<path d="M16.6297 21.9659C16.2641 21.9659 15.9855 21.8553 15.7909 21.6342C15.5978 21.4131 15.502 21.0932 15.502 20.676V18.5044C15.502 18.1123 15.5978 17.8145 15.7894 17.6125C15.9811 17.4091 16.2612 17.3088 16.6297 17.3088C16.9983 17.3088 17.2799 17.4091 17.4715 17.6125C17.6632 17.8145 17.7575 18.1123 17.7575 18.5044V20.676C17.7575 21.0932 17.6617 21.4131 17.4686 21.6342C17.2754 21.8553 16.9953 21.9659 16.6297 21.9659ZM16.4145 20.7261C16.4145 20.8676 16.4307 20.9693 16.4661 21.0312C16.5015 21.0932 16.5575 21.1241 16.6371 21.1241C16.7757 21.1241 16.845 20.9885 16.845 20.7217V18.4882C16.845 18.2627 16.7786 18.1506 16.643 18.1506C16.4912 18.1506 16.4145 18.2656 16.4145 18.4956V20.7261Z" fill="#F79427"/>
<path d="M15.132 21.9231H14.2224V19.8504H13.7905V21.9231H12.8809V17.3501H13.7905V18.9835H14.2224V17.3501H15.132V21.9231Z" fill="#F79427"/>
<path d="M18.0886 18.2287H17.9766V17.3501H18.0812C18.0842 17.6361 18.0857 17.928 18.0886 18.2287Z" fill="#F79427"/>
</svg>
