<svg width="48" height="97" viewBox="0 0 48 97" fill="none" xmlns="http://www.w3.org/2000/svg">
<path fill-rule="evenodd" clip-rule="evenodd" d="M7.35066 24.5476H38.6958L47.965 84.9955C48.7205 91.5307 37.1129 96.4591 25.1457 96.8548C12.399 97.2865 -0.779405 92.7179 0.0359997 84.7677L7.35066 24.5476Z" fill="#BCD4D4"/>
<path fill-rule="evenodd" clip-rule="evenodd" d="M8.26413 27.7849H36.4676L44.8135 82.2012C45.497 88.0889 35.0526 92.5257 24.2724 92.8734C12.7968 93.2571 0.925486 89.1441 1.66895 81.9854L8.26413 27.7849Z" fill="#CADFDE"/>
<path fill-rule="evenodd" clip-rule="evenodd" d="M36.5275 28.0969L44.8135 82.2014C45.497 88.0891 35.0526 92.5259 24.2724 92.8736C12.7968 93.2574 0.925486 89.1444 1.66895 81.9856L3.25179 69.0111C20.0275 57.5474 34.2971 31.6463 36.5275 28.0969Z" fill="#C0DBDC"/>
<path fill-rule="evenodd" clip-rule="evenodd" d="M7.35013 24.5476H38.6953L39.1269 27.2936C34.8461 28.8045 29.2701 29.7158 23.1546 29.7158C16.9671 29.7158 11.3072 28.7925 7.02637 27.2456L7.35013 24.5476Z" fill="#BCD4D4"/>
<path fill-rule="evenodd" clip-rule="evenodd" d="M6.74129 25.4109C9.24747 27.953 19.7158 28.8044 23.3851 28.8044C32.3426 28.8044 39.6093 27.0057 39.6093 24.7873C39.6093 24.7514 39.5973 24.7154 39.5973 24.6914L39.4414 21.9334L43.4585 6.72852H3.2998L7.26891 21.7895L6.74129 25.4109Z" fill="#778287"/>
<path fill-rule="evenodd" clip-rule="evenodd" d="M33.6752 27.8929C35.7737 27.4612 37.4404 26.9096 38.4597 26.2741C38.5676 24.7512 38.5077 21.8613 38.5077 21.8613L30.4256 23.3962C30.4256 23.3962 29.778 28.3966 31.0731 28.2047C31.5287 28.1328 32.548 28.0248 33.6752 27.8929Z" fill="#647883"/>
<path fill-rule="evenodd" clip-rule="evenodd" d="M39.4414 21.9814V21.9334L43.4585 6.72852H3.2998L7.26891 21.7895L7.23293 22.0413C12.0414 23.3604 17.3536 23.828 23.0854 23.828C28.8172 23.828 34.6329 23.2884 39.4414 21.9814Z" fill="#647883"/>
<path fill-rule="evenodd" clip-rule="evenodd" d="M14.1617 6.72852H6.1875C6.1875 6.72852 8.13008 21.6216 10.2645 22.7488C14.2336 23.5283 18.5265 23.828 23.0832 23.828C23.6588 23.828 24.2343 23.816 24.8099 23.8041C28.839 21.5737 28.2994 12.5802 28.0116 8.64712C28.0116 8.64712 20.3971 7.38803 14.1617 6.72852Z" fill="#6C7B82"/>
<path fill-rule="evenodd" clip-rule="evenodd" d="M36.0596 22.7493C36.875 22.6054 37.6784 22.4255 38.4578 22.2337L38.5418 21.742C39.597 15.9982 42.0912 8.57562 42.0552 7.22061C42.0552 7.22061 40.0527 6.72897 40.0527 7.65229C40.0527 8.07199 38.7816 12.6646 37.4745 17.4611C36.9829 19.2718 36.4913 21.1065 36.0596 22.7493Z" fill="#6E818A"/>
<path fill-rule="evenodd" clip-rule="evenodd" d="M23.3012 0.0136473C35.0406 -0.274143 43.4585 4.51036 43.4585 6.72875C43.4585 8.95912 34.4651 10.7578 23.3851 10.7578C12.2812 10.7578 3.2998 8.95912 3.2998 6.72875C3.2998 4.51036 11.5738 0.289444 23.3012 0.0136473Z" fill="#9AB6C5"/>
<path fill-rule="evenodd" clip-rule="evenodd" d="M23.302 0.013652C33.0509 -0.238163 40.5214 3.04744 42.7638 5.42171C40.3176 7.42424 32.5593 8.88718 23.374 8.88718C14.2126 8.88718 6.47828 7.43624 3.99609 5.44569C6.23846 3.19133 13.5771 0.241487 23.302 0.013652Z" fill="#A5C3D2"/>
<path fill-rule="evenodd" clip-rule="evenodd" d="M16.9692 3.25166C18.6599 3.25166 20.0389 2.87993 20.0389 2.43625C20.0389 1.98059 18.6599 1.62085 16.9692 1.62085C15.2784 1.62085 13.8994 1.98059 13.8994 2.43625C13.8994 2.87993 15.2784 3.25166 16.9692 3.25166Z" fill="#647883"/>
<path fill-rule="evenodd" clip-rule="evenodd" d="M23.3881 5.21775C25.0789 5.21775 26.4579 4.85802 26.4579 4.39036C26.4579 3.94668 25.0789 3.57495 23.3881 3.57495C21.7093 3.57495 20.3184 3.94668 20.3184 4.39036C20.3184 4.85802 21.7093 5.21775 23.3881 5.21775Z" fill="#647883"/>
<path fill-rule="evenodd" clip-rule="evenodd" d="M26.1662 2.65183C27.8569 2.65183 29.2359 2.28011 29.2359 1.82444C29.2359 1.36877 27.8569 1.00903 26.1662 1.00903C24.4754 1.00903 23.1084 1.36877 23.1084 1.82444C23.1084 2.28011 24.4754 2.65183 26.1662 2.65183Z" fill="#647883"/>
<path fill-rule="evenodd" clip-rule="evenodd" d="M12.266 5.68577C13.9448 5.68577 15.3238 5.31404 15.3238 4.85837C15.3238 4.4027 13.9448 4.04297 12.266 4.04297C10.5753 4.04297 9.19629 4.4027 9.19629 4.85837C9.19629 5.31404 10.5753 5.68577 12.266 5.68577Z" fill="#647883"/>
<path fill-rule="evenodd" clip-rule="evenodd" d="M18.645 7.65257C20.3357 7.65257 21.7147 7.28084 21.7147 6.82517C21.7147 6.3815 20.3357 6.00977 18.645 6.00977C16.9542 6.00977 15.5752 6.3815 15.5752 6.82517C15.5752 7.28084 16.9542 7.65257 18.645 7.65257Z" fill="#647883"/>
<path fill-rule="evenodd" clip-rule="evenodd" d="M27.966 7.79588C29.6567 7.79588 31.0357 7.42415 31.0357 6.96848C31.0357 6.51281 29.6567 6.15308 27.966 6.15308C26.2752 6.15308 24.9082 6.51281 24.9082 6.96848C24.9082 7.42415 26.2752 7.79588 27.966 7.79588Z" fill="#647883"/>
<path fill-rule="evenodd" clip-rule="evenodd" d="M32.7104 4.73826C34.4012 4.73826 35.7801 4.36653 35.7801 3.92286C35.7801 3.46719 34.4012 3.09546 32.7104 3.09546C31.0076 3.09546 29.6406 3.46719 29.6406 3.92286C29.6406 4.36653 31.0076 4.73826 32.7104 4.73826Z" fill="#647883"/>
<path fill-rule="evenodd" clip-rule="evenodd" d="M8.20826 10.4576C7.78856 12.1724 9.07163 21.2378 10.2708 21.5975C11.4939 21.9572 10.4866 13.7432 10.0669 12.4602C9.63521 11.1771 9.28747 9.85808 8.20826 10.4576Z" fill="#A5C3D2"/>
<path fill-rule="evenodd" clip-rule="evenodd" d="M10.059 23.3484C9.72324 24.0319 8.77593 26.1304 9.49541 26.3462C10.2269 26.574 11.378 23.7321 12.1575 23.6842C12.9249 23.6482 15.0713 24.1278 15.1193 23.7801C15.1553 23.4323 8.23633 22.2092 8.23633 22.2092C8.23633 22.2092 8.39221 23.2645 10.059 23.3484Z" fill="#A5C3D2"/>
<path fill-rule="evenodd" clip-rule="evenodd" d="M31.2031 31.934C31.2031 31.934 37.7743 80.4866 36.5392 83.2206C35.3041 85.9546 33.3975 87.1897 35.5799 87.1897C37.7743 87.1897 42.283 84.4437 42.4269 81.9975C42.5588 79.5273 35.5799 32.0659 34.4887 31.2385C33.3975 30.4231 31.6108 29.8835 31.2031 31.934Z" fill="#BCD4D4"/>
<path fill-rule="evenodd" clip-rule="evenodd" d="M10.1244 30.2918C10.1244 30.2918 3.01358 78.4247 4.64439 79.6598C6.28719 80.8949 6.83879 80.3433 6.83879 80.3433C6.83879 80.3433 12.3907 34.153 12.8584 31.5149C13.3261 28.8889 10.1244 30.2918 10.1244 30.2918Z" fill="white"/>
<path fill-rule="evenodd" clip-rule="evenodd" d="M14.305 33.7209C14.305 33.7209 9.74835 73.7237 11.1993 74.9588C12.6382 76.1699 16.5234 36.6108 16.6313 35.2798C16.7512 33.9368 15.4202 33.0494 14.305 33.7209Z" fill="#D6E4E5"/>
<path fill-rule="evenodd" clip-rule="evenodd" d="M7.90953 6.4648C13.5334 7.25622 13.0538 2.55565 17.6584 1.47644C23.5221 0.0974414 17.8263 0.2893 12.9099 1.9321C8.70096 3.32309 5.27146 6.09307 7.90953 6.4648Z" fill="#9AB6C5"/>
<path fill-rule="evenodd" clip-rule="evenodd" d="M7.90953 6.4648C13.5334 7.25622 13.0538 2.55565 17.6584 1.47644C23.5221 0.0974414 17.8263 0.2893 12.9099 1.9321C8.70096 3.32309 5.27146 6.09307 7.90953 6.4648Z" fill="#C2D4DB"/>
<path fill-rule="evenodd" clip-rule="evenodd" d="M16.9692 1.62085H17.161C16.1538 1.93262 15.4223 2.43625 14.7868 3.01183C14.2352 2.85595 13.8994 2.66409 13.8994 2.43625C13.8994 1.98059 15.2664 1.62085 16.9692 1.62085Z" fill="#647883"/>
<path fill-rule="evenodd" clip-rule="evenodd" d="M12.2541 4.03076C12.7697 4.03076 13.2613 4.07873 13.681 4.12669C13.1534 4.70227 12.6618 5.25387 12.0382 5.67356C10.4554 5.64958 9.19629 5.28984 9.19629 4.87015C9.19629 4.40249 10.5633 4.03076 12.2541 4.03076Z" fill="#647883"/>
<path fill-rule="evenodd" clip-rule="evenodd" d="M1.8252 86.0029L2.67657 79.4556C2.67657 79.4556 5.57846 55.605 5.75833 54.0222C5.96218 52.4513 10.9745 51.9837 10.9745 51.9837C10.9745 51.9837 13.5526 53.0749 15.1235 51.9117C18.9727 49.0578 23.0377 46.5876 28.3498 49.0218C30.88 50.185 31.9112 53.2787 33.7699 52.7271C35.7365 52.1516 40.0893 49.0338 40.7128 53.1948L45.3894 84.1562C45.3894 84.1562 44.7898 87.9694 40.3051 90.3916C31.4316 95.2001 13.8644 98.162 1.8252 86.0029Z" fill="#BCD4D4"/>
<path fill-rule="evenodd" clip-rule="evenodd" d="M45.3817 84.1442V84.1682C45.3338 84.42 44.6863 87.7056 40.909 90.0439V90.0559L40.7651 90.1398C40.5733 90.2358 40.3934 90.3437 40.2015 90.4516C39.8538 90.6315 39.506 90.8113 39.1343 90.9912C35.2851 92.8139 30.0809 93.965 24.8048 94.1449C20.356 94.2888 15.8593 93.7612 12.0461 92.634C9.02428 91.5068 6.07443 89.8161 3.36441 87.4538C2.47706 86.2067 2.04537 84.8037 2.20125 83.2569L2.66891 79.4676V79.4556L5.07915 59.6101L5.13911 59.1305L5.19907 58.6628L5.24703 58.2071L5.65473 54.7776L5.69071 54.5738L5.71469 54.3819L5.72668 54.238L5.75066 54.1181V54.0102C5.96651 52.4513 10.9669 51.9837 10.9669 51.9837C10.9669 51.9837 13.545 53.0749 15.1158 51.9117C18.965 49.0578 23.0301 46.5876 28.3422 49.0218C30.8723 50.185 31.9036 53.2787 33.7622 52.7271C35.7288 52.1516 40.0816 49.0338 40.7052 53.1948L45.3817 84.1442Z" fill="#ECEDED"/>
<path fill-rule="evenodd" clip-rule="evenodd" d="M45.3817 84.1441V84.1681C45.3338 84.4199 44.6863 87.7055 40.909 90.0438V90.0558L40.7651 90.1397C40.5733 90.2357 40.3934 90.3436 40.2015 90.4515C39.8658 90.6314 39.518 90.8112 39.1463 90.9791C35.2971 92.8138 30.0929 93.9649 24.8048 94.1448C20.356 94.2887 15.8593 93.7611 12.0461 92.6339C9.02428 91.5067 6.07443 89.816 3.36441 87.4537C2.47706 86.2066 2.04537 84.8036 2.20125 83.2568L2.66891 79.4675V79.4555L3.7841 70.2702C11.7583 64.8262 19.1689 56.1086 24.9846 48.0864C26.0518 48.1824 27.167 48.4821 28.3422 49.0217C30.8723 50.1849 31.9036 53.2786 33.7622 52.727C35.7288 52.1515 40.0816 49.0337 40.7052 53.1947L45.3817 84.1441Z" fill="#DDE7E7"/>
<path fill-rule="evenodd" clip-rule="evenodd" d="M34.2344 52.5709C35.9371 66.4328 37.7718 82.9208 37.0763 84.4796C35.8412 87.2136 33.9226 88.4487 36.117 88.4487C38.2994 88.4487 42.8201 85.7147 42.964 83.2565C43.036 81.8176 40.6857 64.9699 38.4913 51.072C37.1123 51.144 35.4215 52.0913 34.2344 52.5709Z" fill="#D8E3E5"/>
<path fill-rule="evenodd" clip-rule="evenodd" d="M7.71109 52.6072C5.99634 65.7376 4.29358 80.259 5.19292 80.9305C6.82373 82.1536 7.37533 81.614 7.37533 81.614C7.37533 81.614 9.29393 65.6657 10.9607 51.9836C10.9487 51.9836 9.198 52.1515 7.71109 52.6072Z" fill="white"/>
<path fill-rule="evenodd" clip-rule="evenodd" d="M13.0115 52.4398C11.9443 63.3759 10.949 75.547 11.7404 76.2185C12.5918 76.938 14.3306 63.0881 15.6136 51.5525C15.4577 51.6724 15.2899 51.7923 15.122 51.9122C14.4984 52.3679 13.719 52.4758 13.0115 52.4398Z" fill="#D6E4E5"/>
</svg>
