<svg width="30" height="59" viewBox="0 0 30 59" fill="none" xmlns="http://www.w3.org/2000/svg">
<path d="M22.9601 48.2612C22.9601 48.2612 22.8982 55.0462 22.6816 56.3079C22.4633 57.5697 18.7193 58.1438 14.4957 58.1438C10.3167 58.1438 6.52804 57.5697 6.30973 56.3079C6.09313 55.0462 6.03125 48.2612 6.03125 48.2612L14.4957 49.2548L22.9601 48.2612Z" fill="white"/>
<path d="M22.5018 48.3145C22.2904 51.2403 21.1696 53.7982 18.2971 55.084C16.4509 55.9091 14.4207 56.0105 12.4267 55.9177C10.3312 55.8197 8.24949 55.5447 6.20215 55.0857C6.23309 55.6341 6.26747 56.069 6.30873 56.3079C6.52704 57.5697 10.3157 58.1438 14.4947 58.1438C18.7183 58.1438 22.4623 57.5697 22.6806 56.3079C22.8972 55.0462 22.9591 48.2612 22.9591 48.2612L22.5018 48.3145Z" fill="#E9EAE9"/>
<path d="M22.7247 48.7975C22.7247 49.987 19.1337 50.9514 14.7021 50.9514C10.2722 50.9514 6.50586 49.834 6.50586 48.6445C6.50586 47.4549 10.2722 46.6418 14.7021 46.6418C19.1337 46.6418 22.7247 47.6062 22.7247 48.7975Z" fill="#6E141C"/>
<path d="M28.7814 40.0239C28.7814 40.4588 28.2176 44.3351 22.5999 48.4694C20.6832 49.2103 19.1154 49.7122 14.4122 49.7122C9.68839 49.7122 8.14299 49.2103 6.22973 48.4694C0.612009 44.3351 0.0481728 40.4588 0.0481728 40.0239C0.0481728 39.5907 -0.213116 35.5819 0.481363 34.3649C1.17756 33.1427 1.91846 31.403 1.91846 31.0111C1.96143 30.1378 1.83079 19.6931 1.74656 19.0812C1.65717 18.4709 0.0481728 15.4661 0.0481728 14.8128V8.98025C2.31039 3.10295 3.78874 1.49396 3.78874 1.49396C3.78874 0.818384 8.54696 0.27002 14.4122 0.27002C20.2826 0.27002 25.0357 0.818384 25.0357 1.49396C25.0357 1.49396 26.5192 3.10295 28.7814 8.98025V14.8128C28.7814 15.4661 27.1724 18.4709 27.0831 19.0812C26.9954 19.6931 26.8647 30.1378 26.9112 31.0111C26.9112 31.403 27.6486 33.1427 28.3482 34.3649C29.0427 35.5819 28.7814 39.5907 28.7814 40.0239Z" fill="#8A191E"/>
<mask id="mask0_549_45800" style="mask-type:luminance" maskUnits="userSpaceOnUse" x="10" y="0" width="4" height="1">
<path d="M10.7529 0H13.3933V0.440067H10.7529V0Z" fill="white"/>
</mask>
<g mask="url(#mask0_549_45800)">
<mask id="mask1_549_45800" style="mask-type:luminance" maskUnits="userSpaceOnUse" x="11" y="0" width="2" height="1">
<path d="M11.1904 0.328396C11.768 0.306048 12.368 0.290577 12.9851 0.281982C12.8768 0.283701 12.7685 0.285421 12.6602 0.287139C12.1565 0.297453 11.6666 0.311205 11.1904 0.328396Z" fill="white"/>
</mask>
<g mask="url(#mask1_549_45800)">
<mask id="mask2_549_45800" style="mask-type:luminance" maskUnits="userSpaceOnUse" x="11" y="0" width="2" height="1">
<path d="M11.1895 0.328396C11.767 0.306048 12.367 0.290577 12.9841 0.281982C12.8758 0.283701 12.7675 0.285421 12.6592 0.287139C12.1555 0.297453 11.6656 0.311205 11.1895 0.328396Z" fill="white"/>
</mask>
<g mask="url(#mask2_549_45800)">
<path d="M12.7845 -0.281982L11.1738 0.28701L11.3887 0.892102L12.9994 0.323109L12.7845 -0.281982Z" fill="url(#paint0_linear_549_45800)"/>
</g>
</g>
</g>
<path d="M14.413 49.7121C14.3958 49.7121 14.3786 49.7121 14.3614 49.7121C12.7232 49.7104 11.47 49.6468 10.4541 49.535C12.3536 49.3288 13.4486 48.9489 14.6932 48.4693C16.5291 47.1164 17.8252 45.7928 18.7397 44.6066C21.0398 44.0961 22.9427 43.2778 24.3815 42.4974C23.5891 44.0772 22.0282 46.2363 18.9941 48.4693C17.3508 49.1053 15.9687 49.5643 12.6493 49.6812C13.1925 49.7018 13.7907 49.7121 14.4525 49.7121C14.4405 49.7121 14.4267 49.7121 14.413 49.7121ZM19.448 43.6045C20.567 41.8562 20.8283 40.5481 20.8679 40.1269C22.4304 39.7487 23.7317 39.2227 24.5551 38.5592V34.0261C24.617 34.143 24.6806 34.2565 24.7425 34.3648C25.437 35.5818 25.1757 39.5906 25.1757 40.0238C25.1757 40.1819 25.1018 40.7904 24.7408 41.6998C23.2865 42.3358 21.4042 43.0733 19.448 43.6045ZM24.5551 16.5335V15.2236C24.079 14.5171 22.7055 13.9292 20.8747 13.5097V10.5427C22.6178 10.9243 24.079 11.3988 25.1757 11.8148V14.8127C25.1757 15.0878 24.8921 15.7788 24.5551 16.5335ZM25.1757 10.6321C24.189 10.0339 22.8018 9.43912 20.8747 9.03V8.98015C18.6108 3.10285 17.1273 1.49385 17.1273 1.49385C17.1273 0.97987 14.3717 0.539804 10.461 0.359308C10.6999 0.347275 10.9423 0.336961 11.1898 0.328366C11.666 0.311175 12.1559 0.297423 12.6596 0.287109C12.6562 0.287109 12.6544 0.287109 12.6527 0.287109C17.6413 0.388531 21.43 0.890482 21.43 1.49385C21.43 1.49385 22.9135 3.10285 25.1757 8.98015V10.6321Z" fill="#7C161C"/>
<mask id="mask3_549_45800" style="mask-type:luminance" maskUnits="userSpaceOnUse" x="13" y="0" width="2" height="1">
<path d="M13.3926 0H14.7128V0.440067H13.3926V0Z" fill="white"/>
</mask>
<g mask="url(#mask3_549_45800)">
<mask id="mask4_549_45800" style="mask-type:luminance" maskUnits="userSpaceOnUse" x="13" y="0" width="2" height="1">
<path d="M13.6611 0.273213C13.8812 0.271495 14.1029 0.271495 14.3281 0.269775C14.1717 0.271495 14.0152 0.271494 13.8605 0.271494C13.7935 0.273213 13.7282 0.273213 13.6611 0.273213ZM14.4433 0.269775C14.433 0.269775 14.4244 0.269775 14.4141 0.269775C14.4158 0.269775 14.4158 0.269775 14.4158 0.269775C14.4244 0.269775 14.4347 0.269775 14.4433 0.269775Z" fill="white"/>
</mask>
<g mask="url(#mask4_549_45800)">
<mask id="mask5_549_45800" style="mask-type:luminance" maskUnits="userSpaceOnUse" x="13" y="0" width="2" height="1">
<path d="M13.6631 0.272969C13.8831 0.27125 14.1049 0.271251 14.3301 0.269531C14.1736 0.271251 14.0172 0.27125 13.8625 0.27125C13.7954 0.272969 13.7301 0.272969 13.6631 0.272969ZM14.4452 0.269531C14.4349 0.269531 14.4263 0.269531 14.416 0.269531C14.4177 0.269531 14.4177 0.269531 14.4177 0.269531C14.4263 0.269531 14.4366 0.269531 14.4452 0.269531Z" fill="white"/>
</mask>
<g mask="url(#mask5_549_45800)">
<path d="M14.3593 0.0236816L13.6631 0.271219L13.7508 0.518757L14.447 0.272938L14.3593 0.0236816Z" fill="#DEC4C6"/>
</g>
</g>
</g>
<path d="M13.8584 0.271739C14.0131 0.271739 14.1695 0.271739 14.326 0.27002C14.3311 0.27002 14.338 0.27002 14.3432 0.27002C14.3672 0.27002 14.3896 0.27002 14.4119 0.27002C14.4222 0.27002 14.4308 0.27002 14.4411 0.27002C14.2452 0.27002 14.0509 0.271739 13.8584 0.271739Z" fill="#7C161C"/>
<mask id="mask6_549_45800" style="mask-type:luminance" maskUnits="userSpaceOnUse" x="14" y="0" width="16" height="49">
<path d="M14.2715 0H29.2338V48.4073H14.2715V0Z" fill="white"/>
</mask>
<g mask="url(#mask6_549_45800)">
<mask id="mask7_549_45800" style="mask-type:luminance" maskUnits="userSpaceOnUse" x="14" y="0" width="15" height="49">
<path d="M22.8648 48.2732C23.1673 48.0445 23.4544 47.8159 23.7277 47.5907C23.726 47.6131 23.726 47.6354 23.7243 47.6595C23.4819 47.8589 23.2258 48.06 22.9593 48.2611L22.8648 48.2732ZM28.7851 9.81029V8.98C26.5211 3.10271 25.0376 1.49371 25.0376 1.49371C25.0376 0.819859 20.3 0.271495 14.4434 0.269775C14.4605 0.269775 14.4777 0.269775 14.4949 0.269775C20.3654 0.269775 25.1184 0.81814 25.1184 1.49371C25.1184 1.49371 26.6019 3.10271 28.8641 8.98V9.66589C28.8384 9.71058 28.8109 9.75871 28.7851 9.81029Z" fill="white"/>
</mask>
<g mask="url(#mask7_549_45800)">
<mask id="mask8_549_45800" style="mask-type:luminance" maskUnits="userSpaceOnUse" x="14" y="0" width="15" height="49">
<path d="M22.8648 48.2729C23.1673 48.0443 23.4544 47.8157 23.7277 47.5905C23.726 47.6128 23.726 47.6352 23.7243 47.6592C23.4819 47.8586 23.2258 48.0597 22.9593 48.2609L22.8648 48.2729ZM28.7851 9.81004V8.97976C26.5211 3.10246 25.0376 1.49347 25.0376 1.49347C25.0376 0.819615 20.3 0.271251 14.4434 0.269531C14.4605 0.269531 14.4777 0.269531 14.4949 0.269531C20.3654 0.269531 25.1184 0.817896 25.1184 1.49347C25.1184 1.49347 26.6019 3.10246 28.8641 8.97976V9.66564C28.8384 9.71034 28.8109 9.75847 28.7851 9.81004Z" fill="white"/>
</mask>
<g mask="url(#mask8_549_45800)">
<path d="M27.2607 -4.26343L-0.647461 5.60713L16.0459 52.806L43.9523 42.9372L27.2607 -4.26343Z" fill="url(#paint1_linear_549_45800)"/>
</g>
</g>
</g>
<path d="M22.6393 48.4847C22.6341 48.4744 22.6289 48.4641 22.6221 48.4538C22.7029 48.3936 22.7837 48.3334 22.8627 48.2733L22.9573 48.2612C22.8662 48.33 22.7751 48.4005 22.6805 48.4692C22.6668 48.4744 22.653 48.4795 22.6393 48.4847Z" fill="#C5A0A5"/>
<path d="M14.4934 49.7122C14.4797 49.7122 14.4659 49.7122 14.4521 49.7122C19.1244 49.7087 20.6887 49.2085 22.602 48.4693C22.6089 48.4642 22.6157 48.459 22.6226 48.4539C22.6295 48.4642 22.6346 48.4745 22.6398 48.4848C20.742 49.2171 19.164 49.7122 14.4934 49.7122Z" fill="#5E1219"/>
<mask id="mask9_549_45800" style="mask-type:luminance" maskUnits="userSpaceOnUse" x="14" y="0" width="15" height="49">
<path d="M14.2715 0H28.7937V48.4073H14.2715V0Z" fill="white"/>
</mask>
<g mask="url(#mask9_549_45800)">
<mask id="mask10_549_45800" style="mask-type:luminance" maskUnits="userSpaceOnUse" x="25" y="1" width="4" height="9">
<path d="M28.7833 9.812V8.98C26.5211 3.10271 25.0376 1.49371 25.0376 1.49371C25.0376 1.49371 26.5211 3.10271 28.7851 8.98V9.81029C28.7851 9.812 28.7833 9.812 28.7833 9.812Z" fill="white"/>
</mask>
<g mask="url(#mask10_549_45800)">
<mask id="mask11_549_45800" style="mask-type:luminance" maskUnits="userSpaceOnUse" x="25" y="1" width="4" height="9">
<path d="M28.7833 9.81176V8.97976C26.5211 3.10246 25.0376 1.49347 25.0376 1.49347C25.0376 1.49347 26.5211 3.10246 28.7851 8.97976V9.81004C28.7851 9.81176 28.7833 9.81176 28.7833 9.81176Z" fill="white"/>
</mask>
<g mask="url(#mask11_549_45800)">
<path d="M27.1885 -4.23779L-0.647461 5.60698L16.0355 52.7801L43.8715 42.937L27.1885 -4.23779Z" fill="url(#paint2_linear_549_45800)"/>
</g>
</g>
</g>
<path d="M22.6221 48.4537V48.452C22.7029 48.3935 22.7837 48.3334 22.8627 48.2732C22.7837 48.3334 22.7029 48.3935 22.6221 48.4537Z" fill="#B27D86"/>
<mask id="mask12_549_45800" style="mask-type:luminance" maskUnits="userSpaceOnUse" x="12" y="0" width="3" height="1">
<path d="M12.5117 0H14.272V0.440067H12.5117V0Z" fill="white"/>
</mask>
<g mask="url(#mask12_549_45800)">
<mask id="mask13_549_45800" style="mask-type:luminance" maskUnits="userSpaceOnUse" x="12" y="0" width="2" height="1">
<path d="M12.6582 0.286955C12.7665 0.285237 12.8748 0.283517 12.9831 0.281798C13.2066 0.27836 13.4318 0.274922 13.6587 0.273203C13.7257 0.273203 13.791 0.273203 13.8581 0.271484C13.4524 0.274922 13.0501 0.280079 12.6582 0.286955Z" fill="white"/>
</mask>
<g mask="url(#mask13_549_45800)">
<mask id="mask14_549_45800" style="mask-type:luminance" maskUnits="userSpaceOnUse" x="12" y="0" width="2" height="1">
<path d="M12.6572 0.286955C12.7655 0.285237 12.8738 0.283517 12.9821 0.281798C13.2056 0.27836 13.4308 0.274922 13.6577 0.273203C13.7247 0.273203 13.7901 0.273203 13.8571 0.271484C13.4514 0.274922 13.0492 0.280079 12.6572 0.286955Z" fill="white"/>
</mask>
<g mask="url(#mask14_549_45800)">
<path d="M13.7233 -0.10498L12.6523 0.273202L12.7899 0.665136L13.8625 0.285235L13.7233 -0.10498Z" fill="#BD858D"/>
</g>
</g>
</g>
<path d="M14.4521 49.7119C19.1244 49.7085 20.6887 49.2083 22.6003 48.4691C22.6071 48.4639 22.6157 48.4571 22.6226 48.4519V48.4536C22.6157 48.4588 22.6089 48.4639 22.602 48.4691C20.6887 49.2083 19.1244 49.7085 14.4521 49.7119Z" fill="#531318"/>
<path d="M14.4517 49.7122C13.7899 49.7122 13.1916 49.7019 12.6484 49.6813C15.9678 49.5644 17.3499 49.1054 18.9933 48.4694C22.0274 46.2364 23.5882 44.0773 24.3807 42.4975C24.6901 42.3308 24.9772 42.164 25.2419 42.0042C24.6489 43.5805 24.0352 44.8852 23.9114 45.3167C23.8375 45.5763 23.7739 46.4547 23.7257 47.5909C23.4524 47.8161 23.1653 48.0448 22.8628 48.2734C22.7837 48.3336 22.7029 48.3937 22.6221 48.4522C22.6153 48.4573 22.6067 48.4642 22.5998 48.4694C20.6883 49.2085 19.124 49.7088 14.4517 49.7122ZM24.74 41.6999C25.101 40.7905 25.1749 40.182 25.1749 40.0239C25.1749 39.5907 25.4362 35.5819 24.7417 34.3649C24.6798 34.2566 24.6162 34.1431 24.5543 34.0262V29.4072C24.666 29.6754 24.7812 29.9367 24.8998 30.198C25.7628 32.1113 26.5037 34.0228 26.4418 37.0465C26.416 38.365 25.9776 39.9413 25.4723 41.3716C25.2436 41.4764 24.9978 41.5864 24.74 41.6999ZM24.5543 17.369V16.5336C24.8912 15.7789 25.1749 15.0879 25.1749 14.8128V11.8149C26.6292 12.3633 27.4474 12.8119 27.4474 12.8119C27.4474 12.8119 26.9712 11.7186 25.1749 10.6322V8.98025C22.9127 3.10295 21.4291 1.49396 21.4291 1.49396C21.4291 0.890583 17.6404 0.388631 12.6519 0.28721C12.6536 0.28721 12.6553 0.28721 12.6588 0.28721C13.0507 0.280334 13.4529 0.275176 13.8586 0.271739C14.0512 0.271739 14.2454 0.27002 14.4414 0.27002C20.298 0.271739 25.0356 0.820103 25.0356 1.49396C25.0356 1.49396 26.5191 3.10295 28.7814 8.98025V9.81225C28.276 10.7732 27.6176 12.7414 27.3683 13.0423C27.1741 13.2743 25.6648 15.0174 24.5543 17.369Z" fill="#6A1418"/>
<path d="M3.5957 12.0125C3.59914 11.6824 3.60946 11.3489 3.61461 11.0189C5.22361 9.83791 8.16483 8.60366 14.5819 8.50052C14.7899 8.49708 14.9945 8.49536 15.1956 8.49536C17.475 8.49536 19.3436 8.70336 20.8735 9.02997V10.5427C19.0307 10.137 16.8751 9.83447 14.4942 9.80697C14.4169 9.80697 14.3395 9.80525 14.2622 9.80525C10.0214 9.80525 5.89918 11.122 3.5957 12.0125Z" fill="#671418"/>
<path d="M25.176 11.8148C24.0792 11.3988 22.6181 10.9244 20.875 10.5428V9.03003C22.802 9.43915 24.1893 10.0339 25.176 10.6321V11.8148Z" fill="#5C1217"/>
<path d="M27.4483 12.8118C27.4483 12.8118 26.6301 12.3631 25.1758 11.8148V10.6321C26.9721 11.7185 27.4483 12.8118 27.4483 12.8118Z" fill="#4C1418"/>
<path d="M1.7168 12.8122C1.75821 12.7742 1.79962 12.7362 1.84104 12.6948C1.84276 12.7138 1.84276 12.7328 1.84449 12.7518C1.75994 12.7897 1.7168 12.8122 1.7168 12.8122Z" fill="#671418"/>
<path d="M14.1882 45.1206C9.92161 45.1206 6.2859 43.2177 4.11307 41.7479C4.05463 41.6448 3.99618 41.5416 3.93945 41.4385C6.12088 42.6573 9.91302 44.213 14.4959 44.323C14.5836 44.3247 14.6695 44.3264 14.7572 44.3264C16.2441 44.3264 17.8703 44.0307 19.4484 43.6044C19.2421 43.9242 19.0066 44.2594 18.7401 44.6066C17.4474 44.8937 16.0275 45.0845 14.4959 45.1172C14.3928 45.1206 14.2913 45.1206 14.1882 45.1206Z" fill="#671418"/>
<path d="M18.7393 44.6066C19.0057 44.2593 19.2412 43.9241 19.4475 43.6044C21.4037 43.0732 23.286 42.3357 24.7403 41.6997C24.6423 41.9438 24.5254 42.212 24.3811 42.4973C22.9422 43.2778 21.0393 44.096 18.7393 44.6066Z" fill="#5C1217"/>
<path d="M24.5555 38.559C20.9181 41.4917 7.95505 41.7237 4.27637 38.559V15.2235C7.52874 11.5534 22.7248 12.4954 24.5555 15.2235V38.559Z" fill="white"/>
<path d="M23.9778 37.8919L23.8403 37.7218C23.0169 38.3887 21.5953 38.9268 19.89 39.2843C18.183 39.6436 16.189 39.8293 14.207 39.8293C12.2989 39.8293 10.3994 39.6574 8.77317 39.305C7.14698 38.9543 5.79756 38.418 4.9965 37.7252L4.85382 37.8919H5.07386V15.8835H4.85382L5.01713 16.0296C5.67035 15.287 6.95102 14.718 8.55485 14.3587C10.157 13.9943 12.0771 13.8275 14.0076 13.8275C16.2405 13.8275 18.489 14.051 20.2837 14.4429C21.181 14.6389 21.9649 14.8778 22.5734 15.1477C23.1802 15.4142 23.6065 15.7201 23.7956 16.0055L23.9778 15.8835H23.7578V37.8919H23.9778H24.1978V15.8164L24.1618 15.7614C23.8867 15.3574 23.3968 15.0325 22.7522 14.7455C20.8148 13.8894 17.4026 13.3909 14.0076 13.3875C12.0513 13.3875 10.1054 13.5559 8.45687 13.9289C6.81178 14.3054 5.4572 14.8744 4.6888 15.7373L4.63379 15.7992V37.9934L4.70943 38.0587C5.61019 38.8305 7.01462 39.3737 8.68034 39.7347C10.3461 40.0957 12.2714 40.2693 14.207 40.2693C16.2165 40.2693 18.2363 40.082 19.9794 39.7141C21.7242 39.3462 23.1922 38.8065 24.1171 38.0638L24.1978 37.9985V37.8919H23.9778Z" fill="#8A191E"/>
<path d="M2.73391 15.6808C2.32135 15.6808 1.9105 15.4144 1.91738 14.8832C1.92425 14.2162 1.87956 13.4908 1.84346 12.7516C2.09444 12.6347 2.71156 12.3545 3.59685 12.0124C3.59685 12.0142 3.59685 12.0159 3.59685 12.0176C3.58654 12.9734 3.57794 13.9274 3.56763 14.8832C3.56075 15.4144 3.14647 15.6808 2.73391 15.6808ZM1.84002 12.6949C1.77298 11.3627 1.73172 9.98916 2.04802 8.83399C2.54997 6.9998 3.86845 5.14327 4.71421 3.43629C4.86032 3.13891 5.10098 3.01514 5.3468 3.01514C5.88829 3.01514 6.46244 3.61679 6.13927 4.2683C5.31586 5.93058 4.03692 7.73554 3.53669 9.51644C3.58997 9.32906 3.6192 9.25686 3.63639 9.25686C3.68452 9.25686 3.61404 9.8568 3.61748 10.0476C3.62607 10.3708 3.62264 10.694 3.61576 11.0189C2.74766 11.6566 2.26806 12.2772 1.84002 12.6949Z" fill="#B8616F"/>
<path d="M1.84426 12.7516C1.84254 12.7327 1.84254 12.7137 1.84082 12.6948C2.26885 12.2771 2.74846 11.6566 3.61656 11.0188C3.6114 11.3488 3.60109 11.6823 3.59765 12.0124C2.71236 12.3545 2.09523 12.6347 1.84426 12.7516Z" fill="#A25C66"/>
<path d="M5.19197 46.1538C4.94271 46.1538 4.69518 46.0352 4.53359 45.7499C3.61564 44.1288 2.30747 42.4339 1.66972 40.6891C1.13167 39.2142 1.42906 37.2115 1.38264 35.6455C1.36545 35.1143 1.76942 34.8496 2.18198 34.8496C2.59455 34.8496 3.0157 35.1161 3.03289 35.6455C3.0604 36.5927 3.08962 37.5399 3.11713 38.487C3.13088 38.946 3.14807 39.405 3.15838 39.8657C3.15838 39.9035 3.15838 39.9344 3.15838 39.9619C3.1687 39.9809 3.17901 40.0015 3.19104 40.0255C3.42655 40.5017 3.67752 40.971 3.93881 41.4386C3.25637 41.0587 2.73207 40.7114 2.38826 40.4501C2.10635 40.2112 1.95679 40.0685 1.95679 40.0685C2.0204 40.1493 2.16651 40.2817 2.38826 40.4501C2.75441 40.7578 3.3406 41.2254 4.11243 41.748C4.71581 42.8121 5.36043 43.8589 5.95865 44.9161C6.32136 45.5573 5.75065 46.1538 5.19197 46.1538Z" fill="#B8616F"/>
<path d="M4.11169 41.7478C3.33986 41.2253 2.75368 40.7577 2.38753 40.45C2.73133 40.7113 3.25563 41.0585 3.93807 41.4384C3.9948 41.5416 4.05325 41.6447 4.11169 41.7478ZM2.38753 40.45C2.16577 40.2815 2.01966 40.1492 1.95605 40.0684C1.95605 40.0684 2.10561 40.211 2.38753 40.45Z" fill="#A25C66"/>
<path d="M14.1296 27.6281C14.5524 27.2568 15.0802 26.9766 15.4532 26.5365C15.9947 25.8988 16.1855 25.0805 16.4433 24.2949C16.6376 23.7053 16.6393 23.1329 16.6531 22.5226C16.6599 22.2356 16.8387 21.7199 17.1963 21.6975C16.8456 21.9897 16.9831 22.7581 16.9848 23.1569C16.9866 23.7999 16.8714 24.362 16.7562 24.9894C16.6049 25.7974 16.4176 26.5331 15.8915 27.1983C15.6904 27.451 15.3208 27.7055 15.0217 27.8103C14.7415 27.9083 14.396 27.8413 14.1021 27.8602C14.0763 27.8206 14.047 27.7605 14.1296 27.6281Z" fill="#509D35"/>
<path d="M15.4805 27.3668C15.5733 27.3204 15.6249 27.231 15.6953 27.1553C15.9051 26.9284 16.1492 26.7393 16.3933 26.5485C16.6167 26.3749 16.811 26.1738 17.019 25.9864C17.4144 25.6288 17.8596 25.316 18.2876 24.998C18.8514 24.5751 19.4187 24.0474 19.7144 23.4044C19.845 23.1208 19.9482 22.8217 20.0754 22.5415C20.1665 23.6984 19.6886 24.6507 18.9597 25.5171C18.4509 26.1205 17.9627 26.7256 17.2356 27.0625C16.7869 27.2705 15.9498 27.6985 15.4805 27.3668Z" fill="#509D35"/>
<path d="M13.7726 27.0091C13.6867 26.9661 11.6617 26.4985 9.7295 23.6157C9.56963 23.3768 9.51291 23.0777 9.39601 22.8164C9.31178 23.8891 9.75357 24.7709 10.4291 25.572C10.8984 26.1307 11.3505 26.6928 12.0261 27.0039C12.4404 27.1964 13.3394 27.3151 13.7726 27.0091Z" fill="#509D35"/>
<path d="M15.0706 27.8065C14.7578 27.5607 14.8816 26.9814 14.8781 26.6393C14.8747 26.2886 14.7853 25.9483 14.7492 25.5993C14.7148 25.2796 14.6804 24.9616 14.646 24.6436C14.5807 24.0264 14.5567 22.3659 13.9258 21.7556C14.1389 22.1441 14.3297 22.7131 14.2472 23.16C14.1028 23.9508 13.8226 25.3724 14.316 26.8284C14.3968 27.0656 14.5343 27.3819 14.7354 27.5435C14.8094 27.6037 14.9177 27.6381 15.0706 27.8065Z" fill="#509D35"/>
<path d="M14.5487 27.4938C14.7412 27.2652 14.4387 26.9936 14.2651 26.8595C14.0106 26.6636 13.5173 26.6378 13.0119 25.125C12.9019 24.7967 12.1765 23.0519 11.0986 22.8164C11.5817 22.9316 12.577 24.2827 12.7179 24.9686C12.8262 25.5015 12.7695 26.0825 12.9895 26.5914C13.0944 26.8337 13.201 27.04 13.4382 27.181C13.562 27.2532 13.7081 27.3185 13.8405 27.3701C14.0639 27.456 14.2788 27.468 14.5487 27.4938Z" fill="#509D35"/>
<path d="M14.9196 27.2583C14.9196 27.2583 19.3289 25.8023 21.2198 29.0186C23.109 32.2366 19.9374 38.2067 14.5105 37.8595C9.78147 37.5569 8.32031 34.779 7.80461 32.4205C7.29235 30.0741 8.6538 26.4642 12.537 26.6687C13.4206 26.7598 14.1787 27.4388 14.9196 27.2583Z" fill="#EE213D"/>
<path d="M14.9639 37.8733C20.0866 37.8716 23.0261 32.2023 21.2452 29.0651C23.0261 32.2023 20.0866 37.8733 14.9639 37.8733Z" fill="#F798B1"/>
<path d="M16.8555 26.9371C16.9552 26.9319 17.0583 26.9302 17.1615 26.9302C17.1855 26.9302 17.2113 26.9302 17.2354 26.9302C17.2113 26.9302 17.1872 26.9302 17.1632 26.9302C17.0583 26.9302 16.9552 26.9319 16.8555 26.9371Z" fill="#4E6324"/>
<path d="M14.962 37.8734C14.8176 37.8734 14.6732 37.87 14.5253 37.8596C14.5219 37.8596 14.5167 37.8596 14.5116 37.8596C14.5064 37.8596 14.5013 37.8596 14.4944 37.8579C14.4944 37.8579 14.4944 37.8579 14.4927 37.8579C14.4875 37.8579 14.4824 37.8579 14.4772 37.8579C11.5618 37.6637 9.89433 36.524 8.9248 35.1247C9.19469 35.3413 9.48348 35.5338 9.78431 35.704C10.9876 36.383 12.3817 36.7423 13.7604 36.7956C13.8704 36.799 13.9821 36.8025 14.0939 36.8025C14.625 36.8025 15.1562 36.7526 15.6719 36.6357C16.3991 36.4724 17.1503 36.1836 17.6797 35.6421C17.9823 35.3327 18.2075 34.9545 18.4086 34.5729C18.6372 34.1363 18.8263 33.6773 18.9621 33.2028C19.2286 32.2763 19.232 31.3205 19.0343 30.3802C18.9346 29.9023 18.7868 29.4348 18.6028 28.9827C18.4464 28.5976 18.2779 28.2074 18.0235 27.8774C17.7966 27.5834 17.5199 27.3238 17.207 27.1244C17.097 27.0539 16.9784 26.9886 16.8563 26.9371C16.956 26.9319 17.0592 26.9302 17.164 26.9302C17.1881 26.9302 17.2122 26.9302 17.2362 26.9302C18.5066 26.9439 20.0176 27.3049 21.0077 28.6904C21.0094 28.6939 21.0112 28.6956 21.0129 28.6973C21.0129 28.699 21.0129 28.699 21.0146 28.7008C21.0146 28.7008 21.0163 28.7025 21.0163 28.7042C21.0868 28.8039 21.1556 28.9088 21.2209 29.0188C21.2295 29.0342 21.2381 29.0497 21.2467 29.0652C23.0276 32.2024 20.0881 37.8717 14.9654 37.8734C14.9637 37.8734 14.9637 37.8734 14.962 37.8734Z" fill="#ED1C2E"/>
<path d="M9.02309 32.0595C8.8065 32.0595 8.5985 31.9409 8.53146 31.6675C8.0106 29.5239 9.87916 27.3047 12.0331 27.3047C12.04 27.3047 12.0468 27.3047 12.0554 27.3047C12.7619 27.3098 12.7637 28.4049 12.0589 28.4049C12.0589 28.4049 12.0571 28.4049 12.0554 28.4049C12.0503 28.4049 12.0451 28.4049 12.04 28.4049C10.6149 28.4049 9.23969 29.9176 9.59209 31.3736C9.69351 31.7879 9.3497 32.0595 9.02309 32.0595Z" fill="#F14C73"/>
<path d="M7.73725 18.9588L8.28046 18.6906L9.11246 20.3478L9.50439 20.1484L8.67239 18.4912L9.22248 18.2162L9.06433 17.8999L7.5791 18.6425L7.73725 18.9588Z" fill="#8A191E"/>
<path d="M10.0403 17.6656C9.90962 17.8031 9.81335 17.9681 9.7721 18.1607C9.73084 18.3532 9.73772 18.5595 9.7996 18.7658C9.86149 18.9652 9.96463 19.1439 10.1021 19.2815C10.2465 19.419 10.4184 19.5015 10.6041 19.5496C10.7898 19.5909 10.9823 19.584 11.1817 19.529C11.3742 19.4671 11.5461 19.364 11.6768 19.2265C11.8074 19.0821 11.8968 18.9239 11.9449 18.7314C11.9862 18.5389 11.9793 18.3326 11.9174 18.1332C11.8555 17.9269 11.7524 17.7481 11.6149 17.6106C11.4636 17.4731 11.2986 17.3837 11.1129 17.3424C10.9273 17.2943 10.7279 17.308 10.5353 17.3699C10.3359 17.4249 10.1709 17.5212 10.0403 17.6656ZM11.0029 17.7412C11.1129 17.7619 11.2023 17.8237 11.2917 17.9131C11.3742 18.0025 11.443 18.1194 11.4842 18.2638C11.5255 18.4013 11.5324 18.5251 11.5117 18.642C11.4842 18.7658 11.443 18.862 11.3605 18.9514C11.2917 19.0408 11.1886 19.0958 11.0648 19.1371C10.941 19.1714 10.8241 19.1852 10.7141 19.1508C10.6041 19.1164 10.501 19.0614 10.4253 18.9652C10.3359 18.8827 10.2672 18.7726 10.2259 18.6351C10.1847 18.4907 10.1778 18.3601 10.2053 18.2363C10.219 18.1194 10.274 18.0163 10.3566 17.9406C10.4253 17.8512 10.5285 17.7894 10.6522 17.755C10.776 17.7137 10.8929 17.7069 11.0029 17.7412Z" fill="#8A191E"/>
<path d="M12.29 16.969L12.4482 19.1418L12.8883 19.1075L12.7782 17.6016L13.4452 19.0731L13.8234 19.0456L14.2703 17.4916L14.3804 19.0043L14.8204 18.9699L14.6623 16.7971L14.1259 16.8384L13.5965 18.5093L12.8264 16.9278L12.29 16.969Z" fill="#8A191E"/>
<path d="M14.9463 18.9902L15.407 19.0521L15.627 18.6395L16.5003 18.7564L16.5965 19.2103L17.0504 19.2721L16.5484 17.003L16.0465 16.9412L14.9463 18.9902ZM16.2321 17.4362L16.4246 18.4058L15.7852 18.3164L16.2321 17.4362Z" fill="#8A191E"/>
<path d="M17.5938 17.5191L18.1713 17.6978L17.6213 19.4719L18.0407 19.6025L18.5908 17.8285L19.1752 18.0073L19.2784 17.6703L17.6969 17.1821L17.5938 17.5191Z" fill="#8A191E"/>
<path d="M20.1626 18.1862C19.977 18.193 19.7913 18.2481 19.6331 18.3512C19.4612 18.4681 19.3306 18.6194 19.2343 18.8119C19.1381 18.9975 19.0831 19.197 19.0968 19.3895C19.0968 19.5958 19.1656 19.7745 19.2618 19.9327C19.365 20.0908 19.5094 20.2215 19.695 20.3177C19.8807 20.414 20.0732 20.4553 20.2589 20.4484C20.4514 20.4415 20.6302 20.3865 20.8021 20.2696C20.9602 20.1665 21.0977 20.0083 21.194 19.8227C21.2903 19.6301 21.3384 19.4376 21.3384 19.2313C21.3247 19.0388 21.2628 18.86 21.1596 18.7019C21.0634 18.5369 20.9121 18.4062 20.7264 18.3099C20.5408 18.2137 20.3551 18.1724 20.1626 18.1862ZM20.809 18.9082C20.864 18.9975 20.8983 19.1076 20.8915 19.2313C20.8915 19.3551 20.864 19.4789 20.7952 19.6164C20.7264 19.747 20.6439 19.8433 20.5477 19.9121C20.4445 19.9808 20.3414 20.0221 20.2314 20.0358C20.1076 20.0496 19.9976 20.0152 19.8807 19.9533C19.7707 19.8983 19.6744 19.8227 19.6263 19.7264C19.5644 19.6233 19.5231 19.5132 19.5369 19.3895C19.5369 19.2726 19.5644 19.1419 19.6331 19.0113C19.7019 18.8738 19.7844 18.7844 19.8807 18.7088C19.977 18.64 20.087 18.5987 20.2039 18.5987C20.3139 18.585 20.4308 18.6194 20.5408 18.6744C20.6577 18.7363 20.7471 18.8119 20.809 18.9082Z" fill="#8A191E"/>
<defs>
<linearGradient id="paint0_linear_549_45800" x1="82.0668" y1="-24.7847" x2="82.2809" y2="-24.1792" gradientUnits="userSpaceOnUse">
<stop stop-color="#DEC4C6"/>
<stop offset="0.5" stop-color="#DEC4C6"/>
<stop offset="1" stop-color="#DEC4C6"/>
</linearGradient>
<linearGradient id="paint1_linear_549_45800" x1="82.4252" y1="-23.7724" x2="99.1176" y2="23.4268" gradientUnits="userSpaceOnUse">
<stop stop-color="#D2A9AE"/>
<stop offset="0.125" stop-color="#D2A9AE"/>
<stop offset="0.15625" stop-color="#D1A9AE"/>
<stop offset="0.1875" stop-color="#D1A9AD"/>
<stop offset="0.21875" stop-color="#D0A9AD"/>
<stop offset="0.25" stop-color="#D0A9AD"/>
<stop offset="0.375" stop-color="#D0A8AD"/>
<stop offset="0.4375" stop-color="#CFA8AD"/>
<stop offset="0.46875" stop-color="#CFA8AD"/>
<stop offset="0.5" stop-color="#CFA7AD"/>
<stop offset="0.53125" stop-color="#CFA7AD"/>
<stop offset="0.5625" stop-color="#CEA7AD"/>
<stop offset="0.625" stop-color="#CEA7AC"/>
<stop offset="0.65625" stop-color="#CEA7AC"/>
<stop offset="0.6875" stop-color="#CEA7AC"/>
<stop offset="0.75" stop-color="#CEA6AC"/>
<stop offset="0.8125" stop-color="#CDA6AB"/>
<stop offset="0.84375" stop-color="#CDA5AB"/>
<stop offset="0.875" stop-color="#CDA5AB"/>
<stop offset="0.9375" stop-color="#CDA5AB"/>
<stop offset="0.96875" stop-color="#CDA5AB"/>
<stop offset="1" stop-color="#CDA5AA"/>
</linearGradient>
<linearGradient id="paint2_linear_549_45800" x1="82.4252" y1="-23.7725" x2="99.1086" y2="23.4014" gradientUnits="userSpaceOnUse">
<stop stop-color="#BD858D"/>
<stop offset="0.125" stop-color="#BD858D"/>
<stop offset="0.15625" stop-color="#BC858D"/>
<stop offset="0.1875" stop-color="#BC858D"/>
<stop offset="0.21875" stop-color="#BB858D"/>
<stop offset="0.25" stop-color="#BB848D"/>
<stop offset="0.375" stop-color="#BB848D"/>
<stop offset="0.40625" stop-color="#BB848C"/>
<stop offset="0.4375" stop-color="#BA848C"/>
<stop offset="0.46875" stop-color="#BA848C"/>
<stop offset="0.5" stop-color="#BA838C"/>
<stop offset="0.625" stop-color="#BA838C"/>
<stop offset="0.6875" stop-color="#B9838C"/>
<stop offset="0.71875" stop-color="#B9838C"/>
<stop offset="0.75" stop-color="#B9838C"/>
<stop offset="0.78125" stop-color="#B9838B"/>
<stop offset="0.8125" stop-color="#B8838B"/>
<stop offset="0.875" stop-color="#B8838B"/>
<stop offset="1" stop-color="#B8828A"/>
</linearGradient>
</defs>
</svg>
