<svg width="34" height="60" viewBox="0 0 34 60" fill="none" xmlns="http://www.w3.org/2000/svg">
<path fill-rule="evenodd" clip-rule="evenodd" d="M9.96437 51.6912H23.7328C24.2516 51.6912 24.6767 52.1162 24.6767 52.635V56.7014C24.4989 56.8339 24.3276 56.9826 24.4359 56.9907C24.6347 57.0085 24.6751 57.1863 24.6751 57.1863V58.1592L24.6767 58.1527V58.8122C24.6767 60.3863 9.02051 60.4057 9.02051 58.8122V57.1863C9.02051 57.1798 9.06415 57.0085 9.25971 56.9907C9.36799 56.9826 9.19829 56.8355 9.02051 56.703V52.635C9.02051 52.1162 9.44557 51.6912 9.96437 51.6912Z" fill="#D9C2A8"/>
<path fill-rule="evenodd" clip-rule="evenodd" d="M24.5005 52.087C24.6104 52.2422 24.6767 52.4313 24.6767 52.6349V56.7013C24.4989 56.8338 24.3276 56.9825 24.4359 56.9906C24.6347 57.0084 24.6751 57.1861 24.6751 57.1861V57.2249C22.5465 58.3078 11.1442 58.3175 9.02051 57.2282V57.1861C9.02051 57.1797 9.06415 57.0084 9.25971 56.9906C9.36799 56.9825 9.19829 56.8354 9.02051 56.7029V52.6349C9.02051 52.4313 9.08516 52.2422 9.19667 52.087C9.33567 52.0159 9.49406 51.9739 9.66214 51.9739H24.0351C24.2031 51.9739 24.3615 52.0159 24.5005 52.087Z" fill="#C9B49A"/>
<path fill-rule="evenodd" clip-rule="evenodd" d="M16.8473 55.4536C18.7609 55.4536 20.3125 56.4379 20.3125 57.6517C20.3125 58.8638 18.7609 59.8481 16.8473 59.8481C14.9353 59.8481 13.3838 58.8638 13.3838 57.6517C13.3838 56.4379 14.9353 55.4536 16.8473 55.4536Z" fill="#C9B195"/>
<path fill-rule="evenodd" clip-rule="evenodd" d="M20.0846 56.8677C20.2316 57.1101 20.3125 57.3752 20.3125 57.6516C20.3125 58.8039 18.9096 59.751 17.1253 59.8399C19.1181 59.7042 19.4009 58.5777 19.1165 58.2237C18.8401 57.8795 17.2788 58.075 16.8312 58.0314C16.3835 58.075 14.8238 57.8795 14.5458 58.2237C14.2662 58.5696 14.5329 59.6557 16.4109 59.8302C14.7042 59.6945 13.3838 58.77 13.3838 57.6516C13.3838 57.3526 13.4775 57.0681 13.6472 56.8095L13.7103 56.7578C13.7103 56.7578 15.9762 57.1392 16.8312 57.5013C17.6861 57.1392 19.952 56.7578 19.952 56.7578L20.0846 56.8677Z" fill="#B49D80"/>
<path fill-rule="evenodd" clip-rule="evenodd" d="M20.0846 56.8677C20.2316 57.1101 20.3125 57.3752 20.3125 57.6516C20.3125 57.7485 20.3011 57.8455 20.2818 57.9409C19.6692 57.978 19.0243 58.0055 18.3665 58.0217C17.8057 57.9942 17.1075 58.0572 16.8312 58.0314C16.5532 58.0589 15.8469 57.9942 15.2844 58.0217C14.6428 58.0071 14.0141 57.9813 13.4145 57.9441C13.3951 57.8488 13.3838 57.7502 13.3838 57.6516C13.3838 57.3526 13.4775 57.0681 13.6472 56.8095L13.7103 56.7578C13.7103 56.7578 15.9762 57.1392 16.8312 57.5013C17.6861 57.1392 19.952 56.7578 19.952 56.7578L20.0846 56.8677Z" fill="#A79073"/>
<path fill-rule="evenodd" clip-rule="evenodd" d="M19.7571 51.6912H23.7329C24.2517 51.6912 24.6768 52.1162 24.6768 52.635V56.7014C24.499 56.8339 24.3277 56.9826 24.436 56.9907C24.6348 57.0085 24.6752 57.1863 24.6752 57.1863V58.1592L24.6768 58.1527V58.8122C24.6768 59.3083 23.1172 59.651 20.9838 59.8352C21.2424 59.6461 21.5123 59.4134 21.7806 59.1273C23.0396 57.7907 23.3257 53.4157 20.4294 52.391C19.8734 52.1954 19.6876 51.9481 19.7571 51.6912Z" fill="#C9B195"/>
<path fill-rule="evenodd" clip-rule="evenodd" d="M24.5 52.087C24.6099 52.2422 24.6762 52.4313 24.6762 52.6349V56.7013C24.4984 56.8338 24.3271 56.9825 24.4353 56.9906C24.6341 57.0084 24.6745 57.1861 24.6745 57.1861V57.2249C24.256 57.4366 23.4802 57.6096 22.4846 57.7389C22.9937 55.8932 22.6333 53.1715 20.4288 52.3909C20.0813 52.268 19.8793 52.1258 19.792 51.9739H24.0345C24.2026 51.9739 24.361 52.0159 24.5 52.087Z" fill="#BFA78A"/>
<path fill-rule="evenodd" clip-rule="evenodd" d="M21.7769 51.6912H23.7326C24.2514 51.6912 24.6764 52.1162 24.6764 52.635V56.7014C24.4986 56.8339 24.3273 56.9826 24.4356 56.9907C24.6344 57.0085 24.6748 57.1863 24.6748 57.1863V58.1592L24.6764 58.1527V58.8122C24.6764 59.2275 23.5871 59.5346 21.9822 59.7318L22.0339 59.7189C24.9431 58.998 24.455 53.5757 23.7455 53.0051C23.1814 52.551 21.5717 52.5914 20.9446 52.6269C20.8396 52.5671 20.728 52.5122 20.6133 52.4637C20.7119 52.2665 21.2048 51.9756 21.7769 51.6912Z" fill="#BFA98E"/>
<path fill-rule="evenodd" clip-rule="evenodd" d="M24.5003 52.087C24.6102 52.2422 24.6764 52.4313 24.6764 52.6349V56.7013C24.4986 56.8338 24.3273 56.9825 24.4356 56.9906C24.6344 57.0084 24.6748 57.1861 24.6748 57.1861V57.2249C24.5132 57.3074 24.2966 57.3833 24.0332 57.4544C24.5487 55.6346 24.1916 53.3638 23.7455 53.005C23.1814 52.5509 21.5717 52.5913 20.9446 52.6268C20.8396 52.567 20.728 52.5121 20.6133 52.4636C20.6795 52.3327 20.9204 52.1597 21.242 51.9739H24.0348C24.2029 51.9739 24.3613 52.0159 24.5003 52.087Z" fill="#AA957B"/>
<path fill-rule="evenodd" clip-rule="evenodd" d="M9.96437 51.6912H14.1293C14.1988 51.9481 14.013 52.1954 13.457 52.391C10.5608 53.4157 10.8468 57.7907 12.1058 59.1273C12.3854 59.4247 12.665 59.6639 12.9333 59.8595C10.6868 59.6801 9.02051 59.3326 9.02051 58.8122V57.1863C9.02051 57.1798 9.06415 57.0085 9.25971 56.9907C9.36799 56.9826 9.19829 56.8355 9.02051 56.703V52.635C9.02051 52.1162 9.44557 51.6912 9.96437 51.6912Z" fill="#C9B195"/>
<path fill-rule="evenodd" clip-rule="evenodd" d="M14.0938 51.9739C14.0065 52.1258 13.8045 52.268 13.457 52.3909C11.2412 53.1747 10.8888 55.9223 11.4093 57.768C10.3183 57.6371 9.46658 57.456 9.02051 57.2282V57.1861C9.02051 57.1797 9.06415 57.0084 9.25971 56.9906C9.36799 56.9825 9.19829 56.8354 9.02051 56.7029V52.6349C9.02051 52.4313 9.08516 52.2422 9.19667 52.087C9.33567 52.0159 9.49406 51.9739 9.66214 51.9739H14.0938Z" fill="#BFA78A"/>
<path fill-rule="evenodd" clip-rule="evenodd" d="M9.96437 51.6912H11.823C12.5778 52.0661 13.1919 52.4508 12.9527 52.6205L12.922 52.6383L12.9107 52.6447C12.9107 52.6447 10.5624 52.4346 9.85447 53.0051C9.14657 53.5757 8.65848 58.9964 11.566 59.7189C10.0436 59.5217 9.02051 59.2194 9.02051 58.8122V57.1863C9.02051 57.1798 9.06415 57.0085 9.25971 56.9907C9.36799 56.9826 9.19829 56.8355 9.02051 56.703V52.635C9.02051 52.1162 9.44557 51.6912 9.96437 51.6912Z" fill="#BFA98E"/>
<path fill-rule="evenodd" clip-rule="evenodd" d="M12.358 51.9739C12.8348 52.247 13.1321 52.4927 12.9527 52.6204L12.922 52.6381L12.9107 52.6446C12.9107 52.6446 10.5624 52.4345 9.85447 53.005C9.41163 53.3622 9.05445 55.6168 9.56194 57.4318C9.34213 57.3688 9.16112 57.2993 9.02051 57.2282V57.1861C9.02051 57.1797 9.06415 57.0084 9.25971 56.9906C9.36799 56.9825 9.19829 56.8354 9.02051 56.7029V52.6349C9.02051 52.4313 9.08516 52.2422 9.19667 52.087C9.33567 52.0159 9.49406 51.9739 9.66214 51.9739H12.358Z" fill="#AA957B"/>
<path fill-rule="evenodd" clip-rule="evenodd" d="M9.96437 51.6912H23.7328C24.2516 51.6912 24.6767 52.1162 24.6767 52.635V56.5689C24.6767 58.1447 9.02051 58.1641 9.02051 56.5689V52.635C9.02051 52.1162 9.44557 51.6912 9.96437 51.6912Z" fill="#D9C2A8"/>
<path fill-rule="evenodd" clip-rule="evenodd" d="M20.3125 57.6338C18.1484 57.7971 15.5463 57.7987 13.3838 57.6387C13.3854 56.3021 14.9353 55.2192 16.8473 55.2192C18.7577 55.2192 20.3076 56.3005 20.3125 57.6338Z" fill="#C9B195"/>
<path fill-rule="evenodd" clip-rule="evenodd" d="M20.3125 57.6452C18.1484 57.7939 15.5463 57.7955 13.3838 57.65C13.3854 56.4363 14.9353 55.4536 16.8473 55.4536C18.7577 55.4536 20.3076 56.4346 20.3125 57.6452Z" fill="#ECD4BA"/>
<path fill-rule="evenodd" clip-rule="evenodd" d="M20.3125 57.6451C18.1484 57.7938 15.5463 57.7954 13.3838 57.65L13.3854 57.6015L13.387 57.5497C13.4662 56.4782 14.7576 55.6071 16.4109 55.4745C14.5329 55.6491 14.2662 56.7352 14.5458 57.081C14.8238 57.4253 16.3835 57.2314 16.8312 57.2734C17.2788 57.2314 18.8401 57.4253 19.1165 57.081C19.4009 56.7271 19.1181 55.6006 17.1253 55.4648C18.8514 55.5521 20.222 56.441 20.3076 57.5449V57.5546L20.3108 57.5982V57.6015L20.3125 57.6451Z" fill="#DDC7AE"/>
<path fill-rule="evenodd" clip-rule="evenodd" d="M19.7571 51.6912H23.7329C24.2517 51.6912 24.6768 52.1162 24.6768 52.635V56.5689C24.6768 56.9325 23.8445 57.2121 22.5644 57.4093C22.9475 55.5846 22.5062 53.1264 20.4294 52.391C19.8734 52.1954 19.6876 51.9481 19.7571 51.6912Z" fill="#C9B195"/>
<path fill-rule="evenodd" clip-rule="evenodd" d="M21.7769 51.6912H23.7326C24.2514 51.6912 24.6764 52.1162 24.6764 52.635V56.5689C24.6764 56.745 24.4809 56.9018 24.135 57.0392C24.4954 55.305 24.1576 53.3365 23.7455 53.0051C23.1814 52.551 21.5717 52.5914 20.9446 52.6269C20.8396 52.5671 20.7296 52.5122 20.6133 52.4637C20.7135 52.2649 21.2048 51.9756 21.7769 51.6912Z" fill="#BFA98E"/>
<path fill-rule="evenodd" clip-rule="evenodd" d="M9.96437 51.6912H14.1293C14.1988 51.9481 14.013 52.1954 13.457 52.391C11.3672 53.1296 10.9341 55.6153 11.3301 57.4449C9.93851 57.2461 9.02051 56.9551 9.02051 56.5689V52.635C9.02051 52.1162 9.44557 51.6912 9.96437 51.6912Z" fill="#C9B195"/>
<path fill-rule="evenodd" clip-rule="evenodd" d="M9.96437 51.6912H11.823C12.581 52.0677 13.1968 52.454 12.9511 52.6221L12.9123 52.6431L12.9107 52.6447C12.9107 52.6447 10.5624 52.4346 9.85447 53.0051C9.44719 53.3348 9.11102 55.2759 9.4585 56.9988C9.17728 56.8711 9.02051 56.7289 9.02051 56.5689V52.635C9.02051 52.1162 9.44557 51.6912 9.96437 51.6912Z" fill="#BFA98E"/>
<path fill-rule="evenodd" clip-rule="evenodd" d="M9.96434 51.6912H23.7328C23.9477 51.6912 24.1482 51.7639 24.3065 51.8867C22.1812 52.9421 11.5046 52.9534 9.38574 51.89C9.54575 51.7655 9.74616 51.6912 9.96434 51.6912Z" fill="#7E6D58"/>
<path fill-rule="evenodd" clip-rule="evenodd" d="M11.2026 52.1646C9.61382 51.8349 9.352 49.0567 6.00807 44.5717C2.66576 40.0867 1.79947 38.1198 2.23261 35.9169C7.63074 8.42528 0.275391 12.1232 0.275391 6.85917V3.52494C0.275391 1.58711 1.8625 0 3.80195 0C12.5004 0 21.1972 0 29.8956 0C31.835 0 33.4205 1.58711 33.4205 3.52494V6.85917C33.4205 12.1232 26.0652 8.42528 31.4649 35.9169C31.8981 38.1198 31.0318 40.0867 27.6878 44.5717C24.3439 49.0567 23.9754 51.9578 22.495 52.1646C20.806 52.4006 18.5644 52.4992 16.6104 52.4992C14.8002 52.4992 12.7897 52.4943 11.2026 52.1646Z" fill="#D9C2A8"/>
<path fill-rule="evenodd" clip-rule="evenodd" d="M29.5306 41.9761C29.0247 42.7405 28.4154 43.5971 27.6881 44.5717C25.545 47.4469 24.6238 49.6708 23.8496 50.9509C23.8496 50.9509 24.0064 50.2575 25.1668 47.7799C26.3256 45.3071 29.5176 41.9874 29.5306 41.9761Z" fill="#BFA98E"/>
<path fill-rule="evenodd" clip-rule="evenodd" d="M11.2021 52.0401C14.9662 52.0401 18.7304 52.0401 22.4945 52.0401L22.5979 52.0256C23.0683 51.8882 23.7713 49.9019 23.9814 49.4962C24.9511 47.6101 25.9128 45.9066 27.1863 44.1983C28.2466 42.776 29.4264 41.1727 30.2135 39.5792C30.6628 38.6709 30.9925 37.727 30.9359 36.7007C30.923 36.4777 30.8939 36.2563 30.8503 36.0364C29.9792 31.6016 29.2131 26.9986 28.9448 22.4797C28.7977 19.9762 28.7848 17.2464 29.289 14.7785C29.5832 13.3385 30.0519 12.0277 30.8471 10.7881C31.3125 10.0592 31.9364 9.3723 32.3501 8.63369C32.6717 8.06155 32.7962 7.51366 32.7962 6.8591V3.52487C32.7962 1.93129 31.4887 0.623779 29.8951 0.623779C21.1967 0.623779 12.4999 0.623779 3.80148 0.623779C2.20628 0.623779 0.900391 1.93129 0.900391 3.52487V6.8591C0.900391 7.51366 1.02484 8.06155 1.34485 8.63369C1.76021 9.3723 2.38245 10.0592 2.84953 10.7881C3.64309 12.0277 4.11179 13.3385 4.40594 14.7785C4.91181 17.2464 4.89888 19.9762 4.75019 22.4797C4.48352 26.9986 3.71582 31.6016 2.84469 36.0364C2.80266 36.2563 2.77357 36.4777 2.76064 36.7007C2.70408 37.727 3.03378 38.6709 3.48147 39.5792C4.26856 41.1727 5.44839 42.776 6.50862 44.1983C7.78381 45.9066 8.74545 47.6101 9.71517 49.4962C9.92366 49.9019 10.6283 51.8882 11.097 52.0256L11.2021 52.0401Z" fill="#BF1E24"/>
<path fill-rule="evenodd" clip-rule="evenodd" d="M16.5332 52.0402H22.4954L22.5988 52.0257C23.0691 51.8883 23.7722 49.902 23.9823 49.4963C24.952 47.6102 25.9137 45.9067 27.1872 44.1984C28.2475 42.7761 29.4273 41.1728 30.2144 39.5793C30.6637 38.671 30.9934 37.7271 30.9368 36.7008C30.9239 36.4778 30.8948 36.2564 30.8512 36.0365C30.8027 35.7925 30.7558 35.5452 30.7089 35.2996C28.923 35.5824 25.9799 36.2871 23.9791 37.9922C23.9758 38.4867 24.4106 38.8568 24.9617 39.172C25.5128 39.4871 25.7294 40.1352 25.2769 41.2763C24.8243 42.4173 22.5035 49.9117 20.8113 50.5404C19.1191 51.1707 16.5655 51.5392 16.5655 51.5392C16.5655 51.5392 16.5413 51.7558 16.5332 52.0402Z" fill="#AB1C22"/>
<path fill-rule="evenodd" clip-rule="evenodd" d="M11.2026 52.0401H17.4024C17.3943 51.7557 17.3701 51.5391 17.3701 51.5391C17.3701 51.5391 14.8149 51.1706 13.1243 50.5403C11.4321 49.9116 9.11127 42.4172 8.65874 41.2762C8.2062 40.1352 8.42277 39.4871 8.9739 39.1719C9.52341 38.8567 9.95978 38.4866 9.95655 37.9921C7.8668 36.211 4.74914 35.5225 2.99555 35.2639C2.94707 35.5225 2.89697 35.7795 2.84525 36.0365C2.80323 36.2563 2.77413 36.4777 2.76121 36.7007C2.70464 37.727 3.03434 38.6709 3.48203 39.5792C4.26912 41.1728 5.44895 42.776 6.50918 44.1983C7.78437 45.9066 8.74601 47.6101 9.71574 49.4962C9.92423 49.9019 10.6289 51.8882 11.0976 52.0256L11.2026 52.0401Z" fill="#AB1C22"/>
<path fill-rule="evenodd" clip-rule="evenodd" d="M30.9053 37.4911C30.9393 37.2325 30.9506 36.9707 30.936 36.7008C30.9231 36.4778 30.894 36.2564 30.8504 36.0366C29.9792 31.6017 29.2132 26.9987 28.9449 22.4798C28.7978 19.9763 28.7849 17.2466 29.2891 14.7786C29.5833 13.3386 30.052 12.0278 30.8471 10.7882C31.1946 10.2468 31.6278 9.72635 31.9995 9.19139C28.5537 8.30248 22.7047 7.8564 16.8476 7.85964C10.9921 7.8564 5.14301 8.30248 1.69727 9.19139C2.06738 9.72635 2.50214 10.2468 2.84962 10.7882C3.64318 12.0278 4.11188 13.3386 4.40603 14.7786C4.9119 17.2466 4.89897 19.9763 4.75028 22.4798C4.4836 26.9987 3.71591 31.6017 2.84477 36.0366C2.80275 36.2564 2.77366 36.4778 2.76073 36.7008C2.74618 36.9707 2.7575 37.2325 2.78982 37.4911C5.64242 39.4661 11.6256 41.0322 16.6407 41.0743L16.8476 41.0759L17.0544 41.0743C22.0711 41.0322 28.0543 39.4661 30.9053 37.4911Z" fill="#CB2C2E"/>
<path fill-rule="evenodd" clip-rule="evenodd" d="M30.9056 37.4911C30.9395 37.2325 30.9508 36.9707 30.9363 36.7008C30.9234 36.4778 30.8943 36.2564 30.8506 36.0366C30.8022 35.7925 30.7553 35.5452 30.7084 35.2996C28.9225 35.5824 25.9794 36.2871 23.9785 37.9922C23.9753 38.4867 24.4101 38.8568 24.9612 39.172C25.2117 39.3142 25.3927 39.5259 25.4735 39.8217C27.6732 39.1978 29.6126 38.3865 30.9056 37.4911Z" fill="#BF1E24"/>
<path fill-rule="evenodd" clip-rule="evenodd" d="M2.99548 35.2639C2.947 35.5225 2.89689 35.7795 2.84517 36.0365C2.80315 36.2563 2.77406 36.4777 2.76113 36.7007C2.74659 36.9706 2.7579 37.2325 2.79022 37.491C4.12844 38.4171 6.15355 39.2527 8.44532 39.8846C8.51805 39.5566 8.70553 39.3254 8.97382 39.1719C9.52333 38.8567 9.95971 38.4866 9.95648 37.9921C7.86672 36.211 4.74906 35.5225 2.99548 35.2639Z" fill="#BF1E24"/>
<path fill-rule="evenodd" clip-rule="evenodd" d="M30.6502 11.1081C30.7132 11.0014 30.7795 10.8948 30.8474 10.7881C31.3129 10.0592 31.9367 9.3723 32.3505 8.63369C32.6721 8.06155 32.7965 7.51366 32.7965 6.8591V3.52487C32.7965 1.93129 31.489 0.623779 29.8954 0.623779H22.5401C22.5676 0.83227 22.5999 1.04723 22.6371 1.26865C27.0913 3.91599 26.3107 6.28858 20.8657 6.28535C16.9884 6.28211 22.7938 9.45149 22.7938 9.45149C22.7938 9.45149 27.7766 10.7638 30.6502 11.1081Z" fill="#B51D23"/>
<path fill-rule="evenodd" clip-rule="evenodd" d="M8.53534 0.623779H3.80148C2.20628 0.623779 0.900391 1.93129 0.900391 3.52487V6.8591C0.900391 7.51366 1.02484 8.06155 1.34485 8.63369C1.74567 9.34805 2.34205 10.0139 2.80266 10.717C5.43385 10.2014 8.2816 9.45149 8.2816 9.45149C8.2816 9.45149 14.0886 6.28211 10.2097 6.28535C4.76474 6.28858 3.98411 3.91599 8.43999 1.26865C8.47554 1.04723 8.50787 0.83227 8.53534 0.623779Z" fill="#B51D23"/>
<path fill-rule="evenodd" clip-rule="evenodd" d="M30.8566 36.0706L30.8501 36.0367C29.979 31.6018 29.2129 26.9988 28.9446 22.4799C28.7975 19.9764 28.7846 17.2467 29.2888 14.7787C29.583 13.3387 30.0517 12.0279 30.8469 10.7883C31.3123 10.0594 31.9362 9.37252 32.3499 8.63391C32.4518 8.4529 32.5342 8.27511 32.5988 8.09571C27.9264 5.17038 5.81993 5.18655 1.05859 7.97935C1.12809 8.19915 1.22183 8.41411 1.34466 8.63391C1.76003 9.37252 2.38227 10.0594 2.84935 10.7883C3.64291 12.0279 4.1116 13.3387 4.40575 14.7787C4.91163 17.2467 4.8987 19.9764 4.75001 22.4799C4.48333 26.9988 3.71563 31.6018 2.8445 36.0367C2.8348 36.09 2.82511 36.1417 2.81702 36.1934C9.597 40.1645 24.1315 40.1483 30.8566 36.0706Z" fill="#AB1C22"/>
<path fill-rule="evenodd" clip-rule="evenodd" d="M29.4963 35.4418C28.6915 31.1847 27.9836 26.8776 27.7282 22.5526C27.5714 19.9133 27.5634 17.1318 28.0951 14.5346C28.4183 12.9523 28.9468 11.4945 29.8196 10.1304C30.1541 9.60841 30.5711 9.11386 30.9299 8.5999C23.303 5.34163 10.2457 5.49517 2.71582 8.52717C3.08593 9.06699 3.52554 9.58256 3.87626 10.1304C4.75062 11.4945 5.27912 12.9523 5.60236 14.5346C6.13409 17.1318 6.1244 19.9133 5.96924 22.5526C5.71065 26.9131 5.01083 31.2623 4.18333 35.5517C10.3427 40.3793 23.5018 40.347 29.4963 35.4418Z" fill="#BF1E24"/>
<path fill-rule="evenodd" clip-rule="evenodd" d="M10.3847 6.62964C7.54342 7.01268 4.8977 7.64785 2.71582 8.52706C3.08593 9.06688 3.52554 9.58244 3.87626 10.1303C4.75062 11.4944 5.27912 12.9522 5.60236 14.5345C6.13409 17.1317 6.1244 19.9132 5.96924 22.5525C5.71065 26.913 5.01083 31.2622 4.18333 35.5516C6.00157 36.9771 8.43072 37.9792 11.1055 38.5561C5.79631 36.6151 7.85212 30.7693 8.40163 24.938C9.03033 18.2502 5.64762 14.1191 6.35551 10.696C6.83391 8.38484 9.0174 7.1743 10.3847 6.62964Z" fill="#B51D23"/>
<path fill-rule="evenodd" clip-rule="evenodd" d="M29.4955 35.4417C28.6907 31.1846 27.9828 26.8774 27.7274 22.5524C27.5706 19.9132 27.5626 17.1317 28.0943 14.5344C28.4175 12.9522 28.946 11.4944 29.8188 10.1303C30.1533 9.60824 30.5703 9.11368 30.9291 8.59973C27.7339 7.23565 23.5867 6.46957 19.2908 6.2627C19.3668 6.28047 23.7435 7.30353 24.4449 10.6959C25.1528 14.1191 21.7701 18.2501 22.4004 24.9379C23.0291 31.6242 25.6393 38.3266 16.8633 39.146C21.6844 39.1347 26.491 37.8999 29.4955 35.4417Z" fill="#B51D23"/>
<path fill-rule="evenodd" clip-rule="evenodd" d="M31.0574 0.730449C30.7003 0.662568 30.3075 0.623779 29.8954 0.623779C21.197 0.623779 12.5002 0.623779 3.80176 0.623779C3.38963 0.623779 2.99527 0.662568 2.63971 0.730449C2.55082 0.854897 2.47162 1.00197 2.55728 1.04399C5.60383 2.5309 28.0933 2.5309 31.1383 1.04399C31.2255 1.00197 31.1463 0.854897 31.0574 0.730449Z" fill="#CB2C2E"/>
<path fill-rule="evenodd" clip-rule="evenodd" d="M11.2124 52.1258C12.8965 52.5347 14.7874 52.4991 16.6105 52.4991C18.5516 52.4991 20.887 52.4781 22.5193 52.1031L22.6486 52.0789C23.1173 51.9431 23.7719 49.9019 23.982 49.4962C24.9517 47.6101 25.9134 45.9066 27.1869 44.1983C27.7171 43.4871 28.2779 42.7308 28.8031 41.9534C27.5748 42.7195 23.8155 47.7766 23.1658 49.6853C22.5177 51.5924 21.4543 51.5924 21.4543 51.5924C21.4543 51.5924 16.1838 51.809 14.2751 51.7702C12.368 51.7298 11.2027 52.0401 10.1441 49.1148C9.08867 46.1894 5.73828 43.1526 5.73828 43.1526C5.99849 43.5098 6.25708 43.8589 6.50921 44.1983C7.7844 45.9066 8.74604 47.6101 9.71576 49.4962C9.90163 49.8582 10.4851 51.4825 10.9408 51.9221L11.2124 52.1258Z" fill="#7F171B"/>
<path fill-rule="evenodd" clip-rule="evenodd" d="M9.2209 3.4828C8.492 3.80443 7.64672 5.31558 9.83021 5.32851C12.0137 5.34305 17.3439 5.1685 19.4887 5.19598C21.6334 5.22184 23.5599 5.26224 23.6585 5.06183C23.7571 4.86143 24.069 3.61856 22.616 3.37613C21.163 3.1337 10.0274 3.25492 9.2209 3.4828Z" fill="#CB2C2E"/>
<path fill-rule="evenodd" clip-rule="evenodd" d="M13.8242 7.13722C13.8242 7.13722 8.41153 7.72552 7.45151 10.6395C6.4931 13.5536 9.30045 17.2094 9.57682 20.159C9.85157 23.1102 7.80546 31.175 8.90771 34.0858C10.0083 36.9966 12.1724 37.6657 14.7697 37.8225C17.3653 37.9809 19.6086 36.3679 19.2547 35.3044C18.8991 34.2426 14.1798 34.2426 13.0387 29.4037C11.8977 24.5648 11.1898 16.4611 12.4488 13.5503C13.7078 10.6395 16.1467 8.71141 19.0187 9.06536C21.8891 9.41931 21.7323 6.7057 13.8242 7.13722Z" fill="#CB2C2E"/>
<path fill-rule="evenodd" clip-rule="evenodd" d="M24.6767 56.4202V56.863C24.153 57.3592 22.3025 57.6727 20.0366 57.8133C19.0248 57.8748 17.9242 57.9055 16.8235 57.9055C15.7213 57.9055 14.6239 57.8748 13.6138 57.8133C11.3689 57.676 9.53931 57.3624 9.02051 56.8662V56.4202C9.43426 57.343 12.7459 57.4626 13.6315 57.5176C14.6401 57.579 15.7326 57.6097 16.8235 57.6097C17.9145 57.6097 19.007 57.579 20.0188 57.516C20.5618 57.4836 24.6767 57.2315 24.6767 56.4202Z" fill="#A79784"/>
<path fill-rule="evenodd" clip-rule="evenodd" d="M20.3044 57.7954L20.0361 57.8132C19.0243 57.8746 17.9237 57.9053 16.8231 57.9053C15.7208 57.9053 14.6234 57.8746 13.6133 57.8132L13.3919 57.7987C13.387 57.7502 13.3838 57.7001 13.3838 57.6516C13.3838 57.6015 13.387 57.553 13.3919 57.5029L13.6311 57.5174C14.6396 57.5789 15.7321 57.6096 16.8231 57.6096C17.914 57.6096 19.0066 57.5789 20.0183 57.5158C20.0765 57.5126 20.1751 57.5061 20.3028 57.498C20.3092 57.5481 20.3125 57.5999 20.3125 57.6516C20.3125 57.6985 20.3092 57.7469 20.3044 57.7954Z" fill="#7E6D58"/>
<path fill-rule="evenodd" clip-rule="evenodd" d="M24.6769 56.4202V56.863C24.3666 57.1572 23.5876 57.3883 22.5322 57.5564C22.5565 57.4562 22.5759 57.3559 22.5953 57.2525C23.6749 57.0844 24.6769 56.821 24.6769 56.4202Z" fill="#7E6D58"/>
<path fill-rule="evenodd" clip-rule="evenodd" d="M24.6763 56.4202V56.863C24.5535 56.9794 24.3595 57.086 24.1025 57.1814C24.1268 57.0812 24.1478 56.9794 24.1672 56.8759C24.4791 56.7483 24.6763 56.5979 24.6763 56.4202Z" fill="#685A47"/>
<path fill-rule="evenodd" clip-rule="evenodd" d="M11.364 57.5919C10.2068 57.4222 9.35021 57.1814 9.02051 56.8662V56.4202C9.14819 57.002 10.8355 57.238 11.2994 57.2994C11.3188 57.3996 11.3398 57.4966 11.364 57.5919Z" fill="#7E6D58"/>
<path fill-rule="evenodd" clip-rule="evenodd" d="M9.48921 57.1458C9.28395 57.0602 9.12556 56.9664 9.02051 56.8662V56.4202C9.05606 56.5818 9.21122 56.7159 9.42618 56.8274C9.44557 56.9341 9.46658 57.0408 9.48921 57.1458Z" fill="#685A47"/>
<path fill-rule="evenodd" clip-rule="evenodd" d="M4.16211 41.9761C4.66798 42.7405 5.27729 43.5971 6.00458 44.5717C8.14767 47.4469 9.06891 49.6708 9.84307 50.9509C9.84307 50.9509 9.6863 50.2575 8.52586 47.7799C7.36704 45.3071 4.17504 41.9874 4.16211 41.9761Z" fill="#BFA98E"/>
<path fill-rule="evenodd" clip-rule="evenodd" d="M16.8236 37.1338C16.6782 37.1419 16.5343 37.1387 16.3905 37.1257C13.8207 36.8801 11.4481 35.9023 9.50544 34.1972C8.7329 33.52 7.83267 32.5341 7.33165 31.6193C7.22498 31.4205 7.17811 31.2266 7.18296 31.0019L7.68398 11.5687C7.69853 11.0046 8.07995 10.5376 8.63108 10.4115C11.3188 9.79734 14.0551 9.23975 16.8236 9.23975C19.5906 9.23975 22.3268 9.79734 25.0145 10.4115C25.5657 10.5376 25.9471 11.0046 25.9616 11.5687L26.4627 31.0019C26.4691 31.2266 26.4223 31.4205 26.314 31.6193C25.8129 32.5325 24.9143 33.5184 24.1418 34.1972C22.1991 35.9023 19.8265 36.8801 17.2568 37.1257C17.1113 37.1387 16.9675 37.1419 16.8236 37.1338Z" fill="#B89360"/>
<path fill-rule="evenodd" clip-rule="evenodd" d="M24.3307 10.2563C24.5586 10.3081 24.7865 10.3598 25.0144 10.4115C25.5655 10.5376 25.947 11.0047 25.9615 11.5687L26.4625 31.002C26.469 31.2266 26.4221 31.4206 26.3138 31.6193C25.8128 32.5325 24.9142 33.5184 24.1417 34.1972C23.7715 34.5204 23.3869 34.8178 22.9893 35.0893C23.7117 32.3757 22.7501 28.6552 22.401 24.938C21.7707 18.2501 25.1534 14.1191 24.4455 10.696C24.4148 10.5456 24.376 10.3986 24.3307 10.2563Z" fill="#AF8C5A"/>
<path fill-rule="evenodd" clip-rule="evenodd" d="M16.8231 37.1338C16.6776 37.1419 16.5338 37.1387 16.3899 37.1257C13.8202 36.8801 11.4476 35.9023 9.50491 34.1972C9.2544 33.9774 8.98935 33.7252 8.73075 33.4521C8.06164 30.1437 9.833 22.9177 9.57603 20.1588C9.40148 18.3034 8.22811 16.1684 7.61719 14.1142L7.68345 11.5687C7.698 11.0046 8.07942 10.5376 8.63055 10.4115C11.3183 9.79734 14.0545 9.23975 16.8231 9.23975H16.8425C14.937 9.80057 13.3725 11.4087 12.448 13.5502C11.189 16.4609 11.8969 24.5646 13.0379 29.4035C14.179 34.2424 18.8983 34.2424 19.2539 35.3043C19.43 35.8328 18.9629 36.497 18.1322 37.011C17.8429 37.0595 17.5504 37.0967 17.2562 37.1257C17.1108 37.1387 16.9669 37.1419 16.8231 37.1338Z" fill="#CCA56C"/>
<path fill-rule="evenodd" clip-rule="evenodd" d="M8.90239 11.6011L8.40137 31.0327C8.40137 31.0327 10.7626 35.3609 16.5066 35.912C16.6165 35.9217 16.72 35.9201 16.8234 35.912C16.9252 35.9201 17.0303 35.9217 17.1386 35.912C22.8826 35.3609 25.2438 31.0327 25.2438 31.0327L24.7428 11.6011C18.0857 10.0786 15.5595 10.0786 8.90239 11.6011Z" fill="#F0E5DB"/>
<path fill-rule="evenodd" clip-rule="evenodd" d="M23.2235 33.3714C24.6167 32.1819 25.2438 31.0328 25.2438 31.0328L24.7428 11.6012L24.5424 11.5559C24.4906 14.7705 21.8368 18.7092 22.4009 24.6989C22.6902 27.7794 23.3997 30.8615 23.2235 33.3714Z" fill="#EFDFD3"/>
<path fill-rule="evenodd" clip-rule="evenodd" d="M8.90268 11.6011L8.75884 17.2061C9.15158 18.2307 9.48936 19.2296 9.57664 20.1589C9.78674 22.4183 8.63762 27.6758 8.58105 31.322C9.22754 32.2998 11.6648 35.4482 16.5069 35.912C16.6168 35.9217 16.7203 35.9201 16.8237 35.912C16.9255 35.9201 17.0306 35.9217 17.1389 35.912C17.9179 35.8361 18.6338 35.6922 19.29 35.4999C19.2868 35.4336 19.2755 35.3674 19.2545 35.3043C18.8989 34.2425 14.1796 34.2425 13.0385 29.4036C11.8975 24.5646 11.1896 16.461 12.4486 13.5502C12.9577 12.372 13.6608 11.3538 14.5077 10.5845C12.8963 10.7526 11.1314 11.092 8.90268 11.6011Z" fill="#F9F4ED"/>
<path fill-rule="evenodd" clip-rule="evenodd" d="M15.9534 25.9305C17.1688 25.347 17.7312 24.7215 18.3761 24.6811C20.5677 24.5454 21.9673 29.6138 18.2323 31.285C14.1481 33.1129 11.1937 27.8004 13.7602 26.4994C14.2855 26.2327 15.0257 26.3782 15.9534 25.9305Z" fill="#BF1E24"/>
<path fill-rule="evenodd" clip-rule="evenodd" d="M15.9537 25.9302C17.1691 25.3468 17.7316 24.7213 18.3764 24.6809C20.3013 24.5613 21.6137 28.4564 19.3769 30.538C20.7797 29.1982 20.0298 26.5185 18.7401 25.9464C17.4309 25.3662 16.3562 26.7416 15.5966 26.6543C15.1101 26.5977 14.9485 26.4507 14.9743 26.2389C15.2733 26.1856 15.5998 26.1016 15.9537 25.9302Z" fill="#AB1C22"/>
<path fill-rule="evenodd" clip-rule="evenodd" d="M14.818 27.0422C13.9954 27.5465 13.1743 27.6225 13.3359 29.0269C13.4976 30.4314 15.4693 31.6678 16.5991 31.2395C17.7288 30.8112 16.6249 30.6448 15.4984 30.0807C14.3703 29.5166 13.5267 28.1057 14.818 27.0422Z" fill="#CB2C2E"/>
<path fill-rule="evenodd" clip-rule="evenodd" d="M15.7471 25.6733C15.7471 25.6733 15.1233 25.4761 14.4154 25.7153C13.7059 25.9545 13.5879 27.1247 13.5879 27.1247C13.5879 27.1247 13.8546 27.3752 14.7758 26.8467C15.6954 26.3182 15.7471 25.6733 15.7471 25.6733Z" fill="#2A833D"/>
<path fill-rule="evenodd" clip-rule="evenodd" d="M15.7471 25.6733C15.7471 25.6733 16.0154 25.0769 16.6651 24.7085C17.3164 24.34 18.2684 25.0317 18.2684 25.0317C18.2684 25.0317 18.2764 25.397 17.2695 25.7315C16.2626 26.0644 15.7471 25.6733 15.7471 25.6733Z" fill="#2A833D"/>
<path fill-rule="evenodd" clip-rule="evenodd" d="M15.4861 25.6266C15.4861 25.6266 16.1325 25.5329 16.7936 25.8836C17.4546 26.2343 17.3802 27.4093 17.3802 27.4093C17.3802 27.4093 17.0764 27.6113 16.2554 26.9406C15.4327 26.2715 15.4861 25.6266 15.4861 25.6266Z" fill="#2A833D"/>
<path fill-rule="evenodd" clip-rule="evenodd" d="M15.8969 25.6232C15.8969 25.6232 15.4912 24.5565 15.2714 24.3448C15.05 24.1315 14.8318 24.0523 14.6637 24.1557C14.4972 24.2591 14.2661 24.6357 14.4794 24.5695C14.6928 24.5032 14.9514 24.3868 15.1389 24.5646C15.3263 24.744 15.795 25.704 15.795 25.704L15.8969 25.6232Z" fill="#2A833D"/>
<path fill-rule="evenodd" clip-rule="evenodd" d="M22.3345 18.0529C22.4428 18.0529 22.4978 17.9479 22.4978 17.7361V15.9761C22.4978 15.7983 22.4444 15.7094 22.3378 15.7094C22.2182 15.7094 22.1584 15.7999 22.1584 15.9826V17.7394C22.1584 17.8525 22.1713 17.9317 22.1988 17.9802C22.2262 18.0287 22.2715 18.0529 22.3345 18.0529ZM22.3281 18.7172C22.0388 18.7172 21.819 18.6299 21.667 18.4554C21.5151 18.2808 21.4392 18.0303 21.4392 17.7006V15.989C21.4392 15.6787 21.5135 15.4444 21.6638 15.286C21.8157 15.126 22.0372 15.0452 22.3281 15.0452C22.619 15.0452 22.8404 15.126 22.9907 15.286C23.141 15.4444 23.217 15.6787 23.217 15.989V17.7006C23.217 18.0303 23.141 18.2808 22.9891 18.4554C22.8356 18.6299 22.6158 18.7172 22.3281 18.7172ZM20.1171 18.6849V15.7708H19.6888V15.0791H21.2662V15.7708H20.8379V18.6849H20.1171ZM18.5235 17.526H18.85L18.6932 15.6933H18.6609L18.5235 17.526ZM17.7267 18.6849L18.0742 15.0791H19.2977L19.6387 18.6849H18.9567L18.9049 18.103H18.4718L18.4265 18.6849H17.7267ZM14.6931 18.6849V15.0791H15.7921L16.0944 17.2771L16.3966 15.0791H17.5037V18.6849H16.8443V16.086L16.4305 18.6849H15.7824L15.3444 16.086V18.6849H14.6931ZM13.5198 18.0529C13.628 18.0529 13.683 17.9479 13.683 17.7361V15.9761C13.683 15.7983 13.6297 15.7094 13.523 15.7094C13.4034 15.7094 13.3436 15.7999 13.3436 15.9826V17.7394C13.3436 17.8525 13.3565 17.9317 13.384 17.9802C13.4115 18.0287 13.4567 18.0529 13.5198 18.0529ZM13.5133 18.7172C13.2256 18.7172 13.0042 18.6299 12.8523 18.4554C12.6987 18.2808 12.6244 18.0303 12.6244 17.7006V15.989C12.6244 15.6787 12.6987 15.4444 12.8506 15.286C13.0009 15.126 13.2224 15.0452 13.5133 15.0452C13.8042 15.0452 14.0256 15.126 14.1759 15.286C14.3279 15.4444 14.4022 15.6787 14.4022 15.989V17.7006C14.4022 18.0303 14.3262 18.2808 14.1743 18.4554C14.0208 18.6299 13.801 18.7172 13.5133 18.7172ZM11.3023 18.6849V15.7708H10.874V15.0791H12.4514V15.7708H12.0231V18.6849H11.3023Z" fill="#100F0D"/>
<path fill-rule="evenodd" clip-rule="evenodd" d="M22.2395 21.3145H22.2783C22.4028 21.3145 22.4787 21.2789 22.5078 21.2094C22.5353 21.1383 22.5498 21.0349 22.5498 20.8975C22.5498 20.7698 22.5369 20.6712 22.5094 20.6017C22.4819 20.5322 22.4173 20.4983 22.3139 20.4983H22.2395V21.3145ZM21.5769 23.2555V19.8825H22.4674C22.6549 19.8825 22.802 19.9245 22.9119 20.007C23.0201 20.0894 23.0993 20.209 23.1462 20.3625C23.1931 20.5145 23.2173 20.6971 23.2173 20.9088C23.2173 21.1141 23.1963 21.2918 23.1575 21.4438C23.1171 21.5941 23.0476 21.7121 22.9458 21.7961C22.844 21.8785 22.7001 21.9205 22.5127 21.9205H22.2395V23.2555H21.5769ZM20.4972 23.2862C20.216 23.2862 20.0092 23.207 19.8766 23.0503C19.7441 22.8919 19.6762 22.6592 19.6762 22.3537V19.8825H20.3324V22.3262C20.3324 22.3828 20.3356 22.4361 20.3421 22.4878C20.3486 22.5396 20.3631 22.5832 20.3857 22.6155C20.4084 22.6495 20.4455 22.6656 20.4972 22.6656C20.549 22.6656 20.5878 22.6495 20.6104 22.6171C20.633 22.5848 20.6476 22.5412 20.654 22.4895C20.6589 22.4361 20.6621 22.3828 20.6621 22.3262V19.8825H21.3167V22.3537C21.3167 22.6592 21.2504 22.8919 21.1179 23.0503C20.9853 23.207 20.7785 23.2862 20.4972 23.2862ZM17.7578 23.2555V19.8825H18.4285V21.0882H18.7469V19.8825H19.4176V23.2555H18.7469V21.7266H18.4285V23.2555H17.7578ZM16.683 23.2862C16.439 23.2862 16.2418 23.2103 16.0931 23.0584C15.9444 22.9064 15.87 22.6947 15.87 22.42V20.8636C15.87 20.5371 15.9347 20.2866 16.064 20.112C16.1933 19.9391 16.405 19.8518 16.6975 19.8518C16.8576 19.8518 16.9998 19.8809 17.1242 19.9407C17.2487 19.9989 17.3473 20.0862 17.4184 20.2025C17.4895 20.3205 17.525 20.4676 17.525 20.6454V21.2272H16.8543V20.7294C16.8543 20.6292 16.843 20.5597 16.8171 20.5258C16.7913 20.4902 16.7509 20.4724 16.6975 20.4724C16.6345 20.4724 16.5925 20.4951 16.5715 20.5403C16.5505 20.5856 16.5392 20.647 16.5392 20.7229V22.4103C16.5392 22.504 16.5521 22.5703 16.5796 22.6074C16.607 22.6462 16.6458 22.6656 16.6975 22.6656C16.7557 22.6656 16.7961 22.643 16.8188 22.5945C16.843 22.5476 16.8543 22.4862 16.8543 22.4103V21.8026H17.5331V22.441C17.5331 22.7367 17.4588 22.9533 17.3101 23.0858C17.1598 23.22 16.9513 23.2862 16.683 23.2862ZM14.6337 23.2555V20.5306H14.2328V19.8825H15.7084V20.5306H15.3076V23.2555H14.6337ZM12.7281 23.2555V19.8825H14.0777V20.5338H13.4134V21.1916H14.0502V21.8252H13.4134V22.5977H14.1213V23.2555H12.7281ZM10.876 23.2555V19.8825H11.5419V21.2337L11.8554 19.8825H12.5342L12.1576 21.4276L12.6134 23.2555H11.9136L11.5451 21.6232V23.2555H10.876Z" fill="#B51D23"/>
</svg>
