<svg width="30" height="40" viewBox="0 0 30 40" fill="none" xmlns="http://www.w3.org/2000/svg">
<path d="M4.2207 6.81468H24.9841V4.03345H4.2207V6.81468Z" fill="#C75F27"/>
<mask id="mask0_549_47220" style="mask-type:luminance" maskUnits="userSpaceOnUse" x="0" y="4" width="28" height="36">
<path d="M0 4.24878H27.8738V40H0V4.24878Z" fill="white"/>
</mask>
<g mask="url(#mask0_549_47220)">
<mask id="mask1_549_47220" style="mask-type:luminance" maskUnits="userSpaceOnUse" x="0" y="4" width="28" height="36">
<path d="M23.0348 39.4579H22.933C24.5402 39.4579 25.9249 39.4413 26.5569 39.4011C25.9391 39.4413 24.5994 39.4555 23.0348 39.4579ZM22.114 39.4579H22.0738C21.7022 39.4579 21.3235 39.4579 20.9447 39.4555C21.3377 39.4579 21.7306 39.4579 22.114 39.4579ZM7.23506 39.4579H6.27405C4.7071 39.4555 3.36974 39.4413 2.74958 39.4011C0.71396 39.2685 0.344708 37.7276 0.214522 37.4648C0.160082 37.3536 0.134044 34.667 0.143512 31.2278H0.934092C0.926991 34.0729 0.941193 36.3855 0.971964 37.1169V37.1193V37.1216C0.974331 37.124 0.974331 37.124 0.974331 37.124C0.974331 37.1264 0.974331 37.1264 0.974331 37.1287C0.974331 37.1287 0.974331 37.1287 0.974331 37.1311V37.1335C0.974331 37.1358 0.974331 37.1382 0.974331 37.1382C0.974331 37.1406 0.974331 37.1406 0.974331 37.1406C0.974331 37.1429 0.974331 37.1429 0.974331 37.1453C0.976698 37.1879 0.979065 37.2234 0.979065 37.2518L1.00037 37.3015C1.16842 37.73 1.48324 38.5276 2.80166 38.6128C3.38631 38.6507 4.71183 38.6697 6.74272 38.6697C10.2246 38.6697 14.6012 38.6128 14.6438 38.6128H14.6651C14.7077 38.6128 19.0843 38.6697 22.5661 38.6697C22.5851 38.6697 22.604 38.6697 22.623 38.6697C22.1898 39.0294 21.5673 39.3442 20.6867 39.4011C20.353 39.4224 19.8062 39.4366 19.1293 39.446C19.6831 39.4508 20.2559 39.4531 20.8288 39.4555C20.2275 39.4531 19.624 39.4484 19.044 39.446C16.6557 39.4271 14.6556 39.4011 14.6556 39.4011C14.6556 39.4011 13.4177 39.4153 11.7276 39.4318C11.7371 39.4318 11.7466 39.4318 11.756 39.4318C10.4068 39.446 8.76651 39.4579 7.23506 39.4579ZM20.9211 39.4555C20.895 39.4555 20.869 39.4555 20.8406 39.4555C20.8666 39.4555 20.895 39.4555 20.9211 39.4555ZM1.09742 19.407H0.306836C0.330506 18.6827 0.356543 18.0436 0.384947 17.5205C0.647684 12.6586 3.17091 12.4622 3.17091 12.4622L3.35317 8.05956H2.14126C1.80752 8.05956 1.53531 7.78735 1.53531 7.4536V5.90558C1.53531 5.57183 1.80752 5.29963 2.14126 5.29963H3.46915L3.49519 4.64397L3.52123 4.6416H4.22186V6.81451H4.78521C4.76154 7.60036 4.73787 8.38383 4.7142 9.16968C4.54377 9.20045 4.37098 9.23832 4.19109 9.2904L4.16269 9.29276L3.97333 13.2315L3.24192 13.248C3.06913 13.2788 1.38146 13.6694 1.17316 17.5631C1.14476 18.0815 1.11872 18.704 1.09742 19.407ZM18.4286 10.6846C17.0581 10.6846 15.6711 10.6491 14.3219 10.6041C13.4271 10.5733 12.5324 10.3129 11.6401 10.3129C11.5856 10.3129 11.5312 10.3129 11.4791 10.3153C10.8518 10.339 10.2293 10.5402 9.59969 10.5402C9.48608 10.5402 9.37483 10.5354 9.26121 10.5189C8.70733 10.4455 8.28127 10.1875 7.81734 9.88925C7.22085 9.50343 6.6362 9.25726 6.03025 9.15785C6.05155 8.37673 6.07523 7.59562 6.09889 6.81451H19.9506L19.9624 10.6704C19.4559 10.6798 18.9446 10.6846 18.4286 10.6846ZM27.7736 5.90558C27.7736 5.57183 27.5013 5.29963 27.1676 5.29963C27.5037 5.29963 27.7736 5.57183 27.7736 5.90558Z" fill="white"/>
</mask>
<g mask="url(#mask1_549_47220)">
<mask id="mask2_549_47220" style="mask-type:luminance" maskUnits="userSpaceOnUse" x="0" y="4" width="28" height="36">
<path d="M23.0329 39.4579H22.9311C24.5383 39.4579 25.923 39.4413 26.555 39.4011C25.9372 39.4413 24.5974 39.4555 23.0329 39.4579ZM22.1121 39.4579H22.0719C21.7002 39.4579 21.3215 39.4579 20.9428 39.4555C21.3357 39.4579 21.7286 39.4579 22.1121 39.4579ZM7.2331 39.4579H6.2721C4.70514 39.4555 3.36779 39.4413 2.74763 39.4011C0.712007 39.2685 0.342755 37.7276 0.212569 37.4648C0.158129 37.3536 0.132091 34.667 0.141559 31.2278H0.932139C0.925038 34.0729 0.93924 36.3855 0.970011 37.1169V37.1193V37.1216C0.972378 37.124 0.972378 37.124 0.972378 37.124C0.972378 37.1264 0.972378 37.1264 0.972378 37.1287C0.972378 37.1287 0.972378 37.1287 0.972378 37.1311V37.1335C0.972378 37.1358 0.972378 37.1382 0.972378 37.1382C0.972378 37.1406 0.972378 37.1406 0.972378 37.1406C0.972378 37.1429 0.972378 37.1429 0.972378 37.1453C0.974745 37.1879 0.977112 37.2234 0.977112 37.2518L0.998415 37.3015C1.16647 37.73 1.48128 38.5276 2.79971 38.6128C3.38436 38.6507 4.70988 38.6697 6.74077 38.6697C10.2226 38.6697 14.5992 38.6128 14.6418 38.6128H14.6631C14.7057 38.6128 19.0823 38.6697 22.5642 38.6697C22.5831 38.6697 22.6021 38.6697 22.621 38.6697C22.1878 39.0294 21.5653 39.3442 20.6848 39.4011C20.351 39.4224 19.8043 39.4366 19.1273 39.446C19.6812 39.4508 20.254 39.4531 20.8268 39.4555C20.2256 39.4531 19.622 39.4484 19.0421 39.446C16.6538 39.4271 14.6537 39.4011 14.6537 39.4011C14.6537 39.4011 13.4157 39.4153 11.7257 39.4318C11.7351 39.4318 11.7446 39.4318 11.7541 39.4318C10.4049 39.446 8.76456 39.4579 7.2331 39.4579ZM20.9191 39.4555C20.8931 39.4555 20.867 39.4555 20.8386 39.4555C20.8647 39.4555 20.8931 39.4555 20.9191 39.4555ZM1.09546 19.407H0.304882C0.328553 18.6827 0.35459 18.0436 0.382994 17.5205C0.645731 12.6586 3.16896 12.4622 3.16896 12.4622L3.35122 8.05956H2.13931C1.80556 8.05956 1.53336 7.78735 1.53336 7.4536V5.90558C1.53336 5.57183 1.80556 5.29963 2.13931 5.29963H3.4672L3.49324 4.64397L3.51927 4.6416H4.21991V6.81451H4.78325C4.75958 7.60036 4.73591 8.38383 4.71224 9.16968C4.54182 9.20045 4.36903 9.23832 4.18914 9.2904L4.16073 9.29276L3.97137 13.2315L3.23997 13.248C3.06718 13.2788 1.3795 13.6694 1.17121 17.5631C1.1428 18.0815 1.11676 18.704 1.09546 19.407ZM18.4267 10.6846C17.0562 10.6846 15.6691 10.6491 14.3199 10.6041C13.4252 10.5733 12.5305 10.3129 11.6381 10.3129C11.5837 10.3129 11.5292 10.3129 11.4771 10.3153C10.8499 10.339 10.2274 10.5402 9.59774 10.5402C9.48412 10.5402 9.37288 10.5354 9.25926 10.5189C8.70538 10.4455 8.27932 10.1875 7.81539 9.88925C7.2189 9.50343 6.63425 9.25726 6.0283 9.15785C6.0496 8.37673 6.07327 7.59562 6.09694 6.81451H19.9487L19.9605 10.6704C19.4539 10.6798 18.9427 10.6846 18.4267 10.6846ZM27.7716 5.90558C27.7716 5.57183 27.4994 5.29963 27.1656 5.29963C27.5018 5.29963 27.7716 5.57183 27.7716 5.90558Z" fill="white"/>
</mask>
<g mask="url(#mask2_549_47220)">
<path d="M24.6977 -4.04541L-10.8145 8.51391L3.20295 48.147L38.7151 35.5877L24.6977 -4.04541Z" fill="url(#paint0_linear_549_47220)"/>
</g>
</g>
</g>
<path d="M19.9494 6.81451H6.09774C6.10484 6.5068 6.11431 6.20146 6.12377 5.89611C6.13561 5.47242 5.8137 5.26176 5.48468 5.26176C5.15804 5.26176 4.82192 5.47242 4.81009 5.89611C4.80062 6.20146 4.79115 6.5068 4.78405 6.81451H4.2207V4.6416H19.9163L19.9423 4.64397L19.9494 6.81451Z" fill="#CF9C7B"/>
<path d="M28.1363 17.5632C27.9233 13.6175 25.9468 13.2719 25.7764 13.2482L25.0545 13.2269L25.0379 9.30004C24.245 9.58408 23.5065 10.1309 22.678 10.3486C21.8827 10.5593 21.0495 10.6421 20.2305 10.6634C18.2872 10.7155 16.2658 10.6705 14.3225 10.6043C13.3733 10.5735 12.4265 10.28 11.4797 10.3155C10.7412 10.3439 10.0074 10.6208 9.26183 10.519C8.70795 10.4457 8.28189 10.1877 7.81796 9.88942C6.65339 9.13671 5.5267 8.90948 4.19171 9.29057L4.1633 9.29294L3.97394 13.2316L3.24254 13.2482C3.06975 13.279 1.38207 13.6695 1.17378 17.5632C0.915773 22.302 0.88737 35.9241 0.979682 37.252L1.00099 37.3017C1.16904 37.7301 1.48385 38.5278 2.80228 38.613C3.38693 38.6509 4.71245 38.6698 6.74334 38.6698C10.2252 38.6698 14.6018 38.613 14.6444 38.613H14.6657C14.7083 38.613 19.0849 38.6698 22.5668 38.6698C24.5977 38.6698 25.9232 38.6509 26.5078 38.613C27.4712 38.5515 28.1789 38.0994 28.6168 37.2686C28.6902 35.7489 28.3872 22.2168 28.1363 17.5632Z" fill="#EE213D"/>
<path d="M22.5655 38.6697C19.0836 38.6697 14.707 38.6129 14.6644 38.6129H14.6431C14.6005 38.6129 10.2239 38.6697 6.74207 38.6697C4.71118 38.6697 3.38566 38.6508 2.801 38.6129C1.48258 38.5277 1.16777 37.73 0.999714 37.3016L0.978411 37.2519C0.978411 37.2235 0.976044 37.188 0.973677 37.1454C0.973677 37.143 0.973677 37.143 0.973677 37.1407C0.973677 37.1407 0.973677 37.1407 0.973677 37.1383C0.973677 37.1383 0.973677 37.1359 0.973677 37.1335V37.1312C0.973677 37.1288 0.973677 37.1288 0.973677 37.1288C0.973677 37.1264 0.973677 37.1264 0.973677 37.1241C0.973677 37.1241 0.973678 37.1241 0.97131 37.1217V37.1193V37.117C0.940539 36.3856 0.926338 34.073 0.933438 31.2279H2.74656C2.7371 32.1368 2.72526 33.0457 2.71343 33.9523C2.70396 34.7547 2.69449 35.5571 2.68502 36.3595C2.68029 36.7809 3.00693 36.9939 3.33358 36.9939C3.66259 36.9939 3.99398 36.7809 3.99871 36.3595C4.02001 34.6482 4.03895 32.9392 4.06025 31.2279H23.4721C23.5407 34.6837 23.5667 37.3845 23.5123 37.4957C23.4389 37.6448 23.1927 38.1963 22.6223 38.6697C22.6034 38.6697 22.5844 38.6697 22.5655 38.6697ZM13.5661 19.4071H5.51359C6.36098 19.3905 7.24861 19.2887 8.12677 19.1869C9.09487 19.0757 10.0535 18.9644 10.934 18.9644C11.1589 18.9644 11.379 18.9715 11.5921 18.9881C12.2761 19.0402 12.9294 19.1964 13.5661 19.4071ZM4.99995 19.4071H4.20464C4.20464 19.3905 4.20464 19.3716 4.20464 19.3526C4.46264 19.3834 4.72775 19.4023 4.99995 19.4071ZM2.89095 19.4071H1.09676C1.11806 18.7277 1.14173 18.1218 1.17014 17.6152C1.61277 18.3206 2.20452 18.768 2.89569 19.0402C2.89332 19.1609 2.89095 19.284 2.89095 19.4071Z" fill="#ED1D32"/>
<mask id="mask3_549_47220" style="mask-type:luminance" maskUnits="userSpaceOnUse" x="18" y="19" width="12" height="21">
<path d="M18.7832 19.3975H29.6904V39.9999H18.7832V19.3975Z" fill="white"/>
</mask>
<g mask="url(#mask3_549_47220)">
<mask id="mask4_549_47220" style="mask-type:luminance" maskUnits="userSpaceOnUse" x="19" y="19" width="11" height="21">
<path d="M22.9288 39.4579H22.1098C21.7263 39.4579 21.3334 39.4579 20.9405 39.4556C20.9381 39.4556 20.9334 39.4556 20.931 39.4556C20.9263 39.4556 20.9216 39.4556 20.9168 39.4556C20.8908 39.4556 20.8624 39.4556 20.8363 39.4556C20.834 39.4556 20.8292 39.4556 20.8245 39.4556C20.2517 39.4532 19.6789 39.4508 19.125 39.4461C19.802 39.4366 20.3487 39.4224 20.6825 39.4011C21.563 39.3443 22.1855 39.0295 22.6187 38.6697C24.6165 38.6697 25.923 38.6508 26.503 38.6129C27.4663 38.5514 28.1741 38.0993 28.612 37.2685C28.612 37.2661 28.612 37.2637 28.612 37.2637C28.612 37.2614 28.612 37.2614 28.612 37.259V37.2566C28.612 37.2566 28.612 37.2566 28.612 37.2543C28.612 37.2543 28.612 37.2543 28.612 37.2519C28.612 37.2495 28.612 37.2495 28.612 37.2472C28.612 37.2472 28.612 37.2472 28.612 37.2448C28.612 37.2424 28.612 37.2424 28.612 37.2401C28.612 37.2377 28.612 37.2353 28.612 37.233C28.612 37.2306 28.6143 37.2282 28.6143 37.2282C28.6143 37.2259 28.6143 37.2235 28.6143 37.2211C28.6143 37.2187 28.6143 37.2187 28.6143 37.2187C28.6143 37.2164 28.6143 37.2164 28.6143 37.214C28.6143 37.2116 28.6143 37.2116 28.6143 37.2093C28.6143 37.2069 28.6143 37.2022 28.6143 37.1998C28.6143 37.1951 28.6143 37.1927 28.6143 37.1903C28.6143 37.1856 28.6143 37.1809 28.6143 37.1785C28.6143 37.1785 28.6143 37.1785 28.6143 37.1761C28.6143 37.1738 28.6143 37.1714 28.6143 37.1667C28.6143 37.1643 28.6143 37.1643 28.6143 37.1619C28.6143 37.1619 28.6143 37.1619 28.6143 37.1596H28.6167C28.6167 37.1572 28.6167 37.1572 28.6167 37.1548V37.1525V37.1501C28.6167 37.1501 28.6167 37.1477 28.6167 37.1454C28.6167 37.1359 28.6167 37.1241 28.6167 37.1122C28.6356 36.3217 28.6072 34.028 28.5504 31.2279H29.3386L29.1706 19.8284C29.3197 24.2665 29.4238 31.4977 29.4238 35.1831C29.4238 35.1855 29.4238 35.1879 29.4238 35.1902C29.4238 35.1926 29.4238 35.195 29.4238 35.1997C29.4238 36.5607 29.4096 37.4341 29.3789 37.4957C29.2463 37.7584 28.5907 39.2686 26.5527 39.4011C25.9207 39.4414 24.536 39.4579 22.9288 39.4579Z" fill="white"/>
</mask>
<g mask="url(#mask4_549_47220)">
<mask id="mask5_549_47220" style="mask-type:luminance" maskUnits="userSpaceOnUse" x="19" y="19" width="11" height="21">
<path d="M22.9268 39.4579H22.1078C21.7244 39.4579 21.3315 39.4579 20.9385 39.4556C20.9362 39.4556 20.9314 39.4556 20.9291 39.4556C20.9243 39.4556 20.9196 39.4556 20.9149 39.4556C20.8888 39.4556 20.8604 39.4556 20.8344 39.4556C20.832 39.4556 20.8273 39.4556 20.8226 39.4556C20.2497 39.4532 19.6769 39.4508 19.123 39.4461C19.8 39.4366 20.3468 39.4224 20.6805 39.4011C21.5611 39.3443 22.1836 39.0295 22.6167 38.6697C24.6145 38.6697 25.9211 38.6508 26.501 38.6129C27.4644 38.5514 28.1721 38.0993 28.61 37.2685C28.61 37.2661 28.61 37.2637 28.61 37.2637C28.61 37.2614 28.61 37.2614 28.61 37.259V37.2566C28.61 37.2566 28.61 37.2566 28.61 37.2543C28.61 37.2543 28.61 37.2543 28.61 37.2519C28.61 37.2495 28.61 37.2495 28.61 37.2472C28.61 37.2472 28.61 37.2472 28.61 37.2448C28.61 37.2424 28.61 37.2424 28.61 37.2401C28.61 37.2377 28.61 37.2353 28.61 37.233C28.61 37.2306 28.6124 37.2282 28.6124 37.2282C28.6124 37.2259 28.6124 37.2235 28.6124 37.2211C28.6124 37.2187 28.6124 37.2187 28.6124 37.2187C28.6124 37.2164 28.6124 37.2164 28.6124 37.214C28.6124 37.2116 28.6124 37.2116 28.6124 37.2093C28.6124 37.2069 28.6124 37.2022 28.6124 37.1998C28.6124 37.1951 28.6124 37.1927 28.6124 37.1903C28.6124 37.1856 28.6124 37.1809 28.6124 37.1785C28.6124 37.1785 28.6124 37.1785 28.6124 37.1761C28.6124 37.1738 28.6124 37.1714 28.6124 37.1667C28.6124 37.1643 28.6124 37.1643 28.6124 37.1619C28.6124 37.1619 28.6124 37.1619 28.6124 37.1596H28.6147C28.6147 37.1572 28.6147 37.1572 28.6147 37.1548V37.1525V37.1501C28.6147 37.1501 28.6147 37.1477 28.6147 37.1454C28.6147 37.1359 28.6147 37.1241 28.6147 37.1122C28.6337 36.3217 28.6053 34.028 28.5485 31.2279H29.3367L29.1686 19.8284C29.3177 24.2665 29.4219 31.4977 29.4219 35.1831C29.4219 35.1855 29.4219 35.1879 29.4219 35.1902C29.4219 35.1926 29.4219 35.195 29.4219 35.1997C29.4219 36.5607 29.4077 37.4341 29.3769 37.4957C29.2444 37.7584 28.5887 39.2686 26.5507 39.4011C25.9187 39.4414 24.534 39.4579 22.9268 39.4579Z" fill="white"/>
</mask>
<g mask="url(#mask5_549_47220)">
<path d="M28.2781 16.5901L12.9541 22.0105L20.2705 42.6958L35.5945 37.2753L28.2781 16.5901Z" fill="url(#paint1_linear_549_47220)"/>
</g>
</g>
</g>
<path d="M22.623 38.6696C23.1935 38.1962 23.4397 37.6447 23.513 37.4956C23.5675 37.3844 23.5414 34.6836 23.4728 31.2278H28.5548C28.6116 34.0279 28.64 36.3216 28.621 37.1122C28.621 37.124 28.621 37.1358 28.621 37.1453C28.621 37.1477 28.621 37.15 28.621 37.15V37.1524V37.1548C28.621 37.1571 28.621 37.1571 28.621 37.1595H28.6187C28.6187 37.1619 28.6187 37.1619 28.6187 37.1619C28.6187 37.1642 28.6187 37.1642 28.6187 37.1666C28.6187 37.1713 28.6187 37.1737 28.6187 37.1761C28.6187 37.1784 28.6187 37.1784 28.6187 37.1784C28.6187 37.1808 28.6187 37.1855 28.6187 37.1903C28.6187 37.1926 28.6187 37.195 28.6187 37.1997C28.6187 37.2021 28.6187 37.2068 28.6187 37.2092C28.6187 37.2116 28.6187 37.2116 28.6187 37.2139C28.6187 37.2163 28.6187 37.2163 28.6187 37.2187C28.6187 37.2187 28.6187 37.2187 28.6187 37.221C28.6187 37.2234 28.6187 37.2258 28.6187 37.2281C28.6187 37.2281 28.6163 37.2305 28.6163 37.2329C28.6163 37.2352 28.6163 37.2376 28.6163 37.24C28.6163 37.2423 28.6163 37.2423 28.6163 37.2447C28.6163 37.2471 28.6163 37.2471 28.6163 37.2471C28.6163 37.2494 28.6163 37.2494 28.6163 37.2518C28.6163 37.2542 28.6163 37.2542 28.6163 37.2542C28.6163 37.2565 28.6163 37.2565 28.6163 37.2565V37.2589C28.6163 37.2613 28.6163 37.2613 28.6163 37.2636C28.6163 37.2636 28.6163 37.266 28.6163 37.2684C28.1784 38.0992 27.4707 38.5513 26.5073 38.6128C25.9274 38.6507 24.6208 38.6696 22.623 38.6696Z" fill="#E01C2C"/>
<mask id="mask6_549_47220" style="mask-type:luminance" maskUnits="userSpaceOnUse" x="19" y="4" width="11" height="17">
<path d="M19.3906 4.24854H29.6918V20.0033H19.3906V4.24854Z" fill="white"/>
</mask>
<g mask="url(#mask6_549_47220)">
<mask id="mask7_549_47220" style="mask-type:luminance" maskUnits="userSpaceOnUse" x="19" y="4" width="11" height="16">
<path d="M29.1598 19.4067H28.2225C28.1941 18.7037 28.1657 18.0788 28.1373 17.5628C27.9242 13.617 25.9478 13.2715 25.7773 13.2478L25.0554 13.2265L25.0388 9.29962C24.2459 9.58366 23.5074 10.1304 22.6789 10.3482C21.8836 10.5589 21.0504 10.6417 20.2315 10.663C20.1415 10.6654 20.0539 10.6678 19.964 10.6701L19.9521 6.81427H24.9868V4.64136H25.7892L25.8152 4.64372L25.8176 5.29938H27.1691C27.5029 5.29938 27.7751 5.57159 27.7751 5.90534V7.45336C27.7751 7.78711 27.5053 8.05931 27.1691 8.05931H25.8247L25.8413 12.4619C25.8413 12.4619 28.8189 12.727 29.0817 17.5889C29.1077 18.0978 29.1361 18.7108 29.1598 19.4067Z" fill="white"/>
</mask>
<g mask="url(#mask7_549_47220)">
<mask id="mask8_549_47220" style="mask-type:luminance" maskUnits="userSpaceOnUse" x="19" y="4" width="11" height="16">
<path d="M29.1598 19.4067H28.2225C28.1941 18.7037 28.1657 18.0788 28.1373 17.5628C27.9242 13.617 25.9478 13.2715 25.7773 13.2478L25.0554 13.2265L25.0388 9.29962C24.2459 9.58366 23.5074 10.1304 22.6789 10.3482C21.8836 10.5589 21.0504 10.6417 20.2315 10.663C20.1415 10.6654 20.0539 10.6678 19.964 10.6701L19.9521 6.81427H24.9868V4.64136H25.7892L25.8152 4.64372L25.8176 5.29938H27.1691C27.5029 5.29938 27.7751 5.57159 27.7751 5.90534V7.45336C27.7751 7.78711 27.5053 8.05931 27.1691 8.05931H25.8247L25.8413 12.4619C25.8413 12.4619 28.8189 12.727 29.0817 17.5889C29.1077 18.0978 29.1361 18.7108 29.1598 19.4067Z" fill="white"/>
</mask>
<g mask="url(#mask8_549_47220)">
<path d="M28.1354 1.74634L15.3086 6.28389L20.9728 22.3014L33.7996 17.7662L28.1354 1.74634Z" fill="url(#paint2_linear_549_47220)"/>
</g>
</g>
</g>
<path d="M24.9818 6.81451H19.9472L19.9401 4.64397L19.9141 4.6416H24.9818V6.81451Z" fill="#BF9072"/>
<path d="M28.2194 19.4069C28.217 19.3596 28.2147 19.3122 28.2123 19.2673C27.8194 19.2909 27.4288 19.3359 27.0406 19.4069H23.1375C23.1091 18.6826 23.0806 18.0435 23.0499 17.5204C22.7895 12.6586 19.968 12.4621 19.968 12.4621L19.9609 10.6703C20.0509 10.6679 20.1385 10.6656 20.2284 10.6632C21.0474 10.6419 21.8806 10.5591 22.6759 10.3484C23.5043 10.1306 24.2428 9.58385 25.0358 9.2998L25.0524 13.2267L25.7743 13.248C25.9447 13.2716 27.9212 13.6172 28.1342 17.563C28.1626 18.079 28.191 18.7039 28.2194 19.4069Z" fill="#E31E39"/>
<path d="M28.2208 19.407H27.042C27.4302 19.336 27.8207 19.291 28.2137 19.2673C28.216 19.3123 28.2184 19.3596 28.2208 19.407Z" fill="#E01C2C"/>
<path d="M3.33318 36.9938C3.00653 36.9938 2.67989 36.7808 2.68462 36.3594C2.69409 35.557 2.70356 34.7546 2.71303 33.9522C2.72486 33.0456 2.7367 32.1367 2.74616 31.2278H4.05985C4.03855 32.9391 4.01961 34.6481 3.99831 36.3594C3.99357 36.7808 3.66219 36.9938 3.33318 36.9938Z" fill="#F35B7D"/>
<path d="M4.20251 19.3525C3.73858 19.2981 3.29831 19.1987 2.89355 19.0401C2.90066 18.2732 2.91012 17.5062 2.91959 16.7393C2.92433 16.3156 3.25571 16.105 3.58472 16.105C3.91373 16.105 4.24038 16.3156 4.23328 16.7393C4.22618 17.5418 4.21434 18.3442 4.20487 19.1442C4.20487 19.2152 4.20487 19.2839 4.20251 19.3525Z" fill="#F36187"/>
<path d="M4.20431 19.4072H2.89062C2.89062 19.2841 2.89299 19.161 2.89536 19.0403C3.30012 19.1989 3.74038 19.2983 4.20431 19.3527C4.20431 19.3717 4.20431 19.3906 4.20431 19.4072Z" fill="#F35B7D"/>
<mask id="mask9_549_47220" style="mask-type:luminance" maskUnits="userSpaceOnUse" x="4" y="6" width="3" height="4">
<path d="M4.24316 6.67236H6.66698V9.70213H4.24316V6.67236Z" fill="white"/>
</mask>
<g mask="url(#mask9_549_47220)">
<mask id="mask10_549_47220" style="mask-type:luminance" maskUnits="userSpaceOnUse" x="4" y="6" width="3" height="4">
<path d="M4.71777 9.16962C4.74144 8.38378 4.76511 7.6003 4.78878 6.81445H6.10247C6.0788 7.59556 6.05513 8.37668 6.03383 9.15779C5.83263 9.12465 5.62907 9.10808 5.42077 9.10808C5.19117 9.10808 4.95921 9.12938 4.71777 9.16962Z" fill="white"/>
</mask>
<g mask="url(#mask10_549_47220)">
<mask id="mask11_549_47220" style="mask-type:luminance" maskUnits="userSpaceOnUse" x="4" y="6" width="3" height="4">
<path d="M4.71973 9.16962C4.7434 8.38378 4.76707 7.6003 4.79074 6.81445H6.10442C6.08075 7.59556 6.05708 8.37668 6.03578 9.15779C5.83459 9.12465 5.63102 9.10808 5.42273 9.10808C5.19313 9.10808 4.96116 9.12938 4.71973 9.16962Z" fill="white"/>
</mask>
<g mask="url(#mask11_549_47220)">
<path d="M5.95023 6.37891L3.97852 7.07481L4.87324 9.60513L6.84496 8.90923L5.95023 6.37891Z" fill="url(#paint3_linear_549_47220)"/>
</g>
</g>
</g>
<path d="M6.09787 6.81447H4.78418C4.79128 6.50676 4.80075 6.20142 4.81022 5.89608C4.82205 5.47238 5.15817 5.26172 5.48481 5.26172C5.81383 5.26172 6.13574 5.47238 6.1239 5.89608C6.11444 6.20142 6.10497 6.50676 6.09787 6.81447Z" fill="#E3C3B0"/>
<path d="M5.2566 13.0966C4.92758 13.0966 4.60567 12.8859 4.6175 12.4646C4.64828 11.3663 4.68141 10.268 4.71218 9.1697C4.95362 9.12946 5.18559 9.10815 5.41518 9.10815C5.62348 9.10815 5.82704 9.12472 6.02824 9.15786C5.9951 10.2609 5.96433 11.3615 5.93119 12.4646C5.91936 12.8859 5.58324 13.0966 5.2566 13.0966Z" fill="#F36187"/>
<path d="M25.8219 4.64169H3.48444C2.20862 4.64169 1.17188 3.60731 1.17188 2.3315V2.31256C1.17188 1.03438 2.20862 0 3.48444 0H25.8219C27.0977 0 28.1344 1.03438 28.1344 2.31256V2.3315C28.1344 3.60731 27.0977 4.64169 25.8219 4.64169Z" fill="#C75F27"/>
<path d="M25.813 4.64149H3.49452C2.63767 4.64149 1.8897 4.17756 1.4873 3.48403C3.9987 3.48403 6.51009 3.47693 9.01911 3.47693C10.9388 3.47693 12.8584 3.48166 14.7757 3.4935C17.0054 3.5077 19.2351 3.55977 21.4648 3.57634C21.5382 3.57634 21.6139 3.57634 21.6873 3.57634C22.8992 3.57634 24.1656 3.4935 25.2899 3.02246C25.8675 2.77866 26.3977 2.41888 26.7669 1.9076C27.0628 1.49811 27.2237 1.02708 27.2971 0.537109C27.8084 0.96317 28.135 1.60463 28.135 2.32183C28.135 3.60475 27.0936 4.64149 25.813 4.64149Z" fill="#B94D1F"/>
<path d="M2.15226 3.17911C1.98657 3.17911 1.82324 3.07259 1.82324 2.86193C1.82561 2.34829 1.81377 1.77784 2.02917 1.30208C2.27534 0.757664 2.77715 0.504395 3.33813 0.504395C3.40677 0.504395 3.47778 0.509128 3.54879 0.51623C3.95118 0.558835 3.96775 1.17662 3.59139 1.17662C3.57719 1.17662 3.56299 1.17426 3.54879 1.17426C3.48961 1.16716 3.42807 1.16242 3.37363 1.16242C2.93573 1.16242 2.63276 1.36362 2.53808 1.85832C2.47654 2.1826 2.48127 2.53055 2.48127 2.86193C2.4789 3.07259 2.31558 3.17911 2.15226 3.17911Z" fill="#D68E5F"/>
<path d="M29.3424 31.2278H0.140625V19.407H29.1672L29.3424 31.2278Z" fill="white"/>
<path d="M16.713 24.0418C15.0254 25.4028 13.4466 25.772 12.5258 25.8644C11.2926 25.9874 10.1138 25.8052 8.9043 25.5282C9.05105 25.933 9.55996 26.3188 9.90317 26.5579C12.7459 28.5485 15.1035 28.255 15.8728 28.1769C16.7746 28.0846 18.9357 27.3627 20.0837 25.8809C20.5618 25.2655 21.0044 24.0962 20.3346 23.4145C19.7546 22.8251 18.6374 22.4914 16.713 24.0418Z" fill="#EE213D"/>
<path d="M14.8648 28.2383C13.731 28.2383 11.9416 27.985 9.90357 26.5577C9.59586 26.3447 9.15796 26.0133 8.96387 25.6559C10.4243 26.5719 12.0741 27.3104 13.8139 27.3862C13.8967 27.3885 13.9772 27.3909 14.06 27.3909C15.7856 27.3909 17.4969 26.6216 18.8485 25.5872C19.5231 25.0689 20.1338 24.4392 20.5338 23.6865C20.8959 24.3777 20.503 25.3411 20.0841 25.8807C18.9361 27.3625 16.775 28.0844 15.8732 28.1767C15.6554 28.198 15.3122 28.2383 14.8648 28.2383Z" fill="#ED1D32"/>
<path d="M19.8357 23.49C20.2262 23.2793 20.56 22.7822 20.7328 22.387C20.8582 22.1029 20.9103 21.8354 20.9671 21.5325C21.3198 21.5443 21.7601 21.6982 21.921 21.9609C21.8524 22.2378 21.6867 22.5266 21.5352 22.7657C21.3387 23.0829 21.0855 23.374 20.8014 23.6202C20.6973 23.7101 20.5671 23.8072 20.4369 23.8569C20.302 23.9066 19.7765 23.8095 19.8357 23.49Z" fill="#1F6434"/>
<path d="M17.7505 24.4086C17.5185 24.4086 17.3126 24.1033 17.5233 23.8879C17.883 23.5233 18.4488 23.1991 18.9719 23.1707C18.979 23.1707 18.9861 23.1707 18.9908 23.1707C19.3624 23.1707 19.3529 23.7553 18.9719 23.7766C18.6144 23.7979 18.1931 24.0701 17.9517 24.3163C17.8901 24.3826 17.8191 24.4086 17.7505 24.4086Z" fill="#F14C73"/>
<defs>
<linearGradient id="paint0_linear_549_47220" x1="37.9229" y1="-8.72306" x2="51.9397" y2="30.9109" gradientUnits="userSpaceOnUse">
<stop stop-color="#E8E9E9"/>
<stop offset="0.25" stop-color="#E8E9E9"/>
<stop offset="0.375" stop-color="#E7E8E8"/>
<stop offset="0.5" stop-color="#E7E8E8"/>
<stop offset="0.75" stop-color="#E7E8E8"/>
<stop offset="0.875" stop-color="#E7E8E8"/>
<stop offset="1" stop-color="#E6E7E8"/>
</linearGradient>
<linearGradient id="paint1_linear_549_47220" x1="44.807" y1="10.745" x2="52.1227" y2="31.4308" gradientUnits="userSpaceOnUse">
<stop stop-color="#D6D6D7"/>
<stop offset="0.125" stop-color="#D6D6D7"/>
<stop offset="0.1875" stop-color="#D6D6D6"/>
<stop offset="0.25" stop-color="#D5D6D6"/>
<stop offset="0.5" stop-color="#D5D6D6"/>
<stop offset="1" stop-color="#D5D6D5"/>
</linearGradient>
<linearGradient id="paint2_linear_549_47220" x1="40.129" y1="-2.49427" x2="45.7941" y2="13.5243" gradientUnits="userSpaceOnUse">
<stop stop-color="#D6D7D7"/>
<stop offset="0.5" stop-color="#D6D7D7"/>
<stop offset="0.75" stop-color="#D6D7D7"/>
<stop offset="1" stop-color="#D6D6D7"/>
</linearGradient>
<linearGradient id="paint3_linear_549_47220" x1="39.1233" y1="-5.35314" x2="40.0178" y2="-2.82394" gradientUnits="userSpaceOnUse">
<stop stop-color="#F3F3F4"/>
<stop offset="0.5" stop-color="#F3F3F4"/>
<stop offset="1" stop-color="#F3F3F4"/>
</linearGradient>
</defs>
</svg>
