<svg width="16" height="60" viewBox="0 0 16 60" fill="none" xmlns="http://www.w3.org/2000/svg">
<path fill-rule="evenodd" clip-rule="evenodd" d="M12.8871 12.405C12.8939 12.4022 15.4929 11.2645 15.1545 9.57761C14.9682 8.64241 13.999 6.58851 12.985 4.73034C11.9655 2.86402 10.7082 1.14042 10.5315 1.14042C9.88308 1.14042 8.68553 1.15265 8.22201 1.15809C8.20434 0.811467 8.1921 0.531451 8.19346 0.414551C8.71 0.425425 10.4146 0.460767 10.7911 0.460767C11.256 0.460767 12.5092 2.29719 13.6415 4.37284C14.6869 6.2881 15.6887 8.42492 15.8912 9.43081C16.3479 11.7131 13.2039 13.0833 13.1943 13.0873L12.8871 12.405Z" fill="#F6AF1B"/>
<path fill-rule="evenodd" clip-rule="evenodd" d="M12.8873 12.405C12.8941 12.4023 15.4931 11.2645 15.1546 9.57765C14.9684 8.64245 13.9992 6.58854 12.9851 4.73037C11.9657 2.86405 10.7083 1.14045 10.5316 1.14045C9.71874 1.14045 8.04 1.15948 8.0332 1.15948L8.04544 0.411865C8.05087 0.411865 10.3467 0.460801 10.7912 0.460801C11.2561 0.460801 12.5094 2.29722 13.6417 4.37287C14.687 6.28813 15.6888 8.42496 15.8913 9.43084C16.3481 11.7131 13.204 13.0833 13.1945 13.0874L12.8873 12.405Z" fill="#FEF0BA"/>
<path fill-rule="evenodd" clip-rule="evenodd" d="M15.7109 8.79059C15.3303 7.66916 14.5012 5.94693 13.6421 4.37285C12.7762 2.78655 11.8396 1.33889 11.2388 0.744873C11.0798 0.833228 11.0186 0.971877 11.353 1.3851C11.686 1.79833 15.155 7.33885 15.7109 8.79059Z" fill="white"/>
<path fill-rule="evenodd" clip-rule="evenodd" d="M13.1815 12.2596C13.853 11.9021 15.423 10.9125 15.1552 9.57767C14.969 8.64247 13.9998 6.58856 12.9857 4.73039C12.0478 3.01223 10.9074 1.41505 10.5947 1.1731C11.2839 1.29951 14.3872 6.71905 15.0655 8.05933C15.7438 9.3996 15.6527 10.2261 15.2639 10.9628C14.8752 11.6995 13.4846 12.6252 13.4846 12.6252C13.3895 12.5545 13.2875 12.4281 13.1815 12.2596Z" fill="#D0BD78"/>
<path fill-rule="evenodd" clip-rule="evenodd" d="M8.37207 0.418701C9.02318 0.432294 10.4518 0.46084 10.7916 0.46084C10.8324 0.46084 10.8786 0.474433 10.9303 0.501619C10.8759 0.600848 10.8147 0.685124 10.7549 0.705514C10.5891 0.763964 9.5968 0.71367 8.96065 0.705514C8.60179 0.701436 8.44275 0.550553 8.37207 0.418701Z" fill="white"/>
<path fill-rule="evenodd" clip-rule="evenodd" d="M0.937919 49.7397H14.6288C15.1454 49.7397 15.5667 50.2644 15.5667 50.906V55.23L15.4675 55.9219C15.2908 56.0863 15.1753 56.2685 15.3275 56.2848C15.4797 56.3011 15.5667 56.524 15.5667 56.524V57.7257V57.7189V58.5331C15.5667 60.4782 0 60.5 0 58.5331V56.524C0 56.5172 0.043498 56.3052 0.237878 56.2848C0.311281 56.2766 0.255549 56.1883 0.154961 56.0809C0.110104 56.032 0.15632 55.9395 0.100588 55.8879L0 55.3754V50.906C0 50.2644 0.421384 49.7397 0.937919 49.7397Z" fill="#F8E8AB"/>
<path fill-rule="evenodd" clip-rule="evenodd" d="M12.6016 49.7397H14.6283C15.1448 49.7397 15.5662 50.2644 15.5662 50.906V55.23L15.467 55.9219C15.2903 56.0863 15.1747 56.2685 15.327 56.2848C15.4792 56.3011 15.5662 56.524 15.5662 56.524V57.7257V57.7189V58.5331C15.5662 59.0292 14.5494 59.4003 13.0365 59.645L13.1507 57.2635L12.6016 56.9169V49.7397Z" fill="#FEF0BA"/>
<path fill-rule="evenodd" clip-rule="evenodd" d="M15.3574 56.1405C15.2935 56.2193 15.2677 56.2778 15.3275 56.2846C15.526 56.305 15.5667 56.5238 15.5667 56.5238V56.5727C13.4503 57.9089 2.11236 57.9225 0 56.5755V56.5238C0 56.517 0.043498 56.305 0.237878 56.2846C0.305843 56.2764 0.262345 56.1989 0.173991 56.1011L0.357497 56.1677C0.357497 56.1677 7.88804 58.2841 15.2826 56.1051L15.3574 56.1405ZM15.3914 50.2275C15.5015 50.4192 15.5667 50.653 15.5667 50.9058V55.7585L15.5192 55.7422L0 55.6919V50.9058C0 50.653 0.0652466 50.4192 0.17535 50.2275C0.313999 50.1392 0.471678 50.0889 0.637513 50.0889H14.9292C15.0951 50.0889 15.2541 50.1392 15.3914 50.2275Z" fill="#F4DE92"/>
<path fill-rule="evenodd" clip-rule="evenodd" d="M12.6016 56.7195V56.9166L13.1249 57.247C14.2395 57.0825 15.1136 56.8582 15.5662 56.5727V56.5238C15.5662 56.5238 15.5254 56.305 15.327 56.2846C15.2672 56.2778 15.293 56.2193 15.3569 56.1405L15.2821 56.1051C14.3863 56.3702 13.4878 56.57 12.6016 56.7195ZM15.3909 50.2275C15.501 50.4192 15.5662 50.653 15.5662 50.9058V55.7585L15.5186 55.7422L12.6016 55.7327V50.0889H14.9287C15.0945 50.0889 15.2536 50.1392 15.3909 50.2275Z" fill="#D0BD78"/>
<path fill-rule="evenodd" clip-rule="evenodd" d="M1.21114 17.4792H14.6288C15.0149 17.4792 15.2133 17.7987 15.492 18.1902C15.5776 18.3111 15.5667 18.4851 15.5667 18.6455V55.7627C15.5667 57.7092 0 57.7309 0 55.7627V18.6455C0 18.4838 0.0135929 18.322 0.076121 18.1874C0.262345 17.7865 0.827816 17.4792 1.21114 17.4792Z" fill="#F8E8AB"/>
<path fill-rule="evenodd" clip-rule="evenodd" d="M12.0381 17.4792H14.6289C15.015 17.4792 15.2134 17.7987 15.4921 18.1902C15.5777 18.3111 15.5668 18.4851 15.5668 18.6455V55.7627C15.5668 56.3037 14.3679 56.6951 12.6335 56.9371L12.6022 56.9167V18.6727L12.0381 17.4792Z" fill="#FEF0BA"/>
<path fill-rule="evenodd" clip-rule="evenodd" d="M15.5667 55.416V55.7626C15.5667 57.7092 0 57.7309 0 55.7626V55.416C0 57.3843 15.5667 57.3612 15.5667 55.416Z" fill="#FEF0BA"/>
<path fill-rule="evenodd" clip-rule="evenodd" d="M15.5662 55.416V55.7626L15.5553 55.851V55.8537L15.5227 55.938L15.5213 55.9421L15.4683 56.0236L15.467 56.025L15.3936 56.1038L15.3895 56.1079C15.3623 56.1324 15.3324 56.1568 15.2984 56.1827L15.293 56.1867C15.2604 56.2098 15.225 56.233 15.187 56.2561L15.1761 56.2629C15.138 56.286 15.0972 56.3077 15.0537 56.3295L15.0415 56.3363C14.9994 56.3567 14.9545 56.377 14.9069 56.3988L14.8906 56.4056C14.8431 56.4246 14.7941 56.445 14.7438 56.464L14.7126 56.4763C14.6663 56.4926 14.6188 56.5089 14.5698 56.5252L14.5195 56.5415C14.472 56.5565 14.423 56.5728 14.3727 56.5877L14.3143 56.604C14.2667 56.6176 14.2164 56.6312 14.1661 56.6448L14.0941 56.6625C14.0438 56.6761 13.9908 56.6883 13.9378 56.7006L13.8535 56.7209C13.8059 56.7305 13.7597 56.7413 13.7108 56.7522L13.5966 56.7753L13.462 56.8011L13.3424 56.8243C13.2907 56.8338 13.2377 56.8433 13.1833 56.8514L13.0624 56.8718L12.9264 56.8936L12.7959 56.914H12.7946L12.7144 56.9262L12.6328 56.9371L12.6016 56.9167V56.5945C14.3523 56.3526 15.5662 55.9597 15.5662 55.416Z" fill="#F9CA58"/>
<path fill-rule="evenodd" clip-rule="evenodd" d="M3.34819 14.5146H12.219C12.5045 14.8273 15.3739 17.7851 15.5099 18.2459C14.3028 18.5885 11.3355 18.8304 7.86787 18.8304C4.24261 18.8304 1.16515 18.5667 0.0722656 18.1997C0.20004 17.8205 3.10759 14.7784 3.34819 14.5146Z" fill="#FEF0BA"/>
<path fill-rule="evenodd" clip-rule="evenodd" d="M11.2015 14.5146H12.2183C12.5037 14.8273 15.3732 17.7851 15.5092 18.2459C14.9152 18.4145 13.893 18.5586 12.5962 18.6619L11.3008 15.9242V15.5722H10.8604V14.7566L11.1852 14.5745L11.2015 14.5146Z" fill="#FEF5D1"/>
<path fill-rule="evenodd" clip-rule="evenodd" d="M2.27441 15.6565H2.27713C2.37228 15.7911 4.74427 16.0398 7.71027 16.0398C10.6749 16.0398 13.1312 15.7911 13.225 15.6565H13.2277V13.449H2.27441C2.27441 14.1844 2.27441 14.9211 2.27441 15.6565Z" fill="#F4DE92"/>
<path fill-rule="evenodd" clip-rule="evenodd" d="M11.3013 15.9161C12.4364 15.8346 13.1745 15.7285 13.2247 15.6565H13.2275V13.449H10.8242V14.1694L11.2986 14.1504L11.1858 14.5745L10.8609 14.7566V15.5722L11.3013 15.5532V15.9161Z" fill="#D0BD78"/>
<path fill-rule="evenodd" clip-rule="evenodd" d="M1.89453 14.5364H13.6076V15.371H13.5696C13.2352 15.5042 10.7585 15.6075 7.75041 15.6075C4.74363 15.6075 2.26562 15.5042 1.93259 15.371H1.89453V14.5364Z" fill="#FEF0BA"/>
<path fill-rule="evenodd" clip-rule="evenodd" d="M11.1947 14.5364H13.6075V15.371H13.5694C13.3628 15.4539 12.3311 15.5246 10.8604 15.5667V14.7566L11.1852 14.5744L11.1947 14.5364Z" fill="#FEF5D1"/>
<path fill-rule="evenodd" clip-rule="evenodd" d="M13.227 14.4316C13.4731 14.4615 13.6076 14.4928 13.6076 14.5268C13.6076 14.6736 10.9856 14.7932 7.75041 14.7932C4.51663 14.7932 1.89453 14.6736 1.89453 14.5268C1.89453 14.4928 2.0291 14.4615 2.27378 14.4316V14.4493H2.2765C2.37165 14.5105 4.74363 14.6233 7.70963 14.6233C10.6743 14.6233 13.1305 14.5105 13.2243 14.4493H13.227V14.4316Z" fill="#F8E8AB"/>
<path fill-rule="evenodd" clip-rule="evenodd" d="M13.2269 14.4316C13.473 14.4615 13.6075 14.4928 13.6075 14.5268C13.6075 14.6219 12.5133 14.7049 10.8672 14.7524L11.1853 14.5744L11.1866 14.5716C12.3855 14.5336 13.1726 14.4833 13.2242 14.4493H13.2269V14.4316Z" fill="#F0D886"/>
<path fill-rule="evenodd" clip-rule="evenodd" d="M2.27441 14.4494H2.27713C2.37228 14.5106 4.74427 14.6234 7.71027 14.6234C10.6749 14.6234 13.1312 14.5106 13.225 14.4494H13.2277V13.449H2.27441C2.27441 13.782 2.27441 14.1164 2.27441 14.4494Z" fill="#F4DE92"/>
<path fill-rule="evenodd" clip-rule="evenodd" d="M11.1872 14.5717C12.3861 14.5336 13.1731 14.4833 13.2247 14.4494H13.2275V14.0266C12.768 14.0823 11.9144 14.1299 10.8242 14.1612L11.2171 14.1503L11.1872 14.5717Z" fill="#D0BD78"/>
<path fill-rule="evenodd" clip-rule="evenodd" d="M1.89453 11.6643H13.6076V13.9615H13.5696C13.2352 14.0975 10.7585 14.2021 7.75041 14.2021C4.74363 14.2021 2.26562 14.0975 1.93259 13.9615H1.89453V11.6643Z" fill="#FEF0BA"/>
<path fill-rule="evenodd" clip-rule="evenodd" d="M9.10156 11.6643H13.6077V13.9615H13.5696C13.3603 14.0458 12.3136 14.1192 10.8238 14.1613V11.7866L9.11108 11.7336L9.10156 11.6643Z" fill="#FEF5D1"/>
<path fill-rule="evenodd" clip-rule="evenodd" d="M7.75041 11.9375C10.976 11.9375 13.6076 11.8179 13.6076 11.6711C13.6076 11.5229 10.976 11.4033 7.75041 11.4033C4.52478 11.4033 1.89453 11.5229 1.89453 11.6711C1.89453 11.8179 4.52478 11.9375 7.75041 11.9375Z" fill="#FEF0BA"/>
<path fill-rule="evenodd" clip-rule="evenodd" d="M9.06641 11.4099C11.6681 11.4371 13.6078 11.5431 13.6078 11.6709C13.6078 11.766 12.4946 11.8503 10.824 11.8979L9.11126 11.7334L9.06641 11.4099Z" fill="#FEF5D1"/>
<path fill-rule="evenodd" clip-rule="evenodd" d="M7.75112 0.819627L7.46295 0.785645L5.53274 10.5781L5.337 11.5636C5.31389 11.7756 10.0742 11.8463 10.1652 11.5636L9.93824 10.4149L8.04065 0.785645L7.75112 0.819627Z" fill="#FEF0BA"/>
<path fill-rule="evenodd" clip-rule="evenodd" d="M9.10932 11.7268C9.7047 11.6996 10.137 11.648 10.1641 11.5637L9.93714 10.4151L8.46501 2.94434C8.48133 3.21892 8.49356 3.4065 8.49356 3.42281C8.49356 3.48942 8.45278 3.67156 8.35355 3.69603C8.25432 3.7205 7.98926 3.76671 7.98926 3.76671L9.10932 11.7268Z" fill="#FEF5D1"/>
<path fill-rule="evenodd" clip-rule="evenodd" d="M6.05957 11.6927C6.36541 11.7144 6.74466 11.7307 7.14837 11.7403L7.50859 3.76658C7.14429 3.6959 6.06093 11.6886 6.05957 11.6927Z" fill="#F8E8AB"/>
<path fill-rule="evenodd" clip-rule="evenodd" d="M7.39468 0H8.09064C8.3258 0 8.49164 0.19574 8.52018 0.430899L8.85865 3.2433C8.8872 3.47846 8.66563 3.67284 8.42911 3.67284H7.05621C6.8197 3.67284 6.59813 3.47846 6.62531 3.2433L6.96514 0.430899C6.99233 0.19574 7.15816 0 7.39468 0Z" fill="#F8E8AB"/>
<path fill-rule="evenodd" clip-rule="evenodd" d="M7.85938 0H8.09046C8.32562 0 8.49145 0.19574 8.52 0.430899L8.85846 3.2433C8.88701 3.47846 8.66544 3.67284 8.42892 3.67284H8.26309C8.33105 3.61575 8.36096 3.47846 8.36096 3.42273C8.36096 3.35612 8.17745 0.7014 8.19512 0.387401C8.20464 0.19438 8.01162 0.0693245 7.85938 0Z" fill="#F3AB17"/>
<path fill-rule="evenodd" clip-rule="evenodd" d="M15.5667 56.5728C13.4503 57.9089 2.11236 57.9225 0 56.5755V56.8324C0.810145 57.3911 4.08742 57.8994 7.45306 57.9348C11.2346 57.9742 15.1182 57.4699 15.5667 56.8283V56.5728Z" fill="#FEF0BA"/>
<path fill-rule="evenodd" clip-rule="evenodd" d="M0.937919 49.7397H2.89668V56.9169L2.34752 57.2635L2.46034 59.6409C0.985495 59.3962 0 59.0279 0 58.5331V56.524C0 56.5172 0.043498 56.3052 0.237878 56.2848C0.311281 56.2766 0.255549 56.1883 0.154961 56.0809C0.110104 56.032 0.15632 55.9395 0.100588 55.8879L0 55.3754V50.906C0 50.2644 0.421384 49.7397 0.937919 49.7397Z" fill="#F4DE92"/>
<path fill-rule="evenodd" clip-rule="evenodd" d="M2.86949 56.9345L2.37742 57.2444C1.2927 57.0813 0.443133 56.8584 0 56.5757V56.524C0 56.5172 0.043498 56.3052 0.237878 56.2848C0.299047 56.278 0.271861 56.2168 0.203895 56.1353C0.608968 56.486 1.58903 56.7524 2.86949 56.9345Z" fill="#D0BD78"/>
<path fill-rule="evenodd" clip-rule="evenodd" d="M1.21114 17.4792H3.46079L2.89667 18.6727V56.9167L2.86949 56.9344C1.17036 56.6924 0 56.3023 0 55.7627V18.6455C0 18.4838 0.0135929 18.322 0.076121 18.1874C0.262345 17.7865 0.827815 17.4792 1.21114 17.4792Z" fill="#F4DE92"/>
<path fill-rule="evenodd" clip-rule="evenodd" d="M2.86949 56.9344C1.17036 56.6924 0 56.3023 0 55.7626V55.416C0 55.9584 1.18395 56.3485 2.89668 56.5905V56.9167L2.86949 56.9344Z" fill="#F8E8AB"/>
<path fill-rule="evenodd" clip-rule="evenodd" d="M3.34819 14.5146H4.29698L4.31193 14.5745L4.63816 14.7566V15.5667L4.19775 15.5532L4.19639 15.9242L2.91049 18.6429C1.60556 18.5327 0.603753 18.3778 0.0722656 18.1997C0.20004 17.8205 3.10759 14.7784 3.34819 14.5146Z" fill="#F8E8AB"/>
<path fill-rule="evenodd" clip-rule="evenodd" d="M4.31201 14.5744L4.19919 14.1503L4.20327 14.1462C3.34011 14.1163 2.66589 14.0742 2.27441 14.0266V14.5364H4.30249L4.31201 14.5744ZM2.27441 15.6564H2.27713C2.33015 15.7298 3.06009 15.8372 4.19647 15.9201L4.19783 15.5531L4.63824 15.5667C3.56711 15.5368 2.72978 15.4906 2.27441 15.4348V15.6564Z" fill="#D0BD78"/>
<path fill-rule="evenodd" clip-rule="evenodd" d="M1.89453 14.5364H4.30186L4.31137 14.5744L4.6376 14.7566V15.5667C3.1682 15.5246 2.13921 15.4539 1.93259 15.371H1.89453V14.5364Z" fill="#F4DE92"/>
<path fill-rule="evenodd" clip-rule="evenodd" d="M4.62945 14.7524C2.98605 14.7049 1.89453 14.6219 1.89453 14.5268C1.89453 14.4928 2.0291 14.4615 2.27378 14.4316V14.4493H2.2765C2.33087 14.4847 3.10975 14.5349 4.31137 14.573V14.5744L4.62945 14.7524Z" fill="#F0D886"/>
<path fill-rule="evenodd" clip-rule="evenodd" d="M2.27441 14.4494H2.27713C2.3315 14.4847 3.11039 14.535 4.31201 14.5731L4.32152 14.1585V14.1503H4.30657C4.18423 14.1462 4.21414 14.1462 4.17744 14.1449H4.15025L4.14482 14.1435H4.11491L4.10811 14.1422H4.07413L4.04151 14.1408L4.0116 14.1394L3.99665 14.1381L3.95043 14.1367H3.94908L3.88655 14.134L3.82674 14.1313H3.81586L3.77237 14.1299L3.76557 14.1286L3.70712 14.1272L3.64867 14.1245L3.64187 14.1231L3.59973 14.1218H3.59022L3.5576 14.1204L3.53313 14.119L3.51682 14.1177L3.4774 14.1163H3.47604L3.43526 14.1136H3.42167L3.39448 14.1122L3.36729 14.1095L3.31564 14.1082L3.31292 14.1068L3.27758 14.1055L3.25991 14.1041L3.23816 14.1027L3.20826 14.1014H3.20146L3.1634 14.0987H3.15796L3.1267 14.0973L3.10631 14.0959L3.09 14.0946L3.05737 14.0932H3.05465L3.01795 14.0905L3.0098 14.0891L2.96086 14.0864L2.91465 14.0837L2.88202 14.081L2.86979 14.0796L2.84804 14.0783L2.82493 14.0769L2.78415 14.0742H2.78007L2.75289 14.0715L2.73794 14.0701H2.72162L2.6958 14.0674H2.69036L2.66046 14.0647H2.65366L2.57482 14.0579H2.57346L2.54627 14.0552L2.53676 14.0538L2.51909 14.0524L2.50006 14.0511L2.4919 14.0497L2.46472 14.047L2.43889 14.0443H2.42937L2.39403 14.0402H2.38995L2.36549 14.0375L2.36277 14.0361L2.33015 14.0334L2.29888 14.0293H2.29616L2.27441 14.0266V14.4494Z" fill="#D0BD78"/>
<path fill-rule="evenodd" clip-rule="evenodd" d="M1.89453 11.6643H6.39654L6.38703 11.7336L4.67431 11.7866V14.1613C3.18587 14.1192 2.14192 14.0458 1.93259 13.9615H1.89453V11.6643Z" fill="#F4DE92"/>
<path fill-rule="evenodd" clip-rule="evenodd" d="M4.67431 11.8979C3.00644 11.8503 1.89453 11.766 1.89453 11.6709C1.89453 11.5431 3.8329 11.4371 6.43189 11.4099L6.38703 11.7334L4.67431 11.8979Z" fill="#F0D886"/>
<path fill-rule="evenodd" clip-rule="evenodd" d="M7.03204 2.97559L5.53273 10.5782L5.33699 11.5637C5.33019 11.6289 5.77197 11.6806 6.39045 11.7132L7.50916 3.7667C7.50916 3.7667 7.24409 3.72048 7.14486 3.69602C7.04564 3.67155 7.0035 3.4894 7.0035 3.4228C7.0035 3.40649 7.01573 3.23249 7.03204 2.97559Z" fill="#F4DE92"/>
<path fill-rule="evenodd" clip-rule="evenodd" d="M7.39468 0H7.50478C7.35254 0.0693245 7.15952 0.19438 7.16904 0.387401C7.18535 0.7014 7.0032 3.35612 7.0032 3.42273C7.0032 3.47846 7.03311 3.61575 7.10107 3.67284H7.05621C6.8197 3.67284 6.59813 3.47846 6.62531 3.2433L6.96514 0.430899C6.99233 0.19574 7.15816 0 7.39468 0Z" fill="#F4DE92"/>
<path fill-rule="evenodd" clip-rule="evenodd" d="M2.37742 57.2445C1.2927 57.0813 0.443133 56.8584 0 56.5757V56.8326C0.362934 57.0827 1.22065 57.3233 2.35975 57.515L2.34752 57.2635L2.37742 57.2445Z" fill="#F8E8AB"/>
<path fill-rule="evenodd" clip-rule="evenodd" d="M15.566 55.416V55.7626C15.566 56.3145 14.3154 56.7114 12.5239 56.952L12.4668 56.9167V56.6122C14.2883 56.3716 15.566 55.9733 15.566 55.416Z" fill="#FDF5CB"/>
<path fill-rule="evenodd" clip-rule="evenodd" d="M7.85938 0H8.09046C8.32562 0 8.49145 0.19574 8.52 0.430899L8.85846 3.2433C8.88701 3.47846 8.66544 3.67284 8.42892 3.67284H8.26309C8.33105 3.61575 8.36096 3.47846 8.36096 3.42273C8.36096 3.35612 8.17745 0.7014 8.19512 0.387401C8.20464 0.19438 8.01162 0.0693245 7.85938 0Z" fill="#F6AF1B"/>
<path fill-rule="evenodd" clip-rule="evenodd" d="M7.85938 0H8.09046C8.32562 0 8.49145 0.19574 8.52 0.430899L8.85846 3.2433C8.88701 3.47846 8.66544 3.67284 8.42892 3.67284H8.26309L8.26853 3.6674L8.2726 3.66468V3.66332L8.27532 3.66196L8.27668 3.65924L8.28348 3.65245L8.28891 3.64429L8.29163 3.64157L8.29299 3.63885L8.29435 3.6375L8.29571 3.63478L8.29707 3.63342L8.29843 3.6307L8.29979 3.62934L8.30251 3.62526L8.30387 3.62254L8.30523 3.62118L8.30659 3.61711L8.30795 3.61575L8.3093 3.61303L8.31066 3.61167V3.60895L8.31338 3.60623V3.60487L8.3161 3.60079L8.31746 3.59672V3.59536L8.32018 3.59264V3.58992L8.32154 3.58856L8.3229 3.58584V3.58312L8.32426 3.5804L8.32562 3.57905L8.32698 3.57497L8.32833 3.56953L8.33105 3.56545V3.56409L8.33377 3.55866V3.55594L8.33513 3.55322V3.55186L8.33649 3.54778L8.33785 3.54234L8.33921 3.53827L8.34057 3.53691V3.53419L8.34193 3.53147V3.52875L8.34329 3.52603V3.52467L8.34465 3.5206L8.34601 3.51516L8.34736 3.51108V3.50972L8.34872 3.507V3.50564L8.35008 3.50292V3.49885L8.35144 3.49477V3.48933L8.35416 3.48118V3.47438L8.35552 3.47302V3.46622L8.35688 3.46486V3.45671L8.35824 3.45399V3.44855L8.3596 3.44719V3.42816L8.36096 3.42544V3.42273C8.36096 3.35612 8.17745 0.7014 8.19512 0.387401V0.357496L8.19376 0.356137L8.1924 0.334389V0.330311L8.19104 0.326233L8.18969 0.318077V0.316718L8.18833 0.315358L8.18697 0.304484L8.18561 0.303124V0.301765L8.18289 0.293609L8.18017 0.286813V0.285454L8.17745 0.278657V0.277298L8.17337 0.266423L8.17201 0.265064V0.262346L8.16794 0.255549L8.16386 0.247393L8.15978 0.240597L8.15706 0.2338L8.15298 0.228363L8.15163 0.225644L8.14755 0.218848L8.14619 0.217489L8.14347 0.212051L8.13259 0.198458L8.12852 0.191662L8.12172 0.184865V0.183506L8.11764 0.178069L8.11221 0.173991L8.11085 0.172631L8.10541 0.165835L8.10269 0.163116L8.09997 0.159038L8.09318 0.153601V0.152242L8.08774 0.148164L8.08366 0.142727L8.08094 0.141368L8.07279 0.133212L8.06871 0.130493L8.06191 0.123697L8.05511 0.118259L8.05104 0.115541L8.04832 0.112822L8.04152 0.107385L8.04016 0.106026L8.03473 0.101948L8.02793 0.0978698V0.0965102L8.01977 0.0924326L8.01434 0.0869954L8.00618 0.0815582L8.00482 0.0801992L7.99938 0.0774803L7.99259 0.0734024L7.99123 0.0720431L7.98443 0.0679652L7.97628 0.0625279L7.96268 0.0543721L7.95724 0.0502942L7.95453 0.0489349L7.94773 0.044857L7.93957 0.0407791L7.93278 0.0367015L7.92462 0.0326233L7.92054 0.0299047L7.91783 0.0285454L7.90967 0.0258271L7.90831 0.0244675L7.90287 0.0217489L7.89608 0.0176709L7.88792 0.013593L7.88384 0.0122337L7.87297 0.00679652H7.87161L7.86617 0.00407824L7.85938 0.0013593V0Z" fill="#FEF5D1"/>
<path fill-rule="evenodd" clip-rule="evenodd" d="M15.5664 56.5728C15.0988 56.8664 14.1826 57.0974 13.0163 57.2633L13 57.6031C14.3743 57.4046 15.3543 57.1314 15.5664 56.8283V56.5728Z" fill="#FDF5CB"/>
<path fill-rule="evenodd" clip-rule="evenodd" d="M1.95215 18.5477C1.95215 18.5477 5.32322 18.9119 8.31777 18.829C11.3123 18.7461 14.0635 18.5137 14.0635 18.5137C14.0635 18.5137 8.53253 19.7914 1.95215 18.5477Z" fill="white"/>
<path fill-rule="evenodd" clip-rule="evenodd" d="M3.83301 11.8694C3.83301 11.8694 6.53122 11.9401 7.55614 11.9373C8.58241 11.9346 11.3377 11.8816 11.3377 11.8816C11.3377 11.8816 9.68345 12.0203 7.49905 12.0869C6.37083 12.1222 5.10124 12.0189 3.83301 11.8694Z" fill="white"/>
<path fill-rule="evenodd" clip-rule="evenodd" d="M3.83301 14.7227C3.83301 14.7227 6.53122 14.7933 7.55614 14.7906C8.58241 14.7879 11.3377 14.7349 11.3377 14.7349C8.73601 14.9524 6.4252 15.0285 3.83301 14.7227Z" fill="white"/>
<path fill-rule="evenodd" clip-rule="evenodd" d="M12.9541 16.3213C12.9541 16.3213 14.7905 18.4228 14.7239 18.9189C14.6587 19.4151 14.8585 54.8059 14.8571 55.2721C14.8558 55.7397 14.3284 19.1432 14.1951 18.8278C14.0633 18.5138 12.9541 16.3213 12.9541 16.3213Z" fill="white"/>
<path fill-rule="evenodd" clip-rule="evenodd" d="M15.5667 31.9409V45.572C15.5667 46.8511 0 46.7954 0 45.572V31.9409C0 33.2676 15.5681 33.2934 15.5667 31.9409Z" fill="#FDF5CB"/>
<path fill-rule="evenodd" clip-rule="evenodd" d="M2.89668 46.3142C1.18395 46.1579 0 45.9105 0 45.572V31.9409C0 32.3066 1.18395 32.573 2.89668 32.7402V46.3142Z" fill="#FDEBA9"/>
<path fill-rule="evenodd" clip-rule="evenodd" d="M15.5662 31.9409V45.4402C15.5662 45.5516 15.5254 45.659 15.4452 45.7582C15.1013 46.0192 14.0302 46.2109 12.6016 46.3359V32.7538C14.3523 32.5879 15.5676 32.3188 15.5662 31.9409Z" fill="#FFFAE8"/>
<path fill-rule="evenodd" clip-rule="evenodd" d="M14.7474 32.6409C14.7664 37.1932 14.7909 42.1397 14.8113 46.2461C14.78 46.2584 14.7501 46.272 14.7175 46.2842C14.655 42.1981 14.5761 37.272 14.5 32.7265C14.587 32.698 14.6699 32.6708 14.7474 32.6409Z" fill="white"/>
</svg>
