<svg width="32" height="80" viewBox="0 0 32 80" fill="none" xmlns="http://www.w3.org/2000/svg">
<path d="M1.37793 42.1426V77.478H1.38023C1.43376 78.872 7.75532 79.9999 15.5486 79.9999C23.3425 79.9999 29.6635 78.872 29.7165 77.478H29.7193V42.1426H1.37793Z" fill="#C9C9C9"/>
<path d="M0 38.5388V76.1658H0.00287788C0.0615868 77.7718 7.01801 79.0697 15.5941 79.0697C24.1702 79.0697 31.1266 77.7718 31.1859 76.1658H31.1888V38.5388H0Z" fill="#F2F2F2"/>
<path d="M1.37793 49.0235H29.7193V17.4988H1.37793V49.0235Z" fill="#C9C9C9"/>
<path d="M0 49.0237H31.1888V10.7959H0V49.0237Z" fill="#F2F2F2"/>
<path d="M31.1888 38.5389V9.5874H0V74.9567H0.00287788C0.0615868 76.5628 7.01801 77.86 15.5941 77.86C24.1702 77.86 31.1266 76.5628 31.1859 74.9567H31.1888V38.5389Z" fill="#3660E8"/>
<path d="M31.1859 74.9566H31.1888V14.8738C29.2508 24.7353 25.9165 34.3226 21.2958 43.2475C22.8959 35.4713 24.0027 27.3103 21.8334 19.6741C20.7006 31.9435 16.0454 43.8668 8.56516 53.6528C10.7656 46.8145 11.789 39.5988 11.5766 32.4188C9.76178 39.972 5.64296 46.9297 0 52.2565V74.9566H0.00287788C0.0615868 76.5626 7.01801 77.8599 15.5941 77.8599C24.1702 77.8599 31.1266 76.5626 31.1859 74.9566Z" fill="#5081F9"/>
<path d="M31.1859 74.9566H31.1888V61.4233C28.6879 63.7765 25.7104 65.7408 22.7796 67.5387C24.4148 61.4365 25.1648 55.0953 24.9973 48.7788C21.6521 57.8177 14.6277 64.9153 7.80137 71.7122C9.23168 67.0577 9.96611 62.19 9.97302 57.3189C7.29486 61.7153 3.90989 65.6763 0 69.0209V74.9566H0.00287788C0.0615868 76.5627 7.01801 77.8599 15.5941 77.8599C24.1702 77.8599 31.1266 76.5627 31.1859 74.9566Z" fill="#71A0FF"/>
<path d="M11.8396 63.0248C11.3838 62.2817 10.7322 61.7022 9.90338 61.3006C9.07224 60.8997 8.17262 60.6964 7.22925 60.6975C6.27436 60.6992 5.41503 60.8911 4.67484 61.2667C3.94385 61.6371 3.33892 62.2079 2.87501 62.9655C2.57225 63.4672 2.23612 64.3434 1.84645 65.6424C1.36757 67.2392 1.01186 67.6626 0.877755 67.7732C0.642919 67.9708 0.362038 68.0682 0 68.0768V68.9841C0.713715 68.9737 1.31289 68.7704 1.77681 68.381C2.05538 68.1494 2.48822 67.6361 3.02638 65.84C3.39303 64.6187 3.71247 63.7765 3.97608 63.3405C4.34445 62.7385 4.80779 62.2932 5.35171 62.0173C5.89678 61.7419 6.51093 61.606 7.2304 61.606C7.94699 61.6048 8.6066 61.7534 9.24722 62.0633C9.87978 62.3698 10.3823 62.8197 10.7403 63.405C11.1104 64.0081 11.2986 64.7028 11.3003 65.4667C11.3015 66.4581 11.1121 67.2928 10.7368 67.9489C10.3713 68.586 9.83834 69.0722 9.10735 69.434C8.53293 69.7186 7.88943 69.8983 7.18838 69.9703L7.11873 69.3793C7.74093 69.279 8.27852 69.1154 8.72344 68.8896C9.31744 68.5889 9.79747 68.1269 10.1503 67.5169C10.4899 66.9299 10.6608 66.2645 10.6597 65.5404C10.6585 64.8964 10.5256 64.3152 10.2648 63.8134C9.98798 63.2811 9.59314 62.8744 9.09066 62.6031C8.57897 62.3272 8.01088 62.1884 7.40134 62.1884C6.77742 62.1901 6.22199 62.3301 5.75001 62.606C5.29185 62.8744 4.92809 63.2829 4.63972 63.8549C4.4659 64.1896 4.21034 64.8901 3.85809 65.9961C3.52944 67.0284 3.2215 67.7525 2.9412 68.1494C2.60449 68.6344 2.18777 68.9956 1.70428 69.2261C1.22137 69.4559 0.692419 69.5694 0.0874877 69.5694C0.0581332 69.5694 0.0293545 69.5682 0 69.5682V70.4749C0.0293545 70.4749 0.0592844 70.4767 0.0892144 70.4767C0.918045 70.4767 1.67953 70.3125 2.35181 69.9928C3.01775 69.6754 3.57721 69.1961 4.01235 68.5711C4.3433 68.1022 4.67771 67.3279 5.03515 66.2058C5.36956 65.1556 5.6159 64.4741 5.76901 64.1781C5.97564 63.7696 6.21911 63.4816 6.49308 63.3209C6.75152 63.1705 7.04909 63.0968 7.40307 63.0968C7.7582 63.0956 8.0788 63.1751 8.38385 63.3405C8.69351 63.5069 8.94734 63.7765 9.13786 64.1441C9.34391 64.541 9.44925 65.011 9.44982 65.5422C9.45097 66.1407 9.31283 66.6833 9.04001 67.1551C8.781 67.605 8.44659 67.9357 8.04599 68.139C7.62985 68.3499 7.07384 68.4887 6.39466 68.5492L5.81218 68.6022L6.08673 70.9248L6.65655 70.9127C7.80712 70.888 8.85583 70.6443 9.77272 70.1915C10.6948 69.7347 11.393 69.1005 11.8482 68.3055C12.2891 67.5359 12.5119 66.5802 12.5096 65.4655C12.5084 64.5686 12.2828 63.7472 11.8396 63.0248Z" fill="white"/>
<path d="M0 63.5437C0.199725 63.5011 0.415567 63.4671 0.652704 63.4481L1.23461 63.3991L0.994021 61.0425L0.410962 61.0603C0.272248 61.0649 0.135261 61.0736 0 61.084V63.5437Z" fill="white"/>
<path d="M0 50.6032C0.1744 50.5882 0.352253 50.5796 0.534135 50.5796C1.71349 50.5779 2.68104 50.848 3.49145 51.4039C4.27654 51.9437 4.67599 52.9835 4.67829 54.4979L4.68404 57.9485L11.0217 57.9381L11.0229 58.5781L0 58.5977V59.5044L12.2339 59.4837L12.2299 57.0297L5.89218 57.0401L5.88815 54.495C5.88527 52.6931 5.36898 51.4615 4.30934 50.7345C3.27906 50.0283 2.00876 49.67 0.532409 49.6729C0.352253 49.6729 0.174975 49.6798 0 49.6919V50.6032Z" fill="white"/>
<path d="M4.04861 54.4743C4.04688 53.3493 3.75219 52.5555 3.14783 52.0457C2.53369 51.5278 1.67608 51.2651 0.599176 51.2669C0.392544 51.2686 0.192818 51.2801 0 51.3008V52.2237C0.185911 52.1914 0.385061 52.1753 0.600902 52.1753C1.32613 52.1736 1.86372 52.3285 2.2436 52.6488C2.63154 52.976 2.83759 53.6085 2.83875 54.4761L2.84277 57.0447L0 57.0493V57.9578L4.05436 57.9503L4.04861 54.4743Z" fill="white"/>
<path d="M8.89899 46.213C10.1008 45.3679 10.7092 44.2959 10.7075 43.0274C10.7052 41.737 10.0864 40.6575 8.86849 39.8216C7.66553 38.9956 5.96355 38.5785 3.81032 38.5825C2.46117 38.5843 1.25936 38.7629 0.238864 39.1108C0.157132 39.139 0.078854 39.1696 0 39.1995V40.2491C0.226777 40.1344 0.471398 40.0279 0.739616 39.9369C1.60183 39.6419 2.63557 39.491 3.81205 39.4898C5.65216 39.487 7.07844 39.8228 8.05117 40.491C9.02274 41.1593 9.49587 41.9894 9.49759 43.0291C9.49932 44.0511 9.0331 44.8754 8.07189 45.5505C7.11298 46.2263 5.75865 46.5696 4.04746 46.573C2.27353 46.5759 0.916894 46.3415 0 45.8754V46.9146C1.05388 47.2925 2.40649 47.4826 4.04861 47.4798C6.07694 47.4769 7.70928 47.0506 8.89899 46.213Z" fill="white"/>
<path d="M11.4304 39.9618C10.7311 39.0078 9.69041 38.263 8.33781 37.7468C7.00938 37.241 5.4887 36.9841 3.81838 36.9876C2.43066 36.9905 1.15058 37.1685 0 37.5135V38.5032C1.11662 38.1034 2.40016 37.8972 3.8201 37.8943C5.29703 37.8926 6.6318 38.1155 7.78871 38.5562C8.92144 38.9882 9.78999 39.6081 10.3707 40.3996C10.9607 41.2037 11.2612 42.0851 11.2623 43.0189C11.264 44.0293 10.9383 44.9435 10.293 45.7339C9.65012 46.5225 8.75913 47.1291 7.64481 47.5375C6.50747 47.9534 5.28725 48.1654 4.0181 48.1671C2.46174 48.17 1.11892 47.9695 0 47.5744V48.564C1.16554 48.9056 2.50836 49.0767 4.01925 49.0739C5.47374 49.0727 6.87124 48.829 8.17434 48.3526C9.4999 47.8676 10.5601 47.1452 11.3251 46.2074C12.0883 45.2707 12.4745 44.1969 12.4728 43.0172C12.4704 41.929 12.1199 40.9013 11.4304 39.9618Z" fill="white"/>
<path d="M3.47706 30.5517C3.47591 29.7832 3.36712 29.1887 3.14438 28.7377C2.90321 28.2451 2.50721 27.8644 1.96675 27.6051C1.44009 27.3511 0.859336 27.2232 0.240016 27.2244C0.158284 27.2244 0.078854 27.229 0 27.2336V28.1432C0.0782785 28.1357 0.158284 28.1317 0.241742 28.1317C0.629681 28.1317 0.980208 28.2083 1.31232 28.369C1.63119 28.5222 1.85911 28.7452 2.00934 29.0516C2.17913 29.3984 2.26605 29.9025 2.2672 30.5528L2.2718 33.4256L0 33.4285V34.337L3.48339 34.3312L3.47706 30.5517Z" fill="white"/>
<path d="M0 26.5435C0.078854 26.5389 0.158284 26.5371 0.238864 26.5371C1.19317 26.536 1.97308 26.7572 2.62175 27.214C3.27446 27.676 3.69981 28.4203 3.88745 29.4324L4.16372 30.9261L5.03227 29.5649C5.26768 29.1962 5.49618 28.9174 5.70742 28.7423C6.22256 28.3189 6.88044 27.9105 7.65862 27.5297L10.9682 25.9369L10.9699 26.8056L8.00627 28.2244C7.06003 28.6829 6.32214 29.0695 5.8139 29.369C5.2602 29.6974 4.87571 29.9912 4.638 30.2683C4.40489 30.5413 4.2397 30.8259 4.14185 31.1266C4.08314 31.3363 4.05551 31.6485 4.05609 32.0823L4.06012 34.3295L10.982 34.3179L10.9832 34.9579L0 34.9758V35.8842L12.1947 35.8635L12.1907 33.4095L5.26825 33.4199L5.26595 32.0794C5.26538 31.6249 5.29818 31.4112 5.32178 31.3259C5.38337 31.137 5.49618 30.9451 5.65677 30.7579C5.76728 30.6283 6.0142 30.4071 6.56273 30.0828C7.04103 29.7982 7.74784 29.4307 8.65955 28.9883L12.1804 27.301L12.1752 24.2778L7.00247 26.7676C6.13507 27.1921 5.39891 27.6506 4.81125 28.1328C4.7911 28.1489 4.77153 28.1668 4.75139 28.1829C4.45842 27.5032 4.02328 26.9577 3.45058 26.5538C2.57858 25.9386 1.49765 25.6275 0.237138 25.6304C0.157708 25.6304 0.078854 25.6333 0 25.6362V26.5435Z" fill="white"/>
<path d="M11.2899 63.2147C10.8813 62.5482 10.3097 62.0367 9.5753 61.6824C8.84086 61.327 8.05923 61.1501 7.22982 61.1519C6.39351 61.153 5.65447 61.3166 5.01327 61.6415C4.37266 61.967 3.8437 62.4699 3.42641 63.1514C3.1438 63.6203 2.81342 64.4832 2.43642 65.7407C2.05941 66.9989 1.68989 67.7777 1.32901 68.0755C0.979632 68.3687 0.535862 68.5208 0 68.5294V70.0209C0.0293545 70.022 0.0587088 70.0237 0.0880633 70.0237C0.804081 70.022 1.45103 69.8849 2.02833 69.609C2.60564 69.3348 3.08855 68.9177 3.47764 68.3583C3.78154 67.928 4.10444 67.1746 4.44691 66.1008C4.7888 65.0259 5.0409 64.3329 5.20321 64.0183C5.45071 63.5287 5.75692 63.1767 6.12126 62.9641C6.48618 62.7504 6.91325 62.6439 7.40249 62.6427C7.88483 62.641 8.32917 62.7516 8.73726 62.9716C9.14534 63.1911 9.46651 63.5275 9.70135 63.9786C9.93618 64.4302 10.0536 64.9504 10.0548 65.5403C10.0559 66.2056 9.9028 66.8041 9.59544 67.3364C9.28751 67.8675 8.8846 68.261 8.385 68.515C7.88598 68.7674 7.24651 68.9292 6.46661 69.0001L6.63928 70.4587C7.68107 70.4362 8.61523 70.2196 9.44004 69.8129C10.2648 69.4039 10.883 68.8422 11.2928 68.1268C11.7021 67.4102 11.907 66.5242 11.9047 65.4665C11.9035 64.6318 11.6986 63.8812 11.2899 63.2147Z" fill="#71A0FF"/>
<path d="M0 63.0749C0.185911 63.041 0.379881 63.0145 0.587088 62.9966L0.435712 61.5144C0.287213 61.519 0.142743 61.5294 0 61.5426V63.0749Z" fill="#71A0FF"/>
<path d="M0 51.7623C0.190516 51.7358 0.389665 51.7208 0.599751 51.7208C1.50053 51.7197 2.19928 51.9288 2.696 52.3476C3.19272 52.767 3.44195 53.4761 3.44368 54.4761L3.44886 57.4976L0 57.5033V59.0506L11.6284 59.031L11.6255 57.4843L5.2884 57.4947L5.28322 54.4963C5.28034 52.8436 4.81988 51.7007 3.90068 51.0693C2.98149 50.438 1.85911 50.124 0.53356 50.1257C0.352253 50.1269 0.1744 50.1344 0 50.1476V51.7623Z" fill="#71A0FF"/>
<path d="M10.9003 40.18C10.2574 39.3038 9.31168 38.6287 8.06326 38.1523C6.81483 37.6759 5.40006 37.4386 3.81895 37.4414C2.41109 37.4432 1.13907 37.6333 0 38.0048V39.7157C0.157132 39.6477 0.318294 39.5826 0.48924 39.5239C1.43491 39.2007 2.54232 39.0383 3.81147 39.0354C5.81736 39.0325 7.36738 39.4058 8.45983 40.1564C9.55285 40.907 10.1002 41.8638 10.1025 43.0292C10.1043 44.1721 9.56551 45.1232 8.48515 45.8824C7.40595 46.6422 5.92671 47.0224 4.04803 47.0253C2.34432 47.0288 0.996324 46.822 0 46.4078V48.0743C1.14194 48.4395 2.48016 48.6239 4.01868 48.621C5.38682 48.6181 6.6836 48.3929 7.90958 47.9441C9.13498 47.4959 10.1019 46.8381 10.8093 45.9694C11.5167 45.1024 11.8695 44.1191 11.8672 43.0171C11.8655 42.0027 11.5438 41.0562 10.9003 40.18Z" fill="#71A0FF"/>
<path d="M0 27.6877C0.078854 27.6819 0.158859 27.679 0.241167 27.679C0.744221 27.6773 1.21044 27.7804 1.63982 27.9872C2.0692 28.1935 2.38116 28.4959 2.57686 28.8939C2.77255 29.292 2.87098 29.845 2.87213 30.553L2.87788 33.8786L0 33.8832V35.4299L11.5892 35.4109L11.5864 33.8636L4.6639 33.8757L4.66102 32.0807C4.66045 31.6826 4.68462 31.3952 4.73412 31.2195C4.81182 30.981 4.94996 30.7448 5.14738 30.5132C5.34596 30.2817 5.69303 30.0196 6.1886 29.7258C6.68417 29.4326 7.39962 29.0593 8.33435 28.6065L11.5749 27.0534L11.572 25.1069L7.33227 27.1479C6.50402 27.5535 5.81333 27.9826 5.26135 28.4354C5.00637 28.648 4.74793 28.9602 4.48662 29.3703C4.27884 28.2482 3.79593 27.4192 3.03617 26.8841C2.27641 26.3489 1.34397 26.0816 0.238289 26.0834C0.157708 26.0834 0.078854 26.0862 0 26.0891V27.6877Z" fill="#71A0FF"/>
<path d="M0 19.8867L10.9584 19.8688L10.959 20.5077L0 20.5267V21.4334L12.1706 21.4127L12.1665 18.9592L0 18.9794V19.8867Z" fill="white"/>
<path d="M0 20.9794L11.5651 20.9598L11.5622 19.4131L0 19.4321V20.9794Z" fill="#71A0FF"/>
<path d="M31.0029 9.13561C30.0612 6.8429 29.1196 4.55077 28.1785 2.25806H3.1461C2.16417 4.54501 1.18223 6.83253 0.200876 9.11833C0.0702205 9.27156 0 9.42767 0 9.58724C0 11.2019 6.98175 12.5113 15.5941 12.5113C24.2059 12.5113 31.1888 11.2019 31.1888 9.58724C31.1888 9.43228 31.1237 9.28193 31.0029 9.13561Z" fill="#4172EF"/>
<path d="M25.1787 34.8652C25.1787 27.2083 25.1787 19.5501 25.1787 11.8938C27.8356 11.5055 29.804 10.9588 30.6824 10.3286V17.3029C29.358 23.302 27.5161 29.1847 25.1787 34.8652Z" fill="#2B4FC9"/>
<path d="M25.1787 66.0254C25.1787 55.6379 25.1787 45.2527 25.1787 34.8652C27.5161 29.1847 29.358 23.302 30.6824 17.303V61.8893C28.9908 63.4095 27.1063 64.7678 25.1787 66.0254Z" fill="#406BD8"/>
<path d="M25.1787 77.2425C25.1787 73.5039 25.1787 69.7641 25.1787 66.0255C27.1063 64.768 28.9908 63.4096 30.6824 61.8894V75.6733C29.8069 76.3047 27.8402 76.8531 25.1787 77.2425Z" fill="#5A84DD"/>
<path d="M25.1782 11.8938C24.2872 9.30382 23.3939 6.71271 22.5029 4.1216C22.332 3.50119 22.1622 2.8802 21.9912 2.25806H27.53C28.581 4.9494 29.6314 7.63901 30.6818 10.3286C29.8035 10.9588 27.835 11.5055 25.1782 11.8938Z" fill="#345ECF"/>
<path d="M5.86684 77.2216C4.60863 77.0327 3.50986 76.8086 2.61426 76.5563C2.61714 74.3206 2.62001 72.0866 2.62347 69.851C3.17026 69.5399 3.63706 69.109 4.01176 68.571C4.34272 68.1021 4.67713 67.3278 5.03456 66.2057C5.36897 65.1555 5.61532 64.474 5.76842 64.178C5.82022 64.076 5.87375 63.9815 5.93016 63.8945C5.92267 65.4608 5.91519 67.0283 5.90771 68.5929L5.81159 68.6021L5.90368 69.3821C5.89159 71.9968 5.87893 74.6086 5.86684 77.2216Z" fill="#BCD2FF"/>
<path d="M2.62402 69.851C2.62402 69.6523 2.6246 69.4501 2.6246 69.2508C2.94692 69.0106 3.23126 68.7127 3.4776 68.3585C3.78151 67.9282 4.10441 67.1747 4.44688 66.1009C4.78877 65.026 5.04087 64.333 5.20318 64.0184C5.40751 63.6146 5.65098 63.3047 5.93417 63.0898C5.93301 63.3594 5.93186 63.625 5.93071 63.8946C5.87431 63.9816 5.82078 64.0761 5.76898 64.178C5.61587 64.4741 5.36952 65.1556 5.03511 66.2057C4.67768 67.3279 4.34327 68.1021 4.01231 68.571C3.63761 69.1091 3.17082 69.54 2.62402 69.851ZM5.90424 69.3821L5.81214 68.6021L5.90826 68.5929C5.90711 68.8573 5.90539 69.1194 5.90424 69.3821Z" fill="white"/>
<path d="M2.63281 63.4315C2.63454 62.1221 2.63684 60.8099 2.63799 59.4999L5.95216 59.4941C5.94986 59.9394 5.94814 60.3807 5.94583 60.826C5.49113 60.9205 5.06693 61.0679 4.67553 61.2667C3.94455 61.6371 3.33962 62.2079 2.87571 62.9655C2.79743 63.0957 2.71627 63.2506 2.63281 63.4315Z" fill="#ADC4FC"/>
<path d="M2.62988 65.1176C2.63046 64.5542 2.63103 63.9937 2.63161 63.4314C2.71507 63.2506 2.79622 63.0956 2.8745 62.9654C3.33842 62.2079 3.94335 61.637 4.67433 61.2666C5.06572 61.0679 5.48992 60.9204 5.94463 60.8259C5.94405 60.982 5.9429 61.1428 5.94233 61.2994C5.61252 61.3801 5.30286 61.4953 5.01277 61.6416C4.37215 61.9671 3.8432 62.47 3.42591 63.1515C3.1928 63.538 2.92688 64.1924 2.62988 65.1176Z" fill="white"/>
<path d="M2.6377 59.4997C2.63827 59.3482 2.63827 59.1979 2.63885 59.0458L5.95417 59.04C5.95302 59.1904 5.95244 59.3436 5.95187 59.494L2.6377 59.4997Z" fill="white"/>
<path d="M2.64062 57.0447C2.64235 55.7808 2.64408 54.5129 2.64581 53.2473C2.77243 53.5734 2.83805 53.9875 2.83862 54.476L2.84265 57.0447H2.64062Z" fill="#ADC4FC"/>
<path d="M2.64062 57.4993C2.64062 57.3472 2.6412 57.1969 2.6412 57.0448H2.84323L2.8392 54.4761C2.83862 53.9876 2.77301 53.5735 2.64638 53.2474C2.64696 52.9335 2.64696 52.6207 2.64753 52.3079C2.66422 52.3211 2.68034 52.3344 2.69646 52.3476C3.19318 52.767 3.4424 53.4761 3.44413 54.4761L3.44931 57.4976L2.64062 57.4993Z" fill="white"/>
<path d="M2.65137 49.5076C2.65194 49.3469 2.65194 49.1873 2.65252 49.0266C2.78202 49.0358 2.91325 49.0445 3.04621 49.0502C2.91613 49.204 2.78433 49.3555 2.65137 49.5076Z" fill="#A0B4F4"/>
<path d="M5.89164 57.0402L5.88761 54.4951C5.88473 52.6932 5.36844 51.4616 4.3088 50.7346C3.81093 50.3925 3.25607 50.1326 2.64941 49.9558C2.64999 49.8072 2.64999 49.6562 2.64999 49.5076C2.78295 49.3555 2.91475 49.204 3.04484 49.0502C3.35104 49.0664 3.66473 49.0739 3.98648 49.0739C3.99742 49.0739 4.00778 49.0739 4.01871 49.0739C4.69329 49.0739 5.3552 49.0209 6.001 48.916C5.98834 51.6252 5.97567 54.3327 5.96243 57.0402H5.89164Z" fill="#ADC4FC"/>
<path d="M5.28843 57.4947L5.28325 54.4963C5.28038 52.8436 4.81991 51.7007 3.90072 51.0693C3.51854 50.8066 3.10182 50.6004 2.64941 50.4472C2.64999 50.283 2.64999 50.1183 2.64999 49.9558C3.25665 50.1327 3.8115 50.3925 4.30938 50.7346C5.36901 51.4616 5.88531 52.6932 5.88819 54.4951L5.89221 57.0402H5.96301C5.96243 57.1894 5.96186 57.3443 5.96071 57.4929L5.28843 57.4947Z" fill="white"/>
<path d="M3.98768 49.0738C3.66593 49.0738 3.35225 49.0663 3.04604 49.0502C2.91308 49.0444 2.78185 49.0358 2.65234 49.0265C2.65234 48.875 2.65234 48.7212 2.65292 48.5709C3.07942 48.6037 3.52434 48.621 3.98768 48.621C3.99804 48.621 4.00898 48.621 4.01934 48.621C4.69852 48.6198 5.36043 48.564 6.0045 48.4534C6.00393 48.6078 6.00278 48.7616 6.0022 48.9159C5.3564 49.0208 4.69449 49.0738 4.01991 49.0738C4.00898 49.0738 3.99862 49.0738 3.98768 49.0738Z" fill="white"/>
<path d="M4.01479 46.5732C3.53015 46.5732 3.07717 46.5553 2.65527 46.5196C2.65873 44.1941 2.6616 41.8674 2.66448 39.543C3.03055 39.5078 3.41331 39.49 3.81276 39.49C3.82082 39.49 3.82945 39.49 3.83751 39.49C4.65771 39.49 5.39502 39.558 6.046 39.6922C6.03736 41.497 6.02873 43.2977 6.02067 45.1025C5.70007 45.5847 5.37027 46.0611 5.0301 46.53C4.71699 46.5582 4.38949 46.5715 4.04817 46.5732C4.03723 46.5732 4.02572 46.5732 4.01479 46.5732Z" fill="#A0B4F4"/>
<path d="M5.03027 46.53C5.37044 46.0611 5.70024 45.5847 6.02084 45.1025C6.01854 45.5305 6.01681 45.9609 6.01451 46.3889C5.70427 46.4522 5.3762 46.4995 5.03027 46.53Z" fill="#ADC4FC"/>
<path d="M4.01226 47.0253C3.53108 47.0253 3.0781 47.0092 2.65332 46.9752C2.6539 46.822 2.6539 46.6716 2.6539 46.5195C3.07579 46.5553 3.52877 46.5731 4.01341 46.5731C4.02434 46.5731 4.03586 46.5731 4.04679 46.5731C4.38811 46.5714 4.71561 46.5581 5.02873 46.5299C5.37465 46.4994 5.70273 46.4521 6.01296 46.3888C6.01239 46.546 6.01181 46.701 6.01066 46.8588C5.41379 46.9694 4.75936 47.0253 4.04737 47.0253C4.03586 47.0253 4.02377 47.0253 4.01226 47.0253ZM6.04462 39.6921C5.39364 39.5579 4.65633 39.4899 3.83613 39.4899C3.82807 39.4899 3.81944 39.4899 3.81138 39.4899C3.41193 39.4899 3.02917 39.5078 2.66311 39.5429C2.66368 39.3897 2.66368 39.2376 2.66368 39.0855C3.03032 39.0533 3.41251 39.0371 3.81081 39.0354C3.81944 39.0354 3.82865 39.0354 3.83728 39.0354C4.64885 39.0354 5.38558 39.0976 6.04692 39.2215C6.04635 39.3793 6.04577 39.5354 6.04462 39.6921Z" fill="white"/>
<path d="M6.05714 37.1523C5.35436 37.0417 4.61532 36.9875 3.84462 36.9875C3.83599 36.9875 3.82736 36.9875 3.81815 36.9875C3.4256 36.9887 3.04169 37.0037 2.66699 37.0313C2.66757 36.6482 2.66814 36.2634 2.66872 35.8798L6.06347 35.874C6.06117 36.3003 6.05944 36.726 6.05714 37.1523Z" fill="#A0B4F4"/>
<path d="M6.05599 37.6155C5.35954 37.4991 4.6228 37.4415 3.84577 37.4415C3.83714 37.4415 3.82851 37.4415 3.8193 37.4415C3.42503 37.4415 3.04054 37.4576 2.66699 37.487C2.66757 37.3355 2.66757 37.1834 2.66757 37.0313C3.04227 37.0037 3.42618 36.9887 3.81872 36.9875C3.82793 36.9875 3.83656 36.9875 3.8452 36.9875C4.6159 36.9875 5.35494 37.0417 6.05772 37.1523C6.05714 37.3055 6.05656 37.4605 6.05599 37.6155Z" fill="white"/>
<path d="M2.66895 35.8797C2.66895 35.7276 2.66952 35.5773 2.66952 35.4252L6.06542 35.4194C6.06485 35.5715 6.06427 35.7219 6.0637 35.8739L2.66895 35.8797Z" fill="white"/>
<path d="M2.67188 33.8787C2.6736 32.2979 2.6759 30.7184 2.67821 29.1377C2.80656 29.5093 2.87102 29.9793 2.87218 30.5531L2.87793 33.8787H2.67188Z" fill="white"/>
<path d="M5.26793 33.42L5.26563 32.0795C5.26506 31.625 5.29786 31.4113 5.32146 31.326C5.38305 31.1371 5.49586 30.9453 5.65645 30.758C5.72782 30.6739 5.85733 30.5501 6.08928 30.3865C6.08468 31.3969 6.0795 32.4084 6.07489 33.4183L5.26793 33.42Z" fill="#A0B4F4"/>
<path d="M4.66402 33.8758L4.66114 32.0808C4.66057 31.6827 4.68474 31.3953 4.73424 31.2196C4.81194 30.9811 4.95008 30.7449 5.14751 30.5133C5.33284 30.2967 5.64768 30.053 6.0926 29.7834C6.09145 29.9839 6.09088 30.1861 6.08972 30.3866C5.85777 30.5502 5.72826 30.674 5.65689 30.7581C5.4963 30.9454 5.38349 31.1372 5.32191 31.3261C5.29831 31.4114 5.2655 31.6251 5.26607 32.0796L5.26838 33.4201L6.07534 33.4184C6.07476 33.5705 6.07418 33.7208 6.07303 33.8729L4.66402 33.8758Z" fill="white"/>
<path d="M4.75239 28.1831C4.45942 27.5034 4.02429 26.9579 3.45159 26.554C3.211 26.3841 2.95487 26.2366 2.68262 26.1145C2.68492 24.5528 2.68722 22.9911 2.68895 21.4294L6.1332 21.4231C6.12399 23.3638 6.11478 25.3063 6.10557 27.247C5.61748 27.5299 5.18523 27.8266 4.81225 28.133C4.79211 28.1491 4.77254 28.167 4.75239 28.1831Z" fill="#A0B4F4"/>
<path d="M4.48625 29.3704C4.27847 28.2482 3.79556 27.4193 3.03579 26.8841C2.92126 26.8029 2.80326 26.7292 2.68066 26.66C2.68124 26.4786 2.68124 26.296 2.68124 26.1145C2.95349 26.2366 3.20962 26.3841 3.45021 26.554C4.02291 26.9579 4.45805 27.5034 4.75101 28.1831C4.77116 28.167 4.79073 28.1491 4.81087 28.133C5.18385 27.8265 5.61611 27.5299 6.1042 27.247C6.10304 27.44 6.10247 27.6376 6.10132 27.8306C5.79223 28.0287 5.51193 28.2292 5.26098 28.4354C5.00599 28.648 4.74756 28.9602 4.48625 29.3704Z" fill="white"/>
<path d="M2.625 69.2509C2.62673 67.8724 2.62845 66.495 2.63076 65.1177C2.92775 64.1925 3.19367 63.5381 3.42678 63.1516C3.84407 62.4701 4.37303 61.9672 5.01364 61.6417C5.30373 61.4954 5.6134 61.3802 5.9432 61.2996C5.94032 61.8964 5.93744 62.4926 5.93457 63.0899C5.65138 63.3048 5.40791 63.6147 5.20358 64.0186C5.04127 64.3331 4.78917 65.0261 4.44728 66.101C4.10481 67.1748 3.78191 67.9283 3.478 68.3586C3.23166 68.7128 2.94732 69.0107 2.625 69.2509Z" fill="#BCD2FF"/>
<path d="M2.6377 59.0458C2.63827 58.5314 2.63885 58.0153 2.63942 57.4991L3.44811 57.4974L3.44293 54.476C3.4412 53.4759 3.19198 52.7668 2.69525 52.3474C2.67914 52.3342 2.66302 52.3209 2.64633 52.3077C2.64748 51.6873 2.64806 51.0674 2.64863 50.447C3.10103 50.6003 3.51775 50.8065 3.89994 51.0692C4.81913 51.7005 5.27959 52.8434 5.28247 54.4961L5.28765 57.4945L5.95992 57.4928C5.95762 58.0107 5.95532 58.5239 5.95302 59.0401L2.6377 59.0458Z" fill="#BCD2FF"/>
<path d="M3.98711 48.621C3.52377 48.621 3.07885 48.6037 2.65234 48.5708C2.65292 48.0386 2.65349 47.508 2.65407 46.9752C3.07885 47.0091 3.53183 47.0253 4.01301 47.0253C4.02452 47.0253 4.03661 47.0253 4.04812 47.0253C4.76011 47.0253 5.41454 46.9694 6.01141 46.8588C6.00911 47.3899 6.00623 47.9222 6.00393 48.4533C5.35986 48.5639 4.69794 48.6198 4.01876 48.621C4.0084 48.621 3.99747 48.621 3.98711 48.621ZM6.04767 39.2214C5.38633 39.0976 4.6496 39.0354 3.83803 39.0354C3.8294 39.0354 3.82019 39.0354 3.81156 39.0354C3.41326 39.0371 3.03107 39.0532 2.66443 39.0855C2.66558 38.552 2.66616 38.0198 2.66673 37.4869C3.04028 37.4575 3.42477 37.4414 3.81904 37.4414C3.82825 37.4414 3.83688 37.4414 3.84551 37.4414C4.62254 37.4414 5.35928 37.499 6.05573 37.6154C6.05285 38.1505 6.05055 38.6863 6.04767 39.2214Z" fill="#BCD2FF"/>
<path d="M2.66895 35.4252C2.66952 34.9091 2.6701 34.3946 2.67125 33.8785H2.8773L2.87155 30.5529C2.8704 29.9792 2.80593 29.5091 2.67758 29.1375C2.67815 28.3115 2.67931 27.4871 2.68046 26.6599C2.80305 26.729 2.92105 26.8028 3.03559 26.884C3.79535 27.4192 4.27826 28.2481 4.48604 29.3703C4.74735 28.9601 5.00579 28.6479 5.26077 28.4353C5.51172 28.2291 5.79203 28.0286 6.10111 27.8305C6.09823 28.4826 6.09478 29.1329 6.0919 29.7833C5.64698 30.0529 5.33214 30.2966 5.1468 30.5132C4.94938 30.7447 4.81124 30.9809 4.73354 31.2194C4.68404 31.3951 4.65987 31.6826 4.66044 32.0806L4.66332 33.8756L6.07233 33.8727C6.07003 34.3889 6.06773 34.905 6.06485 35.4194L2.66895 35.4252Z" fill="#BCD2FF"/>
<path d="M2.69141 18.9754C2.69486 16.3946 2.69831 13.8139 2.70177 11.2332C3.6555 11.4953 4.83083 11.7268 6.17768 11.9187C6.16616 14.2678 6.15523 16.6187 6.14372 18.969L2.69141 18.9754Z" fill="#A0B4F4"/>
<path d="M2.6875 21.4293C2.68808 21.2784 2.68808 21.1252 2.68808 20.9748L6.13405 20.9702C6.1329 21.1206 6.13233 21.2726 6.13175 21.423L2.6875 21.4293ZM2.69038 19.4281C2.69038 19.2772 2.69095 19.1268 2.69095 18.9753L6.14326 18.969C6.14269 19.1211 6.14211 19.2714 6.14154 19.4218L2.69038 19.4281Z" fill="white"/>
<path d="M2.68848 20.9749C2.68905 20.4605 2.6902 19.9444 2.69078 19.4282L6.14194 19.4219C6.13906 19.938 6.13676 20.4542 6.13446 20.9703L2.68848 20.9749Z" fill="#BCD2FF"/>
<path d="M6.17806 11.9187C4.83121 11.7268 3.65588 11.4953 2.70215 11.2332C3.55573 8.63744 4.40931 6.04345 5.26347 3.44946L7.23424 3.77666C6.88199 6.49162 6.52973 9.20543 6.17806 11.9187Z" fill="#A6BDF7"/>
<path d="M15.5641 3.62223C11.0308 3.62223 7.05359 3.28408 4.79906 2.77715H26.3285C24.074 3.28408 20.0973 3.62223 15.5641 3.62223ZM2.83691 1.76099V2.77715C2.83691 3.77661 8.53512 4.5877 15.5641 4.5877C22.593 4.5877 28.2912 3.77661 28.2912 2.77715V1.76099H2.83691Z" fill="#C4C4C4"/>
<path d="M27.8331 2.29501C28.1306 2.14005 28.2912 1.97761 28.2912 1.81113C28.2912 0.811089 22.593 0 15.5641 0C8.53512 0 2.83691 0.811089 2.83691 1.81113C2.83691 1.97761 2.99692 2.14005 3.29507 2.29501C4.78064 1.52771 9.71045 0.966049 15.5641 0.966049C21.4171 0.966049 26.3475 1.52771 27.8331 2.29501Z" fill="#AAAAAA"/>
<path d="M27.8339 2.29503C26.3483 1.52772 21.4179 0.966064 15.5649 0.966064C9.71128 0.966064 4.78146 1.52772 3.2959 2.29503C4.78146 3.06003 9.71128 3.62227 15.5649 3.62227C21.4179 3.62227 26.3483 3.06003 27.8339 2.29503Z" fill="#F2F2F2"/>
<path d="M20.2494 2.78287C19.1178 2.94474 18.2072 3.04555 16.0908 2.69012C13.9071 2.3226 11.7694 1.89228 11.6198 1.22866C11.5444 0.893975 11.686 0.719429 11.6865 0.719429C11.8137 0.563317 12.0422 0.552948 12.147 0.551796C12.8158 0.538547 13.4823 0.615163 14.1471 0.691778C15.532 0.85077 16.9168 1.01149 18.3016 1.17106C19.1915 1.27417 20.083 1.37729 20.9729 1.4804C21.1231 1.49826 21.2808 1.51727 21.4046 1.60425C22.1902 2.15727 20.5913 2.7339 20.2494 2.78287Z" fill="#F2F2F2"/>
<path d="M16.8938 2.33004C16.0649 2.24594 12.1303 2.05123 11.6917 0.713623L11.6865 0.719384C11.686 0.719384 11.5444 0.893929 11.6198 1.22862C11.7694 1.89224 13.9071 2.32255 16.0908 2.69008C18.2072 3.0455 19.1178 2.94469 20.2494 2.78282C20.4399 2.75632 21.0201 2.5645 21.3608 2.30642C20.1049 2.78109 17.6783 2.40954 16.8938 2.33004Z" fill="#C4C4C4"/>
</svg>
