<svg width="34" height="100" viewBox="0 0 34 100" fill="none" xmlns="http://www.w3.org/2000/svg">
<path fill-rule="evenodd" clip-rule="evenodd" d="M33.791 45.8679C33.791 62.5111 33.7463 80.3486 33.7463 96.3788C33.7463 97.011 26.0825 99.9999 16.8029 99.9999C7.5233 99.9999 0 97.011 0 96.3788C0 80.9618 0.121342 63.6415 0.178822 47.5923C-0.287394 33.8677 7.75322 29.1225 9.66917 17.6268C10.2248 14.2675 9.29237 7.36366 7.42751 5.122C5.56903 2.88672 5.00702 1.20068 5.00702 1.20068H27.9984C27.9984 1.20068 27.4364 2.88672 25.578 5.122C23.7131 7.36366 22.7807 14.2675 23.3363 17.6268C25.0606 27.9793 33.791 34.6213 33.791 45.8679Z" fill="#E6E7E8"/>
<path fill-rule="evenodd" clip-rule="evenodd" d="M2.83114 90.1839L2.9908 48.1479C2.52458 34.4297 10.5652 29.6718 12.4811 18.1824C13.0368 14.8231 12.1043 7.91294 10.2395 5.67128C8.37463 3.436 7.81261 1.75635 7.81261 1.75635H12.2512C12.2512 1.75635 12.8132 3.436 14.6781 5.67128C16.5366 7.91294 17.469 14.8231 16.9134 18.1824C14.9974 29.6718 6.95682 34.4297 7.42942 48.1479L7.26337 93.275C4.2681 92.8662 2.81837 93.5624 2.83114 90.1839Z" fill="white"/>
<path fill-rule="evenodd" clip-rule="evenodd" d="M6.25364 0H26.4286C27.5526 0 28.4723 0.919657 28.4723 2.04368C28.4723 3.17409 27.5526 4.09375 26.4286 4.09375H6.25364C5.12962 4.09375 4.20996 3.17409 4.20996 2.04368C4.20996 0.919657 5.12962 0 6.25364 0Z" fill="#56C5D0"/>
</svg>
