<svg width="28" height="80" viewBox="0 0 28 80" fill="none" xmlns="http://www.w3.org/2000/svg">
<path d="M1.23047 46.1855V77.7488H1.23304C1.28034 78.9935 6.92706 80 13.8879 80C20.8493 80 26.496 78.9935 26.5443 77.7488H26.5458V46.1855H1.23047Z" fill="#C9C9C9"/>
<path d="M0 42.9658V76.575H0.0015424C0.0539839 78.0096 6.26933 79.1699 13.9294 79.1699C21.5895 79.1699 27.8033 78.0096 27.8557 76.575H27.8583V42.9658H0Z" fill="#F2F2F2"/>
<path d="M1.23047 43.7908H26.5458V15.6313H1.23047V43.7908Z" fill="#C9C9C9"/>
<path d="M0 43.7907H27.8583V9.64331H0V43.7907Z" fill="#F2F2F2"/>
<path d="M0 8.37817V76.0822H0.0015424C0.0539839 77.5343 6.26933 78.7075 13.9294 78.7075C21.5895 78.7075 27.8033 77.5343 27.8557 76.0822H27.8583V8.37817H0Z" fill="#4A8E4C"/>
<path d="M27.4686 64.5812C27.5976 64.6008 27.7282 64.6193 27.8583 64.6378V35.4482C27.6927 35.4745 27.5318 35.5156 27.3765 35.5723C26.1395 36.0276 25.2799 37.1355 24.4892 38.1924C22.8414 40.3922 21.1946 42.5919 19.5468 44.7917C18.0198 46.8293 16.1222 49.0661 13.5767 49.0888C11.6549 49.1058 9.99268 47.8255 8.52123 46.5885C6.18604 44.6244 3.8961 42.6079 1.65191 40.5393C1.12544 40.0536 0.576857 39.5555 0 39.1052V60.4899C9.15567 61.8545 18.3124 63.2176 27.4686 64.5812Z" fill="#3D7A3D"/>
<path d="M27.4346 51.6457C22.8948 45.74 21.0614 38.0448 16.2445 32.3645C15.497 31.4846 14.5309 30.597 13.3793 30.6572C12.2024 30.7195 11.3335 31.7403 10.6338 32.6887C6.45751 38.3386 2.88891 44.4361 0 50.8419V76.1126H0.0015424C0.0539839 77.5472 6.26933 78.7075 13.9294 78.7075C21.5895 78.7075 27.8033 77.5472 27.8557 76.1126H27.8583V52.1818C27.7148 52.0038 27.5729 51.8263 27.4346 51.6457Z" fill="#346B34"/>
<path d="M16.2008 69.4407C11.5274 64.451 6.02821 60.2409 0 57.0212V76.1125H0.0015424C0.0473002 77.3454 4.64365 78.3756 10.7983 78.6416C12.9356 76.5144 14.1875 73.5495 15.3417 70.7117L16.2008 69.4407Z" fill="#2B602B"/>
<path d="M26.4944 49.8172C18.8235 58.2911 11.6714 67.2197 4.5229 76.1417C4.09 76.6831 3.65556 77.2244 3.22266 77.7657C5.77738 78.3415 9.62464 78.7073 13.93 78.7073C21.59 78.7073 27.8039 77.547 27.8563 76.1124H27.8589V48.4814C27.3643 48.8725 26.9165 49.3505 26.4944 49.8172Z" fill="#295429"/>
<path d="M27.6927 8.16096C26.8516 6.11249 26.0105 4.06556 25.1694 2.01709H2.81025C1.93211 4.0599 1.05551 6.10323 0.178918 8.14655C0.06221 8.28188 0 8.42185 0 8.56386C0 10.0062 6.23643 11.1763 13.9294 11.1763C21.6224 11.1763 27.8583 10.0062 27.8583 8.56386C27.8583 8.42699 27.8017 8.29115 27.6927 8.16096Z" fill="#55A059"/>
<path d="M20.2711 21.1742C20.2711 24.6424 17.4624 27.4534 13.9971 27.4534C10.5329 27.4534 7.72266 24.6424 7.72266 21.1742C7.72266 17.7056 10.5329 14.8945 13.9971 14.8945C17.4624 14.8945 20.2711 17.7056 20.2711 21.1742Z" fill="#6EB76E"/>
<path d="M22.5225 78.1506C23.7322 77.9726 24.7795 77.758 25.6181 77.5156C24.4453 77.9108 23.3795 78.0816 22.5225 78.1506Z" fill="#C2C8D2"/>
<path d="M22.4912 40.8608V10.6241C24.8639 10.2778 26.6212 9.78898 27.4058 9.22656V35.5613C27.3966 35.5655 27.3873 35.5696 27.3765 35.5721C26.1395 36.0275 25.2799 37.1354 24.4891 38.1923C23.8228 39.0815 23.157 39.9706 22.4912 40.8608Z" fill="#3B7542"/>
<path d="M26.2907 50.0411C24.831 47.8398 23.649 45.4527 22.4912 43.0543V40.8608C23.157 39.9706 23.8228 39.0814 24.4891 38.1922C25.2799 37.1353 26.1395 36.0275 27.3765 35.5721C27.3873 35.5695 27.3966 35.5654 27.4058 35.5613V43.7907C27.4043 45.4856 27.4043 47.1796 27.4027 48.8751C27.0829 49.174 26.7832 49.4982 26.4937 49.8172C26.4264 49.8918 26.359 49.9659 26.2907 50.0411Z" fill="#316535"/>
<path d="M22.5 54.3182C22.4964 50.8089 22.4938 47.2996 22.4912 43.7908V43.0544C23.649 45.4528 24.831 47.8399 26.2907 50.0412C25.0141 51.4557 23.7503 52.881 22.5 54.3182Z" fill="#2A592D"/>
<path d="M22.5211 78.1518C22.5149 70.2074 22.5067 62.2626 22.5 54.3183C23.7504 52.8811 25.0141 51.4558 26.2907 50.0412C26.3591 49.9661 26.4264 49.892 26.4938 49.8174C26.7832 49.4984 27.083 49.1742 27.4028 48.8752C27.3976 58.1729 27.3925 67.4715 27.3873 76.7686C26.882 77.028 26.2922 77.2889 25.6223 77.5142C25.6208 77.5142 25.6198 77.5158 25.6182 77.5158C24.7797 77.7581 23.7324 77.9727 22.5226 78.1507C22.5226 78.1507 22.5226 78.1518 22.5211 78.1518Z" fill="#214624"/>
<path d="M22.4918 10.6242C21.6939 8.31121 20.8975 5.99671 20.1001 3.68324C19.9489 3.12752 19.7962 2.57282 19.6445 2.01709H24.592C25.5308 4.42112 26.4676 6.82362 27.4064 9.22662C26.6218 9.78904 24.8645 10.2779 22.4918 10.6252" fill="#44844D"/>
<path d="M5.23133 78.1451C4.74959 78.0715 4.24419 77.982 3.71875 77.8713C4.18764 77.966 4.69303 78.0545 5.23133 78.1358C5.23133 78.1389 5.23133 78.1415 5.23133 78.1451Z" fill="#F6F6F6"/>
<path d="M5.23138 78.1358C4.69308 78.0545 4.18769 77.966 3.7188 77.8713H3.71777C4.18615 77.966 4.69308 78.0545 5.23138 78.1358Z" fill="#6B906B"/>
<path d="M4.09883 42.758C3.52249 42.243 2.94718 41.7248 2.37598 41.2035C2.38934 30.814 2.40117 20.4245 2.41299 10.0339C3.2644 10.2686 4.31477 10.4754 5.51784 10.6463C5.47568 20.6118 5.43352 30.5783 5.38982 40.5434C4.95024 41.2761 4.51991 42.0135 4.09883 42.758Z" fill="#81B082"/>
<path d="M2.37109 45.9468C2.37366 44.3661 2.37521 42.7843 2.37624 41.2036C2.94744 41.7249 3.52275 42.243 4.09909 42.7581C3.50424 43.8104 2.9279 44.8735 2.37109 45.9468Z" fill="#78A278"/>
<path d="M5.30705 60.2028C4.341 59.557 3.35643 58.9365 2.35645 58.3468C2.36159 54.2128 2.3657 50.0793 2.37084 45.9469C2.92765 44.8735 3.50399 43.8104 4.09884 42.7581C4.51992 42.0136 4.95024 41.2762 5.38983 40.5435C5.36258 47.0969 5.33482 53.6494 5.30705 60.2028Z" fill="#719871"/>
<path d="M3.224 77.7632C2.91603 77.6922 2.61989 77.6181 2.33301 77.5419C2.34123 71.1438 2.3474 64.7442 2.35563 58.3467C3.35562 58.9364 4.34018 59.5569 5.30624 60.2027C5.28516 65.2161 5.26305 70.2295 5.24197 75.2434C5.00238 75.5423 4.7628 75.8423 4.52167 76.1418C4.08877 76.6816 3.65741 77.2229 3.224 77.7632Z" fill="#6B906B"/>
<path d="M5.23173 78.1358C4.69343 78.0545 4.1865 77.966 3.71813 77.8713C3.71555 77.8713 3.71401 77.8697 3.71144 77.8697C3.54692 77.8358 3.38497 77.8003 3.22559 77.7632C3.659 77.2229 4.09036 76.6816 4.52326 76.1418C4.76438 75.8424 5.00397 75.5424 5.24356 75.2434C5.23944 76.2077 5.23533 77.172 5.23173 78.1358Z" fill="#6A886A"/>
<path d="M5.51793 10.6464C4.31486 10.4756 3.26449 10.2687 2.41309 10.0341C3.17657 7.71699 3.93852 5.39837 4.70046 3.0813L6.46137 3.37511C6.14672 5.79922 5.83258 8.2228 5.51793 10.6464Z" fill="#88BD8B"/>
<path d="M13.9037 3.23555C9.85491 3.23555 6.30123 2.93504 4.28737 2.48069H23.5195C21.5057 2.93504 17.952 3.23555 13.9037 3.23555ZM2.53418 1.573V2.48069C2.53418 3.37397 7.62512 4.09847 13.9037 4.09847C20.1818 4.09847 25.2712 3.37397 25.2712 2.48069V1.573H2.53418Z" fill="#C4C4C4"/>
<path d="M24.8619 2.05002C25.1293 1.9116 25.2712 1.76804 25.2712 1.61778C25.2712 0.724504 20.1818 0 13.9037 0C7.62512 0 2.53418 0.724504 2.53418 1.61778C2.53418 1.76804 2.67762 1.9116 2.94497 2.05002C4.27143 1.36513 8.67447 0.862921 13.9037 0.862921C19.1324 0.862921 23.5355 1.36513 24.8619 2.05002Z" fill="#AAAAAA"/>
<path d="M24.8613 2.04989C23.5348 1.36501 19.1318 0.862793 13.9031 0.862793C8.67383 0.862793 4.2708 1.36501 2.94434 2.04989C4.2708 2.73323 8.67383 3.23544 13.9031 3.23544C19.1318 3.23544 23.5348 2.73323 24.8613 2.04989Z" fill="#F2F2F2"/>
<path d="M18.0867 2.48748C17.076 2.63208 16.2626 2.72058 14.3721 2.4031C12.422 2.07481 10.512 1.69043 10.3789 1.09765C10.312 0.798692 10.4385 0.643294 10.4385 0.643294C10.5516 0.503333 10.7557 0.494071 10.8488 0.493042C11.4467 0.481207 12.0426 0.549644 12.6364 0.618081C13.8734 0.760614 15.1094 0.904177 16.3464 1.04774C17.1428 1.1383 17.9382 1.23092 18.733 1.32303C18.8682 1.33847 19.0081 1.35596 19.1186 1.43366C19.8214 1.92764 18.3921 2.44272 18.0867 2.48748Z" fill="#F2F2F2"/>
<path d="M15.0899 2.08129C14.3485 2.00616 10.8344 1.83224 10.4421 0.637939L10.4385 0.643085C10.4385 0.643085 10.312 0.798483 10.3789 1.09744C10.512 1.69022 12.422 2.0746 14.3721 2.40289C16.2626 2.72037 17.076 2.63187 18.0867 2.48728C18.2564 2.46206 18.7752 2.29226 19.0806 2.06019C17.9587 2.4847 15.7901 2.15281 15.0899 2.08129Z" fill="#C4C4C4"/>
<path d="M14.3953 40.0665C14.9244 40.8687 15.7326 41.6133 16.6935 41.5947C17.6529 41.5762 18.5084 40.3711 17.9146 39.6147C18.6626 40.0114 19.5994 40.404 20.3063 39.9363C20.4842 39.8164 20.6261 39.6517 20.7366 39.4675C19.4611 36.9487 18.0662 34.5128 16.2431 32.3645C15.4971 31.4846 14.5311 30.597 13.3794 30.6572C12.2026 30.7195 11.3337 31.7403 10.6339 32.6887C9.30542 34.4855 8.03962 36.3272 6.83655 38.2094C6.83141 38.7281 6.82575 39.2473 6.81958 39.7665C6.81701 40.1169 6.82987 40.5095 7.08282 40.7503C7.25351 40.915 7.50235 40.9706 7.73834 40.9901C8.65555 41.0652 9.59898 40.6752 10.1938 39.9733C9.80052 41.2587 10.8889 42.77 12.2329 42.7988C13.5768 42.8292 14.7321 41.3683 14.3953 40.0665Z" fill="#63AD65"/>
</svg>
