<svg width="38" height="100" viewBox="0 0 38 100" fill="none" xmlns="http://www.w3.org/2000/svg">
<path d="M36.6805 61.4278C37.2424 61.4278 37.6964 60.9721 37.6964 60.4111V35.7212C37.6964 30.8849 36.1687 26.1729 33.3314 22.2586C30.4793 18.323 27.6279 14.389 24.7779 10.4527H25.3618V6.25439H12.3671V10.4527H12.9199C10.0678 14.389 7.21637 18.323 4.36498 22.2586C1.52771 26.1729 0 30.8849 0 35.7212V60.4111C0 60.9721 0.454641 61.4278 1.01588 61.4278C1.57642 61.4278 1.46135 62.453 1.46135 63.014V64.0936C1.46135 64.6546 1.57642 65.1103 1.01588 65.1103C0.454641 65.1103 0 65.5647 0 66.1271V93.617C0 97.142 2.85563 100 6.37768 100H31.3201C34.8407 100 37.6964 97.142 37.6964 93.617V66.1271C37.6964 65.5647 37.2424 65.1103 36.6805 65.1103C36.12 65.1103 36.2357 64.6546 36.2357 64.0936V63.014C36.2357 62.453 36.12 61.4278 36.6805 61.4278Z" fill="#D7E2F4"/>
<path d="M36.6808 60.6358C36.8051 60.6358 36.9067 60.5341 36.9067 60.4111V35.7213C36.9067 31.022 35.4482 26.5276 32.6921 22.7235L27.5344 15.6057H10.1627L5.00562 22.7235C2.24813 26.5276 0.791016 31.022 0.791016 35.7213V60.4111C0.791016 60.5341 0.891969 60.6358 1.01622 60.6358C1.33037 60.6358 1.62123 60.7566 1.83655 60.9771C2.29048 61.4441 2.27213 62.186 2.2566 62.7809C2.25448 62.8643 2.25236 62.9434 2.25236 63.0141V64.0937C2.25236 64.17 2.25519 64.2442 2.2573 64.3163C2.27001 64.6999 2.28484 65.1775 1.92479 65.5499C1.69959 65.7831 1.39391 65.9011 1.01622 65.9011C0.891969 65.9011 0.791016 66.0021 0.791016 66.1272V93.6171C0.791016 96.7005 3.29719 99.208 6.37802 99.208H31.3204C34.3999 99.208 36.9067 96.7005 36.9067 93.6171V66.1272C36.9067 66.0021 36.8051 65.9011 36.6808 65.9011C36.3031 65.9011 35.9975 65.7831 35.7737 65.5499C35.4122 65.1775 35.4285 64.6999 35.4412 64.3163C35.4426 64.2442 35.4447 64.17 35.4447 64.0937V63.0141C35.4447 62.9434 35.4426 62.8643 35.4412 62.7809C35.4249 62.186 35.4066 61.4441 35.8605 60.9771C36.0751 60.7566 36.366 60.6358 36.6808 60.6358Z" fill="#A5C8F2"/>
<path d="M0 35.7212V58.5153H37.6964V35.7212C37.6964 34.2975 37.5608 32.8851 37.3017 31.4995H0.39534C0.136251 32.8851 0 34.2975 0 35.7212Z" fill="#66A4FF"/>
<path d="M28.1701 43.1231C28.1701 48.2704 24.0007 52.4433 18.857 52.4433C13.7134 52.4433 9.54395 48.2704 9.54395 43.1231C9.54395 37.9773 13.7134 33.8022 18.857 33.8022C24.0007 33.8022 28.1701 37.9773 28.1701 43.1231Z" fill="#94C5FF"/>
<path d="M33.1868 71.5478C33.1868 72.4267 32.4752 73.1396 31.5969 73.1396C30.7201 73.1396 30.0078 72.4267 30.0078 71.5478C30.0078 70.6688 30.7201 69.958 31.5969 69.958C32.4752 69.958 33.1868 70.6688 33.1868 71.5478Z" fill="#C2E1FF"/>
<path d="M18.5187 18.7676C18.3217 19.5073 17.5628 19.9468 16.823 19.7497C16.0838 19.5526 15.644 18.793 15.841 18.0533C16.0379 17.3121 16.7976 16.8719 17.5367 17.069C18.2765 17.2669 18.7157 18.0264 18.5187 18.7676Z" fill="#C2E1FF"/>
<path d="M30.4158 25.999C30.1807 26.8871 29.27 27.4135 28.384 27.1768C27.4987 26.9415 26.9714 26.0301 27.2079 25.1434C27.443 24.2573 28.3537 23.7288 29.239 23.9662C30.1263 24.2015 30.6523 25.113 30.4158 25.999Z" fill="#C2E1FF"/>
<path d="M13.8544 27.7859C13.6863 28.419 13.0383 28.7935 12.4071 28.6253C11.7753 28.4571 11.4004 27.8099 11.5685 27.1769C11.7365 26.5452 12.3845 26.1693 13.0157 26.3375C13.6475 26.5056 14.0224 27.155 13.8544 27.7859Z" fill="#C2E1FF"/>
<path d="M37.6964 49.0737C37.4302 49.381 37.1627 49.6848 36.8916 49.9851C34.8245 47.9919 32.9156 45.7924 31.1916 43.4234C30.2372 44.5376 29.2813 45.6518 28.3254 46.7661C26.8669 43.0793 25.15 39.5218 23.198 36.1353C20.6445 39.8962 18.091 43.6565 15.5383 47.4189C15.3886 47.6372 15.1966 47.8817 14.9509 47.8598C14.7589 47.8436 14.612 47.6683 14.485 47.5037C12.6142 45.1 10.6488 42.7882 8.59794 40.5781C8.45322 40.4205 8.28943 40.2559 8.08964 40.2488C7.88138 40.2396 7.70348 40.4021 7.54676 40.5583C5.03141 43.0291 2.51535 45.4999 0 47.9722V58.5154H37.6964V49.0737Z" fill="#3D81D3"/>
<path d="M6.05729 53.8852L6.8515 50.0938L7.64006 53.8852H6.05729ZM5.98528 46.2954L3.42969 57.4229V57.8426H5.26096L5.7509 55.4368H7.94574L8.43568 57.8426H10.3919L7.76501 46.2954H5.98528Z" fill="#1D537F"/>
<path d="M15.7313 56.289H13.2132V47.8782H15.9198V54.5523L15.0127 53.9666H14.4422V55.4567L15.7313 56.289ZM17.8612 47.4422C17.8612 47.1094 17.7207 46.8233 17.4553 46.6142C17.211 46.422 16.8997 46.3245 16.5298 46.3245H12.6124C12.2432 46.3245 11.9311 46.4206 11.6847 46.612C11.4151 46.8198 11.2725 47.1073 11.2725 47.4422V56.7249C11.2725 57.0598 11.4151 57.3453 11.6847 57.5551C11.9304 57.7466 12.2432 57.8427 12.6124 57.8427H16.5298C17.0741 57.8427 17.3882 57.6477 17.5697 57.423L18.253 57.8568H18.8136V56.3632L17.8612 55.7683V47.4422Z" fill="#1D537F"/>
<path d="M24.0225 56.289H21.4217V46.3245H19.4824V56.7249C19.4824 57.0598 19.625 57.3453 19.8947 57.5551C20.1404 57.7466 20.4531 57.8427 20.8216 57.8427H24.6148C24.984 57.8427 25.296 57.7466 25.5438 57.5573C25.8185 57.3474 25.9632 57.0598 25.9632 56.7249V46.3245H24.0225V56.289Z" fill="#1D537F"/>
<path d="M29.5612 53.8852L30.3561 50.0938L31.1447 53.8852H29.5612ZM31.2689 46.2954H29.4892L26.9336 57.4229V57.8426H28.7663L29.2555 55.4368H31.4496L31.9396 57.8426H33.8965L31.2689 46.2954Z" fill="#1D537F"/>
<path d="M1.14351 65.1011H1.13574C1.55297 65.0383 1.46402 64.6221 1.4619 64.1141C1.46402 64.6186 1.55367 65.0347 1.14351 65.1011Z" fill="#D1DFE5"/>
<path d="M31.3198 100H25.562C26.6788 100 27.7272 99.7125 28.6393 99.208H31.3198C34.3993 99.208 36.9061 96.7004 36.9061 93.617V66.1271C36.9061 66.0021 36.8045 65.901 36.6802 65.901C36.3025 65.901 35.9969 65.783 35.7731 65.5499C35.4116 65.1775 35.4279 64.6999 35.4406 64.3162C35.442 64.2442 35.4441 64.17 35.4441 64.0937V63.014C35.4441 62.9434 35.442 62.8643 35.4406 62.7809C35.4243 62.186 35.406 61.4441 35.8599 60.9771C36.0745 60.7566 36.3654 60.6358 36.6802 60.6358C36.8045 60.6358 36.9061 60.534 36.9061 60.4111V58.5154H37.6961V60.4111C37.6961 60.9721 37.2422 61.4278 36.6802 61.4278C36.2828 61.4278 36.2249 61.9436 36.2249 62.4424C36.2249 62.6488 36.2355 62.8515 36.2355 63.014V64.0937C36.2355 64.2569 36.2249 64.4123 36.2249 64.5494C36.2249 64.8829 36.2842 65.1104 36.6802 65.1104C37.2422 65.1104 37.6961 65.5647 37.6961 66.1271V93.617C37.6961 97.142 34.8405 100 31.3198 100ZM2.19035 65.1012H1.1427C1.55286 65.0348 1.46321 64.6186 1.46109 64.1142V64.112C1.46109 64.1099 1.46109 64.1085 1.46109 64.1064C1.46109 64.105 1.46109 64.1028 1.46109 64.1028C1.46109 64.0993 1.46109 64.0958 1.46109 64.0937V63.014C1.46109 62.8515 1.47097 62.6488 1.47097 62.4424C1.47097 61.9436 1.41308 61.4278 1.01562 61.4278H2.11764C2.28001 61.8489 2.2673 62.352 2.256 62.7809C2.25389 62.8643 2.25177 62.9434 2.25177 63.014V64.0937C2.25177 64.17 2.25459 64.2442 2.25671 64.3162C2.26448 64.5572 2.27365 64.8355 2.19035 65.1012ZM37.6961 35.6527C37.6919 34.2524 37.5563 32.8633 37.3015 31.4996H36.5052C35.8973 28.3491 34.6089 25.3696 32.6915 22.7235L27.5338 15.6057H22.753C21.9814 14.5423 21.2097 13.4768 20.4381 12.4114C17.4688 12.3972 14.4995 12.3845 11.5303 12.3704L12.9196 10.4528H19.9595C20.6873 10.4528 21.2789 9.86282 21.2789 9.13436V7.54956H25.3615V10.4528H24.7777C27.6277 14.389 30.479 18.3231 33.3311 22.2586C36.1557 26.1545 37.6813 30.8411 37.6961 35.6527Z" fill="#B0C6DB"/>
<path d="M31.3194 99.208H28.6389C30.6071 98.1206 31.9392 96.0243 31.9392 93.6171V73.1015C32.653 72.9461 33.186 72.3095 33.186 71.5478C33.186 70.7862 32.653 70.1517 31.9392 69.9941V66.1272C31.9392 65.5647 31.4839 65.1104 30.9234 65.1104C30.8782 65.1104 30.8401 65.1069 30.804 65.1012H2.1899C2.27321 64.8356 2.26403 64.5572 2.25626 64.3163C2.25414 64.2442 2.25132 64.17 2.25132 64.0937V63.0141C2.25132 62.9434 2.25344 62.8643 2.25556 62.7809C2.26685 62.352 2.27956 61.849 2.11719 61.4279H30.9234C31.4839 61.4279 31.9392 60.9721 31.9392 60.4111V58.5154H36.9057V60.4111C36.9057 60.5341 36.804 60.6358 36.6798 60.6358C36.3649 60.6358 36.0741 60.7566 35.8595 60.9771C35.4055 61.4441 35.4239 62.186 35.4401 62.7809C35.4415 62.8643 35.4436 62.9434 35.4436 63.0141V64.0937C35.4436 64.17 35.4415 64.2442 35.4401 64.3163C35.4274 64.6999 35.4112 65.1775 35.7726 65.5499C35.9964 65.7831 36.3021 65.9011 36.6798 65.9011C36.804 65.9011 36.9057 66.0021 36.9057 66.1272V93.6171C36.9057 96.7005 34.3988 99.208 31.3194 99.208ZM36.5047 31.4996H31.5467C31.2361 29.8336 30.7412 28.2099 30.072 26.6555C30.2294 26.4711 30.3508 26.2485 30.4158 25.9991C30.6523 25.1131 30.1263 24.2016 29.2389 23.9664C29.0963 23.9282 28.9516 23.9098 28.8111 23.9098C28.7638 23.9098 28.7151 23.912 28.6678 23.9155C28.3282 23.3495 27.9632 22.7956 27.575 22.2586C25.9661 20.0415 24.3593 17.8236 22.7525 15.6057H27.5333L32.6911 22.7235C34.6085 25.3696 35.8969 28.3491 36.5047 31.4996Z" fill="#87AFD9"/>
<path d="M36.892 49.9851C35.1193 48.2759 33.4617 46.4149 31.9404 44.4231V35.7212C31.9404 34.2975 31.8069 32.8851 31.5479 31.4995H37.3022C37.557 32.8632 37.6926 34.2522 37.6968 35.6526C37.6968 35.654 37.6968 35.654 37.6968 35.6562C37.6968 35.6654 37.6968 35.6745 37.6968 35.683C37.6968 35.6851 37.6968 35.6873 37.6968 35.6908C37.6968 35.6993 37.6968 35.7106 37.6968 35.7212V49.0736C37.4307 49.381 37.1631 49.6848 36.892 49.9851Z" fill="#548FE5"/>
<path d="M31.9404 73.1016V69.9941C32.6542 70.1517 33.1872 70.7862 33.1872 71.5479C33.1872 72.3095 32.6542 72.9461 31.9404 73.1016Z" fill="#9FC5E5"/>
<path d="M30.0731 26.6553C29.6686 25.7135 29.2005 24.7978 28.6689 23.9153C28.7162 23.9118 28.765 23.9097 28.8123 23.9097C28.9527 23.9097 29.0975 23.928 29.2401 23.9662C30.1275 24.2015 30.6534 25.1129 30.4169 25.9989C30.352 26.2484 30.2305 26.4709 30.0731 26.6553Z" fill="#9FC5E5"/>
<path d="M37.6969 58.5153H31.9404V57.8391V57.8427H33.8974L31.9404 49.2383V44.4231C33.4618 46.4149 35.1194 48.2759 36.8921 49.9851C37.1632 49.6848 37.4307 49.381 37.6969 49.0736V58.5153Z" fill="#3271BD"/>
<path d="M33.8974 57.8427H31.9404V49.2383L33.8974 57.8427Z" fill="#184972"/>
<path d="M11.8061 15.6057H11.1348C11.6805 14.8737 12.2156 14.2116 12.7571 13.6436C12.4267 14.331 12.1097 14.9853 11.8061 15.6057Z" fill="#ECF1FA"/>
<path d="M2.75133 61.3388C2.39623 61.1799 2.14844 60.8252 2.14844 60.4111V58.5154H4.58048V60.4111C4.58048 60.8181 4.82051 61.1693 5.16714 61.3318H2.8304C2.80216 61.3318 2.77675 61.3353 2.75133 61.3388ZM4.89464 31.4996H2.54025C3.1615 28.181 4.5113 25.0205 6.51342 22.2586C8.30939 19.7786 9.75591 17.4597 11.134 15.6057H11.8053C10.8099 17.6484 9.97123 19.3179 9.36198 20.5226C6.88405 25.4113 5.94158 26.994 5.2575 29.7509C5.10643 30.3564 4.98783 30.9429 4.89464 31.4996Z" fill="#D5E5F9"/>
<path d="M2.14844 45.8595V35.7212C2.14844 34.2975 2.28116 32.8851 2.54025 31.4995H4.89464C4.60872 33.2143 4.56425 34.6762 4.58048 35.7212V43.4721C3.76933 44.2676 2.95888 45.0639 2.14844 45.8595Z" fill="#B7D4FF"/>
<path d="M4.58048 58.5154H2.14844V45.8596C2.95888 45.064 3.76933 44.2677 4.58048 43.4722V52.4073L3.42835 57.4231V57.8428H4.58048V58.5154Z" fill="#A4C4EA"/>
<path d="M4.58182 57.8427H3.42969V57.4231L4.58182 52.4072V57.8427Z" fill="#95AEC3"/>
<path d="M6.53512 99.6727C6.02965 99.607 5.1119 99.4191 4.22168 98.7754C4.83093 99.0319 5.49453 99.1824 6.19061 99.2057C6.30992 99.3774 6.4257 99.5328 6.53512 99.6727Z" fill="#ECF1FA"/>
<path d="M6.19032 99.2059C5.49423 99.1826 4.83063 99.0321 4.22138 98.7756C4.1522 98.7269 4.08372 98.6739 4.01595 98.6181C2.02936 97.01 2.13032 94.4183 2.14796 94.1053V66.6154C2.14796 66.053 2.60261 65.5973 3.16385 65.5973C3.19138 65.5973 3.21538 65.5952 3.24009 65.5938H5.67143C5.64743 65.5952 5.62272 65.5973 5.59589 65.5973C5.03465 65.5973 4.58001 66.053 4.58001 66.6154V94.1053C4.58566 94.8613 4.68873 96.0264 5.19702 97.3336C5.49282 98.0952 5.85357 98.7191 6.19032 99.2059Z" fill="#D5E5F9"/>
<path d="M20.7022 70.495C20.7022 71.6093 19.8 72.5122 18.6867 72.5122C17.5741 72.5122 16.6719 71.6093 16.6719 70.495C16.6719 69.3808 17.5741 68.4785 18.6867 68.4785C19.8 68.4785 20.7022 69.3808 20.7022 70.495Z" fill="#C2E1FF"/>
<path d="M13.7347 85.3849C13.7347 86.4977 12.8325 87.4021 11.7199 87.4021C10.6073 87.4021 9.70508 86.4977 9.70508 85.3849C9.70508 84.2707 10.6073 83.3684 11.7199 83.3684C12.8325 83.3684 13.7347 84.2707 13.7347 85.3849Z" fill="#C2E1FF"/>
<path d="M26.0499 78.3703C26.0499 79.4846 25.1477 80.3876 24.0351 80.3876C22.9218 80.3876 22.0195 79.4846 22.0195 78.3703C22.0195 77.2582 22.9218 76.356 24.0351 76.356C25.1477 76.356 26.0499 77.2582 26.0499 78.3703Z" fill="#C2E1FF"/>
<path d="M21.8662 94.6986C21.8662 95.5776 21.1539 96.2898 20.2756 96.2898C19.3988 96.2898 18.6865 95.5776 18.6865 94.6986C18.6865 93.8211 19.3988 93.1082 20.2756 93.1082C21.1539 93.1082 21.8662 93.8211 21.8662 94.6986Z" fill="#C2E1FF"/>
<path d="M24.168 0H13.5439C12.6262 0 11.8828 0.744708 11.8828 1.66393V7.54953H25.8291V1.66393C25.8291 0.744708 25.0858 0 24.168 0Z" fill="#405472"/>
<path d="M25.8289 7.54953H21.9285V2.25532C21.9285 1.01108 21.2055 0 20.3125 0H24.1678C24.2638 0 24.3556 0.0091852 24.448 0.0233163C25.2288 0.182291 25.8289 1.1213 25.8289 2.25532V7.54953Z" fill="#344966"/>
</svg>
