<svg width="40" height="70" viewBox="0 0 40 70" fill="none" xmlns="http://www.w3.org/2000/svg">
<path d="M1.74512 22.1287V66.8129H1.74657C1.81572 68.5758 9.80909 70 19.6643 70C29.5196 70 37.5129 68.5758 37.5806 66.8129H37.5842V22.1287H1.74512Z" fill="#C9C9C9"/>
<path d="M0 13.6509V65.1514H0.00436716C0.0786089 67.1824 8.87553 68.8258 19.7214 68.8258C30.5665 68.8258 39.3627 67.1824 39.4377 65.1514H39.4413V13.6509H0Z" fill="#F2F2F2"/>
<path d="M0 12.1218V63.6224H0.00436716C0.0786089 65.6533 8.87553 67.296 19.7214 67.296C30.5665 67.296 39.3627 65.6533 39.4377 63.6224H39.4413V12.1218H0Z" fill="#5193F4"/>
<path d="M5.80249 66.2162C5.77847 66.2104 5.75081 66.2068 5.72461 66.2017C5.75081 66.2068 5.77629 66.2126 5.80249 66.2162Z" fill="#3A7CCC"/>
<path d="M16.0064 43.9704C15.7545 42.3962 15.6184 40.7382 15.6184 39.0263C15.6184 38.37 15.6395 37.7209 15.6781 37.0835C10.2694 42.8996 4.93271 47.808 0 51.9035V58.2441C5.33304 53.7421 10.5467 49.0989 15.6337 44.3208C15.7582 44.205 15.8834 44.0877 16.0064 43.9704Z" fill="#3A7CCC"/>
<path d="M37.5656 7.55493C35.0465 11.8849 32.1307 16.4481 28.752 21.135C30.4071 21.8264 31.9101 23.1864 33.1628 25.0433C35.5887 21.6085 37.7257 17.991 39.442 14.1359V12.1217C38.8161 10.5999 38.1916 9.0767 37.5656 7.55493Z" fill="#3A7CCC"/>
<path d="M16.0064 43.9705C15.8834 44.0877 15.7582 44.205 15.6337 44.3209C10.5467 49.0989 5.33304 53.7421 0 58.2441V63.6224H0.00436716C0.00582279 63.6581 0.0094621 63.6916 0.0167408 63.7273L0.0247473 63.7608C0.0298423 63.7826 0.0356653 63.8074 0.0429438 63.8292L0.0582289 63.8686C0.067691 63.8912 0.0764254 63.9116 0.0858876 63.9341L0.106268 63.9728C0.117913 63.9953 0.131015 64.0157 0.145572 64.0383L0.168136 64.074C0.184877 64.1002 0.203073 64.1243 0.224181 64.1483L0.244561 64.1745C0.27222 64.208 0.302062 64.2416 0.335544 64.2751L0.352285 64.2904C0.380671 64.318 0.410513 64.3457 0.441811 64.3741L0.478932 64.4055C0.505135 64.428 0.533522 64.4506 0.561181 64.4732L0.607764 64.5067C0.635423 64.5286 0.667448 64.5497 0.697291 64.5716C0.714031 64.5832 0.730772 64.5941 0.747513 64.6051C0.780995 64.6276 0.81666 64.6502 0.851597 64.6721L0.89818 64.7005C0.946947 64.7304 0.994986 64.758 1.04739 64.7865L1.06268 64.7952C1.12018 64.8272 1.18132 64.8586 1.24537 64.8906L1.27448 64.9052C1.32689 64.9314 1.38294 64.9576 1.43898 64.9839C1.45572 64.9933 1.47392 65.0006 1.49284 65.0079C1.54306 65.0305 1.59329 65.0545 1.64569 65.0749C1.66607 65.0844 1.68645 65.0939 1.70902 65.1033C1.76142 65.1259 1.81528 65.1478 1.87133 65.1682C1.89171 65.1776 1.90991 65.1849 1.93101 65.1929C1.99434 65.2192 2.05912 65.2432 2.12463 65.2672L2.16393 65.2825C2.32915 65.3423 2.50311 65.4013 2.68362 65.4596L2.71346 65.469C2.79353 65.4945 2.87359 65.5193 2.9573 65.5455C2.97622 65.5506 2.99442 65.5564 3.01334 65.5623C3.08977 65.5841 3.16765 65.6067 3.24626 65.6293C3.26664 65.6344 3.28702 65.6402 3.30958 65.6475C3.38965 65.6701 3.47335 65.6927 3.55706 65.7152C3.57452 65.7203 3.59126 65.724 3.60801 65.7298C3.92099 65.8121 4.25071 65.8923 4.59717 65.9702L4.61973 65.976C4.726 65.9986 4.83591 66.0227 4.94363 66.0452L4.99385 66.0562C5.09866 66.0788 5.20275 66.0992 5.30902 66.1217L5.35924 66.1305C5.47497 66.1552 5.59215 66.1771 5.71152 66.1997L5.72462 66.2019C5.75083 66.207 5.77849 66.2106 5.80251 66.2164C6.42847 66.3337 7.09591 66.4423 7.7983 66.5428C7.97881 66.435 8.16005 66.3264 8.33837 66.2186C13.2594 63.2159 17.9607 59.8576 22.4065 56.1891C19.3043 54.1064 16.9082 49.5782 16.0064 43.9705Z" fill="#ABD1FF"/>
<path d="M36.8839 39.0263C36.8839 40.1532 36.8242 41.2554 36.7129 42.3255C37.6402 41.2722 38.55 40.2035 39.4423 39.1195V14.136C37.726 17.991 35.589 21.6086 33.1631 25.0433C35.4398 28.4191 36.8839 33.4302 36.8839 39.0263Z" fill="#ABD1FF"/>
<path d="M28.7508 21.1352C27.9495 20.8008 27.111 20.6223 26.2506 20.6223C20.7575 20.6223 16.2367 27.832 15.6777 37.0835C19.2595 33.2285 22.8719 28.9771 26.418 24.2938C27.2194 23.2368 27.996 22.1827 28.7508 21.1352Z" fill="#ABD1FF"/>
<path d="M22.4062 56.1889C23.597 56.991 24.8941 57.431 26.2508 57.431C31.4718 57.431 35.8134 50.9148 36.7116 42.3254C32.3197 47.3176 27.5326 51.9594 22.4062 56.1889Z" fill="#ABD1FF"/>
<path d="M16.0061 43.9703C22.2031 38.1316 28.272 31.9622 33.1618 25.0432C31.9091 23.1864 30.4061 21.8263 28.751 21.135C27.9962 22.1825 27.2195 23.2366 26.4182 24.2937C22.872 28.977 19.2597 33.2283 15.6778 37.0834C15.6393 37.7208 15.6182 38.3699 15.6182 39.0262C15.6182 40.7381 15.7543 42.3961 16.0061 43.9703Z" fill="#5193F4"/>
<path d="M33.1615 25.0432C28.2718 31.9622 22.2029 38.1316 16.0059 43.9703C16.9077 49.578 19.3038 54.1062 22.4059 56.1889C27.5323 51.9594 32.3194 47.3176 36.7113 42.3254C36.8227 41.2553 36.8824 40.1531 36.8824 39.0262C36.8824 33.4301 35.4383 28.4189 33.1615 25.0432Z" fill="#3A7CCC"/>
<path d="M39.2062 11.5514C38.0162 8.6536 36.8254 5.75356 35.6346 2.85571H3.98067C2.73748 5.74773 1.49648 8.6383 0.255479 11.531C0.0895269 11.7248 0 11.9208 0 12.1218C0 14.1659 8.8304 15.8217 19.7214 15.8217C30.6131 15.8217 39.4413 14.1659 39.4413 12.1218C39.4413 11.9281 39.3591 11.7379 39.2062 11.5514Z" fill="#63A9FC"/>
<path d="M31.8398 66.5128V54.684C34.3517 51.9908 36.1662 47.5399 36.7107 42.3255C37.4167 41.522 38.1133 40.7127 38.7989 39.8917C38.7989 48.1044 38.7989 56.3179 38.7989 64.5307C37.6926 65.3269 35.2047 66.0204 31.8398 66.5128ZM31.8398 16.6965V15.0407C32.2627 14.9788 32.6725 14.9139 33.0677 14.8462C32.6652 15.4603 32.2569 16.0773 31.8398 16.6965Z" fill="#4281DB"/>
<path d="M33.1609 25.0434C32.7468 24.4285 32.3057 23.8691 31.8398 23.3708V16.6966C32.2569 16.0774 32.6652 15.4604 33.0677 14.8463C35.8045 14.3728 37.8287 13.7572 38.7989 13.0615C38.7989 13.8825 38.7989 14.7028 38.7989 15.5237C37.2042 18.8638 35.2943 22.0246 33.1609 25.0434Z" fill="#306CB7"/>
<path d="M36.7129 42.3255C36.8242 41.2554 36.8839 40.1532 36.8839 39.0263C36.8839 33.4302 35.4398 28.419 33.1631 25.0433C35.2964 22.0245 37.2064 18.8637 38.8011 15.5237C38.8011 23.6468 38.8011 31.7685 38.8011 39.8917C38.1154 40.7127 37.4189 41.522 36.7129 42.3255Z" fill="#8CB7E5"/>
<path d="M31.8398 54.6839V47.5529C33.5132 45.8578 35.1378 44.1138 36.7107 42.3254C36.1662 47.5398 34.3517 51.9908 31.8398 54.6839Z" fill="#8CB7E5"/>
<path d="M31.8398 26.8566V23.3708C32.3057 23.8691 32.7468 24.4286 33.1609 25.0434C32.73 25.6539 32.2889 26.2578 31.8398 26.8566Z" fill="#4281DB"/>
<path d="M31.8398 47.5529V26.8564C32.2889 26.2576 32.73 25.6537 33.1609 25.0432C35.4377 28.4189 36.8817 33.4301 36.8817 39.0262C36.8817 40.1531 36.822 41.2553 36.7107 42.3254C35.1378 44.1138 33.5132 45.8577 31.8398 47.5529Z" fill="#306CB7"/>
<path d="M31.8412 15.0408C30.7138 11.7642 29.5848 8.48896 28.4574 5.21231C28.2427 4.42775 28.0265 3.64027 27.8125 2.85571H34.8167C36.1436 6.25693 37.4719 9.66034 38.8003 13.0616C37.83 13.7572 35.8059 14.3728 33.0691 14.8463C32.6739 14.9141 32.2641 14.9789 31.8412 15.0408Z" fill="#5194E2"/>
<path d="M3.34277 49.0536C3.36679 37.4374 3.393 25.8191 3.41702 14.2051C4.62308 14.5365 6.1101 14.8294 7.81329 15.072C7.73687 25.1183 7.66044 35.1646 7.58402 45.2123C6.14868 46.5571 4.73444 47.8363 3.34277 49.0536Z" fill="#ADCCFA"/>
<path d="M3.33105 55.4022C3.33469 53.2853 3.34052 51.1705 3.34416 49.0536C4.73583 47.8363 6.15006 46.5572 7.5854 45.2124C7.56866 47.3811 7.55192 49.5519 7.53518 51.7205C6.14132 52.9575 4.74165 54.1842 3.33105 55.4022Z" fill="#A2C1E7"/>
<path d="M7.41905 66.4868C5.83013 66.2486 4.43992 65.9652 3.30664 65.6461C3.31465 62.231 3.32193 58.8167 3.3292 55.4024C4.7398 54.1844 6.13947 52.9576 7.53333 51.7207C7.49548 56.6444 7.45836 61.5638 7.41905 66.4868Z" fill="#D7E9FF"/>
<path d="M7.81229 15.072C6.1091 14.8294 4.62208 14.5366 3.41602 14.2051C4.49543 10.9226 5.57631 7.64235 6.655 4.3606C7.48621 4.50046 8.3167 4.63814 9.14792 4.77582C8.70247 8.20764 8.25702 11.6387 7.81229 15.0705" fill="#B6D7FE"/>
<path d="M19.686 4.58073C13.9526 4.58073 8.92386 4.15312 6.07283 3.51207H33.2999C30.4489 4.15312 25.4179 4.58073 19.686 4.58073ZM3.59082 2.22705V3.51207C3.59082 4.77596 10.7966 5.80165 19.686 5.80165C28.5739 5.80165 35.7797 4.77596 35.7797 3.51207V2.22705H3.59082Z" fill="#C4C4C4"/>
<path d="M35.2004 2.90003C35.5788 2.70626 35.7797 2.50083 35.7797 2.29031C35.7797 1.02568 28.5739 0 19.686 0C10.7966 0 3.59082 1.02568 3.59082 2.29031C3.59082 2.50083 3.79389 2.70626 4.1702 2.90003C6.05026 1.9319 12.2829 1.22164 19.686 1.22164C27.0876 1.22164 33.3217 1.9319 35.2004 2.90003Z" fill="#AAAAAA"/>
<path d="M35.1981 2.90007C33.3195 1.93194 27.0854 1.22168 19.6838 1.22168C12.2807 1.22168 6.04803 1.93194 4.16797 2.90007C6.04803 3.86966 12.2807 4.58065 19.6838 4.58065C27.0854 4.58065 33.3195 3.86966 35.1981 2.90007Z" fill="#F2F2F2"/>
<path d="M25.6086 3.51929C24.1769 3.72472 23.0254 3.84929 20.3498 3.39982C17.5883 2.93725 14.885 2.39308 14.6965 1.55388C14.5997 1.12846 14.7802 0.908461 14.7802 0.908461C14.9411 0.711046 15.2293 0.699391 15.3618 0.695749C16.2075 0.678994 17.0519 0.77588 17.8925 0.872766C19.6438 1.07601 21.3936 1.27925 23.1448 1.48104C24.2722 1.61143 25.3975 1.74183 26.5228 1.87223C26.7135 1.89335 26.9129 1.91885 27.0694 2.02957C28.0622 2.7289 26.0402 3.45737 25.6086 3.51929Z" fill="#F2F2F2"/>
<path d="M21.3652 2.94667C20.3163 2.83886 15.3414 2.59409 14.786 0.902588L14.7802 0.908416C14.7802 0.908416 14.5997 1.12841 14.6965 1.55384C14.885 2.39303 17.5883 2.9372 20.3498 3.39978C23.0254 3.84924 24.1769 3.72468 25.6086 3.51925C25.8488 3.48574 26.5825 3.24316 27.0134 2.91535C25.4259 3.51561 22.3565 3.0472 21.3652 2.94667Z" fill="#C4C4C4"/>
</svg>
