<svg width="32" height="80" viewBox="0 0 32 80" fill="none" xmlns="http://www.w3.org/2000/svg">
<path d="M1.37793 42.1426V77.4779H1.38081C1.43376 78.872 7.7559 79.9999 15.5486 79.9999C23.3419 79.9999 29.6635 78.872 29.717 77.4779H29.7199V42.1426H1.37793Z" fill="#C9C9C9"/>
<path d="M0 38.5388V76.1657H0.00287788C0.0615868 77.7718 7.01801 79.0697 15.5941 79.0697C24.1702 79.0697 31.1266 77.7718 31.1853 76.1657H31.1882V38.5388H0Z" fill="#F2F2F2"/>
<path d="M1.37793 49.0238H29.7199V17.499H1.37793V49.0238Z" fill="#C9C9C9"/>
<path d="M0 49.0236H31.1882V10.7959H0V49.0236Z" fill="#F2F2F2"/>
<path d="M31.1882 38.5389V9.5874H0V74.9567H0.00287788C0.0615868 76.5627 7.01801 77.86 15.5941 77.86C24.1702 77.86 31.1266 76.5627 31.1853 74.9567H31.1882V38.5389Z" fill="#FFE108"/>
<path d="M29.1097 18.6919C29.1097 21.3833 26.9306 23.5642 24.2421 23.5642C21.5541 23.5642 19.375 21.3833 19.375 18.6919C19.375 16.0023 21.5541 13.8208 24.2421 13.8208C26.9306 13.8208 29.1097 16.0023 29.1097 18.6919Z" fill="#FFBE06"/>
<path d="M31.1879 52.1234C30.8104 52.0722 30.4265 52.0439 30.0351 52.0439C25.2681 52.0439 21.4043 55.9122 21.4043 60.6831C21.4043 65.4534 25.2681 69.3205 30.0351 69.3205C30.4265 69.3205 30.8104 69.2923 31.1879 69.2404V52.1234Z" fill="#FFBE06"/>
<path d="M11.3636 24.2163C6.73252 24.2163 2.616 26.418 0 29.8317V47.2465C2.616 50.6608 6.73252 52.8625 11.3636 52.8625C19.268 52.8625 25.6753 46.4504 25.6753 38.5388C25.6753 30.6284 19.268 24.2163 11.3636 24.2163Z" fill="#FFD008"/>
<path d="M4.96377 55.3459C3.18927 55.3459 1.50801 55.7411 0 56.4474V74.9567H0.00287788C0.0483485 76.1981 4.21552 77.2557 10.0651 77.6716C13.9917 75.7724 16.6998 71.7475 16.6998 67.0906C16.6998 60.603 11.4453 55.3459 4.96377 55.3459Z" fill="#FFBE06"/>
<path d="M3.4132 52.8255L1.77051 51.8048L18.9981 24.0566L20.6408 25.0791C28.2965 29.8408 30.6466 39.9115 25.8889 47.5742C21.1318 55.2352 11.0689 57.5872 3.4132 52.8255Z" fill="#FF9C0D"/>
<path d="M18.3499 25.104L2.54395 50.5606C10.1997 55.3223 19.9442 53.4835 24.3088 46.4533C28.6734 39.4236 26.0056 29.8645 18.3499 25.104Z" fill="#FFD69F"/>
<path d="M11.0251 40.0545C11.9138 43.8639 12.8024 47.6717 13.6906 51.4794C13.7792 51.8585 14.1493 52.1045 14.5303 52.0307C17.8416 51.3936 20.8415 49.6522 22.9078 46.9251C23.168 46.5818 23.0817 46.0893 22.715 45.8606L12.1181 39.2699C11.5673 38.9277 10.8777 39.4237 11.0251 40.0545Z" fill="#FFA910"/>
<path d="M10.3511 40.3407C10.2038 39.7094 9.36631 39.5711 9.02442 40.1224L3.01367 49.8025C5.92609 51.6148 9.15795 52.4155 12.25 52.2933C12.707 52.2755 13.035 51.8452 12.9309 51.3982L10.3511 40.3407Z" fill="#FFA910"/>
<path d="M24.1405 44.9607C25.7049 41.8978 25.961 38.4236 25.0827 35.1556C24.9814 34.7795 24.5958 34.5542 24.2159 34.6424C20.3831 35.5376 16.5498 36.4345 12.717 37.3291C12.0856 37.4766 11.9475 38.3159 12.4983 38.6581L23.1044 45.2545C23.4682 45.4803 23.9448 45.3426 24.1405 44.9607Z" fill="#FFA910"/>
<path d="M23.819 33.995C24.2634 33.8907 24.5039 33.408 24.3203 32.9909C23.0656 30.1302 20.9037 27.5535 17.9637 25.7251L11.8913 35.5054C11.5489 36.0567 12.0433 36.7468 12.6747 36.5993C16.3895 35.7306 20.1042 34.8625 23.819 33.995Z" fill="#FFA910"/>
<path d="M31.0029 9.13561C30.0612 6.8429 29.1202 4.55077 28.1785 2.25806H3.1461C2.16417 4.54501 1.18281 6.83253 0.200876 9.11833C0.0702205 9.27156 0 9.42767 0 9.58724C0 11.2019 6.98175 12.5113 15.5941 12.5113C24.2065 12.5113 31.1882 11.2019 31.1882 9.58724C31.1882 9.43228 31.1243 9.28193 31.0029 9.13561Z" fill="#FFE650"/>
<path d="M25.1797 77.2423C25.1797 74.1028 25.1797 70.9627 25.1797 67.8249C26.5628 68.7685 28.2348 69.3204 30.0358 69.3204C30.2534 69.3204 30.4687 69.3111 30.6822 69.295V75.6731C29.8073 76.3045 27.84 76.8529 25.1797 77.2423ZM25.1797 53.541C25.1797 51.9021 25.1797 50.2655 25.1797 48.6272C25.4278 48.2879 25.6655 47.9371 25.8905 47.5742C29.5167 41.7341 29.0136 34.4937 25.1797 29.2728C25.1797 27.3396 25.1797 25.4063 25.1797 23.4731C27.4193 23.0364 29.1103 21.0617 29.1103 18.6918C29.1103 16.3236 27.4193 14.3489 25.1797 13.9111C25.1797 13.2383 25.1797 12.566 25.1797 11.8938C27.8365 11.5055 29.8044 10.9588 30.6822 10.3286V52.0692C30.4687 52.0525 30.2534 52.0438 30.0358 52.0438C28.2348 52.0438 26.5628 52.5957 25.1797 53.541Z" fill="#F2CA05"/>
<path d="M25.1797 23.4731C25.1797 20.2864 25.1797 17.0979 25.1797 13.9111C27.4193 14.3489 29.1103 16.3237 29.1103 18.6918C29.1103 21.0617 27.4193 23.0365 25.1797 23.4731Z" fill="#F2AB04"/>
<path d="M30.0358 69.3205C28.2348 69.3205 26.5628 68.7686 25.1797 67.825C25.1797 63.0628 25.1797 58.3011 25.1797 53.5411C26.5628 52.5958 28.2348 52.0439 30.0358 52.0439C30.2534 52.0439 30.4687 52.0526 30.6822 52.0693V69.2951C30.4687 69.3113 30.2534 69.3205 30.0358 69.3205Z" fill="#F2AB04"/>
<path d="M25.1797 48.6273C25.1797 47.3571 25.1797 46.0892 25.1797 44.8196C26.8604 41.081 26.7712 36.8354 25.1797 33.0363C25.1797 31.7817 25.1797 30.5265 25.1797 29.2729C29.0136 34.4938 29.5167 41.7342 25.8905 47.5743C25.6655 47.9372 25.4278 48.288 25.1797 48.6273Z" fill="#F28C08"/>
<path d="M25.1797 44.8196C25.1797 43.9435 25.1797 43.0707 25.1797 42.1957C25.7276 40.0165 25.7104 37.7336 25.1797 35.5319C25.1797 34.7 25.1797 33.8671 25.1797 33.0364C26.7712 36.8355 26.8604 41.081 25.1797 44.8196Z" fill="#F2C065"/>
<path d="M25.1797 42.1956C25.1797 39.9737 25.1797 37.7524 25.1797 35.5317C25.7104 37.7334 25.7276 40.0163 25.1797 42.1956Z" fill="#F2980A"/>
<path d="M25.1792 11.8938C24.287 9.30382 23.3943 6.71271 22.5021 4.1216C22.3324 3.50119 22.162 2.8802 21.9922 2.25806H27.531C28.5814 4.9494 29.6312 7.63901 30.6817 10.3286C29.8039 10.9588 27.836 11.5055 25.1792 11.8938Z" fill="#F2CF33"/>
<path d="M2.64355 55.5758C2.64471 54.5008 2.64643 53.4242 2.64758 52.3493L3.41483 52.8257C4.24423 53.3418 5.10184 53.7739 5.97787 54.1247C5.97557 54.5463 5.97384 54.9669 5.97154 55.3874C5.63943 55.3592 5.30387 55.3459 4.96428 55.3459C4.16941 55.3459 3.39353 55.4243 2.64355 55.5758ZM2.65046 50.3895C2.65046 50.2288 2.65046 50.0652 2.65104 49.9027C2.71953 49.9546 2.78745 50.0059 2.85652 50.0577L2.65046 50.3895ZM2.68097 27.1537C2.68845 21.8464 2.69536 16.5392 2.70226 11.2332C3.65599 11.4953 4.8319 11.7268 6.17817 11.9187C6.15688 16.3485 6.13615 20.779 6.11486 25.21C4.87622 25.6997 3.72276 26.3558 2.68097 27.1537Z" fill="#FFF18B"/>
<path d="M2.85587 50.0576C2.7868 50.0058 2.71888 49.9545 2.65039 49.9027C2.66018 42.3183 2.67054 34.7368 2.68032 27.1536C3.72211 26.3557 4.87557 25.6996 6.11421 25.21C6.08313 31.7931 6.05147 38.3781 6.02039 44.9607L2.85587 50.0576Z" fill="#FFE98B"/>
<path d="M5.86627 77.2217C4.60863 77.0328 3.50986 76.8087 2.61426 76.5564C2.62347 69.5636 2.63268 62.5691 2.64189 55.5758C3.39186 55.4243 4.16774 55.3459 4.96261 55.3459C5.3022 55.3459 5.63776 55.3592 5.96987 55.3874C5.93534 62.6665 5.9008 69.9427 5.86627 77.2217Z" fill="#FFE08A"/>
<path d="M5.97677 54.1248C5.10074 53.774 4.24313 53.3419 3.41373 52.8258L2.64648 52.3494C2.64764 51.7745 2.64821 51.2019 2.64879 50.627C3.72799 51.286 4.84634 51.8171 5.9854 52.2209C5.98253 52.8551 5.97965 53.4923 5.97677 54.1248Z" fill="#FFD08D"/>
<path d="M5.98701 52.2207C4.84794 51.8169 3.7296 51.2858 2.65039 50.6268C2.65039 50.5473 2.65097 50.469 2.65097 50.3895L2.85702 50.0576L6.02154 44.9607L3.01531 49.8025C3.97767 50.401 4.97572 50.8906 5.99161 51.2714C5.98989 51.5882 5.98874 51.9039 5.98701 52.2207Z" fill="#FFECD2"/>
<path d="M5.98998 51.2714C4.97409 50.8906 3.97604 50.401 3.01367 49.8025L6.01991 44.9607C6.01012 47.0639 5.99976 49.1682 5.98998 51.2714Z" fill="#FFD78F"/>
<path d="M6.17708 11.9187C4.83081 11.7268 3.6549 11.4953 2.70117 11.2332C3.55533 8.63744 4.40891 6.04345 5.26249 3.44946L7.23326 3.77666C6.88101 6.49162 6.52876 9.20543 6.17708 11.9187Z" fill="#FFF3AD"/>
<path d="M15.5654 3.62223C11.0328 3.62223 7.05497 3.28408 4.80043 2.77715H26.3305C24.0765 3.28408 20.0987 3.62223 15.5654 3.62223ZM2.83887 1.76099V2.77715C2.83887 3.77661 8.5365 4.5877 15.5654 4.5877C22.595 4.5877 28.2926 3.77661 28.2926 2.77715V1.76099H2.83887Z" fill="#C4C4C4"/>
<path d="M27.8344 2.29501C28.1326 2.14005 28.2926 1.97761 28.2926 1.81112C28.2926 0.811089 22.595 0 15.5654 0C8.5365 0 2.83887 0.811089 2.83887 1.81112C2.83887 1.97761 2.99888 2.14005 3.29703 2.29501C4.78259 1.5277 9.7124 0.966048 15.5654 0.966048C21.4191 0.966048 26.3489 1.5277 27.8344 2.29501Z" fill="#AAAAAA"/>
<path d="M27.8343 2.29503C26.3487 1.52772 21.4189 0.966064 15.5653 0.966064C9.71225 0.966064 4.78244 1.52772 3.29688 2.29503C4.78244 3.06003 9.71225 3.62227 15.5653 3.62227C21.4189 3.62227 26.3487 3.06003 27.8343 2.29503Z" fill="#F2F2F2"/>
<path d="M20.2478 2.78287C19.1157 2.94474 18.2057 3.04555 16.0893 2.69012C13.9061 2.3226 11.7679 1.89228 11.6188 1.22866C11.5434 0.893974 11.685 0.719429 11.685 0.719429C11.8122 0.563317 12.0407 0.552948 12.1454 0.551796C12.8143 0.538547 13.4814 0.615163 14.1456 0.691778C15.5304 0.85077 16.9153 1.01149 18.3001 1.17106C19.1911 1.27417 20.0815 1.37729 20.9719 1.4804C21.1221 1.49826 21.2798 1.51727 21.4036 1.60425C22.1893 2.15727 20.5903 2.7339 20.2478 2.78287Z" fill="#F2F2F2"/>
<path d="M16.8922 2.33028C16.0634 2.24618 12.1293 2.05147 11.6902 0.713867L11.685 0.719628C11.685 0.719628 11.5434 0.894173 11.6188 1.22886C11.7679 1.89248 13.9061 2.3228 16.0893 2.69032C18.2057 3.04575 19.1157 2.94494 20.2478 2.78307C20.4384 2.75657 21.018 2.56474 21.3593 2.30667C20.1039 2.78134 17.6767 2.40978 16.8922 2.33028Z" fill="#C4C4C4"/>
</svg>
