<svg width="37" height="80" viewBox="0 0 37 80" fill="none" xmlns="http://www.w3.org/2000/svg">
<path d="M1.62891 35.2517V77.0208H1.63163C1.6949 78.668 9.16746 79.9999 18.3797 79.9999C27.592 79.9999 35.0646 78.668 35.1279 77.0208H35.1306V35.2517H1.62891Z" fill="#C9C9C9"/>
<path d="M0 30.9912V75.4677H0.00340188C0.0728 77.3676 8.29581 78.9017 18.4334 78.9017C28.571 78.9017 36.794 77.3676 36.8634 75.4677H36.8668V30.9912H0Z" fill="#F2F2F2"/>
<path d="M1.62891 57.9497H35.1306V20.6851H1.62891V57.9497Z" fill="#C9C9C9"/>
<path d="M0 57.9496H36.8668V12.7615H0V57.9496Z" fill="#F2F2F2"/>
<path d="M36.8668 11.7619C36.8668 11.5801 36.7913 11.4024 36.6477 11.228C35.5346 8.51924 34.4222 5.8084 33.3091 3.09961H3.71893C2.55821 5.80296 1.39749 8.50494 0.237451 11.209C0.0830057 11.3887 0 11.5733 0 11.7619V74.4686H0.00340188C0.0728 76.3671 8.29581 77.9026 18.4334 77.9026C28.571 77.9026 36.794 76.3671 36.8634 74.4686H36.8668V11.7619Z" fill="#FFD62C"/>
<path d="M22.3281 26.1953C23.0806 25.5906 23.8318 24.9805 24.5475 24.3289C23.7426 24.8723 23.0051 25.5035 22.3281 26.1953Z" fill="#FFBC00"/>
<path d="M36.8634 74.4688H36.8668V55.6488C35.0448 58.3229 32.9859 60.8506 29.9433 61.6384C26.3244 62.5747 22.4279 60.5196 20.2439 57.4826C18.0599 54.4463 17.2877 50.6248 16.9271 46.8994C16.5243 42.7477 16.5733 38.4938 17.7074 34.4776C18.5634 31.4481 20.1024 28.4737 22.3279 26.1953C21.0005 27.2658 19.6683 28.3294 18.5164 29.6102C15.9827 32.4294 14.145 35.8654 13.1421 39.5187C11.5698 45.2433 11.9923 51.4284 13.8871 57.0536C8.32575 54.6363 4.04823 49.7914 1.45396 44.3057C0.900136 43.1345 0.420472 41.9312 0 40.7096V74.4688H0.00340188C0.0728 76.3672 8.29581 77.9028 18.4334 77.9028C28.571 77.9028 36.794 76.3672 36.8634 74.4688Z" fill="#FFBC00"/>
<path d="M36.8668 51.42C35.1672 56.5427 31.9892 59.989 28.3485 59.989C22.9198 59.989 18.5177 52.3229 18.5177 42.8639C18.5177 33.4049 22.9198 25.7368 28.3485 25.7368C31.9892 25.7368 35.1672 29.1851 36.8668 34.3086V28.6724C34.6569 24.4383 31.47 21.7778 27.926 21.7778C21.2556 21.7778 15.8486 31.1987 15.8486 42.8183C15.8486 54.4386 21.2556 63.8595 27.926 63.8595C31.47 63.8595 34.6569 61.2011 36.8668 56.9649V51.42Z" fill="#FF9D00"/>
<path d="M35.6714 41.8406C35.6714 47.9371 32.9955 52.8774 29.6936 52.8774C26.3924 52.8774 23.7158 47.9371 23.7158 41.8406C23.7158 35.7469 26.3924 30.8066 29.6936 30.8066C32.9955 30.8066 35.6714 35.7469 35.6714 41.8406Z" fill="#FFE36C"/>
<path d="M0.0353795 11.5489C0.0115663 11.4774 0 11.4046 0 11.3331C0 11.1445 0.0830057 10.9599 0.237451 10.7788C1.39749 8.07681 2.55821 5.37278 3.71893 2.66943H33.3091C34.4222 5.37959 35.5346 8.08906 36.6477 10.7979C36.7913 10.9722 36.8668 11.1499 36.8668 11.3331C36.8668 11.4046 36.8546 11.4761 36.8314 11.5476C36.796 11.4393 36.7341 11.3331 36.6477 11.2282C35.5346 8.51942 34.4222 5.80858 33.3091 3.09979H32.7111C32.6553 2.95679 32.5995 2.81175 32.5437 2.66943H25.9958C26.0352 2.81175 26.0747 2.95679 26.1135 3.09979H3.71893C2.55821 5.80314 1.39749 8.50512 0.237451 11.2091C0.141518 11.3208 0.0734805 11.4339 0.0353795 11.5489Z" fill="white"/>
<path d="M18.4332 14.7894C14.2516 14.7894 10.3945 14.5279 7.30156 14.0887C7.71795 10.8794 8.13434 7.67215 8.55005 4.46422L6.22113 4.0754C5.21145 7.14373 4.20245 10.21 3.19346 13.2784C1.38094 12.7799 0.246073 12.1868 0.0351562 11.5488C0.0732573 11.4337 0.141295 11.3206 0.237228 11.209C1.39727 8.50494 2.55799 5.80296 3.71871 3.09961H26.1133C26.2752 3.69067 26.4371 4.28173 26.599 4.87211C27.6536 7.93499 28.7082 10.9979 29.7628 14.0594C26.6371 14.5177 22.7046 14.7894 18.4332 14.7894ZM36.2679 12.2093C35.082 9.17294 33.8967 6.13594 32.7109 3.09961H33.3089C34.422 5.8084 35.5344 8.51924 36.6475 11.228C36.7339 11.3329 36.7958 11.4391 36.8312 11.5474C36.7564 11.7735 36.5652 11.9968 36.2679 12.2093Z" fill="#FFE061"/>
<path d="M29.7627 59.8147V52.8772C33.0326 52.8071 35.6718 47.8934 35.6718 41.8405C35.6718 35.7883 33.0326 30.8739 29.7627 30.8065V25.9132C32.425 26.5805 34.7424 29.1068 36.2678 32.7131V53.0127C34.7424 56.6197 32.425 59.1453 29.7627 59.8147ZM36.2678 27.604C34.5178 24.6909 32.2672 22.6862 29.7627 22.0203V14.0594C32.9033 13.6004 35.2295 12.9542 36.2678 12.2092V27.604Z" fill="#F2C01C"/>
<path d="M29.7627 76.7417V63.6185C32.2672 62.9526 34.5178 60.9465 36.2678 58.0334V74.8868C35.2329 75.6331 32.9074 76.28 29.7627 76.7417Z" fill="#F2A900"/>
<path d="M29.7627 63.6184V59.8147C32.425 59.1453 34.7424 56.6197 36.2678 53.0127V58.0333C34.5178 60.9464 32.2672 62.9525 29.7627 63.6184ZM36.2678 32.7131C34.7424 29.1068 32.425 26.5805 29.7627 25.9132V22.0203C32.2672 22.6862 34.5178 24.6909 36.2678 27.604V32.7131Z" fill="#F28D00"/>
<path d="M29.7627 52.8774V30.8066C33.0326 30.8741 35.6718 35.7884 35.6718 41.8406C35.6718 47.8936 33.0326 52.8072 29.7627 52.8774Z" fill="#F2CC45"/>
<path d="M32.7114 3.09979H26.1138C26.075 2.95679 26.0356 2.81175 25.9961 2.66943H32.544C32.5998 2.81175 32.6556 2.95679 32.7114 3.09979Z" fill="#F2E5A2"/>
<path d="M29.7628 14.0594C28.7082 10.9979 27.6537 7.93499 26.5991 4.87211C26.4371 4.28173 26.2752 3.69067 26.1133 3.09961H32.7109C33.8968 6.13594 35.082 9.17294 36.2679 12.2093C35.2296 12.9542 32.9034 13.6004 29.7628 14.0594Z" fill="#F2C93E"/>
<path d="M7.07775 52.3611C5.58092 50.8739 4.26167 49.1933 3.1377 47.3909C3.15607 36.0198 3.17444 24.6494 3.19349 13.2783C4.32087 13.5881 5.71019 13.8619 7.30159 14.0886C7.22743 26.8475 7.15259 39.6043 7.07775 52.3611Z" fill="#FFEC9C"/>
<path d="M6.93562 76.7171C5.44832 76.4924 4.15016 76.2275 3.09082 75.9313C3.10647 66.4164 3.12212 56.9037 3.13777 47.3909C4.26175 49.1933 5.58099 50.8739 7.07782 52.3611C7.03087 60.4793 6.98325 68.5989 6.93562 76.7171Z" fill="#FFDF87"/>
<path d="M7.30244 14.0887C5.71104 13.862 4.32172 13.5882 3.19434 13.2784C4.20333 10.2101 5.21233 7.14377 6.22201 4.07544L8.55093 4.46426C8.13522 7.67218 7.71883 10.8794 7.30244 14.0887Z" fill="#FFF0B5"/>
<path d="M18.3989 4.28167C13.041 4.28167 8.33892 3.88196 5.67389 3.28273H31.124C28.459 3.88196 23.7576 4.28167 18.3989 4.28167ZM3.35449 2.08154V3.28273C3.35449 4.46416 10.0902 5.42293 18.3989 5.42293C26.7077 5.42293 33.4434 4.46416 33.4434 3.28273V2.08154H3.35449Z" fill="#C4C4C4"/>
<path d="M32.9018 2.71288C33.2543 2.52971 33.4434 2.33768 33.4434 2.14089C33.4434 0.958769 26.7077 0 18.3989 0C10.0902 0 3.35449 0.958769 3.35449 2.14089C3.35449 2.33768 3.54364 2.52971 3.89675 2.71288C5.65212 1.80586 11.4795 1.14194 18.3989 1.14194C25.3184 1.14194 31.1458 1.80586 32.9018 2.71288Z" fill="#AAAAAA"/>
<path d="M32.9006 2.71278C31.1445 1.80577 25.3171 1.14185 18.3977 1.14185C11.4783 1.14185 5.65088 1.80577 3.89551 2.71278C5.65088 3.61708 11.4783 4.28168 18.3977 4.28168C25.3171 4.28168 31.1445 3.61708 32.9006 2.71278Z" fill="#F2F2F2"/>
<path d="M23.936 3.28963C22.5983 3.48166 21.5227 3.5981 19.0209 3.18C16.4396 2.74556 13.9127 2.2369 13.7364 1.45245C13.6466 1.05682 13.814 0.849132 13.814 0.849132C13.9651 0.664597 14.2352 0.653701 14.359 0.65234C15.1496 0.634635 15.9375 0.727243 16.7233 0.817809C18.3603 1.00575 19.9973 1.19573 21.6342 1.38435C22.6868 1.50624 23.7393 1.62813 24.7925 1.75002C24.9701 1.77113 25.1559 1.7936 25.3021 1.89642C26.2309 2.55013 24.3408 3.23175 23.936 3.28963Z" fill="#F2F2F2"/>
<path d="M19.97 2.75448C18.9903 2.65506 14.3399 2.4249 13.8201 0.84375L13.814 0.849198C13.814 0.85056 13.6466 1.05689 13.7364 1.45251C13.9127 2.23696 16.4396 2.74563 19.0209 3.18007C21.5227 3.59817 22.5983 3.48173 23.936 3.2897C24.1612 3.25838 24.847 3.03162 25.2504 2.72452C23.7665 3.28766 20.8967 2.84845 19.97 2.75448Z" fill="#C4C4C4"/>
</svg>
