<svg width="42" height="100" viewBox="0 0 42 100" fill="none" xmlns="http://www.w3.org/2000/svg">
<path d="M25.8766 0H15.4821C14.5841 0 13.8574 0.727283 13.8574 1.62671V6.36441H27.5033V1.62671C27.5033 0.727283 26.7746 0 25.8766 0Z" fill="#38507A"/>
<path d="M35.9393 51.2894C33.0921 46.1638 32.5139 40.3926 34.6359 35.0548C35.29 33.4074 35.6492 31.6161 35.6492 29.7419C35.6492 25.652 33.9396 21.9568 31.1807 19.2966C28.8515 17.0525 27.5025 14.2775 27.5025 11.3766V7.67041H13.8566V11.3766C13.8566 14.2775 12.5054 17.0525 10.1762 19.2966C7.41941 21.9568 5.70772 25.652 5.70772 29.7419C5.70772 31.6161 6.06691 33.4074 6.72106 35.0548C8.84306 40.3926 8.2649 46.1638 5.4176 51.2894C2.05293 57.3455 0 65.414 0 74.2721C0 80.463 1.00229 86.266 2.75474 91.2692C3.65272 93.8354 4.74964 96.1915 6.0082 98.28C9.75555 99.3419 14.9438 100 20.6785 100C26.4131 100 31.6035 99.3419 35.3488 98.28C36.608 96.1915 37.7042 93.8354 38.6043 91.2692C40.3547 86.266 41.3576 80.463 41.3576 74.2721C41.3576 65.414 39.3047 57.3455 35.9393 51.2894Z" fill="#D7E2F4"/>
<path d="M34.6359 35.0549C35.29 33.4074 35.6492 31.6162 35.6492 29.742C35.6492 26.5791 34.6255 23.6499 32.8855 21.2559H8.47143C6.73142 23.6499 5.70772 26.5791 5.70772 29.742C5.70772 31.6162 6.06691 33.4074 6.72106 35.0549C8.84306 40.3927 8.2649 46.1639 5.4176 51.2894C2.05293 57.3455 0 65.4141 0 74.2721C0 80.463 1.00229 86.2661 2.75474 91.2692C3.65272 93.8355 4.74964 96.1915 6.0082 98.28C9.75555 99.3419 14.9438 100 20.6785 100C26.4131 100 31.6035 99.3419 35.3488 98.28C36.608 96.1915 37.7042 93.8355 38.6043 91.2692C40.3547 86.2661 41.3576 80.463 41.3576 74.2721C41.3576 65.4141 39.3047 57.3455 35.9393 51.2894C33.0921 46.1639 32.5139 40.3927 34.6359 35.0549Z" fill="#3F69A8"/>
<path d="M27.5027 54.0235C27.5027 57.6709 24.5476 60.6285 20.9032 60.6285C17.2588 60.6285 14.3037 57.6709 14.3037 54.0235C14.3037 50.376 17.2588 47.4185 20.9032 47.4185C24.5476 47.4185 27.5027 50.376 27.5027 54.0235Z" fill="#FFD836"/>
<path d="M34.8942 49.1351C34.8397 49.5886 34.7809 50.0414 34.7174 50.4949C34.2332 53.9336 33.4298 57.4691 31.2816 60.1985C29.1333 62.9258 25.31 64.6016 22.0876 63.3116C19.5063 62.278 17.9113 59.6765 16.889 57.091C15.8653 54.5033 15.2035 51.7283 13.6355 49.4331C12.2492 47.4026 9.86331 45.8029 7.48849 46.0013C7.05884 47.8077 6.36394 49.5851 5.4176 51.2893C2.05293 57.3454 0 65.4139 0 74.272C0 80.0626 0.876569 85.5137 2.42386 90.2888C7.92159 91.903 13.9146 90.9753 19.5629 89.7703C23.3503 88.9635 27.1612 88.0219 30.5687 86.1829C32.9187 84.9137 35.0303 83.2399 36.9948 81.4293C38.5262 80.0204 39.9782 78.5181 41.2941 76.9073C41.3348 76.0362 41.3576 75.1603 41.3576 74.272C41.3576 65.4139 39.3047 57.3454 35.9393 51.2893C35.547 50.5814 35.2002 49.8631 34.8942 49.1351Z" fill="#5184CE"/>
<path d="M0.104492 77.7003C0.401517 82.6047 1.32989 87.202 2.75492 91.2691C3.65291 93.8354 4.74983 96.1914 6.00838 98.2799C9.75574 99.3418 14.944 100 20.6787 100C26.4133 100 31.6037 99.3418 35.3489 98.2799C36.6082 96.1914 37.7044 93.8354 38.6045 91.2691C40.3548 86.266 41.3578 80.4629 41.3578 74.272C41.3578 66.556 39.7995 59.4395 37.1739 53.7297C36.4894 57.2203 35.1776 60.5878 33.2801 63.5985C30.8611 67.4368 26.9687 70.9218 22.4366 70.7414C20.3284 70.6584 18.3342 69.7859 16.2488 69.4707C12.746 68.9411 9.12784 70.0334 6.1569 71.9623C3.81385 73.4846 1.83691 75.4971 0.104492 77.7003Z" fill="#38507A"/>
<path d="M16.5608 71.4935C16.5608 70.9252 16.4765 70.4862 16.3045 70.1751C16.1332 69.8634 15.8452 69.7078 15.4383 69.7078H14.2979V87.5525H15.4383C15.8452 87.5525 16.1332 87.3969 16.3045 87.0858C16.4765 86.7761 16.5608 86.3295 16.5608 85.7509V71.4935ZM11.6309 90.1561V67.1042H15.4383C16.7542 67.1042 17.7157 67.481 18.3208 68.2373C18.9252 68.993 19.2278 70.0777 19.2278 71.4935V85.7509C19.2278 87.1667 18.9252 88.2535 18.3208 89.0147C17.7157 89.7758 16.7542 90.1561 15.4383 90.1561H11.6309Z" fill="#0B1926"/>
<path d="M26.4083 71.4935C26.4083 70.9252 26.3179 70.4862 26.1355 70.1751C25.9538 69.8634 25.6603 69.7078 25.2513 69.7078H24.2718V78.5341H25.2513C25.6603 78.5341 25.9538 78.3764 26.1355 78.0598C26.3179 77.7446 26.4083 77.2966 26.4083 76.7179V71.4935ZM27.1633 90.1561L24.401 81.139H24.2718V90.1561H21.6387V67.1042H25.2513C26.59 67.1042 27.5626 67.4796 28.1677 68.2297C28.7721 68.9805 29.0747 70.0673 29.0747 71.4935V76.7179C29.0747 77.7459 28.9137 78.6066 28.5939 79.2987C28.272 79.9886 27.7733 80.4891 27.0998 80.8009L29.8932 90.1561H27.1633Z" fill="#0B1926"/>
<path d="M31.6777 90.1561V67.1042H34.3109V90.1561H31.6777Z" fill="#0B1926"/>
<path d="M39.5808 67.1042H36.9463V90.1561H38.9743C39.1899 89.4855 39.3916 88.8004 39.5808 88.1049V77.9388H39.6444L40.6985 82.8272C41.077 80.4131 41.3015 77.8946 41.3471 75.3042L39.5808 67.1042Z" fill="#0B1926"/>
<path d="M35.6432 29.2973C35.5527 26.3045 34.5449 23.5385 32.8864 21.2557H28.1257C27.6732 20.6397 27.1724 19.9975 26.626 19.2965C25.0753 17.311 24.6367 17.1215 24.006 15.8066C23.1902 14.1198 22.9871 12.5076 22.9464 11.3766C19.9174 11.3766 16.8864 11.3766 13.8574 11.3766C13.8574 10.6334 13.8574 9.8895 13.8574 9.14494C14.0377 9.26661 14.2498 9.33782 14.4763 9.33782H26.7891C27.0564 9.33782 27.3037 9.23827 27.5033 9.07373V11.3766C27.5033 14.2774 28.8524 17.0524 31.1816 19.2965C33.8396 21.8592 35.5244 25.3844 35.6432 29.2973Z" fill="#B0C6DB"/>
<path d="M33.5329 55.8854C32.8961 54.2518 32.1763 52.7157 31.384 51.2894C28.5374 46.1639 27.9592 40.3927 30.0812 35.0549C30.7354 33.4074 31.0946 31.6162 31.0946 29.742C31.0946 28.5349 30.944 27.3617 30.6628 26.2397C30.1904 24.3544 29.3311 22.8978 28.125 21.2559H32.8857C34.5442 23.5386 35.552 26.3047 35.6425 29.2974V29.3016C35.6439 29.3244 35.6439 29.3472 35.6439 29.3687C35.6439 29.3721 35.6439 29.3735 35.6439 29.3756C35.6439 29.3811 35.6439 29.3846 35.646 29.3901C35.646 29.3915 35.646 29.3949 35.646 29.397C35.646 29.4039 35.646 29.4108 35.646 29.4177C35.646 29.4219 35.646 29.4253 35.646 29.4288C35.646 29.4323 35.646 29.4357 35.646 29.4392C35.646 29.4426 35.646 29.4461 35.646 29.4502C35.646 29.4537 35.646 29.4571 35.646 29.4606C35.646 29.4641 35.646 29.4675 35.648 29.471C35.648 29.4744 35.648 29.4786 35.648 29.482C35.648 29.4869 35.648 29.4924 35.648 29.4979C35.648 29.5014 35.648 29.5062 35.648 29.5104C35.648 29.5152 35.648 29.5187 35.648 29.5228C35.648 29.5263 35.648 29.5297 35.648 29.5332C35.648 29.5366 35.648 29.5401 35.648 29.5436C35.648 29.547 35.648 29.5505 35.648 29.5546C35.648 29.5595 35.648 29.5629 35.648 29.5684C35.648 29.5719 35.648 29.574 35.648 29.5774C35.648 29.583 35.6494 29.5899 35.6494 29.5968C35.6494 29.5989 35.6494 29.6023 35.6494 29.6037C35.6494 29.6092 35.6494 29.6127 35.6494 29.6182C35.6494 29.6217 35.6494 29.6231 35.6494 29.6272C35.6494 29.6307 35.6494 29.6355 35.6494 29.639C35.6494 29.6431 35.6494 29.6466 35.6494 29.648C35.6494 29.6556 35.6494 29.6625 35.6494 29.6694C35.6494 29.6715 35.6494 29.6728 35.6494 29.6749C35.6494 29.6798 35.6494 29.6853 35.6494 29.6908C35.6494 29.6943 35.6494 29.6957 35.6494 29.6998C35.6494 29.7033 35.6494 29.7081 35.6494 29.7136C35.6494 29.7157 35.6494 29.7192 35.6494 29.7205C35.6494 29.7275 35.6494 29.7351 35.6494 29.742C35.6494 31.6162 35.2902 33.4074 34.6361 35.0549C33.7733 37.2229 33.3575 39.4635 33.3575 41.702C33.3575 44.2171 33.8845 46.7287 34.8944 49.1394C34.8398 49.5901 34.7811 50.0437 34.7176 50.4951C34.4613 52.3092 34.118 54.1509 33.5329 55.8854Z" fill="#345C97"/>
<path d="M41.3581 74.1747C41.3581 74.1677 41.3581 74.1622 41.3581 74.1553C41.3581 74.1622 41.3581 74.1698 41.3581 74.1747ZM41.3581 74.0281C41.3581 74.0226 41.3581 74.0136 41.3581 74.0087C41.3581 74.0156 41.3581 74.0212 41.3581 74.0281ZM41.356 73.8636C41.356 73.8566 41.356 73.8477 41.356 73.84C41.356 73.849 41.356 73.8566 41.356 73.8636ZM41.356 73.7661C41.356 73.7592 41.356 73.7516 41.356 73.7433C41.356 73.7502 41.356 73.7592 41.356 73.7661ZM41.356 73.7163C41.356 73.7094 41.356 73.7004 41.356 73.6935C41.356 73.7025 41.356 73.7094 41.356 73.7163ZM41.3546 73.5518C41.3546 73.5414 41.3526 73.5345 41.3526 73.5255C41.3526 73.5345 41.3546 73.5428 41.3546 73.5518ZM41.3512 73.3589C41.3512 73.3499 41.3512 73.3416 41.3512 73.3305C41.3512 73.3395 41.3512 73.3499 41.3512 73.3589ZM41.3512 73.3133C41.3512 73.3022 41.3491 73.2932 41.3491 73.2828C41.3491 73.2932 41.3512 73.3043 41.3512 73.3133ZM41.347 73.1446C41.347 73.1321 41.347 73.1218 41.3457 73.1093C41.347 73.1218 41.347 73.1342 41.347 73.1446ZM41.3436 72.9641C41.1778 65.7521 39.6512 59.1153 37.1742 53.7299C36.7231 56.0292 35.9999 58.2768 35.0169 60.4019C34.5908 58.8305 34.0934 57.3206 33.5332 55.8854C34.1183 54.1509 34.4616 52.3092 34.7178 50.4951C34.7814 50.0437 34.8401 49.5902 34.8947 49.1394C35.1938 49.8522 35.5364 50.5587 35.9205 51.2521C35.9205 51.2542 35.9218 51.2556 35.9218 51.2556C35.9274 51.2666 35.9343 51.277 35.9398 51.2895C39.1387 57.0469 41.1509 64.6211 41.3436 72.9641Z" fill="#4273B9"/>
<path d="M20.6788 100C19.91 100 19.1495 99.9875 18.4014 99.9647C23.2256 99.814 27.5504 99.198 30.7935 98.2799C32.0528 96.1914 33.149 93.8354 34.0477 91.2691C35.8001 86.266 36.8024 80.4629 36.8024 74.272C36.8024 69.3324 36.1642 64.639 35.0168 60.4018C35.9998 58.2766 36.723 56.0291 37.174 53.7297C39.6511 59.1152 41.1777 65.752 41.3434 72.964C41.3434 72.9661 41.3434 72.9675 41.3434 72.9695C41.3434 72.982 41.3434 72.9944 41.3434 73.0069C41.3434 73.0103 41.3434 73.0117 41.3434 73.0159C41.3455 73.0276 41.3455 73.0401 41.3455 73.0525C41.3455 73.056 41.3455 73.0601 41.3455 73.0615C41.3455 73.0739 41.3455 73.0864 41.3455 73.0988C41.3455 73.1023 41.3455 73.1057 41.3455 73.1092C41.3469 73.1216 41.3469 73.132 41.3469 73.1444C41.3469 73.1486 41.3469 73.1521 41.3469 73.1555C41.3469 73.1942 41.349 73.2316 41.349 73.2703C41.349 73.2737 41.349 73.2793 41.349 73.2827C41.349 73.2931 41.351 73.3021 41.351 73.3131C41.351 73.32 41.351 73.3256 41.351 73.3304C41.351 73.3415 41.351 73.3498 41.351 73.3588C41.351 73.3657 41.351 73.3733 41.351 73.3802C41.351 73.3892 41.351 73.3975 41.351 73.4085C41.3524 73.4141 41.3524 73.421 41.3524 73.4258C41.3524 73.4369 41.3524 73.4459 41.3524 73.4562C41.3524 73.4618 41.3524 73.4687 41.3524 73.4756C41.3524 73.4846 41.3524 73.4936 41.3524 73.5039C41.3524 73.5109 41.3524 73.5185 41.3524 73.5254C41.3524 73.5344 41.3545 73.5413 41.3545 73.5516C41.3545 73.5662 41.3545 73.5821 41.3545 73.5959C41.3545 73.6049 41.3545 73.6118 41.3545 73.6187C41.3545 73.6277 41.3545 73.6367 41.3545 73.6457C41.3545 73.6526 41.3545 73.6616 41.3545 73.6685C41.3545 73.6775 41.3545 73.6865 41.3559 73.6934C41.3559 73.7003 41.3559 73.7093 41.3559 73.7162C41.3559 73.7252 41.3559 73.7342 41.3559 73.7431C41.3559 73.7514 41.3559 73.759 41.3559 73.766C41.3559 73.7749 41.3559 73.7839 41.3559 73.7908C41.3559 73.7998 41.3559 73.8067 41.3559 73.8137C41.3559 73.8226 41.3559 73.8316 41.3559 73.8399C41.3559 73.8475 41.3559 73.8565 41.3559 73.8634C41.3559 73.8759 41.3559 73.8897 41.3559 73.9021C41.358 73.9042 41.358 73.9077 41.358 73.9111C41.358 73.927 41.358 73.9429 41.358 73.9588C41.358 73.9644 41.358 73.9692 41.358 73.9727C41.358 73.9851 41.358 73.9962 41.358 74.0086C41.358 74.0135 41.358 74.0224 41.358 74.028C41.358 74.037 41.358 74.0473 41.358 74.0563C41.358 74.0632 41.358 74.0701 41.358 74.0777C41.358 74.086 41.358 74.0971 41.358 74.1054C41.358 74.113 41.358 74.1199 41.358 74.1268C41.358 74.1358 41.358 74.1462 41.358 74.1552C41.358 74.1621 41.358 74.1676 41.358 74.1745C41.358 74.1856 41.358 74.198 41.358 74.2084C41.358 74.2139 41.358 74.2188 41.358 74.2243C41.358 74.2402 41.358 74.2561 41.358 74.272C41.358 80.4629 40.355 86.266 38.6046 91.2691C37.7045 93.8354 36.6083 96.1914 35.3491 98.2799C31.6038 99.3418 26.4134 100 20.6788 100ZM36.9461 67.1043V90.1561H38.9742C39.1897 89.4855 39.3914 88.8004 39.5806 88.1049V77.9388H39.6442L40.6983 82.8273C41.0768 80.4131 41.3013 77.8946 41.3469 75.3042L39.5806 67.1043H36.9461Z" fill="#2E466E"/>
<path d="M38.9743 90.1561H36.9463V67.1042H39.5808L41.3471 75.3042C41.3015 77.8946 41.077 80.4131 40.6985 82.8272L39.6444 77.9388H39.5808V88.1049C39.3916 88.8004 39.1899 89.4855 38.9743 90.1561Z" fill="#091622"/>
<path d="M26.789 6.3645H14.4762C13.8235 6.3645 13.293 6.94315 13.293 7.6566V8.04582C13.293 8.75928 13.8235 9.33793 14.4762 9.33793H26.789C27.4417 9.33793 27.9702 8.75928 27.9702 8.04582V7.6566C27.9702 6.94315 27.4417 6.3645 26.789 6.3645Z" fill="#D7E2F4"/>
<path d="M26.788 9.33793H23.1719C23.8239 9.33793 24.3531 8.75928 24.3531 8.04582V7.6566C24.3531 6.94315 23.8239 6.3645 23.1719 6.3645H26.788C27.4407 6.3645 27.9692 6.94315 27.9692 7.6566V8.04582C27.9692 8.75928 27.4407 9.33793 26.788 9.33793Z" fill="#B0C6DB"/>
<path d="M27.5015 6.36441V1.62671C27.5015 0.73627 26.7852 0.0124441 25.8996 0H25.921C26.7928 0 27.5015 0.707925 27.5015 1.58246V6.36441Z" fill="#D1DFE5"/>
<path d="M27.5038 6.36441H24.6586V1.58246C24.6586 0.707925 23.9499 0 23.0781 0H25.9019C26.7875 0.0124441 27.5038 0.73627 27.5038 1.62671V6.36441Z" fill="#2E466E"/>
<path d="M13.5204 21.2557H11.0254C12.1962 20.0645 13.0908 19.5474 13.9659 17.5868C14.7479 15.8329 14.8874 14.1813 14.8874 13.0828C15.087 13.9144 15.3226 15.2487 15.1865 16.8574C14.9986 19.0538 14.2561 20.153 13.5204 21.2557Z" fill="#ECF1FA"/>
<path d="M10.3893 35.4337C10.0336 35.4337 9.66958 35.3273 9.37739 35.1295C8.72669 34.6871 8.37165 33.9259 8.12228 33.1807C6.95491 29.6715 7.61458 25.6078 9.83052 22.6482C10.2616 22.073 10.658 21.6306 11.0255 21.2559H13.5205C12.8609 22.2431 12.2088 23.2345 11.9663 25.0146C11.6942 27.0078 11.9221 31.8319 11.8109 33.7455C11.7874 34.1561 11.7384 34.5861 11.498 34.9208C11.2452 35.2726 10.8238 35.4337 10.3893 35.4337Z" fill="#A5B8D6"/>
<path d="M10.287 46.5405C9.95471 46.3884 9.61141 46.2633 9.26465 46.1693C9.35307 45.704 9.43665 45.2152 9.50918 44.7036C9.69844 43.3784 9.77097 42.2702 9.80275 41.5166C10.0003 42.8101 10.2055 44.5177 10.287 46.5405Z" fill="#A5B8D6"/>
<path d="M2.15476 75.3285C1.95098 71.6886 2.23419 68.0404 3.11629 64.478C4.23048 59.9809 6.23574 55.781 7.79547 51.4346C8.07661 50.6486 8.76806 48.773 9.26471 46.1694C9.61147 46.2635 9.95478 46.3886 10.287 46.5407C10.3457 47.9904 10.3381 49.5991 10.2214 51.3371C9.79728 57.629 8.31906 59.5032 7.046 66.9592C6.75243 68.6813 6.53484 70.3129 6.37528 71.8248C6.30275 71.8704 6.23022 71.9168 6.15769 71.9624C4.69052 72.9164 3.36565 74.0633 2.15476 75.3285Z" fill="#ADC5E8"/>
<path d="M8.08761 96.0283C4.81826 89.6058 2.5512 82.4788 2.15332 75.3284C3.36422 74.0632 4.68909 72.9163 6.15625 71.9623C6.22878 71.9167 6.30131 71.8703 6.37384 71.8247C5.88271 76.467 5.93728 79.9817 5.99945 81.5386C6.19355 86.4201 6.90779 91.2871 8.08761 96.0283Z" fill="#A1ADC0"/>
</svg>
