<svg width="31" height="100" viewBox="0 0 31 100" fill="none" xmlns="http://www.w3.org/2000/svg">
<path d="M19.8824 0H10.7181C9.92701 0 9.28516 0.64117 9.28516 1.4341V4.6686H21.3153V1.4341C21.3153 0.64117 20.6741 0 19.8824 0Z" fill="#F4B12A"/>
<path d="M29.1848 36.8473C28.7098 35.9501 28.4467 35.529 27.2574 33.7438C27.2574 33.7438 25.763 31.2815 24.3685 28.2817C22.9161 25.1575 21.2926 17.873 20.7293 8.20246H21.2469C21.8753 8.20246 22.3844 7.69233 22.3844 7.06335V5.64693C22.3844 5.01795 21.8753 4.50781 21.2469 4.50781H9.39819C8.76973 4.50781 8.26002 5.01795 8.26002 5.64693V7.06335C8.26002 7.69233 8.76973 8.20246 9.39819 8.20246H9.81289C9.2496 17.873 7.62609 25.1575 6.1737 28.2817C4.77916 31.2815 3.28475 33.7438 3.28475 33.7438C2.09544 35.529 1.83236 35.9501 1.35737 36.8473C0.205197 39.0237 -0.178453 41.5232 0.0742686 45.1496C0.364747 49.3154 1.88656 60.5724 4.59403 75.9337C2.56069 78.8415 1.35858 82.4118 1.35858 86.2735C1.35858 88.6029 1.79887 90.8244 2.59114 92.8607C3.43517 95.031 4.68233 96.9875 6.23825 98.6306C7.04757 98.8836 8.22836 99.2139 9.67831 99.4857C11.8432 99.8898 15.9312 100.406 20.8632 99.4857C22.3132 99.2139 23.4946 98.8836 24.3033 98.6306C25.8598 96.9875 27.107 95.031 27.951 92.8607C28.7433 90.8244 29.1836 88.6029 29.1836 86.2735C29.1836 82.4118 27.9815 78.8415 25.9481 75.9337C28.6556 60.5724 30.1774 49.3154 30.4673 45.1496C30.7206 41.5232 30.337 39.0237 29.1848 36.8473Z" fill="#D1EEF2"/>
<path d="M29.1848 36.8472C28.7098 35.9501 28.4467 35.5289 27.2574 33.7437C27.2574 33.7437 25.763 31.2815 24.3685 28.2816C23.3101 26.0064 22.1616 21.5195 21.3979 15.5125H9.14425C8.3806 21.5195 7.23148 26.0064 6.1737 28.2816C4.77916 31.2815 3.28475 33.7437 3.28475 33.7437C2.09544 35.5289 1.83236 35.9501 1.35737 36.8472C0.205197 39.0236 -0.178453 41.5231 0.0742686 45.1495C0.364747 49.3153 1.88656 60.5723 4.59403 75.9336C2.56069 78.8414 1.35858 82.4117 1.35858 86.2734C1.35858 88.6028 1.79887 90.8243 2.59114 92.8606C3.43517 95.031 4.68233 96.9874 6.23825 98.6305C7.04757 98.8835 8.22836 99.2138 9.67831 99.4856C11.8432 99.8897 15.9312 100.406 20.8632 99.4856C22.3132 99.2138 23.4946 98.8835 24.3033 98.6305C25.8598 96.9874 27.107 95.031 27.951 92.8606C28.7433 90.8243 29.1836 88.6028 29.1836 86.2734C29.1836 82.4117 27.9815 78.8414 25.9481 75.9336C28.6556 60.5723 30.1774 49.3153 30.4673 45.1495C30.7206 41.5231 30.337 39.0236 29.1848 36.8472Z" fill="#FFC239"/>
<path d="M0.0737771 45.1494C0.358166 49.2231 1.81908 60.0761 4.41511 74.9175H26.1261C28.7221 60.0761 30.183 49.2231 30.4668 45.1494C30.6324 42.7779 30.5234 40.8897 30.1075 39.2576H0.433678C0.0171431 40.8897 -0.0912533 42.7779 0.0737771 45.1494Z" fill="#F79508"/>
<path d="M30.5384 43.4282C30.5469 42.6731 30.5208 41.9679 30.4568 41.3079H0.0851198C0.0211781 41.9679 -0.00500748 42.6731 0.00351801 43.4282H30.5384Z" fill="#F4B10B"/>
<path d="M4.71985 55.5782C6.46638 54.6841 8.15017 54.901 8.87728 55.004C12.3776 55.5014 13.2204 57.8625 19.1993 61.4602C21.2339 62.6853 22.1991 63.0504 23.3567 63.0394C25.7682 63.0144 27.6067 61.3652 28.5135 60.3991C29.4635 54.1642 30.0791 49.3853 30.3538 46.5037C29.8282 48.1639 29.0506 49.7382 27.9855 51.1265C27.0008 52.4125 23.5218 55.7403 19.5093 55.5002C15.2526 55.2442 14.165 51.1966 9.02039 51.1296C7.55704 51.1107 6.64785 51.4246 6.29647 51.5605C3.10243 52.7898 1.86501 56.2163 1.55078 57.1866C1.62264 57.6815 1.69693 58.1867 1.77427 58.703C2.02882 58.1465 2.85397 56.5314 4.71985 55.5782Z" fill="#FFC239"/>
<path d="M7.02453 62.8663C11.0937 61.7223 14.3017 64.3876 17.6863 66.1581C19.6229 67.1711 21.7049 67.7293 23.8771 67.1863C25.4263 66.7993 26.6297 65.8241 27.8208 64.827C27.984 63.8086 28.1399 62.8194 28.2885 61.8613C27.0218 63.2216 25.4294 64.2559 23.544 64.5076C20.7933 64.8758 18.4128 63.5337 16.3953 61.8064C14.3011 60.014 12.3506 57.8637 9.54139 57.2646C7.85881 56.9044 5.97771 57.0836 4.41266 57.8095C3.45902 58.2507 2.6363 58.8889 1.91406 59.633C2.18871 61.4554 2.4938 63.4106 2.82812 65.4828C3.96933 64.2626 5.39919 63.3234 7.02453 62.8663Z" fill="#FFC239"/>
<path d="M24.8386 36.1401C24.8386 36.841 24.271 37.4091 23.5713 37.4091C22.8716 37.4091 22.3047 36.841 22.3047 36.1401C22.3047 35.4399 22.8716 34.8718 23.5713 34.8718C24.271 34.8718 24.8386 35.4399 24.8386 36.1401Z" fill="#FFD255"/>
<path d="M19.4109 20.9636C19.4109 21.6645 18.8433 22.232 18.1436 22.232C17.4439 22.232 16.877 21.6645 16.877 20.9636C16.877 20.2633 17.4439 19.6965 18.1436 19.6965C18.8433 19.6965 19.4109 20.2633 19.4109 20.9636Z" fill="#FFD255"/>
<path d="M3.64746 70.4429C3.78143 71.237 3.91906 72.0452 4.06034 72.8662H26.4832C26.6251 72.0452 26.7621 71.237 26.8967 70.4429H3.64746Z" fill="#F4B10B"/>
<path d="M12.6066 24.7472C12.6066 25.5262 11.977 26.1564 11.1993 26.1564C10.4223 26.1564 9.79199 25.5262 9.79199 24.7472C9.79199 23.9702 10.4223 23.3381 11.1993 23.3381C11.977 23.3381 12.6066 23.9702 12.6066 24.7472Z" fill="#FFD255"/>
<path d="M17.2331 30.2034C17.2331 30.7623 16.7806 31.2145 16.2228 31.2145C15.6644 31.2145 15.2119 30.7623 15.2119 30.2034C15.2119 29.6451 15.6644 29.1929 16.2228 29.1929C16.7806 29.1929 17.2331 29.6451 17.2331 30.2034Z" fill="#FFC757"/>
<path d="M11.9291 34.4238C11.9291 35.1247 11.3615 35.6928 10.6618 35.6928C9.96209 35.6928 9.39453 35.1247 9.39453 34.4238C9.39453 33.7236 9.96209 33.1555 10.6618 33.1555C11.3615 33.1555 11.9291 33.7236 11.9291 34.4238Z" fill="#FFD255"/>
<path d="M9.04466 80.5015C9.04466 81.2024 8.47771 81.7686 7.77801 81.7686C7.0783 81.7686 6.51074 81.2024 6.51074 80.5015C6.51074 79.8012 7.0783 79.2332 7.77801 79.2332C8.47771 79.2332 9.04466 79.8012 9.04466 80.5015Z" fill="#FFD255"/>
<path d="M17.5967 80.1287C17.1022 80.1287 16.7021 79.7276 16.7021 79.2333C16.7021 78.7384 17.1022 78.3374 17.5967 78.3374C18.0906 78.3374 18.4913 78.7384 18.4913 79.2333C18.4913 79.7276 18.0906 80.1287 17.5967 80.1287Z" fill="#FFD255"/>
<path d="M8.37248 93.5376C7.87861 93.5376 7.47852 93.1366 7.47852 92.6423C7.47852 92.1474 7.87861 91.7463 8.37248 91.7463C8.86696 91.7463 9.26767 92.1474 9.26767 92.6423C9.26767 93.1366 8.86696 93.5376 8.37248 93.5376Z" fill="#FFD255"/>
<path d="M14.9129 88.3127C14.3362 88.3127 13.8691 87.8458 13.8691 87.2686C13.8691 86.6915 14.3362 86.2234 14.9129 86.2234C15.4896 86.2234 15.9567 86.6915 15.9567 87.2686C15.9567 87.8458 15.4896 88.3127 14.9129 88.3127Z" fill="#FFD255"/>
<path d="M21.6199 92.5925C21.0433 92.5925 20.5762 92.1244 20.5762 91.5484C20.5762 90.9713 21.0433 90.5032 21.6199 90.5032C22.196 90.5032 22.6637 90.9713 22.6637 91.5484C22.6637 92.1244 22.196 92.5925 21.6199 92.5925Z" fill="#FFD255"/>
<path d="M9.6803 10.1917C9.67969 10.1917 9.67969 10.1917 9.67969 10.1917C9.72414 9.52862 9.7686 8.8655 9.81305 8.20239C9.77408 8.87769 9.72962 9.5408 9.6803 10.1917Z" fill="#EFE8DA"/>
<path d="M24.3507 28.2427L24.3501 28.2409C24.3501 28.2409 24.3501 28.2427 24.3507 28.2427ZM21.3978 15.5125H16.5303C16.4682 14.9878 16.4092 14.4624 16.3495 13.9316C16.1765 12.3963 16.0785 11.142 16.0237 10.3557C13.9093 10.3009 11.795 10.2467 9.68066 10.1918C9.72999 9.54088 9.77445 8.87777 9.81342 8.20246C11.8352 8.20246 13.8564 8.20246 15.8775 8.20246H16.3958C17.0242 8.20246 17.5333 7.69233 17.5333 7.06335V5.64693C17.5333 5.01795 17.0242 4.50781 16.3958 4.50781H18.2537V4.66871H21.3156V4.50903C21.9124 4.54499 22.385 5.03989 22.385 5.64693V7.06335C22.385 7.69233 21.8759 8.20246 21.2474 8.20246H20.7298C20.8826 10.8269 21.1134 13.2745 21.3978 15.5125Z" fill="#C4D9CF"/>
<path d="M15.2771 100C14.4038 100 13.5896 99.9629 12.8467 99.9037C13.8515 99.8239 14.9099 99.6916 16.0109 99.4856C17.4608 99.2138 18.6422 98.8835 19.4509 98.6305C21.0075 96.9874 22.254 95.031 23.0987 92.8606C23.8909 90.8243 24.3312 88.6028 24.3312 86.2734C24.3312 82.4117 23.1291 78.8414 21.0958 75.9336C21.1561 75.5929 21.2151 75.2546 21.2742 74.9176H26.1259C28.7219 60.0762 30.1828 49.2233 30.4666 45.1495C30.1767 49.3153 28.6549 60.5723 25.9474 75.9336C27.9808 78.8414 29.1829 82.4117 29.1829 86.2734C29.1829 88.6028 28.7426 90.8243 27.9503 92.8606C27.1063 95.031 25.8591 96.9874 24.3026 98.6305C23.4939 98.8835 22.3125 99.2138 20.8625 99.4856C20.8546 99.4868 20.8461 99.4887 20.8382 99.4899C20.7761 99.5009 20.7146 99.5137 20.653 99.5246C20.6494 99.5246 20.647 99.5246 20.6439 99.5259C20.6299 99.5277 20.6159 99.5307 20.6019 99.532C18.6709 99.8757 16.8744 100 15.2771 100ZM30.4708 45.0934C30.6304 42.7482 30.5202 40.8771 30.1073 39.2577H25.2581C25.0589 38.4745 24.7879 37.7505 24.4427 37.0611C24.6862 36.8301 24.8385 36.5041 24.8385 36.1402C24.8385 35.4399 24.2709 34.8719 23.5712 34.8719C23.4385 34.8719 23.3106 34.8938 23.19 34.931C22.9811 34.611 22.7272 34.2277 22.4051 33.7437C20.9703 31.5222 20.0654 29.5902 19.5161 28.2816C18.6276 26.1643 18.0193 24.1201 17.5717 22.0966C17.7434 22.1838 17.937 22.2319 18.1423 22.2319C18.842 22.2319 19.4095 21.6645 19.4095 20.9636C19.4095 20.2633 18.842 19.6965 18.1423 19.6965C17.7592 19.6965 17.4158 19.8666 17.1831 20.1353C16.9122 18.6001 16.7112 17.066 16.5291 15.5125H21.3966C22.1529 21.4616 23.2868 25.9174 24.3367 28.214C24.3404 28.2237 24.3446 28.2316 24.3489 28.2408L24.3495 28.2426C24.3531 28.2499 24.3568 28.2597 24.3605 28.2676C24.3611 28.2688 24.3617 28.2688 24.3623 28.2706C24.3641 28.2737 24.3659 28.278 24.3678 28.2816C25.7623 31.2815 27.2567 33.7437 27.2567 33.7437C28.446 35.5289 28.7091 35.9501 29.1841 36.8472C30.1116 38.5995 30.5409 40.5589 30.5415 43.1474C30.5415 43.7593 30.5177 44.4053 30.4708 45.0934Z" fill="#EFB131"/>
<path d="M26.128 74.9175H21.2764C21.3976 74.2245 21.5163 73.5413 21.632 72.866H26.4837C26.6255 72.045 26.7626 71.2368 26.8971 70.4427H22.0455C22.2215 69.4005 22.3914 68.3814 22.5546 67.3874C22.9912 67.3624 23.4327 67.2984 23.8779 67.1863C25.4271 66.7992 26.6304 65.8241 27.8216 64.827C27.9848 63.8085 28.1407 62.8194 28.2893 61.8613C27.0226 63.2216 25.4301 64.2559 23.5448 64.5076C23.3657 64.5326 23.1885 64.5478 23.0131 64.5588C23.0947 64.0438 23.1757 63.5367 23.2537 63.0394C23.2701 63.0394 23.2872 63.0394 23.3036 63.0394C23.3219 63.0394 23.3396 63.0394 23.3578 63.0394C25.7693 63.0144 27.6078 61.3651 28.5146 60.3991C29.4646 54.1642 30.0802 49.3853 30.3549 46.5036C29.8293 48.1639 29.0517 49.7381 27.9866 51.1265C27.4617 51.8116 26.2285 53.0769 24.5837 54.074C25.1482 49.9704 25.4941 46.9199 25.6177 45.1494C25.6597 44.5454 25.6841 43.9725 25.6902 43.4282H30.54C30.5485 42.6731 30.5223 41.9679 30.4584 41.3079H25.6092C25.5385 40.5759 25.4234 39.8975 25.2602 39.2576H30.1095C30.5223 40.8769 30.6326 42.748 30.473 45.0933V45.0945C30.4724 45.1025 30.4718 45.1104 30.4712 45.1183C30.4712 45.1195 30.4712 45.1214 30.4712 45.1226C30.4706 45.1323 30.47 45.1396 30.4688 45.1494C30.185 49.2231 28.7241 60.0761 26.128 74.9175Z" fill="#E88807"/>
<path d="M30.5382 43.4282H25.6884C25.6969 42.6713 25.6708 41.9691 25.6074 41.3079H30.4566C30.5206 41.9679 30.5468 42.6731 30.5382 43.4282Z" fill="#E5A109"/>
<path d="M23.3019 63.0394C23.2854 63.0394 23.2684 63.0394 23.252 63.0394C23.7818 59.6708 24.2257 56.6624 24.5819 54.074C26.2268 53.0769 27.4599 51.8116 27.9849 51.1265C29.0499 49.7382 29.8276 48.1639 30.3531 46.5037C30.0785 49.3853 29.4628 54.1642 28.5128 60.3991C27.6061 61.3652 25.7676 63.0144 23.3561 63.0394C23.3378 63.0394 23.3202 63.0394 23.3019 63.0394Z" fill="#EFB131"/>
<path d="M22.5537 67.3875C22.712 66.4202 22.8649 65.478 23.0123 64.5589C23.1876 64.5479 23.3649 64.5327 23.5439 64.5077C25.4293 64.256 27.0217 63.2217 28.2884 61.8613C28.1398 62.8194 27.9839 63.8086 27.8207 64.827C26.6295 65.8242 25.4262 66.7993 23.877 67.1863C23.4318 67.2985 22.9903 67.3625 22.5537 67.3875Z" fill="#EFB131"/>
<path d="M24.4431 37.0611C24.4065 36.9892 24.37 36.9191 24.3329 36.8471C23.9864 36.1932 23.7525 35.7921 23.1904 34.9309C23.311 34.8938 23.4389 34.8718 23.5716 34.8718C24.2713 34.8718 24.8389 35.4399 24.8389 36.1401C24.8389 36.504 24.6867 36.8301 24.4431 37.0611Z" fill="#EFBF49"/>
<path d="M18.1437 22.232C17.9385 22.232 17.7448 22.1838 17.5731 22.0967C17.4282 21.4415 17.3003 20.7875 17.1846 20.1354C17.4172 19.8666 17.7607 19.6965 18.1437 19.6965C18.8434 19.6965 19.411 20.2633 19.411 20.9636C19.411 21.6645 18.8434 22.232 18.1437 22.232Z" fill="#EFBF49"/>
<path d="M26.4825 72.8662H21.6309C21.7727 72.0452 21.9104 71.237 22.0443 70.4429H26.896C26.7614 71.237 26.6244 72.0452 26.4825 72.8662Z" fill="#E5A109"/>
<path d="M8.76909 97.8015C6.36915 95.8841 5.35521 93.9216 4.91615 92.8605C4.57878 92.0462 4.37234 91.2563 4.2682 90.8571C3.8876 89.395 3.68359 87.8597 3.68359 86.2733C3.68359 82.4116 4.8857 78.8413 6.91904 75.9335C6.85937 75.5928 6.79969 75.2545 6.74062 74.9175H8.7496C8.80867 75.2545 8.86835 75.5928 8.92803 75.9335C7.5408 77.8021 5.22855 81.5395 5.22672 86.3275C5.2255 88.5137 5.7072 90.4122 5.93495 91.2911C6.68216 94.1678 7.85868 96.3662 8.76909 97.8015Z" fill="#FFE2A2"/>
<path d="M8.74947 74.9177H6.74049C6.6193 74.2247 6.50055 73.5415 6.38485 72.8662H8.39384C8.51015 73.5415 8.6289 74.2247 8.74947 74.9177ZM7.98095 70.4429H5.97136C5.57736 68.1055 5.21441 65.887 4.88374 63.8026C5.46957 63.4467 6.09681 63.1566 6.75754 62.9457C7.12414 65.2782 7.53154 67.7825 7.98095 70.4429ZM3.99708 58.0187C3.90513 57.3976 3.81744 56.7918 3.7334 56.2067C4.02388 55.9794 4.3515 55.7654 4.71993 55.5783C5.0165 55.4254 5.31185 55.3053 5.60111 55.2114C5.6955 55.8843 5.79537 56.5797 5.90072 57.3025C5.38553 57.4208 4.88496 57.5908 4.4124 57.8096C4.27112 57.8748 4.13288 57.9449 3.99708 58.0187Z" fill="#FBCD8B"/>
<path d="M12.0154 15.5124H11.4893C11.6409 14.3403 11.7803 13.036 11.8863 11.616C11.9947 13.008 12.0294 14.3123 12.0154 15.5124Z" fill="#E9F7F9"/>
<path d="M4.76582 39.2577H2.75684C2.97667 38.3934 3.28359 37.6005 3.68308 36.8472C4.15807 35.9501 4.42054 35.5289 5.60985 33.7437C6.39908 32.5406 7.50131 30.689 8.4988 28.2816C9.86472 24.9874 10.3696 22.2557 10.959 18.9621C11.132 17.9991 11.3183 16.8417 11.4901 15.5125H12.0162C11.9998 16.974 11.9115 18.2831 11.7964 19.4131C11.6496 20.8606 11.4419 22.1826 11.2178 23.3381C11.2118 23.3381 11.2057 23.3381 11.199 23.3381C10.4219 23.3381 9.79164 23.9702 9.79164 24.7473C9.79164 25.3135 10.1266 25.8023 10.6083 26.0265C10.3385 27.0566 10.1047 27.7788 9.99321 28.1158C9.22286 30.444 8.34717 32.3426 7.61884 33.7437C6.42953 35.5289 6.16706 35.9501 5.69206 36.8472C5.29258 37.6005 4.98627 38.3934 4.76582 39.2577Z" fill="#FFE2A2"/>
<path d="M3.38578 53.7308C2.84928 49.8003 2.51921 46.8699 2.39864 45.1494C2.35662 44.5454 2.33226 43.9725 2.32617 43.4282H4.33516C4.34125 43.9725 4.36622 44.5454 4.40824 45.1494C4.51115 46.6268 4.76875 48.994 5.17919 52.1206C4.46 52.5728 3.86869 53.139 3.38578 53.7308ZM4.41676 41.3079H2.40777C2.47781 40.5759 2.5929 39.8975 2.7561 39.2576H4.76509C4.6025 39.8975 4.48679 40.5759 4.41676 41.3079Z" fill="#FBCD8B"/>
<path d="M4.33475 43.4282H2.32576C2.31723 42.6713 2.34403 41.9691 2.40736 41.3079H4.41635C4.35302 41.9691 4.32622 42.6713 4.33475 43.4282Z" fill="#FADA8C"/>
<path d="M3.73285 56.2065C3.60923 55.3423 3.49353 54.5171 3.38574 53.7308C3.86865 53.139 4.45996 52.5728 5.17915 52.1206C5.30521 53.0799 5.44588 54.113 5.60056 55.2113C5.3113 55.3051 5.01595 55.4252 4.71938 55.5782C4.35096 55.7653 4.02333 55.9792 3.73285 56.2065Z" fill="#FFE2A2"/>
<path d="M4.88373 63.8026C4.55671 61.7395 4.26136 59.8093 3.99707 58.0186C4.13287 57.9449 4.27111 57.8748 4.41239 57.8096C4.88495 57.5908 5.38552 57.4207 5.90071 57.3025C6.15526 59.045 6.44086 60.9301 6.75753 62.9456C6.09679 63.1565 5.46956 63.4466 4.88373 63.8026Z" fill="#FFE2A2"/>
<path d="M8.39416 72.8662H6.38517C6.24328 72.0452 6.10626 71.237 5.97168 70.4429H7.98128C8.11525 71.237 8.25288 72.0452 8.39416 72.8662Z" fill="#FADA8C"/>
<path d="M10.6086 26.0265C10.1269 25.8023 9.79199 25.3135 9.79199 24.7472C9.79199 23.9702 10.4223 23.3381 11.1993 23.3381C11.206 23.3381 11.2121 23.3381 11.2182 23.3381C11.0178 24.3773 10.8035 25.2824 10.6086 26.0265Z" fill="#FFEAAF"/>
<path d="M21.3157 4.50891V1.4341C21.3157 0.64117 20.6745 0 19.8828 0H19.9224C20.6921 0 21.3157 0.624105 21.3157 1.39327V4.50891Z" fill="#EFE8DA"/>
<path d="M21.3142 4.50891C21.2917 4.50769 21.2692 4.50769 21.246 4.50769H18.2523V1.39327C18.2523 0.624105 17.6281 0 16.8584 0H19.8813C20.673 0 21.3142 0.64117 21.3142 1.4341V4.50891Z" fill="#E5A124"/>
<path d="M21.3158 4.66871H18.2539V4.50781H21.2476C21.2707 4.50781 21.2933 4.50781 21.3158 4.50903V4.66871Z" fill="#B8C5B1"/>
<path d="M10.9653 6.75428C9.83752 6.75428 8.92285 6.39408 8.92285 5.94916C8.92285 5.50302 9.83752 5.14282 10.9653 5.14282C12.0938 5.14282 13.0084 5.50302 13.0084 5.94916C13.0084 6.39408 12.0938 6.75428 10.9653 6.75428Z" fill="#E9F7F9"/>
</svg>
