<svg width="37" height="80" viewBox="0 0 37 80" fill="none" xmlns="http://www.w3.org/2000/svg">
<path d="M1.62793 35.251V77.0204H1.63065C1.69392 78.6682 9.16698 80.0001 18.3783 80.0001C27.5904 80.0001 35.0628 78.6682 35.126 77.0204H35.1288V35.251H1.62793Z" fill="#C9C9C9"/>
<path d="M0 30.9924V75.4678H0.00340179C0.0727982 77.3656 8.2956 78.9017 18.4329 78.9017C28.5696 78.9017 36.7931 77.3656 36.8625 75.4678H36.8659V30.9924H0Z" fill="#F2F2F2"/>
<path d="M1.62793 57.9488H35.1288V20.6851H1.62793V57.9488Z" fill="#C9C9C9"/>
<path d="M0 57.9489H36.8659V12.7612H0V57.9489Z" fill="#F2F2F2"/>
<path d="M36.8659 11.3327C36.8659 11.1516 36.7904 10.9718 36.6461 10.7996C35.5337 8.08879 34.4213 5.38006 33.3083 2.67065H3.71884C2.55815 5.37257 1.39814 8.07653 0.237445 10.7798C0.0830036 10.9596 0 11.1448 0 11.3327V74.0379H0.00340179C0.0727982 75.9363 8.2956 77.4725 18.4329 77.4725C28.5696 77.4725 36.7931 75.9363 36.8625 74.0379H36.8659V11.3327Z" fill="#8AFF98"/>
<path d="M16.6689 5.40929C16.9486 8.69204 17.2289 11.9761 17.5085 15.2582C17.5085 35.9951 17.5085 56.73 17.5085 77.467C17.8147 77.4704 18.1229 77.4724 18.4331 77.4724C24.6244 77.4724 30.1006 76.8984 33.4425 76.02C33.4425 55.1264 33.4425 34.2329 33.4425 13.3394C32.2573 10.4488 31.0721 7.55693 29.8863 4.66504C25.4809 4.9129 21.0749 5.16212 16.6689 5.40929Z" fill="#0058C1"/>
<path d="M26.1825 70.9561L26.1968 65.8226L24.2537 64.9197L24.2394 70.0552L21.9602 68.995L21.9759 63.5129L20.026 62.6079L20.0049 70.0395L30.7464 75.028L30.7675 67.3812L28.8176 66.4763L28.8019 72.1729L26.1825 70.9561Z" fill="#8AFF98"/>
<path d="M26.9853 58.5168L20.0341 59.6151L20.0293 61.4277L30.7701 66.4169L30.7756 64.5205L23.8305 61.2936L30.7878 60.1973L30.7926 58.3847L20.0517 53.3955L20.0463 55.2939L26.9853 58.5168Z" fill="#8AFF98"/>
<path d="M26.2343 52.9455L26.2486 47.8106L24.3062 46.907L24.2919 52.0426L22.012 50.983L22.0276 45.5009L20.0777 44.5959L20.0566 52.0269L30.7981 57.016L30.8192 49.3686L28.87 48.4643L28.8537 54.1609L26.2343 52.9455Z" fill="#8AFF98"/>
<path d="M24.4908 41.2001L24.4847 43.4785L21.9606 42.3073L21.9681 39.7286C21.9694 39.1362 22.0912 38.7631 22.3293 38.6255C22.5593 38.4914 22.8451 38.507 23.2036 38.6745C23.4519 38.7896 23.6758 38.9551 23.888 39.1818C24.0908 39.3977 24.2357 39.6435 24.331 39.9308C24.4385 40.2557 24.4929 40.6826 24.4908 41.2001ZM26.1257 40.0378L26.0876 40.0602C25.9019 39.4324 25.6257 38.8693 25.261 38.3777C24.7058 37.63 24.0153 37.0621 23.2097 36.6869C22.592 36.3996 22.0177 36.2811 21.5041 36.3349C20.9782 36.3887 20.604 36.6222 20.393 37.0287C20.1937 37.4141 20.095 38.029 20.0923 38.9095L20.0801 43.3845L30.8216 48.373L30.8263 46.4242L26.4006 44.3691L26.4033 43.3042C26.4047 42.9433 26.4265 42.7846 26.4414 42.7233C26.4816 42.5912 26.5544 42.4741 26.6578 42.3713C26.7285 42.3039 26.8871 42.2004 27.2388 42.1064C27.547 42.0247 28.0001 41.943 28.5839 41.864L30.8406 41.5766L30.8467 39.1764L27.5314 39.6088C26.9755 39.6871 26.5033 39.8301 26.1257 40.0378Z" fill="#8AFF98"/>
<path d="M26.9511 32.8696L26.9586 30.1412L28.2445 30.7377C28.4254 31.0482 28.6023 31.4417 28.7704 31.9109C29.197 33.0977 29.1623 34.1716 28.669 34.8654C28.4132 35.2243 28.0315 35.402 27.5036 35.4074C26.9627 35.4143 26.2707 35.2243 25.4482 34.843C24.7814 34.5325 24.1569 34.1314 23.5929 33.6541C23.2772 33.3837 22.9826 33.0719 22.7179 32.7246C22.4635 32.3937 22.2539 32.0049 22.094 31.5725C21.9328 31.1333 21.8511 30.6519 21.8525 30.1412C21.8539 29.7231 21.9328 29.3765 22.0865 29.1096C22.2349 28.8549 22.4294 28.6949 22.6648 28.637C22.9166 28.5744 23.2772 28.5866 23.7371 28.6738L24.1018 28.7432L23.5792 26.7073L23.2098 26.6255C22.4893 26.4635 21.8906 26.4444 21.432 26.5697C20.9626 26.6984 20.5932 27.0055 20.3333 27.4849C20.0815 27.952 19.9523 28.5498 19.9502 29.2648C19.9475 30.244 20.1666 31.2272 20.6006 32.1894C21.0442 33.1713 21.7307 34.0912 22.6417 34.9247C23.5303 35.737 24.5005 36.3907 25.5244 36.8667C26.5613 37.3474 27.5158 37.5864 28.3615 37.5742C29.2242 37.5619 29.8943 37.2521 30.3509 36.6556C30.7999 36.07 31.0292 35.2822 31.0319 34.3166C31.0339 33.5996 30.8958 32.8274 30.6216 32.0205C30.3502 31.2184 29.9392 30.3666 29.4018 29.4861L29.2861 29.2961L25.0134 27.3126L25.0087 31.9681L26.9511 32.8696Z" fill="#8AFF98"/>
<path d="M20.152 17.6727L23.2523 21.0208C23.6776 21.4777 24.0797 21.9013 24.4532 22.2846C24.0763 22.3166 23.698 22.3582 23.3231 22.4086L20.1377 22.8675L20.1309 25.231L26.3908 24.2423L30.8826 26.3293L30.888 24.3805L26.3997 22.2955L20.1581 15.3596L20.152 17.6727Z" fill="#8AFF98"/>
<path d="M33.4424 76.02C33.4424 55.1265 33.4424 34.2329 33.4424 13.3394C34.7249 13.0023 35.693 12.621 36.2672 12.2097V74.8849C35.6944 75.2982 34.7262 75.6816 33.4424 76.018" fill="#6ED384"/>
<path d="M29.7627 76.7398V74.5718L30.7472 75.028L30.7683 67.3812L29.7627 66.9141V65.9499L30.771 66.417L30.7764 64.5206L29.7627 64.048V60.3595L30.7887 60.1974L30.7934 58.3848L29.7627 57.9054V56.5347L30.7975 57.0161L30.8186 49.3686L29.7627 48.879V47.8822L30.822 48.3731L30.8268 46.4243L29.7627 45.9313V41.7143L30.8411 41.5768L30.8472 39.1765L29.7627 39.3175V37.1964C29.9872 37.0548 30.1832 36.8757 30.3505 36.6557C30.7996 36.0701 31.0288 35.2823 31.0316 34.3168C31.0336 33.5997 30.8955 32.8276 30.6213 32.0207C30.4138 31.4106 30.1267 30.7691 29.7627 30.1086V25.8079L30.8832 26.3295L30.8887 24.3807L29.7627 23.8577V14.0592C31.1663 13.8549 32.4072 13.6125 33.4428 13.3408C33.4428 34.233 33.4428 55.1265 33.4428 76.0201C32.4072 76.2904 31.167 76.5342 29.7627 76.7398Z" fill="#0049A7"/>
<path d="M30.7472 75.028L29.7627 74.5718V66.9141L30.7683 67.3812L30.7472 75.028Z" fill="#6ED384"/>
<path d="M30.771 66.4169L29.7627 65.9497V64.0479L30.7764 64.5205L30.771 66.4169ZM29.7627 60.3593V57.9053L30.7934 58.3846L30.7887 60.1973L29.7627 60.3593Z" fill="#6ED384"/>
<path d="M30.7975 57.016L29.7627 56.5346V48.8789L30.8186 49.3685L30.7975 57.016Z" fill="#6ED384"/>
<path d="M30.822 48.3731L29.7627 47.8822V45.9313L30.8268 46.4243L30.822 48.3731ZM29.7627 41.7143V39.3175L30.8472 39.1765L30.8411 41.5768L29.7627 41.7143Z" fill="#6ED384"/>
<path d="M29.7627 37.1962V30.1084C30.1267 30.7689 30.4138 31.4103 30.6213 32.0204C30.8955 32.8273 31.0336 33.5995 31.0316 34.3165C31.0288 35.2821 30.7996 36.0699 30.3505 36.6555C30.1832 36.8754 29.9872 37.0545 29.7627 37.1962Z" fill="#6ED384"/>
<path d="M30.8832 26.3294L29.7627 25.8078V23.8577L30.8887 24.3806L30.8832 26.3294Z" fill="#6ED384"/>
<path d="M6.93552 76.7152C5.44826 76.4926 4.15014 76.2277 3.09082 75.9294C3.12484 55.0447 3.15954 34.1614 3.19355 13.2781C4.32091 13.5886 5.7102 13.8623 7.30224 14.0884C7.17977 34.9629 7.05731 55.8394 6.93552 76.7152Z" fill="#C8FFCF"/>
<path d="M18.3986 4.28162C13.0401 4.28162 8.33879 3.88395 5.67383 3.2827H31.1233C28.4583 3.88395 23.7571 4.28162 18.3986 4.28162ZM3.35449 2.08154V3.2827C3.35449 4.46615 10.09 5.42353 18.3986 5.42353C26.7071 5.42353 33.4426 4.46615 33.4426 3.2827V2.08154H3.35449Z" fill="#C4C4C4"/>
<path d="M32.9011 2.71281C33.2535 2.53168 33.4426 2.33966 33.4426 2.14083C33.4426 0.958744 26.7071 0 18.3986 0C10.09 0 3.35449 0.958744 3.35449 2.14083C3.35449 2.33966 3.54363 2.53168 3.89674 2.71281C5.65206 1.80786 11.4793 1.14191 18.3986 1.14191C25.3178 1.14191 31.1451 1.80786 32.9011 2.71281Z" fill="#AAAAAA"/>
<path d="M32.8998 2.71274C31.1438 1.80779 25.3166 1.14185 18.3973 1.14185C11.4781 1.14185 5.65083 1.80779 3.89551 2.71274C5.65083 3.61701 11.4781 4.2816 18.3973 4.2816C25.3166 4.2816 31.1438 3.61701 32.8998 2.71274Z" fill="#F2F2F2"/>
<path d="M23.9344 3.29168C22.5968 3.48302 21.5211 3.60014 19.0195 3.18001C16.4389 2.74558 13.9113 2.23693 13.7351 1.4525C13.646 1.05688 13.8134 0.851242 13.8134 0.851242C13.9637 0.66603 14.2338 0.653773 14.3577 0.652412C15.1482 0.63675 15.9368 0.727313 16.7219 0.817877C18.3588 1.00649 19.9958 1.19647 21.6327 1.38645C22.6852 1.50629 23.7384 1.62818 24.7909 1.75075C24.9685 1.77117 25.1543 1.79433 25.3012 1.89715C26.2299 2.55083 24.3392 3.23244 23.9344 3.29168Z" fill="#F2F2F2"/>
<path d="M19.9686 2.75443C18.9888 2.65501 14.3386 2.42486 13.8195 0.84375L13.8134 0.85124C13.8134 0.85124 13.646 1.05688 13.7351 1.4525C13.9113 2.23693 16.4389 2.74558 19.0195 3.18001C21.5211 3.60014 22.5968 3.48302 23.9344 3.29168C24.1603 3.25831 24.8454 3.03361 25.2488 2.72651C23.765 3.28828 20.8959 2.8484 19.9686 2.75443Z" fill="#C4C4C4"/>
<path d="M17.4682 14.7857C13.6589 14.7496 10.155 14.4949 7.30228 14.0884C7.69961 11.0243 8.09694 7.95942 8.49495 4.89525C10.7333 5.17443 13.5561 5.35896 16.6688 5.40935C16.9355 8.5348 17.2015 11.6603 17.4682 14.7857ZM3.1936 13.2781C1.17838 12.7239 0 12.0545 0 11.3327C0 11.1448 0.0830036 10.9596 0.237445 10.7798C1.2886 8.3312 2.33975 5.88191 3.3909 3.43466C3.58617 3.83368 4.55159 4.20343 6.07832 4.51189C5.11629 7.43306 4.15495 10.3563 3.1936 13.2781ZM36.2672 12.2098C35.1731 9.40843 34.0805 6.60846 32.9872 3.80713C33.2845 3.6403 33.4423 3.46394 33.4423 3.28282V2.99683C34.5105 5.59796 35.5786 8.19842 36.6461 10.7996C36.7904 10.9718 36.8659 11.1516 36.8659 11.3327C36.8659 11.6357 36.6577 11.9292 36.2672 12.2098ZM18.3982 4.28173C18.4241 4.28173 18.4506 4.28173 18.4758 4.28173C18.4499 4.28173 18.4241 4.28173 18.3982 4.28173ZM18.3071 4.28173C18.3057 4.28173 18.3037 4.28173 18.3023 4.28173C18.3037 4.28173 18.305 4.28173 18.3071 4.28173ZM18.5221 4.28173C18.5234 4.28173 18.5255 4.28173 18.5275 4.28173C18.5255 4.28173 18.5241 4.28173 18.5221 4.28173ZM18.2751 4.28173C18.2724 4.28173 18.2717 4.28173 18.2697 4.28173C18.271 4.28173 18.2731 4.28173 18.2751 4.28173ZM18.5833 4.28173C18.586 4.28173 18.5881 4.28173 18.5908 4.28173C18.5887 4.28173 18.5853 4.28173 18.5833 4.28173ZM18.6479 4.28173C18.6493 4.28173 18.6493 4.28173 18.6507 4.28173C18.65 4.28173 18.6486 4.28173 18.6479 4.28173ZM18.1485 4.28173C18.1479 4.28173 18.1465 4.28173 18.1458 4.28173C18.1472 4.28173 18.1479 4.28173 18.1485 4.28173ZM17.9016 4.28173C17.8995 4.28173 17.8975 4.28173 17.8961 4.28173C17.8975 4.28173 17.9002 4.28173 17.9016 4.28173Z" fill="#A7FFB2"/>
<path d="M18.4331 14.789C18.1093 14.789 17.7881 14.789 17.4684 14.7856C17.2017 11.6601 16.9356 8.53467 16.6689 5.40922C17.2364 5.41944 17.814 5.42352 18.3984 5.42352C21.4532 5.42352 24.2944 5.29414 26.6668 5.0708C27.6989 8.06756 28.731 11.0643 29.7624 14.059C26.6369 14.5173 22.7051 14.789 18.4331 14.789Z" fill="#4082D1"/>
<path d="M33.442 13.3394C32.2568 10.4489 31.0716 7.55699 29.8857 4.6651C31.3417 4.42132 32.4187 4.12853 32.9868 3.80713C34.0801 6.60846 35.1728 9.40843 36.2668 12.2098C35.6926 12.621 34.7244 13.0024 33.442 13.3408" fill="#92DEA3"/>
<path d="M29.7626 14.0591C28.7312 11.0644 27.6991 8.06763 26.667 5.07087C27.8726 4.95784 28.9571 4.82165 29.8864 4.66504C31.0723 7.55693 32.2575 10.4488 33.4427 13.3394C32.4072 13.6124 31.1662 13.8548 29.7626 14.0605" fill="#4077BD"/>
<path d="M7.30106 14.0883C5.70903 13.8622 4.31974 13.5885 3.19238 13.278C4.15373 10.3561 5.11507 7.43289 6.0771 4.51172C6.77243 4.65267 7.58477 4.78205 8.49373 4.89508C8.09572 7.95925 7.69839 11.0241 7.30106 14.0883Z" fill="#D6FFDB"/>
<path d="M18.398 5.42364C17.8135 5.42364 17.2359 5.41955 16.6685 5.40934C13.5559 5.35895 10.733 5.17442 8.49467 4.89524C7.58571 4.78221 6.77336 4.65283 6.07804 4.51188C4.55132 4.20342 3.58589 3.83368 3.39062 3.43465C3.50016 3.17999 3.60902 2.92532 3.71856 2.67065H3.81721C3.84238 2.68495 3.86892 2.69857 3.89613 2.71287C5.60859 3.59467 11.1977 4.2504 17.8959 4.28173C17.8972 4.28173 17.8993 4.28173 17.9013 4.28173C17.9108 4.28173 17.9197 4.28173 17.9285 4.28173H17.9292C17.9387 4.28173 17.9482 4.28173 17.9578 4.28173C17.9598 4.28173 17.9612 4.28173 17.9632 4.28173C17.9823 4.28173 18.0013 4.28173 18.0204 4.28173C18.0224 4.28173 18.0231 4.28173 18.0251 4.28173C18.0653 4.28173 18.1054 4.28173 18.1455 4.28173C18.1462 4.28173 18.1476 4.28173 18.1483 4.28173C18.1673 4.28173 18.1871 4.28173 18.2054 4.28173C18.2081 4.28173 18.2109 4.28173 18.2136 4.28173C18.232 4.28173 18.2503 4.28173 18.2694 4.28173C18.2714 4.28173 18.2721 4.28173 18.2748 4.28173C18.2837 4.28173 18.2925 4.28173 18.302 4.28173C18.3034 4.28173 18.3054 4.28173 18.3068 4.28173C18.3116 4.28173 18.3156 4.28173 18.3204 4.28173C18.3463 4.28173 18.3721 4.28173 18.398 4.28173C18.4238 4.28173 18.4497 4.28173 18.4755 4.28173C18.4803 4.28173 18.485 4.28173 18.4891 4.28173C18.4912 4.28173 18.4925 4.28173 18.4946 4.28173C18.5034 4.28173 18.5129 4.28173 18.5218 4.28173C18.5238 4.28173 18.5252 4.28173 18.5272 4.28173C18.5456 4.28173 18.5646 4.28173 18.583 4.28173C18.5851 4.28173 18.5885 4.28173 18.5905 4.28173C18.6096 4.28173 18.6286 4.28173 18.6477 4.28173C18.6483 4.28173 18.6497 4.28173 18.6504 4.28173C18.6905 4.28173 18.7313 4.28173 18.7715 4.28173C18.7728 4.28173 18.7742 4.28173 18.7756 4.28173C18.7946 4.28173 18.8143 4.28173 18.8327 4.28173C18.8348 4.28173 18.8368 4.28173 18.8388 4.28173C18.8484 4.28173 18.8579 4.28173 18.8674 4.28173C18.8769 4.28173 18.8858 4.28173 18.8946 4.28173C18.8967 4.28173 18.8987 4.28173 18.9007 4.28173C25.5982 4.2504 31.1873 3.59467 32.9005 2.71287C32.9277 2.69857 32.9535 2.68495 32.9787 2.67065H33.308C33.3529 2.77892 33.3978 2.88719 33.442 2.99682V3.28281C33.442 3.46393 33.2842 3.64029 32.9869 3.80712C32.4188 4.12852 31.3418 4.42132 29.8858 4.66509C28.9564 4.8217 27.8719 4.95789 26.6664 5.07092C24.2939 5.29426 21.4528 5.42364 18.398 5.42364Z" fill="#D3D3D3"/>
<path d="M32.9006 2.71287C32.8728 2.69857 32.8449 2.68495 32.8149 2.67065H32.9789C32.9537 2.68495 32.9279 2.69857 32.9006 2.71287ZM3.8963 2.71287C3.86909 2.69857 3.84256 2.68495 3.81738 2.67065H3.98135C3.95209 2.68495 3.92352 2.69857 3.8963 2.71287Z" fill="#BFBFBF"/>
<path d="M18.3973 4.28173C18.3715 4.28173 18.3456 4.28173 18.3198 4.28173C18.315 4.28173 18.3109 4.28173 18.3062 4.28173C18.3041 4.28173 18.3028 4.28173 18.3014 4.28173C18.2919 4.28173 18.283 4.28173 18.2742 4.28173C18.2722 4.28173 18.2701 4.28173 18.2687 4.28173C18.2497 4.28173 18.2313 4.28173 18.213 4.28173C18.2102 4.28173 18.2075 4.28173 18.2048 4.28173C18.1864 4.28173 18.1667 4.28173 18.1476 4.28173C18.147 4.28173 18.1463 4.28173 18.1449 4.28173C18.1048 4.28173 18.0646 4.28173 18.0245 4.28173C18.0225 4.28173 18.0218 4.28173 18.0197 4.28173C18.0007 4.28173 17.9816 4.28173 17.9626 4.28173C17.9605 4.28173 17.9592 4.28173 17.9571 4.28173C17.9476 4.28173 17.9381 4.28173 17.9286 4.28173H17.9279C17.919 4.28173 17.9102 4.28173 17.9007 4.28173C17.8993 4.28173 17.8966 4.28173 17.8952 4.28173C11.1971 4.2504 5.60797 3.59467 3.89551 2.71287C3.92272 2.69857 3.9513 2.68495 3.98055 2.67065H16.3474C17.1584 2.85587 18.0851 3.02269 19.0192 3.17999C19.0246 3.17999 19.0308 3.18135 19.0369 3.18339C19.0913 3.19224 19.1451 3.2011 19.1981 3.20927C20.3459 3.39448 21.1854 3.46393 21.8937 3.46393C21.8971 3.46393 21.8998 3.46393 21.9025 3.46393C21.9032 3.46393 21.9039 3.46393 21.9046 3.46393C22.636 3.46393 23.2279 3.39107 23.8769 3.29847C23.8824 3.29847 23.8878 3.29847 23.8933 3.29643C23.8987 3.29643 23.9028 3.29506 23.9082 3.29506C23.9171 3.29302 23.9259 3.29166 23.9341 3.29166C23.9355 3.29166 23.9361 3.29166 23.9368 3.28962C23.9375 3.28962 23.9375 3.28962 23.9382 3.28962C23.9382 3.28962 23.9389 3.28962 23.9395 3.28962C23.9395 3.28962 23.9402 3.28962 23.9409 3.28962C23.9416 3.28962 23.9416 3.28962 23.9416 3.28962C23.9423 3.28962 23.9429 3.28962 23.9436 3.28962H23.9443C23.945 3.28962 23.9457 3.28962 23.9463 3.28962C23.9463 3.28962 23.9463 3.28962 23.947 3.28962C23.9477 3.28962 23.9484 3.28962 23.9491 3.28825C23.9491 3.28825 23.9491 3.28825 23.9497 3.28825C23.9647 3.28621 23.9817 3.28281 24.0001 3.2794C24.0008 3.2794 24.0008 3.2794 24.0008 3.2794C24.0028 3.27736 24.0048 3.27736 24.0069 3.27736C24.0089 3.27736 24.011 3.276 24.0137 3.276C24.0164 3.276 24.0191 3.27396 24.0219 3.27396C24.0225 3.27396 24.0232 3.27396 24.0232 3.27396C24.0239 3.27396 24.0239 3.27396 24.0246 3.27396C24.0266 3.27259 24.0287 3.27259 24.0307 3.27259C24.0314 3.27259 24.0314 3.27259 24.0321 3.27259C24.0327 3.27259 24.0334 3.27055 24.0348 3.27055C24.0355 3.27055 24.0355 3.27055 24.0355 3.27055C24.0361 3.27055 24.0375 3.27055 24.0382 3.27055C24.0389 3.27055 24.0389 3.27055 24.0395 3.27055C24.3471 3.19565 24.9757 2.9655 25.3186 2.67065H32.8141C32.8441 2.68495 32.872 2.69857 32.8998 2.71287C31.1867 3.59467 25.5976 4.2504 18.9001 4.28173C18.8981 4.28173 18.896 4.28173 18.894 4.28173C18.8852 4.28173 18.8763 4.28173 18.8668 4.28173C18.8573 4.28173 18.8477 4.28173 18.8382 4.28173C18.8362 4.28173 18.8341 4.28173 18.8321 4.28173C18.8137 4.28173 18.794 4.28173 18.7749 4.28173C18.7736 4.28173 18.7722 4.28173 18.7709 4.28173C18.7307 4.28173 18.6899 4.28173 18.6497 4.28173C18.6484 4.28173 18.6484 4.28173 18.647 4.28173C18.628 4.28173 18.6089 4.28173 18.5899 4.28173C18.5872 4.28173 18.5851 4.28173 18.5824 4.28173C18.564 4.28173 18.545 4.28173 18.5266 4.28173C18.5246 4.28173 18.5225 4.28173 18.5212 4.28173C18.5123 4.28173 18.5028 4.28173 18.4939 4.28173C18.4919 4.28173 18.4905 4.28173 18.4885 4.28173C18.4844 4.28173 18.4797 4.28173 18.4749 4.28173C18.4497 4.28173 18.4232 4.28173 18.3973 4.28173Z" fill="#F5F5F5"/>
<path d="M24.0328 3.27259C24.0335 3.27259 24.0349 3.27055 24.0356 3.27055C24.0342 3.27055 24.0335 3.27259 24.0328 3.27259ZM24.0403 3.27055C24.3281 3.2011 24.8969 2.99546 25.2493 2.72649C24.6921 2.93758 23.9403 3.00703 23.1688 3.00703C21.885 3.00703 20.5481 2.81365 19.9691 2.75441C19.7745 2.73534 19.4336 2.70947 19.0098 2.67065H25.3194C24.9765 2.9655 24.3479 3.19565 24.0403 3.27055Z" fill="#F5F5F5"/>
<path d="M21.9018 3.46393C21.8991 3.46393 21.8964 3.46393 21.893 3.46393C21.1847 3.46393 20.3451 3.39448 19.1974 3.20927C19.1443 3.2011 19.0906 3.19224 19.0361 3.18339C19.03 3.18135 19.0239 3.17999 19.0184 3.17999C18.0843 3.02269 17.1577 2.85587 16.3467 2.67065H19.0082C19.4321 2.70947 19.773 2.73534 19.9675 2.75441C20.5465 2.81365 21.8834 3.00703 23.1673 3.00703C23.9388 3.00703 24.6906 2.93758 25.2478 2.72649C24.8954 2.99546 24.3266 3.2011 24.0388 3.27055C24.0381 3.27055 24.0381 3.27055 24.0374 3.27055C24.0368 3.27055 24.0354 3.27055 24.0347 3.27055C24.0347 3.27055 24.0347 3.27055 24.034 3.27055C24.0334 3.27055 24.032 3.27259 24.0313 3.27259C24.0306 3.27259 24.0306 3.27259 24.03 3.27259C24.0279 3.27259 24.0259 3.27259 24.0238 3.27396C24.0232 3.27396 24.0232 3.27396 24.0225 3.27396C24.0225 3.27396 24.0218 3.27396 24.0211 3.27396C24.0184 3.27396 24.0157 3.276 24.013 3.276C24.0102 3.276 24.0082 3.27736 24.0061 3.27736C24.0041 3.27736 24.0021 3.27736 24 3.2794C24 3.2794 24 3.2794 23.9993 3.2794C23.981 3.28281 23.964 3.28621 23.949 3.28825C23.9483 3.28825 23.9483 3.28825 23.9483 3.28825C23.9476 3.28962 23.947 3.28962 23.9463 3.28962C23.9456 3.28962 23.9456 3.28962 23.9456 3.28962C23.9449 3.28962 23.9442 3.28962 23.9436 3.28962H23.9429C23.9422 3.28962 23.9415 3.28962 23.9408 3.28962C23.9408 3.28962 23.9408 3.28962 23.9402 3.28962C23.9395 3.28962 23.9388 3.28962 23.9388 3.28962C23.9381 3.28962 23.9374 3.28962 23.9374 3.28962C23.9368 3.28962 23.9368 3.28962 23.9361 3.28962C23.9354 3.29166 23.9347 3.29166 23.9334 3.29166C23.9252 3.29166 23.9163 3.29302 23.9075 3.29506C23.9021 3.29506 23.898 3.29643 23.8925 3.29643C23.8871 3.29847 23.8816 3.29847 23.8762 3.29847C23.2271 3.39107 22.6352 3.46393 21.9038 3.46393C21.9032 3.46393 21.9025 3.46393 21.9018 3.46393Z" fill="#D3D3D3"/>
</svg>
