<svg width="40" height="70" viewBox="0 0 40 70" fill="none" xmlns="http://www.w3.org/2000/svg">
<path d="M1.74121 22.1287V66.8129H1.74485C1.81254 68.5758 9.80591 70 19.6611 70C29.5164 70 37.5119 68.5758 37.5789 66.8129H37.5825V22.1287H1.74121Z" fill="#C9C9C9"/>
<path d="M0 13.6509V65.1514H0.0036393C0.077881 67.1824 8.87481 68.8258 19.7192 68.8258C30.5636 68.8258 39.3627 67.1824 39.4355 65.1514H39.4391V13.6509H0Z" fill="#F2F2F2"/>
<path d="M0 12.1218V63.6224H0.0036393C0.077881 65.6533 8.87481 67.296 19.7192 67.296C30.5636 67.296 39.3627 65.6533 39.4355 63.6224H39.4391V12.1218H0Z" fill="#A82020"/>
<path d="M9.27871 28.7978C9.27871 30.9664 7.52311 32.725 5.35627 32.725C3.1887 32.725 1.43164 30.9664 1.43164 28.7978C1.43164 26.6284 3.1887 24.8721 5.35627 24.8721C7.52311 24.8721 9.27871 26.6284 9.27871 28.7978Z" fill="#BF3636"/>
<path d="M20.4767 60.3106C20.4767 61.8659 19.2175 63.1262 17.6635 63.1262C16.1095 63.1262 14.8496 61.8659 14.8496 60.3106C14.8496 58.7554 16.1095 57.4944 17.6635 57.4944C19.2175 57.4944 20.4767 58.7554 20.4767 60.3106Z" fill="#BF3636"/>
<path d="M12.4233 31.6717C4.53622 39.5654 1.71867 49.5425 6.12951 53.957C10.5382 58.3708 20.5069 55.5494 28.394 47.655C36.2797 39.7635 39.0987 29.7864 34.6886 25.3719C30.2777 20.9581 20.309 23.7795 12.4233 31.6717Z" fill="#FFBC27"/>
<path d="M13.4478 42.2657L12.7228 43.9033C12.019 43.5355 11.441 43.577 10.9941 44.0279C10.7852 44.237 10.679 44.4628 10.6775 44.7054C10.6753 44.9472 10.7539 45.1468 10.9119 45.3056C11.0968 45.4899 11.3166 45.5628 11.5699 45.5278C11.8254 45.4921 12.2701 45.3319 12.9077 45.0485C13.4834 44.7819 13.966 44.6041 14.3576 44.5167C14.7506 44.4293 15.151 44.4402 15.5607 44.5538C15.9713 44.6675 16.349 44.897 16.6955 45.2423C17.3047 45.8483 17.5958 46.555 17.5696 47.3628C17.5434 48.17 17.1802 48.9268 16.4793 49.6305C15.3038 50.8129 13.9551 50.9746 12.436 50.1135L13.3211 48.5036C14.1298 49.0033 14.8067 48.9815 15.3467 48.4366C15.5942 48.1889 15.7303 47.9223 15.7551 47.6382C15.7791 47.357 15.6859 47.1108 15.477 46.9002C15.3169 46.7414 15.1211 46.654 14.8882 46.6373C14.6538 46.6205 14.2732 46.7378 13.7462 46.9855C13.0715 47.3082 12.5387 47.5209 12.1493 47.6214C11.7613 47.7241 11.3537 47.719 10.925 47.6105C10.4985 47.5027 10.1127 47.2769 9.7677 46.9338C9.1825 46.3517 8.89062 45.6844 8.89062 44.9341C8.89208 44.1831 9.20142 43.4983 9.8201 42.8755C10.9476 41.742 12.1565 41.5387 13.4478 42.2657Z" fill="#A82020"/>
<path d="M19.2695 40.0899C18.3903 39.215 17.7381 38.7 17.3094 38.547C16.8829 38.3948 16.5197 38.4669 16.2213 38.7677C15.9272 39.0642 15.858 39.4277 16.0145 39.8568C16.171 40.2837 16.6871 40.9342 17.5627 41.8069C18.4238 42.6629 19.0723 43.1743 19.5105 43.3403C19.9464 43.5057 20.3133 43.4387 20.611 43.1386C20.9058 42.8421 20.9785 42.48 20.8257 42.0531C20.675 41.6263 20.1546 40.9714 19.2695 40.0899ZM20.7718 38.5791C23.0129 40.8111 23.3506 42.7175 21.7814 44.2946C21.0026 45.0785 20.1284 45.3859 19.1618 45.214C18.1945 45.0442 17.1602 44.4126 16.0611 43.3178C13.823 41.0894 13.4881 39.1852 15.0552 37.6073C15.8224 36.8351 16.6871 36.5277 17.6508 36.6807C18.6137 36.8337 19.6538 37.466 20.7718 38.5791Z" fill="#A82020"/>
<path d="M21.0522 34.0159L25.3356 38.2803L25.5795 38.0363C25.9099 37.7041 26.1013 37.3836 26.1552 37.074C26.2098 36.7644 26.1312 36.3987 25.9223 35.974C25.7119 35.5486 25.308 35.0379 24.7097 34.4406C24.1543 33.8891 23.6681 33.5234 23.2488 33.3464C22.8296 33.1672 22.4773 33.1147 22.1905 33.1898C21.9052 33.2641 21.6053 33.4564 21.2938 33.7696L21.0522 34.0159ZM18.5068 34.3364L20.0419 32.792C20.7072 32.1226 21.3389 31.668 21.9351 31.4269C22.5312 31.1887 23.1986 31.1829 23.9323 31.4123C24.6667 31.6432 25.4455 32.1692 26.2709 32.9902C26.8561 33.5737 27.3016 34.1688 27.6036 34.7727C27.9035 35.3766 28.0615 35.9347 28.0767 36.4439C28.0898 36.9509 27.9872 37.4062 27.7652 37.8068C27.544 38.2097 27.2011 38.6446 26.7353 39.1122L25.0285 40.8278L18.5068 34.3364Z" fill="#A82020"/>
<path d="M30.3714 30.5207L27.0436 28.5196L29.0874 31.813L30.3714 30.5207ZM25.0762 27.7292L26.5122 26.2839L34.8863 30.9126L33.4276 32.3805L31.7579 31.3635L29.9295 33.2022L30.9587 34.8638L29.6486 36.1824L25.0762 27.7292Z" fill="#A82020"/>
<path d="M34.8246 59.2996C34.8246 61.4573 33.077 63.2064 30.9211 63.2064C28.7652 63.2064 27.0176 61.4573 27.0176 59.2996C27.0176 57.1419 28.7652 55.3906 30.9211 55.3906C33.077 55.3906 34.8246 57.1419 34.8246 59.2996Z" fill="#BF3636"/>
<path d="M32.3922 17.6565C32.3922 19.3444 31.026 20.7132 29.3402 20.7132C27.6538 20.7132 26.2861 19.3444 26.2861 17.6565C26.2861 15.9694 27.6538 14.6021 29.3402 14.6021C31.026 14.6021 32.3922 15.9694 32.3922 17.6565Z" fill="#BF3636"/>
<path d="M39.204 11.5514C38.0154 8.6536 36.8247 5.75356 35.6339 2.85571H3.97776C2.73676 5.74773 1.49575 8.6383 0.253296 11.531C0.0895269 11.7248 0 11.9208 0 12.1218C0 14.1659 8.82822 15.8217 19.7192 15.8217C30.6102 15.8217 39.4391 14.1659 39.4391 12.1218C39.4391 11.9281 39.3591 11.7379 39.204 11.5514Z" fill="#B72E2E"/>
<path d="M31.8398 66.5129V63.0964C33.5525 62.6848 34.8248 61.1405 34.8248 59.2996C34.8248 57.4573 33.5525 55.913 31.8398 55.5006V43.6572C37.0069 36.6544 38.3782 29.066 34.6872 25.3719C33.9004 24.5852 32.9375 24.0272 31.8398 23.6877V19.4101C32.1885 18.914 32.3916 18.3094 32.3916 17.6567C32.3916 17.0062 32.1885 16.4016 31.8398 15.9055V15.0408C35.1996 14.5498 37.6889 13.8585 38.7996 13.0615C38.7996 30.217 38.7996 47.3739 38.7996 64.5307C37.6926 65.327 35.2047 66.0205 31.8398 66.5129Z" fill="#8A1C1D"/>
<path d="M31.8398 43.6573V31.4139L33.4259 32.3806L34.8845 30.9127L31.8398 29.2307V23.6877C32.9375 24.0272 33.9004 24.5852 34.6872 25.372C38.3782 29.066 37.0069 36.6545 31.8398 43.6573Z" fill="#D1A423"/>
<path d="M33.4259 32.3804L31.8398 31.4137V29.2305L34.8845 30.9125L33.4259 32.3804Z" fill="#8A1C1D"/>
<path d="M31.8398 63.0962V55.5005C33.5525 55.9128 34.8248 57.4572 34.8248 59.2995C34.8248 61.1403 33.5525 62.6846 31.8398 63.0962Z" fill="#9D2F30"/>
<path d="M31.8398 19.4099V15.9053C32.1885 16.4014 32.3916 17.006 32.3916 17.6565C32.3916 18.3092 32.1885 18.9138 31.8398 19.4099Z" fill="#9D2F30"/>
<path d="M31.8409 15.0407C30.7382 11.8347 29.6325 8.63091 28.5298 5.42492C31.8372 5.11387 34.2952 4.63453 35.2902 4.07288C36.4599 7.0698 37.6303 10.0653 38.8007 13.0615C37.69 13.8584 35.2007 14.5497 31.8409 15.0407ZM28.1885 4.23315C28.1215 3.99275 28.0567 3.75236 27.9912 3.51196H33.2959C31.9995 3.80481 30.2498 4.05103 28.1885 4.23315Z" fill="#962829"/>
<path d="M19.6806 4.58073C13.9487 4.58073 8.91777 4.15312 6.06892 3.51207H33.2938C30.4435 4.15312 25.414 4.58073 19.6806 4.58073ZM3.58691 2.22705V3.51207C3.58691 4.77596 10.7927 5.80165 19.6806 5.80165C28.5707 5.80165 35.7758 4.77596 35.7758 3.51207V2.22705H3.58691Z" fill="#C4C4C4"/>
<path d="M35.1964 2.90003C35.5727 2.70626 35.7758 2.50083 35.7758 2.29031C35.7758 1.02568 28.5707 0 19.6806 0C10.7927 0 3.58691 1.02568 3.58691 2.29031C3.58691 2.50083 3.78999 2.70626 4.16629 2.90003C6.0449 1.9319 12.2798 1.22164 19.6806 1.22164C27.0837 1.22164 33.3186 1.9319 35.1964 2.90003Z" fill="#AAAAAA"/>
<path d="M35.1981 2.90007C33.3202 1.93194 27.0854 1.22168 19.6823 1.22168C12.2814 1.22168 6.04658 1.93194 4.16797 2.90007C6.04658 3.86966 12.2814 4.58065 19.6823 4.58065C27.0854 4.58065 33.3202 3.86966 35.1981 2.90007Z" fill="#F2F2F2"/>
<path d="M25.6053 3.51929C24.1744 3.72472 23.0251 3.84929 20.3473 3.39982C17.5858 2.93725 14.8818 2.39308 14.694 1.55388C14.5986 1.12846 14.7777 0.908461 14.7777 0.908461C14.9378 0.711046 15.229 0.699391 15.3607 0.695749C16.2072 0.678994 17.0493 0.77588 17.8893 0.872766C19.6413 1.07601 21.3925 1.27925 23.1444 1.48104C24.2697 1.61143 25.395 1.74183 26.5224 1.87223C26.7124 1.89335 26.9118 1.91885 27.0683 2.02957C28.0611 2.7289 26.0399 3.45737 25.6053 3.51929Z" fill="#F2F2F2"/>
<path d="M21.3626 2.94667C20.3152 2.83886 15.3403 2.59409 14.785 0.902588L14.7777 0.908416C14.7777 0.908416 14.5986 1.12841 14.694 1.55384C14.8818 2.39303 17.5858 2.9372 20.3473 3.39978C23.0251 3.84924 24.1744 3.72468 25.6053 3.51925C25.8477 3.48574 26.5799 3.24316 27.0123 2.91535C25.4248 3.51561 22.354 3.0472 21.3626 2.94667Z" fill="#C4C4C4"/>
<path d="M7.41905 66.4865C5.82722 66.2483 4.43919 65.965 3.30664 65.6459C3.32848 54.4938 3.35322 43.3416 3.37724 32.1895C3.9588 32.529 4.6328 32.7249 5.3563 32.7249C6.22609 32.7249 7.0311 32.4416 7.68181 31.9608C7.66871 33.8475 7.65342 35.7372 7.63887 37.6261C3.59706 44.0446 2.77749 50.6037 6.12783 53.9569C6.53907 54.3685 7.00126 54.7196 7.5064 55.0088C7.47655 58.8354 7.4489 62.6599 7.41905 66.4865ZM7.72985 25.6719C7.07041 25.1707 6.24865 24.872 5.3563 24.872C4.64081 24.872 3.96972 25.0622 3.39253 25.398C3.39981 21.6661 3.40709 17.9348 3.41436 14.2051C4.62188 14.5365 6.1089 14.8294 7.80991 15.072C7.78371 18.6043 7.75605 22.1381 7.72985 25.6719Z" fill="#D69696"/>
<path d="M5.35796 32.725C4.63447 32.725 3.96047 32.529 3.37891 32.1895C3.38473 29.9262 3.38837 27.6621 3.39419 25.398C3.97138 25.0622 4.64247 24.8721 5.35796 24.8721C6.25032 24.8721 7.07207 25.1707 7.73151 25.6719C7.71477 27.7685 7.70021 29.8643 7.68347 31.9608C7.03277 32.4416 6.22775 32.725 5.35796 32.725Z" fill="#E1A0A0"/>
<path d="M7.5065 55.0089C7.00137 54.7197 6.53918 54.3686 6.12794 53.957C2.77759 50.6039 3.59717 44.0448 7.63898 37.6262C7.59385 43.4205 7.5509 49.2147 7.5065 55.0089Z" fill="#FFDF99"/>
<path d="M7.80961 15.0721C6.1086 14.8295 4.62158 14.5367 3.41406 14.2052C4.44471 11.0779 5.47318 7.95204 6.50165 4.8269C7.24552 4.9777 8.11531 5.11392 9.08628 5.23485C8.66121 8.51368 8.23687 11.7918 7.80961 15.0706" fill="#DD9D9D"/>
<path d="M9.08756 5.23476C8.1166 5.11383 7.2468 4.97761 6.50293 4.82682C6.55315 4.67165 6.60556 4.51503 6.65578 4.3606C7.487 4.50046 8.31603 4.63814 9.14725 4.77582C9.12832 4.9288 9.10794 5.08178 9.08756 5.23476Z" fill="#E3E3E3"/>
</svg>
