<svg width="65" height="42" viewBox="0 0 65 42" fill="none" xmlns="http://www.w3.org/2000/svg">
<path fill-rule="evenodd" clip-rule="evenodd" d="M44.8174 38.0103C44.8434 38.078 44.8538 37.4218 44.8538 38.2083C44.8538 38.9999 41.6351 41.6405 32.432 41.6978C23.2341 41.7499 19.833 39.078 19.833 38.2083C19.833 37.3385 19.958 37.7655 20.1872 37.5572C20.9215 36.2343 21.3226 34.9478 19.833 33.3958H44.8538C44.1455 34.8749 44.2549 36.2291 44.8538 38.0103H44.8174Z" fill="#EC9540"/>
<path fill-rule="evenodd" clip-rule="evenodd" d="M20.4323 36.9895C20.8854 36.0416 21.0781 35.1041 20.4219 34.0416C20.7969 33.7812 21.2604 33.5312 21.8125 33.302H43.026C43.6406 33.5572 44.1458 33.8385 44.5365 34.1301C44.2865 35.0155 44.3125 35.8905 44.5469 36.8853C42.6823 38.3228 37.8802 39.9895 32.4167 39.9895C26.9531 39.9895 22.401 38.3697 20.4323 36.9895Z" fill="#E38B3B"/>
<path fill-rule="evenodd" clip-rule="evenodd" d="M64.5312 5.45825C64.5417 5.72909 64.5469 5.99992 64.5469 6.27075C64.5469 24.0937 50.0938 38.5416 32.2708 38.5416C14.4531 38.5416 0 24.0937 0 6.27075C0 5.99992 6.66827e-07 5.72909 0.0104167 5.45825H64.5312Z" fill="#F3A04D"/>
<path fill-rule="evenodd" clip-rule="evenodd" d="M59.1924 21.8749C58.5726 22.7708 57.4736 26.4583 56.7705 27.276C50.7236 31.302 40.4841 36.9426 29.1872 36.2968C21.3799 35.8541 14.2757 32.2655 8.77572 28.3905C6.8278 26.3228 5.15072 23.9999 3.80176 21.4739C12.3382 25.6145 24.8695 27.9947 34.208 28.0728C48.1195 28.1978 54.2132 23.2812 59.1924 21.8749Z" fill="#EC9540"/>
<path fill-rule="evenodd" clip-rule="evenodd" d="M7.96875 5.45825C8.89583 7.08846 7.91667 15.3749 12.7135 21.9218C17.5104 28.4583 21.7604 29.9895 23.8333 30.427C25.9062 30.8593 23.625 28.8333 21.9792 23.552C20.3385 18.276 20.0312 10.3072 20.0312 10.3072L7.96875 5.45825Z" fill="#FCB970"/>
<path fill-rule="evenodd" clip-rule="evenodd" d="M1.85449 5.3645H7.68783C7.06803 8.62492 6.71908 13.9322 8.51074 18.5572C11.1253 25.3176 19.5264 33.1666 19.5264 33.1666C19.5264 33.1666 13.417 31.0937 7.08887 23.1353C2.87533 17.828 1.93783 10.3645 1.85449 5.3645Z" fill="#F3B060"/>
<path fill-rule="evenodd" clip-rule="evenodd" d="M64.542 5.8645C64.542 5.99992 64.5472 6.13534 64.5472 6.27075C64.5472 23.3489 51.2712 37.3385 34.4795 38.4635C49.5628 35.901 60.667 22.1249 64.542 5.8645Z" fill="#E38B3B"/>
<path fill-rule="evenodd" clip-rule="evenodd" d="M41.9427 36.6666C38.0365 38.3385 34.9896 38.5416 32.2708 38.5416C29.5521 38.5416 30.4323 38.4999 29.5312 38.427C35.4219 35.4999 39.1198 31.0103 42.8125 23.4478C48.974 10.828 48.2708 6.39575 48.2708 6.39575C48.2708 6.39575 54.3646 6.35929 55.2448 6.86971C56.125 7.37492 59.9531 5.45825 59.9531 5.45825C59.9531 5.45825 56.599 25.8853 41.9427 36.6666Z" fill="#E99340"/>
<path fill-rule="evenodd" clip-rule="evenodd" d="M32.3438 11.6562C50.1458 11.6562 64.6719 9.03646 64.6719 5.82812C64.6719 2.61979 50.1458 0 32.3438 0C14.5365 0 0.015625 2.61979 0.015625 5.82812C0.015625 9.03646 14.5365 11.6562 32.3438 11.6562Z" fill="#D6E4E5"/>
<path fill-rule="evenodd" clip-rule="evenodd" d="M32.3434 10.6041C48.8747 10.6041 62.3643 8.45825 62.3643 5.82804C62.3643 3.19783 48.8747 1.052 32.3434 1.052C15.807 1.052 2.31738 3.19783 2.31738 5.82804C2.31738 8.45825 15.807 10.6041 32.3434 10.6041Z" fill="#BED9D9"/>
<path fill-rule="evenodd" clip-rule="evenodd" d="M57.4424 3.20825C60.5518 3.95825 62.3643 4.85929 62.3643 5.82804C62.3643 7.02075 59.6195 8.10929 55.083 8.94784C56.3382 7.26034 57.4007 5.2395 57.4424 3.20825Z" fill="#AACED1"/>
<path fill-rule="evenodd" clip-rule="evenodd" d="M45.2816 1.51562C47.0732 1.65625 48.766 1.81771 50.3389 2.00521C49.1618 5.21354 46.391 10.0208 45.2972 10.1354C44.0993 10.2292 42.8649 10.3073 41.5889 10.3698C42.9066 8.23958 44.5576 5.13021 45.2816 1.51562Z" fill="#CADCDC"/>
<path fill-rule="evenodd" clip-rule="evenodd" d="M12.4222 9.40104C6.22428 8.52604 2.32324 7.25 2.32324 5.82812C2.32324 4.32292 6.69824 2.98437 13.5368 2.10417C12.8753 4.18229 12.5055 6.91146 12.4222 9.40104ZM19.1618 10.1198C18.0837 10.0208 15.1514 9.75 14.1618 9.625C14.0368 6.77604 14.693 4.49479 15.7868 1.84375C18.7243 1.53646 22.0316 1.30208 25.5837 1.17188C22.1409 3.78646 20.0576 7.33333 19.1618 10.1198Z" fill="#AACED1"/>
</svg>
