<svg width="117" height="70" viewBox="0 0 117 70" fill="none" xmlns="http://www.w3.org/2000/svg">
<path d="M14.0293 1.54272V61.2539C14.0293 66.0868 17.9528 70.0001 22.7857 70.0001H93.8383C98.6712 70.0001 102.584 66.0868 102.584 61.2539V1.54272H14.0293Z" fill="#C1382A"/>
<path d="M25.1781 15.8986C24.4322 17.9626 22.1537 19.0354 20.0897 18.2895L2.62801 12.0058C0.564069 11.2599 -0.50877 8.98137 0.237108 6.91744C0.982985 4.8535 3.26149 3.78066 5.32543 4.52654L22.7872 10.8103C24.8511 11.5562 25.9239 13.8347 25.1781 15.8986Z" fill="#C1382A"/>
<path d="M91.438 15.8986C92.1839 17.9626 94.4624 19.0354 96.5366 18.2895L113.998 12.0058C116.062 11.2599 117.135 8.98137 116.389 6.91744C115.643 4.8535 113.365 3.78066 111.301 4.52654L93.8391 10.8103C91.765 11.5562 90.7024 13.8347 91.438 15.8986Z" fill="#C1382A"/>
<path d="M35.2412 1.54272V61.2539C35.2412 66.0868 37.2847 70.0001 39.7982 70.0001H76.8163C79.34 70.0001 81.3835 66.0868 81.3835 61.2539V1.54272H35.2412Z" fill="#E74C3C"/>
<path d="M104.711 1.32828C104.711 2.06394 104.119 2.65655 103.383 2.65655H13.7653C13.0399 2.65655 12.4473 2.06394 12.4473 1.32828C12.4473 0.602835 13.0399 0 13.7653 0H103.383C104.119 0 104.711 0.602835 104.711 1.32828Z" fill="#CECECE"/>
</svg>
