<svg width="114" height="90" viewBox="0 0 114 90" fill="none" xmlns="http://www.w3.org/2000/svg">
<path d="M15.0884 28.0593C15.0884 28.7612 14.5888 29.3302 13.9701 29.3302H5.89073C5.27211 29.3302 4.77246 28.7612 4.77246 28.0593C4.77246 27.3611 5.27211 26.7921 5.89073 26.7921H13.9701C14.5888 26.7921 15.0884 27.3611 15.0884 28.0593Z" fill="#656A6E"/>
<path d="M6.13179 26.8955C6.13179 26.8955 5.98563 28.4841 6.71642 28.9607C7.4472 29.4336 6.42411 31.6576 3.94284 31.9754C1.46157 32.2931 0 31.0222 0 28.4841C0 25.9424 1.46157 25.4695 2.33511 25.3106C3.21205 25.1517 5.40441 25.1517 6.13179 26.8955Z" fill="#36373B"/>
<path d="M3.21133 26.0494C3.21133 26.0494 0.196419 25.4139 0.485334 28.8017C0.777648 29.2229 0.390161 26.6848 3.21133 26.0494Z" fill="white"/>
<path d="M5.1598 26.0496C5.1598 26.0496 5.55069 28.6948 4.57518 29.5408C4.01094 30.0322 2.82809 30.3794 1.81519 30.3794C1.0844 30.3794 0.441993 30.1984 0.197266 29.7514C0.197266 30.2206 1.115 31.8535 3.4841 31.8535C3.79001 31.8535 4.12311 31.824 4.48 31.7648C6.23049 31.1294 7.00886 29.9657 6.62137 29.5408C6.23049 29.1196 6.03335 26.8956 5.89059 26.7921C5.74443 26.685 5.843 26.2638 5.1598 26.0496Z" fill="#303134"/>
<path d="M8.09302 26.8032C8.09302 26.8032 5.46559 28.51 7.88568 29.2231C9.34385 29.3302 11.5838 29.2231 11.5838 29.2231C11.5838 29.2231 12.0732 26.8956 11.5838 26.8956C11.0977 26.8956 8.09302 26.8032 8.09302 26.8032Z" fill="#53575C"/>
<path d="M97.9717 28.0593C97.9717 28.7612 98.4713 29.3302 99.0933 29.3302H107.173C107.788 29.3302 108.291 28.7612 108.291 28.0593C108.291 27.3611 107.788 26.7921 107.173 26.7921H99.0933C98.4713 26.7921 97.9717 27.3611 97.9717 28.0593Z" fill="#656A6E"/>
<path d="M106.925 26.8955C106.925 26.8955 107.071 28.4841 106.343 28.9607C105.613 29.4336 106.636 31.6576 109.117 31.9754C111.598 32.2931 113.06 31.0222 113.06 28.4841C113.06 25.9424 111.598 25.4695 110.725 25.3106C109.848 25.1517 107.655 25.1517 106.925 26.8955Z" fill="#36373B"/>
<path d="M109.848 26.0494C109.848 26.0494 112.866 25.4139 112.574 28.8017C112.281 29.2229 112.669 26.6848 109.848 26.0494Z" fill="white"/>
<path d="M107.9 26.0496C107.217 26.2638 107.315 26.685 107.173 26.7921C107.026 26.8956 106.829 29.1196 106.442 29.5408C106.051 29.9657 106.829 31.1294 108.58 31.7648C108.937 31.824 109.27 31.8535 109.576 31.8535C111.948 31.8535 112.866 30.2206 112.866 29.7514C112.618 30.1984 111.975 30.3794 111.245 30.3794C110.232 30.3794 109.049 30.0322 108.485 29.5408C107.509 28.6948 107.9 26.0496 107.9 26.0496Z" fill="#303134"/>
<path d="M104.966 26.8032C104.966 26.8032 107.597 28.51 105.173 29.2231C103.712 29.3302 101.475 29.2231 101.475 29.2231C101.475 29.2231 100.986 26.8956 101.475 26.8956C101.961 26.8956 104.966 26.8032 104.966 26.8032Z" fill="#53575C"/>
<path d="M17.4726 15.8121L10.0254 18.3539L16.5957 79.1346C16.5957 84.9644 34.4098 89.6896 56.3843 89.6896C78.3554 89.6896 96.1696 84.9644 96.1696 79.1346L102.743 19.5435L17.4726 15.8121Z" fill="#B82030"/>
<path d="M96.2154 78.7432L96.1712 79.1348C96.1712 79.1459 96.1712 79.1532 96.1712 79.1643C96.195 79.0276 96.2086 78.8872 96.2154 78.7432ZM91.9088 83.8932C90.9911 84.3735 89.9374 84.8353 88.7614 85.2712C88.5438 85.371 88.3297 85.467 88.1088 85.5631C89.5227 85.0569 90.8042 84.4991 91.9088 83.8932ZM76.9906 88.164C70.9812 89.1319 63.9283 89.6898 56.3859 89.6898C55.39 89.6898 54.4043 89.6787 53.4288 89.6602C52.9971 89.6787 52.5586 89.6898 52.1134 89.6898C52.0896 89.6898 52.0658 89.6898 52.042 89.6898C52.9053 89.8893 54.6864 90.0001 57.0555 90.0001C62.1914 90.0001 70.1009 89.4755 77.4699 88.2046C77.3033 88.1972 77.1436 88.1824 76.9906 88.164Z" fill="#E09A98"/>
<path d="M102.418 20.6742C102.412 20.7222 102.405 20.7702 102.401 20.8183C102.408 20.7702 102.412 20.7222 102.418 20.6742ZM102.283 21.9635H102.279C101.011 33.8337 96.6742 74.4355 96.2153 78.7173C95.9672 81.0633 92.6701 83.4647 88.7613 85.2713C89.9373 84.8353 90.991 84.3735 91.9088 83.8932C94.3085 82.5743 95.8822 81.0079 96.1711 79.1644C96.1711 79.1533 96.1711 79.1459 96.1711 79.1348L96.2153 78.7432C96.2153 78.7358 96.2153 78.7284 96.2153 78.7173C97.2112 69.4111 101.093 33.0727 102.283 21.9635ZM90.0325 24.2356C84.2678 25.1001 78.5643 25.6764 73.0137 26.0237C77.3679 28.6135 81.671 33.8781 81.3753 44.5661C80.8042 65.3805 74.4753 88.7292 53.4287 89.6602C54.4042 89.6787 55.3899 89.6898 56.3858 89.6898C63.9282 89.6898 70.9811 89.1319 76.9906 88.164C76.8546 88.1492 76.7288 88.1271 76.6065 88.1012C91.0862 86.339 92.3778 71.9122 93.6898 44.7766C94.2575 33.0284 92.3642 27.1394 90.0325 24.2356Z" fill="#A11B24"/>
<path d="M102.417 20.6742C102.271 20.7259 102.118 20.7776 101.962 20.8294C102.139 20.8257 102.285 20.822 102.4 20.8183C102.404 20.7702 102.411 20.7222 102.417 20.6742Z" fill="#8E191E"/>
<path d="M88.1076 85.563C85.0247 86.6676 81.3198 87.5395 77.4688 88.2045C77.5945 88.2119 77.7237 88.2119 77.8596 88.2119C80.4157 88.2119 84.4605 87.159 88.1076 85.563Z" fill="#E09A98"/>
<path d="M88.761 85.2711C85.6203 86.4349 81.6163 87.4213 76.9902 88.1639C77.1432 88.1823 77.3029 88.1971 77.4695 88.2045C81.3206 87.5395 85.0255 86.6676 88.1084 85.563C88.3293 85.4669 88.5434 85.3709 88.761 85.2711Z" fill="#C56263"/>
<path d="M102.28 21.9634C98.1877 22.8796 94.0987 23.6296 90.0335 24.2355C92.3652 27.1393 94.2584 33.0282 93.6908 44.7765C92.3788 71.912 91.0872 86.3388 76.6074 88.101C76.7298 88.1269 76.8555 88.149 76.9915 88.1638C81.6175 87.4212 85.6216 86.4348 88.7622 85.2711C92.6711 83.4645 95.9681 81.0631 96.2162 78.7172C96.6751 74.4353 101.012 33.8336 102.28 21.9634Z" fill="#8E191E"/>
<path d="M18.2998 29.1159C18.2998 29.1159 26.7701 29.0125 27.1576 29.1159C27.5485 29.2231 31.9264 66.256 30.8591 72.7065C30.2745 73.5525 25.5057 73.7668 25.5057 73.7668L18.2998 29.1159Z" fill="white"/>
<path d="M26.5724 76.7259C26.6709 77.1508 25.9877 83.3944 28.8123 83.0766C31.6335 82.7552 30.4676 75.6693 30.4676 75.6693L26.5724 76.7259Z" fill="white"/>
<path d="M10.3203 20.8108C10.3203 20.8108 16.5983 76.3565 16.5983 79.1347C16.5983 79.1384 16.5983 79.1384 16.5983 79.1421C16.6085 81.9166 20.9796 83.9744 21.5608 84.1333C16.8906 80.3243 13.2401 38.1118 13.0939 29.8584C13.0021 24.7232 14.6064 23.2122 15.8335 22.8058C13.1109 22.3292 11.3434 21.9561 10.718 21.8194C10.7554 21.9228 10.7554 21.9228 10.7554 21.9228L10.4665 21.764C10.4665 21.764 10.5514 21.7861 10.718 21.8194C10.667 21.6938 10.5582 21.4204 10.3203 20.8108Z" fill="#A11B24"/>
<path d="M102.746 20.8108C102.746 20.8108 102.695 20.8108 102.603 20.8145L102.559 21.2061C102.647 20.9881 102.746 20.8108 102.746 20.8108Z" fill="#AEB3DA"/>
<path d="M102.602 20.8145C102.547 20.8181 102.483 20.8181 102.401 20.8181C102.364 21.1617 102.323 21.5459 102.282 21.9634C102.337 21.9486 102.394 21.9376 102.452 21.9228C102.371 21.7528 102.462 21.4499 102.558 21.2061L102.602 20.8145Z" fill="#7D1526"/>
<path d="M102.4 20.8182C102.363 21.1618 102.322 21.546 102.277 21.9635H102.281C102.322 21.546 102.363 21.1618 102.4 20.8182Z" fill="#6E131E"/>
<path d="M10.3203 20.8108C10.3203 20.8108 14.5487 22.344 16.4011 22.6839C16.5065 22.6728 16.6051 22.6691 16.6934 22.6691C16.9925 22.6691 17.1829 22.7171 17.1829 22.7171C17.1319 22.7393 17.0605 22.7467 16.9688 22.7467C16.8226 22.7467 16.6323 22.7245 16.4011 22.6839C16.2278 22.7023 16.034 22.7393 15.8335 22.8058C23.7124 24.1912 39.5653 26.467 58.6711 26.467C63.2835 26.467 68.0897 26.334 73.0148 26.0236C71.6382 25.2072 70.2548 24.653 69.0108 24.2799C65.0102 24.3981 60.7784 24.4646 56.3869 24.4646C35.2316 24.4646 17.8967 22.9905 11.0885 20.9179C10.7962 20.881 10.5378 20.8477 10.3203 20.8108Z" fill="#7D1526"/>
<path d="M88.8871 23.0607C83.3331 23.6296 76.5759 24.0545 69.0098 24.2798C70.2538 24.653 71.6372 25.2071 73.0138 26.0236C78.5643 25.6763 84.2679 25.1 90.0326 24.2355C89.6587 23.7737 89.2746 23.3858 88.8871 23.0607Z" fill="#6E131E"/>
<path d="M102.402 20.8182C102.287 20.8219 102.14 20.8256 101.964 20.8293C99.2716 21.6938 94.751 22.4586 88.8877 23.0608C89.2752 23.3859 89.6593 23.7738 90.0332 24.2356C94.0984 23.6297 98.1874 22.8797 102.28 21.9635C102.324 21.546 102.365 21.1618 102.402 20.8182Z" fill="#601119"/>
<path d="M10.3203 20.8108C10.5582 21.4204 10.667 21.6938 10.718 21.8194C11.3434 21.9561 13.1109 22.3292 15.8335 22.8058C16.034 22.7393 16.2278 22.7023 16.4011 22.6839C14.5487 22.344 10.3203 20.8108 10.3203 20.8108ZM10.4665 21.764L10.7554 21.9228C10.7554 21.9228 10.7554 21.9228 10.718 21.8194C10.5514 21.7861 10.4665 21.764 10.4665 21.764ZM16.6934 22.6691C16.6051 22.6691 16.5065 22.6728 16.4011 22.6839C16.6323 22.7245 16.8226 22.7467 16.9688 22.7467C17.0605 22.7467 17.1319 22.7393 17.1829 22.7171C17.1829 22.7171 16.9925 22.6691 16.6934 22.6691Z" fill="#6E131E"/>
<path d="M104.787 18.9414C104.787 21.9893 83.7946 24.4646 56.3851 24.4646C28.9756 24.4646 7.9834 21.9893 7.9834 18.9414C7.9834 15.8935 28.9756 10.0231 56.3851 10.0231C83.7946 10.0231 104.787 15.8935 104.787 18.9414Z" fill="#C7CBCA"/>
<path d="M101.546 17.7149C101.546 21.0029 81.1617 23.674 56.0193 23.674C30.877 23.674 10.4932 21.0029 10.4932 17.7149C10.4932 14.4195 30.3943 8.58228 55.5367 8.58228C80.6791 8.58228 101.546 14.4195 101.546 17.7149Z" fill="#9EA3A5"/>
<path d="M76.3975 11.5599C76.9142 11.5599 93.0492 13.7803 97.0872 17.2715C97.9132 18.0658 92.0159 18.3835 92.0159 18.3835C92.0159 18.3835 90.2586 16.8504 75.8809 12.1437C76.0848 11.9294 76.3975 11.5599 76.3975 11.5599Z" fill="white"/>
<path d="M15.4311 14.3048C13.7554 14.8664 12.2123 15.5942 11.3115 16.4217C11.3319 16.4106 11.3591 16.3995 11.3829 16.3885C12.2055 15.7235 13.5821 15.0141 15.4311 14.3048Z" fill="#CFD0D0"/>
<path d="M11.383 16.3885C11.3592 16.3996 11.332 16.4107 11.3116 16.4218C11.2062 16.5142 11.111 16.6102 11.0295 16.7063C11.1314 16.6028 11.247 16.4957 11.383 16.3885ZM10.4958 17.7518C10.4754 17.8885 10.4788 18.0289 10.5026 18.173C10.8255 18.5757 11.383 18.9599 12.1681 19.3256C12.1715 19.3256 12.1715 19.3219 12.1749 19.3219C11.1042 18.8232 10.5196 18.2949 10.4958 17.7518ZM100.304 19.0966C97.6835 20.5411 91.0555 21.7787 82.0481 22.6026C93.6115 21.6125 98.4279 20.2418 100.304 19.0966ZM65.6208 23.5373C64.805 23.5631 63.9858 23.5816 63.1531 23.6001C63.1463 23.6075 63.1361 23.6149 63.1259 23.6222C63.9756 23.5964 64.805 23.5668 65.6208 23.5373Z" fill="#A3A8A9"/>
<path d="M16.8148 13.8873C16.3492 14.0129 15.8869 14.1533 15.4314 14.3048C13.5824 15.0141 12.2058 15.7235 11.3832 16.3885C11.2473 16.4956 11.1317 16.6027 11.0297 16.7062C10.734 17.0424 10.5437 17.3896 10.4961 17.7517C10.5199 18.2948 11.1045 18.8231 12.1752 19.3218C12.7666 18.8379 13.4192 18.3724 14.1194 17.9253C12.1582 15.838 16.8148 13.8873 16.8148 13.8873ZM101.018 17.0091C102.425 19.5694 88.0918 21.9375 63.7244 22.5951C63.6156 23.0347 63.4287 23.3783 63.1534 23.6C63.9861 23.5815 64.8053 23.563 65.621 23.5372C72.2253 23.3044 77.6297 22.983 82.0484 22.6025C91.0557 21.7786 97.6838 20.541 100.304 19.0965C102.018 18.0583 101.297 17.2123 101.018 17.0091ZM22.1343 20.722C21.7196 21.0471 21.3525 21.3168 21.0194 21.5163C26.6447 22.3697 34.2891 22.9904 43.5615 23.3414C43.6091 23.0901 43.6635 22.8389 43.7213 22.5877C33.5991 22.2035 26.7263 21.5311 22.1343 20.722ZM48.0958 22.7318C48.055 23.1234 48.0346 23.3894 48.0244 23.4891C49.1733 23.5187 50.3459 23.5446 51.539 23.5704C51.4642 23.3081 51.3962 23.0384 51.3385 22.7687C50.8354 22.7724 50.3256 22.7724 49.8157 22.7724C49.2311 22.7576 48.66 22.7429 48.0958 22.7318Z" fill="#81868B"/>
<path d="M40.5975 9.32104C40.0027 9.36538 39.6764 9.39124 39.6764 9.39124C39.6764 9.39124 37.9293 9.72743 36.8926 10.2077C37.9701 9.99712 38.9592 9.80871 39.8361 9.65724C40.0299 9.54271 40.2848 9.42818 40.5975 9.32104ZM70.7874 9.46513C71.3176 9.69049 71.6065 9.93432 71.6065 10.1855C71.6065 10.2151 71.5997 10.2483 71.5895 10.2779C71.5997 10.3112 71.6065 10.3444 71.6065 10.3777C71.6065 10.3924 71.6031 10.4072 71.6031 10.422C71.6031 10.4368 71.6065 10.4515 71.6065 10.4663C71.6065 11.4971 67.2966 12.3763 61.2294 12.7236C61.3348 12.9231 61.4367 13.1263 61.5421 13.3369C77.2183 13.2852 77.497 10.7138 70.7874 9.46513ZM39.503 10.7434C38.6805 11.0168 37.8953 11.3013 37.1407 11.5894C38.5275 12.0549 41.5492 12.5093 47.3377 12.8714C47.3921 12.7643 47.4431 12.6608 47.4975 12.5611C43.1637 12.1879 40.0978 11.5192 39.503 10.7434ZM49.7238 12.7199C49.7 12.8123 49.6796 12.9083 49.6558 13.0044C50.5192 13.0487 51.4369 13.0931 52.4022 13.1337C52.4396 13.0339 52.4736 12.9342 52.511 12.8381C51.5491 12.8123 50.6177 12.7679 49.7238 12.7199Z" fill="#8E9497"/>
<path d="M12.1664 19.3256C12.163 19.3293 12.1596 19.333 12.1562 19.3366C12.6729 19.5472 15.2595 20.7627 20.9495 21.557C20.9699 21.5459 20.9902 21.5348 21.0072 21.5201C20.5144 21.4462 20.0385 21.3649 19.5729 21.2836C16.2554 20.7221 13.7504 20.0644 12.1664 19.3256Z" fill="#ABB1B1"/>
<path d="M36.8924 10.2078C30.2202 11.5378 20.2543 14.0278 14.1191 17.9254C15.0233 18.8897 17.3278 19.8798 22.134 20.7221C24.622 18.7751 28.8198 14.7999 37.1406 11.5895C35.6654 11.1018 36.0393 10.6068 36.8924 10.2078ZM19.5745 21.2837C20.0402 21.3649 20.5161 21.4462 21.0089 21.5201C21.0123 21.5201 21.0157 21.5164 21.0191 21.5164C20.5229 21.4388 20.0402 21.3649 19.5745 21.2837Z" fill="#898E92"/>
<path d="M12.1757 19.322C12.1723 19.322 12.1723 19.3257 12.1689 19.3257C13.7529 20.0646 16.2579 20.7222 19.5754 21.2838C16.2477 20.7037 13.7121 20.0424 12.1757 19.322Z" fill="#8D9295"/>
<path d="M14.119 17.9255C13.4188 18.3726 12.7662 18.8381 12.1748 19.322C13.7112 20.0424 16.2468 20.7037 19.5744 21.2838C20.0401 21.365 20.5227 21.4389 21.019 21.5165C21.3521 21.317 21.7192 21.0473 22.1339 20.7222C17.3277 19.8799 15.0232 18.8898 14.119 17.9255Z" fill="#6F757B"/>
<path d="M39.8358 9.65735C38.9589 9.80882 37.9697 9.99724 36.8923 10.2078C36.0391 10.6068 35.6652 11.1019 37.1404 11.5895C37.895 11.3014 38.6801 11.0169 39.5027 10.7435C39.4347 10.6511 39.4007 10.5588 39.4007 10.4664C39.4007 10.4517 39.4007 10.4369 39.4041 10.4221C39.4007 10.4073 39.4007 10.3925 39.4007 10.3778C39.4007 10.3445 39.4041 10.3113 39.4143 10.278C39.4041 10.2485 39.4007 10.2152 39.4007 10.1857C39.4007 10.0009 39.5503 9.82729 39.8358 9.65735Z" fill="#7A8185"/>
<path d="M63.1249 23.6223C62.5573 23.6408 61.9795 23.6556 61.3982 23.674C60.5111 23.6703 59.6307 23.6666 58.7606 23.663C57.8531 23.6666 56.9387 23.674 56.0176 23.674C54.5153 23.674 53.0265 23.663 51.5615 23.6445C51.5649 23.6556 51.5683 23.663 51.5717 23.674C52.2583 23.674 55.433 23.7442 58.6042 23.7442C60.1916 23.7442 61.7755 23.7258 63.0535 23.674C63.0773 23.6556 63.1011 23.6408 63.1249 23.6223Z" fill="#ABB1B1"/>
<path d="M52.4025 13.1337C51.4678 15.8306 50.6418 19.4696 51.3386 22.7687C55.7064 22.7613 59.8429 22.6985 63.7246 22.5951C64.2208 20.5964 63.157 16.6249 61.5424 13.3369C61.3895 13.3369 61.2331 13.3369 61.0768 13.3369C58.6533 13.3369 55.8763 13.2777 52.7084 13.1484C52.6065 13.1411 52.5079 13.1374 52.4025 13.1337ZM51.5392 23.5704C51.5494 23.5926 51.5562 23.6185 51.563 23.6443C53.0279 23.6628 54.5167 23.6739 56.0191 23.6739C56.9402 23.6739 57.8545 23.6665 58.7621 23.6628C56.2774 23.6443 53.8709 23.6148 51.5392 23.5704Z" fill="#898E92"/>
<path d="M63.1532 23.6002C61.712 23.6298 60.2471 23.6482 58.7617 23.663C59.6319 23.6667 60.5122 23.6704 61.3993 23.6741C61.9806 23.6556 62.5584 23.6409 63.126 23.6224C63.1362 23.615 63.1464 23.6076 63.1532 23.6002Z" fill="#8D9295"/>
<path d="M63.7229 22.5951C59.8412 22.6985 55.7046 22.7613 51.3369 22.7687C51.3947 23.0384 51.4627 23.3081 51.5375 23.5704C53.8692 23.6148 56.2757 23.6443 58.7603 23.6628C60.2457 23.648 61.7107 23.6295 63.1518 23.6C63.4272 23.3783 63.6141 23.0347 63.7229 22.5951Z" fill="#6F757B"/>
<path d="M61.2286 12.7236C59.4509 12.8234 57.5169 12.8788 55.5013 12.8788C54.4782 12.8788 53.4788 12.864 52.5101 12.8382C52.4727 12.9342 52.4388 13.034 52.4014 13.1337C52.5067 13.1374 52.6053 13.1411 52.7073 13.1485C55.8751 13.2778 58.6521 13.3369 61.0756 13.3369C61.232 13.3369 61.3883 13.3369 61.5413 13.3369C61.4359 13.1263 61.3339 12.9231 61.2286 12.7236Z" fill="#7A8185"/>
<path d="M43.5405 23.4449C43.5371 23.4486 43.5371 23.456 43.5371 23.4597C44.3767 23.5078 45.3726 23.5262 46.2121 23.5336C45.3114 23.5078 44.4208 23.4782 43.5405 23.4449Z" fill="#E3E5E2"/>
<path d="M47.3367 12.8715C46.1029 15.3393 44.5563 18.8897 43.7202 22.5878C45.1138 22.6395 46.5753 22.6876 48.0947 22.7319C48.2748 20.9623 48.7779 16.6065 49.6548 13.0045C48.8357 12.9601 48.0675 12.9195 47.3367 12.8715ZM43.5604 23.3415C43.5536 23.3784 43.5434 23.4117 43.54 23.4449C44.4204 23.4782 45.3109 23.5077 46.2117 23.5336C46.4904 23.5373 46.7521 23.5373 46.9866 23.5373C47.6052 23.5373 48.0199 23.5299 48.0199 23.5299C48.0199 23.5299 48.0199 23.5151 48.0233 23.4892C46.4972 23.4449 45.005 23.3969 43.5604 23.3415Z" fill="#CCCECE"/>
<path d="M43.7213 22.5876C43.6635 22.8389 43.6091 23.0901 43.5615 23.3413C45.0061 23.3967 46.4983 23.4448 48.0244 23.4891C48.0346 23.3893 48.055 23.1233 48.0958 22.7317C46.5764 22.6874 45.1149 22.6394 43.7213 22.5876Z" fill="#BBBEBF"/>
<path d="M47.4967 12.5612C47.4423 12.6609 47.3913 12.7644 47.3369 12.8715C48.0677 12.9195 48.8359 12.9602 49.655 13.0045C49.6788 12.9084 49.6992 12.8124 49.723 12.72C48.9514 12.6757 48.2071 12.6203 47.4967 12.5612Z" fill="#C3C5C6"/>
<path d="M71.6031 10.4221C71.4807 11.4344 67.1878 12.2952 61.1817 12.6351C61.1987 12.6646 61.2123 12.6942 61.2293 12.7237C67.2965 12.3765 71.6065 11.4972 71.6065 10.4665C71.6065 10.4517 71.6031 10.4369 71.6031 10.4221ZM39.5641 10.7251C39.5437 10.7288 39.5233 10.7361 39.5029 10.7435C40.0978 11.5194 43.1637 12.1881 47.4974 12.5612C47.511 12.5316 47.5246 12.5021 47.5416 12.4762C43.3132 12.1142 40.2813 11.475 39.5641 10.7251ZM49.7475 12.6314C49.7407 12.6609 49.7339 12.6905 49.7237 12.7201C50.6177 12.7681 51.549 12.8124 52.5109 12.8383C52.5177 12.8087 52.5313 12.7792 52.5415 12.7496C51.5762 12.7237 50.6448 12.6831 49.7475 12.6314Z" fill="#678798"/>
<path d="M39.4048 10.4221C39.4014 10.4369 39.4014 10.4517 39.4014 10.4665C39.4014 10.5588 39.4355 10.6512 39.5037 10.7435C39.5241 10.7361 39.5446 10.7288 39.5651 10.7251C39.4696 10.6253 39.415 10.5219 39.4048 10.4221Z" fill="#597786"/>
<path d="M61.1816 12.6349C59.4175 12.7346 57.5039 12.7901 55.5019 12.7901C54.489 12.7901 53.4999 12.7753 52.5413 12.7494C52.5311 12.779 52.5175 12.8085 52.5107 12.8381C53.4795 12.8639 54.4788 12.8787 55.5019 12.8787C57.5175 12.8787 59.4515 12.8233 61.2292 12.7236C61.2122 12.694 61.1986 12.6644 61.1816 12.6349Z" fill="#597786"/>
<path d="M47.5422 12.4762C47.5252 12.5021 47.5116 12.5316 47.498 12.5612C48.2084 12.6203 48.9528 12.6757 49.7244 12.72C49.7346 12.6905 49.7414 12.6609 49.7482 12.6314C48.9834 12.587 48.2458 12.5353 47.5422 12.4762Z" fill="#8AB5C7"/>
<path d="M71.6069 10.3778C71.6069 11.7115 64.3976 12.7903 55.5024 12.7903C46.6072 12.7903 39.4014 11.7115 39.4014 10.3778C39.4014 9.04411 46.6072 7.96533 55.5024 7.96533C64.3976 7.96533 71.6069 9.04411 71.6069 10.3778Z" fill="#DD1A42"/>
<path d="M71.6069 10.1856C71.6069 11.4417 64.3976 12.4614 55.5024 12.4614C46.6072 12.4614 39.4014 11.4417 39.4014 10.1856C39.4014 8.92579 46.6072 7.90613 55.5024 7.90613C64.3976 7.90613 71.6069 8.92579 71.6069 10.1856Z" fill="#EF2D4B"/>
<path d="M68.8558 9.79398C68.8558 10.8395 62.877 11.6818 55.5011 11.6818C48.1253 11.6818 42.1465 10.8395 42.1465 9.79398C42.1465 8.75215 48.1253 7.90613 55.5011 7.90613C62.877 7.90613 68.8558 8.75215 68.8558 9.79398Z" fill="#ED2A49"/>
<path d="M66.113 9.40976C66.113 10.2373 61.3612 10.9097 55.5013 10.9097C49.6414 10.9097 44.8896 10.2373 44.8896 9.40976C44.8896 8.57851 49.6414 7.90613 55.5013 7.90613C61.3612 7.90613 66.113 8.57851 66.113 9.40976Z" fill="#DE2946"/>
<path d="M63.0577 8.82231H63.0645L63.0305 8.80754C62.9863 8.78537 62.9421 8.7669 62.8945 8.74473C62.2623 8.46396 60.087 4.90253 60.5016 3.40259C58.4419 3.28437 51.6744 2.52332 51.6744 2.52332H51.1238L50.2367 3.43584C50.2367 3.43584 50.0973 7.96151 48.2992 8.67823L48.1905 8.71518L48.0919 8.74843L48.0987 8.75212C47.8268 8.85926 47.6738 8.97748 47.6738 9.0994C47.6738 9.69789 51.1782 10.1856 55.5017 10.1856C59.8252 10.1856 63.3296 9.69789 63.3296 9.0994C63.3296 9.00334 63.2276 8.91098 63.0577 8.82231Z" fill="#D41F40"/>
<path d="M50.2372 3.43591C50.2372 3.4433 50.2304 3.50241 50.2168 3.60216C50.2202 3.60216 50.2236 3.60216 50.227 3.60216C50.2338 3.50241 50.2372 3.4433 50.2372 3.43591Z" fill="#F3A5B9"/>
<path d="M50.2358 3.43591C50.2358 3.4433 50.2324 3.50241 50.2256 3.60216C51.9965 3.69083 56.9658 6.45057 57.1901 7.52195C57.3703 8.37536 57.1969 9.51694 55.5858 10.1856C57.7476 10.1819 59.6986 10.0563 61.099 9.85683C61.0956 9.85683 61.0922 9.85683 61.0854 9.85683C57.7374 9.85683 59.1276 5.53435 59.3281 4.67355C59.5354 3.79058 57.9481 3.61694 57.9481 3.61694C57.9481 3.61694 58.39 3.58 59.0324 3.52827C57.9107 3.57261 56.7245 3.59847 55.5008 3.59847C53.6246 3.59847 51.8401 3.53936 50.2358 3.43591ZM62.8971 8.7485C62.9922 8.84825 63.0704 8.91105 63.1214 8.93322C63.5701 9.12903 62.7101 9.48 61.5918 9.77924C62.6591 9.59822 63.3083 9.36547 63.3287 9.11425V9.10686C63.3287 9.10316 63.3287 9.10316 63.3287 9.10316V9.09947C63.3287 9.00342 63.2268 8.91105 63.0568 8.82239H63.0636L63.0296 8.80761C62.9888 8.78914 62.9446 8.76697 62.8971 8.7485Z" fill="#C71C35"/>
<path d="M68.2276 1.79919C68.2276 2.79299 62.5275 3.59837 55.5017 3.59837C48.4726 3.59837 42.7793 2.79299 42.7793 1.79919C42.7793 0.805385 48.4726 0 55.5017 0C62.5275 0 68.2276 0.805385 68.2276 1.79919Z" fill="#F03D52"/>
<path d="M67.5409 1.70313C67.5409 2.64152 62.1501 3.40257 55.5017 3.40257C48.8532 3.40257 43.4658 2.64152 43.4658 1.70313C43.4658 0.764746 48.8532 0 55.5017 0C62.1501 0 67.5409 0.764746 67.5409 1.70313Z" fill="#F03D52"/>
<path d="M68.2276 1.79919C68.2276 2.79299 62.5275 3.59837 55.5017 3.59837C48.4726 3.59837 42.7793 2.79299 42.7793 1.79919C42.7793 0.805385 48.4726 0 55.5017 0C62.5275 0 68.2276 0.805385 68.2276 1.79919Z" fill="#DD1A42"/>
<path d="M67.5409 1.66619C67.5409 2.58979 62.1501 3.33607 55.5017 3.33607C48.8532 3.33607 43.4658 2.58979 43.4658 1.66619C43.4658 0.746274 48.8532 0 55.5017 0C62.1501 0 67.5409 0.746274 67.5409 1.66619Z" fill="#EF2D4B"/>
<path d="M55.5448 0.265991C59.3211 0.269685 62.3802 0.694545 62.3802 1.21915C62.3802 1.74376 59.3007 2.16862 55.5007 2.16862C51.7006 2.16862 48.6211 1.74376 48.6211 1.21915C48.6211 0.694545 51.6768 0.269685 55.4565 0.265991C50.5177 0.269685 46.5205 0.823849 46.5205 1.51101C46.5205 2.19448 50.5415 2.75234 55.5007 2.75234C60.4598 2.75234 64.4808 2.19448 64.4808 1.51101C64.4808 0.823849 60.4836 0.269685 55.5448 0.265991Z" fill="#EF354E"/>
<path d="M55.5026 0.265991C55.489 0.265991 55.472 0.265991 55.4584 0.265991C51.6787 0.269685 48.623 0.694545 48.623 1.21915C48.623 1.74376 51.7025 2.16862 55.5026 2.16862C59.3027 2.16862 62.3822 1.74376 62.3822 1.21915C62.3822 0.694545 59.3231 0.269685 55.5468 0.265991C55.5332 0.265991 55.5162 0.265991 55.5026 0.265991Z" fill="#F03E50"/>
<path d="M58.1667 1.37065C58.2585 1.33001 58.3095 1.28567 58.3095 1.24504C58.3095 1.02706 57.0519 0.849731 55.5019 0.849731C53.952 0.849731 52.6943 1.02706 52.6943 1.24504C52.6943 1.28567 52.7453 1.33001 52.8337 1.37065C53.2042 1.21179 54.2579 1.09726 55.5019 1.09726C56.7459 1.09726 57.7996 1.21179 58.1667 1.37065Z" fill="#CF263C"/>
<path d="M58.1651 1.37056C57.798 1.21169 56.7443 1.09717 55.5002 1.09717C54.2562 1.09717 53.2025 1.21169 52.832 1.37056C53.2025 1.52572 54.2562 1.64025 55.5002 1.64025C56.7443 1.64025 57.798 1.52572 58.1651 1.37056Z" fill="#EF2B45"/>
<path d="M60.491 3.45435C60.4876 3.45435 60.4876 3.45435 60.4876 3.45435C60.4638 3.56887 60.4502 3.69818 60.4502 3.83487C60.4502 5.07989 61.5107 7.09336 62.2823 8.12041C62.3162 8.12041 62.3502 8.1241 62.3842 8.1241C61.4937 6.91602 60.2225 4.66612 60.491 3.45435Z" fill="#F1BBC7"/>
<path d="M62.2842 8.12048C62.2944 8.13896 62.3115 8.15373 62.3251 8.17221C62.3592 8.1759 62.3933 8.17959 62.4308 8.18329C62.4138 8.16482 62.4035 8.14634 62.3865 8.12418C62.3524 8.12418 62.3183 8.12048 62.2842 8.12048Z" fill="#EA2541"/>
<path d="M62.3242 8.17224C62.3481 8.20549 62.372 8.23874 62.3958 8.2683C62.4334 8.27199 62.4675 8.27569 62.505 8.27938C62.4777 8.24982 62.4538 8.21658 62.4299 8.18332C62.3924 8.17963 62.3583 8.17594 62.3242 8.17224Z" fill="#E0253F"/>
<path d="M62.3951 8.26807C62.5991 8.51929 62.7724 8.69293 62.8948 8.74465C62.8948 8.74834 62.8982 8.74834 62.8982 8.74834C62.7894 8.63381 62.6535 8.47495 62.5039 8.27915C62.4665 8.27546 62.4325 8.27176 62.3951 8.26807ZM61.5896 9.78278C61.4366 9.80864 61.2769 9.8345 61.1035 9.85667C61.1783 9.85667 61.2531 9.85298 61.3278 9.84928C61.4196 9.82712 61.5046 9.80495 61.5896 9.78278Z" fill="#D1243C"/>
<path d="M61.5925 9.7793C61.4361 9.80516 61.273 9.83471 61.0996 9.85688C61.103 9.85688 61.103 9.85688 61.103 9.85688C61.2764 9.83471 61.4361 9.80885 61.5891 9.78299C61.5925 9.78299 61.5925 9.7793 61.5925 9.7793Z" fill="#C81D38"/>
<path d="M60.4873 3.45435C60.0148 3.4839 59.5288 3.50976 59.0325 3.52823C58.3901 3.57996 57.9482 3.6169 57.9482 3.6169C57.9482 3.6169 59.5356 3.79054 59.3282 4.67351C59.1277 5.53431 57.7375 9.85679 61.0855 9.85679C61.0923 9.85679 61.0957 9.85679 61.0991 9.85679C61.2725 9.83462 61.4356 9.80507 61.592 9.77921C62.7102 9.47996 63.5702 9.12899 63.1215 8.93318C63.0705 8.91102 62.9924 8.84821 62.8972 8.74846C62.8972 8.74846 62.8938 8.74846 62.8938 8.74477C62.316 8.48616 60.4499 5.48998 60.4499 3.83487C60.4499 3.69818 60.4635 3.56887 60.4873 3.45435Z" fill="#BC1B2F"/>
<path d="M60.5006 3.40259C59.9703 3.45062 59.4571 3.49495 59.0322 3.5282C59.5319 3.50973 60.0179 3.48387 60.4904 3.45431C60.4938 3.43584 60.4972 3.42106 60.5006 3.40259Z" fill="#D11939"/>
</svg>
