<svg width="120" height="100" viewBox="0 0 120 100" fill="none" xmlns="http://www.w3.org/2000/svg">
<path d="M15.9623 34.4728C15.9623 35.2139 15.4335 35.8189 14.7795 35.8189H6.23216C5.57815 35.8189 5.0459 35.2139 5.0459 34.4728C5.0459 33.7317 5.57815 33.1305 6.23216 33.1305H14.7795C15.4335 33.1305 15.9623 33.7317 15.9623 34.4728Z" fill="#656A6E"/>
<path d="M6.48793 33.2398C6.48793 33.2398 6.33486 34.9187 7.10715 35.4253C7.87944 35.9282 6.79754 38.2801 4.17106 38.6128C1.54458 38.9531 0 37.6071 0 34.9187C0 32.234 1.54458 31.7312 2.47341 31.5648C3.39877 31.3946 5.71564 31.3946 6.48793 33.2398Z" fill="#36373B"/>
<path d="M3.39973 32.3477C3.39973 32.3477 0.209688 31.6747 0.515821 35.2554C0.825432 35.7054 0.411457 33.017 3.39973 32.3477Z" fill="white"/>
<path d="M5.45749 32.3479C5.45749 32.3479 5.87146 35.1459 4.84174 36.0421C4.24339 36.5601 2.98755 36.9269 1.91957 36.9269C1.1438 36.9269 0.465437 36.734 0.208008 36.2614C0.208008 36.7605 1.17511 38.4847 3.68331 38.4847C4.01032 38.4847 4.36167 38.4545 4.73738 38.3902C6.59157 37.7209 7.41604 36.4883 7.00207 36.0421C6.59157 35.5921 6.38284 33.244 6.22978 33.1306C6.07671 33.0172 6.18108 32.571 5.45749 32.3479Z" fill="#303134"/>
<path d="M8.56173 33.1455C8.56173 33.1455 5.78219 34.9491 8.34257 35.7053C9.88715 35.815 12.2562 35.7053 12.2562 35.7053C12.2562 35.7053 12.7711 33.24 12.2562 33.24C11.7413 33.24 8.56173 33.1455 8.56173 33.1455Z" fill="#53575C"/>
<path d="M103.642 34.4728C103.642 35.2139 104.174 35.8189 104.828 35.8189H113.375C114.029 35.8189 114.561 35.2139 114.561 34.4728C114.561 33.7317 114.029 33.1305 113.375 33.1305H104.828C104.174 33.1305 103.642 33.7317 103.642 34.4728Z" fill="#656A6E"/>
<path d="M113.116 33.2398C113.116 33.2398 113.269 34.9187 112.497 35.4253C111.725 35.9282 112.807 38.2801 115.433 38.6128C118.06 38.9531 119.604 37.6071 119.604 34.9187C119.604 32.234 118.06 31.7312 117.134 31.5648C116.205 31.3946 113.889 31.3946 113.116 33.2398Z" fill="#36373B"/>
<path d="M116.205 32.3477C116.205 32.3477 119.395 31.6747 119.089 35.2554C118.779 35.7054 119.19 33.017 116.205 32.3477Z" fill="white"/>
<path d="M114.145 32.3479C113.422 32.571 113.53 33.0172 113.373 33.1306C113.22 33.244 113.011 35.5921 112.601 36.0421C112.187 36.4883 113.011 37.7209 114.866 38.3902C115.245 38.4545 115.593 38.4847 115.92 38.4847C118.428 38.4847 119.395 36.7605 119.395 36.2614C119.138 36.734 118.459 36.9269 117.683 36.9269C116.615 36.9269 115.36 36.5601 114.761 36.0421C113.731 35.1459 114.145 32.3479 114.145 32.3479Z" fill="#303134"/>
<path d="M111.047 33.1455C111.047 33.1455 113.826 34.9491 111.263 35.7053C109.718 35.815 107.349 35.7053 107.349 35.7053C107.349 35.7053 106.834 33.24 107.349 33.24C107.864 33.24 111.047 33.1455 111.047 33.1455Z" fill="#53575C"/>
<path d="M18.4869 21.5186L10.6074 24.2032L17.558 88.5053C17.558 94.6686 36.4026 99.6673 59.6478 99.6673C82.893 99.6673 101.738 94.6686 101.738 88.5053L108.688 25.4623L18.4869 21.5186Z" fill="#36869F"/>
<path d="M101.782 88.0818L101.736 88.5053C101.736 88.5128 101.736 88.5242 101.736 88.5393C101.761 88.3881 101.775 88.2368 101.782 88.0818ZM97.2419 93.5266C96.2678 94.0409 95.1476 94.5286 93.9022 94.9937C93.6726 95.0996 93.4396 95.2017 93.21 95.3038C94.7058 94.7669 96.066 94.1732 97.2419 93.5266ZM81.4447 98.0565C75.089 99.0774 67.627 99.6672 59.6467 99.6672C58.5961 99.6672 57.5525 99.6559 56.5227 99.637C56.0635 99.6559 55.6009 99.6672 55.1312 99.6672C55.1034 99.6672 55.0825 99.6672 55.0547 99.6672C55.9661 99.8827 57.8481 100 60.3598 100C65.7902 100 74.1567 99.4441 81.9526 98.098C81.7752 98.0867 81.6047 98.0754 81.4447 98.0565Z" fill="#C6E9E7"/>
<path d="M108.347 26.6608H108.343C108.34 26.7099 108.333 26.7629 108.329 26.812C108.336 26.7629 108.34 26.7099 108.347 26.6608ZM108.201 28.022C107.533 34.2647 106.061 48.0205 104.694 60.831C106.079 47.8768 107.536 34.2306 108.201 28.022ZM95.2458 30.4306C89.144 31.3418 83.1118 31.9506 77.2396 32.3174C81.8455 35.0625 86.3957 40.6283 86.0861 51.9339C85.4808 73.9516 78.7842 98.65 56.5234 99.6369C57.5532 99.6558 58.5968 99.6671 59.6474 99.6671C67.6277 99.6671 75.0897 99.0773 81.4454 98.0564C81.3028 98.0375 81.1671 98.0148 81.0419 97.9883C96.359 96.1242 97.7226 80.8635 99.1107 52.157C99.716 39.7284 97.7122 33.4971 95.2458 30.4306ZM101.786 88.0628C101.521 90.5394 98.0323 93.0842 93.9029 94.9936C95.1483 94.5286 96.2685 94.0408 97.2426 93.5266C99.7716 92.1351 101.431 90.4827 101.737 88.5392C101.737 88.5241 101.737 88.5128 101.737 88.5052L101.782 88.0817C101.786 88.0779 101.786 88.0704 101.786 88.0628Z" fill="#307994"/>
<path d="M108.344 26.6608C108.191 26.7137 108.031 26.7704 107.867 26.8196C108.052 26.8158 108.205 26.8158 108.33 26.812C108.333 26.7629 108.34 26.7099 108.344 26.6608Z" fill="#2C6E89"/>
<path d="M93.2105 95.3038C89.9474 96.4722 86.0303 97.3948 81.9531 98.0981C82.0853 98.1057 82.2245 98.1094 82.3671 98.1094C85.0701 98.1094 89.3525 96.9902 93.2105 95.3038Z" fill="#C6E9E7"/>
<path d="M104.694 60.8312C103.459 72.4053 102.28 83.416 101.786 88.063C102.03 85.783 103.31 73.7892 104.694 60.8312Z" fill="#307994"/>
<path d="M93.9028 94.9937C90.5806 96.2263 86.34 97.2661 81.4453 98.0564C81.6053 98.0753 81.7758 98.0866 81.9532 98.098C86.0303 97.3947 89.9475 96.4721 93.2106 95.3037C93.4402 95.2016 93.6732 95.0995 93.9028 94.9937Z" fill="#9FD4D6"/>
<path d="M108.201 28.022C103.87 28.9937 99.5456 29.7878 95.2459 30.4306C97.7123 33.4971 99.7161 39.7284 99.1108 52.157C97.7227 80.8635 96.3591 96.1242 81.042 97.9883C81.1672 98.0148 81.3029 98.0374 81.4455 98.0564C86.3402 97.2661 90.5808 96.2263 93.903 94.9936C98.0324 93.0841 101.522 90.5394 101.786 88.0628C102.28 83.4158 103.459 72.4051 104.694 60.831C106.061 48.0205 107.533 34.2646 108.201 28.022Z" fill="#2C6E89"/>
<path d="M19.3594 35.5918C19.3594 35.5918 28.3172 35.4784 28.7312 35.5918C29.1417 35.7052 33.7754 74.8779 32.6448 81.7029C32.0256 82.599 26.9814 82.8221 26.9814 82.8221L19.3594 35.5918Z" fill="white"/>
<path d="M28.1129 85.9569C28.2173 86.403 27.4937 93.0087 30.4819 92.676C33.4667 92.3357 32.2318 84.8376 32.2318 84.8376L28.1129 85.9569Z" fill="white"/>
<path d="M10.916 26.8046C10.916 26.8046 17.557 85.5636 17.557 88.5053C17.557 91.4395 22.1907 93.625 22.81 93.7913C17.8666 89.7644 14.0052 45.1053 13.8486 36.3746C13.7547 30.9449 15.4523 29.3455 16.7499 28.9144C13.8695 28.4078 11.9944 28.0145 11.3369 27.8708C11.3787 27.9805 11.3787 27.9805 11.3787 27.9805L11.0691 27.8141C11.0691 27.8141 11.1595 27.833 11.3369 27.8708C11.2848 27.7385 11.17 27.4474 10.916 26.8046Z" fill="#2A6986"/>
<path d="M108.69 26.8046C108.69 26.8046 108.641 26.8046 108.54 26.8083L108.494 27.2205C108.588 26.9898 108.69 26.8046 108.69 26.8046Z" fill="#8DD0D2"/>
<path d="M108.539 26.8083C108.486 26.8083 108.417 26.8121 108.33 26.8121C108.292 27.1751 108.246 27.5797 108.201 28.0221C108.26 28.007 108.319 27.9956 108.379 27.9805C108.299 27.8028 108.389 27.4814 108.493 27.2205L108.539 26.8083Z" fill="#2A6986"/>
<path d="M10.916 26.8046C10.916 26.8046 15.3897 28.4267 17.3483 28.7821C17.4596 28.7745 17.564 28.767 17.6579 28.767C17.9745 28.767 18.1762 28.8199 18.1762 28.8199C18.124 28.8426 18.0475 28.8539 17.9501 28.8539C17.797 28.8539 17.5918 28.8275 17.3483 28.7821C17.1674 28.8048 16.9621 28.8426 16.7499 28.9144C25.0851 30.3815 41.8563 32.7901 62.0645 32.7901C66.9453 32.7901 72.0278 32.6464 77.239 32.3175C75.7814 31.4516 74.3203 30.8693 73.0053 30.4723C68.7681 30.6008 64.2979 30.6689 59.6468 30.6689C37.2678 30.6689 18.9346 29.1111 11.7301 26.918C11.4204 26.8802 11.1491 26.8462 10.916 26.8046Z" fill="#2A6986"/>
<path d="M94.0316 29.1829C88.1594 29.7878 81.0036 30.2378 73.0059 30.4722C74.3208 30.8693 75.7819 31.4515 77.2395 32.3174C83.1117 31.9507 89.1439 31.3419 95.2457 30.4306C94.8491 29.9391 94.4421 29.5269 94.0316 29.1829Z" fill="#26607E"/>
<path d="M108.33 26.8121C108.205 26.8159 108.052 26.8159 107.867 26.8197C105.015 27.7385 100.235 28.5477 94.0322 29.1829C94.4427 29.527 94.8497 29.9391 95.2463 30.4307C99.5461 29.7879 103.87 28.9939 108.201 28.0221C108.247 27.5797 108.292 27.1751 108.33 26.8121Z" fill="#235673"/>
<path d="M10.916 26.8046C11.17 27.4474 11.2848 27.7385 11.3369 27.8708C11.9944 28.0145 13.8695 28.4078 16.7499 28.9144C16.9621 28.8426 17.1674 28.8048 17.3483 28.7821C15.3897 28.4267 10.916 26.8046 10.916 26.8046ZM11.0691 27.8141L11.3787 27.9805C11.3787 27.9805 11.3787 27.9805 11.3369 27.8708C11.1595 27.833 11.0691 27.8141 11.0691 27.8141ZM17.6579 28.767C17.564 28.767 17.4596 28.7745 17.3483 28.7821C17.5918 28.8275 17.797 28.8539 17.9501 28.8539C18.0475 28.8539 18.1241 28.8426 18.1762 28.8199C18.1762 28.8199 17.9745 28.767 17.6579 28.767Z" fill="#215471"/>
<path d="M110.851 24.827C110.851 28.0523 88.6422 30.6689 59.6466 30.6689C30.6509 30.6689 8.44238 28.0523 8.44238 24.827C8.44238 21.5979 30.6509 15.3893 59.6466 15.3893C88.6422 15.3893 110.851 21.5979 110.851 24.827Z" fill="#A1A6A9"/>
<path d="M108.688 24.2031C108.688 27.2167 86.7301 29.6593 59.6478 29.6593C32.5655 29.6593 10.6074 27.2167 10.6074 24.2031C10.6074 21.1896 32.5655 15.3893 59.6478 15.3893C86.7301 15.3893 108.688 21.1896 108.688 24.2031Z" fill="#F8F78E"/>
<path d="M17.2002 24.7362C17.2002 24.7362 22.0357 20.0325 43.8685 16.6786C42.6336 16.7882 27.393 23.3939 24.8187 26.0785C22.6584 26.3054 15.1408 25.4093 17.2002 24.7362Z" fill="white"/>
<path d="M63.8323 15.3213C63.3765 15.3213 62.9347 15.3251 62.5068 15.3326C62.5068 15.3326 62.5764 15.3591 62.7051 15.412C64.4445 15.4385 66.1526 15.4877 67.8329 15.5557C67.3215 15.4801 67.0362 15.4461 67.0362 15.4461C67.8989 15.5066 68.7512 15.5671 69.5862 15.6351C70.0175 15.654 70.4489 15.6767 70.8733 15.6994C70.8733 15.6692 70.8733 15.6351 70.8698 15.6049C68.3338 15.4196 65.9439 15.3213 63.8323 15.3213Z" fill="#FDEEBB"/>
<path d="M62.7061 15.4119C62.7061 15.4156 62.7095 15.4156 62.7095 15.4156C64.4768 15.4421 66.2196 15.4951 67.9312 15.5669C67.8964 15.5631 67.8651 15.5593 67.8338 15.5555C66.1535 15.4875 64.4454 15.4383 62.7061 15.4119ZM69.5871 15.635C69.7784 15.6463 69.9663 15.6614 70.1541 15.6765C70.3942 15.6917 70.6342 15.7068 70.8742 15.7219C70.8742 15.7144 70.8742 15.7068 70.8742 15.6992C70.4498 15.6765 70.0185 15.6539 69.5871 15.635ZM105.168 26.2373C103.088 26.8158 100.152 27.3414 96.5337 27.7989C99.9047 27.3905 102.959 26.8801 105.168 26.2373Z" fill="#9F9A81"/>
<path d="M62.71 15.4156C64.2476 16.0395 73.9116 20.3576 72.3914 29.3265C75.3345 29.2584 87.1588 28.9332 96.5342 27.7989C100.152 27.3414 103.088 26.8158 105.168 26.2373C105.882 26.0293 106.508 25.8062 107.03 25.5718C103.339 27.1183 94.5513 28.0296 91.5456 28.2035C88.773 22.3049 81.4015 19.0115 75.4597 17.2533C73.2368 17.1285 71.2086 17.0151 71.0521 16.7882C70.9721 16.6748 70.9268 16.4214 70.899 16.1076C69.6397 15.8429 68.6065 15.6728 67.9316 15.5669C66.2201 15.4951 64.4772 15.4421 62.71 15.4156ZM70.1546 15.6765C70.3981 15.6992 70.6381 15.7181 70.8781 15.737C70.8781 15.7295 70.8747 15.7257 70.8747 15.7219C70.6346 15.7068 70.3946 15.6917 70.1546 15.6765Z" fill="#FAE96C"/>
<path d="M105.004 21.6205C107.175 22.4864 108.458 23.3107 108.66 24.0102C108.684 24.0782 108.691 24.1425 108.688 24.203C108.931 23.4241 107.516 22.5317 105.004 21.6205Z" fill="#9F9A81"/>
<path d="M80.8857 16.6332C80.9171 16.6823 80.9449 16.7277 80.9727 16.7731C98.6832 18.9813 108.069 22.3541 108.66 24.0102C108.459 23.3107 107.175 22.4864 105.004 21.6205C99.9182 19.7791 90.3272 17.8621 80.8857 16.6332Z" fill="#FAE96C"/>
<path d="M67.0361 15.446C67.0361 15.446 67.3214 15.4801 67.8328 15.5557C68.4207 15.5784 69.0051 15.6049 69.5861 15.6351C68.7512 15.567 67.8989 15.5065 67.0361 15.446Z" fill="#FDDF8D"/>
<path d="M67.834 15.5557C67.8653 15.5594 67.8966 15.5632 67.9314 15.567C68.6758 15.601 69.4168 15.6388 70.1543 15.6767C69.9665 15.6615 69.7786 15.6464 69.5873 15.6351C69.0063 15.6048 68.4219 15.5784 67.834 15.5557Z" fill="#9E9165"/>
<path d="M67.9297 15.5669C68.6046 15.6728 69.6378 15.8429 70.8971 16.1076C70.8867 15.9904 70.8797 15.8656 70.8762 15.737C70.6362 15.7181 70.3961 15.6992 70.1526 15.6765C69.4151 15.6387 68.6741 15.6009 67.9297 15.5669Z" fill="#FBD854"/>
<path d="M108.687 24.2032C108.52 24.7061 107.935 25.1637 107.027 25.572C108.012 25.1599 108.635 24.7061 108.687 24.2032Z" fill="#FAE96C"/>
<path d="M108.661 24.0104C108.682 24.0784 108.689 24.1427 108.689 24.2032C108.693 24.1427 108.686 24.0784 108.661 24.0104Z" fill="#9E9165"/>
<path d="M80.9719 16.7732C81.285 17.2912 81.4172 17.7941 81.1006 17.7941C81.0693 17.7941 81.031 17.7903 80.9893 17.779C79.9978 17.5105 77.6322 17.3744 75.458 17.2534C81.3998 19.0116 88.7713 22.305 91.5439 28.2036C94.5496 28.0297 103.337 27.1184 107.028 25.5719C107.936 25.1636 108.52 24.706 108.687 24.2031C108.687 24.1426 108.68 24.0784 108.659 24.0103C108.068 22.3542 98.6824 18.9814 80.9719 16.7732Z" fill="#FBD854"/>
<path d="M80.99 17.7789C81.8179 18.002 80.7151 15.964 79.8907 15.7258C77.3616 14.996 74.7629 13.9071 74.0046 13.2756C74.0533 11.835 74.5159 10.8368 74.836 8.60211C74.9438 8.07275 75.1108 6.54138 74.0011 4.8928C71.8756 1.74311 66.3512 0.102091 57.5847 0.00756229L57.5325 0H57.5256L57.3934 0.00378115L57.2612 0H57.2542L57.202 0.00756229C48.4355 0.102091 42.9112 1.74311 40.7857 4.8928C39.6759 6.54138 39.8464 8.07275 39.9542 8.60211C40.2708 10.8368 40.737 11.835 40.7857 13.2756C40.0238 13.9071 37.4287 14.996 34.8961 15.7258C34.0716 15.964 33.5811 16.8828 33.8003 17.7789C33.8003 17.7789 42.7338 16.6786 43.8679 16.6786C44.3827 16.2287 43.8714 13.7936 43.8714 13.7936C43.5096 11.5287 43.1547 9.13903 42.9982 8.02359C42.9843 7.94419 42.9669 7.86478 42.946 7.78538C42.946 7.7816 42.946 7.37323 43.28 6.8779C43.9757 5.84565 46.7414 3.44841 57.3934 3.36144C68.0454 3.44841 70.8145 5.84565 71.5103 6.8779C71.8408 7.37323 71.8442 7.7816 71.8408 7.78538C71.8199 7.86478 71.8025 7.94419 71.7921 8.02359C71.632 9.13903 71.2076 11.8085 70.9154 13.7936C70.9154 13.7936 70.7449 16.3421 71.0511 16.7883C71.3607 17.2345 78.9827 17.2345 80.99 17.7789Z" fill="#36373B"/>
<path d="M45.5186 2.46153C45.5186 2.46153 56.3306 -2.07206 70.771 2.88124C68.068 2.21198 56.7168 -0.476419 45.5186 2.46153Z" fill="white"/>
<path d="M39.9541 8.60205C39.9541 8.60205 41.1891 13.2075 41.036 13.4608C40.8829 13.7104 40.7264 13.8767 40.7264 13.8767C40.7264 13.8767 42.8102 13.7104 42.1179 12.7878C41.4221 11.8652 39.9541 8.60205 39.9541 8.60205Z" fill="#303134"/>
<path d="M74.0039 13.2756C74.1674 13.4155 74.4179 13.5743 74.7379 13.7445C74.3901 13.5365 74.1013 13.355 74.0039 13.2756Z" fill="#87898B"/>
<path d="M74.4785 9.93323C74.4785 9.93323 72.7773 12.9544 72.3912 13.5442C72.005 14.1303 76.4057 14.7164 76.4057 14.7164C76.4057 14.7164 75.456 14.1757 74.7394 13.7446C74.4193 13.5745 74.1688 13.4157 74.0053 13.2758C73.7062 13.0413 74.4785 9.93323 74.4785 9.93323Z" fill="#303134"/>
</svg>
