<svg width="115" height="70" viewBox="0 0 115 70" fill="none" xmlns="http://www.w3.org/2000/svg">
<path d="M96 42V50H110.686C113.068 50 115 48.2059 115 46C115 43.7884 113.068 42 110.686 42H96Z" fill="#2E7D78"/>
<path d="M0 46C0 48.2059 1.93231 50 4.32178 50H19V42H4.32178C1.93231 42 0 43.7884 0 46Z" fill="#2E7D78"/>
<path d="M32.517 70H83.477C91.5005 70 98 63.4003 98 55.2668V25H18V55.2668C18 63.4003 24.4935 70 32.517 70Z" fill="#5184BA"/>
<path d="M32.5016 11C24.6421 11 18.2592 17.2309 18 25H98C97.7408 17.2309 91.3519 11 83.4924 11H32.5016Z" fill="#FAC00A"/>
<path d="M13.2668 25C10.9138 25 9 27.0134 9 29.4968C9 31.9866 10.9138 34 13.2668 34H101.733C104.086 34 106 31.9866 106 29.4968C106 27.0134 104.086 25 101.733 25H13.2668Z" fill="#3C5A74"/>
<path d="M54 4.23169V11H62V4.23169C62 1.89202 60.2059 0 58 0C55.7941 0 54 1.89202 54 4.23169Z" fill="#EF3028"/>
<path d="M46.6383 70H32.2657C31.8397 70 31.4199 69.9818 31 69.9455L62.3191 34H78L46.6383 70Z" fill="#7FA7B9"/>
<path d="M62.9612 70H54L85.0449 34H94L62.9612 70Z" fill="#7FA7B9"/>
<path d="M32.4554 70H83.5385C91.0259 70 97.1848 64.314 98 57H18C18.8091 64.314 24.9681 70 32.4554 70Z" fill="#39638C"/>
</svg>
