<svg width="65" height="99" viewBox="0 0 65 99" fill="none" xmlns="http://www.w3.org/2000/svg">
<path fill-rule="evenodd" clip-rule="evenodd" d="M21.3804 5.98182C19.2813 5.98182 17.5638 7.6993 17.5638 9.79844V11.7068C17.5638 13.8059 19.2813 15.5234 21.3804 15.5234H42.1883C44.2875 15.5234 46.005 13.8059 46.005 11.7068V9.79844C46.005 7.6993 44.2875 5.98182 42.1883 5.98182H21.3804ZM6.50294 0H58.4971C62.0788 0 65 2.92852 65 6.50294V92.0393C65 95.6137 62.0788 98.5349 58.4971 98.5349H6.50294C2.92118 98.5349 0 95.6137 0 92.0393V6.50294C0 2.92852 2.92118 0 6.50294 0Z" fill="#CD8C5D"/>
<path d="M51.8837 23.9419H12.3743C11.5449 23.9419 10.7889 24.2795 10.2458 24.83L10.2385 24.8227C9.69532 25.3731 9.35036 26.1291 9.35036 26.9659V85.7638C9.35036 86.5859 9.69532 87.3419 10.2458 87.8923C10.7889 88.4428 11.5449 88.7804 12.3743 88.7804H51.8837C52.7131 88.7804 53.469 88.4428 54.0195 87.8923C54.5626 87.3419 54.9003 86.5859 54.9003 85.7638V26.9659C54.9003 26.1291 54.5626 25.3731 54.0269 24.83L54.0195 24.8227C53.469 24.2795 52.7131 23.9419 51.8837 23.9419ZM12.3743 20.1033H51.8837C53.77 20.1033 55.4801 20.8739 56.7205 22.1217V22.129C57.9683 23.3694 58.7389 25.0796 58.7389 26.9659V85.7638C58.7389 87.6501 57.9683 89.3676 56.7205 90.608C55.4801 91.8411 53.77 92.6117 51.8837 92.6117H12.3743C10.488 92.6117 8.77053 91.8411 7.53012 90.608C6.28972 89.3676 5.51172 87.6501 5.51172 85.7638V26.9659C5.51172 25.0796 6.28972 23.3694 7.53012 22.129V22.1217C8.77053 20.8739 10.488 20.1033 12.3743 20.1033Z" fill="#BF7C50"/>
<path fill-rule="evenodd" clip-rule="evenodd" d="M43.8033 32.7126C43.8033 32.7126 44.963 33.7475 44.574 34.7824C44.185 35.81 23.722 46.6286 23.2009 45.9827C22.6871 45.3369 43.8033 32.7126 43.8033 32.7126ZM29.3809 73.022C29.3809 73.022 17.2778 80.8755 18.9512 81.7783C20.6247 82.6737 34.7902 73.022 34.2764 72.244C33.7627 71.4734 31.3186 71.6055 29.3809 73.022ZM43.0327 42.5037C43.0327 42.5037 36.0526 47.5241 29.535 52.427C27.3698 49.8581 25.5936 47.8544 24.9991 47.3993C23.2082 45.9901 23.4651 49.3296 23.4651 49.3296C23.4651 49.3296 25.0432 51.4141 27.2084 54.1811C22.3789 57.851 18.3347 61.0951 18.4375 61.5648C18.5476 62.0493 23.0835 59.2088 28.346 55.6344C32.6984 61.1391 38.5041 68.2219 39.2968 67.7448C40.5885 66.9742 41.4913 68.2513 40.7133 66.5852C40.2436 65.5576 35.1132 59.0987 30.8048 53.9463C37.5206 49.3003 44.5079 44.1332 44.7061 43.4065C45.0951 41.99 44.574 41.3441 43.0327 42.5037Z" fill="#DCA175"/>
</svg>
