<svg width="77" height="81" viewBox="0 0 77 81" fill="none" xmlns="http://www.w3.org/2000/svg">
<path fill-rule="evenodd" clip-rule="evenodd" d="M32.7668 76.5683C17.1542 76.5683 4.4873 76.1297 4.4873 75.5798C4.4873 75.5405 4.57241 75.4947 4.73606 75.4489L10.2872 34.3585L13.6847 9.24731V9.22767C13.6847 4.84828 22.3387 1.2937 33.0156 1.2937C43.6858 1.2937 52.3399 4.84828 52.3399 9.22767C52.3399 9.48952 52.3137 9.73173 52.2548 9.98703L61.0463 75.5798C61.0463 76.1297 48.386 76.5683 32.7668 76.5683Z" fill="#C3CDD0"/>
<path fill-rule="evenodd" clip-rule="evenodd" d="M53.947 76.241C51.9373 76.3196 49.5611 76.385 46.9164 76.4374L42.7334 2.53101L47.2437 5.05129L54.1696 76.1952L53.947 76.241Z" fill="#A2B8C2"/>
<path fill-rule="evenodd" clip-rule="evenodd" d="M18.5681 76.4372C10.1498 76.2671 4.4873 75.9463 4.4873 75.5797C4.4873 75.5404 4.57241 75.4946 4.73606 75.4488L10.2872 34.3584L13.6847 9.24723V9.2276C13.6847 7.4274 15.151 5.77121 17.6059 4.43579L26.9014 6.05924L18.5681 76.4372Z" fill="#DBE0E2"/>
<path fill-rule="evenodd" clip-rule="evenodd" d="M13.9824 7.84643C15.5797 4.1282 23.4875 1.2937 33.0187 1.2937C42.5369 1.2937 50.4512 4.1282 52.0485 7.84643H13.9824Z" fill="#354346"/>
<path fill-rule="evenodd" clip-rule="evenodd" d="M2.58203 6.94971L9.72392 38.5285L13.9855 7.8138L2.58203 6.94971Z" fill="#C3CDD0"/>
<path fill-rule="evenodd" clip-rule="evenodd" d="M56.5237 22.726C56.5106 21.4495 68.3003 25.5605 69.256 44.06C69.4851 48.5441 69.0007 52.2951 67.7438 53.3818C67.0434 53.984 59.4236 53.8989 59.4236 53.8989C58.9523 49.7094 56.6022 29.0627 56.5237 22.726ZM53.3881 11.2898C52.0723 10.897 50.1543 10.7923 50.2328 11.676L54.8937 63.8949C54.8937 63.8949 65.4265 63.057 66.8863 62.8934C75.6647 61.8722 77.969 50.8222 75.7891 39.3206C73.3408 26.3526 66.4739 15.1193 53.3881 11.2898Z" fill="#354346"/>
<path fill-rule="evenodd" clip-rule="evenodd" d="M62.9857 72.6208H4.14864C-1.38288 72.6208 -1.38288 81 4.14864 81H62.9857C68.5173 81 68.5173 72.6208 62.9857 72.6208Z" fill="#354346"/>
<path fill-rule="evenodd" clip-rule="evenodd" d="M37.8351 62.5925H30.6016V22.1633C30.6016 20.1798 32.225 18.5498 34.2151 18.5498C36.2051 18.5498 37.8351 20.1798 37.8351 22.1633V62.5925Z" fill="#586F79"/>
<path fill-rule="evenodd" clip-rule="evenodd" d="M37.8351 62.592H30.6016V29.0625H37.8351V62.592Z" fill="#00A2B6"/>
<path fill-rule="evenodd" clip-rule="evenodd" d="M52.4153 0.586765L47.8984 5.05126L50.7722 7.97086L55.2956 3.50636C56.0943 2.71427 56.1074 1.41158 55.3153 0.606403C54.5232 -0.19223 53.2205 -0.205324 52.4153 0.586765Z" fill="#354346"/>
</svg>
