<svg width="179" height="261" viewBox="0 0 179 261" fill="none" xmlns="http://www.w3.org/2000/svg">
<path d="M179 261H0V0H179V261Z" fill="#EAEAEA"/>
<path d="M0 257V261H179V257H0Z" fill="#B2B2B2"/>
<path d="M17.5 21C21.0906 21 24 23.7382 24 27.1042V74.8958C24 78.2752 21.0906 81 17.5 81C13.9094 81 11 78.2752 11 74.8958V27.1042C11 23.7382 13.9094 21 17.5 21Z" fill="#FD8800"/>
<path d="M18 80.9733L18.251 81C21.4268 81 24 78.2752 24 74.8958V27.1042C24 23.7382 21.4268 21 18.251 21L18 21.0267V80.9733Z" fill="#F76303"/>
</svg>
