<svg width="159" height="184" viewBox="0 0 159 184" fill="none" xmlns="http://www.w3.org/2000/svg">
<path d="M159 184H0V0H159V184Z" fill="#EAEAEA"/>
<path d="M147.007 69C143.689 69 141 66.3206 141 62.9975V16.0024C141 12.6926 143.689 10 147.007 10C150.325 10 153 12.6926 153 16.0024V62.9975C153 66.3206 150.325 69 147.007 69Z" fill="#FD8800"/>
<path d="M148 10.0263L147.707 10C144.002 10 141 12.6926 141 16.0024V62.9975C141 66.3206 144.002 69 147.707 69L148 68.9737V10.0263Z" fill="#F76303"/>
<path d="M0 181V184H159V181H0Z" fill="#B2B2B2"/>
</svg>
