<svg width="160" height="184" viewBox="0 0 160 184" fill="none" xmlns="http://www.w3.org/2000/svg">
<path d="M0 184H160V0H0V184Z" fill="#EAEAEA"/>
<path d="M13.494 69C16.5355 69 19 66.3206 19 62.9975V16.0024C19 12.6926 16.5355 10 13.494 10C10.4645 10 8 12.6926 8 16.0024V62.9975C8 66.3206 10.4645 69 13.494 69Z" fill="#FD8800"/>
<path d="M13 10.0263L13.251 10C16.4268 10 19 12.6926 19 16.0024V62.9975C19 66.3206 16.4268 69 13.251 69L13 68.9737V10.0263Z" fill="#F76303"/>
<path d="M160 181V184H0V181H160Z" fill="#B2B2B2"/>
</svg>
