<svg width="56" height="32" viewBox="0 0 56 32" fill="none" xmlns="http://www.w3.org/2000/svg">
<path d="M0.0291437 6.54592C-0.420326 12.417 4.35063 26.1258 12.8545 28.9672C21.3572 31.8075 36.1649 32.1526 43.0478 29.174C49.9314 26.1941 56.5586 14.5302 55.9626 6.36465C55.2983 -2.75759 0.647474 -1.51659 0.0291437 6.54592Z" fill="#53688C"/>
<path d="M48.442 25.0879C45.9165 26.3804 39.5258 28.842 27.7925 28.6054C17.4857 28.3968 10.6282 26.5977 7.76562 25.6795C9.26737 27.1732 10.9696 28.3366 12.8544 28.9674C21.3571 31.8076 36.1648 32.1528 43.0477 29.1741C44.9108 28.3683 46.754 26.9255 48.442 25.0879Z" fill="#5D6267"/>
<path d="M0.0291334 6.54592C-0.0137028 7.10341 -0.00873632 7.73168 0.040308 8.41457C2.24482 9.84679 8.89746 12.4244 27.9813 11.9619C48.3371 11.4696 54.3286 9.05836 55.9881 8.0098C56.0085 7.44859 56.0023 6.89855 55.9626 6.36465C55.2983 -2.75759 0.647464 -1.51659 0.0291334 6.54592Z" fill="#9FC7F2"/>
<path d="M27.9463 10.557C23.9538 10.6538 0.249888 9.58791 0.922229 6.75886C1.59271 3.93167 17.8226 1.89727 27.5837 1.66198C34.3878 1.49684 54.4159 3.58961 54.478 6.16598C54.5401 8.74236 34.011 10.4111 27.9463 10.557Z" fill="#FEC326"/>
<path d="M27.3567 10.5638C25.9648 10.5638 23.4394 10.4887 20.4849 10.3285C20.4818 10.3285 20.4768 10.3285 20.4719 10.3285H20.4706C19.6077 10.2807 18.7081 10.2267 17.7881 10.1665C19.1768 9.01737 27.5268 2.5249 38.8442 2.5249C39.1397 2.5249 39.4402 2.52987 39.7407 2.53918C45.1536 2.70308 47.9876 5.32974 49.4546 8.32082C42.9875 9.64626 32.0916 10.457 27.9465 10.557C27.7826 10.562 27.5858 10.5638 27.3567 10.5638Z" fill="#FED66C"/>
<path d="M32.6484 19.3427C30.2279 20.4105 27.4913 21.2976 24.4922 21.7725C24.9503 21.7328 25.3949 21.8694 25.8002 22.3114C26.2565 22.8105 26.3627 23.7865 27.0735 24.0217C27.5087 24.1627 27.9551 23.9547 28.3319 23.7548C29.1042 23.3463 29.7579 22.7435 30.511 22.3021C31.0989 21.9557 31.8017 21.6297 32.4994 21.8253C33.5306 22.1158 33.8944 24.0627 35.0293 23.8721C35.8655 23.7306 36.3944 22.5672 36.9637 22.0463C37.2797 21.7583 37.6659 21.5025 38.0762 21.374C38.7039 21.1753 39.4681 21.2703 39.7704 21.9346C39.9989 22.4399 39.5252 22.772 40.3931 22.944C41.0164 23.0682 41.4181 22.6373 41.7819 22.2512C42.1872 21.8172 42.4939 21.2914 42.9676 20.9239C43.54 20.4806 44.4476 20.1659 45.1343 20.5408C45.6694 20.832 45.5645 21.3007 45.8761 21.703C46.9315 23.0663 47.669 21.6869 48.1582 20.8891C48.6493 20.0914 49.1851 19.406 50.1753 19.3551C50.4149 19.3427 50.5297 19.5792 50.4993 19.7797C50.3752 20.598 50.8569 21.0816 51.4243 21.1815C52.4207 19.6239 53.298 17.9502 54.0119 16.2417C51.2176 17.1431 48.3234 17.7136 45.3975 18.1284C41.1815 18.7274 36.9203 19.144 32.6484 19.3427Z" fill="#009599"/>
<path d="M19.248 22.1446C19.5597 22.725 19.6696 23.5563 20.4642 23.6643C20.9087 23.7245 21.3824 23.4079 21.745 23.1906C22.4552 22.7648 23.3628 21.9999 24.2499 21.8093C22.6538 22.0496 20.9838 22.1719 19.248 22.1446Z" fill="#009599"/>
<path d="M7.11098 21.9527C7.48285 22.3687 7.86899 22.8585 8.53947 22.5847C8.85733 22.4544 9.05102 22.0272 9.24658 21.7715C9.50111 21.4424 9.74261 21.1022 10.1381 20.9352C11.0712 20.5441 11.7274 21.2754 12.2569 21.9397C12.702 22.4991 13.1484 23.1478 13.9604 23.041C14.4391 22.9789 14.8916 22.6375 15.2765 22.3687C15.4814 22.224 15.6881 22.0639 15.8992 21.9049C10.5863 21.2245 7.04207 19.2758 4.6836 17.0657C3.78404 16.8602 2.88945 16.6411 1.99609 16.4058C2.51944 17.7473 3.14212 19.0902 3.85916 20.3808C4.08637 20.3138 4.32601 20.279 4.57247 20.279C5.77064 20.2772 6.38276 21.137 7.11098 21.9527Z" fill="#009599"/>
<path d="M49.8297 20.0945C48.6632 20.4899 48.3242 22.4865 47.0546 22.9471C46.7144 23.0713 46.3537 23.1234 46.0104 22.9788C45.4653 22.7503 45.4908 22.3164 45.2288 21.8824C43.9127 19.691 42.6922 22.6721 41.5319 23.3637C40.785 23.8088 39.6309 23.702 39.1715 22.8677C38.8922 22.3592 39.1765 21.7632 38.2565 22.0221C37.514 22.2307 37.1135 22.9204 36.6386 23.4543C36.1047 24.0547 35.3448 24.7431 34.4658 24.5557C33.2819 24.303 33.2657 22.515 32.0806 22.4387C31.2537 22.3859 30.3864 23.1824 29.7569 23.6257C28.6872 24.3793 27.1762 25.39 26.0873 24.0981C25.6279 23.5524 25.5229 22.5448 24.6824 22.4306C24.2372 22.3704 23.7636 22.6833 23.4029 22.9012C22.7162 23.314 22.0979 23.861 21.3449 24.1552C20.7327 24.3936 20.0958 24.4141 19.5582 23.9913C19.0181 23.5667 18.8163 22.628 18.3873 22.1177C18.0676 22.1034 17.7466 22.0861 17.4226 22.0606C17.2556 22.0476 17.0917 22.032 16.9284 22.0159C15.6613 22.6994 14.4172 24.3613 12.8658 23.4972C12.0171 23.0253 11.2051 20.8686 10.0895 21.7837C9.45193 22.3083 9.29797 23.2271 8.34316 23.3463C7.41318 23.4605 6.81223 22.6231 6.27833 22.0029C5.80962 21.4597 5.35208 20.9556 4.57296 20.9512C4.44569 20.9493 4.32525 20.9655 4.20605 20.9891C6.35159 24.6444 9.27252 27.7708 12.8546 28.9672C21.3573 31.8074 36.1649 32.1526 43.0479 29.1739C45.9297 27.9267 48.765 25.1578 51.0452 21.7614C50.4014 21.5186 49.8775 20.9338 49.8297 20.0945Z" fill="#009599"/>
<path d="M1.9162 13.602C1.59834 13.5163 1.28048 13.4288 0.963867 13.3381C1.24882 14.3414 1.59337 15.3725 1.9969 16.4056C2.89025 16.6409 3.78485 16.86 4.68441 17.0655C3.47816 15.935 2.58047 14.7368 1.9162 13.602Z" fill="#FEC326"/>
<path d="M46.0919 15.3248C43.4932 15.7383 40.874 16.0468 38.2485 16.2771C36.6481 17.3337 34.7695 18.4065 32.6494 19.3427C36.9212 19.144 41.1825 18.7275 45.3984 18.1284C48.3243 17.7137 51.2186 17.1432 54.0129 16.2417C54.4611 15.169 54.8441 14.0819 55.1508 13.0017C52.2504 14.157 49.1749 14.8356 46.0919 15.3248Z" fill="#FEC326"/>
<path d="M6.27807 22.0031C6.81197 22.6232 7.41291 23.4607 8.34289 23.3465C9.29771 23.2273 9.45167 22.3085 10.0892 21.7839C11.2048 20.8688 12.0169 23.0255 12.8655 23.4974C14.4169 24.3615 15.661 22.6996 16.9281 22.0161C16.578 21.9844 16.2347 21.9478 15.8994 21.905C15.6884 22.0639 15.4816 22.2241 15.2768 22.3687C14.8919 22.6375 14.4393 22.979 13.9606 23.0411C13.1486 23.1478 12.7022 22.4991 12.2571 21.9397C11.7276 21.2755 11.0714 20.5441 10.1383 20.9353C9.74283 21.1023 9.50133 21.4425 9.2468 21.7715C9.05124 22.0273 8.85755 22.4544 8.53969 22.5848C7.86921 22.8585 7.48307 22.3687 7.1112 21.9528C6.38298 21.137 5.77086 20.2772 4.57269 20.2791C4.32623 20.2791 4.08659 20.3138 3.85938 20.3809C3.97236 20.5839 4.08659 20.7875 4.20579 20.9893C4.32499 20.9657 4.44542 20.9495 4.57269 20.9514C5.35181 20.9557 5.80935 21.4598 6.27807 22.0031Z" fill="#FEC326"/>
<path d="M50.4996 19.7798C50.53 19.5793 50.4151 19.3428 50.1755 19.3552C49.1853 19.4061 48.6495 20.0915 48.1585 20.8892C47.6693 21.687 46.9317 23.0664 45.8764 21.7031C45.5647 21.3008 45.6696 20.8321 45.1345 20.541C44.4479 20.166 43.5402 20.4807 42.9678 20.924C42.4942 21.2915 42.1875 21.8174 41.7821 22.2513C41.4183 22.6374 41.0166 23.0683 40.3933 22.9441C39.5254 22.7722 39.9991 22.44 39.7707 21.9347C39.4683 21.2704 38.7041 21.1754 38.0765 21.3741C37.6661 21.5026 37.2799 21.7584 36.964 22.0464C36.3947 22.5673 35.8657 23.7307 35.0295 23.8722C33.8947 24.0628 33.5309 22.116 32.4997 21.8254C31.8019 21.6299 31.0991 21.9558 30.5112 22.3022C29.7582 22.7436 29.1045 23.3464 28.3322 23.7549C27.9553 23.9548 27.509 24.1628 27.0738 24.0219C26.3629 23.7866 26.2568 22.8107 25.8005 22.3115C25.3951 21.8695 24.9506 21.7329 24.4924 21.7727C24.4117 21.7857 24.3304 21.7981 24.2497 21.8093C23.3625 21.9999 22.4549 22.7647 21.7447 23.1906C21.3821 23.4079 20.9085 23.7245 20.464 23.6643C19.6693 23.5563 19.5594 22.725 19.2478 22.1445C18.9635 22.1402 18.676 22.1302 18.3867 22.1178C18.8157 22.6281 19.0175 23.5668 19.5576 23.9914C20.0952 24.4142 20.7322 24.3937 21.3443 24.1553C22.0973 23.8611 22.7157 23.3141 23.4023 22.9013C23.763 22.6834 24.2366 22.3705 24.6818 22.4307C25.5224 22.5449 25.6273 23.5525 26.0867 24.0982C27.1756 25.3901 28.6866 24.3795 29.7563 23.6258C30.3858 23.1825 31.2531 22.386 32.08 22.4388C33.2651 22.5151 33.2813 24.3031 34.4652 24.5558C35.3443 24.7432 36.1041 24.0548 36.638 23.4544C37.1129 22.9205 37.5134 22.2308 38.2559 22.0222C39.1759 21.7633 38.8916 22.3593 39.1709 22.8678C39.6304 23.7021 40.7844 23.8089 41.5313 23.3638C42.6916 22.6722 43.9121 19.6911 45.2282 21.8825C45.4902 22.3165 45.4648 22.7504 46.0098 22.9789C46.3531 23.1235 46.7138 23.0714 47.054 22.9472C48.3236 22.4866 48.6626 20.4901 49.8291 20.0946C49.8769 20.9339 50.4009 21.5187 51.0446 21.7615C51.1738 21.5696 51.3004 21.3753 51.4246 21.1816C50.8572 21.0817 50.3754 20.5981 50.4996 19.7798Z" fill="#FEC326"/>
<path d="M34.3106 16.5696C35.6236 16.4901 36.9379 16.3933 38.249 16.2772C42.2588 13.6325 44.5347 11.0946 44.5347 11.0946L23.1061 12.3151L6.04242 10.3856L0.0410156 8.41455C0.0410156 8.41455 0.278167 10.8115 1.91649 13.6021C4.8517 14.4048 7.82851 15.0535 10.8357 15.5458C18.5785 16.8142 26.4864 17.0401 34.3106 16.5696Z" fill="#6990B8"/>
<path d="M4.68359 17.0657C7.04207 19.2758 10.5863 21.2245 15.8992 21.9049C16.376 21.5455 16.8801 21.1978 17.4587 21.0972C18.28 20.9576 18.8636 21.4393 19.2386 22.1259L19.2479 22.1446C20.9837 22.1719 22.6537 22.0496 24.2498 21.8093C24.3305 21.7919 24.4118 21.7808 24.4925 21.7727C27.4917 21.2978 30.2282 20.4106 32.6488 19.3428C23.2639 19.778 13.8269 19.1553 4.68359 17.0657Z" fill="#009599"/>
<path d="M19.7408 22.1477C19.6086 22.1477 19.4751 22.1477 19.3416 22.1446C19.3404 22.1446 19.3404 22.1446 19.3404 22.1446C19.31 22.1446 19.2795 22.1446 19.2479 22.1446L19.2386 22.1259C18.9077 21.52 18.4154 21.0736 17.7399 21.0736C17.6493 21.0736 17.5555 21.0817 17.4587 21.0972C16.8801 21.1978 16.376 21.5455 15.8992 21.9049C10.5863 21.2245 7.04207 19.2758 4.68359 17.0657C4.81272 17.0942 4.94123 17.124 5.06974 17.1526C12.2774 18.7661 19.6626 19.4732 27.0608 19.4732C27.0627 19.4732 27.0639 19.4732 27.0658 19.4732C27.067 19.4732 27.067 19.4732 27.067 19.4732C28.8649 19.4732 30.6609 19.4316 32.4563 19.3509C32.5203 19.349 32.5855 19.3459 32.6488 19.3428C30.2282 20.4106 27.4917 21.2978 24.4925 21.7727C24.4118 21.7808 24.3305 21.7919 24.2498 21.8093C24.2336 21.8124 24.2194 21.8143 24.2032 21.8174C24.1796 21.8205 24.156 21.8236 24.1318 21.8267C24.1033 21.8317 24.0766 21.8348 24.0474 21.8397H24.0462C22.6648 22.0384 21.2314 22.1477 19.747 22.1477C19.7458 22.1477 19.7439 22.1477 19.7408 22.1477Z" fill="#1FA0A4"/>
<path d="M17.1593 21.9029C17.0817 21.9364 17.0041 21.9743 16.9277 22.0159C17.091 22.032 17.2549 22.0476 17.4219 22.0606C17.746 22.086 18.0669 22.1034 18.3866 22.1177C18.1147 21.7967 17.754 21.6453 17.1593 21.9029Z" fill="#009599"/>
<path d="M18.3866 22.1179C18.0669 22.1036 17.746 22.0862 17.4219 22.0608C17.2549 22.0477 17.091 22.0322 16.9277 22.0161C17.0041 21.9745 17.0817 21.9366 17.1593 21.9031C17.3679 21.8124 17.5473 21.7727 17.7044 21.7727C17.9974 21.7727 18.2103 21.9093 18.3866 22.1179Z" fill="#1FA0A4"/>
<path d="M4.68422 17.0656C13.8276 19.1552 23.2646 19.7779 32.6494 19.3427C34.7695 18.4065 36.6481 17.3338 38.2485 16.2771C36.9374 16.3932 35.6231 16.4901 34.3101 16.5695C26.486 17.0401 18.578 16.8141 10.8352 15.5458C7.82803 15.0535 4.85122 14.4048 1.91602 13.6021C2.58029 14.7369 3.47798 15.9351 4.68422 17.0656Z" fill="#FEC326"/>
<path d="M27.0664 19.4731C19.6682 19.4731 12.2799 18.766 5.07037 17.1525C4.94186 17.1239 4.81335 17.0941 4.68422 17.0656C3.47798 15.9351 2.58029 14.7369 1.91602 13.6021C4.85122 14.4048 7.82803 15.0535 10.8352 15.5458C16.1525 16.4168 21.5449 16.7949 26.9379 16.7949C29.3976 16.7949 31.8579 16.7173 34.3101 16.5695C35.6231 16.4901 36.9374 16.3932 38.2485 16.2771C36.6481 17.3338 34.7695 18.4065 32.6494 19.3427C32.5861 19.3458 32.5209 19.3489 32.457 19.3508C30.6616 19.4315 28.8655 19.4731 27.0677 19.4731C27.0677 19.4731 27.0677 19.4731 27.0664 19.4731Z" fill="#FED66C"/>
<path d="M17.4599 21.0972C16.8813 21.1977 16.3772 21.5454 15.9004 21.9049C16.2356 21.9477 16.5789 21.9843 16.9291 22.016C17.0054 21.9744 17.083 21.9365 17.1606 21.903C17.7554 21.6454 18.1161 21.7968 18.388 22.1178C18.6773 22.1302 18.9647 22.1401 19.2491 22.1445L19.2397 22.1259C18.8648 21.4392 18.2812 20.9575 17.4599 21.0972Z" fill="#FEC326"/>
<path d="M17.4599 21.0972C16.8813 21.1977 16.3772 21.5454 15.9004 21.9049C16.2356 21.9477 16.5789 21.9843 16.9291 22.016C17.0054 21.9744 17.083 21.9365 17.1606 21.903C17.7554 21.6454 18.1161 21.7968 18.388 22.1178C18.6773 22.1302 18.9647 22.1401 19.2491 22.1445L19.2397 22.1259C18.8648 21.4392 18.2812 20.9575 17.4599 21.0972Z" fill="#FEC326"/>
<path d="M24.4927 21.7727C24.412 21.7808 24.3307 21.792 24.25 21.8093C24.3307 21.7982 24.412 21.7857 24.4927 21.7727Z" fill="#FEC326"/>
<path d="M24.25 21.8093C24.3307 21.792 24.412 21.7808 24.4927 21.7727C24.412 21.7857 24.3307 21.7982 24.25 21.8093Z" fill="#CBBF56"/>
</svg>
